M48
; DRILL file {KiCad 9.0.7} date 2026-03-07T21:36:15+0100
; FORMAT={-:-/ absolute / inch / decimal}
; #@! TF.CreationDate,2026-03-07T21:36:15+01:00
; #@! TF.GenerationSoftware,Kicad,Pcbnew,9.0.7
; #@! TF.FileFunction,Plated,1,2,PTH
FMAT,2
INCH
; #@! TA.AperFunction,Plated,PTH,ComponentDrill
T1C0.0079
; #@! TA.AperFunction,Plated,PTH,ViaDrill
T2C0.0118
; #@! TA.AperFunction,Plated,PTH,ViaDrill
T3C0.0157
; #@! TA.AperFunction,Plated,PTH,ComponentDrill
T4C0.0197
; #@! TA.AperFunction,Plated,PTH,ComponentDrill
T5C0.0276
%
G90
G05
T1
X4.1929Y-2.0276
X4.1929Y-2.0748
X4.1929Y-2.122
X4.248Y-2.0276
X4.248Y-2.0748
X4.248Y-2.122
T2
X4.2717Y-2.5984
X4.311Y-1.5945
X4.3701Y-2.5
X4.4094Y-2.126
X4.4291Y-2.3425
X4.4291Y-2.5197
X4.6063Y-2.0669
T3
X4.2205Y-2.0748
X4.3071Y-2.2047
T4
X4.0315Y-1.4961
X4.1516Y-1.4961
X4.2717Y-1.4961
T5
X4.0846Y-2.6339
X4.124Y-1.815
X4.1437Y-2.6339
X4.1831Y-1.815
X4.4291Y-2.6378
X4.4685Y-1.6339
X4.4882Y-2.6378
X4.5276Y-1.6339
M30
