%TF.GenerationSoftware,KiCad,Pcbnew,9.0.7*%
%TF.CreationDate,2026-03-07T21:36:15+01:00*%
%TF.ProjectId,tps6292,74707336-3239-4322-9e6b-696361645f70,rev?*%
%TF.SameCoordinates,Original*%
%TF.FileFunction,Copper,L2,Bot*%
%TF.FilePolarity,Positive*%
%FSLAX46Y46*%
G04 Gerber Fmt 4.6, Leading zero omitted, Abs format (unit mm)*
G04 Created by KiCad (PCBNEW 9.0.7) date 2026-03-07 21:36:15*
%MOMM*%
%LPD*%
G01*
G04 APERTURE LIST*
%TA.AperFunction,ComponentPad*%
%ADD10C,0.500000*%
%TD*%
%TA.AperFunction,SMDPad,CuDef*%
%ADD11R,1.900000X2.900000*%
%TD*%
%TA.AperFunction,ComponentPad*%
%ADD12C,1.100000*%
%TD*%
%TA.AperFunction,ComponentPad*%
%ADD13R,0.850000X0.850000*%
%TD*%
%TA.AperFunction,ViaPad*%
%ADD14C,0.800000*%
%TD*%
%TA.AperFunction,ViaPad*%
%ADD15C,0.604799*%
%TD*%
%TA.AperFunction,Conductor*%
%ADD16C,0.500000*%
%TD*%
G04 APERTURE END LIST*
D10*
%TO.P,U4,9,GND*%
%TO.N,GND*%
X107900000Y-53900000D03*
X107900000Y-52700000D03*
X107900000Y-51500000D03*
D11*
X107200000Y-52700000D03*
D10*
X106500000Y-53900000D03*
X106500000Y-52700000D03*
X106500000Y-51500000D03*
%TD*%
D12*
%TO.P,J5,1,Pin_1*%
%TO.N,VCC*%
X112500000Y-67000000D03*
%TO.P,J5,2,Pin_2*%
%TO.N,GND*%
X114000000Y-67000000D03*
%TD*%
%TO.P,J1,1,Pin_1*%
%TO.N,Net-(J1-Pin_1)*%
X115000000Y-41500000D03*
%TO.P,J1,2,Pin_2*%
%TO.N,Net-(J1-Pin_2)*%
X113500000Y-41500000D03*
%TD*%
D13*
%TO.P,J6,1,Pin_1*%
%TO.N,GND*%
X102400000Y-38000000D03*
%TD*%
%TO.P,J7,1,Pin_1*%
%TO.N,GND*%
X105450000Y-38000000D03*
%TD*%
D12*
%TO.P,J4,1,Pin_1*%
%TO.N,Net-(J4-Pin_1)*%
X106250000Y-46100000D03*
%TO.P,J4,2,Pin_2*%
%TO.N,Net-(J4-Pin_2)*%
X104750000Y-46100000D03*
%TD*%
D13*
%TO.P,J8,1,Pin_1*%
%TO.N,GND*%
X108500000Y-38000000D03*
%TD*%
D12*
%TO.P,J2,1,Pin_1*%
%TO.N,VCC*%
X103750000Y-66900000D03*
%TO.P,J2,2,Pin_2*%
%TO.N,GND*%
X105250000Y-66900000D03*
%TD*%
D14*
%TO.N,GND*%
X107200000Y-52700000D03*
D15*
X108500000Y-66000000D03*
D14*
X109400000Y-56000000D03*
D15*
X112500000Y-59500000D03*
X109500000Y-40500000D03*
X117000000Y-52500000D03*
X112500000Y-64000000D03*
%TO.N,VCC*%
X111000000Y-63500000D03*
X112000000Y-54000000D03*
%TD*%
D16*
%TO.N,VCC*%
X112000000Y-55000000D02*
X111000000Y-56000000D01*
X111000000Y-56000000D02*
X111000000Y-63500000D01*
X112000000Y-54000000D02*
X112000000Y-55000000D01*
%TD*%
%TA.AperFunction,Conductor*%
%TO.N,GND*%
G36*
X117443039Y-36019685D02*
G01*
X117488794Y-36072489D01*
X117500000Y-36124000D01*
X117500000Y-72876000D01*
X117480315Y-72943039D01*
X117427511Y-72988794D01*
X117376000Y-73000000D01*
X101124000Y-73000000D01*
X101056961Y-72980315D01*
X101011206Y-72927511D01*
X101000000Y-72876000D01*
X101000000Y-66796530D01*
X102699500Y-66796530D01*
X102699500Y-67003469D01*
X102739868Y-67206412D01*
X102739870Y-67206420D01*
X102819058Y-67397596D01*
X102934024Y-67569657D01*
X103080342Y-67715975D01*
X103080345Y-67715977D01*
X103252402Y-67830941D01*
X103443580Y-67910130D01*
X103644016Y-67949999D01*
X103646530Y-67950499D01*
X103646534Y-67950500D01*
X103646535Y-67950500D01*
X103853466Y-67950500D01*
X103853467Y-67950499D01*
X104056420Y-67910130D01*
X104247598Y-67830941D01*
X104295970Y-67798620D01*
X104704931Y-67798620D01*
X104704932Y-67798621D01*
X104752633Y-67830495D01*
X104752639Y-67830498D01*
X104943725Y-67909649D01*
X104943733Y-67909651D01*
X105146579Y-67949999D01*
X105146583Y-67950000D01*
X105353417Y-67950000D01*
X105353420Y-67949999D01*
X105556266Y-67909651D01*
X105556274Y-67909649D01*
X105747366Y-67830495D01*
X105795066Y-67798621D01*
X105795067Y-67798620D01*
X105250001Y-67253554D01*
X105250000Y-67253554D01*
X104704931Y-67798620D01*
X104295970Y-67798620D01*
X104419655Y-67715977D01*
X104419658Y-67715974D01*
X104470905Y-67664728D01*
X104565974Y-67569658D01*
X104565975Y-67569657D01*
X104565977Y-67569655D01*
X104680941Y-67397598D01*
X104760130Y-67206420D01*
X104795029Y-67030970D01*
X104805853Y-66999476D01*
X104869429Y-66872983D01*
X104850368Y-66853922D01*
X104900000Y-66853922D01*
X104900000Y-66946078D01*
X104923852Y-67035095D01*
X104969930Y-67114905D01*
X105035095Y-67180070D01*
X105114905Y-67226148D01*
X105203922Y-67250000D01*
X105296078Y-67250000D01*
X105385095Y-67226148D01*
X105464905Y-67180070D01*
X105530070Y-67114905D01*
X105576148Y-67035095D01*
X105600000Y-66946078D01*
X105600000Y-66899999D01*
X105603554Y-66899999D01*
X105603554Y-66900001D01*
X106148620Y-67445067D01*
X106148621Y-67445066D01*
X106180495Y-67397366D01*
X106259649Y-67206274D01*
X106259651Y-67206266D01*
X106299999Y-67003420D01*
X106300000Y-67003417D01*
X106300000Y-66896530D01*
X111449500Y-66896530D01*
X111449500Y-67103469D01*
X111489868Y-67306412D01*
X111489870Y-67306420D01*
X111569058Y-67497596D01*
X111684024Y-67669657D01*
X111830342Y-67815975D01*
X111830345Y-67815977D01*
X112002402Y-67930941D01*
X112193580Y-68010130D01*
X112394016Y-68049999D01*
X112396530Y-68050499D01*
X112396534Y-68050500D01*
X112396535Y-68050500D01*
X112603466Y-68050500D01*
X112603467Y-68050499D01*
X112806420Y-68010130D01*
X112997598Y-67930941D01*
X113045970Y-67898620D01*
X113454931Y-67898620D01*
X113454932Y-67898621D01*
X113502633Y-67930495D01*
X113502639Y-67930498D01*
X113693725Y-68009649D01*
X113693733Y-68009651D01*
X113896579Y-68049999D01*
X113896583Y-68050000D01*
X114103417Y-68050000D01*
X114103420Y-68049999D01*
X114306266Y-68009651D01*
X114306274Y-68009649D01*
X114497366Y-67930495D01*
X114545066Y-67898621D01*
X114545067Y-67898620D01*
X114000001Y-67353554D01*
X114000000Y-67353554D01*
X113454931Y-67898620D01*
X113045970Y-67898620D01*
X113169655Y-67815977D01*
X113187012Y-67798620D01*
X113220905Y-67764728D01*
X113315974Y-67669658D01*
X113315975Y-67669657D01*
X113315977Y-67669655D01*
X113430941Y-67497598D01*
X113510130Y-67306420D01*
X113545029Y-67130970D01*
X113555853Y-67099476D01*
X113619429Y-66972983D01*
X113600368Y-66953922D01*
X113650000Y-66953922D01*
X113650000Y-67046078D01*
X113673852Y-67135095D01*
X113719930Y-67214905D01*
X113785095Y-67280070D01*
X113864905Y-67326148D01*
X113953922Y-67350000D01*
X114046078Y-67350000D01*
X114135095Y-67326148D01*
X114214905Y-67280070D01*
X114280070Y-67214905D01*
X114326148Y-67135095D01*
X114350000Y-67046078D01*
X114350000Y-66999999D01*
X114353554Y-66999999D01*
X114353554Y-67000001D01*
X114898620Y-67545067D01*
X114898621Y-67545066D01*
X114930495Y-67497366D01*
X115009649Y-67306274D01*
X115009651Y-67306266D01*
X115049999Y-67103420D01*
X115050000Y-67103417D01*
X115050000Y-66896583D01*
X115049999Y-66896579D01*
X115009651Y-66693733D01*
X115009649Y-66693725D01*
X114930498Y-66502639D01*
X114930495Y-66502633D01*
X114898621Y-66454932D01*
X114898620Y-66454931D01*
X114353554Y-66999999D01*
X114350000Y-66999999D01*
X114350000Y-66953922D01*
X114326148Y-66864905D01*
X114280070Y-66785095D01*
X114214905Y-66719930D01*
X114135095Y-66673852D01*
X114046078Y-66650000D01*
X113953922Y-66650000D01*
X113864905Y-66673852D01*
X113785095Y-66719930D01*
X113719930Y-66785095D01*
X113673852Y-66864905D01*
X113650000Y-66953922D01*
X113600368Y-66953922D01*
X113578965Y-66932519D01*
X113545480Y-66871196D01*
X113545029Y-66869029D01*
X113510160Y-66693733D01*
X113510130Y-66693580D01*
X113430941Y-66502402D01*
X113315977Y-66330345D01*
X113315975Y-66330342D01*
X113169657Y-66184024D01*
X113045967Y-66101378D01*
X113045966Y-66101377D01*
X113454932Y-66101377D01*
X113454932Y-66101378D01*
X114000000Y-66646446D01*
X114000001Y-66646446D01*
X114545067Y-66101378D01*
X114545067Y-66101377D01*
X114497359Y-66069500D01*
X114306274Y-65990350D01*
X114306266Y-65990348D01*
X114103420Y-65950000D01*
X113896579Y-65950000D01*
X113693733Y-65990348D01*
X113693725Y-65990350D01*
X113502641Y-66069500D01*
X113502631Y-66069505D01*
X113454932Y-66101377D01*
X113045966Y-66101377D01*
X112997598Y-66069059D01*
X112806420Y-65989870D01*
X112806412Y-65989868D01*
X112603469Y-65949500D01*
X112603465Y-65949500D01*
X112396535Y-65949500D01*
X112396530Y-65949500D01*
X112193587Y-65989868D01*
X112193579Y-65989870D01*
X112002403Y-66069058D01*
X111830342Y-66184024D01*
X111684024Y-66330342D01*
X111569058Y-66502403D01*
X111489870Y-66693579D01*
X111489868Y-66693587D01*
X111449500Y-66896530D01*
X106300000Y-66896530D01*
X106300000Y-66796583D01*
X106299999Y-66796579D01*
X106259651Y-66593733D01*
X106259649Y-66593725D01*
X106180498Y-66402639D01*
X106180495Y-66402633D01*
X106148621Y-66354932D01*
X106148620Y-66354931D01*
X105603554Y-66899999D01*
X105600000Y-66899999D01*
X105600000Y-66853922D01*
X105576148Y-66764905D01*
X105530070Y-66685095D01*
X105464905Y-66619930D01*
X105385095Y-66573852D01*
X105296078Y-66550000D01*
X105203922Y-66550000D01*
X105114905Y-66573852D01*
X105035095Y-66619930D01*
X104969930Y-66685095D01*
X104923852Y-66764905D01*
X104900000Y-66853922D01*
X104850368Y-66853922D01*
X104828965Y-66832519D01*
X104795480Y-66771196D01*
X104795029Y-66769029D01*
X104780050Y-66693725D01*
X104760130Y-66593580D01*
X104680941Y-66402402D01*
X104565977Y-66230345D01*
X104565975Y-66230342D01*
X104419657Y-66084024D01*
X104295967Y-66001378D01*
X104295966Y-66001377D01*
X104704932Y-66001377D01*
X104704932Y-66001378D01*
X105250000Y-66546446D01*
X105250001Y-66546446D01*
X105795067Y-66001378D01*
X105795067Y-66001377D01*
X105747359Y-65969500D01*
X105556274Y-65890350D01*
X105556266Y-65890348D01*
X105353420Y-65850000D01*
X105146579Y-65850000D01*
X104943733Y-65890348D01*
X104943725Y-65890350D01*
X104752641Y-65969500D01*
X104752631Y-65969505D01*
X104704932Y-66001377D01*
X104295966Y-66001377D01*
X104247598Y-65969059D01*
X104056420Y-65889870D01*
X104056412Y-65889868D01*
X103853469Y-65849500D01*
X103853465Y-65849500D01*
X103646535Y-65849500D01*
X103646530Y-65849500D01*
X103443587Y-65889868D01*
X103443579Y-65889870D01*
X103252403Y-65969058D01*
X103080342Y-66084024D01*
X102934024Y-66230342D01*
X102819058Y-66402403D01*
X102739870Y-66593579D01*
X102739868Y-66593587D01*
X102699500Y-66796530D01*
X101000000Y-66796530D01*
X101000000Y-63420921D01*
X110197101Y-63420921D01*
X110197101Y-63429035D01*
X110197101Y-63579083D01*
X110227954Y-63734189D01*
X110227957Y-63734201D01*
X110288477Y-63880310D01*
X110288478Y-63880312D01*
X110376347Y-64011818D01*
X110488181Y-64123652D01*
X110575653Y-64182098D01*
X110619685Y-64211520D01*
X110619686Y-64211520D01*
X110619687Y-64211521D01*
X110619689Y-64211522D01*
X110765798Y-64272042D01*
X110765803Y-64272044D01*
X110920916Y-64302898D01*
X110920919Y-64302899D01*
X110920921Y-64302899D01*
X111079081Y-64302899D01*
X111079082Y-64302898D01*
X111234197Y-64272044D01*
X111380315Y-64211520D01*
X111511818Y-64123652D01*
X111623652Y-64011818D01*
X111711520Y-63880315D01*
X111772044Y-63734197D01*
X111802899Y-63579079D01*
X111802899Y-63420921D01*
X111802899Y-63420918D01*
X111802898Y-63420916D01*
X111772045Y-63265810D01*
X111772044Y-63265803D01*
X111759939Y-63236578D01*
X111750500Y-63189126D01*
X111750500Y-56362229D01*
X111770185Y-56295190D01*
X111786819Y-56274548D01*
X112582950Y-55478417D01*
X112582952Y-55478415D01*
X112623955Y-55417049D01*
X112665084Y-55355495D01*
X112697042Y-55278342D01*
X112721659Y-55218912D01*
X112750500Y-55073917D01*
X112750500Y-54926082D01*
X112750500Y-54310873D01*
X112759939Y-54263420D01*
X112762444Y-54257372D01*
X112772044Y-54234197D01*
X112802899Y-54079079D01*
X112802899Y-53920921D01*
X112802899Y-53920918D01*
X112802898Y-53920916D01*
X112802694Y-53919891D01*
X112772044Y-53765803D01*
X112711520Y-53619685D01*
X112659748Y-53542203D01*
X112623652Y-53488181D01*
X112511818Y-53376347D01*
X112380312Y-53288478D01*
X112380310Y-53288477D01*
X112234201Y-53227957D01*
X112234189Y-53227954D01*
X112079082Y-53197101D01*
X112079079Y-53197101D01*
X111920921Y-53197101D01*
X111920918Y-53197101D01*
X111765810Y-53227954D01*
X111765798Y-53227957D01*
X111619689Y-53288477D01*
X111619687Y-53288478D01*
X111488181Y-53376347D01*
X111376347Y-53488181D01*
X111288478Y-53619687D01*
X111288477Y-53619689D01*
X111227957Y-53765798D01*
X111227954Y-53765810D01*
X111197101Y-53920916D01*
X111197101Y-54079083D01*
X111227954Y-54234189D01*
X111227956Y-54234197D01*
X111240061Y-54263420D01*
X111249500Y-54310873D01*
X111249500Y-54637770D01*
X111229815Y-54704809D01*
X111213181Y-54725451D01*
X110417048Y-55521583D01*
X110396478Y-55552369D01*
X110376045Y-55582951D01*
X110334919Y-55644499D01*
X110334912Y-55644511D01*
X110278343Y-55781082D01*
X110278340Y-55781092D01*
X110249500Y-55926079D01*
X110249500Y-63189126D01*
X110248071Y-63196305D01*
X110246288Y-63217168D01*
X110243975Y-63227127D01*
X110227956Y-63265803D01*
X110197101Y-63420921D01*
X101000000Y-63420921D01*
X101000000Y-54634723D01*
X106118829Y-54634723D01*
X106142624Y-54643598D01*
X106202155Y-54649999D01*
X106202172Y-54650000D01*
X106950000Y-54650000D01*
X107450000Y-54650000D01*
X108197828Y-54650000D01*
X108197844Y-54649999D01*
X108257372Y-54643598D01*
X108257378Y-54643597D01*
X108281168Y-54634723D01*
X108281168Y-54634722D01*
X107582765Y-53936319D01*
X107526555Y-53880109D01*
X107800000Y-53880109D01*
X107800000Y-53919891D01*
X107815224Y-53956645D01*
X107843355Y-53984776D01*
X107880109Y-54000000D01*
X107919891Y-54000000D01*
X107956645Y-53984776D01*
X107984776Y-53956645D01*
X108000000Y-53919891D01*
X108000000Y-53899999D01*
X108253554Y-53899999D01*
X108253554Y-53900000D01*
X108634722Y-54281168D01*
X108634723Y-54281168D01*
X108643597Y-54257378D01*
X108643598Y-54257372D01*
X108649999Y-54197844D01*
X108650000Y-54197827D01*
X108650000Y-52950000D01*
X108503553Y-52950000D01*
X108611349Y-53057796D01*
X108644834Y-53119119D01*
X108639850Y-53188811D01*
X108611350Y-53233158D01*
X108544508Y-53300000D01*
X108611349Y-53366841D01*
X108644834Y-53428164D01*
X108639850Y-53497856D01*
X108611349Y-53542203D01*
X108253554Y-53899999D01*
X108000000Y-53899999D01*
X108000000Y-53880109D01*
X107984776Y-53843355D01*
X107956645Y-53815224D01*
X107919891Y-53800000D01*
X107880109Y-53800000D01*
X107843355Y-53815224D01*
X107815224Y-53843355D01*
X107800000Y-53880109D01*
X107526555Y-53880109D01*
X107450000Y-53803553D01*
X107450000Y-54650000D01*
X106950000Y-54650000D01*
X106950000Y-53803554D01*
X106949999Y-53803553D01*
X106676777Y-54076777D01*
X106118829Y-54634723D01*
X101000000Y-54634723D01*
X101000000Y-54197844D01*
X105750000Y-54197844D01*
X105756401Y-54257372D01*
X105756403Y-54257382D01*
X105765275Y-54281168D01*
X105765276Y-54281169D01*
X106146446Y-53900000D01*
X106146446Y-53899999D01*
X106126556Y-53880109D01*
X106400000Y-53880109D01*
X106400000Y-53919891D01*
X106415224Y-53956645D01*
X106443355Y-53984776D01*
X106480109Y-54000000D01*
X106519891Y-54000000D01*
X106556645Y-53984776D01*
X106584776Y-53956645D01*
X106600000Y-53919891D01*
X106600000Y-53880109D01*
X106584776Y-53843355D01*
X106556645Y-53815224D01*
X106519891Y-53800000D01*
X106480109Y-53800000D01*
X106443355Y-53815224D01*
X106415224Y-53843355D01*
X106400000Y-53880109D01*
X106126556Y-53880109D01*
X105788650Y-53542203D01*
X105755165Y-53480880D01*
X105760149Y-53411188D01*
X105765469Y-53398973D01*
X105815060Y-53300000D01*
X106253554Y-53300000D01*
X106500000Y-53546446D01*
X106746446Y-53300000D01*
X107653554Y-53300000D01*
X107900000Y-53546446D01*
X108146446Y-53300000D01*
X107900000Y-53053554D01*
X107653554Y-53300000D01*
X106746446Y-53300000D01*
X106500000Y-53053554D01*
X106253554Y-53300000D01*
X105815060Y-53300000D01*
X105828556Y-53273064D01*
X105788650Y-53233158D01*
X105755165Y-53171835D01*
X105760149Y-53102143D01*
X105788650Y-53057795D01*
X105896446Y-52950000D01*
X105750000Y-52950000D01*
X105750000Y-54197844D01*
X101000000Y-54197844D01*
X101000000Y-52680109D01*
X106400000Y-52680109D01*
X106400000Y-52719891D01*
X106415224Y-52756645D01*
X106443355Y-52784776D01*
X106480109Y-52800000D01*
X106519891Y-52800000D01*
X106556645Y-52784776D01*
X106584776Y-52756645D01*
X106600000Y-52719891D01*
X106600000Y-52680109D01*
X107800000Y-52680109D01*
X107800000Y-52719891D01*
X107815224Y-52756645D01*
X107843355Y-52784776D01*
X107880109Y-52800000D01*
X107919891Y-52800000D01*
X107956645Y-52784776D01*
X107984776Y-52756645D01*
X108000000Y-52719891D01*
X108000000Y-52680109D01*
X107984776Y-52643355D01*
X107956645Y-52615224D01*
X107919891Y-52600000D01*
X107880109Y-52600000D01*
X107843355Y-52615224D01*
X107815224Y-52643355D01*
X107800000Y-52680109D01*
X106600000Y-52680109D01*
X106584776Y-52643355D01*
X106556645Y-52615224D01*
X106519891Y-52600000D01*
X106480109Y-52600000D01*
X106443355Y-52615224D01*
X106415224Y-52643355D01*
X106400000Y-52680109D01*
X101000000Y-52680109D01*
X101000000Y-51202155D01*
X105750000Y-51202155D01*
X105750000Y-52450000D01*
X105896446Y-52450000D01*
X105896446Y-52449999D01*
X105788650Y-52342203D01*
X105755165Y-52280880D01*
X105760149Y-52211188D01*
X105765469Y-52198973D01*
X105815060Y-52100000D01*
X106253554Y-52100000D01*
X106500000Y-52346446D01*
X106746446Y-52100000D01*
X107653554Y-52100000D01*
X107900000Y-52346446D01*
X108146446Y-52100000D01*
X107900000Y-51853554D01*
X107653554Y-52100000D01*
X106746446Y-52100000D01*
X106500000Y-51853554D01*
X106253554Y-52100000D01*
X105815060Y-52100000D01*
X105828556Y-52073064D01*
X105788650Y-52033158D01*
X105755165Y-51971835D01*
X105760149Y-51902143D01*
X105788650Y-51857796D01*
X106146446Y-51500000D01*
X106146446Y-51499999D01*
X106126556Y-51480109D01*
X106400000Y-51480109D01*
X106400000Y-51519891D01*
X106415224Y-51556645D01*
X106443355Y-51584776D01*
X106480109Y-51600000D01*
X106519891Y-51600000D01*
X106556645Y-51584776D01*
X106584776Y-51556645D01*
X106600000Y-51519891D01*
X106600000Y-51480109D01*
X106584776Y-51443355D01*
X106556645Y-51415224D01*
X106519891Y-51400000D01*
X106480109Y-51400000D01*
X106443355Y-51415224D01*
X106415224Y-51443355D01*
X106400000Y-51480109D01*
X106126556Y-51480109D01*
X105765276Y-51118829D01*
X105756401Y-51142626D01*
X105750000Y-51202155D01*
X101000000Y-51202155D01*
X101000000Y-50765276D01*
X106118829Y-50765276D01*
X106676777Y-51323223D01*
X106949999Y-51596446D01*
X107450000Y-51596446D01*
X107566337Y-51480109D01*
X107800000Y-51480109D01*
X107800000Y-51519891D01*
X107815224Y-51556645D01*
X107843355Y-51584776D01*
X107880109Y-51600000D01*
X107919891Y-51600000D01*
X107956645Y-51584776D01*
X107984776Y-51556645D01*
X108000000Y-51519891D01*
X108000000Y-51499999D01*
X108253554Y-51499999D01*
X108253554Y-51500001D01*
X108611349Y-51857796D01*
X108644834Y-51919119D01*
X108639850Y-51988811D01*
X108611350Y-52033158D01*
X108544508Y-52100000D01*
X108611349Y-52166841D01*
X108644834Y-52228164D01*
X108639850Y-52297856D01*
X108611350Y-52342203D01*
X108503554Y-52449999D01*
X108503554Y-52450000D01*
X108650000Y-52450000D01*
X108650000Y-51202172D01*
X108649999Y-51202155D01*
X108643598Y-51142624D01*
X108634723Y-51118829D01*
X108253554Y-51499999D01*
X108000000Y-51499999D01*
X108000000Y-51480109D01*
X107984776Y-51443355D01*
X107956645Y-51415224D01*
X107919891Y-51400000D01*
X107880109Y-51400000D01*
X107843355Y-51415224D01*
X107815224Y-51443355D01*
X107800000Y-51480109D01*
X107566337Y-51480109D01*
X107723223Y-51323223D01*
X108281169Y-50765276D01*
X108281168Y-50765275D01*
X108257382Y-50756403D01*
X108257372Y-50756401D01*
X108197844Y-50750000D01*
X107450000Y-50750000D01*
X107450000Y-51596446D01*
X106949999Y-51596446D01*
X106950000Y-51596445D01*
X106950000Y-50750000D01*
X106202155Y-50750000D01*
X106142626Y-50756401D01*
X106118829Y-50765276D01*
X101000000Y-50765276D01*
X101000000Y-45996530D01*
X103699500Y-45996530D01*
X103699500Y-46203469D01*
X103739868Y-46406412D01*
X103739870Y-46406420D01*
X103819058Y-46597596D01*
X103934024Y-46769657D01*
X104080342Y-46915975D01*
X104080345Y-46915977D01*
X104252402Y-47030941D01*
X104443580Y-47110130D01*
X104646530Y-47150499D01*
X104646534Y-47150500D01*
X104646535Y-47150500D01*
X104853466Y-47150500D01*
X104853467Y-47150499D01*
X105056420Y-47110130D01*
X105247598Y-47030941D01*
X105419655Y-46915977D01*
X105419660Y-46915971D01*
X105421329Y-46914603D01*
X105422378Y-46914157D01*
X105424721Y-46912592D01*
X105425017Y-46913036D01*
X105485637Y-46887286D01*
X105554506Y-46899073D01*
X105578671Y-46914603D01*
X105580343Y-46915975D01*
X105580345Y-46915977D01*
X105752402Y-47030941D01*
X105943580Y-47110130D01*
X106146530Y-47150499D01*
X106146534Y-47150500D01*
X106146535Y-47150500D01*
X106353466Y-47150500D01*
X106353467Y-47150499D01*
X106556420Y-47110130D01*
X106747598Y-47030941D01*
X106919655Y-46915977D01*
X107065977Y-46769655D01*
X107180941Y-46597598D01*
X107260130Y-46406420D01*
X107300500Y-46203465D01*
X107300500Y-45996535D01*
X107260130Y-45793580D01*
X107180941Y-45602402D01*
X107065977Y-45430345D01*
X107065975Y-45430342D01*
X106919657Y-45284024D01*
X106833626Y-45226541D01*
X106747598Y-45169059D01*
X106556420Y-45089870D01*
X106556412Y-45089868D01*
X106353469Y-45049500D01*
X106353465Y-45049500D01*
X106146535Y-45049500D01*
X106146530Y-45049500D01*
X105943587Y-45089868D01*
X105943579Y-45089870D01*
X105752403Y-45169058D01*
X105580343Y-45284023D01*
X105578662Y-45285404D01*
X105577608Y-45285851D01*
X105575279Y-45287408D01*
X105574983Y-45286966D01*
X105514351Y-45312715D01*
X105445484Y-45300921D01*
X105421338Y-45285404D01*
X105419656Y-45284023D01*
X105305207Y-45207552D01*
X105247598Y-45169059D01*
X105056420Y-45089870D01*
X105056412Y-45089868D01*
X104853469Y-45049500D01*
X104853465Y-45049500D01*
X104646535Y-45049500D01*
X104646530Y-45049500D01*
X104443587Y-45089868D01*
X104443579Y-45089870D01*
X104252403Y-45169058D01*
X104080342Y-45284024D01*
X103934024Y-45430342D01*
X103819058Y-45602403D01*
X103739870Y-45793579D01*
X103739868Y-45793587D01*
X103699500Y-45996530D01*
X101000000Y-45996530D01*
X101000000Y-41396530D01*
X112449500Y-41396530D01*
X112449500Y-41603469D01*
X112489868Y-41806412D01*
X112489870Y-41806420D01*
X112569058Y-41997596D01*
X112684024Y-42169657D01*
X112830342Y-42315975D01*
X112830345Y-42315977D01*
X113002402Y-42430941D01*
X113193580Y-42510130D01*
X113396530Y-42550499D01*
X113396534Y-42550500D01*
X113396535Y-42550500D01*
X113603466Y-42550500D01*
X113603467Y-42550499D01*
X113806420Y-42510130D01*
X113997598Y-42430941D01*
X114169655Y-42315977D01*
X114169660Y-42315971D01*
X114171329Y-42314603D01*
X114172378Y-42314157D01*
X114174721Y-42312592D01*
X114175017Y-42313036D01*
X114235637Y-42287286D01*
X114304506Y-42299073D01*
X114328671Y-42314603D01*
X114330343Y-42315975D01*
X114330345Y-42315977D01*
X114502402Y-42430941D01*
X114693580Y-42510130D01*
X114896530Y-42550499D01*
X114896534Y-42550500D01*
X114896535Y-42550500D01*
X115103466Y-42550500D01*
X115103467Y-42550499D01*
X115306420Y-42510130D01*
X115497598Y-42430941D01*
X115669655Y-42315977D01*
X115815977Y-42169655D01*
X115930941Y-41997598D01*
X116010130Y-41806420D01*
X116050500Y-41603465D01*
X116050500Y-41396535D01*
X116010130Y-41193580D01*
X115930941Y-41002402D01*
X115815977Y-40830345D01*
X115815975Y-40830342D01*
X115669657Y-40684024D01*
X115583626Y-40626541D01*
X115497598Y-40569059D01*
X115306420Y-40489870D01*
X115306412Y-40489868D01*
X115103469Y-40449500D01*
X115103465Y-40449500D01*
X114896535Y-40449500D01*
X114896530Y-40449500D01*
X114693587Y-40489868D01*
X114693579Y-40489870D01*
X114502403Y-40569058D01*
X114330343Y-40684023D01*
X114328662Y-40685404D01*
X114327608Y-40685851D01*
X114325279Y-40687408D01*
X114324983Y-40686966D01*
X114264351Y-40712715D01*
X114195484Y-40700921D01*
X114171338Y-40685404D01*
X114169656Y-40684023D01*
X114055207Y-40607552D01*
X113997598Y-40569059D01*
X113806420Y-40489870D01*
X113806412Y-40489868D01*
X113603469Y-40449500D01*
X113603465Y-40449500D01*
X113396535Y-40449500D01*
X113396530Y-40449500D01*
X113193587Y-40489868D01*
X113193579Y-40489870D01*
X113002403Y-40569058D01*
X112830342Y-40684024D01*
X112684024Y-40830342D01*
X112569058Y-41002403D01*
X112489870Y-41193579D01*
X112489868Y-41193587D01*
X112449500Y-41396530D01*
X101000000Y-41396530D01*
X101000000Y-38472844D01*
X101475000Y-38472844D01*
X101481401Y-38532372D01*
X101481403Y-38532379D01*
X101531645Y-38667086D01*
X101531649Y-38667093D01*
X101617809Y-38782187D01*
X101617812Y-38782190D01*
X101732906Y-38868350D01*
X101732913Y-38868354D01*
X101867620Y-38918596D01*
X101867627Y-38918598D01*
X101927155Y-38924999D01*
X101927172Y-38925000D01*
X102150000Y-38925000D01*
X102650000Y-38925000D01*
X102872828Y-38925000D01*
X102872844Y-38924999D01*
X102932372Y-38918598D01*
X102932379Y-38918596D01*
X103067086Y-38868354D01*
X103067093Y-38868350D01*
X103182187Y-38782190D01*
X103182190Y-38782187D01*
X103268350Y-38667093D01*
X103268354Y-38667086D01*
X103318596Y-38532379D01*
X103318598Y-38532372D01*
X103324999Y-38472844D01*
X104525000Y-38472844D01*
X104531401Y-38532372D01*
X104531403Y-38532379D01*
X104581645Y-38667086D01*
X104581649Y-38667093D01*
X104667809Y-38782187D01*
X104667812Y-38782190D01*
X104782906Y-38868350D01*
X104782913Y-38868354D01*
X104917620Y-38918596D01*
X104917627Y-38918598D01*
X104977155Y-38924999D01*
X104977172Y-38925000D01*
X105200000Y-38925000D01*
X105700000Y-38925000D01*
X105922828Y-38925000D01*
X105922844Y-38924999D01*
X105982372Y-38918598D01*
X105982379Y-38918596D01*
X106117086Y-38868354D01*
X106117093Y-38868350D01*
X106232187Y-38782190D01*
X106232190Y-38782187D01*
X106318350Y-38667093D01*
X106318354Y-38667086D01*
X106368596Y-38532379D01*
X106368598Y-38532372D01*
X106374999Y-38472844D01*
X107575000Y-38472844D01*
X107581401Y-38532372D01*
X107581403Y-38532379D01*
X107631645Y-38667086D01*
X107631649Y-38667093D01*
X107717809Y-38782187D01*
X107717812Y-38782190D01*
X107832906Y-38868350D01*
X107832913Y-38868354D01*
X107967620Y-38918596D01*
X107967627Y-38918598D01*
X108027155Y-38924999D01*
X108027172Y-38925000D01*
X108250000Y-38925000D01*
X108750000Y-38925000D01*
X108972828Y-38925000D01*
X108972844Y-38924999D01*
X109032372Y-38918598D01*
X109032379Y-38918596D01*
X109167086Y-38868354D01*
X109167093Y-38868350D01*
X109282187Y-38782190D01*
X109282190Y-38782187D01*
X109368350Y-38667093D01*
X109368354Y-38667086D01*
X109418596Y-38532379D01*
X109418598Y-38532372D01*
X109424999Y-38472844D01*
X109425000Y-38472827D01*
X109425000Y-38250000D01*
X108750000Y-38250000D01*
X108750000Y-38925000D01*
X108250000Y-38925000D01*
X108250000Y-38250000D01*
X107575000Y-38250000D01*
X107575000Y-38472844D01*
X106374999Y-38472844D01*
X106375000Y-38472827D01*
X106375000Y-38250000D01*
X105700000Y-38250000D01*
X105700000Y-38925000D01*
X105200000Y-38925000D01*
X105200000Y-38250000D01*
X104525000Y-38250000D01*
X104525000Y-38472844D01*
X103324999Y-38472844D01*
X103325000Y-38472827D01*
X103325000Y-38250000D01*
X102650000Y-38250000D01*
X102650000Y-38925000D01*
X102150000Y-38925000D01*
X102150000Y-38250000D01*
X101475000Y-38250000D01*
X101475000Y-38472844D01*
X101000000Y-38472844D01*
X101000000Y-37950272D01*
X102150000Y-37950272D01*
X102150000Y-38049728D01*
X102188060Y-38141614D01*
X102258386Y-38211940D01*
X102350272Y-38250000D01*
X102449728Y-38250000D01*
X102541614Y-38211940D01*
X102611940Y-38141614D01*
X102650000Y-38049728D01*
X102650000Y-37950272D01*
X105200000Y-37950272D01*
X105200000Y-38049728D01*
X105238060Y-38141614D01*
X105308386Y-38211940D01*
X105400272Y-38250000D01*
X105499728Y-38250000D01*
X105591614Y-38211940D01*
X105661940Y-38141614D01*
X105700000Y-38049728D01*
X105700000Y-37950272D01*
X108250000Y-37950272D01*
X108250000Y-38049728D01*
X108288060Y-38141614D01*
X108358386Y-38211940D01*
X108450272Y-38250000D01*
X108549728Y-38250000D01*
X108641614Y-38211940D01*
X108711940Y-38141614D01*
X108750000Y-38049728D01*
X108750000Y-37950272D01*
X108711940Y-37858386D01*
X108641614Y-37788060D01*
X108549728Y-37750000D01*
X108750000Y-37750000D01*
X109425000Y-37750000D01*
X109425000Y-37527172D01*
X109424999Y-37527155D01*
X109418598Y-37467627D01*
X109418596Y-37467620D01*
X109368354Y-37332913D01*
X109368350Y-37332906D01*
X109282190Y-37217812D01*
X109282187Y-37217809D01*
X109167093Y-37131649D01*
X109167086Y-37131645D01*
X109032379Y-37081403D01*
X109032372Y-37081401D01*
X108972844Y-37075000D01*
X108750000Y-37075000D01*
X108750000Y-37750000D01*
X108549728Y-37750000D01*
X108450272Y-37750000D01*
X108358386Y-37788060D01*
X108288060Y-37858386D01*
X108250000Y-37950272D01*
X105700000Y-37950272D01*
X105661940Y-37858386D01*
X105591614Y-37788060D01*
X105499728Y-37750000D01*
X105700000Y-37750000D01*
X106375000Y-37750000D01*
X106375000Y-37527172D01*
X106374999Y-37527155D01*
X107575000Y-37527155D01*
X107575000Y-37750000D01*
X108250000Y-37750000D01*
X108250000Y-37075000D01*
X108027155Y-37075000D01*
X107967627Y-37081401D01*
X107967620Y-37081403D01*
X107832913Y-37131645D01*
X107832906Y-37131649D01*
X107717812Y-37217809D01*
X107717809Y-37217812D01*
X107631649Y-37332906D01*
X107631645Y-37332913D01*
X107581403Y-37467620D01*
X107581401Y-37467627D01*
X107575000Y-37527155D01*
X106374999Y-37527155D01*
X106368598Y-37467627D01*
X106368596Y-37467620D01*
X106318354Y-37332913D01*
X106318350Y-37332906D01*
X106232190Y-37217812D01*
X106232187Y-37217809D01*
X106117093Y-37131649D01*
X106117086Y-37131645D01*
X105982379Y-37081403D01*
X105982372Y-37081401D01*
X105922844Y-37075000D01*
X105700000Y-37075000D01*
X105700000Y-37750000D01*
X105499728Y-37750000D01*
X105400272Y-37750000D01*
X105308386Y-37788060D01*
X105238060Y-37858386D01*
X105200000Y-37950272D01*
X102650000Y-37950272D01*
X102611940Y-37858386D01*
X102541614Y-37788060D01*
X102449728Y-37750000D01*
X102650000Y-37750000D01*
X103325000Y-37750000D01*
X103325000Y-37527172D01*
X103324999Y-37527155D01*
X104525000Y-37527155D01*
X104525000Y-37750000D01*
X105200000Y-37750000D01*
X105200000Y-37075000D01*
X104977155Y-37075000D01*
X104917627Y-37081401D01*
X104917620Y-37081403D01*
X104782913Y-37131645D01*
X104782906Y-37131649D01*
X104667812Y-37217809D01*
X104667809Y-37217812D01*
X104581649Y-37332906D01*
X104581645Y-37332913D01*
X104531403Y-37467620D01*
X104531401Y-37467627D01*
X104525000Y-37527155D01*
X103324999Y-37527155D01*
X103318598Y-37467627D01*
X103318596Y-37467620D01*
X103268354Y-37332913D01*
X103268350Y-37332906D01*
X103182190Y-37217812D01*
X103182187Y-37217809D01*
X103067093Y-37131649D01*
X103067086Y-37131645D01*
X102932379Y-37081403D01*
X102932372Y-37081401D01*
X102872844Y-37075000D01*
X102650000Y-37075000D01*
X102650000Y-37750000D01*
X102449728Y-37750000D01*
X102350272Y-37750000D01*
X102258386Y-37788060D01*
X102188060Y-37858386D01*
X102150000Y-37950272D01*
X101000000Y-37950272D01*
X101000000Y-37527155D01*
X101475000Y-37527155D01*
X101475000Y-37750000D01*
X102150000Y-37750000D01*
X102150000Y-37075000D01*
X101927155Y-37075000D01*
X101867627Y-37081401D01*
X101867620Y-37081403D01*
X101732913Y-37131645D01*
X101732906Y-37131649D01*
X101617812Y-37217809D01*
X101617809Y-37217812D01*
X101531649Y-37332906D01*
X101531645Y-37332913D01*
X101481403Y-37467620D01*
X101481401Y-37467627D01*
X101475000Y-37527155D01*
X101000000Y-37527155D01*
X101000000Y-36124000D01*
X101019685Y-36056961D01*
X101072489Y-36011206D01*
X101124000Y-36000000D01*
X117376000Y-36000000D01*
X117443039Y-36019685D01*
G37*
%TD.AperFunction*%
%TD*%
M02*
