%TF.GenerationSoftware,KiCad,Pcbnew,9.0.7*%
%TF.CreationDate,2026-03-04T22:11:34+01:00*%
%TF.ProjectId,tps6292,74707336-3239-4322-9e6b-696361645f70,rev?*%
%TF.SameCoordinates,Original*%
%TF.FileFunction,Copper,L1,Top*%
%TF.FilePolarity,Positive*%
%FSLAX46Y46*%
G04 Gerber Fmt 4.6, Leading zero omitted, Abs format (unit mm)*
G04 Created by KiCad (PCBNEW 9.0.7) date 2026-03-04 22:11:34*
%MOMM*%
%LPD*%
G01*
G04 APERTURE LIST*
G04 Aperture macros list*
%AMRoundRect*
0 Rectangle with rounded corners*
0 $1 Rounding radius*
0 $2 $3 $4 $5 $6 $7 $8 $9 X,Y pos of 4 corners*
0 Add a 4 corners polygon primitive as box body*
4,1,4,$2,$3,$4,$5,$6,$7,$8,$9,$2,$3,0*
0 Add four circle primitives for the rounded corners*
1,1,$1+$1,$2,$3*
1,1,$1+$1,$4,$5*
1,1,$1+$1,$6,$7*
1,1,$1+$1,$8,$9*
0 Add four rect primitives between the rounded corners*
20,1,$1+$1,$2,$3,$4,$5,0*
20,1,$1+$1,$4,$5,$6,$7,0*
20,1,$1+$1,$6,$7,$8,$9,0*
20,1,$1+$1,$8,$9,$2,$3,0*%
G04 Aperture macros list end*
%TA.AperFunction,ComponentPad*%
%ADD10C,1.100000*%
%TD*%
%TA.AperFunction,SMDPad,CuDef*%
%ADD11RoundRect,0.225000X-0.225000X-0.250000X0.225000X-0.250000X0.225000X0.250000X-0.225000X0.250000X0*%
%TD*%
%TA.AperFunction,SMDPad,CuDef*%
%ADD12RoundRect,0.150000X0.825000X0.150000X-0.825000X0.150000X-0.825000X-0.150000X0.825000X-0.150000X0*%
%TD*%
%TA.AperFunction,ComponentPad*%
%ADD13C,0.500000*%
%TD*%
%TA.AperFunction,SMDPad,CuDef*%
%ADD14R,2.410000X3.300000*%
%TD*%
%TA.AperFunction,SMDPad,CuDef*%
%ADD15RoundRect,0.200000X0.275000X-0.200000X0.275000X0.200000X-0.275000X0.200000X-0.275000X-0.200000X0*%
%TD*%
%TA.AperFunction,SMDPad,CuDef*%
%ADD16R,0.320000X0.660000*%
%TD*%
%TA.AperFunction,SMDPad,CuDef*%
%ADD17RoundRect,0.225000X0.250000X-0.225000X0.250000X0.225000X-0.250000X0.225000X-0.250000X-0.225000X0*%
%TD*%
%TA.AperFunction,SMDPad,CuDef*%
%ADD18RoundRect,0.200000X-0.200000X-0.275000X0.200000X-0.275000X0.200000X0.275000X-0.200000X0.275000X0*%
%TD*%
%TA.AperFunction,ComponentPad*%
%ADD19R,0.850000X0.850000*%
%TD*%
%TA.AperFunction,SMDPad,CuDef*%
%ADD20R,0.700000X1.000000*%
%TD*%
%TA.AperFunction,SMDPad,CuDef*%
%ADD21RoundRect,0.220000X0.220000X0.380000X-0.220000X0.380000X-0.220000X-0.380000X0.220000X-0.380000X0*%
%TD*%
%TA.AperFunction,SMDPad,CuDef*%
%ADD22RoundRect,0.150000X0.475000X-0.150000X0.475000X0.150000X-0.475000X0.150000X-0.475000X-0.150000X0*%
%TD*%
%TA.AperFunction,SMDPad,CuDef*%
%ADD23RoundRect,0.225000X0.625000X-0.225000X0.625000X0.225000X-0.625000X0.225000X-0.625000X-0.225000X0*%
%TD*%
%TA.AperFunction,ViaPad*%
%ADD24C,0.604799*%
%TD*%
%TA.AperFunction,ViaPad*%
%ADD25C,0.800000*%
%TD*%
%TA.AperFunction,Conductor*%
%ADD26C,0.500000*%
%TD*%
%TA.AperFunction,Conductor*%
%ADD27C,0.300000*%
%TD*%
%TA.AperFunction,Conductor*%
%ADD28C,0.250000*%
%TD*%
%TA.AperFunction,Conductor*%
%ADD29C,0.152400*%
%TD*%
G04 APERTURE END LIST*
D10*
%TO.P,J5,1,Pin_1*%
%TO.N,VCC*%
X112500000Y-67000000D03*
%TO.P,J5,2,Pin_2*%
%TO.N,GND*%
X114000000Y-67000000D03*
%TD*%
%TO.P,J4,1,Pin_1*%
%TO.N,Net-(J4-Pin_1)*%
X106250000Y-46100000D03*
%TO.P,J4,2,Pin_2*%
%TO.N,Net-(J4-Pin_2)*%
X104750000Y-46100000D03*
%TD*%
%TO.P,J2,1,Pin_1*%
%TO.N,VCC*%
X103750000Y-66900000D03*
%TO.P,J2,2,Pin_2*%
%TO.N,GND*%
X105250000Y-66900000D03*
%TD*%
%TO.P,J1,1,Pin_1*%
%TO.N,Net-(J1-Pin_1)*%
X115000000Y-41500000D03*
%TO.P,J1,2,Pin_2*%
%TO.N,Net-(J1-Pin_2)*%
X113500000Y-41500000D03*
%TD*%
D11*
%TO.P,C2,1*%
%TO.N,Net-(D1-+)*%
X114225000Y-54000000D03*
%TO.P,C2,2*%
%TO.N,GND*%
X115775000Y-54000000D03*
%TD*%
D12*
%TO.P,U4,1,GND*%
%TO.N,GND*%
X109675000Y-54605000D03*
%TO.P,U4,2,VCC*%
%TO.N,VCC*%
X109675000Y-53335000D03*
%TO.P,U4,3,VM*%
%TO.N,Net-(D1-+)*%
X109675000Y-52065000D03*
%TO.P,U4,4,OUTA*%
%TO.N,Net-(J4-Pin_1)*%
X109675000Y-50795000D03*
%TO.P,U4,5,OUTB*%
%TO.N,Net-(J4-Pin_2)*%
X104725000Y-50795000D03*
%TO.P,U4,6,INA*%
%TO.N,Net-(J3-Pin_1)*%
X104725000Y-52065000D03*
%TO.P,U4,7,INB*%
%TO.N,Net-(J3-Pin_2)*%
X104725000Y-53335000D03*
%TO.P,U4,8,NC*%
%TO.N,unconnected-(U4-NC-Pad8)*%
X104725000Y-54605000D03*
D13*
%TO.P,U4,9,GND*%
%TO.N,GND*%
X107900000Y-53900000D03*
X107900000Y-52700000D03*
X107900000Y-51500000D03*
D14*
X107200000Y-52700000D03*
D13*
X106500000Y-53900000D03*
X106500000Y-52700000D03*
X106500000Y-51500000D03*
%TD*%
D15*
%TO.P,R5,1*%
%TO.N,VCC*%
X114000000Y-61650000D03*
%TO.P,R5,2*%
%TO.N,Net-(U2-PG)*%
X114000000Y-60000000D03*
%TD*%
D16*
%TO.P,U2,1,FB/VSET*%
%TO.N,Net-(U2-FB{slash}VSET)*%
X114000000Y-58470000D03*
%TO.P,U2,2,PG*%
%TO.N,Net-(U2-PG)*%
X114500000Y-58470000D03*
%TO.P,U2,3,VOS*%
%TO.N,VCC*%
X115000000Y-58470000D03*
%TO.P,U2,4,SW*%
%TO.N,Net-(U2-SW)*%
X115500000Y-58470000D03*
%TO.P,U2,5,GND*%
%TO.N,GND*%
X115500000Y-57000000D03*
%TO.P,U2,6,VIN*%
%TO.N,Net-(D1-+)*%
X115000000Y-57000000D03*
%TO.P,U2,7,EN*%
X114500000Y-57000000D03*
%TO.P,U2,8,MODE/S-CONF*%
%TO.N,Net-(U2-MODE{slash}S-CONF)*%
X114000000Y-57000000D03*
%TD*%
D17*
%TO.P,C5,1*%
%TO.N,VCC*%
X112500000Y-62550000D03*
%TO.P,C5,2*%
%TO.N,GND*%
X112500000Y-61000000D03*
%TD*%
D11*
%TO.P,C7,1*%
%TO.N,Net-(D1-+)*%
X114225000Y-55500000D03*
%TO.P,C7,2*%
%TO.N,GND*%
X115775000Y-55500000D03*
%TD*%
D18*
%TO.P,R6,1*%
%TO.N,GND*%
X111000000Y-56500000D03*
%TO.P,R6,2*%
%TO.N,Net-(U2-MODE{slash}S-CONF)*%
X112650000Y-56500000D03*
%TD*%
D19*
%TO.P,J6,1,Pin_1*%
%TO.N,GND*%
X102400000Y-38000000D03*
%TD*%
D20*
%TO.P,D1,1,+*%
%TO.N,Net-(D1-+)*%
X112600000Y-50950000D03*
%TO.P,D1,2,-*%
%TO.N,GND*%
X116600000Y-50950000D03*
%TO.P,D1,3*%
%TO.N,Net-(J1-Pin_1)*%
X116600000Y-45000000D03*
%TO.P,D1,4*%
%TO.N,Net-(J1-Pin_2)*%
X112600000Y-45000000D03*
%TD*%
D18*
%TO.P,R4,1*%
%TO.N,GND*%
X110675000Y-58000000D03*
%TO.P,R4,2*%
%TO.N,Net-(U2-FB{slash}VSET)*%
X112325000Y-58000000D03*
%TD*%
D19*
%TO.P,J7,1,Pin_1*%
%TO.N,GND*%
X105450000Y-38000000D03*
%TD*%
D11*
%TO.P,C1,1*%
%TO.N,Net-(D1-+)*%
X114000000Y-52500000D03*
%TO.P,C1,2*%
%TO.N,GND*%
X115550000Y-52500000D03*
%TD*%
D21*
%TO.P,L1,1*%
%TO.N,Net-(U2-SW)*%
X116560000Y-63500000D03*
%TO.P,L1,2*%
%TO.N,VCC*%
X114440000Y-63500000D03*
%TD*%
D19*
%TO.P,J8,1,Pin_1*%
%TO.N,GND*%
X108500000Y-38000000D03*
%TD*%
D22*
%TO.P,J3,1,Pin_1*%
%TO.N,Net-(J3-Pin_1)*%
X103875000Y-59450000D03*
%TO.P,J3,2,Pin_2*%
%TO.N,Net-(J3-Pin_2)*%
X103875000Y-58450000D03*
D23*
%TO.P,J3,MP*%
%TO.N,N/C*%
X107000000Y-60900000D03*
X107000000Y-57000000D03*
%TD*%
D24*
%TO.N,GND*%
X108500000Y-66000000D03*
X112500000Y-64000000D03*
X112500000Y-59500000D03*
D25*
X107200000Y-52700000D03*
X109400000Y-56000000D03*
D24*
X109500000Y-40500000D03*
X117000000Y-52500000D03*
%TO.N,VCC*%
X111000000Y-63500000D03*
X112000000Y-54000000D03*
%TD*%
D26*
%TO.N,Net-(J4-Pin_2)*%
X104750000Y-50770000D02*
X104725000Y-50795000D01*
X104750000Y-46100000D02*
X104750000Y-50770000D01*
%TO.N,Net-(J4-Pin_1)*%
X106250000Y-47370000D02*
X106250000Y-46100000D01*
X109675000Y-50795000D02*
X106250000Y-47370000D01*
%TO.N,GND*%
X107600000Y-66900000D02*
X108500000Y-66000000D01*
X105250000Y-66900000D02*
X107600000Y-66900000D01*
%TO.N,VCC*%
X107150000Y-63500000D02*
X103750000Y-66900000D01*
X111000000Y-63500000D02*
X107150000Y-63500000D01*
%TO.N,GND*%
X112500000Y-65500000D02*
X112500000Y-64000000D01*
X114000000Y-67000000D02*
X112500000Y-65500000D01*
%TO.N,VCC*%
X111000000Y-65500000D02*
X112500000Y-67000000D01*
X111000000Y-63500000D02*
X111000000Y-65500000D01*
D27*
X112500000Y-62550000D02*
X111950000Y-62550000D01*
X111950000Y-62550000D02*
X111000000Y-63500000D01*
D26*
%TO.N,GND*%
X109900000Y-56500000D02*
X109400000Y-56000000D01*
X111000000Y-56500000D02*
X109900000Y-56500000D01*
D27*
%TO.N,Net-(U2-MODE{slash}S-CONF)*%
X113500000Y-56500000D02*
X114000000Y-57000000D01*
X112650000Y-56500000D02*
X113500000Y-56500000D01*
%TO.N,GND*%
X110675000Y-58000000D02*
X111000000Y-58000000D01*
X111000000Y-58000000D02*
X112500000Y-59500000D01*
X112500000Y-61000000D02*
X112500000Y-59500000D01*
%TO.N,Net-(U2-FB{slash}VSET)*%
X114000000Y-58470000D02*
X112795000Y-58470000D01*
X112795000Y-58470000D02*
X112325000Y-58000000D01*
%TO.N,VCC*%
X113450000Y-63500000D02*
X112500000Y-62550000D01*
X114440000Y-63500000D02*
X113450000Y-63500000D01*
%TO.N,Net-(U2-SW)*%
X116560000Y-59530000D02*
X115500000Y-58470000D01*
X116560000Y-63500000D02*
X116560000Y-59530000D01*
%TO.N,VCC*%
X114000000Y-63060000D02*
X114440000Y-63500000D01*
X114000000Y-61650000D02*
X114000000Y-63060000D01*
X115000000Y-60650000D02*
X114000000Y-61650000D01*
X115000000Y-58470000D02*
X115000000Y-60650000D01*
%TO.N,Net-(U2-PG)*%
X114500000Y-58470000D02*
X114500000Y-59500000D01*
X114500000Y-59500000D02*
X114000000Y-60000000D01*
%TO.N,Net-(D1-+)*%
X114500000Y-57000000D02*
X115000000Y-57000000D01*
X114500000Y-55775000D02*
X114500000Y-57000000D01*
X114225000Y-55500000D02*
X114500000Y-55775000D01*
D26*
%TO.N,GND*%
X115775000Y-56785860D02*
X115560860Y-57000000D01*
X115775000Y-55500000D02*
X115775000Y-56785860D01*
%TO.N,Net-(J1-Pin_1)*%
X116600000Y-45000000D02*
X116600000Y-43100000D01*
X116600000Y-43100000D02*
X115000000Y-41500000D01*
%TO.N,Net-(J1-Pin_2)*%
X112600000Y-42400000D02*
X113500000Y-41500000D01*
X112600000Y-45000000D02*
X112600000Y-42400000D01*
%TO.N,GND*%
X108500000Y-39500000D02*
X109500000Y-40500000D01*
X108500000Y-38000000D02*
X108500000Y-39500000D01*
X111000000Y-56500000D02*
X111000000Y-57675000D01*
D28*
X107900000Y-51500000D02*
X107900000Y-52000000D01*
D29*
X109500000Y-56000000D02*
X109400000Y-56000000D01*
D28*
X107900000Y-53400000D02*
X107200000Y-52700000D01*
X106500000Y-52000000D02*
X107200000Y-52700000D01*
D29*
X115550000Y-53775000D02*
X115775000Y-54000000D01*
D26*
X116600000Y-50950000D02*
X115550000Y-52000000D01*
X107900000Y-54500000D02*
X109400000Y-56000000D01*
D28*
X107200000Y-52700000D02*
X107200000Y-53200000D01*
X106500000Y-52700000D02*
X107200000Y-52700000D01*
D26*
X115550000Y-52500000D02*
X115550000Y-53775000D01*
X115550000Y-52000000D02*
X115550000Y-52500000D01*
X109675000Y-54605000D02*
X109675000Y-55725000D01*
D28*
X106500000Y-51500000D02*
X106500000Y-52000000D01*
X107900000Y-53900000D02*
X107900000Y-53400000D01*
D29*
X111000000Y-57675000D02*
X110675000Y-58000000D01*
D28*
X107900000Y-52000000D02*
X107200000Y-52700000D01*
X107200000Y-53200000D02*
X106500000Y-53900000D01*
D26*
X115550000Y-52500000D02*
X117000000Y-52500000D01*
X102400000Y-38000000D02*
X105450000Y-38000000D01*
X115775000Y-54000000D02*
X115775000Y-55500000D01*
X107900000Y-53900000D02*
X107900000Y-54500000D01*
X105450000Y-38000000D02*
X108500000Y-38000000D01*
D28*
X109675000Y-55725000D02*
X109400000Y-56000000D01*
X107200000Y-52700000D02*
X107900000Y-52700000D01*
D26*
%TO.N,Net-(D1-+)*%
X114000000Y-52500000D02*
X114000000Y-53775000D01*
X111485000Y-52065000D02*
X112600000Y-50950000D01*
D29*
X114000000Y-53775000D02*
X114225000Y-54000000D01*
D26*
X109675000Y-52065000D02*
X111485000Y-52065000D01*
D29*
X114225000Y-55500000D02*
X114485000Y-55760000D01*
D26*
X112600000Y-51100000D02*
X114000000Y-52500000D01*
X114225000Y-54000000D02*
X114225000Y-55500000D01*
D29*
X112600000Y-50950000D02*
X112600000Y-51100000D01*
D26*
%TO.N,VCC*%
X109675000Y-53335000D02*
X111335000Y-53335000D01*
X111335000Y-53335000D02*
X112000000Y-54000000D01*
D27*
%TO.N,Net-(J3-Pin_1)*%
X103375000Y-59450000D02*
X102450000Y-59450000D01*
X102450000Y-59450000D02*
X101500000Y-58500000D01*
X101500000Y-58500000D02*
X101500000Y-54315001D01*
X101500000Y-54315001D02*
X103750001Y-52065000D01*
X103750001Y-52065000D02*
X104725000Y-52065000D01*
%TO.N,Net-(J3-Pin_2)*%
X104725000Y-53335000D02*
X103750001Y-53335000D01*
X103375000Y-53710001D02*
X103375000Y-58450000D01*
X103750001Y-53335000D02*
X103375000Y-53710001D01*
%TD*%
M02*
