%TF.GenerationSoftware,KiCad,Pcbnew,9.0.7*%
%TF.CreationDate,2026-03-04T22:11:34+01:00*%
%TF.ProjectId,tps6292,74707336-3239-4322-9e6b-696361645f70,rev?*%
%TF.SameCoordinates,Original*%
%TF.FileFunction,Soldermask,Top*%
%TF.FilePolarity,Negative*%
%FSLAX46Y46*%
G04 Gerber Fmt 4.6, Leading zero omitted, Abs format (unit mm)*
G04 Created by KiCad (PCBNEW 9.0.7) date 2026-03-04 22:11:34*
%MOMM*%
%LPD*%
G01*
G04 APERTURE LIST*
G04 Aperture macros list*
%AMRoundRect*
0 Rectangle with rounded corners*
0 $1 Rounding radius*
0 $2 $3 $4 $5 $6 $7 $8 $9 X,Y pos of 4 corners*
0 Add a 4 corners polygon primitive as box body*
4,1,4,$2,$3,$4,$5,$6,$7,$8,$9,$2,$3,0*
0 Add four circle primitives for the rounded corners*
1,1,$1+$1,$2,$3*
1,1,$1+$1,$4,$5*
1,1,$1+$1,$6,$7*
1,1,$1+$1,$8,$9*
0 Add four rect primitives between the rounded corners*
20,1,$1+$1,$2,$3,$4,$5,0*
20,1,$1+$1,$4,$5,$6,$7,0*
20,1,$1+$1,$6,$7,$8,$9,0*
20,1,$1+$1,$8,$9,$2,$3,0*%
G04 Aperture macros list end*
%ADD10C,0.010000*%
%ADD11C,1.100000*%
%ADD12RoundRect,0.225000X-0.225000X-0.250000X0.225000X-0.250000X0.225000X0.250000X-0.225000X0.250000X0*%
%ADD13RoundRect,0.150000X0.825000X0.150000X-0.825000X0.150000X-0.825000X-0.150000X0.825000X-0.150000X0*%
%ADD14R,2.410000X3.300000*%
%ADD15RoundRect,0.200000X0.275000X-0.200000X0.275000X0.200000X-0.275000X0.200000X-0.275000X-0.200000X0*%
%ADD16RoundRect,0.225000X0.250000X-0.225000X0.250000X0.225000X-0.250000X0.225000X-0.250000X-0.225000X0*%
%ADD17RoundRect,0.200000X-0.200000X-0.275000X0.200000X-0.275000X0.200000X0.275000X-0.200000X0.275000X0*%
%ADD18R,0.850000X0.850000*%
%ADD19R,0.700000X1.000000*%
%ADD20RoundRect,0.220000X0.220000X0.380000X-0.220000X0.380000X-0.220000X-0.380000X0.220000X-0.380000X0*%
%ADD21RoundRect,0.150000X0.475000X-0.150000X0.475000X0.150000X-0.475000X0.150000X-0.475000X-0.150000X0*%
%ADD22RoundRect,0.225000X0.625000X-0.225000X0.625000X0.225000X-0.625000X0.225000X-0.625000X-0.225000X0*%
G04 APERTURE END LIST*
D10*
%TO.C,U2*%
X114210000Y-57380000D02*
X113790000Y-57380000D01*
X113790000Y-56620000D01*
X114210000Y-56620000D01*
X114210000Y-57380000D01*
G36*
X114210000Y-57380000D02*
G01*
X113790000Y-57380000D01*
X113790000Y-56620000D01*
X114210000Y-56620000D01*
X114210000Y-57380000D01*
G37*
X114210000Y-58850000D02*
X113790000Y-58850000D01*
X113790000Y-58090000D01*
X114210000Y-58090000D01*
X114210000Y-58850000D01*
G36*
X114210000Y-58850000D02*
G01*
X113790000Y-58850000D01*
X113790000Y-58090000D01*
X114210000Y-58090000D01*
X114210000Y-58850000D01*
G37*
X114710000Y-57380000D02*
X114290000Y-57380000D01*
X114290000Y-56620000D01*
X114710000Y-56620000D01*
X114710000Y-57380000D01*
G36*
X114710000Y-57380000D02*
G01*
X114290000Y-57380000D01*
X114290000Y-56620000D01*
X114710000Y-56620000D01*
X114710000Y-57380000D01*
G37*
X114710000Y-58850000D02*
X114290000Y-58850000D01*
X114290000Y-58090000D01*
X114710000Y-58090000D01*
X114710000Y-58850000D01*
G36*
X114710000Y-58850000D02*
G01*
X114290000Y-58850000D01*
X114290000Y-58090000D01*
X114710000Y-58090000D01*
X114710000Y-58850000D01*
G37*
X115210000Y-57380000D02*
X114790000Y-57380000D01*
X114790000Y-56620000D01*
X115210000Y-56620000D01*
X115210000Y-57380000D01*
G36*
X115210000Y-57380000D02*
G01*
X114790000Y-57380000D01*
X114790000Y-56620000D01*
X115210000Y-56620000D01*
X115210000Y-57380000D01*
G37*
X115210000Y-58850000D02*
X114790000Y-58850000D01*
X114790000Y-58090000D01*
X115210000Y-58090000D01*
X115210000Y-58850000D01*
G36*
X115210000Y-58850000D02*
G01*
X114790000Y-58850000D01*
X114790000Y-58090000D01*
X115210000Y-58090000D01*
X115210000Y-58850000D01*
G37*
X115710000Y-57380000D02*
X115290000Y-57380000D01*
X115290000Y-56620000D01*
X115710000Y-56620000D01*
X115710000Y-57380000D01*
G36*
X115710000Y-57380000D02*
G01*
X115290000Y-57380000D01*
X115290000Y-56620000D01*
X115710000Y-56620000D01*
X115710000Y-57380000D01*
G37*
X115710000Y-58850000D02*
X115290000Y-58850000D01*
X115290000Y-58090000D01*
X115710000Y-58090000D01*
X115710000Y-58850000D01*
G36*
X115710000Y-58850000D02*
G01*
X115290000Y-58850000D01*
X115290000Y-58090000D01*
X115710000Y-58090000D01*
X115710000Y-58850000D01*
G37*
%TD*%
D11*
%TO.C,J5*%
X112500000Y-67000000D03*
X114000000Y-67000000D03*
%TD*%
%TO.C,J4*%
X106250000Y-46100000D03*
X104750000Y-46100000D03*
%TD*%
%TO.C,J2*%
X103750000Y-66900000D03*
X105250000Y-66900000D03*
%TD*%
%TO.C,J1*%
X115000000Y-41500000D03*
X113500000Y-41500000D03*
%TD*%
D12*
%TO.C,C2*%
X114225000Y-54000000D03*
X115775000Y-54000000D03*
%TD*%
D13*
%TO.C,U4*%
X109675000Y-54605000D03*
X109675000Y-53335000D03*
X109675000Y-52065000D03*
X109675000Y-50795000D03*
X104725000Y-50795000D03*
X104725000Y-52065000D03*
X104725000Y-53335000D03*
X104725000Y-54605000D03*
D14*
X107200000Y-52700000D03*
%TD*%
D15*
%TO.C,R5*%
X114000000Y-61650000D03*
X114000000Y-60000000D03*
%TD*%
D16*
%TO.C,C5*%
X112500000Y-62550000D03*
X112500000Y-61000000D03*
%TD*%
D12*
%TO.C,C7*%
X114225000Y-55500000D03*
X115775000Y-55500000D03*
%TD*%
D17*
%TO.C,R6*%
X111000000Y-56500000D03*
X112650000Y-56500000D03*
%TD*%
D18*
%TO.C,J6*%
X102400000Y-38000000D03*
%TD*%
D19*
%TO.C,D1*%
X112600000Y-50950000D03*
X116600000Y-50950000D03*
X116600000Y-45000000D03*
X112600000Y-45000000D03*
%TD*%
D17*
%TO.C,R4*%
X110675000Y-58000000D03*
X112325000Y-58000000D03*
%TD*%
D18*
%TO.C,J7*%
X105450000Y-38000000D03*
%TD*%
D12*
%TO.C,C1*%
X114000000Y-52500000D03*
X115550000Y-52500000D03*
%TD*%
D20*
%TO.C,L1*%
X116560000Y-63500000D03*
X114440000Y-63500000D03*
%TD*%
D18*
%TO.C,J8*%
X108500000Y-38000000D03*
%TD*%
D21*
%TO.C,J3*%
X103875000Y-59450000D03*
X103875000Y-58450000D03*
D22*
X107000000Y-60900000D03*
X107000000Y-57000000D03*
%TD*%
M02*
