%TF.GenerationSoftware,KiCad,Pcbnew,9.0.7*%
%TF.CreationDate,2026-02-26T21:47:14+01:00*%
%TF.ProjectId,tps6292,74707336-3239-4322-9e6b-696361645f70,rev?*%
%TF.SameCoordinates,Original*%
%TF.FileFunction,Soldermask,Top*%
%TF.FilePolarity,Negative*%
%FSLAX46Y46*%
G04 Gerber Fmt 4.6, Leading zero omitted, Abs format (unit mm)*
G04 Created by KiCad (PCBNEW 9.0.7) date 2026-02-26 21:47:14*
%MOMM*%
%LPD*%
G01*
G04 APERTURE LIST*
G04 Aperture macros list*
%AMRoundRect*
0 Rectangle with rounded corners*
0 $1 Rounding radius*
0 $2 $3 $4 $5 $6 $7 $8 $9 X,Y pos of 4 corners*
0 Add a 4 corners polygon primitive as box body*
4,1,4,$2,$3,$4,$5,$6,$7,$8,$9,$2,$3,0*
0 Add four circle primitives for the rounded corners*
1,1,$1+$1,$2,$3*
1,1,$1+$1,$4,$5*
1,1,$1+$1,$6,$7*
1,1,$1+$1,$8,$9*
0 Add four rect primitives between the rounded corners*
20,1,$1+$1,$2,$3,$4,$5,0*
20,1,$1+$1,$4,$5,$6,$7,0*
20,1,$1+$1,$6,$7,$8,$9,0*
20,1,$1+$1,$8,$9,$2,$3,0*%
G04 Aperture macros list end*
%ADD10C,0.010000*%
%ADD11RoundRect,0.225000X-0.225000X-0.250000X0.225000X-0.250000X0.225000X0.250000X-0.225000X0.250000X0*%
%ADD12RoundRect,0.150000X0.825000X0.150000X-0.825000X0.150000X-0.825000X-0.150000X0.825000X-0.150000X0*%
%ADD13R,2.410000X3.300000*%
%ADD14RoundRect,0.200000X0.275000X-0.200000X0.275000X0.200000X-0.275000X0.200000X-0.275000X-0.200000X0*%
%ADD15RoundRect,0.175000X-0.175000X-1.175000X0.175000X-1.175000X0.175000X1.175000X-0.175000X1.175000X0*%
%ADD16RoundRect,0.250000X-0.300000X-0.700000X0.300000X-0.700000X0.300000X0.700000X-0.300000X0.700000X0*%
%ADD17RoundRect,0.225000X0.250000X-0.225000X0.250000X0.225000X-0.250000X0.225000X-0.250000X-0.225000X0*%
%ADD18RoundRect,0.200000X-0.200000X-0.275000X0.200000X-0.275000X0.200000X0.275000X-0.200000X0.275000X0*%
%ADD19R,0.700000X1.000000*%
%ADD20RoundRect,0.175000X0.175000X1.175000X-0.175000X1.175000X-0.175000X-1.175000X0.175000X-1.175000X0*%
%ADD21RoundRect,0.250000X0.300000X0.700000X-0.300000X0.700000X-0.300000X-0.700000X0.300000X-0.700000X0*%
%ADD22RoundRect,0.220000X0.220000X0.380000X-0.220000X0.380000X-0.220000X-0.380000X0.220000X-0.380000X0*%
%ADD23RoundRect,0.150000X0.475000X-0.150000X0.475000X0.150000X-0.475000X0.150000X-0.475000X-0.150000X0*%
%ADD24RoundRect,0.225000X0.625000X-0.225000X0.625000X0.225000X-0.625000X0.225000X-0.625000X-0.225000X0*%
G04 APERTURE END LIST*
D10*
%TO.C,U2*%
X114195000Y-57880000D02*
X113775000Y-57880000D01*
X113775000Y-57120000D01*
X114195000Y-57120000D01*
X114195000Y-57880000D01*
G36*
X114195000Y-57880000D02*
G01*
X113775000Y-57880000D01*
X113775000Y-57120000D01*
X114195000Y-57120000D01*
X114195000Y-57880000D01*
G37*
X114195000Y-59350000D02*
X113775000Y-59350000D01*
X113775000Y-58590000D01*
X114195000Y-58590000D01*
X114195000Y-59350000D01*
G36*
X114195000Y-59350000D02*
G01*
X113775000Y-59350000D01*
X113775000Y-58590000D01*
X114195000Y-58590000D01*
X114195000Y-59350000D01*
G37*
X114695000Y-57880000D02*
X114275000Y-57880000D01*
X114275000Y-57120000D01*
X114695000Y-57120000D01*
X114695000Y-57880000D01*
G36*
X114695000Y-57880000D02*
G01*
X114275000Y-57880000D01*
X114275000Y-57120000D01*
X114695000Y-57120000D01*
X114695000Y-57880000D01*
G37*
X114695000Y-59350000D02*
X114275000Y-59350000D01*
X114275000Y-58590000D01*
X114695000Y-58590000D01*
X114695000Y-59350000D01*
G36*
X114695000Y-59350000D02*
G01*
X114275000Y-59350000D01*
X114275000Y-58590000D01*
X114695000Y-58590000D01*
X114695000Y-59350000D01*
G37*
X115195000Y-57880000D02*
X114775000Y-57880000D01*
X114775000Y-57120000D01*
X115195000Y-57120000D01*
X115195000Y-57880000D01*
G36*
X115195000Y-57880000D02*
G01*
X114775000Y-57880000D01*
X114775000Y-57120000D01*
X115195000Y-57120000D01*
X115195000Y-57880000D01*
G37*
X115195000Y-59350000D02*
X114775000Y-59350000D01*
X114775000Y-58590000D01*
X115195000Y-58590000D01*
X115195000Y-59350000D01*
G36*
X115195000Y-59350000D02*
G01*
X114775000Y-59350000D01*
X114775000Y-58590000D01*
X115195000Y-58590000D01*
X115195000Y-59350000D01*
G37*
X115695000Y-57880000D02*
X115275000Y-57880000D01*
X115275000Y-57120000D01*
X115695000Y-57120000D01*
X115695000Y-57880000D01*
G36*
X115695000Y-57880000D02*
G01*
X115275000Y-57880000D01*
X115275000Y-57120000D01*
X115695000Y-57120000D01*
X115695000Y-57880000D01*
G37*
X115695000Y-59350000D02*
X115275000Y-59350000D01*
X115275000Y-58590000D01*
X115695000Y-58590000D01*
X115695000Y-59350000D01*
G36*
X115695000Y-59350000D02*
G01*
X115275000Y-59350000D01*
X115275000Y-58590000D01*
X115695000Y-58590000D01*
X115695000Y-59350000D01*
G37*
%TD*%
D11*
%TO.C,C2*%
X114225000Y-54000000D03*
X115775000Y-54000000D03*
%TD*%
D12*
%TO.C,U4*%
X109675000Y-54605000D03*
X109675000Y-53335000D03*
X109675000Y-52065000D03*
X109675000Y-50795000D03*
X104725000Y-50795000D03*
X104725000Y-52065000D03*
X104725000Y-53335000D03*
X104725000Y-54605000D03*
D13*
X107200000Y-52700000D03*
%TD*%
D14*
%TO.C,R5*%
X114500000Y-62150000D03*
X114500000Y-60500000D03*
%TD*%
D15*
%TO.C,J5*%
X104250000Y-67000000D03*
X105750000Y-67000000D03*
D16*
X102300000Y-70700000D03*
X107700000Y-70700000D03*
%TD*%
D17*
%TO.C,C5*%
X112500000Y-64050000D03*
X112500000Y-62500000D03*
%TD*%
D11*
%TO.C,C7*%
X114225000Y-55500000D03*
X115775000Y-55500000D03*
%TD*%
D18*
%TO.C,R6*%
X111000000Y-57500000D03*
X112650000Y-57500000D03*
%TD*%
D19*
%TO.C,D1*%
X112600000Y-50950000D03*
X116600000Y-50950000D03*
X116600000Y-45000000D03*
X112600000Y-45000000D03*
%TD*%
D18*
%TO.C,R4*%
X110675000Y-59000000D03*
X112325000Y-59000000D03*
%TD*%
D11*
%TO.C,C1*%
X114000000Y-52500000D03*
X115550000Y-52500000D03*
%TD*%
D20*
%TO.C,J4*%
X106450000Y-47700000D03*
X104950000Y-47700000D03*
D21*
X108400000Y-44000000D03*
X103000000Y-44000000D03*
%TD*%
D20*
%TO.C,J1*%
X114450000Y-42200000D03*
X112950000Y-42200000D03*
D21*
X116400000Y-38500000D03*
X111000000Y-38500000D03*
%TD*%
D15*
%TO.C,J2*%
X113000000Y-67000000D03*
X114500000Y-67000000D03*
D16*
X111050000Y-70700000D03*
X116450000Y-70700000D03*
%TD*%
D22*
%TO.C,L1*%
X116620000Y-64000000D03*
X114500000Y-64000000D03*
%TD*%
D23*
%TO.C,J3*%
X103875000Y-59450000D03*
X103875000Y-58450000D03*
D24*
X107000000Y-60900000D03*
X107000000Y-57000000D03*
%TD*%
M02*
