%TF.GenerationSoftware,KiCad,Pcbnew,9.0.7*%
%TF.CreationDate,2026-03-01T17:57:47+01:00*%
%TF.ProjectId,tps6292,74707336-3239-4322-9e6b-696361645f70,rev?*%
%TF.SameCoordinates,Original*%
%TF.FileFunction,Legend,Top*%
%TF.FilePolarity,Positive*%
%FSLAX46Y46*%
G04 Gerber Fmt 4.6, Leading zero omitted, Abs format (unit mm)*
G04 Created by KiCad (PCBNEW 9.0.7) date 2026-03-01 17:57:47*
%MOMM*%
%LPD*%
G01*
G04 APERTURE LIST*
G04 Aperture macros list*
%AMRoundRect*
0 Rectangle with rounded corners*
0 $1 Rounding radius*
0 $2 $3 $4 $5 $6 $7 $8 $9 X,Y pos of 4 corners*
0 Add a 4 corners polygon primitive as box body*
4,1,4,$2,$3,$4,$5,$6,$7,$8,$9,$2,$3,0*
0 Add four circle primitives for the rounded corners*
1,1,$1+$1,$2,$3*
1,1,$1+$1,$4,$5*
1,1,$1+$1,$6,$7*
1,1,$1+$1,$8,$9*
0 Add four rect primitives between the rounded corners*
20,1,$1+$1,$2,$3,$4,$5,0*
20,1,$1+$1,$4,$5,$6,$7,0*
20,1,$1+$1,$6,$7,$8,$9,0*
20,1,$1+$1,$8,$9,$2,$3,0*%
G04 Aperture macros list end*
%ADD10C,0.150000*%
%ADD11C,0.120000*%
%ADD12C,0.127000*%
%ADD13C,0.200000*%
%ADD14C,0.010000*%
%ADD15R,0.850000X0.850000*%
%ADD16RoundRect,0.225000X-0.225000X-0.250000X0.225000X-0.250000X0.225000X0.250000X-0.225000X0.250000X0*%
%ADD17RoundRect,0.150000X0.825000X0.150000X-0.825000X0.150000X-0.825000X-0.150000X0.825000X-0.150000X0*%
%ADD18R,2.410000X3.300000*%
%ADD19RoundRect,0.200000X0.275000X-0.200000X0.275000X0.200000X-0.275000X0.200000X-0.275000X-0.200000X0*%
%ADD20RoundRect,0.175000X-0.175000X-1.175000X0.175000X-1.175000X0.175000X1.175000X-0.175000X1.175000X0*%
%ADD21RoundRect,0.250000X-0.300000X-0.700000X0.300000X-0.700000X0.300000X0.700000X-0.300000X0.700000X0*%
%ADD22RoundRect,0.225000X0.250000X-0.225000X0.250000X0.225000X-0.250000X0.225000X-0.250000X-0.225000X0*%
%ADD23RoundRect,0.200000X-0.200000X-0.275000X0.200000X-0.275000X0.200000X0.275000X-0.200000X0.275000X0*%
%ADD24R,0.700000X1.000000*%
%ADD25RoundRect,0.175000X0.175000X1.175000X-0.175000X1.175000X-0.175000X-1.175000X0.175000X-1.175000X0*%
%ADD26RoundRect,0.250000X0.300000X0.700000X-0.300000X0.700000X-0.300000X-0.700000X0.300000X-0.700000X0*%
%ADD27RoundRect,0.220000X0.220000X0.380000X-0.220000X0.380000X-0.220000X-0.380000X0.220000X-0.380000X0*%
%ADD28RoundRect,0.150000X0.475000X-0.150000X0.475000X0.150000X-0.475000X0.150000X-0.475000X-0.150000X0*%
%ADD29RoundRect,0.225000X0.625000X-0.225000X0.625000X0.225000X-0.625000X0.225000X-0.625000X-0.225000X0*%
G04 APERTURE END LIST*
D10*
X106344819Y-38333333D02*
X107059104Y-38333333D01*
X107059104Y-38333333D02*
X107201961Y-38380952D01*
X107201961Y-38380952D02*
X107297200Y-38476190D01*
X107297200Y-38476190D02*
X107344819Y-38619047D01*
X107344819Y-38619047D02*
X107344819Y-38714285D01*
X106773390Y-37714285D02*
X106725771Y-37809523D01*
X106725771Y-37809523D02*
X106678152Y-37857142D01*
X106678152Y-37857142D02*
X106582914Y-37904761D01*
X106582914Y-37904761D02*
X106535295Y-37904761D01*
X106535295Y-37904761D02*
X106440057Y-37857142D01*
X106440057Y-37857142D02*
X106392438Y-37809523D01*
X106392438Y-37809523D02*
X106344819Y-37714285D01*
X106344819Y-37714285D02*
X106344819Y-37523809D01*
X106344819Y-37523809D02*
X106392438Y-37428571D01*
X106392438Y-37428571D02*
X106440057Y-37380952D01*
X106440057Y-37380952D02*
X106535295Y-37333333D01*
X106535295Y-37333333D02*
X106582914Y-37333333D01*
X106582914Y-37333333D02*
X106678152Y-37380952D01*
X106678152Y-37380952D02*
X106725771Y-37428571D01*
X106725771Y-37428571D02*
X106773390Y-37523809D01*
X106773390Y-37523809D02*
X106773390Y-37714285D01*
X106773390Y-37714285D02*
X106821009Y-37809523D01*
X106821009Y-37809523D02*
X106868628Y-37857142D01*
X106868628Y-37857142D02*
X106963866Y-37904761D01*
X106963866Y-37904761D02*
X107154342Y-37904761D01*
X107154342Y-37904761D02*
X107249580Y-37857142D01*
X107249580Y-37857142D02*
X107297200Y-37809523D01*
X107297200Y-37809523D02*
X107344819Y-37714285D01*
X107344819Y-37714285D02*
X107344819Y-37523809D01*
X107344819Y-37523809D02*
X107297200Y-37428571D01*
X107297200Y-37428571D02*
X107249580Y-37380952D01*
X107249580Y-37380952D02*
X107154342Y-37333333D01*
X107154342Y-37333333D02*
X106963866Y-37333333D01*
X106963866Y-37333333D02*
X106868628Y-37380952D01*
X106868628Y-37380952D02*
X106821009Y-37428571D01*
X106821009Y-37428571D02*
X106773390Y-37523809D01*
X103294819Y-38333333D02*
X104009104Y-38333333D01*
X104009104Y-38333333D02*
X104151961Y-38380952D01*
X104151961Y-38380952D02*
X104247200Y-38476190D01*
X104247200Y-38476190D02*
X104294819Y-38619047D01*
X104294819Y-38619047D02*
X104294819Y-38714285D01*
X103294819Y-37952380D02*
X103294819Y-37285714D01*
X103294819Y-37285714D02*
X104294819Y-37714285D01*
X100244819Y-38333333D02*
X100959104Y-38333333D01*
X100959104Y-38333333D02*
X101101961Y-38380952D01*
X101101961Y-38380952D02*
X101197200Y-38476190D01*
X101197200Y-38476190D02*
X101244819Y-38619047D01*
X101244819Y-38619047D02*
X101244819Y-38714285D01*
X100244819Y-37428571D02*
X100244819Y-37619047D01*
X100244819Y-37619047D02*
X100292438Y-37714285D01*
X100292438Y-37714285D02*
X100340057Y-37761904D01*
X100340057Y-37761904D02*
X100482914Y-37857142D01*
X100482914Y-37857142D02*
X100673390Y-37904761D01*
X100673390Y-37904761D02*
X101054342Y-37904761D01*
X101054342Y-37904761D02*
X101149580Y-37857142D01*
X101149580Y-37857142D02*
X101197200Y-37809523D01*
X101197200Y-37809523D02*
X101244819Y-37714285D01*
X101244819Y-37714285D02*
X101244819Y-37523809D01*
X101244819Y-37523809D02*
X101197200Y-37428571D01*
X101197200Y-37428571D02*
X101149580Y-37380952D01*
X101149580Y-37380952D02*
X101054342Y-37333333D01*
X101054342Y-37333333D02*
X100816247Y-37333333D01*
X100816247Y-37333333D02*
X100721009Y-37380952D01*
X100721009Y-37380952D02*
X100673390Y-37428571D01*
X100673390Y-37428571D02*
X100625771Y-37523809D01*
X100625771Y-37523809D02*
X100625771Y-37714285D01*
X100625771Y-37714285D02*
X100673390Y-37809523D01*
X100673390Y-37809523D02*
X100721009Y-37857142D01*
X100721009Y-37857142D02*
X100816247Y-37904761D01*
X114833333Y-52929580D02*
X114785714Y-52977200D01*
X114785714Y-52977200D02*
X114642857Y-53024819D01*
X114642857Y-53024819D02*
X114547619Y-53024819D01*
X114547619Y-53024819D02*
X114404762Y-52977200D01*
X114404762Y-52977200D02*
X114309524Y-52881961D01*
X114309524Y-52881961D02*
X114261905Y-52786723D01*
X114261905Y-52786723D02*
X114214286Y-52596247D01*
X114214286Y-52596247D02*
X114214286Y-52453390D01*
X114214286Y-52453390D02*
X114261905Y-52262914D01*
X114261905Y-52262914D02*
X114309524Y-52167676D01*
X114309524Y-52167676D02*
X114404762Y-52072438D01*
X114404762Y-52072438D02*
X114547619Y-52024819D01*
X114547619Y-52024819D02*
X114642857Y-52024819D01*
X114642857Y-52024819D02*
X114785714Y-52072438D01*
X114785714Y-52072438D02*
X114833333Y-52120057D01*
X115214286Y-52120057D02*
X115261905Y-52072438D01*
X115261905Y-52072438D02*
X115357143Y-52024819D01*
X115357143Y-52024819D02*
X115595238Y-52024819D01*
X115595238Y-52024819D02*
X115690476Y-52072438D01*
X115690476Y-52072438D02*
X115738095Y-52120057D01*
X115738095Y-52120057D02*
X115785714Y-52215295D01*
X115785714Y-52215295D02*
X115785714Y-52310533D01*
X115785714Y-52310533D02*
X115738095Y-52453390D01*
X115738095Y-52453390D02*
X115166667Y-53024819D01*
X115166667Y-53024819D02*
X115785714Y-53024819D01*
X106438095Y-52154819D02*
X106438095Y-52964342D01*
X106438095Y-52964342D02*
X106485714Y-53059580D01*
X106485714Y-53059580D02*
X106533333Y-53107200D01*
X106533333Y-53107200D02*
X106628571Y-53154819D01*
X106628571Y-53154819D02*
X106819047Y-53154819D01*
X106819047Y-53154819D02*
X106914285Y-53107200D01*
X106914285Y-53107200D02*
X106961904Y-53059580D01*
X106961904Y-53059580D02*
X107009523Y-52964342D01*
X107009523Y-52964342D02*
X107009523Y-52154819D01*
X107914285Y-52488152D02*
X107914285Y-53154819D01*
X107676190Y-52107200D02*
X107438095Y-52821485D01*
X107438095Y-52821485D02*
X108057142Y-52821485D01*
X113524819Y-61491666D02*
X113048628Y-61824999D01*
X113524819Y-62063094D02*
X112524819Y-62063094D01*
X112524819Y-62063094D02*
X112524819Y-61682142D01*
X112524819Y-61682142D02*
X112572438Y-61586904D01*
X112572438Y-61586904D02*
X112620057Y-61539285D01*
X112620057Y-61539285D02*
X112715295Y-61491666D01*
X112715295Y-61491666D02*
X112858152Y-61491666D01*
X112858152Y-61491666D02*
X112953390Y-61539285D01*
X112953390Y-61539285D02*
X113001009Y-61586904D01*
X113001009Y-61586904D02*
X113048628Y-61682142D01*
X113048628Y-61682142D02*
X113048628Y-62063094D01*
X112524819Y-60586904D02*
X112524819Y-61063094D01*
X112524819Y-61063094D02*
X113001009Y-61110713D01*
X113001009Y-61110713D02*
X112953390Y-61063094D01*
X112953390Y-61063094D02*
X112905771Y-60967856D01*
X112905771Y-60967856D02*
X112905771Y-60729761D01*
X112905771Y-60729761D02*
X112953390Y-60634523D01*
X112953390Y-60634523D02*
X113001009Y-60586904D01*
X113001009Y-60586904D02*
X113096247Y-60539285D01*
X113096247Y-60539285D02*
X113334342Y-60539285D01*
X113334342Y-60539285D02*
X113429580Y-60586904D01*
X113429580Y-60586904D02*
X113477200Y-60634523D01*
X113477200Y-60634523D02*
X113524819Y-60729761D01*
X113524819Y-60729761D02*
X113524819Y-60967856D01*
X113524819Y-60967856D02*
X113477200Y-61063094D01*
X113477200Y-61063094D02*
X113429580Y-61110713D01*
X104666666Y-63904819D02*
X104666666Y-64619104D01*
X104666666Y-64619104D02*
X104619047Y-64761961D01*
X104619047Y-64761961D02*
X104523809Y-64857200D01*
X104523809Y-64857200D02*
X104380952Y-64904819D01*
X104380952Y-64904819D02*
X104285714Y-64904819D01*
X105619047Y-63904819D02*
X105142857Y-63904819D01*
X105142857Y-63904819D02*
X105095238Y-64381009D01*
X105095238Y-64381009D02*
X105142857Y-64333390D01*
X105142857Y-64333390D02*
X105238095Y-64285771D01*
X105238095Y-64285771D02*
X105476190Y-64285771D01*
X105476190Y-64285771D02*
X105571428Y-64333390D01*
X105571428Y-64333390D02*
X105619047Y-64381009D01*
X105619047Y-64381009D02*
X105666666Y-64476247D01*
X105666666Y-64476247D02*
X105666666Y-64714342D01*
X105666666Y-64714342D02*
X105619047Y-64809580D01*
X105619047Y-64809580D02*
X105571428Y-64857200D01*
X105571428Y-64857200D02*
X105476190Y-64904819D01*
X105476190Y-64904819D02*
X105238095Y-64904819D01*
X105238095Y-64904819D02*
X105142857Y-64857200D01*
X105142857Y-64857200D02*
X105095238Y-64809580D01*
X112476876Y-58005619D02*
X112994971Y-58005619D01*
X112994971Y-58005619D02*
X113055923Y-57975142D01*
X113055923Y-57975142D02*
X113086400Y-57944666D01*
X113086400Y-57944666D02*
X113116876Y-57883714D01*
X113116876Y-57883714D02*
X113116876Y-57761809D01*
X113116876Y-57761809D02*
X113086400Y-57700857D01*
X113086400Y-57700857D02*
X113055923Y-57670380D01*
X113055923Y-57670380D02*
X112994971Y-57639904D01*
X112994971Y-57639904D02*
X112476876Y-57639904D01*
X112537828Y-57365619D02*
X112507352Y-57335143D01*
X112507352Y-57335143D02*
X112476876Y-57274190D01*
X112476876Y-57274190D02*
X112476876Y-57121809D01*
X112476876Y-57121809D02*
X112507352Y-57060857D01*
X112507352Y-57060857D02*
X112537828Y-57030381D01*
X112537828Y-57030381D02*
X112598780Y-56999904D01*
X112598780Y-56999904D02*
X112659733Y-56999904D01*
X112659733Y-56999904D02*
X112751161Y-57030381D01*
X112751161Y-57030381D02*
X113116876Y-57396095D01*
X113116876Y-57396095D02*
X113116876Y-56999904D01*
X111429580Y-63441666D02*
X111477200Y-63489285D01*
X111477200Y-63489285D02*
X111524819Y-63632142D01*
X111524819Y-63632142D02*
X111524819Y-63727380D01*
X111524819Y-63727380D02*
X111477200Y-63870237D01*
X111477200Y-63870237D02*
X111381961Y-63965475D01*
X111381961Y-63965475D02*
X111286723Y-64013094D01*
X111286723Y-64013094D02*
X111096247Y-64060713D01*
X111096247Y-64060713D02*
X110953390Y-64060713D01*
X110953390Y-64060713D02*
X110762914Y-64013094D01*
X110762914Y-64013094D02*
X110667676Y-63965475D01*
X110667676Y-63965475D02*
X110572438Y-63870237D01*
X110572438Y-63870237D02*
X110524819Y-63727380D01*
X110524819Y-63727380D02*
X110524819Y-63632142D01*
X110524819Y-63632142D02*
X110572438Y-63489285D01*
X110572438Y-63489285D02*
X110620057Y-63441666D01*
X110524819Y-62536904D02*
X110524819Y-63013094D01*
X110524819Y-63013094D02*
X111001009Y-63060713D01*
X111001009Y-63060713D02*
X110953390Y-63013094D01*
X110953390Y-63013094D02*
X110905771Y-62917856D01*
X110905771Y-62917856D02*
X110905771Y-62679761D01*
X110905771Y-62679761D02*
X110953390Y-62584523D01*
X110953390Y-62584523D02*
X111001009Y-62536904D01*
X111001009Y-62536904D02*
X111096247Y-62489285D01*
X111096247Y-62489285D02*
X111334342Y-62489285D01*
X111334342Y-62489285D02*
X111429580Y-62536904D01*
X111429580Y-62536904D02*
X111477200Y-62584523D01*
X111477200Y-62584523D02*
X111524819Y-62679761D01*
X111524819Y-62679761D02*
X111524819Y-62917856D01*
X111524819Y-62917856D02*
X111477200Y-63013094D01*
X111477200Y-63013094D02*
X111429580Y-63060713D01*
X114833333Y-54429580D02*
X114785714Y-54477200D01*
X114785714Y-54477200D02*
X114642857Y-54524819D01*
X114642857Y-54524819D02*
X114547619Y-54524819D01*
X114547619Y-54524819D02*
X114404762Y-54477200D01*
X114404762Y-54477200D02*
X114309524Y-54381961D01*
X114309524Y-54381961D02*
X114261905Y-54286723D01*
X114261905Y-54286723D02*
X114214286Y-54096247D01*
X114214286Y-54096247D02*
X114214286Y-53953390D01*
X114214286Y-53953390D02*
X114261905Y-53762914D01*
X114261905Y-53762914D02*
X114309524Y-53667676D01*
X114309524Y-53667676D02*
X114404762Y-53572438D01*
X114404762Y-53572438D02*
X114547619Y-53524819D01*
X114547619Y-53524819D02*
X114642857Y-53524819D01*
X114642857Y-53524819D02*
X114785714Y-53572438D01*
X114785714Y-53572438D02*
X114833333Y-53620057D01*
X115166667Y-53524819D02*
X115833333Y-53524819D01*
X115833333Y-53524819D02*
X115404762Y-54524819D01*
X111658333Y-56524819D02*
X111325000Y-56048628D01*
X111086905Y-56524819D02*
X111086905Y-55524819D01*
X111086905Y-55524819D02*
X111467857Y-55524819D01*
X111467857Y-55524819D02*
X111563095Y-55572438D01*
X111563095Y-55572438D02*
X111610714Y-55620057D01*
X111610714Y-55620057D02*
X111658333Y-55715295D01*
X111658333Y-55715295D02*
X111658333Y-55858152D01*
X111658333Y-55858152D02*
X111610714Y-55953390D01*
X111610714Y-55953390D02*
X111563095Y-56001009D01*
X111563095Y-56001009D02*
X111467857Y-56048628D01*
X111467857Y-56048628D02*
X111086905Y-56048628D01*
X112515476Y-55524819D02*
X112325000Y-55524819D01*
X112325000Y-55524819D02*
X112229762Y-55572438D01*
X112229762Y-55572438D02*
X112182143Y-55620057D01*
X112182143Y-55620057D02*
X112086905Y-55762914D01*
X112086905Y-55762914D02*
X112039286Y-55953390D01*
X112039286Y-55953390D02*
X112039286Y-56334342D01*
X112039286Y-56334342D02*
X112086905Y-56429580D01*
X112086905Y-56429580D02*
X112134524Y-56477200D01*
X112134524Y-56477200D02*
X112229762Y-56524819D01*
X112229762Y-56524819D02*
X112420238Y-56524819D01*
X112420238Y-56524819D02*
X112515476Y-56477200D01*
X112515476Y-56477200D02*
X112563095Y-56429580D01*
X112563095Y-56429580D02*
X112610714Y-56334342D01*
X112610714Y-56334342D02*
X112610714Y-56096247D01*
X112610714Y-56096247D02*
X112563095Y-56001009D01*
X112563095Y-56001009D02*
X112515476Y-55953390D01*
X112515476Y-55953390D02*
X112420238Y-55905771D01*
X112420238Y-55905771D02*
X112229762Y-55905771D01*
X112229762Y-55905771D02*
X112134524Y-55953390D01*
X112134524Y-55953390D02*
X112086905Y-56001009D01*
X112086905Y-56001009D02*
X112039286Y-56096247D01*
X111354819Y-48713094D02*
X110354819Y-48713094D01*
X110354819Y-48713094D02*
X110354819Y-48474999D01*
X110354819Y-48474999D02*
X110402438Y-48332142D01*
X110402438Y-48332142D02*
X110497676Y-48236904D01*
X110497676Y-48236904D02*
X110592914Y-48189285D01*
X110592914Y-48189285D02*
X110783390Y-48141666D01*
X110783390Y-48141666D02*
X110926247Y-48141666D01*
X110926247Y-48141666D02*
X111116723Y-48189285D01*
X111116723Y-48189285D02*
X111211961Y-48236904D01*
X111211961Y-48236904D02*
X111307200Y-48332142D01*
X111307200Y-48332142D02*
X111354819Y-48474999D01*
X111354819Y-48474999D02*
X111354819Y-48713094D01*
X111354819Y-47189285D02*
X111354819Y-47760713D01*
X111354819Y-47474999D02*
X110354819Y-47474999D01*
X110354819Y-47474999D02*
X110497676Y-47570237D01*
X110497676Y-47570237D02*
X110592914Y-47665475D01*
X110592914Y-47665475D02*
X110640533Y-47760713D01*
X111333333Y-58024819D02*
X111000000Y-57548628D01*
X110761905Y-58024819D02*
X110761905Y-57024819D01*
X110761905Y-57024819D02*
X111142857Y-57024819D01*
X111142857Y-57024819D02*
X111238095Y-57072438D01*
X111238095Y-57072438D02*
X111285714Y-57120057D01*
X111285714Y-57120057D02*
X111333333Y-57215295D01*
X111333333Y-57215295D02*
X111333333Y-57358152D01*
X111333333Y-57358152D02*
X111285714Y-57453390D01*
X111285714Y-57453390D02*
X111238095Y-57501009D01*
X111238095Y-57501009D02*
X111142857Y-57548628D01*
X111142857Y-57548628D02*
X110761905Y-57548628D01*
X112190476Y-57358152D02*
X112190476Y-58024819D01*
X111952381Y-56977200D02*
X111714286Y-57691485D01*
X111714286Y-57691485D02*
X112333333Y-57691485D01*
X114608333Y-51429580D02*
X114560714Y-51477200D01*
X114560714Y-51477200D02*
X114417857Y-51524819D01*
X114417857Y-51524819D02*
X114322619Y-51524819D01*
X114322619Y-51524819D02*
X114179762Y-51477200D01*
X114179762Y-51477200D02*
X114084524Y-51381961D01*
X114084524Y-51381961D02*
X114036905Y-51286723D01*
X114036905Y-51286723D02*
X113989286Y-51096247D01*
X113989286Y-51096247D02*
X113989286Y-50953390D01*
X113989286Y-50953390D02*
X114036905Y-50762914D01*
X114036905Y-50762914D02*
X114084524Y-50667676D01*
X114084524Y-50667676D02*
X114179762Y-50572438D01*
X114179762Y-50572438D02*
X114322619Y-50524819D01*
X114322619Y-50524819D02*
X114417857Y-50524819D01*
X114417857Y-50524819D02*
X114560714Y-50572438D01*
X114560714Y-50572438D02*
X114608333Y-50620057D01*
X115560714Y-51524819D02*
X114989286Y-51524819D01*
X115275000Y-51524819D02*
X115275000Y-50524819D01*
X115275000Y-50524819D02*
X115179762Y-50667676D01*
X115179762Y-50667676D02*
X115084524Y-50762914D01*
X115084524Y-50762914D02*
X114989286Y-50810533D01*
X105366666Y-49704819D02*
X105366666Y-50419104D01*
X105366666Y-50419104D02*
X105319047Y-50561961D01*
X105319047Y-50561961D02*
X105223809Y-50657200D01*
X105223809Y-50657200D02*
X105080952Y-50704819D01*
X105080952Y-50704819D02*
X104985714Y-50704819D01*
X106271428Y-50038152D02*
X106271428Y-50704819D01*
X106033333Y-49657200D02*
X105795238Y-50371485D01*
X105795238Y-50371485D02*
X106414285Y-50371485D01*
X113366666Y-44204819D02*
X113366666Y-44919104D01*
X113366666Y-44919104D02*
X113319047Y-45061961D01*
X113319047Y-45061961D02*
X113223809Y-45157200D01*
X113223809Y-45157200D02*
X113080952Y-45204819D01*
X113080952Y-45204819D02*
X112985714Y-45204819D01*
X114366666Y-45204819D02*
X113795238Y-45204819D01*
X114080952Y-45204819D02*
X114080952Y-44204819D01*
X114080952Y-44204819D02*
X113985714Y-44347676D01*
X113985714Y-44347676D02*
X113890476Y-44442914D01*
X113890476Y-44442914D02*
X113795238Y-44490533D01*
X113416666Y-63904819D02*
X113416666Y-64619104D01*
X113416666Y-64619104D02*
X113369047Y-64761961D01*
X113369047Y-64761961D02*
X113273809Y-64857200D01*
X113273809Y-64857200D02*
X113130952Y-64904819D01*
X113130952Y-64904819D02*
X113035714Y-64904819D01*
X113845238Y-64000057D02*
X113892857Y-63952438D01*
X113892857Y-63952438D02*
X113988095Y-63904819D01*
X113988095Y-63904819D02*
X114226190Y-63904819D01*
X114226190Y-63904819D02*
X114321428Y-63952438D01*
X114321428Y-63952438D02*
X114369047Y-64000057D01*
X114369047Y-64000057D02*
X114416666Y-64095295D01*
X114416666Y-64095295D02*
X114416666Y-64190533D01*
X114416666Y-64190533D02*
X114369047Y-64333390D01*
X114369047Y-64333390D02*
X113797619Y-64904819D01*
X113797619Y-64904819D02*
X114416666Y-64904819D01*
X101504819Y-59283333D02*
X102219104Y-59283333D01*
X102219104Y-59283333D02*
X102361961Y-59330952D01*
X102361961Y-59330952D02*
X102457200Y-59426190D01*
X102457200Y-59426190D02*
X102504819Y-59569047D01*
X102504819Y-59569047D02*
X102504819Y-59664285D01*
X101504819Y-58902380D02*
X101504819Y-58283333D01*
X101504819Y-58283333D02*
X101885771Y-58616666D01*
X101885771Y-58616666D02*
X101885771Y-58473809D01*
X101885771Y-58473809D02*
X101933390Y-58378571D01*
X101933390Y-58378571D02*
X101981009Y-58330952D01*
X101981009Y-58330952D02*
X102076247Y-58283333D01*
X102076247Y-58283333D02*
X102314342Y-58283333D01*
X102314342Y-58283333D02*
X102409580Y-58330952D01*
X102409580Y-58330952D02*
X102457200Y-58378571D01*
X102457200Y-58378571D02*
X102504819Y-58473809D01*
X102504819Y-58473809D02*
X102504819Y-58759523D01*
X102504819Y-58759523D02*
X102457200Y-58854761D01*
X102457200Y-58854761D02*
X102409580Y-58902380D01*
D11*
%TO.C,J8*%
X107765000Y-38745000D02*
X107765000Y-38000000D01*
X108500000Y-38745000D02*
X107765000Y-38745000D01*
X109235000Y-38745000D02*
X109110000Y-38745000D01*
X109235000Y-38745000D02*
X109235000Y-38685565D01*
X109235000Y-38745000D02*
X109235000Y-37255000D01*
X109235000Y-37314435D02*
X109235000Y-37255000D01*
X109235000Y-37255000D02*
X109110000Y-37255000D01*
%TO.C,J7*%
X104715000Y-38745000D02*
X104715000Y-38000000D01*
X105450000Y-38745000D02*
X104715000Y-38745000D01*
X106185000Y-38745000D02*
X106060000Y-38745000D01*
X106185000Y-38745000D02*
X106185000Y-38685565D01*
X106185000Y-38745000D02*
X106185000Y-37255000D01*
X106185000Y-37314435D02*
X106185000Y-37255000D01*
X106185000Y-37255000D02*
X106060000Y-37255000D01*
%TO.C,J6*%
X101665000Y-38745000D02*
X101665000Y-38000000D01*
X102400000Y-38745000D02*
X101665000Y-38745000D01*
X103135000Y-38745000D02*
X103010000Y-38745000D01*
X103135000Y-38745000D02*
X103135000Y-38685565D01*
X103135000Y-38745000D02*
X103135000Y-37255000D01*
X103135000Y-37314435D02*
X103135000Y-37255000D01*
X103135000Y-37255000D02*
X103010000Y-37255000D01*
%TO.C,C2*%
X114859420Y-53490000D02*
X115140580Y-53490000D01*
X114859420Y-54510000D02*
X115140580Y-54510000D01*
%TO.C,U4*%
X105650000Y-50140000D02*
X103800000Y-50140000D01*
X105650000Y-55260000D02*
X103800000Y-55260000D01*
X108750000Y-50140000D02*
X110600000Y-50140000D01*
X108750000Y-55260000D02*
X110600000Y-55260000D01*
%TO.C,R5*%
X113977500Y-61562258D02*
X113977500Y-61087742D01*
X115022500Y-61562258D02*
X115022500Y-61087742D01*
%TO.C,J5*%
X101890000Y-66540000D02*
X103640000Y-66540000D01*
X101890000Y-69490000D02*
X101890000Y-66540000D01*
X101890000Y-71910000D02*
X101890000Y-72760000D01*
X101890000Y-72760000D02*
X108110000Y-72760000D01*
X103640000Y-66540000D02*
X103640000Y-65650000D01*
X108110000Y-66540000D02*
X106360000Y-66540000D01*
X108110000Y-69490000D02*
X108110000Y-66540000D01*
X108110000Y-72760000D02*
X108110000Y-71910000D01*
D12*
%TO.C,U2*%
X113685000Y-58320000D02*
X113685000Y-58150000D01*
X115785000Y-58150000D02*
X115785000Y-58320000D01*
D13*
X114085000Y-59835000D02*
G75*
G02*
X113885000Y-59835000I-100000J0D01*
G01*
X113885000Y-59835000D02*
G75*
G02*
X114085000Y-59835000I100000J0D01*
G01*
D11*
%TO.C,C5*%
X111990000Y-63415580D02*
X111990000Y-63134420D01*
X113010000Y-63415580D02*
X113010000Y-63134420D01*
%TO.C,C7*%
X114859420Y-54990000D02*
X115140580Y-54990000D01*
X114859420Y-56010000D02*
X115140580Y-56010000D01*
%TO.C,R6*%
X111587742Y-56977500D02*
X112062258Y-56977500D01*
X111587742Y-58022500D02*
X112062258Y-58022500D01*
%TO.C,D1*%
X111990000Y-45675000D02*
X111990000Y-50975000D01*
X117200000Y-45675000D02*
X117200000Y-50275000D01*
X111990000Y-51755000D02*
X111710000Y-51475000D01*
X111990000Y-51475000D01*
X111990000Y-51755000D01*
G36*
X111990000Y-51755000D02*
G01*
X111710000Y-51475000D01*
X111990000Y-51475000D01*
X111990000Y-51755000D01*
G37*
%TO.C,R4*%
X111262742Y-58477500D02*
X111737258Y-58477500D01*
X111262742Y-59522500D02*
X111737258Y-59522500D01*
%TO.C,C1*%
X114634420Y-51990000D02*
X114915580Y-51990000D01*
X114634420Y-53010000D02*
X114915580Y-53010000D01*
%TO.C,J4*%
X102590000Y-41940000D02*
X102590000Y-42790000D01*
X102590000Y-45210000D02*
X102590000Y-48160000D01*
X102590000Y-48160000D02*
X104340000Y-48160000D01*
X107060000Y-48160000D02*
X107060000Y-49050000D01*
X108810000Y-41940000D02*
X102590000Y-41940000D01*
X108810000Y-42790000D02*
X108810000Y-41940000D01*
X108810000Y-45210000D02*
X108810000Y-48160000D01*
X108810000Y-48160000D02*
X107060000Y-48160000D01*
%TO.C,J1*%
X110590000Y-36440000D02*
X110590000Y-37290000D01*
X110590000Y-39710000D02*
X110590000Y-42660000D01*
X110590000Y-42660000D02*
X112340000Y-42660000D01*
X115060000Y-42660000D02*
X115060000Y-43550000D01*
X116810000Y-36440000D02*
X110590000Y-36440000D01*
X116810000Y-37290000D02*
X116810000Y-36440000D01*
X116810000Y-39710000D02*
X116810000Y-42660000D01*
X116810000Y-42660000D02*
X115060000Y-42660000D01*
%TO.C,J2*%
X110640000Y-66540000D02*
X112390000Y-66540000D01*
X110640000Y-69490000D02*
X110640000Y-66540000D01*
X110640000Y-71910000D02*
X110640000Y-72760000D01*
X110640000Y-72760000D02*
X116860000Y-72760000D01*
X112390000Y-66540000D02*
X112390000Y-65650000D01*
X116860000Y-66540000D02*
X115110000Y-66540000D01*
X116860000Y-69490000D02*
X116860000Y-66540000D01*
X116860000Y-72760000D02*
X116860000Y-71910000D01*
D10*
%TO.C,L1*%
X115960000Y-63440000D02*
X115160000Y-63440000D01*
X115960000Y-64560000D02*
X115160000Y-64560000D01*
D11*
%TO.C,J3*%
X104140000Y-56440000D02*
X104140000Y-57890000D01*
X104140000Y-60010000D02*
X103250000Y-60010000D01*
X104140000Y-61460000D02*
X104140000Y-60010000D01*
X105890000Y-56440000D02*
X104140000Y-56440000D01*
X105890000Y-61460000D02*
X104140000Y-61460000D01*
X108110000Y-61460000D02*
X108660000Y-61460000D01*
X108660000Y-56440000D02*
X108110000Y-56440000D01*
X108660000Y-61460000D02*
X108660000Y-56440000D01*
%TD*%
%LPC*%
D14*
%TO.C,U2*%
X114195000Y-57880000D02*
X113775000Y-57880000D01*
X113775000Y-57120000D01*
X114195000Y-57120000D01*
X114195000Y-57880000D01*
G36*
X114195000Y-57880000D02*
G01*
X113775000Y-57880000D01*
X113775000Y-57120000D01*
X114195000Y-57120000D01*
X114195000Y-57880000D01*
G37*
X114195000Y-59350000D02*
X113775000Y-59350000D01*
X113775000Y-58590000D01*
X114195000Y-58590000D01*
X114195000Y-59350000D01*
G36*
X114195000Y-59350000D02*
G01*
X113775000Y-59350000D01*
X113775000Y-58590000D01*
X114195000Y-58590000D01*
X114195000Y-59350000D01*
G37*
X114695000Y-57880000D02*
X114275000Y-57880000D01*
X114275000Y-57120000D01*
X114695000Y-57120000D01*
X114695000Y-57880000D01*
G36*
X114695000Y-57880000D02*
G01*
X114275000Y-57880000D01*
X114275000Y-57120000D01*
X114695000Y-57120000D01*
X114695000Y-57880000D01*
G37*
X114695000Y-59350000D02*
X114275000Y-59350000D01*
X114275000Y-58590000D01*
X114695000Y-58590000D01*
X114695000Y-59350000D01*
G36*
X114695000Y-59350000D02*
G01*
X114275000Y-59350000D01*
X114275000Y-58590000D01*
X114695000Y-58590000D01*
X114695000Y-59350000D01*
G37*
X115195000Y-57880000D02*
X114775000Y-57880000D01*
X114775000Y-57120000D01*
X115195000Y-57120000D01*
X115195000Y-57880000D01*
G36*
X115195000Y-57880000D02*
G01*
X114775000Y-57880000D01*
X114775000Y-57120000D01*
X115195000Y-57120000D01*
X115195000Y-57880000D01*
G37*
X115195000Y-59350000D02*
X114775000Y-59350000D01*
X114775000Y-58590000D01*
X115195000Y-58590000D01*
X115195000Y-59350000D01*
G36*
X115195000Y-59350000D02*
G01*
X114775000Y-59350000D01*
X114775000Y-58590000D01*
X115195000Y-58590000D01*
X115195000Y-59350000D01*
G37*
X115695000Y-57880000D02*
X115275000Y-57880000D01*
X115275000Y-57120000D01*
X115695000Y-57120000D01*
X115695000Y-57880000D01*
G36*
X115695000Y-57880000D02*
G01*
X115275000Y-57880000D01*
X115275000Y-57120000D01*
X115695000Y-57120000D01*
X115695000Y-57880000D01*
G37*
X115695000Y-59350000D02*
X115275000Y-59350000D01*
X115275000Y-58590000D01*
X115695000Y-58590000D01*
X115695000Y-59350000D01*
G36*
X115695000Y-59350000D02*
G01*
X115275000Y-59350000D01*
X115275000Y-58590000D01*
X115695000Y-58590000D01*
X115695000Y-59350000D01*
G37*
%TD*%
D15*
%TO.C,J8*%
X108500000Y-38000000D03*
%TD*%
%TO.C,J7*%
X105450000Y-38000000D03*
%TD*%
%TO.C,J6*%
X102400000Y-38000000D03*
%TD*%
D16*
%TO.C,C2*%
X114225000Y-54000000D03*
X115775000Y-54000000D03*
%TD*%
D17*
%TO.C,U4*%
X109675000Y-54605000D03*
X109675000Y-53335000D03*
X109675000Y-52065000D03*
X109675000Y-50795000D03*
X104725000Y-50795000D03*
X104725000Y-52065000D03*
X104725000Y-53335000D03*
X104725000Y-54605000D03*
D18*
X107200000Y-52700000D03*
%TD*%
D19*
%TO.C,R5*%
X114500000Y-62150000D03*
X114500000Y-60500000D03*
%TD*%
D20*
%TO.C,J5*%
X104250000Y-67000000D03*
X105750000Y-67000000D03*
D21*
X102300000Y-70700000D03*
X107700000Y-70700000D03*
%TD*%
D22*
%TO.C,C5*%
X112500000Y-64050000D03*
X112500000Y-62500000D03*
%TD*%
D16*
%TO.C,C7*%
X114225000Y-55500000D03*
X115775000Y-55500000D03*
%TD*%
D23*
%TO.C,R6*%
X111000000Y-57500000D03*
X112650000Y-57500000D03*
%TD*%
D24*
%TO.C,D1*%
X112600000Y-50950000D03*
X116600000Y-50950000D03*
X116600000Y-45000000D03*
X112600000Y-45000000D03*
%TD*%
D23*
%TO.C,R4*%
X110675000Y-59000000D03*
X112325000Y-59000000D03*
%TD*%
D16*
%TO.C,C1*%
X114000000Y-52500000D03*
X115550000Y-52500000D03*
%TD*%
D25*
%TO.C,J4*%
X106450000Y-47700000D03*
X104950000Y-47700000D03*
D26*
X108400000Y-44000000D03*
X103000000Y-44000000D03*
%TD*%
D25*
%TO.C,J1*%
X114450000Y-42200000D03*
X112950000Y-42200000D03*
D26*
X116400000Y-38500000D03*
X111000000Y-38500000D03*
%TD*%
D20*
%TO.C,J2*%
X113000000Y-67000000D03*
X114500000Y-67000000D03*
D21*
X111050000Y-70700000D03*
X116450000Y-70700000D03*
%TD*%
D27*
%TO.C,L1*%
X116620000Y-64000000D03*
X114500000Y-64000000D03*
%TD*%
D28*
%TO.C,J3*%
X103875000Y-59450000D03*
X103875000Y-58450000D03*
D29*
X107000000Y-60900000D03*
X107000000Y-57000000D03*
%TD*%
%LPD*%
M02*
