%TF.GenerationSoftware,KiCad,Pcbnew,9.0.7*%
%TF.CreationDate,2026-04-29T20:37:40+02:00*%
%TF.ProjectId,usbC,75736243-2e6b-4696-9361-645f70636258,rev?*%
%TF.SameCoordinates,Original*%
%TF.FileFunction,Copper,L2,Bot*%
%TF.FilePolarity,Positive*%
%FSLAX46Y46*%
G04 Gerber Fmt 4.6, Leading zero omitted, Abs format (unit mm)*
G04 Created by KiCad (PCBNEW 9.0.7) date 2026-04-29 20:37:40*
%MOMM*%
%LPD*%
G01*
G04 APERTURE LIST*
%TA.AperFunction,ComponentPad*%
%ADD10O,1.300000X2.300000*%
%TD*%
%TA.AperFunction,ComponentPad*%
%ADD11O,1.300000X2.100000*%
%TD*%
%TA.AperFunction,ComponentPad*%
%ADD12C,0.500000*%
%TD*%
%TA.AperFunction,ComponentPad*%
%ADD13R,0.850000X0.850000*%
%TD*%
%TA.AperFunction,ComponentPad*%
%ADD14C,1.100000*%
%TD*%
%TA.AperFunction,ViaPad*%
%ADD15C,0.604799*%
%TD*%
%TA.AperFunction,Conductor*%
%ADD16C,0.300000*%
%TD*%
%TA.AperFunction,Conductor*%
%ADD17C,0.500000*%
%TD*%
G04 APERTURE END LIST*
D10*
%TO.P,J9,S1,SHIELD*%
%TO.N,GND*%
X106170000Y-83180000D03*
D11*
X106170000Y-87380000D03*
D12*
X108500000Y-86000000D03*
X108500000Y-88000000D03*
X112500000Y-86000000D03*
X112500000Y-88000000D03*
D10*
X114830000Y-83180000D03*
D11*
X114830000Y-87380000D03*
%TD*%
D13*
%TO.P,J4,1,Pin_1*%
%TO.N,GND*%
X91500000Y-76000000D03*
%TD*%
D14*
%TO.P,J5,1,Pin_1*%
%TO.N,VCC*%
X99000000Y-76000000D03*
%TO.P,J5,2,Pin_2*%
%TO.N,GND*%
X100500000Y-76000000D03*
%TD*%
D13*
%TO.P,J7,1,Pin_1*%
%TO.N,GND*%
X91500000Y-79000000D03*
%TD*%
D14*
%TO.P,J2,1,Pin_1*%
%TO.N,VCC*%
X95500000Y-69000000D03*
%TO.P,J2,2,Pin_2*%
%TO.N,GND*%
X95500000Y-70500000D03*
%TD*%
D13*
%TO.P,J6,1,Pin_1*%
%TO.N,GND*%
X94500000Y-76000000D03*
%TD*%
%TO.P,J8,1,Pin_1*%
%TO.N,GND*%
X94500000Y-79000000D03*
%TD*%
D15*
%TO.N,/D+*%
X115000000Y-78500000D03*
%TO.N,/D-*%
X113000000Y-78500000D03*
X110500000Y-81000000D03*
%TO.N,/D+*%
X110500000Y-84000000D03*
%TO.N,GND*%
X116000000Y-85000000D03*
X95500000Y-74000000D03*
X110500000Y-70500000D03*
X104500000Y-83500000D03*
X105500000Y-72000000D03*
X93000000Y-77500000D03*
X110000000Y-69000000D03*
X114000000Y-78000000D03*
%TO.N,+5V*%
X109000000Y-73000000D03*
X114000000Y-72500000D03*
%TD*%
D16*
%TO.N,/D+*%
X115000000Y-79500000D02*
X115000000Y-78500000D01*
X110500000Y-84000000D02*
X115000000Y-79500000D01*
%TO.N,/D-*%
X110500000Y-81000000D02*
X113000000Y-78500000D01*
D17*
%TO.N,+5V*%
X109500000Y-72500000D02*
X114000000Y-72500000D01*
X109000000Y-73000000D02*
X109500000Y-72500000D01*
%TD*%
%TA.AperFunction,Conductor*%
%TO.N,GND*%
G36*
X116443039Y-65519685D02*
G01*
X116488794Y-65572489D01*
X116500000Y-65624000D01*
X116500000Y-89376000D01*
X116480315Y-89443039D01*
X116427511Y-89488794D01*
X116376000Y-89500000D01*
X90124000Y-89500000D01*
X90056961Y-89480315D01*
X90011206Y-89427511D01*
X90000000Y-89376000D01*
X90000000Y-86889493D01*
X105020000Y-86889493D01*
X105020000Y-87130000D01*
X105920000Y-87130000D01*
X105920000Y-87630000D01*
X105020000Y-87630000D01*
X105020000Y-87870506D01*
X105048317Y-88049293D01*
X105104251Y-88221444D01*
X105104252Y-88221447D01*
X105186434Y-88382734D01*
X105292823Y-88529169D01*
X105420830Y-88657176D01*
X105567265Y-88763565D01*
X105728552Y-88845747D01*
X105728555Y-88845748D01*
X105900699Y-88901680D01*
X105900712Y-88901683D01*
X105920000Y-88904738D01*
X105920000Y-87829728D01*
X105958060Y-87921614D01*
X106028386Y-87991940D01*
X106120272Y-88030000D01*
X106219728Y-88030000D01*
X106311614Y-87991940D01*
X106381940Y-87921614D01*
X106420000Y-87829728D01*
X106420000Y-88904737D01*
X106439287Y-88901683D01*
X106439300Y-88901680D01*
X106611444Y-88845748D01*
X106611447Y-88845747D01*
X106772734Y-88763565D01*
X106919169Y-88657176D01*
X107047176Y-88529169D01*
X107153565Y-88382734D01*
X107221198Y-88250000D01*
X107791759Y-88250000D01*
X107835357Y-88355254D01*
X107835362Y-88355264D01*
X107917436Y-88478096D01*
X107917439Y-88478100D01*
X108021899Y-88582560D01*
X108021907Y-88582566D01*
X108144739Y-88664640D01*
X108144743Y-88664642D01*
X108249999Y-88708240D01*
X108250000Y-88708240D01*
X108750000Y-88708240D01*
X108855256Y-88664642D01*
X108855260Y-88664640D01*
X108978092Y-88582566D01*
X108978100Y-88582560D01*
X109082560Y-88478100D01*
X109082563Y-88478096D01*
X109164637Y-88355264D01*
X109164642Y-88355254D01*
X109208241Y-88250000D01*
X111791759Y-88250000D01*
X111835357Y-88355254D01*
X111835362Y-88355264D01*
X111917436Y-88478096D01*
X111917439Y-88478100D01*
X112021899Y-88582560D01*
X112021907Y-88582566D01*
X112144739Y-88664640D01*
X112144743Y-88664642D01*
X112249999Y-88708240D01*
X112250000Y-88708240D01*
X112750000Y-88708240D01*
X112855256Y-88664642D01*
X112855260Y-88664640D01*
X112978092Y-88582566D01*
X112978100Y-88582560D01*
X113082560Y-88478100D01*
X113082563Y-88478096D01*
X113164637Y-88355264D01*
X113164642Y-88355254D01*
X113208241Y-88250000D01*
X112750000Y-88250000D01*
X112750000Y-88708240D01*
X112250000Y-88708240D01*
X112250000Y-88250000D01*
X111791759Y-88250000D01*
X109208241Y-88250000D01*
X108750000Y-88250000D01*
X108750000Y-88708240D01*
X108250000Y-88708240D01*
X108250000Y-88250000D01*
X107791759Y-88250000D01*
X107221198Y-88250000D01*
X107235747Y-88221447D01*
X107235748Y-88221444D01*
X107243398Y-88197901D01*
X107291682Y-88049293D01*
X107304215Y-87970163D01*
X108350000Y-87970163D01*
X108350000Y-88029837D01*
X108372836Y-88084968D01*
X108415032Y-88127164D01*
X108470163Y-88150000D01*
X108529837Y-88150000D01*
X108584968Y-88127164D01*
X108627164Y-88084968D01*
X108650000Y-88029837D01*
X108650000Y-87970163D01*
X112350000Y-87970163D01*
X112350000Y-88029837D01*
X112372836Y-88084968D01*
X112415032Y-88127164D01*
X112470163Y-88150000D01*
X112529837Y-88150000D01*
X112584968Y-88127164D01*
X112627164Y-88084968D01*
X112650000Y-88029837D01*
X112650000Y-87970163D01*
X112627164Y-87915032D01*
X112584968Y-87872836D01*
X112529837Y-87850000D01*
X112470163Y-87850000D01*
X112415032Y-87872836D01*
X112372836Y-87915032D01*
X112350000Y-87970163D01*
X108650000Y-87970163D01*
X108627164Y-87915032D01*
X108584968Y-87872836D01*
X108529837Y-87850000D01*
X108470163Y-87850000D01*
X108415032Y-87872836D01*
X108372836Y-87915032D01*
X108350000Y-87970163D01*
X107304215Y-87970163D01*
X107320000Y-87870506D01*
X107320000Y-87749999D01*
X107791759Y-87749999D01*
X107791759Y-87750000D01*
X108250000Y-87750000D01*
X108750000Y-87750000D01*
X109208241Y-87750000D01*
X109208240Y-87749999D01*
X111791759Y-87749999D01*
X111791759Y-87750000D01*
X112250000Y-87750000D01*
X112750000Y-87750000D01*
X113208241Y-87750000D01*
X113208240Y-87749999D01*
X113164642Y-87644745D01*
X113164637Y-87644734D01*
X113082563Y-87521903D01*
X113082560Y-87521899D01*
X112978100Y-87417439D01*
X112978096Y-87417436D01*
X112855264Y-87335362D01*
X112855254Y-87335357D01*
X112750000Y-87291759D01*
X112750000Y-87750000D01*
X112250000Y-87750000D01*
X112250000Y-87291759D01*
X112249999Y-87291759D01*
X112144745Y-87335357D01*
X112144735Y-87335362D01*
X112021903Y-87417436D01*
X112021899Y-87417439D01*
X111917439Y-87521899D01*
X111917436Y-87521903D01*
X111835362Y-87644735D01*
X111835357Y-87644745D01*
X111791759Y-87749999D01*
X109208240Y-87749999D01*
X109164642Y-87644745D01*
X109164637Y-87644735D01*
X109082563Y-87521903D01*
X109082560Y-87521899D01*
X108978100Y-87417439D01*
X108978096Y-87417436D01*
X108855264Y-87335362D01*
X108855254Y-87335357D01*
X108750000Y-87291759D01*
X108750000Y-87750000D01*
X108250000Y-87750000D01*
X108250000Y-87291759D01*
X108249999Y-87291759D01*
X108144745Y-87335357D01*
X108144735Y-87335362D01*
X108021903Y-87417436D01*
X108021899Y-87417439D01*
X107917439Y-87521899D01*
X107917436Y-87521903D01*
X107835362Y-87644735D01*
X107835357Y-87644745D01*
X107791759Y-87749999D01*
X107320000Y-87749999D01*
X107320000Y-87630000D01*
X106420000Y-87630000D01*
X106420000Y-87130000D01*
X107320000Y-87130000D01*
X107320000Y-86889493D01*
X113680000Y-86889493D01*
X113680000Y-87130000D01*
X114580000Y-87130000D01*
X114580000Y-87630000D01*
X113680000Y-87630000D01*
X113680000Y-87870506D01*
X113708317Y-88049293D01*
X113764251Y-88221444D01*
X113764252Y-88221447D01*
X113846434Y-88382734D01*
X113952823Y-88529169D01*
X114080830Y-88657176D01*
X114227265Y-88763565D01*
X114388552Y-88845747D01*
X114388555Y-88845748D01*
X114560699Y-88901680D01*
X114560712Y-88901683D01*
X114580000Y-88904738D01*
X114580000Y-87829728D01*
X114618060Y-87921614D01*
X114688386Y-87991940D01*
X114780272Y-88030000D01*
X114879728Y-88030000D01*
X114971614Y-87991940D01*
X115041940Y-87921614D01*
X115080000Y-87829728D01*
X115080000Y-88904737D01*
X115099287Y-88901683D01*
X115099300Y-88901680D01*
X115271444Y-88845748D01*
X115271447Y-88845747D01*
X115432734Y-88763565D01*
X115579169Y-88657176D01*
X115707176Y-88529169D01*
X115813565Y-88382734D01*
X115895747Y-88221447D01*
X115895748Y-88221444D01*
X115951682Y-88049293D01*
X115980000Y-87870506D01*
X115980000Y-87630000D01*
X115080000Y-87630000D01*
X115080000Y-87130000D01*
X115980000Y-87130000D01*
X115980000Y-86889493D01*
X115951682Y-86710706D01*
X115895748Y-86538555D01*
X115895747Y-86538552D01*
X115813565Y-86377265D01*
X115707176Y-86230830D01*
X115579169Y-86102823D01*
X115432734Y-85996434D01*
X115271447Y-85914252D01*
X115271441Y-85914250D01*
X115099295Y-85858318D01*
X115099285Y-85858315D01*
X115080000Y-85855260D01*
X115080000Y-86930272D01*
X115041940Y-86838386D01*
X114971614Y-86768060D01*
X114879728Y-86730000D01*
X114780272Y-86730000D01*
X114688386Y-86768060D01*
X114618060Y-86838386D01*
X114580000Y-86930272D01*
X114580000Y-85855260D01*
X114560714Y-85858315D01*
X114560704Y-85858318D01*
X114388558Y-85914250D01*
X114388552Y-85914252D01*
X114227265Y-85996434D01*
X114080830Y-86102823D01*
X113952823Y-86230830D01*
X113846434Y-86377265D01*
X113764252Y-86538552D01*
X113764251Y-86538555D01*
X113708317Y-86710706D01*
X113680000Y-86889493D01*
X107320000Y-86889493D01*
X107291682Y-86710706D01*
X107235748Y-86538555D01*
X107235747Y-86538552D01*
X107153565Y-86377265D01*
X107104046Y-86309107D01*
X107104043Y-86309104D01*
X107061102Y-86250000D01*
X107791759Y-86250000D01*
X107835357Y-86355254D01*
X107835362Y-86355264D01*
X107917436Y-86478096D01*
X107917439Y-86478100D01*
X108021899Y-86582560D01*
X108021907Y-86582566D01*
X108144739Y-86664640D01*
X108144743Y-86664642D01*
X108249999Y-86708240D01*
X108250000Y-86708240D01*
X108750000Y-86708240D01*
X108855256Y-86664642D01*
X108855260Y-86664640D01*
X108978092Y-86582566D01*
X108978100Y-86582560D01*
X109082560Y-86478100D01*
X109082563Y-86478096D01*
X109164637Y-86355264D01*
X109164642Y-86355254D01*
X109208241Y-86250000D01*
X111791759Y-86250000D01*
X111835357Y-86355254D01*
X111835362Y-86355264D01*
X111917436Y-86478096D01*
X111917439Y-86478100D01*
X112021899Y-86582560D01*
X112021907Y-86582566D01*
X112144739Y-86664640D01*
X112144743Y-86664642D01*
X112249999Y-86708240D01*
X112250000Y-86708240D01*
X112750000Y-86708240D01*
X112855256Y-86664642D01*
X112855260Y-86664640D01*
X112978092Y-86582566D01*
X112978100Y-86582560D01*
X113082560Y-86478100D01*
X113082563Y-86478096D01*
X113164637Y-86355264D01*
X113164642Y-86355254D01*
X113208241Y-86250000D01*
X112750000Y-86250000D01*
X112750000Y-86708240D01*
X112250000Y-86708240D01*
X112250000Y-86250000D01*
X111791759Y-86250000D01*
X109208241Y-86250000D01*
X108750000Y-86250000D01*
X108750000Y-86708240D01*
X108250000Y-86708240D01*
X108250000Y-86250000D01*
X107791759Y-86250000D01*
X107061102Y-86250000D01*
X107047170Y-86230824D01*
X106919169Y-86102823D01*
X106772734Y-85996434D01*
X106721176Y-85970163D01*
X108350000Y-85970163D01*
X108350000Y-86029837D01*
X108372836Y-86084968D01*
X108415032Y-86127164D01*
X108470163Y-86150000D01*
X108529837Y-86150000D01*
X108584968Y-86127164D01*
X108627164Y-86084968D01*
X108650000Y-86029837D01*
X108650000Y-85970163D01*
X112350000Y-85970163D01*
X112350000Y-86029837D01*
X112372836Y-86084968D01*
X112415032Y-86127164D01*
X112470163Y-86150000D01*
X112529837Y-86150000D01*
X112584968Y-86127164D01*
X112627164Y-86084968D01*
X112650000Y-86029837D01*
X112650000Y-85970163D01*
X112627164Y-85915032D01*
X112584968Y-85872836D01*
X112529837Y-85850000D01*
X112470163Y-85850000D01*
X112415032Y-85872836D01*
X112372836Y-85915032D01*
X112350000Y-85970163D01*
X108650000Y-85970163D01*
X108627164Y-85915032D01*
X108584968Y-85872836D01*
X108529837Y-85850000D01*
X108470163Y-85850000D01*
X108415032Y-85872836D01*
X108372836Y-85915032D01*
X108350000Y-85970163D01*
X106721176Y-85970163D01*
X106611447Y-85914252D01*
X106611441Y-85914250D01*
X106511296Y-85881712D01*
X106439295Y-85858318D01*
X106439285Y-85858315D01*
X106420000Y-85855260D01*
X106420000Y-86930272D01*
X106381940Y-86838386D01*
X106311614Y-86768060D01*
X106219728Y-86730000D01*
X106120272Y-86730000D01*
X106028386Y-86768060D01*
X105958060Y-86838386D01*
X105920000Y-86930272D01*
X105920000Y-85855260D01*
X105900714Y-85858315D01*
X105900704Y-85858318D01*
X105728558Y-85914250D01*
X105728552Y-85914252D01*
X105567265Y-85996434D01*
X105420830Y-86102823D01*
X105292823Y-86230830D01*
X105186434Y-86377265D01*
X105104252Y-86538552D01*
X105104251Y-86538555D01*
X105048317Y-86710706D01*
X105020000Y-86889493D01*
X90000000Y-86889493D01*
X90000000Y-85749999D01*
X107791759Y-85749999D01*
X107791759Y-85750000D01*
X108250000Y-85750000D01*
X108750000Y-85750000D01*
X109208241Y-85750000D01*
X109208240Y-85749999D01*
X111791759Y-85749999D01*
X111791759Y-85750000D01*
X112250000Y-85750000D01*
X112750000Y-85750000D01*
X113208241Y-85750000D01*
X113208240Y-85749999D01*
X113164642Y-85644745D01*
X113164637Y-85644735D01*
X113082563Y-85521903D01*
X113082560Y-85521899D01*
X112978100Y-85417439D01*
X112978096Y-85417436D01*
X112855264Y-85335362D01*
X112855254Y-85335357D01*
X112750000Y-85291759D01*
X112750000Y-85750000D01*
X112250000Y-85750000D01*
X112250000Y-85291759D01*
X112249999Y-85291759D01*
X112144745Y-85335357D01*
X112144735Y-85335362D01*
X112021903Y-85417436D01*
X112021899Y-85417439D01*
X111917439Y-85521899D01*
X111917436Y-85521903D01*
X111835362Y-85644735D01*
X111835357Y-85644745D01*
X111791759Y-85749999D01*
X109208240Y-85749999D01*
X109164642Y-85644745D01*
X109164637Y-85644735D01*
X109082563Y-85521903D01*
X109082560Y-85521899D01*
X108978100Y-85417439D01*
X108978096Y-85417436D01*
X108855264Y-85335362D01*
X108855254Y-85335357D01*
X108750000Y-85291759D01*
X108750000Y-85750000D01*
X108250000Y-85750000D01*
X108250000Y-85291759D01*
X108249999Y-85291759D01*
X108144745Y-85335357D01*
X108144735Y-85335362D01*
X108021903Y-85417436D01*
X108021899Y-85417439D01*
X107917439Y-85521899D01*
X107917436Y-85521903D01*
X107835362Y-85644735D01*
X107835357Y-85644745D01*
X107791759Y-85749999D01*
X90000000Y-85749999D01*
X90000000Y-82589493D01*
X105020000Y-82589493D01*
X105020000Y-82930000D01*
X105920000Y-82930000D01*
X105920000Y-83430000D01*
X105020000Y-83430000D01*
X105020000Y-83770506D01*
X105048317Y-83949293D01*
X105104251Y-84121444D01*
X105104252Y-84121447D01*
X105186434Y-84282734D01*
X105292823Y-84429169D01*
X105420830Y-84557176D01*
X105567265Y-84663565D01*
X105728552Y-84745747D01*
X105728555Y-84745748D01*
X105900699Y-84801680D01*
X105900712Y-84801683D01*
X105920000Y-84804738D01*
X105920000Y-83779728D01*
X105958060Y-83871614D01*
X106028386Y-83941940D01*
X106120272Y-83980000D01*
X106219728Y-83980000D01*
X106311614Y-83941940D01*
X106381940Y-83871614D01*
X106420000Y-83779728D01*
X106420000Y-84804737D01*
X106439287Y-84801683D01*
X106439300Y-84801680D01*
X106611444Y-84745748D01*
X106611447Y-84745747D01*
X106772734Y-84663565D01*
X106919169Y-84557176D01*
X107047176Y-84429169D01*
X107153565Y-84282735D01*
X107221526Y-84149355D01*
X107269500Y-84098559D01*
X107337321Y-84081764D01*
X107394010Y-84098262D01*
X107435187Y-84122036D01*
X107550375Y-84152900D01*
X107550377Y-84152900D01*
X107669623Y-84152900D01*
X107669625Y-84152900D01*
X107784813Y-84122036D01*
X107888087Y-84062410D01*
X107972410Y-83978087D01*
X108005418Y-83920916D01*
X109697101Y-83920916D01*
X109697101Y-84079083D01*
X109727954Y-84234189D01*
X109727957Y-84234201D01*
X109788477Y-84380310D01*
X109788478Y-84380312D01*
X109876347Y-84511818D01*
X109988181Y-84623652D01*
X110075653Y-84682098D01*
X110119685Y-84711520D01*
X110119686Y-84711520D01*
X110119687Y-84711521D01*
X110119689Y-84711522D01*
X110265798Y-84772042D01*
X110265803Y-84772044D01*
X110414793Y-84801680D01*
X110420916Y-84802898D01*
X110420919Y-84802899D01*
X110420921Y-84802899D01*
X110579081Y-84802899D01*
X110579082Y-84802898D01*
X110734197Y-84772044D01*
X110880315Y-84711520D01*
X111011818Y-84623652D01*
X111123652Y-84511818D01*
X111211520Y-84380315D01*
X111272044Y-84234197D01*
X111286133Y-84163363D01*
X111318517Y-84101455D01*
X111320013Y-84099931D01*
X111779569Y-83640375D01*
X112937100Y-83640375D01*
X112937100Y-83759625D01*
X112952532Y-83817219D01*
X112967964Y-83874814D01*
X112994582Y-83920916D01*
X113027590Y-83978087D01*
X113111913Y-84062410D01*
X113201348Y-84114046D01*
X113214161Y-84121444D01*
X113215187Y-84122036D01*
X113330375Y-84152900D01*
X113330377Y-84152900D01*
X113449623Y-84152900D01*
X113449625Y-84152900D01*
X113564813Y-84122036D01*
X113565839Y-84121444D01*
X113575060Y-84116119D01*
X113605987Y-84098263D01*
X113673886Y-84081790D01*
X113739913Y-84104641D01*
X113778473Y-84149355D01*
X113846434Y-84282734D01*
X113952823Y-84429169D01*
X114080830Y-84557176D01*
X114227265Y-84663565D01*
X114388552Y-84745747D01*
X114388555Y-84745748D01*
X114560699Y-84801680D01*
X114560712Y-84801683D01*
X114580000Y-84804738D01*
X114580000Y-83779728D01*
X114618060Y-83871614D01*
X114688386Y-83941940D01*
X114780272Y-83980000D01*
X114879728Y-83980000D01*
X114971614Y-83941940D01*
X115041940Y-83871614D01*
X115080000Y-83779728D01*
X115080000Y-84804737D01*
X115099287Y-84801683D01*
X115099300Y-84801680D01*
X115271444Y-84745748D01*
X115271447Y-84745747D01*
X115432734Y-84663565D01*
X115579169Y-84557176D01*
X115707176Y-84429169D01*
X115813565Y-84282734D01*
X115895747Y-84121447D01*
X115895748Y-84121444D01*
X115951682Y-83949293D01*
X115980000Y-83770506D01*
X115980000Y-83430000D01*
X115080000Y-83430000D01*
X115080000Y-82930000D01*
X115980000Y-82930000D01*
X115980000Y-82589493D01*
X115951682Y-82410706D01*
X115895748Y-82238555D01*
X115895747Y-82238552D01*
X115813565Y-82077265D01*
X115707176Y-81930830D01*
X115579169Y-81802823D01*
X115432734Y-81696434D01*
X115271447Y-81614252D01*
X115271441Y-81614250D01*
X115099295Y-81558318D01*
X115099285Y-81558315D01*
X115080000Y-81555260D01*
X115080000Y-82580272D01*
X115041940Y-82488386D01*
X114971614Y-82418060D01*
X114879728Y-82380000D01*
X114780272Y-82380000D01*
X114688386Y-82418060D01*
X114618060Y-82488386D01*
X114580000Y-82580272D01*
X114580000Y-81555260D01*
X114560714Y-81558315D01*
X114560704Y-81558318D01*
X114388558Y-81614250D01*
X114388552Y-81614252D01*
X114227265Y-81696434D01*
X114080830Y-81802823D01*
X113952823Y-81930830D01*
X113846434Y-82077265D01*
X113764252Y-82238552D01*
X113764251Y-82238555D01*
X113708317Y-82410706D01*
X113680000Y-82589493D01*
X113680000Y-82930000D01*
X114580000Y-82930000D01*
X114580000Y-83430000D01*
X113811859Y-83430000D01*
X113744820Y-83410315D01*
X113724178Y-83393681D01*
X113668089Y-83337592D01*
X113668087Y-83337590D01*
X113616450Y-83307777D01*
X113564814Y-83277964D01*
X113507219Y-83262532D01*
X113449625Y-83247100D01*
X113330375Y-83247100D01*
X113215185Y-83277964D01*
X113111913Y-83337590D01*
X113111910Y-83337592D01*
X113027592Y-83421910D01*
X113027590Y-83421913D01*
X112967964Y-83525185D01*
X112962771Y-83544567D01*
X112937100Y-83640375D01*
X111779569Y-83640375D01*
X115505277Y-79914669D01*
X115576465Y-79808127D01*
X115625501Y-79689744D01*
X115650500Y-79564069D01*
X115650500Y-79009252D01*
X115670185Y-78942213D01*
X115671398Y-78940361D01*
X115711520Y-78880315D01*
X115772044Y-78734197D01*
X115802899Y-78579079D01*
X115802899Y-78420921D01*
X115802899Y-78420918D01*
X115802898Y-78420916D01*
X115785393Y-78332913D01*
X115772044Y-78265803D01*
X115772042Y-78265798D01*
X115711522Y-78119689D01*
X115711521Y-78119687D01*
X115623652Y-77988181D01*
X115511818Y-77876347D01*
X115380312Y-77788478D01*
X115380310Y-77788477D01*
X115234201Y-77727957D01*
X115234189Y-77727954D01*
X115079082Y-77697101D01*
X115079079Y-77697101D01*
X114920921Y-77697101D01*
X114920918Y-77697101D01*
X114765810Y-77727954D01*
X114765798Y-77727957D01*
X114619689Y-77788477D01*
X114619687Y-77788478D01*
X114488181Y-77876347D01*
X114376347Y-77988181D01*
X114288478Y-78119687D01*
X114288477Y-78119689D01*
X114227957Y-78265798D01*
X114227954Y-78265810D01*
X114197101Y-78420916D01*
X114197101Y-78579083D01*
X114227954Y-78734189D01*
X114227957Y-78734201D01*
X114288477Y-78880310D01*
X114288478Y-78880311D01*
X114288480Y-78880315D01*
X114328602Y-78940361D01*
X114334252Y-78958407D01*
X114344477Y-78974317D01*
X114348928Y-79005276D01*
X114349480Y-79007038D01*
X114349500Y-79009252D01*
X114349500Y-79179191D01*
X114329815Y-79246230D01*
X114313181Y-79266872D01*
X110400122Y-83179930D01*
X110338799Y-83213415D01*
X110336633Y-83213866D01*
X110265808Y-83227954D01*
X110265798Y-83227957D01*
X110119689Y-83288477D01*
X110119687Y-83288478D01*
X109988181Y-83376347D01*
X109876347Y-83488181D01*
X109788478Y-83619687D01*
X109788477Y-83619689D01*
X109727957Y-83765798D01*
X109727954Y-83765810D01*
X109697101Y-83920916D01*
X108005418Y-83920916D01*
X108032036Y-83874813D01*
X108062900Y-83759625D01*
X108062900Y-83640375D01*
X108032036Y-83525187D01*
X107972410Y-83421913D01*
X107888087Y-83337590D01*
X107836450Y-83307777D01*
X107784814Y-83277964D01*
X107727219Y-83262532D01*
X107669625Y-83247100D01*
X107550375Y-83247100D01*
X107435185Y-83277964D01*
X107331913Y-83337590D01*
X107331910Y-83337592D01*
X107275822Y-83393681D01*
X107214499Y-83427166D01*
X107188141Y-83430000D01*
X106420000Y-83430000D01*
X106420000Y-82930000D01*
X107320000Y-82930000D01*
X107320000Y-82589493D01*
X107291682Y-82410706D01*
X107235748Y-82238555D01*
X107235747Y-82238552D01*
X107153565Y-82077265D01*
X107047176Y-81930830D01*
X106919169Y-81802823D01*
X106772734Y-81696434D01*
X106611447Y-81614252D01*
X106611441Y-81614250D01*
X106439295Y-81558318D01*
X106439285Y-81558315D01*
X106420000Y-81555260D01*
X106420000Y-82580272D01*
X106381940Y-82488386D01*
X106311614Y-82418060D01*
X106219728Y-82380000D01*
X106120272Y-82380000D01*
X106028386Y-82418060D01*
X105958060Y-82488386D01*
X105920000Y-82580272D01*
X105920000Y-81555260D01*
X105900714Y-81558315D01*
X105900704Y-81558318D01*
X105728558Y-81614250D01*
X105728552Y-81614252D01*
X105567265Y-81696434D01*
X105420830Y-81802823D01*
X105292823Y-81930830D01*
X105186434Y-82077265D01*
X105104252Y-82238552D01*
X105104251Y-82238555D01*
X105048317Y-82410706D01*
X105020000Y-82589493D01*
X90000000Y-82589493D01*
X90000000Y-80920916D01*
X109697101Y-80920916D01*
X109697101Y-81079083D01*
X109727954Y-81234189D01*
X109727957Y-81234201D01*
X109788477Y-81380310D01*
X109788478Y-81380312D01*
X109876347Y-81511818D01*
X109988181Y-81623652D01*
X110075653Y-81682098D01*
X110119685Y-81711520D01*
X110119686Y-81711520D01*
X110119687Y-81711521D01*
X110119689Y-81711522D01*
X110265798Y-81772042D01*
X110265803Y-81772044D01*
X110420539Y-81802823D01*
X110420916Y-81802898D01*
X110420919Y-81802899D01*
X110420921Y-81802899D01*
X110579081Y-81802899D01*
X110579082Y-81802898D01*
X110734197Y-81772044D01*
X110880315Y-81711520D01*
X111011818Y-81623652D01*
X111123652Y-81511818D01*
X111211520Y-81380315D01*
X111272044Y-81234197D01*
X111286133Y-81163363D01*
X111318517Y-81101455D01*
X111320013Y-81099931D01*
X113099877Y-79320067D01*
X113161198Y-79286584D01*
X113163274Y-79286151D01*
X113234197Y-79272044D01*
X113380315Y-79211520D01*
X113511818Y-79123652D01*
X113623652Y-79011818D01*
X113711520Y-78880315D01*
X113772044Y-78734197D01*
X113802899Y-78579079D01*
X113802899Y-78420921D01*
X113802899Y-78420918D01*
X113802898Y-78420916D01*
X113785393Y-78332913D01*
X113772044Y-78265803D01*
X113772042Y-78265798D01*
X113711522Y-78119689D01*
X113711521Y-78119687D01*
X113623652Y-77988181D01*
X113511818Y-77876347D01*
X113380312Y-77788478D01*
X113380310Y-77788477D01*
X113234201Y-77727957D01*
X113234189Y-77727954D01*
X113079082Y-77697101D01*
X113079079Y-77697101D01*
X112920921Y-77697101D01*
X112920918Y-77697101D01*
X112765810Y-77727954D01*
X112765798Y-77727957D01*
X112619689Y-77788477D01*
X112619687Y-77788478D01*
X112488181Y-77876347D01*
X112376347Y-77988181D01*
X112288478Y-78119687D01*
X112288477Y-78119689D01*
X112227957Y-78265798D01*
X112227954Y-78265808D01*
X112213866Y-78336633D01*
X112181481Y-78398544D01*
X112179930Y-78400122D01*
X110400122Y-80179930D01*
X110338799Y-80213415D01*
X110336633Y-80213866D01*
X110265808Y-80227954D01*
X110265798Y-80227957D01*
X110119689Y-80288477D01*
X110119687Y-80288478D01*
X109988181Y-80376347D01*
X109876347Y-80488181D01*
X109788478Y-80619687D01*
X109788477Y-80619689D01*
X109727957Y-80765798D01*
X109727954Y-80765810D01*
X109697101Y-80920916D01*
X90000000Y-80920916D01*
X90000000Y-79472844D01*
X90575000Y-79472844D01*
X90581401Y-79532372D01*
X90581403Y-79532379D01*
X90631645Y-79667086D01*
X90631649Y-79667093D01*
X90717809Y-79782187D01*
X90717812Y-79782190D01*
X90832906Y-79868350D01*
X90832913Y-79868354D01*
X90967620Y-79918596D01*
X90967627Y-79918598D01*
X91027155Y-79924999D01*
X91027172Y-79925000D01*
X91250000Y-79925000D01*
X91750000Y-79925000D01*
X91972828Y-79925000D01*
X91972844Y-79924999D01*
X92032372Y-79918598D01*
X92032379Y-79918596D01*
X92167086Y-79868354D01*
X92167093Y-79868350D01*
X92282187Y-79782190D01*
X92282190Y-79782187D01*
X92368350Y-79667093D01*
X92368354Y-79667086D01*
X92418596Y-79532379D01*
X92418598Y-79532372D01*
X92424999Y-79472844D01*
X93575000Y-79472844D01*
X93581401Y-79532372D01*
X93581403Y-79532379D01*
X93631645Y-79667086D01*
X93631649Y-79667093D01*
X93717809Y-79782187D01*
X93717812Y-79782190D01*
X93832906Y-79868350D01*
X93832913Y-79868354D01*
X93967620Y-79918596D01*
X93967627Y-79918598D01*
X94027155Y-79924999D01*
X94027172Y-79925000D01*
X94250000Y-79925000D01*
X94750000Y-79925000D01*
X94972828Y-79925000D01*
X94972844Y-79924999D01*
X95032372Y-79918598D01*
X95032379Y-79918596D01*
X95167086Y-79868354D01*
X95167093Y-79868350D01*
X95282187Y-79782190D01*
X95282190Y-79782187D01*
X95368350Y-79667093D01*
X95368354Y-79667086D01*
X95418596Y-79532379D01*
X95418598Y-79532372D01*
X95424999Y-79472844D01*
X95425000Y-79472827D01*
X95425000Y-79250000D01*
X94750000Y-79250000D01*
X94750000Y-79925000D01*
X94250000Y-79925000D01*
X94250000Y-79250000D01*
X93575000Y-79250000D01*
X93575000Y-79472844D01*
X92424999Y-79472844D01*
X92425000Y-79472827D01*
X92425000Y-79250000D01*
X91750000Y-79250000D01*
X91750000Y-79925000D01*
X91250000Y-79925000D01*
X91250000Y-79250000D01*
X90575000Y-79250000D01*
X90575000Y-79472844D01*
X90000000Y-79472844D01*
X90000000Y-78950272D01*
X91250000Y-78950272D01*
X91250000Y-79049728D01*
X91288060Y-79141614D01*
X91358386Y-79211940D01*
X91450272Y-79250000D01*
X91549728Y-79250000D01*
X91641614Y-79211940D01*
X91711940Y-79141614D01*
X91750000Y-79049728D01*
X91750000Y-78950272D01*
X94250000Y-78950272D01*
X94250000Y-79049728D01*
X94288060Y-79141614D01*
X94358386Y-79211940D01*
X94450272Y-79250000D01*
X94549728Y-79250000D01*
X94641614Y-79211940D01*
X94711940Y-79141614D01*
X94750000Y-79049728D01*
X94750000Y-78950272D01*
X94711940Y-78858386D01*
X94641614Y-78788060D01*
X94549728Y-78750000D01*
X94750000Y-78750000D01*
X95425000Y-78750000D01*
X95425000Y-78527172D01*
X95424999Y-78527155D01*
X95418598Y-78467627D01*
X95418596Y-78467620D01*
X95368354Y-78332913D01*
X95368350Y-78332906D01*
X95282190Y-78217812D01*
X95282187Y-78217809D01*
X95167093Y-78131649D01*
X95167086Y-78131645D01*
X95032379Y-78081403D01*
X95032372Y-78081401D01*
X94972844Y-78075000D01*
X94750000Y-78075000D01*
X94750000Y-78750000D01*
X94549728Y-78750000D01*
X94450272Y-78750000D01*
X94358386Y-78788060D01*
X94288060Y-78858386D01*
X94250000Y-78950272D01*
X91750000Y-78950272D01*
X91711940Y-78858386D01*
X91641614Y-78788060D01*
X91549728Y-78750000D01*
X91750000Y-78750000D01*
X92425000Y-78750000D01*
X92425000Y-78527172D01*
X92424999Y-78527155D01*
X93575000Y-78527155D01*
X93575000Y-78750000D01*
X94250000Y-78750000D01*
X94250000Y-78075000D01*
X94027155Y-78075000D01*
X93967627Y-78081401D01*
X93967620Y-78081403D01*
X93832913Y-78131645D01*
X93832906Y-78131649D01*
X93717812Y-78217809D01*
X93717809Y-78217812D01*
X93631649Y-78332906D01*
X93631645Y-78332913D01*
X93581403Y-78467620D01*
X93581401Y-78467627D01*
X93575000Y-78527155D01*
X92424999Y-78527155D01*
X92418598Y-78467627D01*
X92418596Y-78467620D01*
X92368354Y-78332913D01*
X92368350Y-78332906D01*
X92282190Y-78217812D01*
X92282187Y-78217809D01*
X92167093Y-78131649D01*
X92167086Y-78131645D01*
X92032379Y-78081403D01*
X92032372Y-78081401D01*
X91972844Y-78075000D01*
X91750000Y-78075000D01*
X91750000Y-78750000D01*
X91549728Y-78750000D01*
X91450272Y-78750000D01*
X91358386Y-78788060D01*
X91288060Y-78858386D01*
X91250000Y-78950272D01*
X90000000Y-78950272D01*
X90000000Y-78527155D01*
X90575000Y-78527155D01*
X90575000Y-78750000D01*
X91250000Y-78750000D01*
X91250000Y-78075000D01*
X91027155Y-78075000D01*
X90967627Y-78081401D01*
X90967620Y-78081403D01*
X90832913Y-78131645D01*
X90832906Y-78131649D01*
X90717812Y-78217809D01*
X90717809Y-78217812D01*
X90631649Y-78332906D01*
X90631645Y-78332913D01*
X90581403Y-78467620D01*
X90581401Y-78467627D01*
X90575000Y-78527155D01*
X90000000Y-78527155D01*
X90000000Y-76472844D01*
X90575000Y-76472844D01*
X90581401Y-76532372D01*
X90581403Y-76532379D01*
X90631645Y-76667086D01*
X90631649Y-76667093D01*
X90717809Y-76782187D01*
X90717812Y-76782190D01*
X90832906Y-76868350D01*
X90832913Y-76868354D01*
X90967620Y-76918596D01*
X90967627Y-76918598D01*
X91027155Y-76924999D01*
X91027172Y-76925000D01*
X91250000Y-76925000D01*
X91750000Y-76925000D01*
X91972828Y-76925000D01*
X91972844Y-76924999D01*
X92032372Y-76918598D01*
X92032379Y-76918596D01*
X92167086Y-76868354D01*
X92167093Y-76868350D01*
X92282187Y-76782190D01*
X92282190Y-76782187D01*
X92368350Y-76667093D01*
X92368354Y-76667086D01*
X92418596Y-76532379D01*
X92418598Y-76532372D01*
X92424999Y-76472844D01*
X93575000Y-76472844D01*
X93581401Y-76532372D01*
X93581403Y-76532379D01*
X93631645Y-76667086D01*
X93631649Y-76667093D01*
X93717809Y-76782187D01*
X93717812Y-76782190D01*
X93832906Y-76868350D01*
X93832913Y-76868354D01*
X93967620Y-76918596D01*
X93967627Y-76918598D01*
X94027155Y-76924999D01*
X94027172Y-76925000D01*
X94250000Y-76925000D01*
X94750000Y-76925000D01*
X94972828Y-76925000D01*
X94972844Y-76924999D01*
X95032372Y-76918598D01*
X95032379Y-76918596D01*
X95167086Y-76868354D01*
X95167093Y-76868350D01*
X95282187Y-76782190D01*
X95282190Y-76782187D01*
X95368350Y-76667093D01*
X95368354Y-76667086D01*
X95418596Y-76532379D01*
X95418598Y-76532372D01*
X95424999Y-76472844D01*
X95425000Y-76472827D01*
X95425000Y-76250000D01*
X94750000Y-76250000D01*
X94750000Y-76925000D01*
X94250000Y-76925000D01*
X94250000Y-76250000D01*
X93575000Y-76250000D01*
X93575000Y-76472844D01*
X92424999Y-76472844D01*
X92425000Y-76472827D01*
X92425000Y-76250000D01*
X91750000Y-76250000D01*
X91750000Y-76925000D01*
X91250000Y-76925000D01*
X91250000Y-76250000D01*
X90575000Y-76250000D01*
X90575000Y-76472844D01*
X90000000Y-76472844D01*
X90000000Y-75950272D01*
X91250000Y-75950272D01*
X91250000Y-76049728D01*
X91288060Y-76141614D01*
X91358386Y-76211940D01*
X91450272Y-76250000D01*
X91549728Y-76250000D01*
X91641614Y-76211940D01*
X91711940Y-76141614D01*
X91750000Y-76049728D01*
X91750000Y-75950272D01*
X94250000Y-75950272D01*
X94250000Y-76049728D01*
X94288060Y-76141614D01*
X94358386Y-76211940D01*
X94450272Y-76250000D01*
X94549728Y-76250000D01*
X94641614Y-76211940D01*
X94711940Y-76141614D01*
X94750000Y-76049728D01*
X94750000Y-75950272D01*
X94727740Y-75896530D01*
X97949500Y-75896530D01*
X97949500Y-76103469D01*
X97989868Y-76306412D01*
X97989870Y-76306420D01*
X98069058Y-76497596D01*
X98184024Y-76669657D01*
X98330342Y-76815975D01*
X98330345Y-76815977D01*
X98502402Y-76930941D01*
X98693580Y-77010130D01*
X98894016Y-77049999D01*
X98896530Y-77050499D01*
X98896534Y-77050500D01*
X98896535Y-77050500D01*
X99103466Y-77050500D01*
X99103467Y-77050499D01*
X99306420Y-77010130D01*
X99497598Y-76930941D01*
X99545970Y-76898620D01*
X99954931Y-76898620D01*
X99954932Y-76898621D01*
X100002633Y-76930495D01*
X100002639Y-76930498D01*
X100193725Y-77009649D01*
X100193733Y-77009651D01*
X100396579Y-77049999D01*
X100396583Y-77050000D01*
X100603417Y-77050000D01*
X100603420Y-77049999D01*
X100806266Y-77009651D01*
X100806274Y-77009649D01*
X100997366Y-76930495D01*
X101045066Y-76898621D01*
X101045067Y-76898620D01*
X100500001Y-76353554D01*
X100500000Y-76353554D01*
X99954931Y-76898620D01*
X99545970Y-76898620D01*
X99669655Y-76815977D01*
X99669658Y-76815974D01*
X99720905Y-76764728D01*
X99815974Y-76669658D01*
X99815975Y-76669657D01*
X99815977Y-76669655D01*
X99930941Y-76497598D01*
X100010130Y-76306420D01*
X100045029Y-76130970D01*
X100055853Y-76099476D01*
X100119429Y-75972983D01*
X100100368Y-75953922D01*
X100150000Y-75953922D01*
X100150000Y-76046078D01*
X100173852Y-76135095D01*
X100219930Y-76214905D01*
X100285095Y-76280070D01*
X100364905Y-76326148D01*
X100453922Y-76350000D01*
X100546078Y-76350000D01*
X100635095Y-76326148D01*
X100714905Y-76280070D01*
X100780070Y-76214905D01*
X100826148Y-76135095D01*
X100850000Y-76046078D01*
X100850000Y-75999999D01*
X100853554Y-75999999D01*
X100853554Y-76000001D01*
X101398620Y-76545067D01*
X101398621Y-76545066D01*
X101430495Y-76497366D01*
X101509649Y-76306274D01*
X101509651Y-76306266D01*
X101549999Y-76103420D01*
X101550000Y-76103417D01*
X101550000Y-75896583D01*
X101549999Y-75896579D01*
X101509651Y-75693733D01*
X101509649Y-75693725D01*
X101430498Y-75502639D01*
X101430495Y-75502633D01*
X101398621Y-75454932D01*
X101398620Y-75454931D01*
X100853554Y-75999999D01*
X100850000Y-75999999D01*
X100850000Y-75953922D01*
X100826148Y-75864905D01*
X100780070Y-75785095D01*
X100714905Y-75719930D01*
X100635095Y-75673852D01*
X100546078Y-75650000D01*
X100453922Y-75650000D01*
X100364905Y-75673852D01*
X100285095Y-75719930D01*
X100219930Y-75785095D01*
X100173852Y-75864905D01*
X100150000Y-75953922D01*
X100100368Y-75953922D01*
X100078965Y-75932519D01*
X100045480Y-75871196D01*
X100045029Y-75869029D01*
X100028333Y-75785095D01*
X100010130Y-75693580D01*
X99930941Y-75502402D01*
X99815977Y-75330345D01*
X99815975Y-75330342D01*
X99669657Y-75184024D01*
X99545967Y-75101378D01*
X99545966Y-75101377D01*
X99954932Y-75101377D01*
X99954932Y-75101378D01*
X100500000Y-75646446D01*
X100500001Y-75646446D01*
X101045067Y-75101378D01*
X101045067Y-75101377D01*
X100997359Y-75069500D01*
X100806274Y-74990350D01*
X100806266Y-74990348D01*
X100603420Y-74950000D01*
X100396579Y-74950000D01*
X100193733Y-74990348D01*
X100193725Y-74990350D01*
X100002641Y-75069500D01*
X100002631Y-75069505D01*
X99954932Y-75101377D01*
X99545966Y-75101377D01*
X99497598Y-75069059D01*
X99306420Y-74989870D01*
X99306412Y-74989868D01*
X99103469Y-74949500D01*
X99103465Y-74949500D01*
X98896535Y-74949500D01*
X98896530Y-74949500D01*
X98693587Y-74989868D01*
X98693579Y-74989870D01*
X98502403Y-75069058D01*
X98330342Y-75184024D01*
X98184024Y-75330342D01*
X98069058Y-75502403D01*
X97989870Y-75693579D01*
X97989868Y-75693587D01*
X97949500Y-75896530D01*
X94727740Y-75896530D01*
X94711940Y-75858386D01*
X94641614Y-75788060D01*
X94549728Y-75750000D01*
X94750000Y-75750000D01*
X95425000Y-75750000D01*
X95425000Y-75527172D01*
X95424999Y-75527155D01*
X95418598Y-75467627D01*
X95418596Y-75467620D01*
X95368354Y-75332913D01*
X95368350Y-75332906D01*
X95282190Y-75217812D01*
X95282187Y-75217809D01*
X95167093Y-75131649D01*
X95167086Y-75131645D01*
X95032379Y-75081403D01*
X95032372Y-75081401D01*
X94972844Y-75075000D01*
X94750000Y-75075000D01*
X94750000Y-75750000D01*
X94549728Y-75750000D01*
X94450272Y-75750000D01*
X94358386Y-75788060D01*
X94288060Y-75858386D01*
X94250000Y-75950272D01*
X91750000Y-75950272D01*
X91711940Y-75858386D01*
X91641614Y-75788060D01*
X91549728Y-75750000D01*
X91750000Y-75750000D01*
X92425000Y-75750000D01*
X92425000Y-75527172D01*
X92424999Y-75527155D01*
X93575000Y-75527155D01*
X93575000Y-75750000D01*
X94250000Y-75750000D01*
X94250000Y-75075000D01*
X94027155Y-75075000D01*
X93967627Y-75081401D01*
X93967620Y-75081403D01*
X93832913Y-75131645D01*
X93832906Y-75131649D01*
X93717812Y-75217809D01*
X93717809Y-75217812D01*
X93631649Y-75332906D01*
X93631645Y-75332913D01*
X93581403Y-75467620D01*
X93581401Y-75467627D01*
X93575000Y-75527155D01*
X92424999Y-75527155D01*
X92418598Y-75467627D01*
X92418596Y-75467620D01*
X92368354Y-75332913D01*
X92368350Y-75332906D01*
X92282190Y-75217812D01*
X92282187Y-75217809D01*
X92167093Y-75131649D01*
X92167086Y-75131645D01*
X92032379Y-75081403D01*
X92032372Y-75081401D01*
X91972844Y-75075000D01*
X91750000Y-75075000D01*
X91750000Y-75750000D01*
X91549728Y-75750000D01*
X91450272Y-75750000D01*
X91358386Y-75788060D01*
X91288060Y-75858386D01*
X91250000Y-75950272D01*
X90000000Y-75950272D01*
X90000000Y-75527155D01*
X90575000Y-75527155D01*
X90575000Y-75750000D01*
X91250000Y-75750000D01*
X91250000Y-75075000D01*
X91027155Y-75075000D01*
X90967627Y-75081401D01*
X90967620Y-75081403D01*
X90832913Y-75131645D01*
X90832906Y-75131649D01*
X90717812Y-75217809D01*
X90717809Y-75217812D01*
X90631649Y-75332906D01*
X90631645Y-75332913D01*
X90581403Y-75467620D01*
X90581401Y-75467627D01*
X90575000Y-75527155D01*
X90000000Y-75527155D01*
X90000000Y-72920916D01*
X108197101Y-72920916D01*
X108197101Y-73079083D01*
X108227954Y-73234189D01*
X108227957Y-73234201D01*
X108288477Y-73380310D01*
X108288478Y-73380312D01*
X108376347Y-73511818D01*
X108488181Y-73623652D01*
X108575653Y-73682098D01*
X108619685Y-73711520D01*
X108619686Y-73711520D01*
X108619687Y-73711521D01*
X108619689Y-73711522D01*
X108765798Y-73772042D01*
X108765803Y-73772044D01*
X108920916Y-73802898D01*
X108920919Y-73802899D01*
X108920921Y-73802899D01*
X109079081Y-73802899D01*
X109079082Y-73802898D01*
X109234197Y-73772044D01*
X109380315Y-73711520D01*
X109511818Y-73623652D01*
X109623652Y-73511818D01*
X109711520Y-73380315D01*
X109723625Y-73351089D01*
X109728257Y-73344157D01*
X109729355Y-73339113D01*
X109750503Y-73310863D01*
X109774553Y-73286815D01*
X109835878Y-73253333D01*
X109862231Y-73250500D01*
X113689126Y-73250500D01*
X113736578Y-73259939D01*
X113765798Y-73272042D01*
X113765803Y-73272044D01*
X113920916Y-73302898D01*
X113920919Y-73302899D01*
X113920921Y-73302899D01*
X114079081Y-73302899D01*
X114079082Y-73302898D01*
X114234197Y-73272044D01*
X114380315Y-73211520D01*
X114511818Y-73123652D01*
X114623652Y-73011818D01*
X114711520Y-72880315D01*
X114772044Y-72734197D01*
X114802899Y-72579079D01*
X114802899Y-72420921D01*
X114802899Y-72420918D01*
X114802898Y-72420916D01*
X114794033Y-72376347D01*
X114772044Y-72265803D01*
X114711520Y-72119685D01*
X114682098Y-72075653D01*
X114623652Y-71988181D01*
X114511818Y-71876347D01*
X114380312Y-71788478D01*
X114380310Y-71788477D01*
X114234201Y-71727957D01*
X114234189Y-71727954D01*
X114079082Y-71697101D01*
X114079079Y-71697101D01*
X113920921Y-71697101D01*
X113920918Y-71697101D01*
X113765810Y-71727954D01*
X113765798Y-71727957D01*
X113736578Y-71740061D01*
X113689126Y-71749500D01*
X109426080Y-71749500D01*
X109281092Y-71778340D01*
X109281086Y-71778342D01*
X109144508Y-71834914D01*
X109144496Y-71834921D01*
X109095270Y-71867811D01*
X109095271Y-71867812D01*
X109021581Y-71917049D01*
X108689135Y-72249495D01*
X108648910Y-72276374D01*
X108619684Y-72288480D01*
X108488181Y-72376347D01*
X108376347Y-72488181D01*
X108288478Y-72619687D01*
X108288477Y-72619689D01*
X108227957Y-72765798D01*
X108227954Y-72765810D01*
X108197101Y-72920916D01*
X90000000Y-72920916D01*
X90000000Y-71398620D01*
X94954931Y-71398620D01*
X94954932Y-71398621D01*
X95002633Y-71430495D01*
X95002639Y-71430498D01*
X95193725Y-71509649D01*
X95193733Y-71509651D01*
X95396579Y-71549999D01*
X95396583Y-71550000D01*
X95603417Y-71550000D01*
X95603420Y-71549999D01*
X95806266Y-71509651D01*
X95806274Y-71509649D01*
X95997366Y-71430495D01*
X96045066Y-71398621D01*
X96045067Y-71398620D01*
X95500001Y-70853554D01*
X95500000Y-70853554D01*
X94954931Y-71398620D01*
X90000000Y-71398620D01*
X90000000Y-70396579D01*
X94450000Y-70396579D01*
X94450000Y-70603420D01*
X94490348Y-70806266D01*
X94490350Y-70806274D01*
X94569500Y-70997359D01*
X94601377Y-71045067D01*
X94601378Y-71045067D01*
X95146446Y-70500000D01*
X95100368Y-70453922D01*
X95150000Y-70453922D01*
X95150000Y-70546078D01*
X95173852Y-70635095D01*
X95219930Y-70714905D01*
X95285095Y-70780070D01*
X95364905Y-70826148D01*
X95453922Y-70850000D01*
X95546078Y-70850000D01*
X95635095Y-70826148D01*
X95714905Y-70780070D01*
X95780070Y-70714905D01*
X95826148Y-70635095D01*
X95850000Y-70546078D01*
X95850000Y-70499999D01*
X95853554Y-70499999D01*
X95853554Y-70500000D01*
X96398620Y-71045067D01*
X96398621Y-71045066D01*
X96430495Y-70997366D01*
X96509649Y-70806274D01*
X96509651Y-70806266D01*
X96549999Y-70603420D01*
X96550000Y-70603417D01*
X96550000Y-70396583D01*
X96549999Y-70396579D01*
X96509651Y-70193733D01*
X96509649Y-70193725D01*
X96430498Y-70002639D01*
X96430495Y-70002633D01*
X96398621Y-69954932D01*
X96398620Y-69954931D01*
X95853554Y-70499999D01*
X95850000Y-70499999D01*
X95850000Y-70453922D01*
X95826148Y-70364905D01*
X95780070Y-70285095D01*
X95714905Y-70219930D01*
X95635095Y-70173852D01*
X95546078Y-70150000D01*
X95453922Y-70150000D01*
X95364905Y-70173852D01*
X95285095Y-70219930D01*
X95219930Y-70285095D01*
X95173852Y-70364905D01*
X95150000Y-70453922D01*
X95100368Y-70453922D01*
X94601378Y-69954932D01*
X94601377Y-69954932D01*
X94569505Y-70002631D01*
X94569500Y-70002641D01*
X94490350Y-70193725D01*
X94490348Y-70193733D01*
X94450000Y-70396579D01*
X90000000Y-70396579D01*
X90000000Y-68896530D01*
X94449500Y-68896530D01*
X94449500Y-69103469D01*
X94489868Y-69306412D01*
X94489870Y-69306420D01*
X94569058Y-69497596D01*
X94684024Y-69669657D01*
X94830342Y-69815975D01*
X94830345Y-69815977D01*
X95002402Y-69930941D01*
X95193580Y-70010130D01*
X95301017Y-70031500D01*
X95369029Y-70045029D01*
X95430940Y-70077413D01*
X95432519Y-70078965D01*
X95499999Y-70146445D01*
X95567479Y-70078965D01*
X95628802Y-70045480D01*
X95630970Y-70045029D01*
X95644521Y-70042333D01*
X95806420Y-70010130D01*
X95997598Y-69930941D01*
X96169655Y-69815977D01*
X96315977Y-69669655D01*
X96430941Y-69497598D01*
X96510130Y-69306420D01*
X96550500Y-69103465D01*
X96550500Y-68896535D01*
X96510130Y-68693580D01*
X96430941Y-68502402D01*
X96315977Y-68330345D01*
X96315975Y-68330342D01*
X96169657Y-68184024D01*
X96083626Y-68126541D01*
X95997598Y-68069059D01*
X95806420Y-67989870D01*
X95806412Y-67989868D01*
X95603469Y-67949500D01*
X95603465Y-67949500D01*
X95396535Y-67949500D01*
X95396530Y-67949500D01*
X95193587Y-67989868D01*
X95193579Y-67989870D01*
X95002403Y-68069058D01*
X94830342Y-68184024D01*
X94684024Y-68330342D01*
X94569058Y-68502403D01*
X94489870Y-68693579D01*
X94489868Y-68693587D01*
X94449500Y-68896530D01*
X90000000Y-68896530D01*
X90000000Y-65624000D01*
X90019685Y-65556961D01*
X90072489Y-65511206D01*
X90124000Y-65500000D01*
X116376000Y-65500000D01*
X116443039Y-65519685D01*
G37*
%TD.AperFunction*%
%TD*%
M02*
