M48
; DRILL file KiCad 10.0.1 date 2026-05-18T21:03:44
; FORMAT={-:-/ absolute / inch / decimal}
; #@! TF.CreationDate,2026-05-18T21:03:44+02:00
; #@! TF.GenerationSoftware,Kicad,Pcbnew,10.0.1
; #@! TF.FileFunction,Plated,1,2,PTH
FMAT,2
INCH
; #@! TA.AperFunction,Plated,PTH,ViaDrill
T1C0.0118
; #@! TA.AperFunction,Plated,PTH,ComponentDrill
T2C0.0118
; #@! TA.AperFunction,Plated,PTH,ComponentDrill
T3C0.0197
; #@! TA.AperFunction,Plated,PTH,ComponentDrill
T4C0.0276
%
G90
G05
T1
X3.8976Y-3.1122
X4.1644Y-3.0709
X4.2805Y-3.2874
X4.3789Y-3.189
X4.4577Y-2.874
X4.5167Y-3.189
X4.5167Y-3.3071
X4.6152Y-3.0906
X4.6545Y-2.8543
X4.6545Y-3.0709
X4.6742Y-3.2087
X4.6939Y-3.0906
X4.7333Y-3.3465
T2
X4.438Y-3.3858
X4.438Y-3.4646
X4.5955Y-3.3858
X4.5955Y-3.4646
T4
X3.7205Y-3.248
X3.7205Y-3.3071
X3.7244Y-2.687
X3.7244Y-2.7461
X3.7244Y-2.9626
X3.7244Y-3.0217
X4.0256Y-2.7992
X4.0846Y-2.7992
T3
G00X4.3463Y-3.2531
M15
G01X4.3463Y-3.2965
M16
G05
G00X4.3463Y-3.4244
M15
G01X4.3463Y-3.4559
M16
G05
G00X4.6872Y-3.2531
M15
G01X4.6872Y-3.2965
M16
G05
G00X4.6872Y-3.4244
M15
G01X4.6872Y-3.4559
M16
G05
M30
