M48
; DRILL file {KiCad 9.0.7} date 2026-04-29T22:25:01+0200
; FORMAT={-:-/ absolute / inch / decimal}
; #@! TF.CreationDate,2026-04-29T22:25:01+02:00
; #@! TF.GenerationSoftware,Kicad,Pcbnew,9.0.7
; #@! TF.FileFunction,Plated,1,2,PTH
FMAT,2
INCH
; #@! TA.AperFunction,Plated,PTH,ViaDrill
T1C0.0118
; #@! TA.AperFunction,Plated,PTH,ComponentDrill
T2C0.0118
; #@! TA.AperFunction,Plated,PTH,ComponentDrill
T3C0.0197
; #@! TA.AperFunction,Plated,PTH,ComponentDrill
T4C0.0276
; #@! TA.AperFunction,Plated,PTH,ComponentDrill
T5C0.0394
%
G90
G05
T1
X3.6811Y-2.9528
X3.7402Y-3.1102
X3.937Y-2.6181
X4.1142Y-3.2874
X4.1516Y-2.8327
X4.2913Y-2.874
X4.3307Y-2.7165
X4.3504Y-2.7756
X4.3504Y-3.189
X4.3504Y-3.3071
X4.4488Y-3.0906
X4.4882Y-2.8543
X4.4882Y-3.0709
X4.5079Y-3.2087
X4.5276Y-3.0906
X4.5669Y-3.3465
T2
X4.2717Y-3.3858
X4.2717Y-3.4646
X4.4291Y-3.3858
X4.4291Y-3.4646
T4
X3.6614Y-3.2677
X3.6713Y-2.7992
X3.7205Y-3.2677
X3.7303Y-2.7992
X3.937Y-3.2677
X3.9961Y-3.2677
T5
X4.0748Y-2.9724
X4.0748Y-3.0724
X4.685Y-3.0994
X4.685Y-3.1994
T3
G00X4.1799Y-3.2531
M15
G01X4.1799Y-3.2965
M16
G05
G00X4.1799Y-3.4244
M15
G01X4.1799Y-3.4559
M16
G05
G00X4.5209Y-3.2531
M15
G01X4.5209Y-3.2965
M16
G05
G00X4.5209Y-3.4244
M15
G01X4.5209Y-3.4559
M16
G05
M30
