%TF.GenerationSoftware,KiCad,Pcbnew,9.0.7*%
%TF.CreationDate,2026-04-29T22:25:01+02:00*%
%TF.ProjectId,usbC,75736243-2e6b-4696-9361-645f70636258,rev?*%
%TF.SameCoordinates,Original*%
%TF.FileFunction,Soldermask,Top*%
%TF.FilePolarity,Negative*%
%FSLAX46Y46*%
G04 Gerber Fmt 4.6, Leading zero omitted, Abs format (unit mm)*
G04 Created by KiCad (PCBNEW 9.0.7) date 2026-04-29 22:25:01*
%MOMM*%
%LPD*%
G01*
G04 APERTURE LIST*
G04 Aperture macros list*
%AMRoundRect*
0 Rectangle with rounded corners*
0 $1 Rounding radius*
0 $2 $3 $4 $5 $6 $7 $8 $9 X,Y pos of 4 corners*
0 Add a 4 corners polygon primitive as box body*
4,1,4,$2,$3,$4,$5,$6,$7,$8,$9,$2,$3,0*
0 Add four circle primitives for the rounded corners*
1,1,$1+$1,$2,$3*
1,1,$1+$1,$4,$5*
1,1,$1+$1,$6,$7*
1,1,$1+$1,$8,$9*
0 Add four rect primitives between the rounded corners*
20,1,$1+$1,$2,$3,$4,$5,0*
20,1,$1+$1,$4,$5,$6,$7,0*
20,1,$1+$1,$6,$7,$8,$9,0*
20,1,$1+$1,$8,$9,$2,$3,0*%
%AMFreePoly0*
4,1,9,3.862500,-0.866500,0.737500,-0.866500,0.737500,-0.450000,-0.737500,-0.450000,-0.737500,0.450000,0.737500,0.450000,0.737500,0.866500,3.862500,0.866500,3.862500,-0.866500,3.862500,-0.866500,$1*%
G04 Aperture macros list end*
%ADD10R,1.700000X1.700000*%
%ADD11C,1.700000*%
%ADD12C,1.100000*%
%ADD13RoundRect,0.225000X-0.225000X-0.250000X0.225000X-0.250000X0.225000X0.250000X-0.225000X0.250000X0*%
%ADD14RoundRect,0.150000X0.150000X-0.512500X0.150000X0.512500X-0.150000X0.512500X-0.150000X-0.512500X0*%
%ADD15R,0.500000X1.100000*%
%ADD16RoundRect,0.225000X0.425000X0.225000X-0.425000X0.225000X-0.425000X-0.225000X0.425000X-0.225000X0*%
%ADD17FreePoly0,180.000000*%
%ADD18RoundRect,0.155000X-0.212500X-0.155000X0.212500X-0.155000X0.212500X0.155000X-0.212500X0.155000X0*%
%ADD19RoundRect,0.225000X0.250000X-0.225000X0.250000X0.225000X-0.250000X0.225000X-0.250000X-0.225000X0*%
%ADD20R,0.300000X1.400000*%
%ADD21R,0.500000X1.400000*%
%ADD22O,1.300000X2.300000*%
%ADD23O,1.300000X2.100000*%
%ADD24C,0.500000*%
%ADD25RoundRect,0.500000X-2.000000X-1.000000X2.000000X-1.000000X2.000000X1.000000X-2.000000X1.000000X0*%
%ADD26RoundRect,0.250000X0.625000X-0.375000X0.625000X0.375000X-0.625000X0.375000X-0.625000X-0.375000X0*%
%ADD27RoundRect,0.218750X-0.381250X0.218750X-0.381250X-0.218750X0.381250X-0.218750X0.381250X0.218750X0*%
%ADD28RoundRect,0.150000X0.150000X0.475000X-0.150000X0.475000X-0.150000X-0.475000X0.150000X-0.475000X0*%
%ADD29RoundRect,0.225000X0.225000X0.625000X-0.225000X0.625000X-0.225000X-0.625000X0.225000X-0.625000X0*%
G04 APERTURE END LIST*
D10*
%TO.C,J7*%
X103500000Y-75500000D03*
D11*
X103500000Y-78040000D03*
%TD*%
D10*
%TO.C,J6*%
X119000000Y-78725000D03*
D11*
X119000000Y-81265000D03*
%TD*%
D12*
%TO.C,J1*%
X93000000Y-83000000D03*
X94500000Y-83000000D03*
%TD*%
D13*
%TO.C,C3*%
X107500000Y-70500000D03*
X109050000Y-70500000D03*
%TD*%
D14*
%TO.C,U1*%
X113050000Y-76500000D03*
X114000000Y-76500000D03*
X114950000Y-76500000D03*
X114950000Y-74225000D03*
X114000000Y-74225000D03*
X113050000Y-74225000D03*
%TD*%
D15*
%TO.C,D1*%
X106500000Y-74500000D03*
X106500000Y-76850000D03*
%TD*%
D16*
%TO.C,U2*%
X105450000Y-70500000D03*
D17*
X105362500Y-69000000D03*
D16*
X105450000Y-67500000D03*
%TD*%
D12*
%TO.C,J5*%
X100000000Y-83000000D03*
X101500000Y-83000000D03*
%TD*%
%TO.C,J2*%
X94750000Y-71100000D03*
X93250000Y-71100000D03*
%TD*%
D18*
%TO.C,C2*%
X107415000Y-69000000D03*
X108550000Y-69000000D03*
%TD*%
D19*
%TO.C,C18*%
X100000000Y-69050000D03*
X100000000Y-67500000D03*
%TD*%
D20*
%TO.C,J9*%
X109250000Y-82500000D03*
X110250000Y-82500000D03*
X110750000Y-82500000D03*
X111750000Y-82500000D03*
D21*
X112900000Y-82500000D03*
X113700000Y-82500000D03*
D20*
X112250000Y-82500000D03*
X111250000Y-82500000D03*
X109750000Y-82500000D03*
X108750000Y-82500000D03*
D21*
X108100000Y-82500000D03*
X107300000Y-82500000D03*
D22*
X106170000Y-83180000D03*
D23*
X106170000Y-87380000D03*
D24*
X108500000Y-86000000D03*
X108500000Y-88000000D03*
D25*
X110500000Y-87000000D03*
D24*
X112500000Y-86000000D03*
X112500000Y-88000000D03*
D22*
X114830000Y-83180000D03*
D23*
X114830000Y-87380000D03*
%TD*%
D26*
%TO.C,F1*%
X111000000Y-77800000D03*
X111000000Y-75000000D03*
%TD*%
D27*
%TO.C,FB1*%
X109000000Y-75000000D03*
X109000000Y-77125000D03*
%TD*%
D28*
%TO.C,J3*%
X113950000Y-70625000D03*
X112950000Y-70625000D03*
D29*
X115400000Y-67500000D03*
X111500000Y-67500000D03*
%TD*%
D13*
%TO.C,C17*%
X107500000Y-67500000D03*
X109050000Y-67500000D03*
%TD*%
M02*
