%TF.GenerationSoftware,KiCad,Pcbnew,10.0.1*%
%TF.CreationDate,2026-05-18T21:03:44+02:00*%
%TF.ProjectId,usbC,75736243-2e6b-4696-9361-645f70636258,rev?*%
%TF.SameCoordinates,Original*%
%TF.FileFunction,Legend,Top*%
%TF.FilePolarity,Positive*%
%FSLAX46Y46*%
G04 Gerber Fmt 4.6, Leading zero omitted, Abs format (unit mm)*
G04 Created by KiCad (PCBNEW 10.0.1) date 2026-05-18 21:03:44*
%MOMM*%
%LPD*%
G01*
G04 APERTURE LIST*
G04 Aperture macros list*
%AMRoundRect*
0 Rectangle with rounded corners*
0 $1 Rounding radius*
0 $2 $3 $4 $5 $6 $7 $8 $9 X,Y pos of 4 corners*
0 Add a 4 corners polygon primitive as box body*
4,1,4,$2,$3,$4,$5,$6,$7,$8,$9,$2,$3,0*
0 Add four circle primitives for the rounded corners*
1,1,$1+$1,$2,$3*
1,1,$1+$1,$4,$5*
1,1,$1+$1,$6,$7*
1,1,$1+$1,$8,$9*
0 Add four rect primitives between the rounded corners*
20,1,$1+$1,$2,$3,$4,$5,0*
20,1,$1+$1,$4,$5,$6,$7,0*
20,1,$1+$1,$6,$7,$8,$9,0*
20,1,$1+$1,$8,$9,$2,$3,0*%
%AMFreePoly0*
4,1,9,3.862500,-0.866500,0.737500,-0.866500,0.737500,-0.450000,-0.737500,-0.450000,-0.737500,0.450000,0.737500,0.450000,0.737500,0.866500,3.862500,0.866500,3.862500,-0.866500,3.862500,-0.866500,$1*%
G04 Aperture macros list end*
%ADD10C,0.254000*%
%ADD11C,0.150000*%
%ADD12C,0.200000*%
%ADD13C,0.000000*%
%ADD14C,0.120000*%
%ADD15C,1.100000*%
%ADD16RoundRect,0.150000X0.150000X0.475000X-0.150000X0.475000X-0.150000X-0.475000X0.150000X-0.475000X0*%
%ADD17RoundRect,0.225000X0.225000X0.625000X-0.225000X0.625000X-0.225000X-0.625000X0.225000X-0.625000X0*%
%ADD18RoundRect,0.225000X0.425000X0.225000X-0.425000X0.225000X-0.425000X-0.225000X0.425000X-0.225000X0*%
%ADD19FreePoly0,180.000000*%
%ADD20RoundRect,0.225000X0.225000X0.250000X-0.225000X0.250000X-0.225000X-0.250000X0.225000X-0.250000X0*%
%ADD21RoundRect,0.150000X0.150000X-0.512500X0.150000X0.512500X-0.150000X0.512500X-0.150000X-0.512500X0*%
%ADD22R,0.500000X1.100000*%
%ADD23RoundRect,0.225000X-0.250000X0.225000X-0.250000X-0.225000X0.250000X-0.225000X0.250000X0.225000X0*%
%ADD24C,0.600000*%
%ADD25R,0.300000X1.400000*%
%ADD26R,0.500000X1.400000*%
%ADD27O,1.300000X2.300000*%
%ADD28O,1.300000X2.100000*%
%ADD29C,0.500000*%
%ADD30RoundRect,0.500000X-2.000000X-1.000000X2.000000X-1.000000X2.000000X1.000000X-2.000000X1.000000X0*%
%ADD31RoundRect,0.250000X0.625000X-0.375000X0.625000X0.375000X-0.625000X0.375000X-0.625000X-0.375000X0*%
%ADD32RoundRect,0.218750X-0.381250X0.218750X-0.381250X-0.218750X0.381250X-0.218750X0.381250X0.218750X0*%
G04 APERTURE END LIST*
D10*
X102576667Y-68804318D02*
X102576667Y-69711461D01*
X102576667Y-69711461D02*
X102516190Y-69892889D01*
X102516190Y-69892889D02*
X102395238Y-70013842D01*
X102395238Y-70013842D02*
X102213809Y-70074318D01*
X102213809Y-70074318D02*
X102092857Y-70074318D01*
X103725714Y-69227651D02*
X103725714Y-70074318D01*
X103423333Y-68743842D02*
X103120952Y-69650984D01*
X103120952Y-69650984D02*
X103907143Y-69650984D01*
D11*
X113454819Y-68833333D02*
X114169104Y-68833333D01*
X114169104Y-68833333D02*
X114311961Y-68880952D01*
X114311961Y-68880952D02*
X114407200Y-68976190D01*
X114407200Y-68976190D02*
X114454819Y-69119047D01*
X114454819Y-69119047D02*
X114454819Y-69214285D01*
X113454819Y-68452380D02*
X113454819Y-67833333D01*
X113454819Y-67833333D02*
X113835771Y-68166666D01*
X113835771Y-68166666D02*
X113835771Y-68023809D01*
X113835771Y-68023809D02*
X113883390Y-67928571D01*
X113883390Y-67928571D02*
X113931009Y-67880952D01*
X113931009Y-67880952D02*
X114026247Y-67833333D01*
X114026247Y-67833333D02*
X114264342Y-67833333D01*
X114264342Y-67833333D02*
X114359580Y-67880952D01*
X114359580Y-67880952D02*
X114407200Y-67928571D01*
X114407200Y-67928571D02*
X114454819Y-68023809D01*
X114454819Y-68023809D02*
X114454819Y-68309523D01*
X114454819Y-68309523D02*
X114407200Y-68404761D01*
X114407200Y-68404761D02*
X114359580Y-68452380D01*
X92238095Y-87454819D02*
X92238095Y-88264342D01*
X92238095Y-88264342D02*
X92285714Y-88359580D01*
X92285714Y-88359580D02*
X92333333Y-88407200D01*
X92333333Y-88407200D02*
X92428571Y-88454819D01*
X92428571Y-88454819D02*
X92619047Y-88454819D01*
X92619047Y-88454819D02*
X92714285Y-88407200D01*
X92714285Y-88407200D02*
X92761904Y-88359580D01*
X92761904Y-88359580D02*
X92809523Y-88264342D01*
X92809523Y-88264342D02*
X92809523Y-87454819D01*
X93238095Y-87550057D02*
X93285714Y-87502438D01*
X93285714Y-87502438D02*
X93380952Y-87454819D01*
X93380952Y-87454819D02*
X93619047Y-87454819D01*
X93619047Y-87454819D02*
X93714285Y-87502438D01*
X93714285Y-87502438D02*
X93761904Y-87550057D01*
X93761904Y-87550057D02*
X93809523Y-87645295D01*
X93809523Y-87645295D02*
X93809523Y-87740533D01*
X93809523Y-87740533D02*
X93761904Y-87883390D01*
X93761904Y-87883390D02*
X93190476Y-88454819D01*
X93190476Y-88454819D02*
X93809523Y-88454819D01*
D10*
X92304318Y-76423332D02*
X93211461Y-76423332D01*
X93211461Y-76423332D02*
X93392889Y-76483809D01*
X93392889Y-76483809D02*
X93513842Y-76604761D01*
X93513842Y-76604761D02*
X93574318Y-76786190D01*
X93574318Y-76786190D02*
X93574318Y-76907142D01*
X93574318Y-75153332D02*
X93574318Y-75879047D01*
X93574318Y-75516190D02*
X92304318Y-75516190D01*
X92304318Y-75516190D02*
X92485746Y-75637142D01*
X92485746Y-75637142D02*
X92606699Y-75758094D01*
X92606699Y-75758094D02*
X92667175Y-75879047D01*
D11*
X107833333Y-79789581D02*
X107785714Y-79837201D01*
X107785714Y-79837201D02*
X107642857Y-79884820D01*
X107642857Y-79884820D02*
X107547619Y-79884820D01*
X107547619Y-79884820D02*
X107404762Y-79837201D01*
X107404762Y-79837201D02*
X107309524Y-79741962D01*
X107309524Y-79741962D02*
X107261905Y-79646724D01*
X107261905Y-79646724D02*
X107214286Y-79456248D01*
X107214286Y-79456248D02*
X107214286Y-79313391D01*
X107214286Y-79313391D02*
X107261905Y-79122915D01*
X107261905Y-79122915D02*
X107309524Y-79027677D01*
X107309524Y-79027677D02*
X107404762Y-78932439D01*
X107404762Y-78932439D02*
X107547619Y-78884820D01*
X107547619Y-78884820D02*
X107642857Y-78884820D01*
X107642857Y-78884820D02*
X107785714Y-78932439D01*
X107785714Y-78932439D02*
X107833333Y-78980058D01*
X108166667Y-78884820D02*
X108785714Y-78884820D01*
X108785714Y-78884820D02*
X108452381Y-79265772D01*
X108452381Y-79265772D02*
X108595238Y-79265772D01*
X108595238Y-79265772D02*
X108690476Y-79313391D01*
X108690476Y-79313391D02*
X108738095Y-79361010D01*
X108738095Y-79361010D02*
X108785714Y-79456248D01*
X108785714Y-79456248D02*
X108785714Y-79694343D01*
X108785714Y-79694343D02*
X108738095Y-79789581D01*
X108738095Y-79789581D02*
X108690476Y-79837201D01*
X108690476Y-79837201D02*
X108595238Y-79884820D01*
X108595238Y-79884820D02*
X108309524Y-79884820D01*
X108309524Y-79884820D02*
X108214286Y-79837201D01*
X108214286Y-79837201D02*
X108166667Y-79789581D01*
X115279819Y-76124404D02*
X116089342Y-76124404D01*
X116089342Y-76124404D02*
X116184580Y-76076785D01*
X116184580Y-76076785D02*
X116232200Y-76029166D01*
X116232200Y-76029166D02*
X116279819Y-75933928D01*
X116279819Y-75933928D02*
X116279819Y-75743452D01*
X116279819Y-75743452D02*
X116232200Y-75648214D01*
X116232200Y-75648214D02*
X116184580Y-75600595D01*
X116184580Y-75600595D02*
X116089342Y-75552976D01*
X116089342Y-75552976D02*
X115279819Y-75552976D01*
X116279819Y-74552976D02*
X116279819Y-75124404D01*
X116279819Y-74838690D02*
X115279819Y-74838690D01*
X115279819Y-74838690D02*
X115422676Y-74933928D01*
X115422676Y-74933928D02*
X115517914Y-75029166D01*
X115517914Y-75029166D02*
X115565533Y-75124404D01*
D10*
X111574318Y-76612381D02*
X110304318Y-76612381D01*
X110304318Y-76612381D02*
X110304318Y-76310000D01*
X110304318Y-76310000D02*
X110364794Y-76128571D01*
X110364794Y-76128571D02*
X110485746Y-76007619D01*
X110485746Y-76007619D02*
X110606699Y-75947142D01*
X110606699Y-75947142D02*
X110848603Y-75886666D01*
X110848603Y-75886666D02*
X111030032Y-75886666D01*
X111030032Y-75886666D02*
X111271937Y-75947142D01*
X111271937Y-75947142D02*
X111392889Y-76007619D01*
X111392889Y-76007619D02*
X111513842Y-76128571D01*
X111513842Y-76128571D02*
X111574318Y-76310000D01*
X111574318Y-76310000D02*
X111574318Y-76612381D01*
X111574318Y-74677142D02*
X111574318Y-75402857D01*
X111574318Y-75040000D02*
X110304318Y-75040000D01*
X110304318Y-75040000D02*
X110485746Y-75160952D01*
X110485746Y-75160952D02*
X110606699Y-75281904D01*
X110606699Y-75281904D02*
X110667175Y-75402857D01*
X92204318Y-83673332D02*
X93111461Y-83673332D01*
X93111461Y-83673332D02*
X93292889Y-83733809D01*
X93292889Y-83733809D02*
X93413842Y-83854761D01*
X93413842Y-83854761D02*
X93474318Y-84036190D01*
X93474318Y-84036190D02*
X93474318Y-84157142D01*
X92204318Y-82463809D02*
X92204318Y-83068571D01*
X92204318Y-83068571D02*
X92809080Y-83129047D01*
X92809080Y-83129047D02*
X92748603Y-83068571D01*
X92748603Y-83068571D02*
X92688127Y-82947618D01*
X92688127Y-82947618D02*
X92688127Y-82645237D01*
X92688127Y-82645237D02*
X92748603Y-82524285D01*
X92748603Y-82524285D02*
X92809080Y-82463809D01*
X92809080Y-82463809D02*
X92930032Y-82403332D01*
X92930032Y-82403332D02*
X93232413Y-82403332D01*
X93232413Y-82403332D02*
X93353365Y-82463809D01*
X93353365Y-82463809D02*
X93413842Y-82524285D01*
X93413842Y-82524285D02*
X93474318Y-82645237D01*
X93474318Y-82645237D02*
X93474318Y-82947618D01*
X93474318Y-82947618D02*
X93413842Y-83068571D01*
X93413842Y-83068571D02*
X93353365Y-83129047D01*
X92304318Y-69423332D02*
X93211461Y-69423332D01*
X93211461Y-69423332D02*
X93392889Y-69483809D01*
X93392889Y-69483809D02*
X93513842Y-69604761D01*
X93513842Y-69604761D02*
X93574318Y-69786190D01*
X93574318Y-69786190D02*
X93574318Y-69907142D01*
X92425270Y-68879047D02*
X92364794Y-68818571D01*
X92364794Y-68818571D02*
X92304318Y-68697618D01*
X92304318Y-68697618D02*
X92304318Y-68395237D01*
X92304318Y-68395237D02*
X92364794Y-68274285D01*
X92364794Y-68274285D02*
X92425270Y-68213809D01*
X92425270Y-68213809D02*
X92546222Y-68153332D01*
X92546222Y-68153332D02*
X92667175Y-68153332D01*
X92667175Y-68153332D02*
X92848603Y-68213809D01*
X92848603Y-68213809D02*
X93574318Y-68939523D01*
X93574318Y-68939523D02*
X93574318Y-68153332D01*
D11*
X107359580Y-71142857D02*
X107407200Y-71190476D01*
X107407200Y-71190476D02*
X107454819Y-71333333D01*
X107454819Y-71333333D02*
X107454819Y-71428571D01*
X107454819Y-71428571D02*
X107407200Y-71571428D01*
X107407200Y-71571428D02*
X107311961Y-71666666D01*
X107311961Y-71666666D02*
X107216723Y-71714285D01*
X107216723Y-71714285D02*
X107026247Y-71761904D01*
X107026247Y-71761904D02*
X106883390Y-71761904D01*
X106883390Y-71761904D02*
X106692914Y-71714285D01*
X106692914Y-71714285D02*
X106597676Y-71666666D01*
X106597676Y-71666666D02*
X106502438Y-71571428D01*
X106502438Y-71571428D02*
X106454819Y-71428571D01*
X106454819Y-71428571D02*
X106454819Y-71333333D01*
X106454819Y-71333333D02*
X106502438Y-71190476D01*
X106502438Y-71190476D02*
X106550057Y-71142857D01*
X107454819Y-70190476D02*
X107454819Y-70761904D01*
X107454819Y-70476190D02*
X106454819Y-70476190D01*
X106454819Y-70476190D02*
X106597676Y-70571428D01*
X106597676Y-70571428D02*
X106692914Y-70666666D01*
X106692914Y-70666666D02*
X106740533Y-70761904D01*
X106883390Y-69619047D02*
X106835771Y-69714285D01*
X106835771Y-69714285D02*
X106788152Y-69761904D01*
X106788152Y-69761904D02*
X106692914Y-69809523D01*
X106692914Y-69809523D02*
X106645295Y-69809523D01*
X106645295Y-69809523D02*
X106550057Y-69761904D01*
X106550057Y-69761904D02*
X106502438Y-69714285D01*
X106502438Y-69714285D02*
X106454819Y-69619047D01*
X106454819Y-69619047D02*
X106454819Y-69428571D01*
X106454819Y-69428571D02*
X106502438Y-69333333D01*
X106502438Y-69333333D02*
X106550057Y-69285714D01*
X106550057Y-69285714D02*
X106645295Y-69238095D01*
X106645295Y-69238095D02*
X106692914Y-69238095D01*
X106692914Y-69238095D02*
X106788152Y-69285714D01*
X106788152Y-69285714D02*
X106835771Y-69333333D01*
X106835771Y-69333333D02*
X106883390Y-69428571D01*
X106883390Y-69428571D02*
X106883390Y-69619047D01*
X106883390Y-69619047D02*
X106931009Y-69714285D01*
X106931009Y-69714285D02*
X106978628Y-69761904D01*
X106978628Y-69761904D02*
X107073866Y-69809523D01*
X107073866Y-69809523D02*
X107264342Y-69809523D01*
X107264342Y-69809523D02*
X107359580Y-69761904D01*
X107359580Y-69761904D02*
X107407200Y-69714285D01*
X107407200Y-69714285D02*
X107454819Y-69619047D01*
X107454819Y-69619047D02*
X107454819Y-69428571D01*
X107454819Y-69428571D02*
X107407200Y-69333333D01*
X107407200Y-69333333D02*
X107359580Y-69285714D01*
X107359580Y-69285714D02*
X107264342Y-69238095D01*
X107264342Y-69238095D02*
X107073866Y-69238095D01*
X107073866Y-69238095D02*
X106978628Y-69285714D01*
X106978628Y-69285714D02*
X106931009Y-69333333D01*
X106931009Y-69333333D02*
X106883390Y-69428571D01*
X113326009Y-76733333D02*
X113326009Y-77066666D01*
X113849819Y-77066666D02*
X112849819Y-77066666D01*
X112849819Y-77066666D02*
X112849819Y-76590476D01*
X113849819Y-75685714D02*
X113849819Y-76257142D01*
X113849819Y-75971428D02*
X112849819Y-75971428D01*
X112849819Y-75971428D02*
X112992676Y-76066666D01*
X112992676Y-76066666D02*
X113087914Y-76161904D01*
X113087914Y-76161904D02*
X113135533Y-76257142D01*
X114706009Y-76895833D02*
X114706009Y-77229166D01*
X115229819Y-77229166D02*
X114229819Y-77229166D01*
X114229819Y-77229166D02*
X114229819Y-76752976D01*
X114706009Y-76038690D02*
X114753628Y-75895833D01*
X114753628Y-75895833D02*
X114801247Y-75848214D01*
X114801247Y-75848214D02*
X114896485Y-75800595D01*
X114896485Y-75800595D02*
X115039342Y-75800595D01*
X115039342Y-75800595D02*
X115134580Y-75848214D01*
X115134580Y-75848214D02*
X115182200Y-75895833D01*
X115182200Y-75895833D02*
X115229819Y-75991071D01*
X115229819Y-75991071D02*
X115229819Y-76372023D01*
X115229819Y-76372023D02*
X114229819Y-76372023D01*
X114229819Y-76372023D02*
X114229819Y-76038690D01*
X114229819Y-76038690D02*
X114277438Y-75943452D01*
X114277438Y-75943452D02*
X114325057Y-75895833D01*
X114325057Y-75895833D02*
X114420295Y-75848214D01*
X114420295Y-75848214D02*
X114515533Y-75848214D01*
X114515533Y-75848214D02*
X114610771Y-75895833D01*
X114610771Y-75895833D02*
X114658390Y-75943452D01*
X114658390Y-75943452D02*
X114706009Y-76038690D01*
X114706009Y-76038690D02*
X114706009Y-76372023D01*
X115229819Y-74848214D02*
X115229819Y-75419642D01*
X115229819Y-75133928D02*
X114229819Y-75133928D01*
X114229819Y-75133928D02*
X114372676Y-75229166D01*
X114372676Y-75229166D02*
X114467914Y-75324404D01*
X114467914Y-75324404D02*
X114515533Y-75419642D01*
%TO.C,J4*%
D12*
X105850000Y-71200000D02*
G75*
G02*
X105850000Y-71000000I0J100000D01*
G01*
X105850000Y-71000000D02*
G75*
G02*
X105850000Y-71200000I0J-100000D01*
G01*
D13*
X105850000Y-71000000D02*
X105849999Y-71000000D01*
X105849999Y-71000000D01*
X105849999Y-71000000D01*
X105849999Y-71000000D01*
X105849999Y-71000000D01*
X105849999Y-71000000D01*
X105849999Y-71000000D01*
X105849999Y-70999999D01*
X105849999Y-70999999D01*
X105849999Y-70999999D01*
X105849999Y-70999999D01*
X105849999Y-70999999D01*
X105850000Y-70999999D01*
X105850000Y-70999999D01*
X105850000Y-70999999D01*
X105850000Y-70999999D01*
X105850000Y-70999999D01*
X105850000Y-70999999D01*
X105850000Y-70999999D01*
X105850000Y-70999999D01*
X105850000Y-70999999D01*
X105850000Y-70999999D01*
X105850000Y-70999999D01*
X105850000Y-70999999D01*
X105850001Y-70999999D01*
X105850001Y-70999999D01*
X105850001Y-70999999D01*
X105850001Y-70999999D01*
X105850001Y-70999999D01*
X105850001Y-70999999D01*
X105850001Y-71000000D01*
X105850001Y-71000000D01*
X105850001Y-71000000D01*
X105850001Y-71000000D01*
X105850001Y-71000000D01*
X105850001Y-71000000D01*
X105850001Y-71000000D01*
X105850000Y-71000000D01*
X105850000Y-71000000D02*
X105850001Y-71000000D01*
X105850001Y-71000000D01*
X105850001Y-71000000D01*
X105850001Y-71000000D01*
X105850001Y-71000000D01*
X105850001Y-71000000D01*
X105850001Y-71000001D01*
X105850001Y-71000001D01*
X105850001Y-71000001D01*
X105850001Y-71000001D01*
X105850001Y-71000001D01*
X105850001Y-71000001D01*
X105850001Y-71000001D01*
X105850000Y-71000001D01*
X105850000Y-71000001D01*
X105850000Y-71000001D01*
X105850000Y-71000001D01*
X105850000Y-71000001D01*
X105850000Y-71000001D01*
X105850000Y-71000001D01*
X105850000Y-71000001D01*
X105850000Y-71000001D01*
X105850000Y-71000001D01*
X105850000Y-71000001D01*
X105850000Y-71000001D01*
X105849999Y-71000001D01*
X105849999Y-71000001D01*
X105849999Y-71000001D01*
X105849999Y-71000001D01*
X105849999Y-71000001D01*
X105849999Y-71000001D01*
X105849999Y-71000000D01*
X105849999Y-71000000D01*
X105849999Y-71000000D01*
X105849999Y-71000000D01*
X105849999Y-71000000D01*
X105849999Y-71000000D01*
X105850000Y-71000000D01*
D12*
D13*
X105850000Y-71200000D02*
X105849999Y-71200000D01*
X105849999Y-71200000D01*
X105849999Y-71200000D01*
X105849999Y-71200000D01*
X105849999Y-71200000D01*
X105849999Y-71200000D01*
X105849999Y-71200000D01*
X105849999Y-71199999D01*
X105849999Y-71199999D01*
X105849999Y-71199999D01*
X105849999Y-71199999D01*
X105849999Y-71199999D01*
X105850000Y-71199999D01*
X105850000Y-71199999D01*
X105850000Y-71199999D01*
X105850000Y-71199999D01*
X105850000Y-71199999D01*
X105850000Y-71199999D01*
X105850000Y-71199999D01*
X105850000Y-71199999D01*
X105850000Y-71199999D01*
X105850000Y-71199999D01*
X105850000Y-71199999D01*
X105850000Y-71199999D01*
X105850001Y-71199999D01*
X105850001Y-71199999D01*
X105850001Y-71199999D01*
X105850001Y-71199999D01*
X105850001Y-71199999D01*
X105850001Y-71199999D01*
X105850001Y-71200000D01*
X105850001Y-71200000D01*
X105850001Y-71200000D01*
X105850001Y-71200000D01*
X105850001Y-71200000D01*
X105850001Y-71200000D01*
X105850001Y-71200000D01*
X105850000Y-71200000D01*
X105850000Y-71200000D02*
X105850001Y-71200000D01*
X105850001Y-71200000D01*
X105850001Y-71200000D01*
X105850001Y-71200000D01*
X105850001Y-71200000D01*
X105850001Y-71200000D01*
X105850001Y-71200001D01*
X105850001Y-71200001D01*
X105850001Y-71200001D01*
X105850001Y-71200001D01*
X105850001Y-71200001D01*
X105850001Y-71200001D01*
X105850001Y-71200001D01*
X105850000Y-71200001D01*
X105850000Y-71200001D01*
X105850000Y-71200001D01*
X105850000Y-71200001D01*
X105850000Y-71200001D01*
X105850000Y-71200001D01*
X105850000Y-71200001D01*
X105850000Y-71200001D01*
X105850000Y-71200001D01*
X105850000Y-71200001D01*
X105850000Y-71200001D01*
X105850000Y-71200001D01*
X105849999Y-71200001D01*
X105849999Y-71200001D01*
X105849999Y-71200001D01*
X105849999Y-71200001D01*
X105849999Y-71200001D01*
X105849999Y-71200001D01*
X105849999Y-71200000D01*
X105849999Y-71200000D01*
X105849999Y-71200000D01*
X105849999Y-71200000D01*
X105849999Y-71200000D01*
X105849999Y-71200000D01*
X105850000Y-71200000D01*
D12*
X105250000Y-66500000D02*
X105250000Y-72500000D01*
X100750000Y-66500000D02*
X105250000Y-66500000D01*
X100750000Y-72500000D02*
X100750000Y-66500000D01*
X105250000Y-72500000D02*
X100750000Y-72500000D01*
%TO.C,J3*%
D14*
X115165000Y-65840000D02*
X115165000Y-66390000D01*
X115165000Y-68610000D02*
X115165000Y-70360000D01*
X115165000Y-70360000D02*
X116615000Y-70360000D01*
X118735000Y-70360000D02*
X118735000Y-71250000D01*
X120185000Y-65840000D02*
X115165000Y-65840000D01*
X120185000Y-66390000D02*
X120185000Y-65840000D01*
X120185000Y-68610000D02*
X120185000Y-70360000D01*
X120185000Y-70360000D02*
X118735000Y-70360000D01*
%TO.C,U2*%
X104510000Y-79040000D02*
X104030000Y-79040000D01*
X104270000Y-78710000D01*
X104510000Y-79040000D01*
G36*
X104510000Y-79040000D02*
G01*
X104030000Y-79040000D01*
X104270000Y-78710000D01*
X104510000Y-79040000D01*
G37*
X103720000Y-78860000D02*
X101140000Y-78860000D01*
X101140000Y-77880000D02*
X101140000Y-78860000D01*
X101140000Y-75120000D02*
X101140000Y-74140000D01*
X101140000Y-74140000D02*
X103860000Y-74140000D01*
%TO.C,J1*%
D12*
D13*
X94700000Y-73150000D02*
X94699999Y-73150000D01*
X94699999Y-73150000D01*
X94699999Y-73150000D01*
X94699999Y-73150000D01*
X94699999Y-73150000D01*
X94699999Y-73150000D01*
X94699999Y-73150000D01*
X94699999Y-73149999D01*
X94699999Y-73149999D01*
X94699999Y-73149999D01*
X94699999Y-73149999D01*
X94699999Y-73149999D01*
X94700000Y-73149999D01*
X94700000Y-73149999D01*
X94700000Y-73149999D01*
X94700000Y-73149999D01*
X94700000Y-73149999D01*
X94700000Y-73149999D01*
X94700000Y-73149999D01*
X94700000Y-73149999D01*
X94700000Y-73149999D01*
X94700000Y-73149999D01*
X94700000Y-73149999D01*
X94700000Y-73149999D01*
X94700001Y-73149999D01*
X94700001Y-73149999D01*
X94700001Y-73149999D01*
X94700001Y-73149999D01*
X94700001Y-73149999D01*
X94700001Y-73149999D01*
X94700001Y-73150000D01*
X94700001Y-73150000D01*
X94700001Y-73150000D01*
X94700001Y-73150000D01*
X94700001Y-73150000D01*
X94700001Y-73150000D01*
X94700001Y-73150000D01*
X94700000Y-73150000D01*
X94700000Y-73150000D02*
X94700001Y-73150000D01*
X94700001Y-73150000D01*
X94700001Y-73150000D01*
X94700001Y-73150000D01*
X94700001Y-73150000D01*
X94700001Y-73150000D01*
X94700001Y-73150001D01*
X94700001Y-73150001D01*
X94700001Y-73150001D01*
X94700001Y-73150001D01*
X94700001Y-73150001D01*
X94700001Y-73150001D01*
X94700001Y-73150001D01*
X94700000Y-73150001D01*
X94700000Y-73150001D01*
X94700000Y-73150001D01*
X94700000Y-73150001D01*
X94700000Y-73150001D01*
X94700000Y-73150001D01*
X94700000Y-73150001D01*
X94700000Y-73150001D01*
X94700000Y-73150001D01*
X94700000Y-73150001D01*
X94700000Y-73150001D01*
X94700000Y-73150001D01*
X94699999Y-73150001D01*
X94699999Y-73150001D01*
X94699999Y-73150001D01*
X94699999Y-73150001D01*
X94699999Y-73150001D01*
X94699999Y-73150001D01*
X94699999Y-73150000D01*
X94699999Y-73150000D01*
X94699999Y-73150000D01*
X94699999Y-73150000D01*
X94699999Y-73150000D01*
X94699999Y-73150000D01*
X94700000Y-73150000D01*
D12*
D13*
X94500000Y-73150000D02*
X94499999Y-73150000D01*
X94499999Y-73150000D01*
X94499999Y-73150000D01*
X94499999Y-73150000D01*
X94499999Y-73150000D01*
X94499999Y-73150000D01*
X94499999Y-73150000D01*
X94499999Y-73149999D01*
X94499999Y-73149999D01*
X94499999Y-73149999D01*
X94499999Y-73149999D01*
X94499999Y-73149999D01*
X94500000Y-73149999D01*
X94500000Y-73149999D01*
X94500000Y-73149999D01*
X94500000Y-73149999D01*
X94500000Y-73149999D01*
X94500000Y-73149999D01*
X94500000Y-73149999D01*
X94500000Y-73149999D01*
X94500000Y-73149999D01*
X94500000Y-73149999D01*
X94500000Y-73149999D01*
X94500000Y-73149999D01*
X94500001Y-73149999D01*
X94500001Y-73149999D01*
X94500001Y-73149999D01*
X94500001Y-73149999D01*
X94500001Y-73149999D01*
X94500001Y-73149999D01*
X94500001Y-73150000D01*
X94500001Y-73150000D01*
X94500001Y-73150000D01*
X94500001Y-73150000D01*
X94500001Y-73150000D01*
X94500001Y-73150000D01*
X94500001Y-73150000D01*
X94500000Y-73150000D01*
X94500000Y-73150000D02*
X94500001Y-73150000D01*
X94500001Y-73150000D01*
X94500001Y-73150000D01*
X94500001Y-73150000D01*
X94500001Y-73150000D01*
X94500001Y-73150000D01*
X94500001Y-73150001D01*
X94500001Y-73150001D01*
X94500001Y-73150001D01*
X94500001Y-73150001D01*
X94500001Y-73150001D01*
X94500001Y-73150001D01*
X94500001Y-73150001D01*
X94500000Y-73150001D01*
X94500000Y-73150001D01*
X94500000Y-73150001D01*
X94500000Y-73150001D01*
X94500000Y-73150001D01*
X94500000Y-73150001D01*
X94500000Y-73150001D01*
X94500000Y-73150001D01*
X94500000Y-73150001D01*
X94500000Y-73150001D01*
X94500000Y-73150001D01*
X94500000Y-73150001D01*
X94499999Y-73150001D01*
X94499999Y-73150001D01*
X94499999Y-73150001D01*
X94499999Y-73150001D01*
X94499999Y-73150001D01*
X94499999Y-73150001D01*
X94499999Y-73150000D01*
X94499999Y-73150000D01*
X94499999Y-73150000D01*
X94499999Y-73150000D01*
X94499999Y-73150000D01*
X94499999Y-73150000D01*
X94500000Y-73150000D01*
D12*
X96000000Y-73750000D02*
X96000000Y-78250000D01*
X90000000Y-73750000D02*
X96000000Y-73750000D01*
X96000000Y-78250000D02*
X90000000Y-78250000D01*
X90000000Y-78250000D02*
X90000000Y-73750000D01*
X94700000Y-73150000D02*
G75*
G02*
X94500000Y-73150000I-100000J0D01*
G01*
X94500000Y-73150000D02*
G75*
G02*
X94700000Y-73150000I100000J0D01*
G01*
%TO.C,C3*%
D14*
X108140581Y-78510001D02*
X107859419Y-78510001D01*
X108140581Y-77490001D02*
X107859419Y-77490001D01*
%TO.C,U1*%
X116665000Y-74452500D02*
X116715000Y-74452500D01*
X116665000Y-76272500D02*
X116665000Y-74452500D01*
X116715000Y-76272500D02*
X116665000Y-76272500D01*
X119735000Y-74452500D02*
X119785000Y-74452500D01*
X119785000Y-74452500D02*
X119785000Y-76272500D01*
X119785000Y-76272500D02*
X119735000Y-76272500D01*
X116715000Y-76812500D02*
X116385000Y-77052500D01*
X116385000Y-76572500D01*
X116715000Y-76812500D01*
G36*
X116715000Y-76812500D02*
G01*
X116385000Y-77052500D01*
X116385000Y-76572500D01*
X116715000Y-76812500D01*
G37*
%TO.C,D1*%
D12*
X110350000Y-74875000D02*
X110350000Y-76475000D01*
X111650000Y-73950000D02*
X111650000Y-76475000D01*
%TO.C,J5*%
D13*
X94600000Y-80400000D02*
X94599999Y-80400000D01*
X94599999Y-80400000D01*
X94599999Y-80400000D01*
X94599999Y-80400000D01*
X94599999Y-80400000D01*
X94599999Y-80400000D01*
X94599999Y-80400000D01*
X94599999Y-80399999D01*
X94599999Y-80399999D01*
X94599999Y-80399999D01*
X94599999Y-80399999D01*
X94599999Y-80399999D01*
X94600000Y-80399999D01*
X94600000Y-80399999D01*
X94600000Y-80399999D01*
X94600000Y-80399999D01*
X94600000Y-80399999D01*
X94600000Y-80399999D01*
X94600000Y-80399999D01*
X94600000Y-80399999D01*
X94600000Y-80399999D01*
X94600000Y-80399999D01*
X94600000Y-80399999D01*
X94600000Y-80399999D01*
X94600001Y-80399999D01*
X94600001Y-80399999D01*
X94600001Y-80399999D01*
X94600001Y-80399999D01*
X94600001Y-80399999D01*
X94600001Y-80399999D01*
X94600001Y-80400000D01*
X94600001Y-80400000D01*
X94600001Y-80400000D01*
X94600001Y-80400000D01*
X94600001Y-80400000D01*
X94600001Y-80400000D01*
X94600001Y-80400000D01*
X94600000Y-80400000D01*
X94600000Y-80400000D02*
X94600001Y-80400000D01*
X94600001Y-80400000D01*
X94600001Y-80400000D01*
X94600001Y-80400000D01*
X94600001Y-80400000D01*
X94600001Y-80400000D01*
X94600001Y-80400001D01*
X94600001Y-80400001D01*
X94600001Y-80400001D01*
X94600001Y-80400001D01*
X94600001Y-80400001D01*
X94600001Y-80400001D01*
X94600001Y-80400001D01*
X94600000Y-80400001D01*
X94600000Y-80400001D01*
X94600000Y-80400001D01*
X94600000Y-80400001D01*
X94600000Y-80400001D01*
X94600000Y-80400001D01*
X94600000Y-80400001D01*
X94600000Y-80400001D01*
X94600000Y-80400001D01*
X94600000Y-80400001D01*
X94600000Y-80400001D01*
X94600000Y-80400001D01*
X94599999Y-80400001D01*
X94599999Y-80400001D01*
X94599999Y-80400001D01*
X94599999Y-80400001D01*
X94599999Y-80400001D01*
X94599999Y-80400001D01*
X94599999Y-80400000D01*
X94599999Y-80400000D01*
X94599999Y-80400000D01*
X94599999Y-80400000D01*
X94599999Y-80400000D01*
X94599999Y-80400000D01*
X94600000Y-80400000D01*
D12*
D13*
X94400000Y-80400000D02*
X94399999Y-80400000D01*
X94399999Y-80400000D01*
X94399999Y-80400000D01*
X94399999Y-80400000D01*
X94399999Y-80400000D01*
X94399999Y-80400000D01*
X94399999Y-80400000D01*
X94399999Y-80399999D01*
X94399999Y-80399999D01*
X94399999Y-80399999D01*
X94399999Y-80399999D01*
X94399999Y-80399999D01*
X94400000Y-80399999D01*
X94400000Y-80399999D01*
X94400000Y-80399999D01*
X94400000Y-80399999D01*
X94400000Y-80399999D01*
X94400000Y-80399999D01*
X94400000Y-80399999D01*
X94400000Y-80399999D01*
X94400000Y-80399999D01*
X94400000Y-80399999D01*
X94400000Y-80399999D01*
X94400000Y-80399999D01*
X94400001Y-80399999D01*
X94400001Y-80399999D01*
X94400001Y-80399999D01*
X94400001Y-80399999D01*
X94400001Y-80399999D01*
X94400001Y-80399999D01*
X94400001Y-80400000D01*
X94400001Y-80400000D01*
X94400001Y-80400000D01*
X94400001Y-80400000D01*
X94400001Y-80400000D01*
X94400001Y-80400000D01*
X94400001Y-80400000D01*
X94400000Y-80400000D01*
X94400000Y-80400000D02*
X94400001Y-80400000D01*
X94400001Y-80400000D01*
X94400001Y-80400000D01*
X94400001Y-80400000D01*
X94400001Y-80400000D01*
X94400001Y-80400000D01*
X94400001Y-80400001D01*
X94400001Y-80400001D01*
X94400001Y-80400001D01*
X94400001Y-80400001D01*
X94400001Y-80400001D01*
X94400001Y-80400001D01*
X94400001Y-80400001D01*
X94400000Y-80400001D01*
X94400000Y-80400001D01*
X94400000Y-80400001D01*
X94400000Y-80400001D01*
X94400000Y-80400001D01*
X94400000Y-80400001D01*
X94400000Y-80400001D01*
X94400000Y-80400001D01*
X94400000Y-80400001D01*
X94400000Y-80400001D01*
X94400000Y-80400001D01*
X94400000Y-80400001D01*
X94399999Y-80400001D01*
X94399999Y-80400001D01*
X94399999Y-80400001D01*
X94399999Y-80400001D01*
X94399999Y-80400001D01*
X94399999Y-80400001D01*
X94399999Y-80400000D01*
X94399999Y-80400000D01*
X94399999Y-80400000D01*
X94399999Y-80400000D01*
X94399999Y-80400000D01*
X94399999Y-80400000D01*
X94400000Y-80400000D01*
D12*
X95900000Y-81000000D02*
X95900000Y-85500000D01*
X89900000Y-81000000D02*
X95900000Y-81000000D01*
X95900000Y-85500000D02*
X89900000Y-85500000D01*
X89900000Y-85500000D02*
X89900000Y-81000000D01*
X94600000Y-80400000D02*
G75*
G02*
X94400000Y-80400000I-100000J0D01*
G01*
X94400000Y-80400000D02*
G75*
G02*
X94600000Y-80400000I100000J0D01*
G01*
%TO.C,J2*%
X90000000Y-71250000D02*
X90000000Y-66750000D01*
X96000000Y-71250000D02*
X90000000Y-71250000D01*
X90000000Y-66750000D02*
X96000000Y-66750000D01*
X96000000Y-66750000D02*
X96000000Y-71250000D01*
D13*
X94500000Y-66150000D02*
X94499999Y-66150000D01*
X94499999Y-66150000D01*
X94499999Y-66150000D01*
X94499999Y-66150000D01*
X94499999Y-66150000D01*
X94499999Y-66150000D01*
X94499999Y-66150000D01*
X94499999Y-66149999D01*
X94499999Y-66149999D01*
X94499999Y-66149999D01*
X94499999Y-66149999D01*
X94499999Y-66149999D01*
X94500000Y-66149999D01*
X94500000Y-66149999D01*
X94500000Y-66149999D01*
X94500000Y-66149999D01*
X94500000Y-66149999D01*
X94500000Y-66149999D01*
X94500000Y-66149999D01*
X94500000Y-66149999D01*
X94500000Y-66149999D01*
X94500000Y-66149999D01*
X94500000Y-66149999D01*
X94500000Y-66149999D01*
X94500001Y-66149999D01*
X94500001Y-66149999D01*
X94500001Y-66149999D01*
X94500001Y-66149999D01*
X94500001Y-66149999D01*
X94500001Y-66149999D01*
X94500001Y-66150000D01*
X94500001Y-66150000D01*
X94500001Y-66150000D01*
X94500001Y-66150000D01*
X94500001Y-66150000D01*
X94500001Y-66150000D01*
X94500001Y-66150000D01*
X94500000Y-66150000D01*
X94500000Y-66150000D02*
X94500001Y-66150000D01*
X94500001Y-66150000D01*
X94500001Y-66150000D01*
X94500001Y-66150000D01*
X94500001Y-66150000D01*
X94500001Y-66150000D01*
X94500001Y-66150001D01*
X94500001Y-66150001D01*
X94500001Y-66150001D01*
X94500001Y-66150001D01*
X94500001Y-66150001D01*
X94500001Y-66150001D01*
X94500001Y-66150001D01*
X94500000Y-66150001D01*
X94500000Y-66150001D01*
X94500000Y-66150001D01*
X94500000Y-66150001D01*
X94500000Y-66150001D01*
X94500000Y-66150001D01*
X94500000Y-66150001D01*
X94500000Y-66150001D01*
X94500000Y-66150001D01*
X94500000Y-66150001D01*
X94500000Y-66150001D01*
X94500000Y-66150001D01*
X94499999Y-66150001D01*
X94499999Y-66150001D01*
X94499999Y-66150001D01*
X94499999Y-66150001D01*
X94499999Y-66150001D01*
X94499999Y-66150001D01*
X94499999Y-66150000D01*
X94499999Y-66150000D01*
X94499999Y-66150000D01*
X94499999Y-66150000D01*
X94499999Y-66150000D01*
X94499999Y-66150000D01*
X94500000Y-66150000D01*
D12*
D13*
X94700000Y-66150000D02*
X94699999Y-66150000D01*
X94699999Y-66150000D01*
X94699999Y-66150000D01*
X94699999Y-66150000D01*
X94699999Y-66150000D01*
X94699999Y-66150000D01*
X94699999Y-66150000D01*
X94699999Y-66149999D01*
X94699999Y-66149999D01*
X94699999Y-66149999D01*
X94699999Y-66149999D01*
X94699999Y-66149999D01*
X94700000Y-66149999D01*
X94700000Y-66149999D01*
X94700000Y-66149999D01*
X94700000Y-66149999D01*
X94700000Y-66149999D01*
X94700000Y-66149999D01*
X94700000Y-66149999D01*
X94700000Y-66149999D01*
X94700000Y-66149999D01*
X94700000Y-66149999D01*
X94700000Y-66149999D01*
X94700000Y-66149999D01*
X94700001Y-66149999D01*
X94700001Y-66149999D01*
X94700001Y-66149999D01*
X94700001Y-66149999D01*
X94700001Y-66149999D01*
X94700001Y-66149999D01*
X94700001Y-66150000D01*
X94700001Y-66150000D01*
X94700001Y-66150000D01*
X94700001Y-66150000D01*
X94700001Y-66150000D01*
X94700001Y-66150000D01*
X94700001Y-66150000D01*
X94700000Y-66150000D01*
X94700000Y-66150000D02*
X94700001Y-66150000D01*
X94700001Y-66150000D01*
X94700001Y-66150000D01*
X94700001Y-66150000D01*
X94700001Y-66150000D01*
X94700001Y-66150000D01*
X94700001Y-66150001D01*
X94700001Y-66150001D01*
X94700001Y-66150001D01*
X94700001Y-66150001D01*
X94700001Y-66150001D01*
X94700001Y-66150001D01*
X94700001Y-66150001D01*
X94700000Y-66150001D01*
X94700000Y-66150001D01*
X94700000Y-66150001D01*
X94700000Y-66150001D01*
X94700000Y-66150001D01*
X94700000Y-66150001D01*
X94700000Y-66150001D01*
X94700000Y-66150001D01*
X94700000Y-66150001D01*
X94700000Y-66150001D01*
X94700000Y-66150001D01*
X94700000Y-66150001D01*
X94699999Y-66150001D01*
X94699999Y-66150001D01*
X94699999Y-66150001D01*
X94699999Y-66150001D01*
X94699999Y-66150001D01*
X94699999Y-66150001D01*
X94699999Y-66150000D01*
X94699999Y-66150000D01*
X94699999Y-66150000D01*
X94699999Y-66150000D01*
X94699999Y-66150000D01*
X94699999Y-66150000D01*
X94700000Y-66150000D01*
D12*
X94500000Y-66150000D02*
G75*
G02*
X94700000Y-66150000I100000J0D01*
G01*
X94700000Y-66150000D02*
G75*
G02*
X94500000Y-66150000I-100000J1D01*
G01*
%TO.C,C18*%
D14*
X99510000Y-77134420D02*
X99510000Y-77415582D01*
X98490000Y-77134420D02*
X98490000Y-77415582D01*
%TO.C,F1*%
X114315000Y-77002064D02*
X114315000Y-75797936D01*
X116135000Y-77002064D02*
X116135000Y-75797936D01*
%TO.C,FB1*%
X112665000Y-75662878D02*
X112665000Y-76462122D01*
X113785000Y-75662878D02*
X113785000Y-76462122D01*
%TO.C,C17*%
X108140581Y-80010000D02*
X107859419Y-80010000D01*
X108140581Y-78990000D02*
X107859419Y-78990000D01*
%TD*%
%LPC*%
D15*
%TO.C,J4*%
X102250000Y-71100000D03*
X103750000Y-71100000D03*
%TD*%
D16*
%TO.C,J3*%
X118175000Y-70625000D03*
X117175000Y-70625000D03*
D17*
X119625000Y-67500000D03*
X115725000Y-67500000D03*
%TD*%
D18*
%TO.C,U2*%
X104450000Y-75000000D03*
D19*
X104362500Y-76500000D03*
D18*
X104450000Y-78000000D03*
%TD*%
D15*
%TO.C,J1*%
X94600000Y-75250000D03*
X94600000Y-76750000D03*
%TD*%
D20*
%TO.C,C3*%
X108775000Y-78000001D03*
X107225000Y-78000001D03*
%TD*%
D21*
%TO.C,U1*%
X117275000Y-76500000D03*
X118225000Y-76500000D03*
X119175000Y-76500000D03*
X119175000Y-74225000D03*
X118225000Y-74225000D03*
X117275000Y-74225000D03*
%TD*%
D22*
%TO.C,D1*%
X111000000Y-74500000D03*
X111000000Y-76850000D03*
%TD*%
D15*
%TO.C,J5*%
X94500000Y-82500000D03*
X94500000Y-84000000D03*
%TD*%
%TO.C,J2*%
X94600000Y-68250000D03*
X94600000Y-69750000D03*
%TD*%
D23*
%TO.C,C18*%
X99000000Y-76500001D03*
X99000000Y-78050001D03*
%TD*%
D24*
%TO.C,J9*%
X111835000Y-83700000D03*
X117615000Y-83700000D03*
D25*
X113475000Y-82500000D03*
X114475000Y-82500000D03*
X114975000Y-82500000D03*
X115975000Y-82500000D03*
D26*
X117125000Y-82500000D03*
X117925000Y-82500000D03*
D25*
X116475000Y-82500000D03*
X115475000Y-82500000D03*
X113975000Y-82500000D03*
X112975000Y-82500000D03*
D26*
X112325000Y-82500000D03*
X111525000Y-82500000D03*
D27*
X110395000Y-83180000D03*
D28*
X110395000Y-87380000D03*
D29*
X112725000Y-86000000D03*
X112725000Y-88000000D03*
D30*
X114725000Y-87000000D03*
D29*
X116725000Y-86000000D03*
X116725000Y-88000000D03*
D27*
X119055000Y-83180000D03*
D28*
X119055000Y-87380000D03*
%TD*%
D31*
%TO.C,F1*%
X115225000Y-77800000D03*
X115225000Y-75000000D03*
%TD*%
D32*
%TO.C,FB1*%
X113225000Y-75000000D03*
X113225000Y-77125000D03*
%TD*%
D20*
%TO.C,C17*%
X108775000Y-79500000D03*
X107225000Y-79500000D03*
%TD*%
%LPD*%
M02*
