%TF.GenerationSoftware,KiCad,Pcbnew,9.0.7*%
%TF.CreationDate,2026-04-29T20:37:40+02:00*%
%TF.ProjectId,usbC,75736243-2e6b-4696-9361-645f70636258,rev?*%
%TF.SameCoordinates,Original*%
%TF.FileFunction,Copper,L1,Top*%
%TF.FilePolarity,Positive*%
%FSLAX46Y46*%
G04 Gerber Fmt 4.6, Leading zero omitted, Abs format (unit mm)*
G04 Created by KiCad (PCBNEW 9.0.7) date 2026-04-29 20:37:40*
%MOMM*%
%LPD*%
G01*
G04 APERTURE LIST*
G04 Aperture macros list*
%AMRoundRect*
0 Rectangle with rounded corners*
0 $1 Rounding radius*
0 $2 $3 $4 $5 $6 $7 $8 $9 X,Y pos of 4 corners*
0 Add a 4 corners polygon primitive as box body*
4,1,4,$2,$3,$4,$5,$6,$7,$8,$9,$2,$3,0*
0 Add four circle primitives for the rounded corners*
1,1,$1+$1,$2,$3*
1,1,$1+$1,$4,$5*
1,1,$1+$1,$6,$7*
1,1,$1+$1,$8,$9*
0 Add four rect primitives between the rounded corners*
20,1,$1+$1,$2,$3,$4,$5,0*
20,1,$1+$1,$4,$5,$6,$7,0*
20,1,$1+$1,$6,$7,$8,$9,0*
20,1,$1+$1,$8,$9,$2,$3,0*%
%AMFreePoly0*
4,1,9,3.862500,-0.866500,0.737500,-0.866500,0.737500,-0.450000,-0.737500,-0.450000,-0.737500,0.450000,0.737500,0.450000,0.737500,0.866500,3.862500,0.866500,3.862500,-0.866500,3.862500,-0.866500,$1*%
G04 Aperture macros list end*
%TA.AperFunction,SMDPad,CuDef*%
%ADD10R,0.300000X1.400000*%
%TD*%
%TA.AperFunction,SMDPad,CuDef*%
%ADD11R,0.500000X1.400000*%
%TD*%
%TA.AperFunction,ComponentPad*%
%ADD12O,1.300000X2.300000*%
%TD*%
%TA.AperFunction,ComponentPad*%
%ADD13O,1.300000X2.100000*%
%TD*%
%TA.AperFunction,ComponentPad*%
%ADD14C,0.500000*%
%TD*%
%TA.AperFunction,SMDPad,CuDef*%
%ADD15RoundRect,0.500000X-2.000000X-1.000000X2.000000X-1.000000X2.000000X1.000000X-2.000000X1.000000X0*%
%TD*%
%TA.AperFunction,SMDPad,CuDef*%
%ADD16RoundRect,0.225000X-0.225000X-0.250000X0.225000X-0.250000X0.225000X0.250000X-0.225000X0.250000X0*%
%TD*%
%TA.AperFunction,SMDPad,CuDef*%
%ADD17RoundRect,0.150000X0.150000X-0.512500X0.150000X0.512500X-0.150000X0.512500X-0.150000X-0.512500X0*%
%TD*%
%TA.AperFunction,ComponentPad*%
%ADD18R,0.850000X0.850000*%
%TD*%
%TA.AperFunction,SMDPad,CuDef*%
%ADD19R,0.500000X1.100000*%
%TD*%
%TA.AperFunction,SMDPad,CuDef*%
%ADD20RoundRect,0.225000X0.425000X0.225000X-0.425000X0.225000X-0.425000X-0.225000X0.425000X-0.225000X0*%
%TD*%
%TA.AperFunction,SMDPad,CuDef*%
%ADD21FreePoly0,180.000000*%
%TD*%
%TA.AperFunction,ComponentPad*%
%ADD22C,1.100000*%
%TD*%
%TA.AperFunction,SMDPad,CuDef*%
%ADD23RoundRect,0.155000X-0.212500X-0.155000X0.212500X-0.155000X0.212500X0.155000X-0.212500X0.155000X0*%
%TD*%
%TA.AperFunction,SMDPad,CuDef*%
%ADD24RoundRect,0.225000X-0.250000X0.225000X-0.250000X-0.225000X0.250000X-0.225000X0.250000X0.225000X0*%
%TD*%
%TA.AperFunction,SMDPad,CuDef*%
%ADD25RoundRect,0.250000X0.625000X-0.375000X0.625000X0.375000X-0.625000X0.375000X-0.625000X-0.375000X0*%
%TD*%
%TA.AperFunction,SMDPad,CuDef*%
%ADD26RoundRect,0.218750X-0.381250X0.218750X-0.381250X-0.218750X0.381250X-0.218750X0.381250X0.218750X0*%
%TD*%
%TA.AperFunction,SMDPad,CuDef*%
%ADD27RoundRect,0.150000X0.150000X0.475000X-0.150000X0.475000X-0.150000X-0.475000X0.150000X-0.475000X0*%
%TD*%
%TA.AperFunction,SMDPad,CuDef*%
%ADD28RoundRect,0.225000X0.225000X0.625000X-0.225000X0.625000X-0.225000X-0.625000X0.225000X-0.625000X0*%
%TD*%
%TA.AperFunction,ViaPad*%
%ADD29C,0.604799*%
%TD*%
%TA.AperFunction,Conductor*%
%ADD30C,0.300000*%
%TD*%
%TA.AperFunction,Conductor*%
%ADD31C,0.500000*%
%TD*%
%TA.AperFunction,Conductor*%
%ADD32C,0.155814*%
%TD*%
%TA.AperFunction,Conductor*%
%ADD33C,0.152400*%
%TD*%
G04 APERTURE END LIST*
D10*
%TO.P,J9,A5,CC1*%
%TO.N,unconnected-(J9-CC1-PadA5)*%
X109250000Y-82500000D03*
%TO.P,J9,A6,D+*%
%TO.N,/D+*%
X110250000Y-82500000D03*
%TO.P,J9,A7,D-*%
%TO.N,/D-*%
X110750000Y-82500000D03*
%TO.P,J9,A8,SBU1*%
%TO.N,unconnected-(J9-SBU1-PadA8)*%
X111750000Y-82500000D03*
D11*
%TO.P,J9,A9B4,VBUS*%
%TO.N,Net-(F1-Pad1)*%
X112900000Y-82500000D03*
%TO.P,J9,A12B1,GND*%
%TO.N,GND*%
X113700000Y-82500000D03*
D10*
%TO.P,J9,B5,CC2*%
%TO.N,unconnected-(J9-CC2-PadB5)*%
X112250000Y-82500000D03*
%TO.P,J9,B6,D+*%
%TO.N,/D+*%
X111250000Y-82500000D03*
%TO.P,J9,B7,D-*%
%TO.N,/D-*%
X109750000Y-82500000D03*
%TO.P,J9,B8,SBU2*%
%TO.N,unconnected-(J9-SBU2-PadB8)*%
X108750000Y-82500000D03*
D11*
%TO.P,J9,B9A4,VBUS*%
%TO.N,Net-(F1-Pad1)*%
X108100000Y-82500000D03*
%TO.P,J9,B12A1,GND*%
%TO.N,GND*%
X107300000Y-82500000D03*
D12*
%TO.P,J9,S1,SHIELD*%
X106170000Y-83180000D03*
D13*
X106170000Y-87380000D03*
D14*
X108500000Y-86000000D03*
X108500000Y-88000000D03*
D15*
X110500000Y-87000000D03*
D14*
X112500000Y-86000000D03*
X112500000Y-88000000D03*
D12*
X114830000Y-83180000D03*
D13*
X114830000Y-87380000D03*
%TD*%
D16*
%TO.P,C3,1*%
%TO.N,+5V*%
X107500000Y-70500000D03*
%TO.P,C3,2*%
%TO.N,GND*%
X109050000Y-70500000D03*
%TD*%
D17*
%TO.P,U1,1,I/O1*%
%TO.N,/D-*%
X113050000Y-76500000D03*
%TO.P,U1,2,GND*%
%TO.N,GND*%
X114000000Y-76500000D03*
%TO.P,U1,3,I/O2*%
%TO.N,/D+*%
X114950000Y-76500000D03*
%TO.P,U1,4,I/O2*%
%TO.N,Net-(J3-Pin_1)*%
X114950000Y-74225000D03*
%TO.P,U1,5,VBUS*%
%TO.N,+5V*%
X114000000Y-74225000D03*
%TO.P,U1,6,I/O1*%
%TO.N,Net-(J3-Pin_2)*%
X113050000Y-74225000D03*
%TD*%
D18*
%TO.P,J4,1,Pin_1*%
%TO.N,GND*%
X91500000Y-76000000D03*
%TD*%
D19*
%TO.P,D1,1,K*%
%TO.N,+5V*%
X106500000Y-74500000D03*
%TO.P,D1,2,A*%
%TO.N,Net-(D1-A)*%
X106500000Y-76850000D03*
%TD*%
D20*
%TO.P,U2,1,GND*%
%TO.N,GND*%
X105450000Y-70500000D03*
D21*
%TO.P,U2,2,VO*%
%TO.N,VCC*%
X105362500Y-69000000D03*
D20*
%TO.P,U2,3,VI*%
%TO.N,+5V*%
X105450000Y-67500000D03*
%TD*%
D22*
%TO.P,J5,1,Pin_1*%
%TO.N,VCC*%
X99000000Y-76000000D03*
%TO.P,J5,2,Pin_2*%
%TO.N,GND*%
X100500000Y-76000000D03*
%TD*%
D18*
%TO.P,J7,1,Pin_1*%
%TO.N,GND*%
X91500000Y-79000000D03*
%TD*%
D22*
%TO.P,J2,1,Pin_1*%
%TO.N,VCC*%
X95500000Y-69000000D03*
%TO.P,J2,2,Pin_2*%
%TO.N,GND*%
X95500000Y-70500000D03*
%TD*%
D23*
%TO.P,C2,1*%
%TO.N,+5V*%
X107415000Y-69000000D03*
%TO.P,C2,2*%
%TO.N,GND*%
X108550000Y-69000000D03*
%TD*%
D24*
%TO.P,C18,1*%
%TO.N,VCC*%
X100500000Y-69000000D03*
%TO.P,C18,2*%
%TO.N,GND*%
X100500000Y-70550000D03*
%TD*%
D18*
%TO.P,J6,1,Pin_1*%
%TO.N,GND*%
X94500000Y-76000000D03*
%TD*%
D25*
%TO.P,F1,1*%
%TO.N,Net-(F1-Pad1)*%
X111000000Y-77800000D03*
%TO.P,F1,2*%
%TO.N,Net-(F1-Pad2)*%
X111000000Y-75000000D03*
%TD*%
D26*
%TO.P,FB1,1*%
%TO.N,Net-(F1-Pad2)*%
X109000000Y-75000000D03*
%TO.P,FB1,2*%
%TO.N,Net-(D1-A)*%
X109000000Y-77125000D03*
%TD*%
D27*
%TO.P,J3,1,Pin_1*%
%TO.N,Net-(J3-Pin_1)*%
X113950000Y-70625000D03*
%TO.P,J3,2,Pin_2*%
%TO.N,Net-(J3-Pin_2)*%
X112950000Y-70625000D03*
D28*
%TO.P,J3,MP*%
%TO.N,N/C*%
X115400000Y-67500000D03*
X111500000Y-67500000D03*
%TD*%
D16*
%TO.P,C17,1*%
%TO.N,+5V*%
X107500000Y-67500000D03*
%TO.P,C17,2*%
%TO.N,GND*%
X109050000Y-67500000D03*
%TD*%
D18*
%TO.P,J8,1,Pin_1*%
%TO.N,GND*%
X94500000Y-79000000D03*
%TD*%
D29*
%TO.N,/D+*%
X115000000Y-78500000D03*
%TO.N,/D-*%
X113000000Y-78500000D03*
X110500000Y-81000000D03*
%TO.N,/D+*%
X110500000Y-84000000D03*
%TO.N,GND*%
X116000000Y-85000000D03*
X95500000Y-74000000D03*
X110500000Y-70500000D03*
X104500000Y-83500000D03*
X105500000Y-72000000D03*
X93000000Y-77500000D03*
X110000000Y-69000000D03*
X114000000Y-78000000D03*
%TO.N,+5V*%
X109000000Y-73000000D03*
X114000000Y-72500000D03*
%TD*%
D30*
%TO.N,/D+*%
X111250000Y-83750000D02*
X111250000Y-82500000D01*
X111000000Y-84000000D02*
X111250000Y-83750000D01*
X110500000Y-84000000D02*
X111000000Y-84000000D01*
%TO.N,/D-*%
X109750000Y-81250000D02*
X109750000Y-82500000D01*
X110500000Y-81000000D02*
X110000000Y-81000000D01*
X110000000Y-81000000D02*
X109750000Y-81250000D01*
D31*
%TO.N,Net-(F1-Pad1)*%
X108100000Y-81400000D02*
X111000000Y-78500000D01*
X108100000Y-82500000D02*
X108100000Y-81400000D01*
X111000000Y-78500000D02*
X111000000Y-77800000D01*
X112900000Y-82500000D02*
X112900000Y-79700000D01*
X112900000Y-79700000D02*
X111000000Y-77800000D01*
D30*
%TO.N,/D+*%
X114950000Y-77950000D02*
X114950000Y-76500000D01*
D32*
X115000000Y-78000000D02*
X114950000Y-77950000D01*
D30*
X115000000Y-78500000D02*
X115000000Y-78000000D01*
%TO.N,/D-*%
X113050000Y-78450000D02*
X113050000Y-76500000D01*
D32*
X113000000Y-78500000D02*
X113050000Y-78450000D01*
D30*
X110750000Y-81250000D02*
X110500000Y-81000000D01*
X110750000Y-82500000D02*
X110750000Y-81250000D01*
%TO.N,/D+*%
X110250000Y-83750000D02*
X110500000Y-84000000D01*
X110250000Y-82500000D02*
X110250000Y-83750000D01*
D33*
%TO.N,GND*%
X106850000Y-82500000D02*
X106170000Y-83180000D01*
X107300000Y-82500000D02*
X106850000Y-82500000D01*
X114150000Y-82500000D02*
X114830000Y-83180000D01*
X113700000Y-82500000D02*
X114150000Y-82500000D01*
D31*
X116000000Y-85000000D02*
X116000000Y-84350000D01*
X115750000Y-85250000D02*
X116000000Y-85000000D01*
X116000000Y-84350000D02*
X114830000Y-83180000D01*
X114830000Y-86170000D02*
X115750000Y-85250000D01*
X114830000Y-87380000D02*
X114830000Y-86170000D01*
X110880000Y-87380000D02*
X110500000Y-87000000D01*
X114830000Y-87380000D02*
X110880000Y-87380000D01*
X106170000Y-87380000D02*
X110120000Y-87380000D01*
X110120000Y-87380000D02*
X110500000Y-87000000D01*
X105645000Y-86855000D02*
X106170000Y-87380000D01*
X104500000Y-85710000D02*
X105645000Y-86855000D01*
X104500000Y-83500000D02*
X104500000Y-85710000D01*
X104820000Y-83180000D02*
X104500000Y-83500000D01*
X106170000Y-83180000D02*
X104820000Y-83180000D01*
X109050000Y-70500000D02*
X109050000Y-69500000D01*
X91500000Y-79000000D02*
X93000000Y-77500000D01*
X109050000Y-69500000D02*
X108550000Y-69000000D01*
X94500000Y-79000000D02*
X91500000Y-79000000D01*
X109050000Y-70500000D02*
X110500000Y-70500000D01*
X114000000Y-78000000D02*
X114000000Y-76500000D01*
X91500000Y-76000000D02*
X94500000Y-76000000D01*
X91500000Y-79000000D02*
X91500000Y-76000000D01*
X95500000Y-70500000D02*
X95500000Y-74000000D01*
X100550000Y-70500000D02*
X100500000Y-70550000D01*
X108550000Y-69000000D02*
X110000000Y-69000000D01*
X108550000Y-68000000D02*
X109050000Y-67500000D01*
X108550000Y-69000000D02*
X108550000Y-68000000D01*
X94500000Y-76000000D02*
X94500000Y-79000000D01*
X105450000Y-70500000D02*
X105450000Y-71950000D01*
D33*
X105450000Y-71950000D02*
X105500000Y-72000000D01*
D31*
X100500000Y-70550000D02*
X100500000Y-75500000D01*
X105450000Y-70500000D02*
X100550000Y-70500000D01*
%TO.N,Net-(J3-Pin_2)*%
X113050000Y-74225000D02*
X113050000Y-73050000D01*
X112950000Y-72950000D02*
X112950000Y-70625000D01*
X113050000Y-73050000D02*
X112950000Y-72950000D01*
D33*
X113050000Y-70725000D02*
X112950000Y-70625000D01*
D31*
%TO.N,Net-(J3-Pin_1)*%
X114950000Y-74225000D02*
X114950000Y-71625000D01*
X114950000Y-71625000D02*
X113950000Y-70625000D01*
%TO.N,VCC*%
X100500000Y-69000000D02*
X99000000Y-69000000D01*
D33*
X100000000Y-69000000D02*
X100500000Y-69000000D01*
D31*
X99000000Y-69000000D02*
X99000000Y-75500000D01*
X99000000Y-69000000D02*
X95500000Y-69000000D01*
X105362500Y-69000000D02*
X100500000Y-69000000D01*
%TO.N,Net-(D1-A)*%
X106775000Y-77125000D02*
X106500000Y-76850000D01*
X109000000Y-77125000D02*
X106775000Y-77125000D01*
%TO.N,+5V*%
X106500000Y-74500000D02*
X106500000Y-74300000D01*
X114000000Y-74225000D02*
X114000000Y-72500000D01*
X107415000Y-69915000D02*
X107415000Y-69000000D01*
X107500000Y-70500000D02*
X107500000Y-70000000D01*
X107415000Y-69000000D02*
X107415000Y-67585000D01*
X109000000Y-73000000D02*
X107800000Y-73000000D01*
X105450000Y-67500000D02*
X107500000Y-67500000D01*
D33*
X107415000Y-67585000D02*
X107500000Y-67500000D01*
D31*
X107500000Y-70500000D02*
X107500000Y-73300000D01*
D33*
X107500000Y-70000000D02*
X107415000Y-69915000D01*
D31*
X107500000Y-73300000D02*
X107800000Y-73000000D01*
X106500000Y-74300000D02*
X107500000Y-73300000D01*
%TO.N,Net-(F1-Pad2)*%
X111000000Y-75000000D02*
X109000000Y-75000000D01*
%TD*%
%TA.AperFunction,Conductor*%
%TO.N,GND*%
G36*
X116443039Y-65519685D02*
G01*
X116488794Y-65572489D01*
X116500000Y-65624000D01*
X116500000Y-66474388D01*
X116480315Y-66541427D01*
X116427511Y-66587182D01*
X116358353Y-66597126D01*
X116294797Y-66568101D01*
X116270462Y-66539485D01*
X116197970Y-66421959D01*
X116197967Y-66421955D01*
X116078044Y-66302032D01*
X116078040Y-66302029D01*
X115933705Y-66213001D01*
X115933699Y-66212998D01*
X115933697Y-66212997D01*
X115933694Y-66212996D01*
X115772709Y-66159651D01*
X115673346Y-66149500D01*
X115126662Y-66149500D01*
X115126644Y-66149501D01*
X115027292Y-66159650D01*
X115027289Y-66159651D01*
X114866305Y-66212996D01*
X114866294Y-66213001D01*
X114721959Y-66302029D01*
X114721955Y-66302032D01*
X114602032Y-66421955D01*
X114602029Y-66421959D01*
X114513001Y-66566294D01*
X114512996Y-66566305D01*
X114459651Y-66727290D01*
X114449500Y-66826647D01*
X114449500Y-68173337D01*
X114449501Y-68173355D01*
X114459650Y-68272707D01*
X114459651Y-68272710D01*
X114512996Y-68433694D01*
X114513001Y-68433705D01*
X114602029Y-68578040D01*
X114602032Y-68578044D01*
X114721955Y-68697967D01*
X114721959Y-68697970D01*
X114866294Y-68786998D01*
X114866297Y-68786999D01*
X114866303Y-68787003D01*
X115027292Y-68840349D01*
X115126655Y-68850500D01*
X115673344Y-68850499D01*
X115673352Y-68850498D01*
X115673355Y-68850498D01*
X115727760Y-68844940D01*
X115772708Y-68840349D01*
X115933697Y-68787003D01*
X116078044Y-68697968D01*
X116197968Y-68578044D01*
X116270463Y-68460512D01*
X116322409Y-68413789D01*
X116391372Y-68402568D01*
X116455454Y-68430411D01*
X116494310Y-68488480D01*
X116500000Y-68525611D01*
X116500000Y-89376000D01*
X116480315Y-89443039D01*
X116427511Y-89488794D01*
X116376000Y-89500000D01*
X90124000Y-89500000D01*
X90056961Y-89480315D01*
X90011206Y-89427511D01*
X90000000Y-89376000D01*
X90000000Y-86889493D01*
X105020000Y-86889493D01*
X105020000Y-87130000D01*
X105920000Y-87130000D01*
X105920000Y-87630000D01*
X105020000Y-87630000D01*
X105020000Y-87870506D01*
X105048317Y-88049293D01*
X105104251Y-88221444D01*
X105104252Y-88221447D01*
X105186434Y-88382734D01*
X105292823Y-88529169D01*
X105420830Y-88657176D01*
X105567265Y-88763565D01*
X105728552Y-88845747D01*
X105728555Y-88845748D01*
X105900699Y-88901680D01*
X105900712Y-88901683D01*
X105920000Y-88904738D01*
X105920000Y-87829728D01*
X105958060Y-87921614D01*
X106028386Y-87991940D01*
X106120272Y-88030000D01*
X106219728Y-88030000D01*
X106311614Y-87991940D01*
X106381940Y-87921614D01*
X106420000Y-87829728D01*
X106420000Y-88904737D01*
X106439287Y-88901683D01*
X106439300Y-88901680D01*
X106611444Y-88845748D01*
X106611447Y-88845747D01*
X106772734Y-88763565D01*
X106919169Y-88657176D01*
X107047176Y-88529169D01*
X107153565Y-88382734D01*
X107221198Y-88250000D01*
X107791759Y-88250000D01*
X107835357Y-88355254D01*
X107835362Y-88355264D01*
X107917436Y-88478096D01*
X107917439Y-88478100D01*
X108021899Y-88582560D01*
X108021907Y-88582566D01*
X108144739Y-88664640D01*
X108144743Y-88664642D01*
X108249999Y-88708240D01*
X108250000Y-88708240D01*
X108750000Y-88708240D01*
X108855256Y-88664642D01*
X108855260Y-88664640D01*
X108978092Y-88582566D01*
X108978100Y-88582560D01*
X109082560Y-88478100D01*
X109082563Y-88478096D01*
X109164637Y-88355264D01*
X109164642Y-88355254D01*
X109208241Y-88250000D01*
X111791759Y-88250000D01*
X111835357Y-88355254D01*
X111835362Y-88355264D01*
X111917436Y-88478096D01*
X111917439Y-88478100D01*
X112021899Y-88582560D01*
X112021907Y-88582566D01*
X112144739Y-88664640D01*
X112144743Y-88664642D01*
X112249999Y-88708240D01*
X112250000Y-88708240D01*
X112750000Y-88708240D01*
X112855256Y-88664642D01*
X112855260Y-88664640D01*
X112978092Y-88582566D01*
X112978100Y-88582560D01*
X113082560Y-88478100D01*
X113082563Y-88478096D01*
X113164637Y-88355264D01*
X113164642Y-88355254D01*
X113208241Y-88250000D01*
X112750000Y-88250000D01*
X112750000Y-88708240D01*
X112250000Y-88708240D01*
X112250000Y-88250000D01*
X111791759Y-88250000D01*
X109208241Y-88250000D01*
X108750000Y-88250000D01*
X108750000Y-88708240D01*
X108250000Y-88708240D01*
X108250000Y-88250000D01*
X107791759Y-88250000D01*
X107221198Y-88250000D01*
X107235747Y-88221447D01*
X107235748Y-88221444D01*
X107243398Y-88197901D01*
X107291682Y-88049293D01*
X107304215Y-87970163D01*
X108350000Y-87970163D01*
X108350000Y-88029837D01*
X108372836Y-88084968D01*
X108415032Y-88127164D01*
X108470163Y-88150000D01*
X108529837Y-88150000D01*
X108584968Y-88127164D01*
X108627164Y-88084968D01*
X108650000Y-88029837D01*
X108650000Y-87970163D01*
X112350000Y-87970163D01*
X112350000Y-88029837D01*
X112372836Y-88084968D01*
X112415032Y-88127164D01*
X112470163Y-88150000D01*
X112529837Y-88150000D01*
X112584968Y-88127164D01*
X112627164Y-88084968D01*
X112650000Y-88029837D01*
X112650000Y-87970163D01*
X112627164Y-87915032D01*
X112584968Y-87872836D01*
X112529837Y-87850000D01*
X112470163Y-87850000D01*
X112415032Y-87872836D01*
X112372836Y-87915032D01*
X112350000Y-87970163D01*
X108650000Y-87970163D01*
X108627164Y-87915032D01*
X108584968Y-87872836D01*
X108529837Y-87850000D01*
X108470163Y-87850000D01*
X108415032Y-87872836D01*
X108372836Y-87915032D01*
X108350000Y-87970163D01*
X107304215Y-87970163D01*
X107320000Y-87870506D01*
X107320000Y-87749999D01*
X107791759Y-87749999D01*
X107791759Y-87750000D01*
X108250000Y-87750000D01*
X108750000Y-87750000D01*
X109208241Y-87750000D01*
X109208240Y-87749999D01*
X111791759Y-87749999D01*
X111791759Y-87750000D01*
X112250000Y-87750000D01*
X112750000Y-87750000D01*
X113208241Y-87750000D01*
X113208240Y-87749999D01*
X113164642Y-87644745D01*
X113164637Y-87644734D01*
X113082563Y-87521903D01*
X113082560Y-87521899D01*
X112978100Y-87417439D01*
X112978096Y-87417436D01*
X112855264Y-87335362D01*
X112855254Y-87335357D01*
X112750000Y-87291759D01*
X112750000Y-87750000D01*
X112250000Y-87750000D01*
X112250000Y-87291759D01*
X112249999Y-87291759D01*
X112144745Y-87335357D01*
X112144735Y-87335362D01*
X112021903Y-87417436D01*
X112021899Y-87417439D01*
X111917439Y-87521899D01*
X111917436Y-87521903D01*
X111835362Y-87644735D01*
X111835357Y-87644745D01*
X111791759Y-87749999D01*
X109208240Y-87749999D01*
X109164642Y-87644745D01*
X109164637Y-87644735D01*
X109082563Y-87521903D01*
X109082560Y-87521899D01*
X108978100Y-87417439D01*
X108978096Y-87417436D01*
X108855264Y-87335362D01*
X108855254Y-87335357D01*
X108750000Y-87291759D01*
X108750000Y-87750000D01*
X108250000Y-87750000D01*
X108250000Y-87291759D01*
X108249999Y-87291759D01*
X108144745Y-87335357D01*
X108144735Y-87335362D01*
X108021903Y-87417436D01*
X108021899Y-87417439D01*
X107917439Y-87521899D01*
X107917436Y-87521903D01*
X107835362Y-87644735D01*
X107835357Y-87644745D01*
X107791759Y-87749999D01*
X107320000Y-87749999D01*
X107320000Y-87630000D01*
X106420000Y-87630000D01*
X106420000Y-87130000D01*
X107320000Y-87130000D01*
X107320000Y-86889493D01*
X113680000Y-86889493D01*
X113680000Y-87130000D01*
X114580000Y-87130000D01*
X114580000Y-87630000D01*
X113680000Y-87630000D01*
X113680000Y-87870506D01*
X113708317Y-88049293D01*
X113764251Y-88221444D01*
X113764252Y-88221447D01*
X113846434Y-88382734D01*
X113952823Y-88529169D01*
X114080830Y-88657176D01*
X114227265Y-88763565D01*
X114388552Y-88845747D01*
X114388555Y-88845748D01*
X114560699Y-88901680D01*
X114560712Y-88901683D01*
X114580000Y-88904738D01*
X114580000Y-87829728D01*
X114618060Y-87921614D01*
X114688386Y-87991940D01*
X114780272Y-88030000D01*
X114879728Y-88030000D01*
X114971614Y-87991940D01*
X115041940Y-87921614D01*
X115080000Y-87829728D01*
X115080000Y-88904737D01*
X115099287Y-88901683D01*
X115099300Y-88901680D01*
X115271444Y-88845748D01*
X115271447Y-88845747D01*
X115432734Y-88763565D01*
X115579169Y-88657176D01*
X115707176Y-88529169D01*
X115813565Y-88382734D01*
X115895747Y-88221447D01*
X115895748Y-88221444D01*
X115951682Y-88049293D01*
X115980000Y-87870506D01*
X115980000Y-87630000D01*
X115080000Y-87630000D01*
X115080000Y-87130000D01*
X115980000Y-87130000D01*
X115980000Y-86889493D01*
X115951682Y-86710706D01*
X115895748Y-86538555D01*
X115895747Y-86538552D01*
X115813565Y-86377265D01*
X115707176Y-86230830D01*
X115579169Y-86102823D01*
X115432734Y-85996434D01*
X115271447Y-85914252D01*
X115271441Y-85914250D01*
X115099295Y-85858318D01*
X115099285Y-85858315D01*
X115080000Y-85855260D01*
X115080000Y-86930272D01*
X115041940Y-86838386D01*
X114971614Y-86768060D01*
X114879728Y-86730000D01*
X114780272Y-86730000D01*
X114688386Y-86768060D01*
X114618060Y-86838386D01*
X114580000Y-86930272D01*
X114580000Y-85855260D01*
X114560714Y-85858315D01*
X114560704Y-85858318D01*
X114388558Y-85914250D01*
X114388552Y-85914252D01*
X114227265Y-85996434D01*
X114080830Y-86102823D01*
X113952823Y-86230830D01*
X113846434Y-86377265D01*
X113764252Y-86538552D01*
X113764251Y-86538555D01*
X113708317Y-86710706D01*
X113680000Y-86889493D01*
X107320000Y-86889493D01*
X107291682Y-86710706D01*
X107235748Y-86538555D01*
X107235747Y-86538552D01*
X107153565Y-86377265D01*
X107104046Y-86309107D01*
X107104043Y-86309104D01*
X107061102Y-86250000D01*
X107791759Y-86250000D01*
X107835357Y-86355254D01*
X107835362Y-86355264D01*
X107917436Y-86478096D01*
X107917439Y-86478100D01*
X108021899Y-86582560D01*
X108021907Y-86582566D01*
X108144739Y-86664640D01*
X108144743Y-86664642D01*
X108249999Y-86708240D01*
X108250000Y-86708240D01*
X108750000Y-86708240D01*
X108855256Y-86664642D01*
X108855260Y-86664640D01*
X108978092Y-86582566D01*
X108978100Y-86582560D01*
X109082560Y-86478100D01*
X109082563Y-86478096D01*
X109164637Y-86355264D01*
X109164642Y-86355254D01*
X109208241Y-86250000D01*
X111791759Y-86250000D01*
X111835357Y-86355254D01*
X111835362Y-86355264D01*
X111917436Y-86478096D01*
X111917439Y-86478100D01*
X112021899Y-86582560D01*
X112021907Y-86582566D01*
X112144739Y-86664640D01*
X112144743Y-86664642D01*
X112249999Y-86708240D01*
X112250000Y-86708240D01*
X112750000Y-86708240D01*
X112855256Y-86664642D01*
X112855260Y-86664640D01*
X112978092Y-86582566D01*
X112978100Y-86582560D01*
X113082560Y-86478100D01*
X113082563Y-86478096D01*
X113164637Y-86355264D01*
X113164642Y-86355254D01*
X113208241Y-86250000D01*
X112750000Y-86250000D01*
X112750000Y-86708240D01*
X112250000Y-86708240D01*
X112250000Y-86250000D01*
X111791759Y-86250000D01*
X109208241Y-86250000D01*
X108750000Y-86250000D01*
X108750000Y-86708240D01*
X108250000Y-86708240D01*
X108250000Y-86250000D01*
X107791759Y-86250000D01*
X107061102Y-86250000D01*
X107047170Y-86230824D01*
X106919169Y-86102823D01*
X106772734Y-85996434D01*
X106721176Y-85970163D01*
X108350000Y-85970163D01*
X108350000Y-86029837D01*
X108372836Y-86084968D01*
X108415032Y-86127164D01*
X108470163Y-86150000D01*
X108529837Y-86150000D01*
X108584968Y-86127164D01*
X108627164Y-86084968D01*
X108650000Y-86029837D01*
X108650000Y-85970163D01*
X112350000Y-85970163D01*
X112350000Y-86029837D01*
X112372836Y-86084968D01*
X112415032Y-86127164D01*
X112470163Y-86150000D01*
X112529837Y-86150000D01*
X112584968Y-86127164D01*
X112627164Y-86084968D01*
X112650000Y-86029837D01*
X112650000Y-85970163D01*
X112627164Y-85915032D01*
X112584968Y-85872836D01*
X112529837Y-85850000D01*
X112470163Y-85850000D01*
X112415032Y-85872836D01*
X112372836Y-85915032D01*
X112350000Y-85970163D01*
X108650000Y-85970163D01*
X108627164Y-85915032D01*
X108584968Y-85872836D01*
X108529837Y-85850000D01*
X108470163Y-85850000D01*
X108415032Y-85872836D01*
X108372836Y-85915032D01*
X108350000Y-85970163D01*
X106721176Y-85970163D01*
X106611447Y-85914252D01*
X106611441Y-85914250D01*
X106511296Y-85881712D01*
X106439295Y-85858318D01*
X106439285Y-85858315D01*
X106420000Y-85855260D01*
X106420000Y-86930272D01*
X106381940Y-86838386D01*
X106311614Y-86768060D01*
X106219728Y-86730000D01*
X106120272Y-86730000D01*
X106028386Y-86768060D01*
X105958060Y-86838386D01*
X105920000Y-86930272D01*
X105920000Y-85855260D01*
X105900714Y-85858315D01*
X105900704Y-85858318D01*
X105728558Y-85914250D01*
X105728552Y-85914252D01*
X105567265Y-85996434D01*
X105420830Y-86102823D01*
X105292823Y-86230830D01*
X105186434Y-86377265D01*
X105104252Y-86538552D01*
X105104251Y-86538555D01*
X105048317Y-86710706D01*
X105020000Y-86889493D01*
X90000000Y-86889493D01*
X90000000Y-85749999D01*
X107791759Y-85749999D01*
X107791759Y-85750000D01*
X108250000Y-85750000D01*
X108750000Y-85750000D01*
X109208241Y-85750000D01*
X109208240Y-85749999D01*
X111791759Y-85749999D01*
X111791759Y-85750000D01*
X112250000Y-85750000D01*
X112750000Y-85750000D01*
X113208241Y-85750000D01*
X113208240Y-85749999D01*
X113164642Y-85644745D01*
X113164637Y-85644735D01*
X113082563Y-85521903D01*
X113082560Y-85521899D01*
X112978100Y-85417439D01*
X112978096Y-85417436D01*
X112855264Y-85335362D01*
X112855254Y-85335357D01*
X112750000Y-85291759D01*
X112750000Y-85750000D01*
X112250000Y-85750000D01*
X112250000Y-85291759D01*
X112249999Y-85291759D01*
X112144745Y-85335357D01*
X112144735Y-85335362D01*
X112021903Y-85417436D01*
X112021899Y-85417439D01*
X111917439Y-85521899D01*
X111917436Y-85521903D01*
X111835362Y-85644735D01*
X111835357Y-85644745D01*
X111791759Y-85749999D01*
X109208240Y-85749999D01*
X109164642Y-85644745D01*
X109164637Y-85644735D01*
X109082563Y-85521903D01*
X109082560Y-85521899D01*
X108978100Y-85417439D01*
X108978096Y-85417436D01*
X108855264Y-85335362D01*
X108855254Y-85335357D01*
X108750000Y-85291759D01*
X108750000Y-85750000D01*
X108250000Y-85750000D01*
X108250000Y-85291759D01*
X108249999Y-85291759D01*
X108144745Y-85335357D01*
X108144735Y-85335362D01*
X108021903Y-85417436D01*
X108021899Y-85417439D01*
X107917439Y-85521899D01*
X107917436Y-85521903D01*
X107835362Y-85644735D01*
X107835357Y-85644745D01*
X107791759Y-85749999D01*
X90000000Y-85749999D01*
X90000000Y-82589493D01*
X105020000Y-82589493D01*
X105020000Y-82930000D01*
X105920000Y-82930000D01*
X105920000Y-83430000D01*
X105020000Y-83430000D01*
X105020000Y-83770506D01*
X105048317Y-83949293D01*
X105104251Y-84121444D01*
X105104252Y-84121447D01*
X105186434Y-84282734D01*
X105292823Y-84429169D01*
X105420830Y-84557176D01*
X105567265Y-84663565D01*
X105728552Y-84745747D01*
X105728555Y-84745748D01*
X105900699Y-84801680D01*
X105900712Y-84801683D01*
X105920000Y-84804738D01*
X105920000Y-83779728D01*
X105958060Y-83871614D01*
X106028386Y-83941940D01*
X106120272Y-83980000D01*
X106219728Y-83980000D01*
X106311614Y-83941940D01*
X106381940Y-83871614D01*
X106420000Y-83779728D01*
X106420000Y-84804737D01*
X106439287Y-84801683D01*
X106439300Y-84801680D01*
X106611444Y-84745748D01*
X106611447Y-84745747D01*
X106772734Y-84663565D01*
X106919169Y-84557176D01*
X107047176Y-84429169D01*
X107153565Y-84282735D01*
X107221526Y-84149355D01*
X107269500Y-84098559D01*
X107337321Y-84081764D01*
X107394010Y-84098262D01*
X107435187Y-84122036D01*
X107550375Y-84152900D01*
X107550377Y-84152900D01*
X107669623Y-84152900D01*
X107669625Y-84152900D01*
X107784813Y-84122036D01*
X107888087Y-84062410D01*
X107972410Y-83978087D01*
X108032036Y-83874813D01*
X108054116Y-83792404D01*
X108090481Y-83732746D01*
X108153327Y-83702216D01*
X108173891Y-83700499D01*
X108397871Y-83700499D01*
X108397872Y-83700499D01*
X108457483Y-83694091D01*
X108457486Y-83694089D01*
X108461744Y-83693632D01*
X108488254Y-83693632D01*
X108492514Y-83694089D01*
X108492517Y-83694091D01*
X108552127Y-83700500D01*
X108947872Y-83700499D01*
X108947873Y-83700498D01*
X108947885Y-83700498D01*
X108986744Y-83696320D01*
X109013252Y-83696320D01*
X109052127Y-83700500D01*
X109447872Y-83700499D01*
X109462442Y-83698932D01*
X109466318Y-83699631D01*
X109470045Y-83698350D01*
X109500422Y-83705782D01*
X109531200Y-83711334D01*
X109534084Y-83714019D01*
X109537913Y-83714956D01*
X109559451Y-83737633D01*
X109582340Y-83758941D01*
X109584098Y-83763584D01*
X109586029Y-83765617D01*
X109590071Y-83779359D01*
X109597507Y-83798993D01*
X109599500Y-83809444D01*
X109599500Y-83814069D01*
X109620755Y-83920921D01*
X109620829Y-83921296D01*
X109620854Y-83921424D01*
X109624498Y-83939739D01*
X109624500Y-83939746D01*
X109673535Y-84058128D01*
X109687453Y-84078958D01*
X109705967Y-84123655D01*
X109727954Y-84234191D01*
X109727957Y-84234201D01*
X109788477Y-84380310D01*
X109788478Y-84380312D01*
X109876347Y-84511818D01*
X109988181Y-84623652D01*
X110075653Y-84682098D01*
X110119685Y-84711520D01*
X110119686Y-84711520D01*
X110119687Y-84711521D01*
X110119689Y-84711522D01*
X110265798Y-84772042D01*
X110265803Y-84772044D01*
X110414793Y-84801680D01*
X110420916Y-84802898D01*
X110420919Y-84802899D01*
X110420921Y-84802899D01*
X110579081Y-84802899D01*
X110579082Y-84802898D01*
X110734197Y-84772044D01*
X110880315Y-84711520D01*
X110940361Y-84671397D01*
X111007038Y-84650520D01*
X111009252Y-84650500D01*
X111064071Y-84650500D01*
X111148615Y-84633682D01*
X111189744Y-84625501D01*
X111308127Y-84576465D01*
X111308128Y-84576464D01*
X111414669Y-84505277D01*
X111755276Y-84164670D01*
X111798844Y-84099465D01*
X111826464Y-84058129D01*
X111858826Y-83980000D01*
X111875501Y-83939744D01*
X111879245Y-83920921D01*
X111900500Y-83814069D01*
X111900500Y-83809438D01*
X111902492Y-83798993D01*
X111915985Y-83772691D01*
X111927052Y-83745283D01*
X111931755Y-83741954D01*
X111934386Y-83736827D01*
X111959959Y-83721995D01*
X111984086Y-83704922D01*
X111990670Y-83704184D01*
X111994827Y-83701774D01*
X112007159Y-83702337D01*
X112037552Y-83698932D01*
X112052127Y-83700500D01*
X112447872Y-83700499D01*
X112507483Y-83694091D01*
X112507486Y-83694089D01*
X112511744Y-83693632D01*
X112538254Y-83693632D01*
X112542514Y-83694089D01*
X112542517Y-83694091D01*
X112602127Y-83700500D01*
X112826108Y-83700499D01*
X112893147Y-83720183D01*
X112938902Y-83772987D01*
X112945883Y-83792405D01*
X112967964Y-83874813D01*
X113027590Y-83978087D01*
X113111913Y-84062410D01*
X113201348Y-84114046D01*
X113214161Y-84121444D01*
X113215187Y-84122036D01*
X113330375Y-84152900D01*
X113330377Y-84152900D01*
X113449623Y-84152900D01*
X113449625Y-84152900D01*
X113564813Y-84122036D01*
X113565839Y-84121444D01*
X113575060Y-84116119D01*
X113605987Y-84098263D01*
X113673886Y-84081790D01*
X113739913Y-84104641D01*
X113778473Y-84149355D01*
X113846434Y-84282734D01*
X113952823Y-84429169D01*
X114080830Y-84557176D01*
X114227265Y-84663565D01*
X114388552Y-84745747D01*
X114388555Y-84745748D01*
X114560699Y-84801680D01*
X114560712Y-84801683D01*
X114580000Y-84804738D01*
X114580000Y-83779728D01*
X114618060Y-83871614D01*
X114688386Y-83941940D01*
X114780272Y-83980000D01*
X114879728Y-83980000D01*
X114971614Y-83941940D01*
X115041940Y-83871614D01*
X115080000Y-83779728D01*
X115080000Y-84804737D01*
X115099287Y-84801683D01*
X115099300Y-84801680D01*
X115271444Y-84745748D01*
X115271447Y-84745747D01*
X115432734Y-84663565D01*
X115579169Y-84557176D01*
X115707176Y-84429169D01*
X115813565Y-84282734D01*
X115895747Y-84121447D01*
X115895748Y-84121444D01*
X115951682Y-83949293D01*
X115980000Y-83770506D01*
X115980000Y-83430000D01*
X115080000Y-83430000D01*
X115080000Y-82930000D01*
X115980000Y-82930000D01*
X115980000Y-82589493D01*
X115951682Y-82410706D01*
X115895748Y-82238555D01*
X115895747Y-82238552D01*
X115813565Y-82077265D01*
X115707176Y-81930830D01*
X115579169Y-81802823D01*
X115432734Y-81696434D01*
X115271447Y-81614252D01*
X115271441Y-81614250D01*
X115099295Y-81558318D01*
X115099285Y-81558315D01*
X115080000Y-81555260D01*
X115080000Y-82580272D01*
X115041940Y-82488386D01*
X114971614Y-82418060D01*
X114879728Y-82380000D01*
X114780272Y-82380000D01*
X114688386Y-82418060D01*
X114618060Y-82488386D01*
X114580000Y-82580272D01*
X114580000Y-81601860D01*
X114450563Y-81578679D01*
X114445998Y-81576401D01*
X114440899Y-81576547D01*
X114415048Y-81560958D01*
X114388044Y-81547484D01*
X114385435Y-81543101D01*
X114381066Y-81540466D01*
X114373156Y-81530932D01*
X114307186Y-81442809D01*
X114192093Y-81356649D01*
X114192086Y-81356645D01*
X114057379Y-81306403D01*
X114057372Y-81306401D01*
X113997844Y-81300000D01*
X113950000Y-81300000D01*
X113950000Y-82376000D01*
X113947449Y-82384685D01*
X113948738Y-82393647D01*
X113937759Y-82417687D01*
X113930315Y-82443039D01*
X113923474Y-82448966D01*
X113919713Y-82457203D01*
X113897478Y-82471492D01*
X113877511Y-82488794D01*
X113866996Y-82491081D01*
X113860935Y-82494977D01*
X113826000Y-82500000D01*
X113774500Y-82500000D01*
X113707461Y-82480315D01*
X113661706Y-82427511D01*
X113650500Y-82376000D01*
X113650500Y-79626079D01*
X113621659Y-79481092D01*
X113621658Y-79481091D01*
X113621658Y-79481087D01*
X113565084Y-79344505D01*
X113532186Y-79295270D01*
X113516668Y-79272045D01*
X113511823Y-79264793D01*
X113490947Y-79198115D01*
X113509433Y-79130736D01*
X113527242Y-79108227D01*
X113623652Y-79011818D01*
X113711520Y-78880315D01*
X113772044Y-78734197D01*
X113802899Y-78579079D01*
X113802899Y-78420921D01*
X113802899Y-78420918D01*
X113802898Y-78420916D01*
X113785393Y-78332913D01*
X113772044Y-78265803D01*
X113714972Y-78128021D01*
X113709939Y-78115868D01*
X113700500Y-78068415D01*
X113700500Y-77759791D01*
X113720185Y-77692752D01*
X113740329Y-77668735D01*
X113750000Y-77659795D01*
X113750000Y-77394314D01*
X113767267Y-77331194D01*
X113801744Y-77272898D01*
X113847598Y-77115069D01*
X113850500Y-77078194D01*
X113850500Y-76624000D01*
X113853050Y-76615314D01*
X113851762Y-76606353D01*
X113862740Y-76582312D01*
X113870185Y-76556961D01*
X113877025Y-76551033D01*
X113880787Y-76542797D01*
X113903021Y-76528507D01*
X113922989Y-76511206D01*
X113933503Y-76508918D01*
X113939565Y-76505023D01*
X113974500Y-76500000D01*
X114025500Y-76500000D01*
X114092539Y-76519685D01*
X114138294Y-76572489D01*
X114149500Y-76624000D01*
X114149500Y-77078201D01*
X114152401Y-77115067D01*
X114152402Y-77115073D01*
X114198254Y-77272893D01*
X114198255Y-77272896D01*
X114198256Y-77272898D01*
X114232732Y-77331194D01*
X114250000Y-77394314D01*
X114250000Y-77659795D01*
X114259671Y-77668735D01*
X114295538Y-77728696D01*
X114299500Y-77759791D01*
X114299500Y-78014070D01*
X114303166Y-78032502D01*
X114296937Y-78102093D01*
X114290909Y-78115139D01*
X114288479Y-78119684D01*
X114227957Y-78265798D01*
X114227954Y-78265810D01*
X114197101Y-78420916D01*
X114197101Y-78579083D01*
X114227954Y-78734189D01*
X114227957Y-78734201D01*
X114288477Y-78880310D01*
X114288478Y-78880312D01*
X114376347Y-79011818D01*
X114488181Y-79123652D01*
X114564191Y-79174440D01*
X114619685Y-79211520D01*
X114619686Y-79211520D01*
X114619687Y-79211521D01*
X114619689Y-79211522D01*
X114750156Y-79265563D01*
X114765803Y-79272044D01*
X114882568Y-79295270D01*
X114920916Y-79302898D01*
X114920919Y-79302899D01*
X114920921Y-79302899D01*
X115079081Y-79302899D01*
X115079082Y-79302898D01*
X115234197Y-79272044D01*
X115380315Y-79211520D01*
X115511818Y-79123652D01*
X115623652Y-79011818D01*
X115711520Y-78880315D01*
X115772044Y-78734197D01*
X115802899Y-78579079D01*
X115802899Y-78420921D01*
X115802899Y-78420918D01*
X115802898Y-78420916D01*
X115785393Y-78332913D01*
X115772044Y-78265803D01*
X115755146Y-78225008D01*
X115711523Y-78119691D01*
X115711516Y-78119678D01*
X115671398Y-78059637D01*
X115650520Y-77992959D01*
X115650500Y-77990746D01*
X115650500Y-77935928D01*
X115625502Y-77810261D01*
X115625501Y-77810260D01*
X115625501Y-77810256D01*
X115609939Y-77772685D01*
X115608312Y-77764508D01*
X115605523Y-77760168D01*
X115600500Y-77725233D01*
X115600500Y-77478015D01*
X115617768Y-77414894D01*
X115629939Y-77394314D01*
X115701744Y-77272898D01*
X115747598Y-77115069D01*
X115750500Y-77078194D01*
X115750500Y-75921806D01*
X115747598Y-75884931D01*
X115740314Y-75859861D01*
X115713836Y-75768724D01*
X115701744Y-75727102D01*
X115618081Y-75585635D01*
X115618079Y-75585633D01*
X115618076Y-75585629D01*
X115501870Y-75469423D01*
X115501867Y-75469421D01*
X115501865Y-75469419D01*
X115501549Y-75469232D01*
X115501353Y-75469022D01*
X115495702Y-75464639D01*
X115496409Y-75463727D01*
X115453866Y-75418164D01*
X115441362Y-75349423D01*
X115468006Y-75284833D01*
X115495921Y-75260644D01*
X115495702Y-75260361D01*
X115500911Y-75256320D01*
X115501550Y-75255767D01*
X115501865Y-75255581D01*
X115618081Y-75139365D01*
X115701744Y-74997898D01*
X115747598Y-74840069D01*
X115750500Y-74803194D01*
X115750500Y-73646806D01*
X115747598Y-73609931D01*
X115742521Y-73592455D01*
X115705424Y-73464765D01*
X115700500Y-73430170D01*
X115700500Y-71551080D01*
X115697518Y-71536093D01*
X115690710Y-71501865D01*
X115671659Y-71406088D01*
X115637229Y-71322968D01*
X115626710Y-71297572D01*
X115615085Y-71269506D01*
X115615083Y-71269503D01*
X115532954Y-71146588D01*
X115532953Y-71146587D01*
X115532951Y-71146584D01*
X115428416Y-71042049D01*
X115136367Y-70750000D01*
X114786819Y-70400451D01*
X114753334Y-70339128D01*
X114750500Y-70312770D01*
X114750500Y-70084313D01*
X114750499Y-70084298D01*
X114750079Y-70078965D01*
X114747598Y-70047431D01*
X114746900Y-70045029D01*
X114701745Y-69889606D01*
X114701744Y-69889603D01*
X114701744Y-69889602D01*
X114618081Y-69748135D01*
X114618079Y-69748133D01*
X114618076Y-69748129D01*
X114501870Y-69631923D01*
X114501862Y-69631917D01*
X114360396Y-69548255D01*
X114360393Y-69548254D01*
X114202573Y-69502402D01*
X114202567Y-69502401D01*
X114165701Y-69499500D01*
X114165694Y-69499500D01*
X113734306Y-69499500D01*
X113734298Y-69499500D01*
X113697432Y-69502401D01*
X113697426Y-69502402D01*
X113539606Y-69548253D01*
X113513119Y-69563918D01*
X113445394Y-69581098D01*
X113386881Y-69563918D01*
X113360393Y-69548253D01*
X113202573Y-69502402D01*
X113202567Y-69502401D01*
X113165701Y-69499500D01*
X113165694Y-69499500D01*
X112734306Y-69499500D01*
X112734298Y-69499500D01*
X112697432Y-69502401D01*
X112697426Y-69502402D01*
X112539606Y-69548254D01*
X112539603Y-69548255D01*
X112398137Y-69631917D01*
X112398129Y-69631923D01*
X112281923Y-69748129D01*
X112281917Y-69748137D01*
X112198255Y-69889603D01*
X112198254Y-69889606D01*
X112152402Y-70047426D01*
X112152401Y-70047432D01*
X112149500Y-70084298D01*
X112149500Y-71165701D01*
X112152401Y-71202567D01*
X112152402Y-71202573D01*
X112194576Y-71347733D01*
X112199500Y-71382328D01*
X112199500Y-73023918D01*
X112199500Y-73023920D01*
X112199499Y-73023920D01*
X112228340Y-73168907D01*
X112228343Y-73168917D01*
X112287247Y-73311124D01*
X112286383Y-73311481D01*
X112288366Y-73319396D01*
X112294477Y-73328905D01*
X112299500Y-73363840D01*
X112299500Y-73430170D01*
X112294576Y-73464765D01*
X112252402Y-73609926D01*
X112252401Y-73609932D01*
X112249500Y-73646798D01*
X112249500Y-73906239D01*
X112229815Y-73973278D01*
X112177011Y-74019033D01*
X112107853Y-74028977D01*
X112060404Y-74011778D01*
X111944334Y-73940186D01*
X111777797Y-73885001D01*
X111777795Y-73885000D01*
X111675010Y-73874500D01*
X110324998Y-73874500D01*
X110324981Y-73874501D01*
X110222203Y-73885000D01*
X110222200Y-73885001D01*
X110055668Y-73940185D01*
X110055663Y-73940187D01*
X109906345Y-74032287D01*
X109834791Y-74103841D01*
X109773467Y-74137325D01*
X109703776Y-74132340D01*
X109694035Y-74127576D01*
X109693836Y-74128005D01*
X109687285Y-74124950D01*
X109606780Y-74098273D01*
X109527685Y-74072064D01*
X109527683Y-74072063D01*
X109429181Y-74062000D01*
X109429174Y-74062000D01*
X108570826Y-74062000D01*
X108570818Y-74062000D01*
X108472316Y-74072063D01*
X108472315Y-74072064D01*
X108393219Y-74098273D01*
X108312715Y-74124950D01*
X108312704Y-74124955D01*
X108169612Y-74213216D01*
X108169608Y-74213219D01*
X108050719Y-74332108D01*
X108050716Y-74332112D01*
X107962455Y-74475204D01*
X107962451Y-74475213D01*
X107909564Y-74634815D01*
X107909564Y-74634816D01*
X107909563Y-74634816D01*
X107899500Y-74733318D01*
X107899500Y-75266681D01*
X107909563Y-75365183D01*
X107962450Y-75524784D01*
X107962455Y-75524795D01*
X108050716Y-75667887D01*
X108050719Y-75667891D01*
X108169608Y-75786780D01*
X108169612Y-75786783D01*
X108312704Y-75875044D01*
X108312707Y-75875045D01*
X108312713Y-75875049D01*
X108472315Y-75927936D01*
X108570826Y-75938000D01*
X108570831Y-75938000D01*
X109429169Y-75938000D01*
X109429174Y-75938000D01*
X109527685Y-75927936D01*
X109687287Y-75875049D01*
X109687293Y-75875044D01*
X109693829Y-75871998D01*
X109695099Y-75874722D01*
X109749391Y-75859861D01*
X109816057Y-75880775D01*
X109834791Y-75896159D01*
X109906344Y-75967712D01*
X110055666Y-76059814D01*
X110222203Y-76114999D01*
X110324991Y-76125500D01*
X111675008Y-76125499D01*
X111777797Y-76114999D01*
X111944334Y-76059814D01*
X112060404Y-75988221D01*
X112127795Y-75969781D01*
X112194459Y-75990703D01*
X112239229Y-76044345D01*
X112249500Y-76093760D01*
X112249500Y-76706239D01*
X112229815Y-76773278D01*
X112177011Y-76819033D01*
X112107853Y-76828977D01*
X112060404Y-76811778D01*
X111944334Y-76740186D01*
X111777797Y-76685001D01*
X111777795Y-76685000D01*
X111675010Y-76674500D01*
X110324998Y-76674500D01*
X110324981Y-76674501D01*
X110222203Y-76685000D01*
X110222193Y-76685003D01*
X110198838Y-76692742D01*
X110129010Y-76695143D01*
X110068969Y-76659411D01*
X110042131Y-76614042D01*
X110037549Y-76600213D01*
X110037544Y-76600206D01*
X110037544Y-76600204D01*
X109949283Y-76457112D01*
X109949280Y-76457108D01*
X109830391Y-76338219D01*
X109830387Y-76338216D01*
X109687295Y-76249955D01*
X109687289Y-76249952D01*
X109687287Y-76249951D01*
X109527685Y-76197064D01*
X109527683Y-76197063D01*
X109429181Y-76187000D01*
X109429174Y-76187000D01*
X108570826Y-76187000D01*
X108570818Y-76187000D01*
X108472316Y-76197063D01*
X108472315Y-76197064D01*
X108418475Y-76214905D01*
X108312715Y-76249950D01*
X108312704Y-76249955D01*
X108169612Y-76338216D01*
X108163946Y-76342697D01*
X108163171Y-76341717D01*
X108108324Y-76371666D01*
X108081966Y-76374500D01*
X107374499Y-76374500D01*
X107307460Y-76354815D01*
X107261705Y-76302011D01*
X107251562Y-76255388D01*
X107250900Y-76255423D01*
X107250854Y-76255429D01*
X107250853Y-76255426D01*
X107250676Y-76255436D01*
X107250499Y-76252135D01*
X107250499Y-76252128D01*
X107244091Y-76192517D01*
X107242033Y-76187000D01*
X107193797Y-76057671D01*
X107193793Y-76057664D01*
X107107547Y-75942455D01*
X107107544Y-75942452D01*
X106992335Y-75856206D01*
X106992328Y-75856202D01*
X106857486Y-75805910D01*
X106857485Y-75805909D01*
X106857483Y-75805909D01*
X106797873Y-75799500D01*
X106797863Y-75799500D01*
X106202129Y-75799500D01*
X106202123Y-75799501D01*
X106142516Y-75805908D01*
X106007671Y-75856202D01*
X106007664Y-75856206D01*
X105892455Y-75942452D01*
X105892452Y-75942455D01*
X105806206Y-76057664D01*
X105806202Y-76057671D01*
X105755908Y-76192517D01*
X105749501Y-76252116D01*
X105749501Y-76252123D01*
X105749500Y-76252135D01*
X105749500Y-77447870D01*
X105749501Y-77447876D01*
X105755908Y-77507483D01*
X105806202Y-77642328D01*
X105806206Y-77642335D01*
X105892452Y-77757544D01*
X105892455Y-77757547D01*
X106007664Y-77843793D01*
X106007671Y-77843797D01*
X106052618Y-77860561D01*
X106142517Y-77894091D01*
X106202127Y-77900500D01*
X106797872Y-77900499D01*
X106857483Y-77894091D01*
X106886367Y-77883317D01*
X106929700Y-77875500D01*
X108081966Y-77875500D01*
X108149005Y-77895185D01*
X108169114Y-77911390D01*
X108169612Y-77911783D01*
X108312704Y-78000044D01*
X108312707Y-78000045D01*
X108312713Y-78000049D01*
X108472315Y-78052936D01*
X108570826Y-78063000D01*
X108570831Y-78063000D01*
X109429169Y-78063000D01*
X109429174Y-78063000D01*
X109487899Y-78057000D01*
X109556589Y-78069769D01*
X109607474Y-78117648D01*
X109624500Y-78180355D01*
X109624500Y-78224999D01*
X109624501Y-78225019D01*
X109635000Y-78327796D01*
X109635001Y-78327799D01*
X109690185Y-78494331D01*
X109690189Y-78494340D01*
X109735657Y-78568055D01*
X109754097Y-78635447D01*
X109733174Y-78702111D01*
X109717799Y-78720832D01*
X107517045Y-80921586D01*
X107503491Y-80941874D01*
X107503490Y-80941875D01*
X107434916Y-81044502D01*
X107434914Y-81044506D01*
X107378343Y-81181082D01*
X107378340Y-81181092D01*
X107349500Y-81326079D01*
X107349500Y-82376000D01*
X107346949Y-82384685D01*
X107348238Y-82393647D01*
X107337259Y-82417687D01*
X107329815Y-82443039D01*
X107322974Y-82448966D01*
X107319213Y-82457203D01*
X107296978Y-82471492D01*
X107277011Y-82488794D01*
X107266496Y-82491081D01*
X107260435Y-82494977D01*
X107225500Y-82500000D01*
X107174000Y-82500000D01*
X107106961Y-82480315D01*
X107061206Y-82427511D01*
X107050000Y-82376000D01*
X107050000Y-81300000D01*
X107002155Y-81300000D01*
X106942627Y-81306401D01*
X106942620Y-81306403D01*
X106807913Y-81356645D01*
X106807906Y-81356649D01*
X106692812Y-81442809D01*
X106626842Y-81530933D01*
X106570908Y-81572803D01*
X106501216Y-81577787D01*
X106489258Y-81574552D01*
X106439291Y-81558317D01*
X106439285Y-81558315D01*
X106420000Y-81555260D01*
X106420000Y-82580272D01*
X106381940Y-82488386D01*
X106311614Y-82418060D01*
X106219728Y-82380000D01*
X106120272Y-82380000D01*
X106028386Y-82418060D01*
X105958060Y-82488386D01*
X105920000Y-82580272D01*
X105920000Y-81555260D01*
X105900714Y-81558315D01*
X105900704Y-81558318D01*
X105728558Y-81614250D01*
X105728552Y-81614252D01*
X105567265Y-81696434D01*
X105420830Y-81802823D01*
X105292823Y-81930830D01*
X105186434Y-82077265D01*
X105104252Y-82238552D01*
X105104251Y-82238555D01*
X105048317Y-82410706D01*
X105020000Y-82589493D01*
X90000000Y-82589493D01*
X90000000Y-79472844D01*
X90575000Y-79472844D01*
X90581401Y-79532372D01*
X90581403Y-79532379D01*
X90631645Y-79667086D01*
X90631649Y-79667093D01*
X90717809Y-79782187D01*
X90717812Y-79782190D01*
X90832906Y-79868350D01*
X90832913Y-79868354D01*
X90967620Y-79918596D01*
X90967627Y-79918598D01*
X91027155Y-79924999D01*
X91027172Y-79925000D01*
X91250000Y-79925000D01*
X91750000Y-79925000D01*
X91972828Y-79925000D01*
X91972844Y-79924999D01*
X92032372Y-79918598D01*
X92032379Y-79918596D01*
X92167086Y-79868354D01*
X92167093Y-79868350D01*
X92282187Y-79782190D01*
X92282190Y-79782187D01*
X92368350Y-79667093D01*
X92368354Y-79667086D01*
X92418596Y-79532379D01*
X92418598Y-79532372D01*
X92424999Y-79472844D01*
X93575000Y-79472844D01*
X93581401Y-79532372D01*
X93581403Y-79532379D01*
X93631645Y-79667086D01*
X93631649Y-79667093D01*
X93717809Y-79782187D01*
X93717812Y-79782190D01*
X93832906Y-79868350D01*
X93832913Y-79868354D01*
X93967620Y-79918596D01*
X93967627Y-79918598D01*
X94027155Y-79924999D01*
X94027172Y-79925000D01*
X94250000Y-79925000D01*
X94750000Y-79925000D01*
X94972828Y-79925000D01*
X94972844Y-79924999D01*
X95032372Y-79918598D01*
X95032379Y-79918596D01*
X95167086Y-79868354D01*
X95167093Y-79868350D01*
X95282187Y-79782190D01*
X95282190Y-79782187D01*
X95368350Y-79667093D01*
X95368354Y-79667086D01*
X95418596Y-79532379D01*
X95418598Y-79532372D01*
X95424999Y-79472844D01*
X95425000Y-79472827D01*
X95425000Y-79250000D01*
X94750000Y-79250000D01*
X94750000Y-79925000D01*
X94250000Y-79925000D01*
X94250000Y-79250000D01*
X93575000Y-79250000D01*
X93575000Y-79472844D01*
X92424999Y-79472844D01*
X92425000Y-79472827D01*
X92425000Y-79250000D01*
X91750000Y-79250000D01*
X91750000Y-79925000D01*
X91250000Y-79925000D01*
X91250000Y-79250000D01*
X90575000Y-79250000D01*
X90575000Y-79472844D01*
X90000000Y-79472844D01*
X90000000Y-78950272D01*
X91250000Y-78950272D01*
X91250000Y-79049728D01*
X91288060Y-79141614D01*
X91358386Y-79211940D01*
X91450272Y-79250000D01*
X91549728Y-79250000D01*
X91641614Y-79211940D01*
X91711940Y-79141614D01*
X91750000Y-79049728D01*
X91750000Y-78950272D01*
X94250000Y-78950272D01*
X94250000Y-79049728D01*
X94288060Y-79141614D01*
X94358386Y-79211940D01*
X94450272Y-79250000D01*
X94549728Y-79250000D01*
X94641614Y-79211940D01*
X94711940Y-79141614D01*
X94750000Y-79049728D01*
X94750000Y-78950272D01*
X94711940Y-78858386D01*
X94641614Y-78788060D01*
X94549728Y-78750000D01*
X94750000Y-78750000D01*
X95425000Y-78750000D01*
X95425000Y-78527172D01*
X95424999Y-78527155D01*
X95418598Y-78467627D01*
X95418596Y-78467620D01*
X95368354Y-78332913D01*
X95368350Y-78332906D01*
X95282190Y-78217812D01*
X95282187Y-78217809D01*
X95167093Y-78131649D01*
X95167086Y-78131645D01*
X95032379Y-78081403D01*
X95032372Y-78081401D01*
X94972844Y-78075000D01*
X94750000Y-78075000D01*
X94750000Y-78750000D01*
X94549728Y-78750000D01*
X94450272Y-78750000D01*
X94358386Y-78788060D01*
X94288060Y-78858386D01*
X94250000Y-78950272D01*
X91750000Y-78950272D01*
X91711940Y-78858386D01*
X91641614Y-78788060D01*
X91549728Y-78750000D01*
X91750000Y-78750000D01*
X92425000Y-78750000D01*
X92425000Y-78527172D01*
X92424999Y-78527155D01*
X93575000Y-78527155D01*
X93575000Y-78750000D01*
X94250000Y-78750000D01*
X94250000Y-78075000D01*
X94027155Y-78075000D01*
X93967627Y-78081401D01*
X93967620Y-78081403D01*
X93832913Y-78131645D01*
X93832906Y-78131649D01*
X93717812Y-78217809D01*
X93717809Y-78217812D01*
X93631649Y-78332906D01*
X93631645Y-78332913D01*
X93581403Y-78467620D01*
X93581401Y-78467627D01*
X93575000Y-78527155D01*
X92424999Y-78527155D01*
X92418598Y-78467627D01*
X92418596Y-78467620D01*
X92368354Y-78332913D01*
X92368350Y-78332906D01*
X92282190Y-78217812D01*
X92282187Y-78217809D01*
X92167093Y-78131649D01*
X92167086Y-78131645D01*
X92032379Y-78081403D01*
X92032372Y-78081401D01*
X91972844Y-78075000D01*
X91750000Y-78075000D01*
X91750000Y-78750000D01*
X91549728Y-78750000D01*
X91450272Y-78750000D01*
X91358386Y-78788060D01*
X91288060Y-78858386D01*
X91250000Y-78950272D01*
X90000000Y-78950272D01*
X90000000Y-78527155D01*
X90575000Y-78527155D01*
X90575000Y-78750000D01*
X91250000Y-78750000D01*
X91250000Y-78075000D01*
X91027155Y-78075000D01*
X90967627Y-78081401D01*
X90967620Y-78081403D01*
X90832913Y-78131645D01*
X90832906Y-78131649D01*
X90717812Y-78217809D01*
X90717809Y-78217812D01*
X90631649Y-78332906D01*
X90631645Y-78332913D01*
X90581403Y-78467620D01*
X90581401Y-78467627D01*
X90575000Y-78527155D01*
X90000000Y-78527155D01*
X90000000Y-76472844D01*
X90575000Y-76472844D01*
X90581401Y-76532372D01*
X90581403Y-76532379D01*
X90631645Y-76667086D01*
X90631649Y-76667093D01*
X90717809Y-76782187D01*
X90717812Y-76782190D01*
X90832906Y-76868350D01*
X90832913Y-76868354D01*
X90967620Y-76918596D01*
X90967627Y-76918598D01*
X91027155Y-76924999D01*
X91027172Y-76925000D01*
X91250000Y-76925000D01*
X91750000Y-76925000D01*
X91972828Y-76925000D01*
X91972844Y-76924999D01*
X92032372Y-76918598D01*
X92032379Y-76918596D01*
X92167086Y-76868354D01*
X92167093Y-76868350D01*
X92282187Y-76782190D01*
X92282190Y-76782187D01*
X92368350Y-76667093D01*
X92368354Y-76667086D01*
X92418596Y-76532379D01*
X92418598Y-76532372D01*
X92424999Y-76472844D01*
X93575000Y-76472844D01*
X93581401Y-76532372D01*
X93581403Y-76532379D01*
X93631645Y-76667086D01*
X93631649Y-76667093D01*
X93717809Y-76782187D01*
X93717812Y-76782190D01*
X93832906Y-76868350D01*
X93832913Y-76868354D01*
X93967620Y-76918596D01*
X93967627Y-76918598D01*
X94027155Y-76924999D01*
X94027172Y-76925000D01*
X94250000Y-76925000D01*
X94750000Y-76925000D01*
X94972828Y-76925000D01*
X94972844Y-76924999D01*
X95032372Y-76918598D01*
X95032379Y-76918596D01*
X95167086Y-76868354D01*
X95167093Y-76868350D01*
X95282187Y-76782190D01*
X95282190Y-76782187D01*
X95368350Y-76667093D01*
X95368354Y-76667086D01*
X95418596Y-76532379D01*
X95418598Y-76532372D01*
X95424999Y-76472844D01*
X95425000Y-76472827D01*
X95425000Y-76250000D01*
X94750000Y-76250000D01*
X94750000Y-76925000D01*
X94250000Y-76925000D01*
X94250000Y-76250000D01*
X93575000Y-76250000D01*
X93575000Y-76472844D01*
X92424999Y-76472844D01*
X92425000Y-76472827D01*
X92425000Y-76250000D01*
X91750000Y-76250000D01*
X91750000Y-76925000D01*
X91250000Y-76925000D01*
X91250000Y-76250000D01*
X90575000Y-76250000D01*
X90575000Y-76472844D01*
X90000000Y-76472844D01*
X90000000Y-75950272D01*
X91250000Y-75950272D01*
X91250000Y-76049728D01*
X91288060Y-76141614D01*
X91358386Y-76211940D01*
X91450272Y-76250000D01*
X91549728Y-76250000D01*
X91641614Y-76211940D01*
X91711940Y-76141614D01*
X91750000Y-76049728D01*
X91750000Y-75950272D01*
X94250000Y-75950272D01*
X94250000Y-76049728D01*
X94288060Y-76141614D01*
X94358386Y-76211940D01*
X94450272Y-76250000D01*
X94549728Y-76250000D01*
X94641614Y-76211940D01*
X94711940Y-76141614D01*
X94750000Y-76049728D01*
X94750000Y-75950272D01*
X94711940Y-75858386D01*
X94641614Y-75788060D01*
X94549728Y-75750000D01*
X94750000Y-75750000D01*
X95425000Y-75750000D01*
X95425000Y-75527172D01*
X95424999Y-75527155D01*
X95418598Y-75467627D01*
X95418596Y-75467620D01*
X95368354Y-75332913D01*
X95368350Y-75332906D01*
X95282190Y-75217812D01*
X95282187Y-75217809D01*
X95167093Y-75131649D01*
X95167086Y-75131645D01*
X95032379Y-75081403D01*
X95032372Y-75081401D01*
X94972844Y-75075000D01*
X94750000Y-75075000D01*
X94750000Y-75750000D01*
X94549728Y-75750000D01*
X94450272Y-75750000D01*
X94358386Y-75788060D01*
X94288060Y-75858386D01*
X94250000Y-75950272D01*
X91750000Y-75950272D01*
X91711940Y-75858386D01*
X91641614Y-75788060D01*
X91549728Y-75750000D01*
X91750000Y-75750000D01*
X92425000Y-75750000D01*
X92425000Y-75527172D01*
X92424999Y-75527155D01*
X93575000Y-75527155D01*
X93575000Y-75750000D01*
X94250000Y-75750000D01*
X94250000Y-75075000D01*
X94027155Y-75075000D01*
X93967627Y-75081401D01*
X93967620Y-75081403D01*
X93832913Y-75131645D01*
X93832906Y-75131649D01*
X93717812Y-75217809D01*
X93717809Y-75217812D01*
X93631649Y-75332906D01*
X93631645Y-75332913D01*
X93581403Y-75467620D01*
X93581401Y-75467627D01*
X93575000Y-75527155D01*
X92424999Y-75527155D01*
X92418598Y-75467627D01*
X92418596Y-75467620D01*
X92368354Y-75332913D01*
X92368350Y-75332906D01*
X92282190Y-75217812D01*
X92282187Y-75217809D01*
X92167093Y-75131649D01*
X92167086Y-75131645D01*
X92032379Y-75081403D01*
X92032372Y-75081401D01*
X91972844Y-75075000D01*
X91750000Y-75075000D01*
X91750000Y-75750000D01*
X91549728Y-75750000D01*
X91450272Y-75750000D01*
X91358386Y-75788060D01*
X91288060Y-75858386D01*
X91250000Y-75950272D01*
X90000000Y-75950272D01*
X90000000Y-75527155D01*
X90575000Y-75527155D01*
X90575000Y-75750000D01*
X91250000Y-75750000D01*
X91250000Y-75075000D01*
X91027155Y-75075000D01*
X90967627Y-75081401D01*
X90967620Y-75081403D01*
X90832913Y-75131645D01*
X90832906Y-75131649D01*
X90717812Y-75217809D01*
X90717809Y-75217812D01*
X90631649Y-75332906D01*
X90631645Y-75332913D01*
X90581403Y-75467620D01*
X90581401Y-75467627D01*
X90575000Y-75527155D01*
X90000000Y-75527155D01*
X90000000Y-71398620D01*
X94954931Y-71398620D01*
X94954932Y-71398621D01*
X95002633Y-71430495D01*
X95002639Y-71430498D01*
X95193725Y-71509649D01*
X95193733Y-71509651D01*
X95396579Y-71549999D01*
X95396583Y-71550000D01*
X95603417Y-71550000D01*
X95603420Y-71549999D01*
X95806266Y-71509651D01*
X95806274Y-71509649D01*
X95997366Y-71430495D01*
X96045066Y-71398621D01*
X96045067Y-71398620D01*
X95500001Y-70853554D01*
X95500000Y-70853554D01*
X94954931Y-71398620D01*
X90000000Y-71398620D01*
X90000000Y-70396579D01*
X94450000Y-70396579D01*
X94450000Y-70603420D01*
X94490348Y-70806266D01*
X94490350Y-70806274D01*
X94569500Y-70997359D01*
X94601377Y-71045067D01*
X94601378Y-71045067D01*
X95146446Y-70500000D01*
X94601378Y-69954932D01*
X94601377Y-69954932D01*
X94569505Y-70002631D01*
X94569500Y-70002641D01*
X94490350Y-70193725D01*
X94490348Y-70193733D01*
X94450000Y-70396579D01*
X90000000Y-70396579D01*
X90000000Y-68896530D01*
X94449500Y-68896530D01*
X94449500Y-69103469D01*
X94489868Y-69306412D01*
X94489870Y-69306420D01*
X94569059Y-69497598D01*
X94572269Y-69502402D01*
X94684024Y-69669657D01*
X94830342Y-69815975D01*
X94830345Y-69815977D01*
X95002402Y-69930941D01*
X95193580Y-70010130D01*
X95301017Y-70031500D01*
X95369029Y-70045029D01*
X95430940Y-70077413D01*
X95432519Y-70078965D01*
X95503554Y-70150000D01*
X95453922Y-70150000D01*
X95364905Y-70173852D01*
X95285095Y-70219930D01*
X95219930Y-70285095D01*
X95173852Y-70364905D01*
X95150000Y-70453922D01*
X95150000Y-70546078D01*
X95173852Y-70635095D01*
X95219930Y-70714905D01*
X95285095Y-70780070D01*
X95364905Y-70826148D01*
X95453922Y-70850000D01*
X95546078Y-70850000D01*
X95635095Y-70826148D01*
X95714905Y-70780070D01*
X95780070Y-70714905D01*
X95826148Y-70635095D01*
X95850000Y-70546078D01*
X95850000Y-70496446D01*
X96398620Y-71045067D01*
X96398621Y-71045066D01*
X96430495Y-70997366D01*
X96509649Y-70806274D01*
X96509651Y-70806266D01*
X96549999Y-70603420D01*
X96550000Y-70603417D01*
X96550000Y-70396583D01*
X96549999Y-70396579D01*
X96509651Y-70193733D01*
X96509649Y-70193725D01*
X96430499Y-70002641D01*
X96430494Y-70002631D01*
X96390911Y-69943391D01*
X96370033Y-69876713D01*
X96388518Y-69809333D01*
X96440496Y-69762643D01*
X96494013Y-69750500D01*
X98125500Y-69750500D01*
X98192539Y-69770185D01*
X98238294Y-69822989D01*
X98249500Y-69874500D01*
X98249500Y-75213505D01*
X98229815Y-75280544D01*
X98213181Y-75301186D01*
X98184025Y-75330341D01*
X98184024Y-75330342D01*
X98069058Y-75502403D01*
X97989870Y-75693579D01*
X97989868Y-75693587D01*
X97949500Y-75896530D01*
X97949500Y-76103469D01*
X97989868Y-76306412D01*
X97989870Y-76306420D01*
X98069058Y-76497596D01*
X98184024Y-76669657D01*
X98330342Y-76815975D01*
X98330345Y-76815977D01*
X98502402Y-76930941D01*
X98693580Y-77010130D01*
X98894016Y-77049999D01*
X98896530Y-77050499D01*
X98896534Y-77050500D01*
X98896535Y-77050500D01*
X99103466Y-77050500D01*
X99103467Y-77050499D01*
X99306420Y-77010130D01*
X99497598Y-76930941D01*
X99545970Y-76898620D01*
X99954931Y-76898620D01*
X99954932Y-76898621D01*
X100002633Y-76930495D01*
X100002639Y-76930498D01*
X100193725Y-77009649D01*
X100193733Y-77009651D01*
X100396579Y-77049999D01*
X100396583Y-77050000D01*
X100603417Y-77050000D01*
X100603420Y-77049999D01*
X100806266Y-77009651D01*
X100806274Y-77009649D01*
X100997366Y-76930495D01*
X101045066Y-76898621D01*
X101045067Y-76898620D01*
X100500001Y-76353554D01*
X100500000Y-76353554D01*
X99954931Y-76898620D01*
X99545970Y-76898620D01*
X99669655Y-76815977D01*
X99673854Y-76811778D01*
X99720905Y-76764728D01*
X99815974Y-76669658D01*
X99815975Y-76669657D01*
X99815977Y-76669655D01*
X99930941Y-76497598D01*
X100010130Y-76306420D01*
X100045029Y-76130970D01*
X100077413Y-76069059D01*
X100078965Y-76067480D01*
X100150000Y-75996445D01*
X100150000Y-76046078D01*
X100173852Y-76135095D01*
X100219930Y-76214905D01*
X100285095Y-76280070D01*
X100364905Y-76326148D01*
X100453922Y-76350000D01*
X100546078Y-76350000D01*
X100635095Y-76326148D01*
X100714905Y-76280070D01*
X100780070Y-76214905D01*
X100826148Y-76135095D01*
X100850000Y-76046078D01*
X100850000Y-75999999D01*
X100853554Y-75999999D01*
X100853554Y-76000001D01*
X101398620Y-76545067D01*
X101398621Y-76545066D01*
X101430495Y-76497366D01*
X101509649Y-76306275D01*
X101525892Y-76224615D01*
X101525893Y-76224611D01*
X101549999Y-76103420D01*
X101550000Y-76103417D01*
X101550000Y-75896583D01*
X101549999Y-75896579D01*
X101509651Y-75693733D01*
X101509649Y-75693725D01*
X101430498Y-75502639D01*
X101430495Y-75502633D01*
X101398621Y-75454932D01*
X101398620Y-75454931D01*
X100853554Y-75999999D01*
X100850000Y-75999999D01*
X100850000Y-75953922D01*
X100826148Y-75864905D01*
X100780070Y-75785095D01*
X100714905Y-75719930D01*
X100635095Y-75673852D01*
X100546078Y-75650000D01*
X100496446Y-75650000D01*
X101045067Y-75101377D01*
X100997359Y-75069500D01*
X100806274Y-74990350D01*
X100806266Y-74990348D01*
X100603420Y-74950000D01*
X100396579Y-74950000D01*
X100193733Y-74990348D01*
X100193725Y-74990350D01*
X100002641Y-75069500D01*
X100002633Y-75069504D01*
X99943390Y-75109089D01*
X99876712Y-75129966D01*
X99809332Y-75111481D01*
X99762643Y-75059501D01*
X99750500Y-75005986D01*
X99750500Y-71540901D01*
X99770185Y-71473862D01*
X99822989Y-71428107D01*
X99892147Y-71418163D01*
X99934891Y-71433658D01*
X99934968Y-71433493D01*
X99936828Y-71434360D01*
X99939605Y-71435367D01*
X99941517Y-71436546D01*
X99941518Y-71436547D01*
X100102393Y-71489855D01*
X100201683Y-71499999D01*
X100750000Y-71499999D01*
X100798308Y-71499999D01*
X100798322Y-71499998D01*
X100897607Y-71489855D01*
X101058481Y-71436547D01*
X101058492Y-71436542D01*
X101202728Y-71347575D01*
X101202732Y-71347572D01*
X101322572Y-71227732D01*
X101322575Y-71227728D01*
X101411542Y-71083492D01*
X101411547Y-71083481D01*
X101464855Y-70922606D01*
X101474999Y-70823322D01*
X101475000Y-70823309D01*
X101475000Y-70800000D01*
X100750000Y-70800000D01*
X100750000Y-71499999D01*
X100201683Y-71499999D01*
X100249999Y-71499998D01*
X100250000Y-71499998D01*
X100250000Y-70773322D01*
X104300001Y-70773322D01*
X104310144Y-70872607D01*
X104363452Y-71033481D01*
X104363457Y-71033492D01*
X104452424Y-71177728D01*
X104452427Y-71177732D01*
X104572267Y-71297572D01*
X104572271Y-71297575D01*
X104716507Y-71386542D01*
X104716518Y-71386547D01*
X104877393Y-71439855D01*
X104976683Y-71449999D01*
X105199999Y-71449999D01*
X105200000Y-71449998D01*
X105200000Y-70750000D01*
X104300001Y-70750000D01*
X104300001Y-70773322D01*
X100250000Y-70773322D01*
X100250000Y-70674000D01*
X100269685Y-70606961D01*
X100322489Y-70561206D01*
X100374000Y-70550000D01*
X100500000Y-70550000D01*
X100500000Y-70424000D01*
X100519685Y-70356961D01*
X100572489Y-70311206D01*
X100624000Y-70300000D01*
X101217788Y-70300000D01*
X101269300Y-70311206D01*
X101357581Y-70351523D01*
X101357582Y-70351523D01*
X101357584Y-70351524D01*
X101500000Y-70372000D01*
X101500003Y-70372000D01*
X104625000Y-70372000D01*
X104696940Y-70366855D01*
X104834992Y-70326319D01*
X104923116Y-70269685D01*
X104990156Y-70250000D01*
X105326000Y-70250000D01*
X105393039Y-70269685D01*
X105438794Y-70322489D01*
X105450000Y-70374000D01*
X105450000Y-70500000D01*
X105576000Y-70500000D01*
X105643039Y-70519685D01*
X105688794Y-70572489D01*
X105700000Y-70624000D01*
X105700000Y-71449999D01*
X105923308Y-71449999D01*
X105923322Y-71449998D01*
X106022607Y-71439855D01*
X106183481Y-71386547D01*
X106183492Y-71386542D01*
X106327728Y-71297575D01*
X106327732Y-71297572D01*
X106447573Y-71177731D01*
X106461457Y-71155222D01*
X106485997Y-71133148D01*
X106509793Y-71110301D01*
X106511846Y-71109897D01*
X106513404Y-71108497D01*
X106545981Y-71103195D01*
X106578354Y-71096839D01*
X106580300Y-71097610D01*
X106582367Y-71097274D01*
X106612643Y-71110428D01*
X106643308Y-71122582D01*
X106645023Y-71124497D01*
X106646449Y-71125117D01*
X106667753Y-71148040D01*
X106670263Y-71151539D01*
X106702032Y-71203044D01*
X106720351Y-71221363D01*
X106726257Y-71229596D01*
X106734585Y-71253392D01*
X106746666Y-71275516D01*
X106748589Y-71293403D01*
X106749338Y-71295543D01*
X106748980Y-71297040D01*
X106749500Y-71301874D01*
X106749500Y-72937769D01*
X106729815Y-73004808D01*
X106713181Y-73025450D01*
X106325449Y-73413181D01*
X106264126Y-73446666D01*
X106237771Y-73449500D01*
X106202131Y-73449500D01*
X106202122Y-73449501D01*
X106142516Y-73455908D01*
X106007671Y-73506202D01*
X106007664Y-73506206D01*
X105892455Y-73592452D01*
X105892452Y-73592455D01*
X105806206Y-73707664D01*
X105806202Y-73707671D01*
X105755908Y-73842517D01*
X105749501Y-73902116D01*
X105749500Y-73902135D01*
X105749500Y-75097870D01*
X105749501Y-75097876D01*
X105755908Y-75157483D01*
X105806202Y-75292328D01*
X105806206Y-75292335D01*
X105892452Y-75407544D01*
X105892455Y-75407547D01*
X106007664Y-75493793D01*
X106007671Y-75493797D01*
X106031362Y-75502633D01*
X106142517Y-75544091D01*
X106202127Y-75550500D01*
X106797872Y-75550499D01*
X106857483Y-75544091D01*
X106992331Y-75493796D01*
X107107546Y-75407546D01*
X107193796Y-75292331D01*
X107244091Y-75157483D01*
X107250500Y-75097873D01*
X107250499Y-74662228D01*
X107270183Y-74595190D01*
X107286814Y-74574552D01*
X107978413Y-73882953D01*
X107978416Y-73882952D01*
X108074550Y-73786818D01*
X108135874Y-73753333D01*
X108135878Y-73753333D01*
X108162230Y-73750500D01*
X108689126Y-73750500D01*
X108736578Y-73759939D01*
X108765798Y-73772042D01*
X108765803Y-73772044D01*
X108920916Y-73802898D01*
X108920919Y-73802899D01*
X108920921Y-73802899D01*
X109079081Y-73802899D01*
X109079082Y-73802898D01*
X109234197Y-73772044D01*
X109380315Y-73711520D01*
X109511818Y-73623652D01*
X109623652Y-73511818D01*
X109711520Y-73380315D01*
X109772044Y-73234197D01*
X109802899Y-73079079D01*
X109802899Y-72920921D01*
X109802899Y-72920918D01*
X109802898Y-72920916D01*
X109772045Y-72765810D01*
X109772044Y-72765803D01*
X109711520Y-72619685D01*
X109682098Y-72575653D01*
X109623652Y-72488181D01*
X109511818Y-72376347D01*
X109380312Y-72288478D01*
X109380310Y-72288477D01*
X109234201Y-72227957D01*
X109234189Y-72227954D01*
X109079082Y-72197101D01*
X109079079Y-72197101D01*
X108920921Y-72197101D01*
X108920918Y-72197101D01*
X108765810Y-72227954D01*
X108765798Y-72227957D01*
X108736578Y-72240061D01*
X108689126Y-72249500D01*
X108374500Y-72249500D01*
X108307461Y-72229815D01*
X108261706Y-72177011D01*
X108250500Y-72125500D01*
X108250500Y-71469640D01*
X108270185Y-71402601D01*
X108322989Y-71356846D01*
X108392147Y-71346902D01*
X108439598Y-71364102D01*
X108516511Y-71411544D01*
X108516518Y-71411547D01*
X108677393Y-71464855D01*
X108776683Y-71474999D01*
X109300000Y-71474999D01*
X109323308Y-71474999D01*
X109323322Y-71474998D01*
X109422607Y-71464855D01*
X109583481Y-71411547D01*
X109583492Y-71411542D01*
X109727728Y-71322575D01*
X109727732Y-71322572D01*
X109847572Y-71202732D01*
X109847575Y-71202728D01*
X109936542Y-71058492D01*
X109936547Y-71058481D01*
X109989855Y-70897606D01*
X109999999Y-70798322D01*
X110000000Y-70798309D01*
X110000000Y-70750000D01*
X109300000Y-70750000D01*
X109300000Y-71474999D01*
X108776683Y-71474999D01*
X108800000Y-71474998D01*
X108800000Y-70624000D01*
X108819685Y-70556961D01*
X108872489Y-70511206D01*
X108924000Y-70500000D01*
X109050000Y-70500000D01*
X109050000Y-70374000D01*
X109069685Y-70306961D01*
X109122489Y-70261206D01*
X109174000Y-70250000D01*
X109999999Y-70250000D01*
X109999999Y-70201692D01*
X109999998Y-70201677D01*
X109989855Y-70102392D01*
X109936547Y-69941518D01*
X109936542Y-69941507D01*
X109847575Y-69797271D01*
X109847572Y-69797267D01*
X109727732Y-69677427D01*
X109727728Y-69677424D01*
X109583492Y-69588457D01*
X109583481Y-69588452D01*
X109455312Y-69545981D01*
X109397867Y-69506208D01*
X109371044Y-69441692D01*
X109375240Y-69393679D01*
X109414578Y-69258279D01*
X109415230Y-69250000D01*
X108674000Y-69250000D01*
X108606961Y-69230315D01*
X108561206Y-69177511D01*
X108550000Y-69126000D01*
X108550000Y-68874000D01*
X108569685Y-68806961D01*
X108622489Y-68761206D01*
X108674000Y-68750000D01*
X109415230Y-68750000D01*
X109414578Y-68741720D01*
X109375240Y-68606320D01*
X109375439Y-68536450D01*
X109413381Y-68477780D01*
X109455313Y-68454018D01*
X109583479Y-68411548D01*
X109583492Y-68411542D01*
X109727728Y-68322575D01*
X109727732Y-68322572D01*
X109847572Y-68202732D01*
X109847575Y-68202728D01*
X109936542Y-68058492D01*
X109936547Y-68058481D01*
X109989855Y-67897606D01*
X109999999Y-67798322D01*
X110000000Y-67798309D01*
X110000000Y-67750000D01*
X109174000Y-67750000D01*
X109106961Y-67730315D01*
X109061206Y-67677511D01*
X109050000Y-67626000D01*
X109050000Y-67500000D01*
X108924000Y-67500000D01*
X108856961Y-67480315D01*
X108811206Y-67427511D01*
X108800000Y-67376000D01*
X108800000Y-67250000D01*
X109300000Y-67250000D01*
X109999999Y-67250000D01*
X109999999Y-67201692D01*
X109999998Y-67201677D01*
X109989855Y-67102392D01*
X109936547Y-66941518D01*
X109936544Y-66941511D01*
X109903905Y-66888596D01*
X109903904Y-66888594D01*
X109865694Y-66826647D01*
X110549500Y-66826647D01*
X110549500Y-68173337D01*
X110549501Y-68173355D01*
X110559650Y-68272707D01*
X110559651Y-68272710D01*
X110612996Y-68433694D01*
X110613001Y-68433705D01*
X110702029Y-68578040D01*
X110702032Y-68578044D01*
X110821955Y-68697967D01*
X110821959Y-68697970D01*
X110966294Y-68786998D01*
X110966297Y-68786999D01*
X110966303Y-68787003D01*
X111127292Y-68840349D01*
X111226655Y-68850500D01*
X111773344Y-68850499D01*
X111773352Y-68850498D01*
X111773355Y-68850498D01*
X111827760Y-68844940D01*
X111872708Y-68840349D01*
X112033697Y-68787003D01*
X112178044Y-68697968D01*
X112297968Y-68578044D01*
X112387003Y-68433697D01*
X112440349Y-68272708D01*
X112450500Y-68173345D01*
X112450499Y-66826656D01*
X112440349Y-66727292D01*
X112387003Y-66566303D01*
X112386999Y-66566297D01*
X112386998Y-66566294D01*
X112297970Y-66421959D01*
X112297967Y-66421955D01*
X112178044Y-66302032D01*
X112178040Y-66302029D01*
X112033705Y-66213001D01*
X112033699Y-66212998D01*
X112033697Y-66212997D01*
X112033694Y-66212996D01*
X111872709Y-66159651D01*
X111773346Y-66149500D01*
X111226662Y-66149500D01*
X111226644Y-66149501D01*
X111127292Y-66159650D01*
X111127289Y-66159651D01*
X110966305Y-66212996D01*
X110966294Y-66213001D01*
X110821959Y-66302029D01*
X110821955Y-66302032D01*
X110702032Y-66421955D01*
X110702029Y-66421959D01*
X110613001Y-66566294D01*
X110612996Y-66566305D01*
X110559651Y-66727290D01*
X110549500Y-66826647D01*
X109865694Y-66826647D01*
X109847575Y-66797271D01*
X109847572Y-66797267D01*
X109727732Y-66677427D01*
X109727728Y-66677424D01*
X109583492Y-66588457D01*
X109583481Y-66588452D01*
X109422606Y-66535144D01*
X109323322Y-66525000D01*
X109300000Y-66525000D01*
X109300000Y-67250000D01*
X108800000Y-67250000D01*
X108800000Y-66524999D01*
X108776693Y-66525000D01*
X108776674Y-66525001D01*
X108677392Y-66535144D01*
X108516518Y-66588452D01*
X108516507Y-66588457D01*
X108372271Y-66677424D01*
X108372265Y-66677428D01*
X108363031Y-66686663D01*
X108301707Y-66720146D01*
X108232015Y-66715159D01*
X108187672Y-66686660D01*
X108178044Y-66677032D01*
X108178040Y-66677029D01*
X108033705Y-66588001D01*
X108033699Y-66587998D01*
X108033697Y-66587997D01*
X108033694Y-66587996D01*
X107872709Y-66534651D01*
X107773346Y-66524500D01*
X107226662Y-66524500D01*
X107226644Y-66524501D01*
X107127292Y-66534650D01*
X107127289Y-66534651D01*
X106966305Y-66587996D01*
X106966294Y-66588001D01*
X106821959Y-66677029D01*
X106821955Y-66677032D01*
X106785807Y-66713181D01*
X106724484Y-66746666D01*
X106698126Y-66749500D01*
X106426874Y-66749500D01*
X106359835Y-66729815D01*
X106339193Y-66713181D01*
X106328044Y-66702032D01*
X106328040Y-66702029D01*
X106183705Y-66613001D01*
X106183699Y-66612998D01*
X106183697Y-66612997D01*
X106109640Y-66588457D01*
X106022709Y-66559651D01*
X105923346Y-66549500D01*
X104976662Y-66549500D01*
X104976644Y-66549501D01*
X104877292Y-66559650D01*
X104877289Y-66559651D01*
X104716305Y-66612996D01*
X104716294Y-66613001D01*
X104571959Y-66702029D01*
X104571955Y-66702032D01*
X104452032Y-66821955D01*
X104452029Y-66821959D01*
X104363001Y-66966294D01*
X104362996Y-66966305D01*
X104309651Y-67127290D01*
X104299500Y-67226648D01*
X104299500Y-67226655D01*
X104299500Y-67376000D01*
X104299501Y-67504000D01*
X104279817Y-67571039D01*
X104227013Y-67616794D01*
X104175501Y-67628000D01*
X101499997Y-67628000D01*
X101428059Y-67633144D01*
X101290005Y-67673682D01*
X101168969Y-67751467D01*
X101168965Y-67751471D01*
X101074750Y-67860200D01*
X101074743Y-67860210D01*
X101016768Y-67987157D01*
X100971013Y-68039961D01*
X100903973Y-68059645D01*
X100891372Y-68059003D01*
X100798347Y-68049500D01*
X100201662Y-68049500D01*
X100201644Y-68049501D01*
X100102292Y-68059650D01*
X100102289Y-68059651D01*
X99941305Y-68112996D01*
X99941294Y-68113001D01*
X99796959Y-68202029D01*
X99796955Y-68202032D01*
X99785807Y-68213181D01*
X99724484Y-68246666D01*
X99698126Y-68249500D01*
X96286495Y-68249500D01*
X96219456Y-68229815D01*
X96198814Y-68213181D01*
X96169657Y-68184024D01*
X96034362Y-68093624D01*
X95997598Y-68069059D01*
X95974885Y-68059651D01*
X95806420Y-67989870D01*
X95806412Y-67989868D01*
X95603469Y-67949500D01*
X95603465Y-67949500D01*
X95396535Y-67949500D01*
X95396530Y-67949500D01*
X95193587Y-67989868D01*
X95193579Y-67989870D01*
X95002403Y-68069058D01*
X94830342Y-68184024D01*
X94684024Y-68330342D01*
X94569058Y-68502403D01*
X94489870Y-68693579D01*
X94489868Y-68693587D01*
X94449500Y-68896530D01*
X90000000Y-68896530D01*
X90000000Y-65624000D01*
X90019685Y-65556961D01*
X90072489Y-65511206D01*
X90124000Y-65500000D01*
X116376000Y-65500000D01*
X116443039Y-65519685D01*
G37*
%TD.AperFunction*%
%TD*%
M02*
