%TF.GenerationSoftware,KiCad,Pcbnew,9.0.7*%
%TF.CreationDate,2026-04-29T22:25:01+02:00*%
%TF.ProjectId,usbC,75736243-2e6b-4696-9361-645f70636258,rev?*%
%TF.SameCoordinates,Original*%
%TF.FileFunction,Copper,L1,Top*%
%TF.FilePolarity,Positive*%
%FSLAX46Y46*%
G04 Gerber Fmt 4.6, Leading zero omitted, Abs format (unit mm)*
G04 Created by KiCad (PCBNEW 9.0.7) date 2026-04-29 22:25:01*
%MOMM*%
%LPD*%
G01*
G04 APERTURE LIST*
G04 Aperture macros list*
%AMRoundRect*
0 Rectangle with rounded corners*
0 $1 Rounding radius*
0 $2 $3 $4 $5 $6 $7 $8 $9 X,Y pos of 4 corners*
0 Add a 4 corners polygon primitive as box body*
4,1,4,$2,$3,$4,$5,$6,$7,$8,$9,$2,$3,0*
0 Add four circle primitives for the rounded corners*
1,1,$1+$1,$2,$3*
1,1,$1+$1,$4,$5*
1,1,$1+$1,$6,$7*
1,1,$1+$1,$8,$9*
0 Add four rect primitives between the rounded corners*
20,1,$1+$1,$2,$3,$4,$5,0*
20,1,$1+$1,$4,$5,$6,$7,0*
20,1,$1+$1,$6,$7,$8,$9,0*
20,1,$1+$1,$8,$9,$2,$3,0*%
%AMFreePoly0*
4,1,9,3.862500,-0.866500,0.737500,-0.866500,0.737500,-0.450000,-0.737500,-0.450000,-0.737500,0.450000,0.737500,0.450000,0.737500,0.866500,3.862500,0.866500,3.862500,-0.866500,3.862500,-0.866500,$1*%
G04 Aperture macros list end*
%TA.AperFunction,ComponentPad*%
%ADD10R,1.700000X1.700000*%
%TD*%
%TA.AperFunction,ComponentPad*%
%ADD11C,1.700000*%
%TD*%
%TA.AperFunction,ComponentPad*%
%ADD12C,1.100000*%
%TD*%
%TA.AperFunction,SMDPad,CuDef*%
%ADD13RoundRect,0.225000X-0.225000X-0.250000X0.225000X-0.250000X0.225000X0.250000X-0.225000X0.250000X0*%
%TD*%
%TA.AperFunction,SMDPad,CuDef*%
%ADD14RoundRect,0.150000X0.150000X-0.512500X0.150000X0.512500X-0.150000X0.512500X-0.150000X-0.512500X0*%
%TD*%
%TA.AperFunction,SMDPad,CuDef*%
%ADD15R,0.500000X1.100000*%
%TD*%
%TA.AperFunction,SMDPad,CuDef*%
%ADD16RoundRect,0.225000X0.425000X0.225000X-0.425000X0.225000X-0.425000X-0.225000X0.425000X-0.225000X0*%
%TD*%
%TA.AperFunction,SMDPad,CuDef*%
%ADD17FreePoly0,180.000000*%
%TD*%
%TA.AperFunction,SMDPad,CuDef*%
%ADD18RoundRect,0.155000X-0.212500X-0.155000X0.212500X-0.155000X0.212500X0.155000X-0.212500X0.155000X0*%
%TD*%
%TA.AperFunction,SMDPad,CuDef*%
%ADD19RoundRect,0.225000X0.250000X-0.225000X0.250000X0.225000X-0.250000X0.225000X-0.250000X-0.225000X0*%
%TD*%
%TA.AperFunction,SMDPad,CuDef*%
%ADD20R,0.300000X1.400000*%
%TD*%
%TA.AperFunction,SMDPad,CuDef*%
%ADD21R,0.500000X1.400000*%
%TD*%
%TA.AperFunction,ComponentPad*%
%ADD22O,1.300000X2.300000*%
%TD*%
%TA.AperFunction,ComponentPad*%
%ADD23O,1.300000X2.100000*%
%TD*%
%TA.AperFunction,ComponentPad*%
%ADD24C,0.500000*%
%TD*%
%TA.AperFunction,SMDPad,CuDef*%
%ADD25RoundRect,0.500000X-2.000000X-1.000000X2.000000X-1.000000X2.000000X1.000000X-2.000000X1.000000X0*%
%TD*%
%TA.AperFunction,SMDPad,CuDef*%
%ADD26RoundRect,0.250000X0.625000X-0.375000X0.625000X0.375000X-0.625000X0.375000X-0.625000X-0.375000X0*%
%TD*%
%TA.AperFunction,SMDPad,CuDef*%
%ADD27RoundRect,0.218750X-0.381250X0.218750X-0.381250X-0.218750X0.381250X-0.218750X0.381250X0.218750X0*%
%TD*%
%TA.AperFunction,SMDPad,CuDef*%
%ADD28RoundRect,0.150000X0.150000X0.475000X-0.150000X0.475000X-0.150000X-0.475000X0.150000X-0.475000X0*%
%TD*%
%TA.AperFunction,SMDPad,CuDef*%
%ADD29RoundRect,0.225000X0.225000X0.625000X-0.225000X0.625000X-0.225000X-0.625000X0.225000X-0.625000X0*%
%TD*%
%TA.AperFunction,ViaPad*%
%ADD30C,0.604799*%
%TD*%
%TA.AperFunction,Conductor*%
%ADD31C,0.500000*%
%TD*%
%TA.AperFunction,Conductor*%
%ADD32C,0.152400*%
%TD*%
%TA.AperFunction,Conductor*%
%ADD33C,0.300000*%
%TD*%
%TA.AperFunction,Conductor*%
%ADD34C,0.155814*%
%TD*%
G04 APERTURE END LIST*
D10*
%TO.P,J7,1,Pin_1*%
%TO.N,GND*%
X103500000Y-75500000D03*
D11*
%TO.P,J7,2,Pin_2*%
%TO.N,Net-(J7-Pin_2)*%
X103500000Y-78040000D03*
%TD*%
D10*
%TO.P,J6,1,Pin_1*%
%TO.N,/D+*%
X119000000Y-78725000D03*
D11*
%TO.P,J6,2,Pin_2*%
%TO.N,/D-*%
X119000000Y-81265000D03*
%TD*%
D12*
%TO.P,J1,1,Pin_1*%
%TO.N,VCC*%
X93000000Y-83000000D03*
%TO.P,J1,2,Pin_2*%
%TO.N,GND*%
X94500000Y-83000000D03*
%TD*%
D13*
%TO.P,C3,1*%
%TO.N,+5V*%
X107500000Y-70500000D03*
%TO.P,C3,2*%
%TO.N,GND*%
X109050000Y-70500000D03*
%TD*%
D14*
%TO.P,U1,1,I/O1*%
%TO.N,/D-*%
X113050000Y-76500000D03*
%TO.P,U1,2,GND*%
%TO.N,GND*%
X114000000Y-76500000D03*
%TO.P,U1,3,I/O2*%
%TO.N,/D+*%
X114950000Y-76500000D03*
%TO.P,U1,4,I/O2*%
%TO.N,Net-(J3-Pin_1)*%
X114950000Y-74225000D03*
%TO.P,U1,5,VBUS*%
%TO.N,+5V*%
X114000000Y-74225000D03*
%TO.P,U1,6,I/O1*%
%TO.N,Net-(J3-Pin_2)*%
X113050000Y-74225000D03*
%TD*%
D15*
%TO.P,D1,1,K*%
%TO.N,+5V*%
X106500000Y-74500000D03*
%TO.P,D1,2,A*%
%TO.N,Net-(D1-A)*%
X106500000Y-76850000D03*
%TD*%
D16*
%TO.P,U2,1,GND*%
%TO.N,GND*%
X105450000Y-70500000D03*
D17*
%TO.P,U2,2,VO*%
%TO.N,VCC*%
X105362500Y-69000000D03*
D16*
%TO.P,U2,3,VI*%
%TO.N,+5V*%
X105450000Y-67500000D03*
%TD*%
D12*
%TO.P,J5,1,Pin_1*%
%TO.N,VCC*%
X100000000Y-83000000D03*
%TO.P,J5,2,Pin_2*%
%TO.N,GND*%
X101500000Y-83000000D03*
%TD*%
%TO.P,J2,1,Pin_1*%
%TO.N,VCC*%
X94750000Y-71100000D03*
%TO.P,J2,2,Pin_2*%
%TO.N,GND*%
X93250000Y-71100000D03*
%TD*%
D18*
%TO.P,C2,1*%
%TO.N,+5V*%
X107415000Y-69000000D03*
%TO.P,C2,2*%
%TO.N,GND*%
X108550000Y-69000000D03*
%TD*%
D19*
%TO.P,C18,1*%
%TO.N,VCC*%
X100000000Y-69050000D03*
%TO.P,C18,2*%
%TO.N,GND*%
X100000000Y-67500000D03*
%TD*%
D20*
%TO.P,J9,A5,CC1*%
%TO.N,unconnected-(J9-CC1-PadA5)*%
X109250000Y-82500000D03*
%TO.P,J9,A6,D+*%
%TO.N,/D+*%
X110250000Y-82500000D03*
%TO.P,J9,A7,D-*%
%TO.N,/D-*%
X110750000Y-82500000D03*
%TO.P,J9,A8,SBU1*%
%TO.N,unconnected-(J9-SBU1-PadA8)*%
X111750000Y-82500000D03*
D21*
%TO.P,J9,A9B4,VBUS*%
%TO.N,Net-(J7-Pin_2)*%
X112900000Y-82500000D03*
%TO.P,J9,A12B1,GND*%
%TO.N,GND*%
X113700000Y-82500000D03*
D20*
%TO.P,J9,B5,CC2*%
%TO.N,unconnected-(J9-CC2-PadB5)*%
X112250000Y-82500000D03*
%TO.P,J9,B6,D+*%
%TO.N,/D+*%
X111250000Y-82500000D03*
%TO.P,J9,B7,D-*%
%TO.N,/D-*%
X109750000Y-82500000D03*
%TO.P,J9,B8,SBU2*%
%TO.N,unconnected-(J9-SBU2-PadB8)*%
X108750000Y-82500000D03*
D21*
%TO.P,J9,B9A4,VBUS*%
%TO.N,Net-(J7-Pin_2)*%
X108100000Y-82500000D03*
%TO.P,J9,B12A1,GND*%
%TO.N,GND*%
X107300000Y-82500000D03*
D22*
%TO.P,J9,S1,SHIELD*%
X106170000Y-83180000D03*
D23*
X106170000Y-87380000D03*
D24*
X108500000Y-86000000D03*
X108500000Y-88000000D03*
D25*
X110500000Y-87000000D03*
D24*
X112500000Y-86000000D03*
X112500000Y-88000000D03*
D22*
X114830000Y-83180000D03*
D23*
X114830000Y-87380000D03*
%TD*%
D26*
%TO.P,F1,1*%
%TO.N,Net-(J7-Pin_2)*%
X111000000Y-77800000D03*
%TO.P,F1,2*%
%TO.N,Net-(F1-Pad2)*%
X111000000Y-75000000D03*
%TD*%
D27*
%TO.P,FB1,1*%
%TO.N,Net-(F1-Pad2)*%
X109000000Y-75000000D03*
%TO.P,FB1,2*%
%TO.N,Net-(D1-A)*%
X109000000Y-77125000D03*
%TD*%
D28*
%TO.P,J3,1,Pin_1*%
%TO.N,Net-(J3-Pin_1)*%
X113950000Y-70625000D03*
%TO.P,J3,2,Pin_2*%
%TO.N,Net-(J3-Pin_2)*%
X112950000Y-70625000D03*
D29*
%TO.P,J3,MP*%
%TO.N,N/C*%
X115400000Y-67500000D03*
X111500000Y-67500000D03*
%TD*%
D13*
%TO.P,C17,1*%
%TO.N,+5V*%
X107500000Y-67500000D03*
%TO.P,C17,2*%
%TO.N,GND*%
X109050000Y-67500000D03*
%TD*%
D30*
%TO.N,GND*%
X114500000Y-81500000D03*
X95000000Y-79000000D03*
X93500000Y-75000000D03*
X105450000Y-71950000D03*
X110500000Y-70500000D03*
X116000000Y-85000000D03*
X104500000Y-83500000D03*
X110000000Y-69000000D03*
X100000000Y-66500000D03*
X114000000Y-78000000D03*
%TO.N,+5V*%
X109000000Y-73000000D03*
X114000000Y-72500000D03*
%TO.N,/D-*%
X110500000Y-81000000D03*
X113000000Y-78500000D03*
%TO.N,/D+*%
X110500000Y-84000000D03*
X115000000Y-78500000D03*
%TD*%
D31*
%TO.N,GND*%
X114000000Y-81500000D02*
X114500000Y-81500000D01*
X113700000Y-81800000D02*
X114000000Y-81500000D01*
X113700000Y-82500000D02*
X113700000Y-81800000D01*
X105450000Y-71550000D02*
X103500000Y-73500000D01*
X105450000Y-71500000D02*
X105450000Y-71950000D01*
X105450000Y-71500000D02*
X105450000Y-71550000D01*
X103500000Y-73500000D02*
X103500000Y-75500000D01*
%TO.N,Net-(J7-Pin_2)*%
X108100000Y-81100000D02*
X106500000Y-79500000D01*
X106500000Y-79500000D02*
X104960000Y-79500000D01*
X104960000Y-79500000D02*
X103500000Y-78040000D01*
X108100000Y-81400000D02*
X108100000Y-81100000D01*
D32*
%TO.N,VCC*%
X100050000Y-69000000D02*
X100000000Y-69050000D01*
X105362500Y-69000000D02*
X100050000Y-69000000D01*
D31*
%TO.N,GND*%
X94500000Y-79500000D02*
X95000000Y-79000000D01*
X94500000Y-83000000D02*
X94500000Y-79500000D01*
X93250000Y-74750000D02*
X93500000Y-75000000D01*
X93250000Y-71100000D02*
X93250000Y-74750000D01*
%TO.N,VCC*%
X99500000Y-74500000D02*
X100000000Y-74500000D01*
X95000000Y-75500000D02*
X98500000Y-75500000D01*
X98500000Y-75500000D02*
X99500000Y-74500000D01*
X100000000Y-74500000D02*
X100000000Y-83000000D01*
X93000000Y-77500000D02*
X95000000Y-75500000D01*
X93000000Y-83000000D02*
X93000000Y-77500000D01*
X99400000Y-71100000D02*
X100000000Y-70500000D01*
X94750000Y-71100000D02*
X99400000Y-71100000D01*
X100000000Y-70500000D02*
X100000000Y-74500000D01*
X100000000Y-69050000D02*
X100000000Y-70500000D01*
D33*
%TO.N,/D+*%
X115225000Y-78725000D02*
X119000000Y-78725000D01*
X115000000Y-78500000D02*
X115225000Y-78725000D01*
%TO.N,/D-*%
X113000000Y-78500000D02*
X115620000Y-81120000D01*
D31*
%TO.N,GND*%
X110120000Y-87380000D02*
X110500000Y-87000000D01*
X100000000Y-67500000D02*
X100000000Y-66500000D01*
X115750000Y-85250000D02*
X116000000Y-85000000D01*
X109050000Y-70500000D02*
X109050000Y-69500000D01*
X104500000Y-83500000D02*
X104500000Y-85710000D01*
X104500000Y-85710000D02*
X105645000Y-86855000D01*
X109050000Y-69500000D02*
X108550000Y-69000000D01*
X105645000Y-86855000D02*
X106170000Y-87380000D01*
D32*
X106850000Y-82500000D02*
X106170000Y-83180000D01*
X107300000Y-82500000D02*
X106850000Y-82500000D01*
D31*
X114830000Y-87380000D02*
X110880000Y-87380000D01*
X104820000Y-83180000D02*
X104500000Y-83500000D01*
X116000000Y-85000000D02*
X116000000Y-84350000D01*
X109050000Y-70500000D02*
X110500000Y-70500000D01*
X114000000Y-78000000D02*
X114000000Y-76500000D01*
X106170000Y-87380000D02*
X110120000Y-87380000D01*
X108550000Y-69000000D02*
X110000000Y-69000000D01*
X108550000Y-68000000D02*
X109050000Y-67500000D01*
X108550000Y-69000000D02*
X108550000Y-68000000D01*
X106170000Y-83180000D02*
X104820000Y-83180000D01*
X110880000Y-87380000D02*
X110500000Y-87000000D01*
X114830000Y-86170000D02*
X115750000Y-85250000D01*
X114830000Y-87380000D02*
X114830000Y-86170000D01*
X105450000Y-70500000D02*
X105450000Y-71500000D01*
D32*
X105450000Y-71950000D02*
X105500000Y-72000000D01*
D31*
X116000000Y-84350000D02*
X114830000Y-83180000D01*
%TO.N,Net-(J3-Pin_2)*%
X113050000Y-74225000D02*
X113050000Y-73050000D01*
X112950000Y-72950000D02*
X112950000Y-70625000D01*
X113050000Y-73050000D02*
X112950000Y-72950000D01*
D32*
X113050000Y-70725000D02*
X112950000Y-70625000D01*
D31*
%TO.N,Net-(J3-Pin_1)*%
X114950000Y-74225000D02*
X114950000Y-71625000D01*
X114950000Y-71625000D02*
X113950000Y-70625000D01*
%TO.N,VCC*%
X105312500Y-69050000D02*
X105362500Y-69000000D01*
%TO.N,Net-(D1-A)*%
X106775000Y-77125000D02*
X106500000Y-76850000D01*
X109000000Y-77125000D02*
X106775000Y-77125000D01*
%TO.N,+5V*%
X106500000Y-74500000D02*
X106500000Y-74300000D01*
X114000000Y-74225000D02*
X114000000Y-72500000D01*
X107415000Y-69915000D02*
X107415000Y-69000000D01*
X107500000Y-70500000D02*
X107500000Y-70000000D01*
X107415000Y-69000000D02*
X107415000Y-67585000D01*
X109000000Y-73000000D02*
X107800000Y-73000000D01*
X105450000Y-67500000D02*
X107500000Y-67500000D01*
D32*
X107415000Y-67585000D02*
X107500000Y-67500000D01*
D31*
X107500000Y-70500000D02*
X107500000Y-73300000D01*
D32*
X107500000Y-70000000D02*
X107415000Y-69915000D01*
D31*
X107500000Y-73300000D02*
X107800000Y-73000000D01*
X106500000Y-74300000D02*
X107500000Y-73300000D01*
%TO.N,Net-(F1-Pad2)*%
X111000000Y-75000000D02*
X109000000Y-75000000D01*
D34*
%TO.N,/D-*%
X113000000Y-78500000D02*
X113050000Y-78450000D01*
D33*
X113050000Y-78450000D02*
X113050000Y-76500000D01*
X109750000Y-81250000D02*
X109750000Y-82500000D01*
X110000000Y-81000000D02*
X109750000Y-81250000D01*
X110500000Y-81000000D02*
X110000000Y-81000000D01*
X110750000Y-82500000D02*
X110750000Y-81250000D01*
X110750000Y-81250000D02*
X110500000Y-81000000D01*
%TO.N,/D+*%
X111250000Y-83750000D02*
X111250000Y-82500000D01*
X110250000Y-83750000D02*
X110500000Y-84000000D01*
X110500000Y-84000000D02*
X111000000Y-84000000D01*
X114950000Y-77950000D02*
X114950000Y-76500000D01*
X115000000Y-78500000D02*
X115000000Y-78000000D01*
X110250000Y-82500000D02*
X110250000Y-83750000D01*
D34*
X115000000Y-78000000D02*
X114950000Y-77950000D01*
D33*
X111000000Y-84000000D02*
X111250000Y-83750000D01*
D31*
%TO.N,Net-(J7-Pin_2)*%
X108100000Y-81400000D02*
X111000000Y-78500000D01*
X111000000Y-78500000D02*
X111000000Y-77800000D01*
X112900000Y-79700000D02*
X111000000Y-77800000D01*
X108100000Y-82500000D02*
X108100000Y-81400000D01*
X112900000Y-82500000D02*
X112900000Y-79700000D01*
D33*
%TO.N,/D-*%
X115620000Y-81120000D02*
X119000000Y-81120000D01*
%TD*%
%TA.AperFunction,Conductor*%
%TO.N,GND*%
G36*
X113855703Y-80276095D02*
G01*
X113862181Y-80282127D01*
X115043681Y-81463627D01*
X115077166Y-81524950D01*
X115080000Y-81551308D01*
X115080000Y-82580272D01*
X115041940Y-82488386D01*
X114971614Y-82418060D01*
X114879728Y-82380000D01*
X114780272Y-82380000D01*
X114688386Y-82418060D01*
X114618060Y-82488386D01*
X114580000Y-82580272D01*
X114580000Y-81555260D01*
X114560714Y-81558315D01*
X114560704Y-81558318D01*
X114510740Y-81574552D01*
X114440899Y-81576547D01*
X114381066Y-81540466D01*
X114373156Y-81530932D01*
X114307186Y-81442809D01*
X114192093Y-81356649D01*
X114192086Y-81356645D01*
X114057379Y-81306403D01*
X114057372Y-81306401D01*
X113997844Y-81300000D01*
X113950000Y-81300000D01*
X113950000Y-82376000D01*
X113947449Y-82384685D01*
X113948738Y-82393647D01*
X113937759Y-82417687D01*
X113930315Y-82443039D01*
X113923474Y-82448966D01*
X113919713Y-82457203D01*
X113897478Y-82471492D01*
X113877511Y-82488794D01*
X113866996Y-82491081D01*
X113860935Y-82494977D01*
X113826000Y-82500000D01*
X113774500Y-82500000D01*
X113707461Y-82480315D01*
X113661706Y-82427511D01*
X113650500Y-82376000D01*
X113650500Y-80369808D01*
X113670185Y-80302769D01*
X113722989Y-80257014D01*
X113792147Y-80247070D01*
X113855703Y-80276095D01*
G37*
%TD.AperFunction*%
%TA.AperFunction,Conductor*%
G36*
X114092539Y-76519685D02*
G01*
X114138294Y-76572489D01*
X114149500Y-76624000D01*
X114149500Y-77078201D01*
X114152401Y-77115067D01*
X114152402Y-77115073D01*
X114198254Y-77272893D01*
X114198255Y-77272896D01*
X114198256Y-77272898D01*
X114232732Y-77331194D01*
X114250000Y-77394314D01*
X114250000Y-77659795D01*
X114259671Y-77668735D01*
X114295538Y-77728696D01*
X114299500Y-77759791D01*
X114299500Y-78014070D01*
X114303166Y-78032502D01*
X114296937Y-78102093D01*
X114290909Y-78115139D01*
X114288479Y-78119684D01*
X114227957Y-78265798D01*
X114227954Y-78265810D01*
X114197101Y-78420916D01*
X114197101Y-78477793D01*
X114190862Y-78499038D01*
X114189283Y-78521127D01*
X114181210Y-78531910D01*
X114177416Y-78544832D01*
X114160682Y-78559331D01*
X114147411Y-78577060D01*
X114134790Y-78581767D01*
X114124612Y-78590587D01*
X114102694Y-78593738D01*
X114081947Y-78601477D01*
X114068786Y-78598614D01*
X114055454Y-78600531D01*
X114035310Y-78591331D01*
X114013674Y-78586625D01*
X113995948Y-78573356D01*
X113991898Y-78571506D01*
X113985420Y-78565474D01*
X113820068Y-78400122D01*
X113786583Y-78338799D01*
X113786157Y-78336757D01*
X113772044Y-78265803D01*
X113711520Y-78119685D01*
X113709939Y-78115868D01*
X113700500Y-78068415D01*
X113700500Y-77759791D01*
X113720185Y-77692752D01*
X113740329Y-77668735D01*
X113750000Y-77659795D01*
X113750000Y-77394314D01*
X113767267Y-77331194D01*
X113801744Y-77272898D01*
X113847598Y-77115069D01*
X113850500Y-77078194D01*
X113850500Y-76624000D01*
X113853050Y-76615314D01*
X113851762Y-76606353D01*
X113862740Y-76582312D01*
X113870185Y-76556961D01*
X113877025Y-76551033D01*
X113880787Y-76542797D01*
X113903021Y-76528507D01*
X113922989Y-76511206D01*
X113933503Y-76508918D01*
X113939565Y-76505023D01*
X113974500Y-76500000D01*
X114025500Y-76500000D01*
X114092539Y-76519685D01*
G37*
%TD.AperFunction*%
%TA.AperFunction,Conductor*%
G36*
X120943039Y-65519685D02*
G01*
X120988794Y-65572489D01*
X121000000Y-65624000D01*
X121000000Y-89376000D01*
X120980315Y-89443039D01*
X120927511Y-89488794D01*
X120876000Y-89500000D01*
X90124000Y-89500000D01*
X90056961Y-89480315D01*
X90011206Y-89427511D01*
X90000000Y-89376000D01*
X90000000Y-86889493D01*
X105020000Y-86889493D01*
X105020000Y-87130000D01*
X105920000Y-87130000D01*
X105920000Y-87630000D01*
X105020000Y-87630000D01*
X105020000Y-87870506D01*
X105048317Y-88049293D01*
X105104251Y-88221444D01*
X105104252Y-88221447D01*
X105186434Y-88382734D01*
X105292823Y-88529169D01*
X105420830Y-88657176D01*
X105567265Y-88763565D01*
X105728552Y-88845747D01*
X105728555Y-88845748D01*
X105900699Y-88901680D01*
X105900712Y-88901683D01*
X105920000Y-88904738D01*
X105920000Y-87829728D01*
X105958060Y-87921614D01*
X106028386Y-87991940D01*
X106120272Y-88030000D01*
X106219728Y-88030000D01*
X106311614Y-87991940D01*
X106381940Y-87921614D01*
X106420000Y-87829728D01*
X106420000Y-88904737D01*
X106439287Y-88901683D01*
X106439300Y-88901680D01*
X106611444Y-88845748D01*
X106611447Y-88845747D01*
X106772734Y-88763565D01*
X106919169Y-88657176D01*
X107047176Y-88529169D01*
X107153565Y-88382734D01*
X107221198Y-88250000D01*
X107791759Y-88250000D01*
X107835357Y-88355254D01*
X107835362Y-88355264D01*
X107917436Y-88478096D01*
X107917439Y-88478100D01*
X108021899Y-88582560D01*
X108021907Y-88582566D01*
X108144739Y-88664640D01*
X108144743Y-88664642D01*
X108249999Y-88708240D01*
X108250000Y-88708240D01*
X108750000Y-88708240D01*
X108855256Y-88664642D01*
X108855260Y-88664640D01*
X108978092Y-88582566D01*
X108978100Y-88582560D01*
X109082560Y-88478100D01*
X109082563Y-88478096D01*
X109164637Y-88355264D01*
X109164642Y-88355254D01*
X109208241Y-88250000D01*
X111791759Y-88250000D01*
X111835357Y-88355254D01*
X111835362Y-88355264D01*
X111917436Y-88478096D01*
X111917439Y-88478100D01*
X112021899Y-88582560D01*
X112021907Y-88582566D01*
X112144739Y-88664640D01*
X112144743Y-88664642D01*
X112249999Y-88708240D01*
X112250000Y-88708240D01*
X112750000Y-88708240D01*
X112855256Y-88664642D01*
X112855260Y-88664640D01*
X112978092Y-88582566D01*
X112978100Y-88582560D01*
X113082560Y-88478100D01*
X113082563Y-88478096D01*
X113164637Y-88355264D01*
X113164642Y-88355254D01*
X113208241Y-88250000D01*
X112750000Y-88250000D01*
X112750000Y-88708240D01*
X112250000Y-88708240D01*
X112250000Y-88250000D01*
X111791759Y-88250000D01*
X109208241Y-88250000D01*
X108750000Y-88250000D01*
X108750000Y-88708240D01*
X108250000Y-88708240D01*
X108250000Y-88250000D01*
X107791759Y-88250000D01*
X107221198Y-88250000D01*
X107235747Y-88221447D01*
X107235748Y-88221444D01*
X107243398Y-88197901D01*
X107291682Y-88049293D01*
X107304215Y-87970163D01*
X108350000Y-87970163D01*
X108350000Y-88029837D01*
X108372836Y-88084968D01*
X108415032Y-88127164D01*
X108470163Y-88150000D01*
X108529837Y-88150000D01*
X108584968Y-88127164D01*
X108627164Y-88084968D01*
X108650000Y-88029837D01*
X108650000Y-87970163D01*
X112350000Y-87970163D01*
X112350000Y-88029837D01*
X112372836Y-88084968D01*
X112415032Y-88127164D01*
X112470163Y-88150000D01*
X112529837Y-88150000D01*
X112584968Y-88127164D01*
X112627164Y-88084968D01*
X112650000Y-88029837D01*
X112650000Y-87970163D01*
X112627164Y-87915032D01*
X112584968Y-87872836D01*
X112529837Y-87850000D01*
X112470163Y-87850000D01*
X112415032Y-87872836D01*
X112372836Y-87915032D01*
X112350000Y-87970163D01*
X108650000Y-87970163D01*
X108627164Y-87915032D01*
X108584968Y-87872836D01*
X108529837Y-87850000D01*
X108470163Y-87850000D01*
X108415032Y-87872836D01*
X108372836Y-87915032D01*
X108350000Y-87970163D01*
X107304215Y-87970163D01*
X107320000Y-87870506D01*
X107320000Y-87749999D01*
X107791759Y-87749999D01*
X107791759Y-87750000D01*
X108250000Y-87750000D01*
X108750000Y-87750000D01*
X109208241Y-87750000D01*
X109208240Y-87749999D01*
X111791759Y-87749999D01*
X111791759Y-87750000D01*
X112250000Y-87750000D01*
X112750000Y-87750000D01*
X113208241Y-87750000D01*
X113208240Y-87749999D01*
X113164642Y-87644745D01*
X113164637Y-87644734D01*
X113082563Y-87521903D01*
X113082560Y-87521899D01*
X112978100Y-87417439D01*
X112978096Y-87417436D01*
X112855264Y-87335362D01*
X112855254Y-87335357D01*
X112750000Y-87291759D01*
X112750000Y-87750000D01*
X112250000Y-87750000D01*
X112250000Y-87291759D01*
X112249999Y-87291759D01*
X112144745Y-87335357D01*
X112144735Y-87335362D01*
X112021903Y-87417436D01*
X112021899Y-87417439D01*
X111917439Y-87521899D01*
X111917436Y-87521903D01*
X111835362Y-87644735D01*
X111835357Y-87644745D01*
X111791759Y-87749999D01*
X109208240Y-87749999D01*
X109164642Y-87644745D01*
X109164637Y-87644735D01*
X109082563Y-87521903D01*
X109082560Y-87521899D01*
X108978100Y-87417439D01*
X108978096Y-87417436D01*
X108855264Y-87335362D01*
X108855254Y-87335357D01*
X108750000Y-87291759D01*
X108750000Y-87750000D01*
X108250000Y-87750000D01*
X108250000Y-87291759D01*
X108249999Y-87291759D01*
X108144745Y-87335357D01*
X108144735Y-87335362D01*
X108021903Y-87417436D01*
X108021899Y-87417439D01*
X107917439Y-87521899D01*
X107917436Y-87521903D01*
X107835362Y-87644735D01*
X107835357Y-87644745D01*
X107791759Y-87749999D01*
X107320000Y-87749999D01*
X107320000Y-87630000D01*
X106420000Y-87630000D01*
X106420000Y-87130000D01*
X107320000Y-87130000D01*
X107320000Y-86889493D01*
X113680000Y-86889493D01*
X113680000Y-87130000D01*
X114580000Y-87130000D01*
X114580000Y-87630000D01*
X113680000Y-87630000D01*
X113680000Y-87870506D01*
X113708317Y-88049293D01*
X113764251Y-88221444D01*
X113764252Y-88221447D01*
X113846434Y-88382734D01*
X113952823Y-88529169D01*
X114080830Y-88657176D01*
X114227265Y-88763565D01*
X114388552Y-88845747D01*
X114388555Y-88845748D01*
X114560699Y-88901680D01*
X114560712Y-88901683D01*
X114580000Y-88904738D01*
X114580000Y-87829728D01*
X114618060Y-87921614D01*
X114688386Y-87991940D01*
X114780272Y-88030000D01*
X114879728Y-88030000D01*
X114971614Y-87991940D01*
X115041940Y-87921614D01*
X115080000Y-87829728D01*
X115080000Y-88904737D01*
X115099287Y-88901683D01*
X115099300Y-88901680D01*
X115271444Y-88845748D01*
X115271447Y-88845747D01*
X115432734Y-88763565D01*
X115579169Y-88657176D01*
X115707176Y-88529169D01*
X115813565Y-88382734D01*
X115895747Y-88221447D01*
X115895748Y-88221444D01*
X115951682Y-88049293D01*
X115980000Y-87870506D01*
X115980000Y-87630000D01*
X115080000Y-87630000D01*
X115080000Y-87130000D01*
X115980000Y-87130000D01*
X115980000Y-86889493D01*
X115951682Y-86710706D01*
X115895748Y-86538555D01*
X115895747Y-86538552D01*
X115813565Y-86377265D01*
X115707176Y-86230830D01*
X115579169Y-86102823D01*
X115432734Y-85996434D01*
X115271447Y-85914252D01*
X115271441Y-85914250D01*
X115099295Y-85858318D01*
X115099285Y-85858315D01*
X115080000Y-85855260D01*
X115080000Y-86930272D01*
X115041940Y-86838386D01*
X114971614Y-86768060D01*
X114879728Y-86730000D01*
X114780272Y-86730000D01*
X114688386Y-86768060D01*
X114618060Y-86838386D01*
X114580000Y-86930272D01*
X114580000Y-85855260D01*
X114560714Y-85858315D01*
X114560704Y-85858318D01*
X114388558Y-85914250D01*
X114388552Y-85914252D01*
X114227265Y-85996434D01*
X114080830Y-86102823D01*
X113952823Y-86230830D01*
X113846434Y-86377265D01*
X113764252Y-86538552D01*
X113764251Y-86538555D01*
X113708317Y-86710706D01*
X113680000Y-86889493D01*
X107320000Y-86889493D01*
X107291682Y-86710706D01*
X107235748Y-86538555D01*
X107235747Y-86538552D01*
X107153565Y-86377265D01*
X107104046Y-86309107D01*
X107104043Y-86309104D01*
X107061102Y-86250000D01*
X107791759Y-86250000D01*
X107835357Y-86355254D01*
X107835362Y-86355264D01*
X107917436Y-86478096D01*
X107917439Y-86478100D01*
X108021899Y-86582560D01*
X108021907Y-86582566D01*
X108144739Y-86664640D01*
X108144743Y-86664642D01*
X108249999Y-86708240D01*
X108250000Y-86708240D01*
X108750000Y-86708240D01*
X108855256Y-86664642D01*
X108855260Y-86664640D01*
X108978092Y-86582566D01*
X108978100Y-86582560D01*
X109082560Y-86478100D01*
X109082563Y-86478096D01*
X109164637Y-86355264D01*
X109164642Y-86355254D01*
X109208241Y-86250000D01*
X111791759Y-86250000D01*
X111835357Y-86355254D01*
X111835362Y-86355264D01*
X111917436Y-86478096D01*
X111917439Y-86478100D01*
X112021899Y-86582560D01*
X112021907Y-86582566D01*
X112144739Y-86664640D01*
X112144743Y-86664642D01*
X112249999Y-86708240D01*
X112250000Y-86708240D01*
X112750000Y-86708240D01*
X112855256Y-86664642D01*
X112855260Y-86664640D01*
X112978092Y-86582566D01*
X112978100Y-86582560D01*
X113082560Y-86478100D01*
X113082563Y-86478096D01*
X113164637Y-86355264D01*
X113164642Y-86355254D01*
X113208241Y-86250000D01*
X112750000Y-86250000D01*
X112750000Y-86708240D01*
X112250000Y-86708240D01*
X112250000Y-86250000D01*
X111791759Y-86250000D01*
X109208241Y-86250000D01*
X108750000Y-86250000D01*
X108750000Y-86708240D01*
X108250000Y-86708240D01*
X108250000Y-86250000D01*
X107791759Y-86250000D01*
X107061102Y-86250000D01*
X107047170Y-86230824D01*
X106919169Y-86102823D01*
X106772734Y-85996434D01*
X106721176Y-85970163D01*
X108350000Y-85970163D01*
X108350000Y-86029837D01*
X108372836Y-86084968D01*
X108415032Y-86127164D01*
X108470163Y-86150000D01*
X108529837Y-86150000D01*
X108584968Y-86127164D01*
X108627164Y-86084968D01*
X108650000Y-86029837D01*
X108650000Y-85970163D01*
X112350000Y-85970163D01*
X112350000Y-86029837D01*
X112372836Y-86084968D01*
X112415032Y-86127164D01*
X112470163Y-86150000D01*
X112529837Y-86150000D01*
X112584968Y-86127164D01*
X112627164Y-86084968D01*
X112650000Y-86029837D01*
X112650000Y-85970163D01*
X112627164Y-85915032D01*
X112584968Y-85872836D01*
X112529837Y-85850000D01*
X112470163Y-85850000D01*
X112415032Y-85872836D01*
X112372836Y-85915032D01*
X112350000Y-85970163D01*
X108650000Y-85970163D01*
X108627164Y-85915032D01*
X108584968Y-85872836D01*
X108529837Y-85850000D01*
X108470163Y-85850000D01*
X108415032Y-85872836D01*
X108372836Y-85915032D01*
X108350000Y-85970163D01*
X106721176Y-85970163D01*
X106611447Y-85914252D01*
X106611441Y-85914250D01*
X106511296Y-85881712D01*
X106439295Y-85858318D01*
X106439285Y-85858315D01*
X106420000Y-85855260D01*
X106420000Y-86930272D01*
X106381940Y-86838386D01*
X106311614Y-86768060D01*
X106219728Y-86730000D01*
X106120272Y-86730000D01*
X106028386Y-86768060D01*
X105958060Y-86838386D01*
X105920000Y-86930272D01*
X105920000Y-85855260D01*
X105900714Y-85858315D01*
X105900704Y-85858318D01*
X105728558Y-85914250D01*
X105728552Y-85914252D01*
X105567265Y-85996434D01*
X105420830Y-86102823D01*
X105292823Y-86230830D01*
X105186434Y-86377265D01*
X105104252Y-86538552D01*
X105104251Y-86538555D01*
X105048317Y-86710706D01*
X105020000Y-86889493D01*
X90000000Y-86889493D01*
X90000000Y-85749999D01*
X107791759Y-85749999D01*
X107791759Y-85750000D01*
X108250000Y-85750000D01*
X108750000Y-85750000D01*
X109208241Y-85750000D01*
X109208240Y-85749999D01*
X111791759Y-85749999D01*
X111791759Y-85750000D01*
X112250000Y-85750000D01*
X112750000Y-85750000D01*
X113208241Y-85750000D01*
X113208240Y-85749999D01*
X113164642Y-85644745D01*
X113164637Y-85644735D01*
X113082563Y-85521903D01*
X113082560Y-85521899D01*
X112978100Y-85417439D01*
X112978096Y-85417436D01*
X112855264Y-85335362D01*
X112855254Y-85335357D01*
X112750000Y-85291759D01*
X112750000Y-85750000D01*
X112250000Y-85750000D01*
X112250000Y-85291759D01*
X112249999Y-85291759D01*
X112144745Y-85335357D01*
X112144735Y-85335362D01*
X112021903Y-85417436D01*
X112021899Y-85417439D01*
X111917439Y-85521899D01*
X111917436Y-85521903D01*
X111835362Y-85644735D01*
X111835357Y-85644745D01*
X111791759Y-85749999D01*
X109208240Y-85749999D01*
X109164642Y-85644745D01*
X109164637Y-85644735D01*
X109082563Y-85521903D01*
X109082560Y-85521899D01*
X108978100Y-85417439D01*
X108978096Y-85417436D01*
X108855264Y-85335362D01*
X108855254Y-85335357D01*
X108750000Y-85291759D01*
X108750000Y-85750000D01*
X108250000Y-85750000D01*
X108250000Y-85291759D01*
X108249999Y-85291759D01*
X108144745Y-85335357D01*
X108144735Y-85335362D01*
X108021903Y-85417436D01*
X108021899Y-85417439D01*
X107917439Y-85521899D01*
X107917436Y-85521903D01*
X107835362Y-85644735D01*
X107835357Y-85644745D01*
X107791759Y-85749999D01*
X90000000Y-85749999D01*
X90000000Y-82896530D01*
X91949500Y-82896530D01*
X91949500Y-83103469D01*
X91989868Y-83306412D01*
X91989870Y-83306420D01*
X92069058Y-83497596D01*
X92184024Y-83669657D01*
X92330342Y-83815975D01*
X92330345Y-83815977D01*
X92502402Y-83930941D01*
X92693580Y-84010130D01*
X92894016Y-84049999D01*
X92896530Y-84050499D01*
X92896534Y-84050500D01*
X92896535Y-84050500D01*
X93103466Y-84050500D01*
X93103467Y-84050499D01*
X93306420Y-84010130D01*
X93497598Y-83930941D01*
X93545970Y-83898620D01*
X93954931Y-83898620D01*
X93954932Y-83898621D01*
X94002633Y-83930495D01*
X94002639Y-83930498D01*
X94193725Y-84009649D01*
X94193733Y-84009651D01*
X94396579Y-84049999D01*
X94396583Y-84050000D01*
X94603417Y-84050000D01*
X94603420Y-84049999D01*
X94806266Y-84009651D01*
X94806274Y-84009649D01*
X94997366Y-83930495D01*
X95045066Y-83898621D01*
X95045067Y-83898620D01*
X94500001Y-83353554D01*
X94500000Y-83353554D01*
X93954931Y-83898620D01*
X93545970Y-83898620D01*
X93669655Y-83815977D01*
X93693227Y-83792405D01*
X93720905Y-83764728D01*
X93815974Y-83669658D01*
X93815975Y-83669657D01*
X93815977Y-83669655D01*
X93930941Y-83497598D01*
X94010130Y-83306420D01*
X94045029Y-83130970D01*
X94077413Y-83069059D01*
X94078965Y-83067480D01*
X94150000Y-82996445D01*
X94150000Y-83046078D01*
X94173852Y-83135095D01*
X94219930Y-83214905D01*
X94285095Y-83280070D01*
X94364905Y-83326148D01*
X94453922Y-83350000D01*
X94546078Y-83350000D01*
X94635095Y-83326148D01*
X94714905Y-83280070D01*
X94780070Y-83214905D01*
X94826148Y-83135095D01*
X94850000Y-83046078D01*
X94850000Y-82999999D01*
X94853554Y-82999999D01*
X94853554Y-83000000D01*
X95398620Y-83545067D01*
X95398621Y-83545066D01*
X95430495Y-83497366D01*
X95509649Y-83306274D01*
X95509651Y-83306266D01*
X95549999Y-83103420D01*
X95550000Y-83103417D01*
X95550000Y-82896583D01*
X95549999Y-82896579D01*
X95509651Y-82693733D01*
X95509649Y-82693725D01*
X95430498Y-82502639D01*
X95430495Y-82502633D01*
X95398621Y-82454932D01*
X95398620Y-82454931D01*
X94853554Y-82999999D01*
X94850000Y-82999999D01*
X94850000Y-82953922D01*
X94826148Y-82864905D01*
X94780070Y-82785095D01*
X94714905Y-82719930D01*
X94635095Y-82673852D01*
X94546078Y-82650000D01*
X94496446Y-82650000D01*
X95045067Y-82101377D01*
X94997359Y-82069500D01*
X94806274Y-81990350D01*
X94806266Y-81990348D01*
X94603420Y-81950000D01*
X94396579Y-81950000D01*
X94193733Y-81990348D01*
X94193725Y-81990350D01*
X94002641Y-82069500D01*
X94002633Y-82069504D01*
X93943390Y-82109089D01*
X93876712Y-82129966D01*
X93809332Y-82111481D01*
X93762643Y-82059501D01*
X93750500Y-82005986D01*
X93750500Y-77862229D01*
X93770185Y-77795190D01*
X93786819Y-77774548D01*
X95274548Y-76286819D01*
X95335871Y-76253334D01*
X95362229Y-76250500D01*
X98573920Y-76250500D01*
X98671462Y-76231096D01*
X98718913Y-76221658D01*
X98855495Y-76165084D01*
X98904729Y-76132186D01*
X98978416Y-76082952D01*
X99042235Y-76019132D01*
X99047057Y-76015194D01*
X99073729Y-76003938D01*
X99099141Y-75990063D01*
X99105529Y-75990519D01*
X99111430Y-75988030D01*
X99139952Y-75992981D01*
X99168833Y-75995047D01*
X99173961Y-75998885D01*
X99180270Y-75999981D01*
X99201585Y-76019565D01*
X99224767Y-76036918D01*
X99227005Y-76042919D01*
X99231721Y-76047252D01*
X99239066Y-76075254D01*
X99249184Y-76102382D01*
X99249500Y-76111229D01*
X99249500Y-82213505D01*
X99229815Y-82280544D01*
X99213181Y-82301186D01*
X99184025Y-82330341D01*
X99184024Y-82330342D01*
X99069058Y-82502403D01*
X98989870Y-82693579D01*
X98989868Y-82693587D01*
X98949500Y-82896530D01*
X98949500Y-83103469D01*
X98989868Y-83306412D01*
X98989870Y-83306420D01*
X99069058Y-83497596D01*
X99184024Y-83669657D01*
X99330342Y-83815975D01*
X99330345Y-83815977D01*
X99502402Y-83930941D01*
X99693580Y-84010130D01*
X99894016Y-84049999D01*
X99896530Y-84050499D01*
X99896534Y-84050500D01*
X99896535Y-84050500D01*
X100103466Y-84050500D01*
X100103467Y-84050499D01*
X100306420Y-84010130D01*
X100497598Y-83930941D01*
X100545970Y-83898620D01*
X100954931Y-83898620D01*
X100954932Y-83898621D01*
X101002633Y-83930495D01*
X101002639Y-83930498D01*
X101193725Y-84009649D01*
X101193733Y-84009651D01*
X101396579Y-84049999D01*
X101396583Y-84050000D01*
X101603417Y-84050000D01*
X101603420Y-84049999D01*
X101806266Y-84009651D01*
X101806274Y-84009649D01*
X101997366Y-83930495D01*
X102045066Y-83898621D01*
X102045067Y-83898620D01*
X101500001Y-83353554D01*
X101500000Y-83353554D01*
X100954931Y-83898620D01*
X100545970Y-83898620D01*
X100669655Y-83815977D01*
X100693227Y-83792405D01*
X100720905Y-83764728D01*
X100815974Y-83669658D01*
X100815975Y-83669657D01*
X100815977Y-83669655D01*
X100930941Y-83497598D01*
X101010130Y-83306420D01*
X101045029Y-83130970D01*
X101077413Y-83069059D01*
X101078965Y-83067480D01*
X101150000Y-82996445D01*
X101150000Y-83046078D01*
X101173852Y-83135095D01*
X101219930Y-83214905D01*
X101285095Y-83280070D01*
X101364905Y-83326148D01*
X101453922Y-83350000D01*
X101546078Y-83350000D01*
X101635095Y-83326148D01*
X101714905Y-83280070D01*
X101780070Y-83214905D01*
X101826148Y-83135095D01*
X101850000Y-83046078D01*
X101850000Y-82999999D01*
X101853554Y-82999999D01*
X101853554Y-83000001D01*
X102398620Y-83545067D01*
X102398621Y-83545066D01*
X102430495Y-83497366D01*
X102499331Y-83331185D01*
X102499331Y-83331184D01*
X102509650Y-83306270D01*
X102509651Y-83306266D01*
X102549999Y-83103420D01*
X102550000Y-83103417D01*
X102550000Y-82896583D01*
X102549999Y-82896579D01*
X102509651Y-82693733D01*
X102509648Y-82693721D01*
X102484113Y-82632073D01*
X102430498Y-82502639D01*
X102430495Y-82502633D01*
X102398621Y-82454932D01*
X102398620Y-82454931D01*
X101853554Y-82999999D01*
X101850000Y-82999999D01*
X101850000Y-82953922D01*
X101826148Y-82864905D01*
X101780070Y-82785095D01*
X101714905Y-82719930D01*
X101635095Y-82673852D01*
X101546078Y-82650000D01*
X101496446Y-82650000D01*
X102045067Y-82101377D01*
X101997359Y-82069500D01*
X101806274Y-81990350D01*
X101806266Y-81990348D01*
X101603420Y-81950000D01*
X101396579Y-81950000D01*
X101193733Y-81990348D01*
X101193725Y-81990350D01*
X101002641Y-82069500D01*
X101002633Y-82069504D01*
X100943390Y-82109089D01*
X100876712Y-82129966D01*
X100809332Y-82111481D01*
X100762643Y-82059501D01*
X100750500Y-82005986D01*
X100750500Y-77933713D01*
X102149500Y-77933713D01*
X102149500Y-78146286D01*
X102179647Y-78336630D01*
X102182754Y-78356243D01*
X102236328Y-78521127D01*
X102248444Y-78558414D01*
X102344951Y-78747820D01*
X102469890Y-78919786D01*
X102620213Y-79070109D01*
X102792179Y-79195048D01*
X102792181Y-79195049D01*
X102792184Y-79195051D01*
X102981588Y-79291557D01*
X103183757Y-79357246D01*
X103393713Y-79390500D01*
X103393714Y-79390500D01*
X103606286Y-79390500D01*
X103606287Y-79390500D01*
X103701728Y-79375383D01*
X103771021Y-79384337D01*
X103808807Y-79410175D01*
X104481586Y-80082954D01*
X104508520Y-80100950D01*
X104521989Y-80109949D01*
X104604505Y-80165084D01*
X104604506Y-80165084D01*
X104604507Y-80165085D01*
X104628794Y-80175145D01*
X104741087Y-80221658D01*
X104741091Y-80221658D01*
X104741092Y-80221659D01*
X104886079Y-80250500D01*
X104886082Y-80250500D01*
X104886083Y-80250500D01*
X105033918Y-80250500D01*
X106137770Y-80250500D01*
X106204809Y-80270185D01*
X106225451Y-80286819D01*
X107032412Y-81093780D01*
X107065897Y-81155103D01*
X107060913Y-81224795D01*
X107019041Y-81280728D01*
X106957988Y-81304750D01*
X106942626Y-81306401D01*
X106942620Y-81306403D01*
X106807913Y-81356645D01*
X106807906Y-81356649D01*
X106692812Y-81442809D01*
X106626842Y-81530933D01*
X106570908Y-81572803D01*
X106501216Y-81577787D01*
X106489258Y-81574552D01*
X106439291Y-81558317D01*
X106439285Y-81558315D01*
X106420000Y-81555260D01*
X106420000Y-82580272D01*
X106381940Y-82488386D01*
X106311614Y-82418060D01*
X106219728Y-82380000D01*
X106120272Y-82380000D01*
X106028386Y-82418060D01*
X105958060Y-82488386D01*
X105920000Y-82580272D01*
X105920000Y-81555260D01*
X105900714Y-81558315D01*
X105900704Y-81558318D01*
X105728558Y-81614250D01*
X105728552Y-81614252D01*
X105567265Y-81696434D01*
X105420830Y-81802823D01*
X105292823Y-81930830D01*
X105186434Y-82077265D01*
X105104252Y-82238552D01*
X105104251Y-82238555D01*
X105048317Y-82410706D01*
X105020000Y-82589493D01*
X105020000Y-82930000D01*
X105920000Y-82930000D01*
X105920000Y-83430000D01*
X105020000Y-83430000D01*
X105020000Y-83770506D01*
X105048317Y-83949293D01*
X105104251Y-84121444D01*
X105104252Y-84121447D01*
X105186434Y-84282734D01*
X105292823Y-84429169D01*
X105420830Y-84557176D01*
X105567265Y-84663565D01*
X105728552Y-84745747D01*
X105728555Y-84745748D01*
X105900699Y-84801680D01*
X105900712Y-84801683D01*
X105920000Y-84804738D01*
X105920000Y-83779728D01*
X105958060Y-83871614D01*
X106028386Y-83941940D01*
X106120272Y-83980000D01*
X106219728Y-83980000D01*
X106311614Y-83941940D01*
X106381940Y-83871614D01*
X106420000Y-83779728D01*
X106420000Y-84804737D01*
X106439287Y-84801683D01*
X106439300Y-84801680D01*
X106611444Y-84745748D01*
X106611447Y-84745747D01*
X106772734Y-84663565D01*
X106919169Y-84557176D01*
X107047176Y-84429169D01*
X107153565Y-84282735D01*
X107221526Y-84149355D01*
X107269500Y-84098559D01*
X107337321Y-84081764D01*
X107394010Y-84098262D01*
X107435187Y-84122036D01*
X107550375Y-84152900D01*
X107550377Y-84152900D01*
X107669623Y-84152900D01*
X107669625Y-84152900D01*
X107784813Y-84122036D01*
X107888087Y-84062410D01*
X107972410Y-83978087D01*
X108032036Y-83874813D01*
X108054116Y-83792404D01*
X108090481Y-83732746D01*
X108153327Y-83702216D01*
X108173891Y-83700499D01*
X108397871Y-83700499D01*
X108397872Y-83700499D01*
X108457483Y-83694091D01*
X108457486Y-83694089D01*
X108461744Y-83693632D01*
X108488254Y-83693632D01*
X108492514Y-83694089D01*
X108492517Y-83694091D01*
X108552127Y-83700500D01*
X108947872Y-83700499D01*
X108947873Y-83700498D01*
X108947885Y-83700498D01*
X108986744Y-83696320D01*
X109013252Y-83696320D01*
X109052127Y-83700500D01*
X109447872Y-83700499D01*
X109462442Y-83698932D01*
X109466318Y-83699631D01*
X109470045Y-83698350D01*
X109500422Y-83705782D01*
X109531200Y-83711334D01*
X109534084Y-83714019D01*
X109537913Y-83714956D01*
X109559451Y-83737633D01*
X109582340Y-83758941D01*
X109584098Y-83763584D01*
X109586029Y-83765617D01*
X109590071Y-83779359D01*
X109597507Y-83798993D01*
X109599500Y-83809444D01*
X109599500Y-83814069D01*
X109620755Y-83920921D01*
X109620829Y-83921296D01*
X109620854Y-83921424D01*
X109624498Y-83939739D01*
X109624500Y-83939746D01*
X109673535Y-84058128D01*
X109687453Y-84078958D01*
X109705967Y-84123655D01*
X109727954Y-84234191D01*
X109727957Y-84234201D01*
X109788477Y-84380310D01*
X109788478Y-84380312D01*
X109876347Y-84511818D01*
X109988181Y-84623652D01*
X110075653Y-84682098D01*
X110119685Y-84711520D01*
X110119686Y-84711520D01*
X110119687Y-84711521D01*
X110119689Y-84711522D01*
X110265798Y-84772042D01*
X110265803Y-84772044D01*
X110414793Y-84801680D01*
X110420916Y-84802898D01*
X110420919Y-84802899D01*
X110420921Y-84802899D01*
X110579081Y-84802899D01*
X110579082Y-84802898D01*
X110734197Y-84772044D01*
X110880315Y-84711520D01*
X110940361Y-84671397D01*
X111007038Y-84650520D01*
X111009252Y-84650500D01*
X111064071Y-84650500D01*
X111148615Y-84633682D01*
X111189744Y-84625501D01*
X111308127Y-84576465D01*
X111308128Y-84576464D01*
X111414669Y-84505277D01*
X111755276Y-84164670D01*
X111798844Y-84099465D01*
X111826464Y-84058129D01*
X111829624Y-84050500D01*
X111875501Y-83939744D01*
X111879245Y-83920921D01*
X111900500Y-83814069D01*
X111900500Y-83809438D01*
X111902492Y-83798993D01*
X111915985Y-83772691D01*
X111927052Y-83745283D01*
X111931755Y-83741954D01*
X111934386Y-83736827D01*
X111959959Y-83721995D01*
X111984086Y-83704922D01*
X111990670Y-83704184D01*
X111994827Y-83701774D01*
X112007159Y-83702337D01*
X112037552Y-83698932D01*
X112052127Y-83700500D01*
X112447872Y-83700499D01*
X112507483Y-83694091D01*
X112507486Y-83694089D01*
X112511744Y-83693632D01*
X112538254Y-83693632D01*
X112542514Y-83694089D01*
X112542517Y-83694091D01*
X112602127Y-83700500D01*
X112826108Y-83700499D01*
X112893147Y-83720183D01*
X112938902Y-83772987D01*
X112945883Y-83792405D01*
X112967964Y-83874813D01*
X113027590Y-83978087D01*
X113111913Y-84062410D01*
X113201348Y-84114046D01*
X113214161Y-84121444D01*
X113215187Y-84122036D01*
X113330375Y-84152900D01*
X113330377Y-84152900D01*
X113449623Y-84152900D01*
X113449625Y-84152900D01*
X113564813Y-84122036D01*
X113565839Y-84121444D01*
X113575060Y-84116119D01*
X113605987Y-84098263D01*
X113673886Y-84081790D01*
X113739913Y-84104641D01*
X113778473Y-84149355D01*
X113846434Y-84282734D01*
X113952823Y-84429169D01*
X114080830Y-84557176D01*
X114227265Y-84663565D01*
X114388552Y-84745747D01*
X114388555Y-84745748D01*
X114560699Y-84801680D01*
X114560712Y-84801683D01*
X114580000Y-84804738D01*
X114580000Y-83779728D01*
X114618060Y-83871614D01*
X114688386Y-83941940D01*
X114780272Y-83980000D01*
X114879728Y-83980000D01*
X114971614Y-83941940D01*
X115041940Y-83871614D01*
X115080000Y-83779728D01*
X115080000Y-84804737D01*
X115099287Y-84801683D01*
X115099300Y-84801680D01*
X115271444Y-84745748D01*
X115271447Y-84745747D01*
X115432734Y-84663565D01*
X115579169Y-84557176D01*
X115707176Y-84429169D01*
X115813565Y-84282734D01*
X115895747Y-84121447D01*
X115895748Y-84121444D01*
X115951682Y-83949293D01*
X115980000Y-83770506D01*
X115980000Y-83430000D01*
X115080000Y-83430000D01*
X115080000Y-82930000D01*
X115980000Y-82930000D01*
X115980000Y-82589493D01*
X115951682Y-82410706D01*
X115895748Y-82238555D01*
X115895747Y-82238552D01*
X115813565Y-82077265D01*
X115733734Y-81967385D01*
X115710254Y-81901579D01*
X115726080Y-81833525D01*
X115776186Y-81784830D01*
X115834052Y-81770500D01*
X117665877Y-81770500D01*
X117732916Y-81790185D01*
X117776362Y-81838206D01*
X117844949Y-81972817D01*
X117969890Y-82144786D01*
X118120213Y-82295109D01*
X118292179Y-82420048D01*
X118292181Y-82420049D01*
X118292184Y-82420051D01*
X118481588Y-82516557D01*
X118683757Y-82582246D01*
X118893713Y-82615500D01*
X118893714Y-82615500D01*
X119106286Y-82615500D01*
X119106287Y-82615500D01*
X119316243Y-82582246D01*
X119518412Y-82516557D01*
X119707816Y-82420051D01*
X119744158Y-82393647D01*
X119879786Y-82295109D01*
X119879788Y-82295106D01*
X119879792Y-82295104D01*
X120030104Y-82144792D01*
X120030106Y-82144788D01*
X120030109Y-82144786D01*
X120155048Y-81972820D01*
X120155050Y-81972817D01*
X120155051Y-81972816D01*
X120251557Y-81783412D01*
X120317246Y-81581243D01*
X120350500Y-81371287D01*
X120350500Y-81158713D01*
X120317246Y-80948757D01*
X120251557Y-80746588D01*
X120155051Y-80557184D01*
X120155049Y-80557181D01*
X120155048Y-80557179D01*
X120030109Y-80385213D01*
X119916569Y-80271673D01*
X119883084Y-80210350D01*
X119888068Y-80140658D01*
X119929940Y-80084725D01*
X119960915Y-80067810D01*
X120092331Y-80018796D01*
X120207546Y-79932546D01*
X120293796Y-79817331D01*
X120344091Y-79682483D01*
X120350500Y-79622873D01*
X120350499Y-77827128D01*
X120344091Y-77767517D01*
X120341209Y-77759791D01*
X120293797Y-77632671D01*
X120293793Y-77632664D01*
X120207547Y-77517455D01*
X120207544Y-77517452D01*
X120092335Y-77431206D01*
X120092328Y-77431202D01*
X119957482Y-77380908D01*
X119957483Y-77380908D01*
X119897883Y-77374501D01*
X119897881Y-77374500D01*
X119897873Y-77374500D01*
X119897864Y-77374500D01*
X118102129Y-77374500D01*
X118102123Y-77374501D01*
X118042516Y-77380908D01*
X117907671Y-77431202D01*
X117907664Y-77431206D01*
X117792455Y-77517452D01*
X117792452Y-77517455D01*
X117706206Y-77632664D01*
X117706202Y-77632671D01*
X117655908Y-77767517D01*
X117651248Y-77810867D01*
X117649501Y-77827123D01*
X117649500Y-77827135D01*
X117649500Y-77950500D01*
X117629815Y-78017539D01*
X117577011Y-78063294D01*
X117525500Y-78074500D01*
X115774500Y-78074500D01*
X115707461Y-78054815D01*
X115661706Y-78002011D01*
X115653446Y-77977369D01*
X115650500Y-77964096D01*
X115650500Y-77935931D01*
X115625501Y-77810256D01*
X115605793Y-77762677D01*
X115603446Y-77752102D01*
X115604052Y-77743090D01*
X115600500Y-77725233D01*
X115600500Y-77478015D01*
X115617768Y-77414894D01*
X115629939Y-77394314D01*
X115701744Y-77272898D01*
X115747598Y-77115069D01*
X115750500Y-77078194D01*
X115750500Y-75921806D01*
X115747598Y-75884931D01*
X115740314Y-75859861D01*
X115713836Y-75768724D01*
X115701744Y-75727102D01*
X115618081Y-75585635D01*
X115618079Y-75585633D01*
X115618076Y-75585629D01*
X115501870Y-75469423D01*
X115501867Y-75469421D01*
X115501865Y-75469419D01*
X115501549Y-75469232D01*
X115501353Y-75469022D01*
X115495702Y-75464639D01*
X115496409Y-75463727D01*
X115453866Y-75418164D01*
X115441362Y-75349423D01*
X115468006Y-75284833D01*
X115495921Y-75260644D01*
X115495702Y-75260361D01*
X115500911Y-75256320D01*
X115501550Y-75255767D01*
X115501865Y-75255581D01*
X115618081Y-75139365D01*
X115701744Y-74997898D01*
X115747598Y-74840069D01*
X115750500Y-74803194D01*
X115750500Y-73646806D01*
X115747598Y-73609931D01*
X115742521Y-73592455D01*
X115705424Y-73464765D01*
X115700500Y-73430170D01*
X115700500Y-71551081D01*
X115699336Y-71545231D01*
X115694763Y-71522241D01*
X115671659Y-71406088D01*
X115635549Y-71318912D01*
X115632981Y-71312714D01*
X115632980Y-71312708D01*
X115615087Y-71269511D01*
X115615080Y-71269498D01*
X115532952Y-71146585D01*
X115483206Y-71096839D01*
X115428416Y-71042049D01*
X114786819Y-70400451D01*
X114753334Y-70339128D01*
X114750500Y-70312770D01*
X114750500Y-70084313D01*
X114750499Y-70084298D01*
X114747598Y-70047432D01*
X114747597Y-70047426D01*
X114701745Y-69889606D01*
X114701744Y-69889603D01*
X114701744Y-69889602D01*
X114618081Y-69748135D01*
X114618079Y-69748133D01*
X114618076Y-69748129D01*
X114501870Y-69631923D01*
X114501862Y-69631917D01*
X114360396Y-69548255D01*
X114360393Y-69548254D01*
X114202573Y-69502402D01*
X114202567Y-69502401D01*
X114165701Y-69499500D01*
X114165694Y-69499500D01*
X113734306Y-69499500D01*
X113734298Y-69499500D01*
X113697432Y-69502401D01*
X113697426Y-69502402D01*
X113539606Y-69548253D01*
X113513119Y-69563918D01*
X113445394Y-69581098D01*
X113386881Y-69563918D01*
X113360393Y-69548253D01*
X113202573Y-69502402D01*
X113202567Y-69502401D01*
X113165701Y-69499500D01*
X113165694Y-69499500D01*
X112734306Y-69499500D01*
X112734298Y-69499500D01*
X112697432Y-69502401D01*
X112697426Y-69502402D01*
X112539606Y-69548254D01*
X112539603Y-69548255D01*
X112398137Y-69631917D01*
X112398129Y-69631923D01*
X112281923Y-69748129D01*
X112281917Y-69748137D01*
X112198255Y-69889603D01*
X112198254Y-69889606D01*
X112152402Y-70047426D01*
X112152401Y-70047432D01*
X112149500Y-70084298D01*
X112149500Y-71165701D01*
X112152401Y-71202567D01*
X112152402Y-71202573D01*
X112194576Y-71347733D01*
X112199500Y-71382328D01*
X112199500Y-73023918D01*
X112199500Y-73023920D01*
X112199499Y-73023920D01*
X112228340Y-73168907D01*
X112228343Y-73168917D01*
X112287247Y-73311124D01*
X112286383Y-73311481D01*
X112288366Y-73319396D01*
X112294477Y-73328905D01*
X112299500Y-73363840D01*
X112299500Y-73430170D01*
X112294576Y-73464765D01*
X112252402Y-73609926D01*
X112252401Y-73609932D01*
X112249500Y-73646798D01*
X112249500Y-73906239D01*
X112229815Y-73973278D01*
X112177011Y-74019033D01*
X112107853Y-74028977D01*
X112060404Y-74011778D01*
X111944334Y-73940186D01*
X111777797Y-73885001D01*
X111777795Y-73885000D01*
X111675010Y-73874500D01*
X110324998Y-73874500D01*
X110324981Y-73874501D01*
X110222203Y-73885000D01*
X110222200Y-73885001D01*
X110055668Y-73940185D01*
X110055663Y-73940187D01*
X109906345Y-74032287D01*
X109834791Y-74103841D01*
X109773467Y-74137325D01*
X109703776Y-74132340D01*
X109694035Y-74127576D01*
X109693836Y-74128005D01*
X109687285Y-74124950D01*
X109606780Y-74098273D01*
X109527685Y-74072064D01*
X109527683Y-74072063D01*
X109429181Y-74062000D01*
X109429174Y-74062000D01*
X108570826Y-74062000D01*
X108570818Y-74062000D01*
X108472316Y-74072063D01*
X108472315Y-74072064D01*
X108393219Y-74098273D01*
X108312715Y-74124950D01*
X108312704Y-74124955D01*
X108169612Y-74213216D01*
X108169608Y-74213219D01*
X108050719Y-74332108D01*
X108050716Y-74332112D01*
X107962455Y-74475204D01*
X107962451Y-74475213D01*
X107909564Y-74634815D01*
X107909564Y-74634816D01*
X107909563Y-74634816D01*
X107899500Y-74733318D01*
X107899500Y-75266681D01*
X107909563Y-75365183D01*
X107962450Y-75524784D01*
X107962455Y-75524795D01*
X108050716Y-75667887D01*
X108050719Y-75667891D01*
X108169608Y-75786780D01*
X108169612Y-75786783D01*
X108312704Y-75875044D01*
X108312707Y-75875045D01*
X108312713Y-75875049D01*
X108472315Y-75927936D01*
X108570826Y-75938000D01*
X108570831Y-75938000D01*
X109429169Y-75938000D01*
X109429174Y-75938000D01*
X109527685Y-75927936D01*
X109687287Y-75875049D01*
X109687293Y-75875044D01*
X109693829Y-75871998D01*
X109695099Y-75874722D01*
X109749391Y-75859861D01*
X109816057Y-75880775D01*
X109834791Y-75896159D01*
X109906344Y-75967712D01*
X110055666Y-76059814D01*
X110222203Y-76114999D01*
X110324991Y-76125500D01*
X111675008Y-76125499D01*
X111777797Y-76114999D01*
X111944334Y-76059814D01*
X112060404Y-75988221D01*
X112127795Y-75969781D01*
X112194459Y-75990703D01*
X112239229Y-76044345D01*
X112249500Y-76093760D01*
X112249500Y-76706239D01*
X112229815Y-76773278D01*
X112177011Y-76819033D01*
X112107853Y-76828977D01*
X112060404Y-76811778D01*
X111944334Y-76740186D01*
X111777797Y-76685001D01*
X111777795Y-76685000D01*
X111675010Y-76674500D01*
X110324998Y-76674500D01*
X110324981Y-76674501D01*
X110222203Y-76685000D01*
X110222193Y-76685003D01*
X110198838Y-76692742D01*
X110129010Y-76695143D01*
X110068969Y-76659411D01*
X110042131Y-76614042D01*
X110037549Y-76600213D01*
X110037544Y-76600206D01*
X110037544Y-76600204D01*
X109949283Y-76457112D01*
X109949280Y-76457108D01*
X109830391Y-76338219D01*
X109830387Y-76338216D01*
X109687295Y-76249955D01*
X109687289Y-76249952D01*
X109687287Y-76249951D01*
X109527685Y-76197064D01*
X109527683Y-76197063D01*
X109429181Y-76187000D01*
X109429174Y-76187000D01*
X108570826Y-76187000D01*
X108570818Y-76187000D01*
X108472316Y-76197063D01*
X108472315Y-76197064D01*
X108398095Y-76221658D01*
X108312715Y-76249950D01*
X108312704Y-76249955D01*
X108169612Y-76338216D01*
X108163946Y-76342697D01*
X108163171Y-76341717D01*
X108108324Y-76371666D01*
X108081966Y-76374500D01*
X107374499Y-76374500D01*
X107307460Y-76354815D01*
X107261705Y-76302011D01*
X107251562Y-76255388D01*
X107250900Y-76255423D01*
X107250854Y-76255429D01*
X107250853Y-76255426D01*
X107250676Y-76255436D01*
X107250499Y-76252135D01*
X107250499Y-76252128D01*
X107244091Y-76192517D01*
X107242033Y-76187000D01*
X107193797Y-76057671D01*
X107193793Y-76057664D01*
X107107547Y-75942455D01*
X107107544Y-75942452D01*
X106992335Y-75856206D01*
X106992328Y-75856202D01*
X106857486Y-75805910D01*
X106857485Y-75805909D01*
X106857483Y-75805909D01*
X106797873Y-75799500D01*
X106797863Y-75799500D01*
X106202129Y-75799500D01*
X106202123Y-75799501D01*
X106142516Y-75805908D01*
X106007671Y-75856202D01*
X106007664Y-75856206D01*
X105892455Y-75942452D01*
X105892452Y-75942455D01*
X105806206Y-76057664D01*
X105806202Y-76057671D01*
X105755908Y-76192517D01*
X105749675Y-76250500D01*
X105749501Y-76252123D01*
X105749500Y-76252135D01*
X105749500Y-77447870D01*
X105749501Y-77447876D01*
X105755908Y-77507483D01*
X105806202Y-77642328D01*
X105806206Y-77642335D01*
X105892452Y-77757544D01*
X105892455Y-77757547D01*
X106007664Y-77843793D01*
X106007671Y-77843797D01*
X106052618Y-77860561D01*
X106142517Y-77894091D01*
X106202127Y-77900500D01*
X106797872Y-77900499D01*
X106857483Y-77894091D01*
X106886367Y-77883317D01*
X106929700Y-77875500D01*
X108081966Y-77875500D01*
X108149005Y-77895185D01*
X108169114Y-77911390D01*
X108169612Y-77911783D01*
X108312704Y-78000044D01*
X108312707Y-78000045D01*
X108312713Y-78000049D01*
X108472315Y-78052936D01*
X108570826Y-78063000D01*
X108570831Y-78063000D01*
X109429169Y-78063000D01*
X109429174Y-78063000D01*
X109487899Y-78057000D01*
X109556589Y-78069769D01*
X109607474Y-78117648D01*
X109624500Y-78180355D01*
X109624500Y-78224999D01*
X109624501Y-78225019D01*
X109635000Y-78327796D01*
X109635001Y-78327799D01*
X109690185Y-78494331D01*
X109690189Y-78494340D01*
X109735657Y-78568055D01*
X109754097Y-78635447D01*
X109733174Y-78702111D01*
X109717799Y-78720832D01*
X108337681Y-80100950D01*
X108276358Y-80134435D01*
X108206666Y-80129451D01*
X108162319Y-80100950D01*
X106978418Y-78917049D01*
X106900024Y-78864669D01*
X106893340Y-78860203D01*
X106855495Y-78834916D01*
X106855492Y-78834914D01*
X106855491Y-78834914D01*
X106718917Y-78778343D01*
X106718907Y-78778340D01*
X106573920Y-78749500D01*
X106573918Y-78749500D01*
X105322230Y-78749500D01*
X105255191Y-78729815D01*
X105234549Y-78713181D01*
X104870175Y-78348807D01*
X104836690Y-78287484D01*
X104835383Y-78241728D01*
X104850500Y-78146285D01*
X104850500Y-77933713D01*
X104846964Y-77911390D01*
X104817246Y-77723757D01*
X104751557Y-77521588D01*
X104655051Y-77332184D01*
X104655049Y-77332181D01*
X104655048Y-77332179D01*
X104530109Y-77160213D01*
X104416181Y-77046285D01*
X104382696Y-76984962D01*
X104387680Y-76915270D01*
X104429552Y-76859337D01*
X104460529Y-76842422D01*
X104592086Y-76793354D01*
X104592093Y-76793350D01*
X104707187Y-76707190D01*
X104707190Y-76707187D01*
X104793350Y-76592093D01*
X104793354Y-76592086D01*
X104843596Y-76457379D01*
X104843598Y-76457372D01*
X104849999Y-76397844D01*
X104850000Y-76397827D01*
X104850000Y-75750000D01*
X103933012Y-75750000D01*
X103965925Y-75692993D01*
X104000000Y-75565826D01*
X104000000Y-75434174D01*
X103965925Y-75307007D01*
X103933012Y-75250000D01*
X104850000Y-75250000D01*
X104850000Y-74602172D01*
X104849999Y-74602155D01*
X104843598Y-74542627D01*
X104843596Y-74542620D01*
X104793354Y-74407913D01*
X104793350Y-74407906D01*
X104707190Y-74292812D01*
X104707187Y-74292809D01*
X104592093Y-74206649D01*
X104592086Y-74206645D01*
X104457379Y-74156403D01*
X104457372Y-74156401D01*
X104397844Y-74150000D01*
X103750000Y-74150000D01*
X103750000Y-75066988D01*
X103692993Y-75034075D01*
X103565826Y-75000000D01*
X103434174Y-75000000D01*
X103307007Y-75034075D01*
X103250000Y-75066988D01*
X103250000Y-74150000D01*
X102602155Y-74150000D01*
X102542627Y-74156401D01*
X102542620Y-74156403D01*
X102407913Y-74206645D01*
X102407906Y-74206649D01*
X102292812Y-74292809D01*
X102292809Y-74292812D01*
X102206649Y-74407906D01*
X102206645Y-74407913D01*
X102156403Y-74542620D01*
X102156401Y-74542627D01*
X102150000Y-74602155D01*
X102150000Y-75250000D01*
X103066988Y-75250000D01*
X103034075Y-75307007D01*
X103000000Y-75434174D01*
X103000000Y-75565826D01*
X103034075Y-75692993D01*
X103066988Y-75750000D01*
X102150000Y-75750000D01*
X102150000Y-76397844D01*
X102156401Y-76457372D01*
X102156403Y-76457379D01*
X102206645Y-76592086D01*
X102206649Y-76592093D01*
X102292809Y-76707187D01*
X102292812Y-76707190D01*
X102407906Y-76793350D01*
X102407913Y-76793354D01*
X102539470Y-76842422D01*
X102595404Y-76884293D01*
X102619821Y-76949758D01*
X102604969Y-77018031D01*
X102583819Y-77046285D01*
X102469889Y-77160215D01*
X102344951Y-77332179D01*
X102248444Y-77521585D01*
X102182753Y-77723760D01*
X102149500Y-77933713D01*
X100750500Y-77933713D01*
X100750500Y-70773322D01*
X104300001Y-70773322D01*
X104310144Y-70872607D01*
X104363452Y-71033481D01*
X104363457Y-71033492D01*
X104452424Y-71177728D01*
X104452427Y-71177732D01*
X104572267Y-71297572D01*
X104572271Y-71297575D01*
X104716507Y-71386542D01*
X104716518Y-71386547D01*
X104877393Y-71439855D01*
X104976683Y-71449999D01*
X105199999Y-71449999D01*
X105200000Y-71449998D01*
X105200000Y-70750000D01*
X104300001Y-70750000D01*
X104300001Y-70773322D01*
X100750500Y-70773322D01*
X100750500Y-69926858D01*
X100770185Y-69859819D01*
X100822989Y-69814064D01*
X100892147Y-69804120D01*
X100955703Y-69833145D01*
X100993477Y-69891923D01*
X100998184Y-69918013D01*
X100999644Y-69938440D01*
X101028338Y-70036160D01*
X101032255Y-70049500D01*
X101040182Y-70076494D01*
X101117967Y-70197530D01*
X101117971Y-70197534D01*
X101191452Y-70261206D01*
X101226706Y-70291754D01*
X101260005Y-70306961D01*
X101357580Y-70351523D01*
X101357583Y-70351523D01*
X101357584Y-70351524D01*
X101500000Y-70372000D01*
X101500003Y-70372000D01*
X104625000Y-70372000D01*
X104696940Y-70366855D01*
X104834992Y-70326319D01*
X104923116Y-70269685D01*
X104990156Y-70250000D01*
X105326000Y-70250000D01*
X105393039Y-70269685D01*
X105438794Y-70322489D01*
X105450000Y-70374000D01*
X105450000Y-70500000D01*
X105576000Y-70500000D01*
X105643039Y-70519685D01*
X105688794Y-70572489D01*
X105700000Y-70624000D01*
X105700000Y-71449999D01*
X105923308Y-71449999D01*
X105923322Y-71449998D01*
X106022607Y-71439855D01*
X106183481Y-71386547D01*
X106183492Y-71386542D01*
X106327728Y-71297575D01*
X106327732Y-71297572D01*
X106447573Y-71177731D01*
X106461457Y-71155222D01*
X106485997Y-71133148D01*
X106509793Y-71110301D01*
X106511846Y-71109897D01*
X106513404Y-71108497D01*
X106545981Y-71103195D01*
X106578354Y-71096839D01*
X106580300Y-71097610D01*
X106582367Y-71097274D01*
X106612643Y-71110428D01*
X106643308Y-71122582D01*
X106645023Y-71124497D01*
X106646449Y-71125117D01*
X106667753Y-71148040D01*
X106670263Y-71151539D01*
X106702032Y-71203044D01*
X106720351Y-71221363D01*
X106726257Y-71229596D01*
X106734585Y-71253392D01*
X106746666Y-71275516D01*
X106748589Y-71293403D01*
X106749338Y-71295543D01*
X106748980Y-71297040D01*
X106749500Y-71301874D01*
X106749500Y-72937769D01*
X106729815Y-73004808D01*
X106713181Y-73025450D01*
X106325449Y-73413181D01*
X106264126Y-73446666D01*
X106237771Y-73449500D01*
X106202131Y-73449500D01*
X106202122Y-73449501D01*
X106142516Y-73455908D01*
X106007671Y-73506202D01*
X106007664Y-73506206D01*
X105892455Y-73592452D01*
X105892452Y-73592455D01*
X105806206Y-73707664D01*
X105806202Y-73707671D01*
X105755908Y-73842517D01*
X105749501Y-73902116D01*
X105749500Y-73902135D01*
X105749500Y-75097870D01*
X105749501Y-75097876D01*
X105755908Y-75157483D01*
X105806202Y-75292328D01*
X105806206Y-75292335D01*
X105892452Y-75407544D01*
X105892455Y-75407547D01*
X106007664Y-75493793D01*
X106007671Y-75493797D01*
X106052618Y-75510561D01*
X106142517Y-75544091D01*
X106202127Y-75550500D01*
X106797872Y-75550499D01*
X106857483Y-75544091D01*
X106992331Y-75493796D01*
X107107546Y-75407546D01*
X107193796Y-75292331D01*
X107244091Y-75157483D01*
X107250500Y-75097873D01*
X107250499Y-74662228D01*
X107270183Y-74595190D01*
X107286814Y-74574552D01*
X107978413Y-73882953D01*
X107978416Y-73882952D01*
X108074550Y-73786818D01*
X108126743Y-73758319D01*
X108135872Y-73753334D01*
X108135872Y-73753333D01*
X108135878Y-73753333D01*
X108162230Y-73750500D01*
X108689126Y-73750500D01*
X108736578Y-73759939D01*
X108765798Y-73772042D01*
X108765803Y-73772044D01*
X108920916Y-73802898D01*
X108920919Y-73802899D01*
X108920921Y-73802899D01*
X109079081Y-73802899D01*
X109079082Y-73802898D01*
X109234197Y-73772044D01*
X109380315Y-73711520D01*
X109511818Y-73623652D01*
X109623652Y-73511818D01*
X109711520Y-73380315D01*
X109772044Y-73234197D01*
X109802899Y-73079079D01*
X109802899Y-72920921D01*
X109802899Y-72920918D01*
X109802898Y-72920916D01*
X109772045Y-72765810D01*
X109772044Y-72765803D01*
X109711520Y-72619685D01*
X109682098Y-72575653D01*
X109623652Y-72488181D01*
X109511818Y-72376347D01*
X109380312Y-72288478D01*
X109380310Y-72288477D01*
X109234201Y-72227957D01*
X109234189Y-72227954D01*
X109079082Y-72197101D01*
X109079079Y-72197101D01*
X108920921Y-72197101D01*
X108920918Y-72197101D01*
X108765810Y-72227954D01*
X108765798Y-72227957D01*
X108736578Y-72240061D01*
X108689126Y-72249500D01*
X108374500Y-72249500D01*
X108307461Y-72229815D01*
X108261706Y-72177011D01*
X108250500Y-72125500D01*
X108250500Y-71469640D01*
X108270185Y-71402601D01*
X108322989Y-71356846D01*
X108392147Y-71346902D01*
X108439598Y-71364102D01*
X108516511Y-71411544D01*
X108516518Y-71411547D01*
X108677393Y-71464855D01*
X108776683Y-71474999D01*
X109300000Y-71474999D01*
X109323308Y-71474999D01*
X109323322Y-71474998D01*
X109422607Y-71464855D01*
X109583481Y-71411547D01*
X109583492Y-71411542D01*
X109727728Y-71322575D01*
X109727732Y-71322572D01*
X109847572Y-71202732D01*
X109847575Y-71202728D01*
X109936542Y-71058492D01*
X109936547Y-71058481D01*
X109989855Y-70897606D01*
X109999999Y-70798322D01*
X110000000Y-70798309D01*
X110000000Y-70750000D01*
X109300000Y-70750000D01*
X109300000Y-71474999D01*
X108776683Y-71474999D01*
X108800000Y-71474998D01*
X108800000Y-70624000D01*
X108819685Y-70556961D01*
X108872489Y-70511206D01*
X108924000Y-70500000D01*
X109050000Y-70500000D01*
X109050000Y-70374000D01*
X109069685Y-70306961D01*
X109122489Y-70261206D01*
X109174000Y-70250000D01*
X109999999Y-70250000D01*
X109999999Y-70201692D01*
X109999998Y-70201677D01*
X109989855Y-70102392D01*
X109936547Y-69941518D01*
X109936542Y-69941507D01*
X109847575Y-69797271D01*
X109847572Y-69797267D01*
X109727732Y-69677427D01*
X109727728Y-69677424D01*
X109583492Y-69588457D01*
X109583481Y-69588452D01*
X109455312Y-69545981D01*
X109397867Y-69506208D01*
X109371044Y-69441692D01*
X109375240Y-69393679D01*
X109414578Y-69258279D01*
X109415230Y-69250000D01*
X108674000Y-69250000D01*
X108606961Y-69230315D01*
X108561206Y-69177511D01*
X108550000Y-69126000D01*
X108550000Y-68874000D01*
X108569685Y-68806961D01*
X108622489Y-68761206D01*
X108674000Y-68750000D01*
X109415230Y-68750000D01*
X109414578Y-68741720D01*
X109375240Y-68606320D01*
X109375439Y-68536450D01*
X109413381Y-68477780D01*
X109455313Y-68454018D01*
X109583479Y-68411548D01*
X109583492Y-68411542D01*
X109727728Y-68322575D01*
X109727732Y-68322572D01*
X109847572Y-68202732D01*
X109847575Y-68202728D01*
X109936542Y-68058492D01*
X109936547Y-68058481D01*
X109989855Y-67897606D01*
X109999999Y-67798322D01*
X110000000Y-67798309D01*
X110000000Y-67750000D01*
X109174000Y-67750000D01*
X109106961Y-67730315D01*
X109061206Y-67677511D01*
X109050000Y-67626000D01*
X109050000Y-67500000D01*
X108924000Y-67500000D01*
X108856961Y-67480315D01*
X108811206Y-67427511D01*
X108800000Y-67376000D01*
X108800000Y-67250000D01*
X109300000Y-67250000D01*
X109999999Y-67250000D01*
X109999999Y-67201692D01*
X109999998Y-67201677D01*
X109989855Y-67102392D01*
X109936547Y-66941518D01*
X109936544Y-66941511D01*
X109903905Y-66888596D01*
X109903904Y-66888594D01*
X109865694Y-66826647D01*
X110549500Y-66826647D01*
X110549500Y-68173337D01*
X110549501Y-68173355D01*
X110559650Y-68272707D01*
X110559651Y-68272710D01*
X110612996Y-68433694D01*
X110613001Y-68433705D01*
X110702029Y-68578040D01*
X110702032Y-68578044D01*
X110821955Y-68697967D01*
X110821959Y-68697970D01*
X110966294Y-68786998D01*
X110966297Y-68786999D01*
X110966303Y-68787003D01*
X111127292Y-68840349D01*
X111226655Y-68850500D01*
X111773344Y-68850499D01*
X111773352Y-68850498D01*
X111773355Y-68850498D01*
X111827760Y-68844940D01*
X111872708Y-68840349D01*
X112033697Y-68787003D01*
X112178044Y-68697968D01*
X112297968Y-68578044D01*
X112387003Y-68433697D01*
X112440349Y-68272708D01*
X112450500Y-68173345D01*
X112450499Y-66826656D01*
X112450498Y-66826647D01*
X114449500Y-66826647D01*
X114449500Y-68173337D01*
X114449501Y-68173355D01*
X114459650Y-68272707D01*
X114459651Y-68272710D01*
X114512996Y-68433694D01*
X114513001Y-68433705D01*
X114602029Y-68578040D01*
X114602032Y-68578044D01*
X114721955Y-68697967D01*
X114721959Y-68697970D01*
X114866294Y-68786998D01*
X114866297Y-68786999D01*
X114866303Y-68787003D01*
X115027292Y-68840349D01*
X115126655Y-68850500D01*
X115673344Y-68850499D01*
X115673352Y-68850498D01*
X115673355Y-68850498D01*
X115727760Y-68844940D01*
X115772708Y-68840349D01*
X115933697Y-68787003D01*
X116078044Y-68697968D01*
X116197968Y-68578044D01*
X116287003Y-68433697D01*
X116340349Y-68272708D01*
X116350500Y-68173345D01*
X116350499Y-66826656D01*
X116340349Y-66727292D01*
X116287003Y-66566303D01*
X116286999Y-66566297D01*
X116286998Y-66566294D01*
X116197970Y-66421959D01*
X116197967Y-66421955D01*
X116078044Y-66302032D01*
X116078040Y-66302029D01*
X115933705Y-66213001D01*
X115933699Y-66212998D01*
X115933697Y-66212997D01*
X115933694Y-66212996D01*
X115772709Y-66159651D01*
X115673346Y-66149500D01*
X115126662Y-66149500D01*
X115126644Y-66149501D01*
X115027292Y-66159650D01*
X115027289Y-66159651D01*
X114866305Y-66212996D01*
X114866294Y-66213001D01*
X114721959Y-66302029D01*
X114721955Y-66302032D01*
X114602032Y-66421955D01*
X114602029Y-66421959D01*
X114513001Y-66566294D01*
X114512996Y-66566305D01*
X114459651Y-66727290D01*
X114449500Y-66826647D01*
X112450498Y-66826647D01*
X112450019Y-66821959D01*
X112440349Y-66727292D01*
X112440348Y-66727289D01*
X112423826Y-66677428D01*
X112387003Y-66566303D01*
X112386999Y-66566297D01*
X112386998Y-66566294D01*
X112297970Y-66421959D01*
X112297967Y-66421955D01*
X112178044Y-66302032D01*
X112178040Y-66302029D01*
X112033705Y-66213001D01*
X112033699Y-66212998D01*
X112033697Y-66212997D01*
X112033694Y-66212996D01*
X111872709Y-66159651D01*
X111773346Y-66149500D01*
X111226662Y-66149500D01*
X111226644Y-66149501D01*
X111127292Y-66159650D01*
X111127289Y-66159651D01*
X110966305Y-66212996D01*
X110966294Y-66213001D01*
X110821959Y-66302029D01*
X110821955Y-66302032D01*
X110702032Y-66421955D01*
X110702029Y-66421959D01*
X110613001Y-66566294D01*
X110612996Y-66566305D01*
X110559651Y-66727290D01*
X110549500Y-66826647D01*
X109865694Y-66826647D01*
X109847575Y-66797271D01*
X109847572Y-66797267D01*
X109727732Y-66677427D01*
X109727728Y-66677424D01*
X109583492Y-66588457D01*
X109583481Y-66588452D01*
X109422606Y-66535144D01*
X109323322Y-66525000D01*
X109300000Y-66525000D01*
X109300000Y-67250000D01*
X108800000Y-67250000D01*
X108800000Y-66524999D01*
X108776693Y-66525000D01*
X108776674Y-66525001D01*
X108677392Y-66535144D01*
X108516518Y-66588452D01*
X108516507Y-66588457D01*
X108372271Y-66677424D01*
X108372265Y-66677428D01*
X108363031Y-66686663D01*
X108301707Y-66720146D01*
X108232015Y-66715159D01*
X108187672Y-66686660D01*
X108178044Y-66677032D01*
X108178040Y-66677029D01*
X108033705Y-66588001D01*
X108033699Y-66587998D01*
X108033697Y-66587997D01*
X108033694Y-66587996D01*
X107872709Y-66534651D01*
X107773346Y-66524500D01*
X107226662Y-66524500D01*
X107226644Y-66524501D01*
X107127292Y-66534650D01*
X107127289Y-66534651D01*
X106966305Y-66587996D01*
X106966294Y-66588001D01*
X106821959Y-66677029D01*
X106821955Y-66677032D01*
X106785807Y-66713181D01*
X106724484Y-66746666D01*
X106698126Y-66749500D01*
X106426874Y-66749500D01*
X106359835Y-66729815D01*
X106339193Y-66713181D01*
X106328044Y-66702032D01*
X106328040Y-66702029D01*
X106183705Y-66613001D01*
X106183699Y-66612998D01*
X106183697Y-66612997D01*
X106109640Y-66588457D01*
X106022709Y-66559651D01*
X105923346Y-66549500D01*
X104976662Y-66549500D01*
X104976644Y-66549501D01*
X104877292Y-66559650D01*
X104877289Y-66559651D01*
X104716305Y-66612996D01*
X104716294Y-66613001D01*
X104571959Y-66702029D01*
X104571955Y-66702032D01*
X104452032Y-66821955D01*
X104452029Y-66821959D01*
X104363001Y-66966294D01*
X104362996Y-66966305D01*
X104309651Y-67127290D01*
X104299500Y-67226648D01*
X104299500Y-67226655D01*
X104299500Y-67376000D01*
X104299501Y-67504000D01*
X104279817Y-67571039D01*
X104227013Y-67616794D01*
X104175501Y-67628000D01*
X101499997Y-67628000D01*
X101428059Y-67633144D01*
X101290005Y-67673682D01*
X101168969Y-67751467D01*
X101168966Y-67751470D01*
X101166817Y-67753951D01*
X101164057Y-67755724D01*
X101162268Y-67757275D01*
X101162044Y-67757017D01*
X101108037Y-67791723D01*
X101038168Y-67791721D01*
X100985426Y-67760426D01*
X100975000Y-67750000D01*
X99025001Y-67750000D01*
X99025001Y-67773322D01*
X99035144Y-67872607D01*
X99088452Y-68033481D01*
X99088457Y-68033492D01*
X99177424Y-68177728D01*
X99177427Y-68177732D01*
X99186660Y-68186965D01*
X99220145Y-68248288D01*
X99215161Y-68317980D01*
X99186663Y-68362324D01*
X99177033Y-68371953D01*
X99177029Y-68371959D01*
X99088001Y-68516294D01*
X99087996Y-68516305D01*
X99034651Y-68677290D01*
X99024500Y-68776647D01*
X99024500Y-69323337D01*
X99024501Y-69323355D01*
X99034650Y-69422707D01*
X99034651Y-69422710D01*
X99087996Y-69583694D01*
X99088001Y-69583705D01*
X99177029Y-69728040D01*
X99177032Y-69728044D01*
X99213181Y-69764193D01*
X99246666Y-69825516D01*
X99249500Y-69851874D01*
X99249500Y-70137770D01*
X99240855Y-70167210D01*
X99234332Y-70197197D01*
X99230577Y-70202212D01*
X99229815Y-70204809D01*
X99213181Y-70225451D01*
X99125451Y-70313181D01*
X99064128Y-70346666D01*
X99037770Y-70349500D01*
X95536495Y-70349500D01*
X95469456Y-70329815D01*
X95448814Y-70313181D01*
X95419657Y-70284024D01*
X95296437Y-70201692D01*
X95247598Y-70169059D01*
X95243134Y-70167210D01*
X95056420Y-70089870D01*
X95056412Y-70089868D01*
X94853469Y-70049500D01*
X94853465Y-70049500D01*
X94646535Y-70049500D01*
X94646530Y-70049500D01*
X94443587Y-70089868D01*
X94443579Y-70089870D01*
X94252403Y-70169058D01*
X94080342Y-70284024D01*
X93934024Y-70430342D01*
X93819058Y-70602403D01*
X93739870Y-70793579D01*
X93739868Y-70793585D01*
X93704970Y-70969030D01*
X93672585Y-71030940D01*
X93671035Y-71032519D01*
X93603554Y-71100000D01*
X93671034Y-71167480D01*
X93704519Y-71228803D01*
X93704970Y-71230970D01*
X93739868Y-71406412D01*
X93739870Y-71406420D01*
X93819058Y-71597596D01*
X93934024Y-71769657D01*
X94080342Y-71915975D01*
X94080345Y-71915977D01*
X94252402Y-72030941D01*
X94443580Y-72110130D01*
X94644016Y-72149999D01*
X94646530Y-72150499D01*
X94646534Y-72150500D01*
X94646535Y-72150500D01*
X94853466Y-72150500D01*
X94853467Y-72150499D01*
X95056420Y-72110130D01*
X95247598Y-72030941D01*
X95419655Y-71915977D01*
X95419658Y-71915974D01*
X95448814Y-71886819D01*
X95510137Y-71853334D01*
X95536495Y-71850500D01*
X99125500Y-71850500D01*
X99192539Y-71870185D01*
X99238294Y-71922989D01*
X99249500Y-71974500D01*
X99249500Y-73708571D01*
X99246221Y-73719735D01*
X99247397Y-73731312D01*
X99236556Y-73752650D01*
X99229815Y-73775610D01*
X99220214Y-73784819D01*
X99215751Y-73793605D01*
X99199025Y-73805143D01*
X99188139Y-73815587D01*
X99180802Y-73819881D01*
X99144505Y-73834916D01*
X99072614Y-73882952D01*
X99069561Y-73884991D01*
X99069542Y-73885003D01*
X99021582Y-73917049D01*
X99021579Y-73917052D01*
X98225451Y-74713181D01*
X98164128Y-74746666D01*
X98137770Y-74749500D01*
X94926080Y-74749500D01*
X94781092Y-74778340D01*
X94781082Y-74778343D01*
X94644511Y-74834912D01*
X94644499Y-74834919D01*
X94572614Y-74882952D01*
X94572613Y-74882953D01*
X94521581Y-74917050D01*
X94521580Y-74917051D01*
X92417050Y-77021580D01*
X92417044Y-77021588D01*
X92367812Y-77095268D01*
X92367813Y-77095269D01*
X92334921Y-77144496D01*
X92334914Y-77144508D01*
X92278342Y-77281086D01*
X92278340Y-77281092D01*
X92249500Y-77426079D01*
X92249500Y-82213505D01*
X92229815Y-82280544D01*
X92213181Y-82301186D01*
X92184025Y-82330341D01*
X92184024Y-82330342D01*
X92069058Y-82502403D01*
X91989870Y-82693579D01*
X91989868Y-82693587D01*
X91949500Y-82896530D01*
X90000000Y-82896530D01*
X90000000Y-71998620D01*
X92704931Y-71998620D01*
X92704932Y-71998621D01*
X92752633Y-72030495D01*
X92752639Y-72030498D01*
X92943725Y-72109649D01*
X92943733Y-72109651D01*
X93146579Y-72149999D01*
X93146583Y-72150000D01*
X93353417Y-72150000D01*
X93353420Y-72149999D01*
X93556266Y-72109651D01*
X93556274Y-72109649D01*
X93747366Y-72030495D01*
X93795066Y-71998621D01*
X93795067Y-71998620D01*
X93250001Y-71453554D01*
X93250000Y-71453554D01*
X92704931Y-71998620D01*
X90000000Y-71998620D01*
X90000000Y-70996579D01*
X92200000Y-70996579D01*
X92200000Y-71203420D01*
X92240348Y-71406266D01*
X92240350Y-71406274D01*
X92319500Y-71597359D01*
X92351377Y-71645067D01*
X92351378Y-71645067D01*
X92896446Y-71100000D01*
X92850368Y-71053922D01*
X92900000Y-71053922D01*
X92900000Y-71146078D01*
X92923852Y-71235095D01*
X92969930Y-71314905D01*
X93035095Y-71380070D01*
X93114905Y-71426148D01*
X93203922Y-71450000D01*
X93296078Y-71450000D01*
X93385095Y-71426148D01*
X93464905Y-71380070D01*
X93530070Y-71314905D01*
X93576148Y-71235095D01*
X93600000Y-71146078D01*
X93600000Y-71053922D01*
X93576148Y-70964905D01*
X93530070Y-70885095D01*
X93464905Y-70819930D01*
X93385095Y-70773852D01*
X93296078Y-70750000D01*
X93203922Y-70750000D01*
X93114905Y-70773852D01*
X93035095Y-70819930D01*
X92969930Y-70885095D01*
X92923852Y-70964905D01*
X92900000Y-71053922D01*
X92850368Y-71053922D01*
X92351378Y-70554932D01*
X92351377Y-70554932D01*
X92319505Y-70602631D01*
X92319500Y-70602641D01*
X92240350Y-70793725D01*
X92240348Y-70793733D01*
X92200000Y-70996579D01*
X90000000Y-70996579D01*
X90000000Y-70201377D01*
X92704932Y-70201377D01*
X92704932Y-70201378D01*
X93250000Y-70746446D01*
X93250001Y-70746446D01*
X93795067Y-70201378D01*
X93795067Y-70201377D01*
X93747359Y-70169500D01*
X93556274Y-70090350D01*
X93556266Y-70090348D01*
X93353420Y-70050000D01*
X93146579Y-70050000D01*
X92943733Y-70090348D01*
X92943725Y-70090350D01*
X92752641Y-70169500D01*
X92752631Y-70169505D01*
X92704932Y-70201377D01*
X90000000Y-70201377D01*
X90000000Y-67226677D01*
X99025000Y-67226677D01*
X99025000Y-67250000D01*
X99750000Y-67250000D01*
X100250000Y-67250000D01*
X100974999Y-67250000D01*
X100974999Y-67226692D01*
X100974998Y-67226677D01*
X100964855Y-67127392D01*
X100911547Y-66966518D01*
X100911542Y-66966507D01*
X100822575Y-66822271D01*
X100822572Y-66822267D01*
X100702732Y-66702427D01*
X100702728Y-66702424D01*
X100558492Y-66613457D01*
X100558481Y-66613452D01*
X100397606Y-66560144D01*
X100298322Y-66550000D01*
X100250000Y-66550000D01*
X100250000Y-67250000D01*
X99750000Y-67250000D01*
X99750000Y-66550000D01*
X99749999Y-66549999D01*
X99701693Y-66550000D01*
X99701675Y-66550001D01*
X99602392Y-66560144D01*
X99441518Y-66613452D01*
X99441507Y-66613457D01*
X99297271Y-66702424D01*
X99297267Y-66702427D01*
X99177427Y-66822267D01*
X99177424Y-66822271D01*
X99088457Y-66966507D01*
X99088452Y-66966518D01*
X99035144Y-67127393D01*
X99025000Y-67226677D01*
X90000000Y-67226677D01*
X90000000Y-65624000D01*
X90019685Y-65556961D01*
X90072489Y-65511206D01*
X90124000Y-65500000D01*
X120876000Y-65500000D01*
X120943039Y-65519685D01*
G37*
%TD.AperFunction*%
%TD*%
M02*
