%TF.GenerationSoftware,KiCad,Pcbnew,10.0.1*%
%TF.CreationDate,2026-05-18T21:03:44+02:00*%
%TF.ProjectId,usbC,75736243-2e6b-4696-9361-645f70636258,rev?*%
%TF.SameCoordinates,Original*%
%TF.FileFunction,Copper,L2,Bot*%
%TF.FilePolarity,Positive*%
%FSLAX46Y46*%
G04 Gerber Fmt 4.6, Leading zero omitted, Abs format (unit mm)*
G04 Created by KiCad (PCBNEW 10.0.1) date 2026-05-18 21:03:44*
%MOMM*%
%LPD*%
G01*
G04 APERTURE LIST*
%TA.AperFunction,ComponentPad*%
%ADD10C,1.100000*%
%TD*%
%TA.AperFunction,ComponentPad*%
%ADD11O,1.300000X2.300000*%
%TD*%
%TA.AperFunction,ComponentPad*%
%ADD12O,1.300000X2.100000*%
%TD*%
%TA.AperFunction,ComponentPad*%
%ADD13C,0.500000*%
%TD*%
%TA.AperFunction,ViaPad*%
%ADD14C,0.604799*%
%TD*%
%TA.AperFunction,Conductor*%
%ADD15C,0.500000*%
%TD*%
%TA.AperFunction,Conductor*%
%ADD16C,0.300000*%
%TD*%
G04 APERTURE END LIST*
D10*
%TO.P,J4,2,Pin_2_2*%
%TO.N,GND*%
X102250000Y-71100000D03*
%TO.P,J4,1,Pin_1_1*%
%TO.N,+5V*%
X103750000Y-71100000D03*
%TD*%
%TO.P,J1,1,Pin_1_1*%
%TO.N,VCC*%
X94600000Y-75250000D03*
%TO.P,J1,2,Pin_2_2*%
%TO.N,GND*%
X94600000Y-76750000D03*
%TD*%
%TO.P,J5,1,Pin_1_1*%
%TO.N,VCC*%
X94500000Y-82500000D03*
%TO.P,J5,2,Pin_2_2*%
%TO.N,GND*%
X94500000Y-84000000D03*
%TD*%
%TO.P,J2,1,Pin_1_1*%
%TO.N,VCC*%
X94600000Y-68250000D03*
%TO.P,J2,2,Pin_2_2*%
%TO.N,GND*%
X94600000Y-69750000D03*
%TD*%
D11*
%TO.P,J9,S1,SHIELD_S1*%
%TO.N,GND*%
X110395000Y-83180000D03*
D12*
X110395000Y-87380000D03*
D13*
X112725000Y-86000000D03*
X112725000Y-88000000D03*
X116725000Y-86000000D03*
X116725000Y-88000000D03*
D11*
X119055000Y-83180000D03*
D12*
X119055000Y-87380000D03*
%TD*%
D14*
%TO.N,GND*%
X111225000Y-81000000D03*
X105775000Y-78000000D03*
X120225000Y-85000000D03*
X108725000Y-83500000D03*
X118725000Y-81500000D03*
X99000000Y-79050000D03*
X118225000Y-78000000D03*
%TO.N,+5V*%
X113225000Y-73000000D03*
X118225000Y-72500000D03*
%TO.N,/D-*%
X114725000Y-81000000D03*
X117225000Y-78500000D03*
%TO.N,/D+*%
X114725000Y-84000000D03*
X119225000Y-78500000D03*
%TD*%
%TO.N,+5V*%
D15*
X113725000Y-72500000D02*
X118225000Y-72500000D01*
X113225000Y-73000000D02*
X113725000Y-72500000D01*
%TO.N,/D-*%
D16*
X114725000Y-81000000D02*
X117225000Y-78500000D01*
%TO.N,/D+*%
X114725000Y-84000000D02*
X119225000Y-79500000D01*
X119225000Y-79500000D02*
X119225000Y-78500000D01*
%TD*%
%TA.AperFunction,Conductor*%
%TO.N,GND*%
G36*
X120943039Y-65519685D02*
G01*
X120988794Y-65572489D01*
X121000000Y-65624000D01*
X121000000Y-89376000D01*
X120980315Y-89443039D01*
X120927511Y-89488794D01*
X120876000Y-89500000D01*
X89124000Y-89500000D01*
X89056961Y-89480315D01*
X89011206Y-89427511D01*
X89000000Y-89376000D01*
X89000000Y-86889493D01*
X109245000Y-86889493D01*
X109245000Y-87130000D01*
X110145000Y-87130000D01*
X110145000Y-87630000D01*
X109245000Y-87630000D01*
X109245000Y-87870506D01*
X109273317Y-88049293D01*
X109329251Y-88221444D01*
X109329252Y-88221447D01*
X109411434Y-88382734D01*
X109517823Y-88529169D01*
X109645830Y-88657176D01*
X109792265Y-88763565D01*
X109953552Y-88845747D01*
X109953555Y-88845748D01*
X110125699Y-88901680D01*
X110125712Y-88901683D01*
X110145000Y-88904738D01*
X110145000Y-87829728D01*
X110183060Y-87921614D01*
X110253386Y-87991940D01*
X110345272Y-88030000D01*
X110444728Y-88030000D01*
X110536614Y-87991940D01*
X110606940Y-87921614D01*
X110645000Y-87829728D01*
X110645000Y-88904737D01*
X110664287Y-88901683D01*
X110664300Y-88901680D01*
X110836444Y-88845748D01*
X110836447Y-88845747D01*
X110997734Y-88763565D01*
X111144169Y-88657176D01*
X111272176Y-88529169D01*
X111378565Y-88382734D01*
X111446198Y-88250000D01*
X112016759Y-88250000D01*
X112060357Y-88355254D01*
X112060362Y-88355264D01*
X112142436Y-88478096D01*
X112142439Y-88478100D01*
X112246899Y-88582560D01*
X112246907Y-88582566D01*
X112369739Y-88664640D01*
X112369743Y-88664642D01*
X112474999Y-88708240D01*
X112475000Y-88708240D01*
X112975000Y-88708240D01*
X113080256Y-88664642D01*
X113080260Y-88664640D01*
X113203092Y-88582566D01*
X113203100Y-88582560D01*
X113307560Y-88478100D01*
X113307563Y-88478096D01*
X113389637Y-88355264D01*
X113389642Y-88355254D01*
X113433241Y-88250000D01*
X116016759Y-88250000D01*
X116060357Y-88355254D01*
X116060362Y-88355264D01*
X116142436Y-88478096D01*
X116142439Y-88478100D01*
X116246899Y-88582560D01*
X116246907Y-88582566D01*
X116369739Y-88664640D01*
X116369743Y-88664642D01*
X116474999Y-88708240D01*
X116475000Y-88708240D01*
X116975000Y-88708240D01*
X117080256Y-88664642D01*
X117080260Y-88664640D01*
X117203092Y-88582566D01*
X117203100Y-88582560D01*
X117307560Y-88478100D01*
X117307563Y-88478096D01*
X117389637Y-88355264D01*
X117389642Y-88355254D01*
X117433241Y-88250000D01*
X116975000Y-88250000D01*
X116975000Y-88708240D01*
X116475000Y-88708240D01*
X116475000Y-88250000D01*
X116016759Y-88250000D01*
X113433241Y-88250000D01*
X112975000Y-88250000D01*
X112975000Y-88708240D01*
X112475000Y-88708240D01*
X112475000Y-88250000D01*
X112016759Y-88250000D01*
X111446198Y-88250000D01*
X111460747Y-88221447D01*
X111460748Y-88221444D01*
X111468398Y-88197901D01*
X111516682Y-88049293D01*
X111529215Y-87970163D01*
X112575000Y-87970163D01*
X112575000Y-88029837D01*
X112597836Y-88084968D01*
X112640032Y-88127164D01*
X112695163Y-88150000D01*
X112754837Y-88150000D01*
X112809968Y-88127164D01*
X112852164Y-88084968D01*
X112875000Y-88029837D01*
X112875000Y-87970163D01*
X116575000Y-87970163D01*
X116575000Y-88029837D01*
X116597836Y-88084968D01*
X116640032Y-88127164D01*
X116695163Y-88150000D01*
X116754837Y-88150000D01*
X116809968Y-88127164D01*
X116852164Y-88084968D01*
X116875000Y-88029837D01*
X116875000Y-87970163D01*
X116852164Y-87915032D01*
X116809968Y-87872836D01*
X116754837Y-87850000D01*
X116695163Y-87850000D01*
X116640032Y-87872836D01*
X116597836Y-87915032D01*
X116575000Y-87970163D01*
X112875000Y-87970163D01*
X112852164Y-87915032D01*
X112809968Y-87872836D01*
X112754837Y-87850000D01*
X112695163Y-87850000D01*
X112640032Y-87872836D01*
X112597836Y-87915032D01*
X112575000Y-87970163D01*
X111529215Y-87970163D01*
X111545000Y-87870506D01*
X111545000Y-87749999D01*
X112016759Y-87749999D01*
X112016759Y-87750000D01*
X112475000Y-87750000D01*
X112975000Y-87750000D01*
X113433241Y-87750000D01*
X113433240Y-87749999D01*
X116016759Y-87749999D01*
X116016759Y-87750000D01*
X116475000Y-87750000D01*
X116975000Y-87750000D01*
X117433241Y-87750000D01*
X117433240Y-87749999D01*
X117389642Y-87644745D01*
X117389637Y-87644734D01*
X117307563Y-87521903D01*
X117307560Y-87521899D01*
X117203100Y-87417439D01*
X117203096Y-87417436D01*
X117080264Y-87335362D01*
X117080254Y-87335357D01*
X116975000Y-87291759D01*
X116975000Y-87750000D01*
X116475000Y-87750000D01*
X116475000Y-87291759D01*
X116474999Y-87291759D01*
X116369745Y-87335357D01*
X116369735Y-87335362D01*
X116246903Y-87417436D01*
X116246899Y-87417439D01*
X116142439Y-87521899D01*
X116142436Y-87521903D01*
X116060362Y-87644735D01*
X116060357Y-87644745D01*
X116016759Y-87749999D01*
X113433240Y-87749999D01*
X113389642Y-87644745D01*
X113389637Y-87644735D01*
X113307563Y-87521903D01*
X113307560Y-87521899D01*
X113203100Y-87417439D01*
X113203096Y-87417436D01*
X113080264Y-87335362D01*
X113080254Y-87335357D01*
X112975000Y-87291759D01*
X112975000Y-87750000D01*
X112475000Y-87750000D01*
X112475000Y-87291759D01*
X112474999Y-87291759D01*
X112369745Y-87335357D01*
X112369735Y-87335362D01*
X112246903Y-87417436D01*
X112246899Y-87417439D01*
X112142439Y-87521899D01*
X112142436Y-87521903D01*
X112060362Y-87644735D01*
X112060357Y-87644745D01*
X112016759Y-87749999D01*
X111545000Y-87749999D01*
X111545000Y-87630000D01*
X110645000Y-87630000D01*
X110645000Y-87130000D01*
X111545000Y-87130000D01*
X111545000Y-86889493D01*
X117905000Y-86889493D01*
X117905000Y-87130000D01*
X118805000Y-87130000D01*
X118805000Y-87630000D01*
X117905000Y-87630000D01*
X117905000Y-87870506D01*
X117933317Y-88049293D01*
X117989251Y-88221444D01*
X117989252Y-88221447D01*
X118071434Y-88382734D01*
X118177823Y-88529169D01*
X118305830Y-88657176D01*
X118452265Y-88763565D01*
X118613552Y-88845747D01*
X118613555Y-88845748D01*
X118785699Y-88901680D01*
X118785712Y-88901683D01*
X118805000Y-88904738D01*
X118805000Y-87829728D01*
X118843060Y-87921614D01*
X118913386Y-87991940D01*
X119005272Y-88030000D01*
X119104728Y-88030000D01*
X119196614Y-87991940D01*
X119266940Y-87921614D01*
X119305000Y-87829728D01*
X119305000Y-88904737D01*
X119324287Y-88901683D01*
X119324300Y-88901680D01*
X119496444Y-88845748D01*
X119496447Y-88845747D01*
X119657734Y-88763565D01*
X119804169Y-88657176D01*
X119932176Y-88529169D01*
X120038565Y-88382734D01*
X120120747Y-88221447D01*
X120120748Y-88221444D01*
X120176682Y-88049293D01*
X120205000Y-87870506D01*
X120205000Y-87630000D01*
X119305000Y-87630000D01*
X119305000Y-87130000D01*
X120205000Y-87130000D01*
X120205000Y-86889493D01*
X120176682Y-86710706D01*
X120120748Y-86538555D01*
X120120747Y-86538552D01*
X120038565Y-86377265D01*
X119932176Y-86230830D01*
X119804169Y-86102823D01*
X119657734Y-85996434D01*
X119496447Y-85914252D01*
X119496441Y-85914250D01*
X119324295Y-85858318D01*
X119324285Y-85858315D01*
X119305000Y-85855260D01*
X119305000Y-86930272D01*
X119266940Y-86838386D01*
X119196614Y-86768060D01*
X119104728Y-86730000D01*
X119005272Y-86730000D01*
X118913386Y-86768060D01*
X118843060Y-86838386D01*
X118805000Y-86930272D01*
X118805000Y-85855260D01*
X118785714Y-85858315D01*
X118785704Y-85858318D01*
X118613558Y-85914250D01*
X118613552Y-85914252D01*
X118452265Y-85996434D01*
X118305830Y-86102823D01*
X118177823Y-86230830D01*
X118071434Y-86377265D01*
X117989252Y-86538552D01*
X117989251Y-86538555D01*
X117933317Y-86710706D01*
X117905000Y-86889493D01*
X111545000Y-86889493D01*
X111516682Y-86710706D01*
X111460748Y-86538555D01*
X111460747Y-86538552D01*
X111378565Y-86377265D01*
X111329046Y-86309107D01*
X111329043Y-86309104D01*
X111286102Y-86250000D01*
X112016759Y-86250000D01*
X112060357Y-86355254D01*
X112060362Y-86355264D01*
X112142436Y-86478096D01*
X112142439Y-86478100D01*
X112246899Y-86582560D01*
X112246907Y-86582566D01*
X112369739Y-86664640D01*
X112369743Y-86664642D01*
X112474999Y-86708240D01*
X112475000Y-86708240D01*
X112975000Y-86708240D01*
X113080256Y-86664642D01*
X113080260Y-86664640D01*
X113203092Y-86582566D01*
X113203100Y-86582560D01*
X113307560Y-86478100D01*
X113307563Y-86478096D01*
X113389637Y-86355264D01*
X113389642Y-86355254D01*
X113433241Y-86250000D01*
X116016759Y-86250000D01*
X116060357Y-86355254D01*
X116060362Y-86355264D01*
X116142436Y-86478096D01*
X116142439Y-86478100D01*
X116246899Y-86582560D01*
X116246907Y-86582566D01*
X116369739Y-86664640D01*
X116369743Y-86664642D01*
X116474999Y-86708240D01*
X116475000Y-86708240D01*
X116975000Y-86708240D01*
X117080256Y-86664642D01*
X117080260Y-86664640D01*
X117203092Y-86582566D01*
X117203100Y-86582560D01*
X117307560Y-86478100D01*
X117307563Y-86478096D01*
X117389637Y-86355264D01*
X117389642Y-86355254D01*
X117433241Y-86250000D01*
X116975000Y-86250000D01*
X116975000Y-86708240D01*
X116475000Y-86708240D01*
X116475000Y-86250000D01*
X116016759Y-86250000D01*
X113433241Y-86250000D01*
X112975000Y-86250000D01*
X112975000Y-86708240D01*
X112475000Y-86708240D01*
X112475000Y-86250000D01*
X112016759Y-86250000D01*
X111286102Y-86250000D01*
X111272170Y-86230824D01*
X111144169Y-86102823D01*
X110997734Y-85996434D01*
X110946176Y-85970163D01*
X112575000Y-85970163D01*
X112575000Y-86029837D01*
X112597836Y-86084968D01*
X112640032Y-86127164D01*
X112695163Y-86150000D01*
X112754837Y-86150000D01*
X112809968Y-86127164D01*
X112852164Y-86084968D01*
X112875000Y-86029837D01*
X112875000Y-85970163D01*
X116575000Y-85970163D01*
X116575000Y-86029837D01*
X116597836Y-86084968D01*
X116640032Y-86127164D01*
X116695163Y-86150000D01*
X116754837Y-86150000D01*
X116809968Y-86127164D01*
X116852164Y-86084968D01*
X116875000Y-86029837D01*
X116875000Y-85970163D01*
X116852164Y-85915032D01*
X116809968Y-85872836D01*
X116754837Y-85850000D01*
X116695163Y-85850000D01*
X116640032Y-85872836D01*
X116597836Y-85915032D01*
X116575000Y-85970163D01*
X112875000Y-85970163D01*
X112852164Y-85915032D01*
X112809968Y-85872836D01*
X112754837Y-85850000D01*
X112695163Y-85850000D01*
X112640032Y-85872836D01*
X112597836Y-85915032D01*
X112575000Y-85970163D01*
X110946176Y-85970163D01*
X110836447Y-85914252D01*
X110836441Y-85914250D01*
X110736296Y-85881712D01*
X110664295Y-85858318D01*
X110664285Y-85858315D01*
X110645000Y-85855260D01*
X110645000Y-86930272D01*
X110606940Y-86838386D01*
X110536614Y-86768060D01*
X110444728Y-86730000D01*
X110345272Y-86730000D01*
X110253386Y-86768060D01*
X110183060Y-86838386D01*
X110145000Y-86930272D01*
X110145000Y-85855260D01*
X110125714Y-85858315D01*
X110125704Y-85858318D01*
X109953558Y-85914250D01*
X109953552Y-85914252D01*
X109792265Y-85996434D01*
X109645830Y-86102823D01*
X109517823Y-86230830D01*
X109411434Y-86377265D01*
X109329252Y-86538552D01*
X109329251Y-86538555D01*
X109273317Y-86710706D01*
X109245000Y-86889493D01*
X89000000Y-86889493D01*
X89000000Y-85749999D01*
X112016759Y-85749999D01*
X112016759Y-85750000D01*
X112475000Y-85750000D01*
X112975000Y-85750000D01*
X113433241Y-85750000D01*
X113433240Y-85749999D01*
X116016759Y-85749999D01*
X116016759Y-85750000D01*
X116475000Y-85750000D01*
X116975000Y-85750000D01*
X117433241Y-85750000D01*
X117433240Y-85749999D01*
X117389642Y-85644745D01*
X117389637Y-85644735D01*
X117307563Y-85521903D01*
X117307560Y-85521899D01*
X117203100Y-85417439D01*
X117203096Y-85417436D01*
X117080264Y-85335362D01*
X117080254Y-85335357D01*
X116975000Y-85291759D01*
X116975000Y-85750000D01*
X116475000Y-85750000D01*
X116475000Y-85291759D01*
X116474999Y-85291759D01*
X116369745Y-85335357D01*
X116369735Y-85335362D01*
X116246903Y-85417436D01*
X116246899Y-85417439D01*
X116142439Y-85521899D01*
X116142436Y-85521903D01*
X116060362Y-85644735D01*
X116060357Y-85644745D01*
X116016759Y-85749999D01*
X113433240Y-85749999D01*
X113389642Y-85644745D01*
X113389637Y-85644735D01*
X113307563Y-85521903D01*
X113307560Y-85521899D01*
X113203100Y-85417439D01*
X113203096Y-85417436D01*
X113080264Y-85335362D01*
X113080254Y-85335357D01*
X112975000Y-85291759D01*
X112975000Y-85750000D01*
X112475000Y-85750000D01*
X112475000Y-85291759D01*
X112474999Y-85291759D01*
X112369745Y-85335357D01*
X112369735Y-85335362D01*
X112246903Y-85417436D01*
X112246899Y-85417439D01*
X112142439Y-85521899D01*
X112142436Y-85521903D01*
X112060362Y-85644735D01*
X112060357Y-85644745D01*
X112016759Y-85749999D01*
X89000000Y-85749999D01*
X89000000Y-84898620D01*
X93954931Y-84898620D01*
X93954932Y-84898621D01*
X94002633Y-84930495D01*
X94002639Y-84930498D01*
X94193725Y-85009649D01*
X94193733Y-85009651D01*
X94396579Y-85049999D01*
X94396583Y-85050000D01*
X94603417Y-85050000D01*
X94603420Y-85049999D01*
X94806266Y-85009651D01*
X94806274Y-85009649D01*
X94997366Y-84930495D01*
X95045066Y-84898621D01*
X95045067Y-84898620D01*
X94500001Y-84353554D01*
X94500000Y-84353554D01*
X93954931Y-84898620D01*
X89000000Y-84898620D01*
X89000000Y-83896579D01*
X93450000Y-83896579D01*
X93450000Y-84103420D01*
X93490348Y-84306266D01*
X93490350Y-84306274D01*
X93569500Y-84497359D01*
X93601377Y-84545067D01*
X93601378Y-84545067D01*
X94146446Y-84000000D01*
X94100368Y-83953922D01*
X94150000Y-83953922D01*
X94150000Y-84046078D01*
X94173852Y-84135095D01*
X94219930Y-84214905D01*
X94285095Y-84280070D01*
X94364905Y-84326148D01*
X94453922Y-84350000D01*
X94546078Y-84350000D01*
X94635095Y-84326148D01*
X94714905Y-84280070D01*
X94780070Y-84214905D01*
X94826148Y-84135095D01*
X94850000Y-84046078D01*
X94850000Y-83999999D01*
X94853554Y-83999999D01*
X94853554Y-84000000D01*
X95398620Y-84545067D01*
X95398621Y-84545066D01*
X95430495Y-84497366D01*
X95509649Y-84306274D01*
X95509651Y-84306266D01*
X95549999Y-84103420D01*
X95550000Y-84103417D01*
X95550000Y-83896583D01*
X95549999Y-83896579D01*
X95509651Y-83693733D01*
X95509649Y-83693725D01*
X95430498Y-83502638D01*
X95398620Y-83454931D01*
X94853554Y-83999999D01*
X94850000Y-83999999D01*
X94850000Y-83953922D01*
X94826148Y-83864905D01*
X94780070Y-83785095D01*
X94714905Y-83719930D01*
X94635095Y-83673852D01*
X94546078Y-83650000D01*
X94453922Y-83650000D01*
X94364905Y-83673852D01*
X94285095Y-83719930D01*
X94219930Y-83785095D01*
X94173852Y-83864905D01*
X94150000Y-83953922D01*
X94100368Y-83953922D01*
X93601378Y-83454932D01*
X93601377Y-83454932D01*
X93569505Y-83502631D01*
X93569502Y-83502638D01*
X93490350Y-83693725D01*
X93490348Y-83693733D01*
X93450000Y-83896579D01*
X89000000Y-83896579D01*
X89000000Y-82396530D01*
X93449500Y-82396530D01*
X93449500Y-82603469D01*
X93489868Y-82806412D01*
X93489870Y-82806420D01*
X93569058Y-82997596D01*
X93684024Y-83169657D01*
X93830342Y-83315975D01*
X93830345Y-83315977D01*
X94002402Y-83430941D01*
X94193580Y-83510130D01*
X94301017Y-83531500D01*
X94369029Y-83545029D01*
X94430940Y-83577413D01*
X94432519Y-83578965D01*
X94499999Y-83646445D01*
X94567479Y-83578965D01*
X94628802Y-83545480D01*
X94630970Y-83545029D01*
X94644521Y-83542333D01*
X94806420Y-83510130D01*
X94997598Y-83430941D01*
X95169655Y-83315977D01*
X95315977Y-83169655D01*
X95430941Y-82997598D01*
X95510130Y-82806420D01*
X95550500Y-82603465D01*
X95550500Y-82589493D01*
X109245000Y-82589493D01*
X109245000Y-82930000D01*
X110145000Y-82930000D01*
X110145000Y-83430000D01*
X109245000Y-83430000D01*
X109245000Y-83770506D01*
X109273317Y-83949293D01*
X109329251Y-84121444D01*
X109329252Y-84121447D01*
X109411434Y-84282734D01*
X109517823Y-84429169D01*
X109645830Y-84557176D01*
X109792265Y-84663565D01*
X109953552Y-84745747D01*
X109953555Y-84745748D01*
X110125699Y-84801680D01*
X110125712Y-84801683D01*
X110145000Y-84804738D01*
X110145000Y-83779728D01*
X110183060Y-83871614D01*
X110253386Y-83941940D01*
X110345272Y-83980000D01*
X110444728Y-83980000D01*
X110536614Y-83941940D01*
X110606940Y-83871614D01*
X110645000Y-83779728D01*
X110645000Y-84804737D01*
X110664287Y-84801683D01*
X110664300Y-84801680D01*
X110836444Y-84745748D01*
X110836447Y-84745747D01*
X110997734Y-84663565D01*
X111144169Y-84557176D01*
X111272176Y-84429169D01*
X111378565Y-84282735D01*
X111446526Y-84149355D01*
X111494500Y-84098559D01*
X111562321Y-84081764D01*
X111619010Y-84098262D01*
X111660187Y-84122036D01*
X111775375Y-84152900D01*
X111775377Y-84152900D01*
X111894623Y-84152900D01*
X111894625Y-84152900D01*
X112009813Y-84122036D01*
X112113087Y-84062410D01*
X112197410Y-83978087D01*
X112230418Y-83920916D01*
X113922101Y-83920916D01*
X113922101Y-84079083D01*
X113952954Y-84234189D01*
X113952957Y-84234201D01*
X114013477Y-84380310D01*
X114013478Y-84380312D01*
X114101347Y-84511818D01*
X114213181Y-84623652D01*
X114300653Y-84682098D01*
X114344685Y-84711520D01*
X114344686Y-84711520D01*
X114344687Y-84711521D01*
X114344689Y-84711522D01*
X114490798Y-84772042D01*
X114490803Y-84772044D01*
X114639793Y-84801680D01*
X114645916Y-84802898D01*
X114645919Y-84802899D01*
X114645921Y-84802899D01*
X114804081Y-84802899D01*
X114804082Y-84802898D01*
X114959197Y-84772044D01*
X115105315Y-84711520D01*
X115236818Y-84623652D01*
X115348652Y-84511818D01*
X115436520Y-84380315D01*
X115497044Y-84234197D01*
X115511133Y-84163363D01*
X115543517Y-84101455D01*
X115545013Y-84099931D01*
X116004569Y-83640375D01*
X117162100Y-83640375D01*
X117162100Y-83759625D01*
X117168925Y-83785095D01*
X117192964Y-83874814D01*
X117205533Y-83896583D01*
X117252590Y-83978087D01*
X117336913Y-84062410D01*
X117426348Y-84114046D01*
X117439161Y-84121444D01*
X117440187Y-84122036D01*
X117555375Y-84152900D01*
X117555377Y-84152900D01*
X117674623Y-84152900D01*
X117674625Y-84152900D01*
X117789813Y-84122036D01*
X117790839Y-84121444D01*
X117800060Y-84116119D01*
X117830987Y-84098263D01*
X117898886Y-84081790D01*
X117964913Y-84104641D01*
X118003473Y-84149355D01*
X118071434Y-84282734D01*
X118177823Y-84429169D01*
X118305830Y-84557176D01*
X118452265Y-84663565D01*
X118613552Y-84745747D01*
X118613555Y-84745748D01*
X118785699Y-84801680D01*
X118785712Y-84801683D01*
X118805000Y-84804738D01*
X118805000Y-83779728D01*
X118843060Y-83871614D01*
X118913386Y-83941940D01*
X119005272Y-83980000D01*
X119104728Y-83980000D01*
X119196614Y-83941940D01*
X119266940Y-83871614D01*
X119305000Y-83779728D01*
X119305000Y-84804737D01*
X119324287Y-84801683D01*
X119324300Y-84801680D01*
X119496444Y-84745748D01*
X119496447Y-84745747D01*
X119657734Y-84663565D01*
X119804169Y-84557176D01*
X119932176Y-84429169D01*
X120038565Y-84282734D01*
X120120747Y-84121447D01*
X120120748Y-84121444D01*
X120176682Y-83949293D01*
X120205000Y-83770506D01*
X120205000Y-83430000D01*
X119305000Y-83430000D01*
X119305000Y-82930000D01*
X120205000Y-82930000D01*
X120205000Y-82589493D01*
X120176682Y-82410706D01*
X120120748Y-82238555D01*
X120120747Y-82238552D01*
X120038565Y-82077265D01*
X119932176Y-81930830D01*
X119804169Y-81802823D01*
X119657734Y-81696434D01*
X119496447Y-81614252D01*
X119496441Y-81614250D01*
X119324295Y-81558318D01*
X119324285Y-81558315D01*
X119305000Y-81555260D01*
X119305000Y-82580272D01*
X119266940Y-82488386D01*
X119196614Y-82418060D01*
X119104728Y-82380000D01*
X119005272Y-82380000D01*
X118913386Y-82418060D01*
X118843060Y-82488386D01*
X118805000Y-82580272D01*
X118805000Y-81555260D01*
X118785714Y-81558315D01*
X118785704Y-81558318D01*
X118613558Y-81614250D01*
X118613552Y-81614252D01*
X118452265Y-81696434D01*
X118305830Y-81802823D01*
X118177823Y-81930830D01*
X118071434Y-82077265D01*
X117989252Y-82238552D01*
X117989251Y-82238555D01*
X117933317Y-82410706D01*
X117905000Y-82589493D01*
X117905000Y-82930000D01*
X118805000Y-82930000D01*
X118805000Y-83430000D01*
X118036859Y-83430000D01*
X117969820Y-83410315D01*
X117949178Y-83393681D01*
X117893089Y-83337592D01*
X117893087Y-83337590D01*
X117841450Y-83307777D01*
X117789814Y-83277964D01*
X117732219Y-83262532D01*
X117674625Y-83247100D01*
X117555375Y-83247100D01*
X117440185Y-83277964D01*
X117336913Y-83337590D01*
X117336910Y-83337592D01*
X117252592Y-83421910D01*
X117252590Y-83421913D01*
X117192964Y-83525185D01*
X117178970Y-83577413D01*
X117162100Y-83640375D01*
X116004569Y-83640375D01*
X119730277Y-79914669D01*
X119801465Y-79808127D01*
X119850501Y-79689744D01*
X119875500Y-79564069D01*
X119875500Y-79009252D01*
X119895185Y-78942213D01*
X119896398Y-78940361D01*
X119936520Y-78880315D01*
X119997044Y-78734197D01*
X120027899Y-78579079D01*
X120027899Y-78420921D01*
X120027899Y-78420918D01*
X120027898Y-78420916D01*
X119997045Y-78265810D01*
X119997045Y-78265808D01*
X119997044Y-78265803D01*
X119936520Y-78119685D01*
X119907098Y-78075653D01*
X119848652Y-77988181D01*
X119736818Y-77876347D01*
X119605312Y-77788478D01*
X119605310Y-77788477D01*
X119459201Y-77727957D01*
X119459189Y-77727954D01*
X119304082Y-77697101D01*
X119304079Y-77697101D01*
X119145921Y-77697101D01*
X119145918Y-77697101D01*
X118990810Y-77727954D01*
X118990798Y-77727957D01*
X118844689Y-77788477D01*
X118844687Y-77788478D01*
X118713181Y-77876347D01*
X118601347Y-77988181D01*
X118513478Y-78119687D01*
X118513477Y-78119689D01*
X118452957Y-78265798D01*
X118452954Y-78265810D01*
X118422101Y-78420916D01*
X118422101Y-78579083D01*
X118452954Y-78734189D01*
X118452957Y-78734201D01*
X118513477Y-78880310D01*
X118513478Y-78880311D01*
X118513480Y-78880315D01*
X118553602Y-78940361D01*
X118559252Y-78958407D01*
X118569477Y-78974317D01*
X118573928Y-79005276D01*
X118574480Y-79007038D01*
X118574500Y-79009252D01*
X118574500Y-79179191D01*
X118554815Y-79246230D01*
X118538181Y-79266872D01*
X114625122Y-83179930D01*
X114563799Y-83213415D01*
X114561633Y-83213866D01*
X114490808Y-83227954D01*
X114490798Y-83227957D01*
X114344689Y-83288477D01*
X114344687Y-83288478D01*
X114213181Y-83376347D01*
X114101347Y-83488181D01*
X114013478Y-83619687D01*
X114013477Y-83619689D01*
X113952957Y-83765798D01*
X113952954Y-83765810D01*
X113922101Y-83920916D01*
X112230418Y-83920916D01*
X112257036Y-83874813D01*
X112287900Y-83759625D01*
X112287900Y-83640375D01*
X112257036Y-83525187D01*
X112197410Y-83421913D01*
X112113087Y-83337590D01*
X112061450Y-83307777D01*
X112009814Y-83277964D01*
X111952219Y-83262532D01*
X111894625Y-83247100D01*
X111775375Y-83247100D01*
X111660185Y-83277964D01*
X111556913Y-83337590D01*
X111556910Y-83337592D01*
X111500822Y-83393681D01*
X111439499Y-83427166D01*
X111413141Y-83430000D01*
X110645000Y-83430000D01*
X110645000Y-82930000D01*
X111545000Y-82930000D01*
X111545000Y-82589493D01*
X111516682Y-82410706D01*
X111460748Y-82238555D01*
X111460747Y-82238552D01*
X111378565Y-82077265D01*
X111272176Y-81930830D01*
X111144169Y-81802823D01*
X110997734Y-81696434D01*
X110836447Y-81614252D01*
X110836441Y-81614250D01*
X110664295Y-81558318D01*
X110664285Y-81558315D01*
X110645000Y-81555260D01*
X110645000Y-82580272D01*
X110606940Y-82488386D01*
X110536614Y-82418060D01*
X110444728Y-82380000D01*
X110345272Y-82380000D01*
X110253386Y-82418060D01*
X110183060Y-82488386D01*
X110145000Y-82580272D01*
X110145000Y-81555260D01*
X110125714Y-81558315D01*
X110125704Y-81558318D01*
X109953558Y-81614250D01*
X109953552Y-81614252D01*
X109792265Y-81696434D01*
X109645830Y-81802823D01*
X109517823Y-81930830D01*
X109411434Y-82077265D01*
X109329252Y-82238552D01*
X109329251Y-82238555D01*
X109273317Y-82410706D01*
X109245000Y-82589493D01*
X95550500Y-82589493D01*
X95550500Y-82396535D01*
X95510130Y-82193580D01*
X95430941Y-82002402D01*
X95315977Y-81830345D01*
X95315975Y-81830342D01*
X95169657Y-81684024D01*
X95079303Y-81623652D01*
X94997598Y-81569059D01*
X94964284Y-81555260D01*
X94806420Y-81489870D01*
X94806412Y-81489868D01*
X94603469Y-81449500D01*
X94603465Y-81449500D01*
X94396535Y-81449500D01*
X94396530Y-81449500D01*
X94193587Y-81489868D01*
X94193579Y-81489870D01*
X94002403Y-81569058D01*
X93830342Y-81684024D01*
X93684024Y-81830342D01*
X93569058Y-82002403D01*
X93489870Y-82193579D01*
X93489868Y-82193587D01*
X93449500Y-82396530D01*
X89000000Y-82396530D01*
X89000000Y-80920916D01*
X113922101Y-80920916D01*
X113922101Y-81079083D01*
X113952954Y-81234189D01*
X113952957Y-81234201D01*
X114013477Y-81380310D01*
X114013478Y-81380312D01*
X114101347Y-81511818D01*
X114213181Y-81623652D01*
X114300653Y-81682098D01*
X114344685Y-81711520D01*
X114344686Y-81711520D01*
X114344687Y-81711521D01*
X114344689Y-81711522D01*
X114490798Y-81772042D01*
X114490803Y-81772044D01*
X114645539Y-81802823D01*
X114645916Y-81802898D01*
X114645919Y-81802899D01*
X114645921Y-81802899D01*
X114804081Y-81802899D01*
X114804082Y-81802898D01*
X114959197Y-81772044D01*
X115105315Y-81711520D01*
X115236818Y-81623652D01*
X115348652Y-81511818D01*
X115436520Y-81380315D01*
X115497044Y-81234197D01*
X115511133Y-81163363D01*
X115543517Y-81101455D01*
X115545013Y-81099931D01*
X117324877Y-79320067D01*
X117386198Y-79286584D01*
X117388274Y-79286151D01*
X117459197Y-79272044D01*
X117605315Y-79211520D01*
X117736818Y-79123652D01*
X117848652Y-79011818D01*
X117936520Y-78880315D01*
X117997044Y-78734197D01*
X118027899Y-78579079D01*
X118027899Y-78420921D01*
X118027899Y-78420918D01*
X118027898Y-78420916D01*
X117997045Y-78265810D01*
X117997045Y-78265808D01*
X117997044Y-78265803D01*
X117936520Y-78119685D01*
X117907098Y-78075653D01*
X117848652Y-77988181D01*
X117736818Y-77876347D01*
X117605312Y-77788478D01*
X117605310Y-77788477D01*
X117459201Y-77727957D01*
X117459189Y-77727954D01*
X117304082Y-77697101D01*
X117304079Y-77697101D01*
X117145921Y-77697101D01*
X117145918Y-77697101D01*
X116990810Y-77727954D01*
X116990798Y-77727957D01*
X116844689Y-77788477D01*
X116844687Y-77788478D01*
X116713181Y-77876347D01*
X116601347Y-77988181D01*
X116513478Y-78119687D01*
X116513477Y-78119689D01*
X116452957Y-78265798D01*
X116452954Y-78265808D01*
X116438866Y-78336633D01*
X116406481Y-78398544D01*
X116404930Y-78400122D01*
X114625122Y-80179930D01*
X114563799Y-80213415D01*
X114561633Y-80213866D01*
X114490808Y-80227954D01*
X114490798Y-80227957D01*
X114344689Y-80288477D01*
X114344687Y-80288478D01*
X114213181Y-80376347D01*
X114101347Y-80488181D01*
X114013478Y-80619687D01*
X114013477Y-80619689D01*
X113952957Y-80765798D01*
X113952954Y-80765810D01*
X113922101Y-80920916D01*
X89000000Y-80920916D01*
X89000000Y-77648620D01*
X94054931Y-77648620D01*
X94054932Y-77648621D01*
X94102633Y-77680495D01*
X94102639Y-77680498D01*
X94293725Y-77759649D01*
X94293733Y-77759651D01*
X94496579Y-77799999D01*
X94496583Y-77800000D01*
X94703417Y-77800000D01*
X94703420Y-77799999D01*
X94906266Y-77759651D01*
X94906274Y-77759649D01*
X95097366Y-77680495D01*
X95145066Y-77648621D01*
X95145067Y-77648620D01*
X94600001Y-77103554D01*
X94600000Y-77103554D01*
X94054931Y-77648620D01*
X89000000Y-77648620D01*
X89000000Y-76646579D01*
X93550000Y-76646579D01*
X93550000Y-76853420D01*
X93590348Y-77056266D01*
X93590350Y-77056274D01*
X93669500Y-77247359D01*
X93701377Y-77295067D01*
X93701378Y-77295067D01*
X94246446Y-76750000D01*
X94200368Y-76703922D01*
X94250000Y-76703922D01*
X94250000Y-76796078D01*
X94273852Y-76885095D01*
X94319930Y-76964905D01*
X94385095Y-77030070D01*
X94464905Y-77076148D01*
X94553922Y-77100000D01*
X94646078Y-77100000D01*
X94735095Y-77076148D01*
X94814905Y-77030070D01*
X94880070Y-76964905D01*
X94926148Y-76885095D01*
X94950000Y-76796078D01*
X94950000Y-76749999D01*
X94953554Y-76749999D01*
X94953554Y-76750001D01*
X95498620Y-77295067D01*
X95498621Y-77295066D01*
X95530495Y-77247366D01*
X95609649Y-77056274D01*
X95609651Y-77056266D01*
X95649999Y-76853420D01*
X95650000Y-76853417D01*
X95650000Y-76646583D01*
X95649999Y-76646579D01*
X95609651Y-76443733D01*
X95609649Y-76443725D01*
X95530498Y-76252639D01*
X95530495Y-76252633D01*
X95498621Y-76204932D01*
X95498620Y-76204931D01*
X94953554Y-76749999D01*
X94950000Y-76749999D01*
X94950000Y-76703922D01*
X94926148Y-76614905D01*
X94880070Y-76535095D01*
X94814905Y-76469930D01*
X94735095Y-76423852D01*
X94646078Y-76400000D01*
X94553922Y-76400000D01*
X94464905Y-76423852D01*
X94385095Y-76469930D01*
X94319930Y-76535095D01*
X94273852Y-76614905D01*
X94250000Y-76703922D01*
X94200368Y-76703922D01*
X93701378Y-76204932D01*
X93701377Y-76204932D01*
X93669505Y-76252631D01*
X93669500Y-76252641D01*
X93590350Y-76443725D01*
X93590348Y-76443733D01*
X93550000Y-76646579D01*
X89000000Y-76646579D01*
X89000000Y-75146530D01*
X93549500Y-75146530D01*
X93549500Y-75353469D01*
X93589868Y-75556412D01*
X93589870Y-75556420D01*
X93669058Y-75747596D01*
X93784024Y-75919657D01*
X93930342Y-76065975D01*
X93930345Y-76065977D01*
X94102402Y-76180941D01*
X94293580Y-76260130D01*
X94401017Y-76281500D01*
X94469029Y-76295029D01*
X94530940Y-76327413D01*
X94532519Y-76328965D01*
X94599999Y-76396445D01*
X94667479Y-76328965D01*
X94728802Y-76295480D01*
X94730970Y-76295029D01*
X94744521Y-76292333D01*
X94906420Y-76260130D01*
X95097598Y-76180941D01*
X95269655Y-76065977D01*
X95415977Y-75919655D01*
X95530941Y-75747598D01*
X95610130Y-75556420D01*
X95650500Y-75353465D01*
X95650500Y-75146535D01*
X95610130Y-74943580D01*
X95530941Y-74752402D01*
X95415977Y-74580345D01*
X95415975Y-74580342D01*
X95269657Y-74434024D01*
X95183626Y-74376541D01*
X95097598Y-74319059D01*
X94906420Y-74239870D01*
X94906412Y-74239868D01*
X94703469Y-74199500D01*
X94703465Y-74199500D01*
X94496535Y-74199500D01*
X94496530Y-74199500D01*
X94293587Y-74239868D01*
X94293579Y-74239870D01*
X94102403Y-74319058D01*
X93930342Y-74434024D01*
X93784024Y-74580342D01*
X93669058Y-74752403D01*
X93589870Y-74943579D01*
X93589868Y-74943587D01*
X93549500Y-75146530D01*
X89000000Y-75146530D01*
X89000000Y-72920916D01*
X112422101Y-72920916D01*
X112422101Y-73079083D01*
X112452954Y-73234189D01*
X112452957Y-73234201D01*
X112513477Y-73380310D01*
X112513478Y-73380312D01*
X112601347Y-73511818D01*
X112713181Y-73623652D01*
X112800653Y-73682098D01*
X112844685Y-73711520D01*
X112844686Y-73711520D01*
X112844687Y-73711521D01*
X112844689Y-73711522D01*
X112990798Y-73772042D01*
X112990803Y-73772044D01*
X113145916Y-73802898D01*
X113145919Y-73802899D01*
X113145921Y-73802899D01*
X113304081Y-73802899D01*
X113304082Y-73802898D01*
X113459197Y-73772044D01*
X113605315Y-73711520D01*
X113736818Y-73623652D01*
X113848652Y-73511818D01*
X113936520Y-73380315D01*
X113948625Y-73351089D01*
X113953257Y-73344157D01*
X113954355Y-73339113D01*
X113975503Y-73310863D01*
X113999553Y-73286815D01*
X114060878Y-73253333D01*
X114087231Y-73250500D01*
X117914126Y-73250500D01*
X117961578Y-73259939D01*
X117990798Y-73272042D01*
X117990803Y-73272044D01*
X118145916Y-73302898D01*
X118145919Y-73302899D01*
X118145921Y-73302899D01*
X118304081Y-73302899D01*
X118304082Y-73302898D01*
X118459197Y-73272044D01*
X118605315Y-73211520D01*
X118736818Y-73123652D01*
X118848652Y-73011818D01*
X118936520Y-72880315D01*
X118997044Y-72734197D01*
X119027899Y-72579079D01*
X119027899Y-72420921D01*
X119027899Y-72420918D01*
X119027898Y-72420916D01*
X119019033Y-72376347D01*
X118997044Y-72265803D01*
X118949077Y-72150000D01*
X118936522Y-72119689D01*
X118936521Y-72119687D01*
X118930135Y-72110130D01*
X118876925Y-72030495D01*
X118848652Y-71988181D01*
X118736818Y-71876347D01*
X118605312Y-71788478D01*
X118605310Y-71788477D01*
X118459201Y-71727957D01*
X118459189Y-71727954D01*
X118304082Y-71697101D01*
X118304079Y-71697101D01*
X118145921Y-71697101D01*
X118145918Y-71697101D01*
X117990810Y-71727954D01*
X117990798Y-71727957D01*
X117961578Y-71740061D01*
X117914126Y-71749500D01*
X113651080Y-71749500D01*
X113506092Y-71778340D01*
X113506086Y-71778342D01*
X113369508Y-71834914D01*
X113369496Y-71834921D01*
X113320270Y-71867811D01*
X113320271Y-71867812D01*
X113246581Y-71917049D01*
X112914135Y-72249495D01*
X112873910Y-72276374D01*
X112844684Y-72288480D01*
X112713181Y-72376347D01*
X112601347Y-72488181D01*
X112513478Y-72619687D01*
X112513477Y-72619689D01*
X112452957Y-72765798D01*
X112452954Y-72765810D01*
X112422101Y-72920916D01*
X89000000Y-72920916D01*
X89000000Y-71998620D01*
X101704931Y-71998620D01*
X101704932Y-71998621D01*
X101752633Y-72030495D01*
X101752639Y-72030498D01*
X101943725Y-72109649D01*
X101943733Y-72109651D01*
X102146579Y-72149999D01*
X102146583Y-72150000D01*
X102353417Y-72150000D01*
X102353420Y-72149999D01*
X102556266Y-72109651D01*
X102556274Y-72109649D01*
X102747366Y-72030495D01*
X102795066Y-71998621D01*
X102795067Y-71998620D01*
X102250001Y-71453554D01*
X102250000Y-71453554D01*
X101704931Y-71998620D01*
X89000000Y-71998620D01*
X89000000Y-70996579D01*
X101200000Y-70996579D01*
X101200000Y-71203420D01*
X101240348Y-71406266D01*
X101240350Y-71406274D01*
X101319500Y-71597359D01*
X101351377Y-71645067D01*
X101351378Y-71645067D01*
X101896446Y-71100000D01*
X101850368Y-71053922D01*
X101900000Y-71053922D01*
X101900000Y-71146078D01*
X101923852Y-71235095D01*
X101969930Y-71314905D01*
X102035095Y-71380070D01*
X102114905Y-71426148D01*
X102203922Y-71450000D01*
X102296078Y-71450000D01*
X102385095Y-71426148D01*
X102464905Y-71380070D01*
X102530070Y-71314905D01*
X102576148Y-71235095D01*
X102600000Y-71146078D01*
X102600000Y-71100000D01*
X102603554Y-71100000D01*
X102671034Y-71167480D01*
X102704519Y-71228803D01*
X102704970Y-71230970D01*
X102739868Y-71406412D01*
X102739870Y-71406420D01*
X102819058Y-71597596D01*
X102934024Y-71769657D01*
X103080342Y-71915975D01*
X103080345Y-71915977D01*
X103252402Y-72030941D01*
X103443580Y-72110130D01*
X103644016Y-72149999D01*
X103646530Y-72150499D01*
X103646534Y-72150500D01*
X103646535Y-72150500D01*
X103853466Y-72150500D01*
X103853467Y-72150499D01*
X104056420Y-72110130D01*
X104247598Y-72030941D01*
X104419655Y-71915977D01*
X104565977Y-71769655D01*
X104680941Y-71597598D01*
X104760130Y-71406420D01*
X104800500Y-71203465D01*
X104800500Y-70996535D01*
X104760130Y-70793580D01*
X104680941Y-70602402D01*
X104565977Y-70430345D01*
X104565975Y-70430342D01*
X104419657Y-70284024D01*
X104295967Y-70201378D01*
X104247598Y-70169059D01*
X104056420Y-70089870D01*
X104056412Y-70089868D01*
X103853469Y-70049500D01*
X103853465Y-70049500D01*
X103646535Y-70049500D01*
X103646530Y-70049500D01*
X103443587Y-70089868D01*
X103443579Y-70089870D01*
X103252403Y-70169058D01*
X103080342Y-70284024D01*
X102934024Y-70430342D01*
X102819058Y-70602403D01*
X102739870Y-70793579D01*
X102739868Y-70793585D01*
X102704970Y-70969030D01*
X102696204Y-70985786D01*
X102692185Y-71004264D01*
X102673439Y-71029307D01*
X102672585Y-71030940D01*
X102671035Y-71032519D01*
X102603554Y-71100000D01*
X102600000Y-71100000D01*
X102600000Y-71053922D01*
X102576148Y-70964905D01*
X102530070Y-70885095D01*
X102464905Y-70819930D01*
X102385095Y-70773852D01*
X102296078Y-70750000D01*
X102203922Y-70750000D01*
X102114905Y-70773852D01*
X102035095Y-70819930D01*
X101969930Y-70885095D01*
X101923852Y-70964905D01*
X101900000Y-71053922D01*
X101850368Y-71053922D01*
X101351378Y-70554932D01*
X101351377Y-70554932D01*
X101319505Y-70602631D01*
X101319500Y-70602641D01*
X101240350Y-70793725D01*
X101240348Y-70793733D01*
X101200000Y-70996579D01*
X89000000Y-70996579D01*
X89000000Y-70648620D01*
X94054931Y-70648620D01*
X94054932Y-70648621D01*
X94102633Y-70680495D01*
X94102639Y-70680498D01*
X94293725Y-70759649D01*
X94293733Y-70759651D01*
X94496579Y-70799999D01*
X94496583Y-70800000D01*
X94703417Y-70800000D01*
X94703420Y-70799999D01*
X94906266Y-70759651D01*
X94906274Y-70759649D01*
X95097366Y-70680495D01*
X95145066Y-70648621D01*
X95145067Y-70648620D01*
X94600001Y-70103554D01*
X94600000Y-70103554D01*
X94054931Y-70648620D01*
X89000000Y-70648620D01*
X89000000Y-69646579D01*
X93550000Y-69646579D01*
X93550000Y-69853420D01*
X93590348Y-70056266D01*
X93590350Y-70056274D01*
X93669500Y-70247359D01*
X93701377Y-70295067D01*
X93701378Y-70295067D01*
X94246446Y-69750000D01*
X94200368Y-69703922D01*
X94250000Y-69703922D01*
X94250000Y-69796078D01*
X94273852Y-69885095D01*
X94319930Y-69964905D01*
X94385095Y-70030070D01*
X94464905Y-70076148D01*
X94553922Y-70100000D01*
X94646078Y-70100000D01*
X94735095Y-70076148D01*
X94814905Y-70030070D01*
X94880070Y-69964905D01*
X94926148Y-69885095D01*
X94950000Y-69796078D01*
X94950000Y-69749999D01*
X94953554Y-69749999D01*
X94953554Y-69750001D01*
X95498620Y-70295067D01*
X95498621Y-70295066D01*
X95530496Y-70247365D01*
X95530498Y-70247362D01*
X95549546Y-70201377D01*
X101704932Y-70201377D01*
X101704932Y-70201378D01*
X102250000Y-70746446D01*
X102250001Y-70746446D01*
X102795067Y-70201378D01*
X102795067Y-70201377D01*
X102747359Y-70169500D01*
X102556274Y-70090350D01*
X102556266Y-70090348D01*
X102353420Y-70050000D01*
X102146579Y-70050000D01*
X101943733Y-70090348D01*
X101943725Y-70090350D01*
X101752641Y-70169500D01*
X101752631Y-70169505D01*
X101704932Y-70201377D01*
X95549546Y-70201377D01*
X95550058Y-70200140D01*
X95550060Y-70200136D01*
X95609649Y-70056274D01*
X95609651Y-70056266D01*
X95649999Y-69853420D01*
X95650000Y-69853417D01*
X95650000Y-69646583D01*
X95649999Y-69646579D01*
X95609651Y-69443733D01*
X95609649Y-69443725D01*
X95530498Y-69252639D01*
X95530495Y-69252633D01*
X95498621Y-69204932D01*
X95498620Y-69204931D01*
X94953554Y-69749999D01*
X94950000Y-69749999D01*
X94950000Y-69703922D01*
X94926148Y-69614905D01*
X94880070Y-69535095D01*
X94814905Y-69469930D01*
X94735095Y-69423852D01*
X94646078Y-69400000D01*
X94553922Y-69400000D01*
X94464905Y-69423852D01*
X94385095Y-69469930D01*
X94319930Y-69535095D01*
X94273852Y-69614905D01*
X94250000Y-69703922D01*
X94200368Y-69703922D01*
X93701378Y-69204932D01*
X93701377Y-69204932D01*
X93669505Y-69252631D01*
X93669500Y-69252641D01*
X93590350Y-69443725D01*
X93590348Y-69443733D01*
X93550000Y-69646579D01*
X89000000Y-69646579D01*
X89000000Y-68146530D01*
X93549500Y-68146530D01*
X93549500Y-68353469D01*
X93589868Y-68556412D01*
X93589870Y-68556420D01*
X93669058Y-68747596D01*
X93784024Y-68919657D01*
X93930342Y-69065975D01*
X93930345Y-69065977D01*
X94102402Y-69180941D01*
X94293580Y-69260130D01*
X94401017Y-69281500D01*
X94469029Y-69295029D01*
X94530940Y-69327413D01*
X94532519Y-69328965D01*
X94599999Y-69396445D01*
X94667479Y-69328965D01*
X94728802Y-69295480D01*
X94730970Y-69295029D01*
X94744521Y-69292333D01*
X94906420Y-69260130D01*
X95097598Y-69180941D01*
X95269655Y-69065977D01*
X95415977Y-68919655D01*
X95530941Y-68747598D01*
X95610130Y-68556420D01*
X95650500Y-68353465D01*
X95650500Y-68146535D01*
X95610130Y-67943580D01*
X95530941Y-67752402D01*
X95415977Y-67580345D01*
X95415975Y-67580342D01*
X95269657Y-67434024D01*
X95183626Y-67376541D01*
X95097598Y-67319059D01*
X94906420Y-67239870D01*
X94906412Y-67239868D01*
X94703469Y-67199500D01*
X94703465Y-67199500D01*
X94496535Y-67199500D01*
X94496530Y-67199500D01*
X94293587Y-67239868D01*
X94293579Y-67239870D01*
X94102403Y-67319058D01*
X93930342Y-67434024D01*
X93784024Y-67580342D01*
X93669058Y-67752403D01*
X93589870Y-67943579D01*
X93589868Y-67943587D01*
X93549500Y-68146530D01*
X89000000Y-68146530D01*
X89000000Y-65624000D01*
X89019685Y-65556961D01*
X89072489Y-65511206D01*
X89124000Y-65500000D01*
X120876000Y-65500000D01*
X120943039Y-65519685D01*
G37*
%TD.AperFunction*%
%TD*%
M02*
