%TF.GenerationSoftware,KiCad,Pcbnew,7.0.9*%
%TF.CreationDate,2024-02-20T19:15:55+01:00*%
%TF.ProjectId,dropdown,64726f70-646f-4776-9e2e-6b696361645f,rev?*%
%TF.SameCoordinates,Original*%
%TF.FileFunction,Copper,L2,Inr*%
%TF.FilePolarity,Positive*%
%FSLAX46Y46*%
G04 Gerber Fmt 4.6, Leading zero omitted, Abs format (unit mm)*
G04 Created by KiCad (PCBNEW 7.0.9) date 2024-02-20 19:15:55*
%MOMM*%
%LPD*%
G01*
G04 APERTURE LIST*
%TA.AperFunction,ComponentPad*%
%ADD10R,1.000000X1.000000*%
%TD*%
%TA.AperFunction,ViaPad*%
%ADD11C,0.800000*%
%TD*%
G04 APERTURE END LIST*
D10*
%TO.N,GND*%
%TO.C,J2*%
X79800000Y-59800000D03*
%TD*%
%TO.N,+3.3V*%
%TO.C,J7*%
X87900000Y-59400000D03*
%TD*%
%TO.N,VD*%
%TO.C,J5*%
X85850000Y-65450000D03*
%TD*%
%TO.N,GND*%
%TO.C,J6*%
X84050000Y-61850000D03*
%TD*%
%TO.N,GND*%
%TO.C,J4*%
X84050000Y-59800000D03*
%TD*%
%TO.N,+12V*%
%TO.C,T1*%
X74150000Y-65450000D03*
%TD*%
%TO.N,VD*%
%TO.C,J1*%
X83800000Y-65450000D03*
%TD*%
%TO.N,GND1*%
%TO.C,T2*%
X74100000Y-62000000D03*
%TD*%
%TO.N,GND*%
%TO.C,J8*%
X81850000Y-59800000D03*
%TD*%
%TO.N,+3.3V*%
%TO.C,J3*%
X89950000Y-59400000D03*
%TD*%
D11*
%TO.N,*%
X78350000Y-59900000D03*
X91000000Y-66050000D03*
X91600000Y-59450000D03*
%TD*%
%TA.AperFunction,Conductor*%
%TO.N,+3.3V*%
G36*
X87061647Y-58319685D02*
G01*
X87107402Y-58372489D01*
X87117346Y-58441647D01*
X87088321Y-58505203D01*
X87068919Y-58523266D01*
X87042812Y-58542809D01*
X87042809Y-58542812D01*
X86956649Y-58657906D01*
X86956645Y-58657913D01*
X86906403Y-58792620D01*
X86906401Y-58792627D01*
X86900000Y-58852155D01*
X86900000Y-59150000D01*
X87875376Y-59150000D01*
X87802455Y-59164505D01*
X87719760Y-59219760D01*
X87664505Y-59302455D01*
X87645102Y-59400000D01*
X87664505Y-59497545D01*
X87719760Y-59580240D01*
X87802455Y-59635495D01*
X87875376Y-59650000D01*
X87924624Y-59650000D01*
X88150000Y-59650000D01*
X88150000Y-60400000D01*
X88447828Y-60400000D01*
X88447844Y-60399999D01*
X88507372Y-60393598D01*
X88507379Y-60393596D01*
X88642086Y-60343354D01*
X88642093Y-60343350D01*
X88757186Y-60257190D01*
X88825733Y-60165625D01*
X88881667Y-60123754D01*
X88951359Y-60118770D01*
X89012682Y-60152255D01*
X89024267Y-60165625D01*
X89092813Y-60257190D01*
X89207906Y-60343350D01*
X89207913Y-60343354D01*
X89342620Y-60393596D01*
X89342627Y-60393598D01*
X89402155Y-60399999D01*
X89402172Y-60400000D01*
X89700000Y-60400000D01*
X89700000Y-59650000D01*
X88150000Y-59650000D01*
X87924624Y-59650000D01*
X87997545Y-59635495D01*
X88080240Y-59580240D01*
X88135495Y-59497545D01*
X88154898Y-59400000D01*
X88135495Y-59302455D01*
X88080240Y-59219760D01*
X87997545Y-59164505D01*
X87924624Y-59150000D01*
X89925376Y-59150000D01*
X89852455Y-59164505D01*
X89769760Y-59219760D01*
X89714505Y-59302455D01*
X89695102Y-59400000D01*
X89714505Y-59497545D01*
X89769760Y-59580240D01*
X89852455Y-59635495D01*
X89925376Y-59650000D01*
X89974624Y-59650000D01*
X90047545Y-59635495D01*
X90130240Y-59580240D01*
X90185495Y-59497545D01*
X90200000Y-59424623D01*
X90200000Y-60400000D01*
X90497828Y-60400000D01*
X90497844Y-60399999D01*
X90557372Y-60393598D01*
X90557379Y-60393596D01*
X90692086Y-60343354D01*
X90692093Y-60343350D01*
X90807186Y-60257191D01*
X90864907Y-60180086D01*
X90920841Y-60138215D01*
X90990532Y-60133231D01*
X91037059Y-60154079D01*
X91147265Y-60234148D01*
X91147270Y-60234151D01*
X91320192Y-60311142D01*
X91320197Y-60311144D01*
X91505354Y-60350500D01*
X91505355Y-60350500D01*
X91694644Y-60350500D01*
X91694646Y-60350500D01*
X91879803Y-60311144D01*
X92052730Y-60234151D01*
X92205871Y-60122888D01*
X92332533Y-59982216D01*
X92427179Y-59818284D01*
X92485674Y-59638256D01*
X92505460Y-59450000D01*
X92485674Y-59261744D01*
X92427179Y-59081716D01*
X92332533Y-58917784D01*
X92205871Y-58777112D01*
X92205870Y-58777111D01*
X92052734Y-58665851D01*
X92052729Y-58665848D01*
X91879807Y-58588857D01*
X91879802Y-58588855D01*
X91734001Y-58557865D01*
X91694646Y-58549500D01*
X91505354Y-58549500D01*
X91472897Y-58556398D01*
X91320197Y-58588855D01*
X91320192Y-58588857D01*
X91147271Y-58665848D01*
X91081853Y-58713377D01*
X91016046Y-58736856D01*
X90947992Y-58721030D01*
X90899298Y-58670924D01*
X90893991Y-58659080D01*
X90893350Y-58657906D01*
X90807190Y-58542812D01*
X90807187Y-58542809D01*
X90781081Y-58523266D01*
X90739210Y-58467332D01*
X90734226Y-58397641D01*
X90767712Y-58336318D01*
X90829035Y-58302834D01*
X90855392Y-58300000D01*
X93626000Y-58300000D01*
X93693039Y-58319685D01*
X93738794Y-58372489D01*
X93750000Y-58424000D01*
X93750000Y-68076000D01*
X93730315Y-68143039D01*
X93677511Y-68188794D01*
X93626000Y-68200000D01*
X73124000Y-68200000D01*
X73056961Y-68180315D01*
X73011206Y-68127511D01*
X73000000Y-68076000D01*
X73000000Y-66289434D01*
X73019685Y-66222395D01*
X73072489Y-66176640D01*
X73141647Y-66166696D01*
X73205203Y-66195721D01*
X73223262Y-66215118D01*
X73292454Y-66307546D01*
X73338643Y-66342123D01*
X73407664Y-66393793D01*
X73407671Y-66393797D01*
X73542517Y-66444091D01*
X73542516Y-66444091D01*
X73549444Y-66444835D01*
X73602127Y-66450500D01*
X74697872Y-66450499D01*
X74757483Y-66444091D01*
X74892331Y-66393796D01*
X75007546Y-66307546D01*
X75093796Y-66192331D01*
X75144091Y-66057483D01*
X75150500Y-65997873D01*
X75150500Y-65997870D01*
X82799500Y-65997870D01*
X82799501Y-65997876D01*
X82805908Y-66057483D01*
X82856202Y-66192328D01*
X82856206Y-66192335D01*
X82942452Y-66307544D01*
X82942455Y-66307547D01*
X83057664Y-66393793D01*
X83057671Y-66393797D01*
X83192517Y-66444091D01*
X83192516Y-66444091D01*
X83199444Y-66444835D01*
X83252127Y-66450500D01*
X84347872Y-66450499D01*
X84407483Y-66444091D01*
X84542331Y-66393796D01*
X84657546Y-66307546D01*
X84725734Y-66216457D01*
X84781667Y-66174588D01*
X84851359Y-66169604D01*
X84912682Y-66203089D01*
X84924261Y-66216452D01*
X84992454Y-66307546D01*
X85038643Y-66342123D01*
X85107664Y-66393793D01*
X85107671Y-66393797D01*
X85242517Y-66444091D01*
X85242516Y-66444091D01*
X85249444Y-66444835D01*
X85302127Y-66450500D01*
X86397872Y-66450499D01*
X86457483Y-66444091D01*
X86592331Y-66393796D01*
X86707546Y-66307546D01*
X86793796Y-66192331D01*
X86844091Y-66057483D01*
X86844896Y-66050000D01*
X90094540Y-66050000D01*
X90114326Y-66238256D01*
X90114327Y-66238259D01*
X90172818Y-66418277D01*
X90172821Y-66418284D01*
X90267467Y-66582216D01*
X90394129Y-66722888D01*
X90547265Y-66834148D01*
X90547270Y-66834151D01*
X90720192Y-66911142D01*
X90720197Y-66911144D01*
X90905354Y-66950500D01*
X90905355Y-66950500D01*
X91094644Y-66950500D01*
X91094646Y-66950500D01*
X91279803Y-66911144D01*
X91452730Y-66834151D01*
X91605871Y-66722888D01*
X91732533Y-66582216D01*
X91827179Y-66418284D01*
X91885674Y-66238256D01*
X91905460Y-66050000D01*
X91885674Y-65861744D01*
X91827179Y-65681716D01*
X91732533Y-65517784D01*
X91605871Y-65377112D01*
X91605870Y-65377111D01*
X91452734Y-65265851D01*
X91452729Y-65265848D01*
X91279807Y-65188857D01*
X91279802Y-65188855D01*
X91134001Y-65157865D01*
X91094646Y-65149500D01*
X90905354Y-65149500D01*
X90872897Y-65156398D01*
X90720197Y-65188855D01*
X90720192Y-65188857D01*
X90547270Y-65265848D01*
X90547265Y-65265851D01*
X90394129Y-65377111D01*
X90267466Y-65517785D01*
X90172821Y-65681715D01*
X90172818Y-65681722D01*
X90114327Y-65861740D01*
X90114326Y-65861744D01*
X90094540Y-66050000D01*
X86844896Y-66050000D01*
X86850500Y-65997873D01*
X86850499Y-64902128D01*
X86844091Y-64842517D01*
X86802272Y-64730395D01*
X86793797Y-64707671D01*
X86793793Y-64707664D01*
X86707547Y-64592455D01*
X86707544Y-64592452D01*
X86592335Y-64506206D01*
X86592328Y-64506202D01*
X86457482Y-64455908D01*
X86457483Y-64455908D01*
X86397883Y-64449501D01*
X86397881Y-64449500D01*
X86397873Y-64449500D01*
X86397864Y-64449500D01*
X85302129Y-64449500D01*
X85302123Y-64449501D01*
X85242516Y-64455908D01*
X85107671Y-64506202D01*
X85107664Y-64506206D01*
X84992455Y-64592452D01*
X84992452Y-64592455D01*
X84924266Y-64683540D01*
X84868332Y-64725411D01*
X84798641Y-64730395D01*
X84737318Y-64696909D01*
X84725734Y-64683540D01*
X84657547Y-64592455D01*
X84657544Y-64592452D01*
X84542335Y-64506206D01*
X84542328Y-64506202D01*
X84407482Y-64455908D01*
X84407483Y-64455908D01*
X84347883Y-64449501D01*
X84347881Y-64449500D01*
X84347873Y-64449500D01*
X84347864Y-64449500D01*
X83252129Y-64449500D01*
X83252123Y-64449501D01*
X83192516Y-64455908D01*
X83057671Y-64506202D01*
X83057664Y-64506206D01*
X82942455Y-64592452D01*
X82942452Y-64592455D01*
X82856206Y-64707664D01*
X82856202Y-64707671D01*
X82805908Y-64842517D01*
X82799501Y-64902116D01*
X82799501Y-64902123D01*
X82799500Y-64902135D01*
X82799500Y-65997870D01*
X75150500Y-65997870D01*
X75150499Y-64902128D01*
X75144091Y-64842517D01*
X75102272Y-64730395D01*
X75093797Y-64707671D01*
X75093793Y-64707664D01*
X75007547Y-64592455D01*
X75007544Y-64592452D01*
X74892335Y-64506206D01*
X74892328Y-64506202D01*
X74757482Y-64455908D01*
X74757483Y-64455908D01*
X74697883Y-64449501D01*
X74697881Y-64449500D01*
X74697873Y-64449500D01*
X74697864Y-64449500D01*
X73602129Y-64449500D01*
X73602123Y-64449501D01*
X73542516Y-64455908D01*
X73407671Y-64506202D01*
X73407664Y-64506206D01*
X73292455Y-64592452D01*
X73292452Y-64592455D01*
X73223266Y-64684876D01*
X73167332Y-64726747D01*
X73097641Y-64731731D01*
X73036318Y-64698245D01*
X73002834Y-64636922D01*
X73000000Y-64610565D01*
X73000000Y-62906225D01*
X73019685Y-62839186D01*
X73072489Y-62793431D01*
X73141647Y-62783487D01*
X73205203Y-62812512D01*
X73223267Y-62831915D01*
X73242454Y-62857546D01*
X73242455Y-62857547D01*
X73357664Y-62943793D01*
X73357671Y-62943797D01*
X73492517Y-62994091D01*
X73492516Y-62994091D01*
X73499444Y-62994835D01*
X73552127Y-63000500D01*
X74647872Y-63000499D01*
X74707483Y-62994091D01*
X74842331Y-62943796D01*
X74957546Y-62857546D01*
X75043796Y-62742331D01*
X75094091Y-62607483D01*
X75100500Y-62547873D01*
X75100499Y-61452128D01*
X75094091Y-61392517D01*
X75060378Y-61302129D01*
X75043797Y-61257671D01*
X75043793Y-61257664D01*
X74957547Y-61142455D01*
X74957544Y-61142452D01*
X74842335Y-61056206D01*
X74842328Y-61056202D01*
X74707482Y-61005908D01*
X74707483Y-61005908D01*
X74647883Y-60999501D01*
X74647881Y-60999500D01*
X74647873Y-60999500D01*
X74647864Y-60999500D01*
X73552129Y-60999500D01*
X73552123Y-60999501D01*
X73492516Y-61005908D01*
X73357671Y-61056202D01*
X73357664Y-61056206D01*
X73242455Y-61142452D01*
X73223266Y-61168086D01*
X73167332Y-61209956D01*
X73097640Y-61214940D01*
X73036318Y-61181454D01*
X73002833Y-61120131D01*
X73000000Y-61093774D01*
X73000000Y-59900000D01*
X77444540Y-59900000D01*
X77464326Y-60088256D01*
X77464327Y-60088259D01*
X77522818Y-60268277D01*
X77522821Y-60268284D01*
X77617467Y-60432216D01*
X77716613Y-60542328D01*
X77744129Y-60572888D01*
X77897265Y-60684148D01*
X77897270Y-60684151D01*
X78070192Y-60761142D01*
X78070197Y-60761144D01*
X78255354Y-60800500D01*
X78255355Y-60800500D01*
X78444644Y-60800500D01*
X78444646Y-60800500D01*
X78629803Y-60761144D01*
X78802730Y-60684151D01*
X78817684Y-60673285D01*
X78883486Y-60649805D01*
X78951541Y-60665627D01*
X78964882Y-60674336D01*
X79057664Y-60743793D01*
X79057671Y-60743797D01*
X79192517Y-60794091D01*
X79192516Y-60794091D01*
X79199444Y-60794835D01*
X79252127Y-60800500D01*
X80347872Y-60800499D01*
X80407483Y-60794091D01*
X80542331Y-60743796D01*
X80657546Y-60657546D01*
X80725734Y-60566457D01*
X80781667Y-60524588D01*
X80851359Y-60519604D01*
X80912682Y-60553089D01*
X80924261Y-60566452D01*
X80992454Y-60657546D01*
X81014883Y-60674336D01*
X81107664Y-60743793D01*
X81107671Y-60743797D01*
X81242517Y-60794091D01*
X81242516Y-60794091D01*
X81249444Y-60794835D01*
X81302127Y-60800500D01*
X82397872Y-60800499D01*
X82457483Y-60794091D01*
X82592331Y-60743796D01*
X82707546Y-60657546D01*
X82793796Y-60542331D01*
X82833818Y-60435027D01*
X82875689Y-60379093D01*
X82941153Y-60354676D01*
X83009426Y-60369527D01*
X83058832Y-60418932D01*
X83066182Y-60435027D01*
X83106202Y-60542328D01*
X83106206Y-60542335D01*
X83192452Y-60657544D01*
X83192455Y-60657547D01*
X83283540Y-60725734D01*
X83325411Y-60781668D01*
X83330395Y-60851359D01*
X83296909Y-60912682D01*
X83283540Y-60924266D01*
X83192455Y-60992452D01*
X83192452Y-60992455D01*
X83106206Y-61107664D01*
X83106202Y-61107671D01*
X83055908Y-61242517D01*
X83049501Y-61302116D01*
X83049501Y-61302123D01*
X83049500Y-61302135D01*
X83049500Y-62397870D01*
X83049501Y-62397876D01*
X83055908Y-62457483D01*
X83106202Y-62592328D01*
X83106206Y-62592335D01*
X83192452Y-62707544D01*
X83192455Y-62707547D01*
X83307664Y-62793793D01*
X83307671Y-62793797D01*
X83442517Y-62844091D01*
X83442516Y-62844091D01*
X83449444Y-62844835D01*
X83502127Y-62850500D01*
X84597872Y-62850499D01*
X84657483Y-62844091D01*
X84792331Y-62793796D01*
X84907546Y-62707546D01*
X84993796Y-62592331D01*
X85044091Y-62457483D01*
X85050500Y-62397873D01*
X85050499Y-61302128D01*
X85044091Y-61242517D01*
X85033805Y-61214940D01*
X84993797Y-61107671D01*
X84993793Y-61107664D01*
X84917618Y-61005909D01*
X84907546Y-60992454D01*
X84816457Y-60924265D01*
X84774588Y-60868333D01*
X84769604Y-60798641D01*
X84803089Y-60737318D01*
X84816452Y-60725738D01*
X84907546Y-60657546D01*
X84993796Y-60542331D01*
X85044091Y-60407483D01*
X85050500Y-60347873D01*
X85050499Y-59650000D01*
X86900000Y-59650000D01*
X86900000Y-59947844D01*
X86906401Y-60007372D01*
X86906403Y-60007379D01*
X86956645Y-60142086D01*
X86956649Y-60142093D01*
X87042809Y-60257187D01*
X87042812Y-60257190D01*
X87157906Y-60343350D01*
X87157913Y-60343354D01*
X87292620Y-60393596D01*
X87292627Y-60393598D01*
X87352155Y-60399999D01*
X87352172Y-60400000D01*
X87650000Y-60400000D01*
X87650000Y-59650000D01*
X86900000Y-59650000D01*
X85050499Y-59650000D01*
X85050499Y-59252128D01*
X85044091Y-59192517D01*
X85035575Y-59169685D01*
X84993797Y-59057671D01*
X84993793Y-59057664D01*
X84907547Y-58942455D01*
X84907544Y-58942452D01*
X84792335Y-58856206D01*
X84792328Y-58856202D01*
X84657482Y-58805908D01*
X84657483Y-58805908D01*
X84597883Y-58799501D01*
X84597881Y-58799500D01*
X84597873Y-58799500D01*
X84597864Y-58799500D01*
X83502129Y-58799500D01*
X83502123Y-58799501D01*
X83442516Y-58805908D01*
X83307671Y-58856202D01*
X83307664Y-58856206D01*
X83192455Y-58942452D01*
X83192452Y-58942455D01*
X83106206Y-59057664D01*
X83106202Y-59057671D01*
X83066182Y-59164972D01*
X83024311Y-59220906D01*
X82958846Y-59245323D01*
X82890573Y-59230471D01*
X82841168Y-59181066D01*
X82833818Y-59164972D01*
X82793797Y-59057671D01*
X82793793Y-59057664D01*
X82707547Y-58942455D01*
X82707544Y-58942452D01*
X82592335Y-58856206D01*
X82592328Y-58856202D01*
X82457482Y-58805908D01*
X82457483Y-58805908D01*
X82397883Y-58799501D01*
X82397881Y-58799500D01*
X82397873Y-58799500D01*
X82397864Y-58799500D01*
X81302129Y-58799500D01*
X81302123Y-58799501D01*
X81242516Y-58805908D01*
X81107671Y-58856202D01*
X81107664Y-58856206D01*
X80992455Y-58942452D01*
X80992452Y-58942455D01*
X80924266Y-59033540D01*
X80868332Y-59075411D01*
X80798641Y-59080395D01*
X80737318Y-59046909D01*
X80725734Y-59033540D01*
X80657547Y-58942455D01*
X80657544Y-58942452D01*
X80542335Y-58856206D01*
X80542328Y-58856202D01*
X80407482Y-58805908D01*
X80407483Y-58805908D01*
X80347883Y-58799501D01*
X80347881Y-58799500D01*
X80347873Y-58799500D01*
X80347864Y-58799500D01*
X79252129Y-58799500D01*
X79252123Y-58799501D01*
X79192516Y-58805908D01*
X79057671Y-58856202D01*
X79057664Y-58856206D01*
X78942455Y-58942452D01*
X78942452Y-58942455D01*
X78869472Y-59039944D01*
X78813538Y-59081815D01*
X78743847Y-59086799D01*
X78719770Y-59078912D01*
X78629807Y-59038857D01*
X78629802Y-59038855D01*
X78484001Y-59007865D01*
X78444646Y-58999500D01*
X78255354Y-58999500D01*
X78222897Y-59006398D01*
X78070197Y-59038855D01*
X78070192Y-59038857D01*
X77897270Y-59115848D01*
X77897265Y-59115851D01*
X77744129Y-59227111D01*
X77617466Y-59367785D01*
X77522821Y-59531715D01*
X77522818Y-59531722D01*
X77464327Y-59711740D01*
X77464326Y-59711744D01*
X77444540Y-59900000D01*
X73000000Y-59900000D01*
X73000000Y-58424000D01*
X73019685Y-58356961D01*
X73072489Y-58311206D01*
X73124000Y-58300000D01*
X86994608Y-58300000D01*
X87061647Y-58319685D01*
G37*
%TD.AperFunction*%
%TA.AperFunction,Conductor*%
G36*
X90143039Y-59169685D02*
G01*
X90188794Y-59222489D01*
X90200000Y-59274000D01*
X90200000Y-59375376D01*
X90185495Y-59302455D01*
X90130240Y-59219760D01*
X90047545Y-59164505D01*
X89974624Y-59150000D01*
X90076000Y-59150000D01*
X90143039Y-59169685D01*
G37*
%TD.AperFunction*%
%TD*%
M02*
