%TF.GenerationSoftware,KiCad,Pcbnew,7.0.9*%
%TF.CreationDate,2024-02-20T19:15:55+01:00*%
%TF.ProjectId,dropdown,64726f70-646f-4776-9e2e-6b696361645f,rev?*%
%TF.SameCoordinates,Original*%
%TF.FileFunction,Legend,Top*%
%TF.FilePolarity,Positive*%
%FSLAX46Y46*%
G04 Gerber Fmt 4.6, Leading zero omitted, Abs format (unit mm)*
G04 Created by KiCad (PCBNEW 7.0.9) date 2024-02-20 19:15:55*
%MOMM*%
%LPD*%
G01*
G04 APERTURE LIST*
G04 Aperture macros list*
%AMRoundRect*
0 Rectangle with rounded corners*
0 $1 Rounding radius*
0 $2 $3 $4 $5 $6 $7 $8 $9 X,Y pos of 4 corners*
0 Add a 4 corners polygon primitive as box body*
4,1,4,$2,$3,$4,$5,$6,$7,$8,$9,$2,$3,0*
0 Add four circle primitives for the rounded corners*
1,1,$1+$1,$2,$3*
1,1,$1+$1,$4,$5*
1,1,$1+$1,$6,$7*
1,1,$1+$1,$8,$9*
0 Add four rect primitives between the rounded corners*
20,1,$1+$1,$2,$3,$4,$5,0*
20,1,$1+$1,$4,$5,$6,$7,0*
20,1,$1+$1,$6,$7,$8,$9,0*
20,1,$1+$1,$8,$9,$2,$3,0*%
%AMFreePoly0*
4,1,9,3.862500,-0.866500,0.737500,-0.866500,0.737500,-0.450000,-0.737500,-0.450000,-0.737500,0.450000,0.737500,0.450000,0.737500,0.866500,3.862500,0.866500,3.862500,-0.866500,3.862500,-0.866500,$1*%
G04 Aperture macros list end*
%ADD10C,0.120000*%
%ADD11RoundRect,0.225000X0.250000X-0.225000X0.250000X0.225000X-0.250000X0.225000X-0.250000X-0.225000X0*%
%ADD12R,1.000000X0.700000*%
%ADD13R,1.000000X1.000000*%
%ADD14R,1.300000X0.900000*%
%ADD15FreePoly0,0.000000*%
%ADD16RoundRect,0.225000X0.225000X0.250000X-0.225000X0.250000X-0.225000X-0.250000X0.225000X-0.250000X0*%
G04 APERTURE END LIST*
D10*
%TO.C,C2*%
X87140000Y-64115580D02*
X87140000Y-63834420D01*
X88160000Y-64115580D02*
X88160000Y-63834420D01*
%TO.C,D3*%
X81350000Y-62200000D02*
X81350000Y-65200000D01*
X81350000Y-61100000D02*
X81350000Y-61300000D01*
X76750000Y-66300000D02*
X82550000Y-66300000D01*
X76750000Y-66100000D02*
X76750000Y-66300000D01*
X76750000Y-65200000D02*
X76750000Y-62200000D01*
X76750000Y-61300000D02*
X76750000Y-61100000D01*
X76750000Y-61100000D02*
X81350000Y-61100000D01*
%TO.C,J2*%
X79100000Y-59100000D02*
X80500000Y-59100000D01*
X79100000Y-60500000D02*
X79100000Y-59100000D01*
X80500000Y-59100000D02*
X80500000Y-60500000D01*
X80500000Y-60500000D02*
X79100000Y-60500000D01*
%TO.C,J7*%
X87200000Y-58700000D02*
X88600000Y-58700000D01*
X87200000Y-60100000D02*
X87200000Y-58700000D01*
X88600000Y-58700000D02*
X88600000Y-60100000D01*
X88600000Y-60100000D02*
X87200000Y-60100000D01*
%TO.C,J5*%
X85150000Y-64750000D02*
X86550000Y-64750000D01*
X85150000Y-66150000D02*
X85150000Y-64750000D01*
X86550000Y-64750000D02*
X86550000Y-66150000D01*
X86550000Y-66150000D02*
X85150000Y-66150000D01*
%TO.C,U2*%
X88800000Y-60870000D02*
X89940000Y-60870000D01*
X89940000Y-60640000D02*
X89940000Y-60870000D01*
X89940000Y-60640000D02*
X92660000Y-60640000D01*
X89940000Y-65360000D02*
X89940000Y-65130000D01*
X92660000Y-60640000D02*
X92660000Y-61950000D01*
X92660000Y-64050000D02*
X92660000Y-65360000D01*
X92660000Y-65360000D02*
X89940000Y-65360000D01*
%TO.C,J6*%
X83350000Y-61150000D02*
X84750000Y-61150000D01*
X83350000Y-62550000D02*
X83350000Y-61150000D01*
X84750000Y-61150000D02*
X84750000Y-62550000D01*
X84750000Y-62550000D02*
X83350000Y-62550000D01*
%TO.C,J4*%
X83350000Y-59100000D02*
X84750000Y-59100000D01*
X83350000Y-60500000D02*
X83350000Y-59100000D01*
X84750000Y-59100000D02*
X84750000Y-60500000D01*
X84750000Y-60500000D02*
X83350000Y-60500000D01*
%TO.C,T1*%
X73450000Y-64750000D02*
X74850000Y-64750000D01*
X73450000Y-66150000D02*
X73450000Y-64750000D01*
X74850000Y-64750000D02*
X74850000Y-66150000D01*
X74850000Y-66150000D02*
X73450000Y-66150000D01*
%TO.C,J1*%
X83100000Y-64750000D02*
X84500000Y-64750000D01*
X83100000Y-66150000D02*
X83100000Y-64750000D01*
X84500000Y-64750000D02*
X84500000Y-66150000D01*
X84500000Y-66150000D02*
X83100000Y-66150000D01*
%TO.C,T2*%
X73400000Y-61300000D02*
X74800000Y-61300000D01*
X73400000Y-62700000D02*
X73400000Y-61300000D01*
X74800000Y-61300000D02*
X74800000Y-62700000D01*
X74800000Y-62700000D02*
X73400000Y-62700000D01*
%TO.C,J8*%
X81150000Y-59100000D02*
X82550000Y-59100000D01*
X81150000Y-60500000D02*
X81150000Y-59100000D01*
X82550000Y-59100000D02*
X82550000Y-60500000D01*
X82550000Y-60500000D02*
X81150000Y-60500000D01*
%TO.C,C1*%
X87040580Y-62010000D02*
X86759420Y-62010000D01*
X87040580Y-60990000D02*
X86759420Y-60990000D01*
%TO.C,J3*%
X89250000Y-58700000D02*
X90650000Y-58700000D01*
X89250000Y-60100000D02*
X89250000Y-58700000D01*
X90650000Y-58700000D02*
X90650000Y-60100000D01*
X90650000Y-60100000D02*
X89250000Y-60100000D01*
%TD*%
%LPC*%
D11*
%TO.C,C2*%
X87650000Y-64750000D03*
X87650000Y-63200000D03*
%TD*%
D12*
%TO.C,D3*%
X82025000Y-65700000D03*
X82025000Y-61700000D03*
X76075000Y-61700000D03*
X76075000Y-65700000D03*
%TD*%
D13*
%TO.C,J2*%
X79800000Y-59800000D03*
%TD*%
%TO.C,J7*%
X87900000Y-59400000D03*
%TD*%
%TO.C,J5*%
X85850000Y-65450000D03*
%TD*%
D14*
%TO.C,U2*%
X89350000Y-61500000D03*
D15*
X89437500Y-63000000D03*
D14*
X89350000Y-64500000D03*
%TD*%
D13*
%TO.C,J6*%
X84050000Y-61850000D03*
%TD*%
%TO.C,J4*%
X84050000Y-59800000D03*
%TD*%
%TO.C,T1*%
X74150000Y-65450000D03*
%TD*%
%TO.C,J1*%
X83800000Y-65450000D03*
%TD*%
%TO.C,T2*%
X74100000Y-62000000D03*
%TD*%
%TO.C,J8*%
X81850000Y-59800000D03*
%TD*%
D16*
%TO.C,C1*%
X87675000Y-61500000D03*
X86125000Y-61500000D03*
%TD*%
D13*
%TO.C,J3*%
X89950000Y-59400000D03*
%TD*%
%LPD*%
M02*
