%TF.GenerationSoftware,KiCad,Pcbnew,7.0.9*%
%TF.CreationDate,2024-02-29T00:23:49+01:00*%
%TF.ProjectId,dropdown,64726f70-646f-4776-9e2e-6b696361645f,rev?*%
%TF.SameCoordinates,Original*%
%TF.FileFunction,Legend,Top*%
%TF.FilePolarity,Positive*%
%FSLAX46Y46*%
G04 Gerber Fmt 4.6, Leading zero omitted, Abs format (unit mm)*
G04 Created by KiCad (PCBNEW 7.0.9) date 2024-02-29 00:23:49*
%MOMM*%
%LPD*%
G01*
G04 APERTURE LIST*
G04 Aperture macros list*
%AMRoundRect*
0 Rectangle with rounded corners*
0 $1 Rounding radius*
0 $2 $3 $4 $5 $6 $7 $8 $9 X,Y pos of 4 corners*
0 Add a 4 corners polygon primitive as box body*
4,1,4,$2,$3,$4,$5,$6,$7,$8,$9,$2,$3,0*
0 Add four circle primitives for the rounded corners*
1,1,$1+$1,$2,$3*
1,1,$1+$1,$4,$5*
1,1,$1+$1,$6,$7*
1,1,$1+$1,$8,$9*
0 Add four rect primitives between the rounded corners*
20,1,$1+$1,$2,$3,$4,$5,0*
20,1,$1+$1,$4,$5,$6,$7,0*
20,1,$1+$1,$6,$7,$8,$9,0*
20,1,$1+$1,$8,$9,$2,$3,0*%
%AMFreePoly0*
4,1,9,3.862500,-0.866500,0.737500,-0.866500,0.737500,-0.450000,-0.737500,-0.450000,-0.737500,0.450000,0.737500,0.450000,0.737500,0.866500,3.862500,0.866500,3.862500,-0.866500,3.862500,-0.866500,$1*%
G04 Aperture macros list end*
%ADD10C,0.150000*%
%ADD11C,0.120000*%
%ADD12R,1.300000X0.900000*%
%ADD13FreePoly0,0.000000*%
%ADD14R,1.500000X1.500000*%
%ADD15RoundRect,0.225000X0.225000X0.250000X-0.225000X0.250000X-0.225000X-0.250000X0.225000X-0.250000X0*%
%ADD16RoundRect,0.225000X0.250000X-0.225000X0.250000X0.225000X-0.250000X0.225000X-0.250000X-0.225000X0*%
%ADD17R,1.000000X0.700000*%
G04 APERTURE END LIST*
D10*
X88588095Y-60454819D02*
X88588095Y-61264342D01*
X88588095Y-61264342D02*
X88635714Y-61359580D01*
X88635714Y-61359580D02*
X88683333Y-61407200D01*
X88683333Y-61407200D02*
X88778571Y-61454819D01*
X88778571Y-61454819D02*
X88969047Y-61454819D01*
X88969047Y-61454819D02*
X89064285Y-61407200D01*
X89064285Y-61407200D02*
X89111904Y-61359580D01*
X89111904Y-61359580D02*
X89159523Y-61264342D01*
X89159523Y-61264342D02*
X89159523Y-60454819D01*
X89588095Y-60550057D02*
X89635714Y-60502438D01*
X89635714Y-60502438D02*
X89730952Y-60454819D01*
X89730952Y-60454819D02*
X89969047Y-60454819D01*
X89969047Y-60454819D02*
X90064285Y-60502438D01*
X90064285Y-60502438D02*
X90111904Y-60550057D01*
X90111904Y-60550057D02*
X90159523Y-60645295D01*
X90159523Y-60645295D02*
X90159523Y-60740533D01*
X90159523Y-60740533D02*
X90111904Y-60883390D01*
X90111904Y-60883390D02*
X89540476Y-61454819D01*
X89540476Y-61454819D02*
X90159523Y-61454819D01*
X73488095Y-61656819D02*
X74059523Y-61656819D01*
X73773809Y-62656819D02*
X73773809Y-61656819D01*
X74345238Y-61752057D02*
X74392857Y-61704438D01*
X74392857Y-61704438D02*
X74488095Y-61656819D01*
X74488095Y-61656819D02*
X74726190Y-61656819D01*
X74726190Y-61656819D02*
X74821428Y-61704438D01*
X74821428Y-61704438D02*
X74869047Y-61752057D01*
X74869047Y-61752057D02*
X74916666Y-61847295D01*
X74916666Y-61847295D02*
X74916666Y-61942533D01*
X74916666Y-61942533D02*
X74869047Y-62085390D01*
X74869047Y-62085390D02*
X74297619Y-62656819D01*
X74297619Y-62656819D02*
X74916666Y-62656819D01*
X73488095Y-64656819D02*
X74059523Y-64656819D01*
X73773809Y-65656819D02*
X73773809Y-64656819D01*
X74916666Y-65656819D02*
X74345238Y-65656819D01*
X74630952Y-65656819D02*
X74630952Y-64656819D01*
X74630952Y-64656819D02*
X74535714Y-64799676D01*
X74535714Y-64799676D02*
X74440476Y-64894914D01*
X74440476Y-64894914D02*
X74345238Y-64942533D01*
X78916666Y-58506819D02*
X78916666Y-59221104D01*
X78916666Y-59221104D02*
X78869047Y-59363961D01*
X78869047Y-59363961D02*
X78773809Y-59459200D01*
X78773809Y-59459200D02*
X78630952Y-59506819D01*
X78630952Y-59506819D02*
X78535714Y-59506819D01*
X79535714Y-58935390D02*
X79440476Y-58887771D01*
X79440476Y-58887771D02*
X79392857Y-58840152D01*
X79392857Y-58840152D02*
X79345238Y-58744914D01*
X79345238Y-58744914D02*
X79345238Y-58697295D01*
X79345238Y-58697295D02*
X79392857Y-58602057D01*
X79392857Y-58602057D02*
X79440476Y-58554438D01*
X79440476Y-58554438D02*
X79535714Y-58506819D01*
X79535714Y-58506819D02*
X79726190Y-58506819D01*
X79726190Y-58506819D02*
X79821428Y-58554438D01*
X79821428Y-58554438D02*
X79869047Y-58602057D01*
X79869047Y-58602057D02*
X79916666Y-58697295D01*
X79916666Y-58697295D02*
X79916666Y-58744914D01*
X79916666Y-58744914D02*
X79869047Y-58840152D01*
X79869047Y-58840152D02*
X79821428Y-58887771D01*
X79821428Y-58887771D02*
X79726190Y-58935390D01*
X79726190Y-58935390D02*
X79535714Y-58935390D01*
X79535714Y-58935390D02*
X79440476Y-58983009D01*
X79440476Y-58983009D02*
X79392857Y-59030628D01*
X79392857Y-59030628D02*
X79345238Y-59125866D01*
X79345238Y-59125866D02*
X79345238Y-59316342D01*
X79345238Y-59316342D02*
X79392857Y-59411580D01*
X79392857Y-59411580D02*
X79440476Y-59459200D01*
X79440476Y-59459200D02*
X79535714Y-59506819D01*
X79535714Y-59506819D02*
X79726190Y-59506819D01*
X79726190Y-59506819D02*
X79821428Y-59459200D01*
X79821428Y-59459200D02*
X79869047Y-59411580D01*
X79869047Y-59411580D02*
X79916666Y-59316342D01*
X79916666Y-59316342D02*
X79916666Y-59125866D01*
X79916666Y-59125866D02*
X79869047Y-59030628D01*
X79869047Y-59030628D02*
X79821428Y-58983009D01*
X79821428Y-58983009D02*
X79726190Y-58935390D01*
X86966666Y-57406819D02*
X86966666Y-58121104D01*
X86966666Y-58121104D02*
X86919047Y-58263961D01*
X86919047Y-58263961D02*
X86823809Y-58359200D01*
X86823809Y-58359200D02*
X86680952Y-58406819D01*
X86680952Y-58406819D02*
X86585714Y-58406819D01*
X87347619Y-57406819D02*
X88014285Y-57406819D01*
X88014285Y-57406819D02*
X87585714Y-58406819D01*
X73916666Y-58506819D02*
X73916666Y-59221104D01*
X73916666Y-59221104D02*
X73869047Y-59363961D01*
X73869047Y-59363961D02*
X73773809Y-59459200D01*
X73773809Y-59459200D02*
X73630952Y-59506819D01*
X73630952Y-59506819D02*
X73535714Y-59506819D01*
X74821428Y-58506819D02*
X74630952Y-58506819D01*
X74630952Y-58506819D02*
X74535714Y-58554438D01*
X74535714Y-58554438D02*
X74488095Y-58602057D01*
X74488095Y-58602057D02*
X74392857Y-58744914D01*
X74392857Y-58744914D02*
X74345238Y-58935390D01*
X74345238Y-58935390D02*
X74345238Y-59316342D01*
X74345238Y-59316342D02*
X74392857Y-59411580D01*
X74392857Y-59411580D02*
X74440476Y-59459200D01*
X74440476Y-59459200D02*
X74535714Y-59506819D01*
X74535714Y-59506819D02*
X74726190Y-59506819D01*
X74726190Y-59506819D02*
X74821428Y-59459200D01*
X74821428Y-59459200D02*
X74869047Y-59411580D01*
X74869047Y-59411580D02*
X74916666Y-59316342D01*
X74916666Y-59316342D02*
X74916666Y-59078247D01*
X74916666Y-59078247D02*
X74869047Y-58983009D01*
X74869047Y-58983009D02*
X74821428Y-58935390D01*
X74821428Y-58935390D02*
X74726190Y-58887771D01*
X74726190Y-58887771D02*
X74535714Y-58887771D01*
X74535714Y-58887771D02*
X74440476Y-58935390D01*
X74440476Y-58935390D02*
X74392857Y-58983009D01*
X74392857Y-58983009D02*
X74345238Y-59078247D01*
X81416666Y-58506819D02*
X81416666Y-59221104D01*
X81416666Y-59221104D02*
X81369047Y-59363961D01*
X81369047Y-59363961D02*
X81273809Y-59459200D01*
X81273809Y-59459200D02*
X81130952Y-59506819D01*
X81130952Y-59506819D02*
X81035714Y-59506819D01*
X82321428Y-58840152D02*
X82321428Y-59506819D01*
X82083333Y-58459200D02*
X81845238Y-59173485D01*
X81845238Y-59173485D02*
X82464285Y-59173485D01*
X89516666Y-57406819D02*
X89516666Y-58121104D01*
X89516666Y-58121104D02*
X89469047Y-58263961D01*
X89469047Y-58263961D02*
X89373809Y-58359200D01*
X89373809Y-58359200D02*
X89230952Y-58406819D01*
X89230952Y-58406819D02*
X89135714Y-58406819D01*
X89897619Y-57406819D02*
X90516666Y-57406819D01*
X90516666Y-57406819D02*
X90183333Y-57787771D01*
X90183333Y-57787771D02*
X90326190Y-57787771D01*
X90326190Y-57787771D02*
X90421428Y-57835390D01*
X90421428Y-57835390D02*
X90469047Y-57883009D01*
X90469047Y-57883009D02*
X90516666Y-57978247D01*
X90516666Y-57978247D02*
X90516666Y-58216342D01*
X90516666Y-58216342D02*
X90469047Y-58311580D01*
X90469047Y-58311580D02*
X90421428Y-58359200D01*
X90421428Y-58359200D02*
X90326190Y-58406819D01*
X90326190Y-58406819D02*
X90040476Y-58406819D01*
X90040476Y-58406819D02*
X89945238Y-58359200D01*
X89945238Y-58359200D02*
X89897619Y-58311580D01*
X76416666Y-58506819D02*
X76416666Y-59221104D01*
X76416666Y-59221104D02*
X76369047Y-59363961D01*
X76369047Y-59363961D02*
X76273809Y-59459200D01*
X76273809Y-59459200D02*
X76130952Y-59506819D01*
X76130952Y-59506819D02*
X76035714Y-59506819D01*
X76845238Y-58602057D02*
X76892857Y-58554438D01*
X76892857Y-58554438D02*
X76988095Y-58506819D01*
X76988095Y-58506819D02*
X77226190Y-58506819D01*
X77226190Y-58506819D02*
X77321428Y-58554438D01*
X77321428Y-58554438D02*
X77369047Y-58602057D01*
X77369047Y-58602057D02*
X77416666Y-58697295D01*
X77416666Y-58697295D02*
X77416666Y-58792533D01*
X77416666Y-58792533D02*
X77369047Y-58935390D01*
X77369047Y-58935390D02*
X76797619Y-59506819D01*
X76797619Y-59506819D02*
X77416666Y-59506819D01*
X83916666Y-64656819D02*
X83916666Y-65371104D01*
X83916666Y-65371104D02*
X83869047Y-65513961D01*
X83869047Y-65513961D02*
X83773809Y-65609200D01*
X83773809Y-65609200D02*
X83630952Y-65656819D01*
X83630952Y-65656819D02*
X83535714Y-65656819D01*
X84916666Y-65656819D02*
X84345238Y-65656819D01*
X84630952Y-65656819D02*
X84630952Y-64656819D01*
X84630952Y-64656819D02*
X84535714Y-64799676D01*
X84535714Y-64799676D02*
X84440476Y-64894914D01*
X84440476Y-64894914D02*
X84345238Y-64942533D01*
X84358333Y-61989580D02*
X84310714Y-62037200D01*
X84310714Y-62037200D02*
X84167857Y-62084819D01*
X84167857Y-62084819D02*
X84072619Y-62084819D01*
X84072619Y-62084819D02*
X83929762Y-62037200D01*
X83929762Y-62037200D02*
X83834524Y-61941961D01*
X83834524Y-61941961D02*
X83786905Y-61846723D01*
X83786905Y-61846723D02*
X83739286Y-61656247D01*
X83739286Y-61656247D02*
X83739286Y-61513390D01*
X83739286Y-61513390D02*
X83786905Y-61322914D01*
X83786905Y-61322914D02*
X83834524Y-61227676D01*
X83834524Y-61227676D02*
X83929762Y-61132438D01*
X83929762Y-61132438D02*
X84072619Y-61084819D01*
X84072619Y-61084819D02*
X84167857Y-61084819D01*
X84167857Y-61084819D02*
X84310714Y-61132438D01*
X84310714Y-61132438D02*
X84358333Y-61180057D01*
X85215476Y-61418152D02*
X85215476Y-62084819D01*
X84977381Y-61037200D02*
X84739286Y-61751485D01*
X84739286Y-61751485D02*
X85358333Y-61751485D01*
X82679580Y-64241666D02*
X82727200Y-64289285D01*
X82727200Y-64289285D02*
X82774819Y-64432142D01*
X82774819Y-64432142D02*
X82774819Y-64527380D01*
X82774819Y-64527380D02*
X82727200Y-64670237D01*
X82727200Y-64670237D02*
X82631961Y-64765475D01*
X82631961Y-64765475D02*
X82536723Y-64813094D01*
X82536723Y-64813094D02*
X82346247Y-64860713D01*
X82346247Y-64860713D02*
X82203390Y-64860713D01*
X82203390Y-64860713D02*
X82012914Y-64813094D01*
X82012914Y-64813094D02*
X81917676Y-64765475D01*
X81917676Y-64765475D02*
X81822438Y-64670237D01*
X81822438Y-64670237D02*
X81774819Y-64527380D01*
X81774819Y-64527380D02*
X81774819Y-64432142D01*
X81774819Y-64432142D02*
X81822438Y-64289285D01*
X81822438Y-64289285D02*
X81870057Y-64241666D01*
X81774819Y-63908332D02*
X81774819Y-63289285D01*
X81774819Y-63289285D02*
X82155771Y-63622618D01*
X82155771Y-63622618D02*
X82155771Y-63479761D01*
X82155771Y-63479761D02*
X82203390Y-63384523D01*
X82203390Y-63384523D02*
X82251009Y-63336904D01*
X82251009Y-63336904D02*
X82346247Y-63289285D01*
X82346247Y-63289285D02*
X82584342Y-63289285D01*
X82584342Y-63289285D02*
X82679580Y-63336904D01*
X82679580Y-63336904D02*
X82727200Y-63384523D01*
X82727200Y-63384523D02*
X82774819Y-63479761D01*
X82774819Y-63479761D02*
X82774819Y-63765475D01*
X82774819Y-63765475D02*
X82727200Y-63860713D01*
X82727200Y-63860713D02*
X82679580Y-63908332D01*
D11*
%TO.C,U2*%
X90710000Y-62140000D02*
X90710000Y-63450000D01*
X87990000Y-62140000D02*
X90710000Y-62140000D01*
X87990000Y-62140000D02*
X87990000Y-62370000D01*
X90710000Y-65550000D02*
X90710000Y-66860000D01*
X86850000Y-62370000D02*
X87990000Y-62370000D01*
X87990000Y-66860000D02*
X87990000Y-66630000D01*
X90710000Y-66860000D02*
X87990000Y-66860000D01*
%TO.C,T2*%
X75200000Y-64800000D02*
X73300000Y-64800000D01*
X73300000Y-62900000D02*
X75200000Y-62900000D01*
X75200000Y-62900000D02*
X75200000Y-64800000D01*
X73300000Y-64800000D02*
X73300000Y-62900000D01*
%TO.C,T1*%
X75200000Y-67800000D02*
X73300000Y-67800000D01*
X73300000Y-65900000D02*
X75200000Y-65900000D01*
X75200000Y-65900000D02*
X75200000Y-67800000D01*
X73300000Y-67800000D02*
X73300000Y-65900000D01*
%TO.C,J8*%
X80200000Y-61650000D02*
X78300000Y-61650000D01*
X78300000Y-59750000D02*
X80200000Y-59750000D01*
X80200000Y-59750000D02*
X80200000Y-61650000D01*
X78300000Y-61650000D02*
X78300000Y-59750000D01*
%TO.C,J7*%
X88250000Y-60550000D02*
X86350000Y-60550000D01*
X86350000Y-58650000D02*
X88250000Y-58650000D01*
X88250000Y-58650000D02*
X88250000Y-60550000D01*
X86350000Y-60550000D02*
X86350000Y-58650000D01*
%TO.C,J6*%
X75200000Y-61650000D02*
X73300000Y-61650000D01*
X73300000Y-59750000D02*
X75200000Y-59750000D01*
X75200000Y-59750000D02*
X75200000Y-61650000D01*
X73300000Y-61650000D02*
X73300000Y-59750000D01*
%TO.C,J4*%
X82700000Y-61650000D02*
X80800000Y-61650000D01*
X80800000Y-59750000D02*
X82700000Y-59750000D01*
X82700000Y-59750000D02*
X82700000Y-61650000D01*
X80800000Y-61650000D02*
X80800000Y-59750000D01*
%TO.C,J3*%
X90800000Y-60550000D02*
X88900000Y-60550000D01*
X88900000Y-58650000D02*
X90800000Y-58650000D01*
X90800000Y-58650000D02*
X90800000Y-60550000D01*
X88900000Y-60550000D02*
X88900000Y-58650000D01*
%TO.C,J2*%
X77700000Y-61650000D02*
X75800000Y-61650000D01*
X75800000Y-59750000D02*
X77700000Y-59750000D01*
X77700000Y-59750000D02*
X77700000Y-61650000D01*
X75800000Y-61650000D02*
X75800000Y-59750000D01*
%TO.C,J1*%
X83300000Y-67800000D02*
X83300000Y-65900000D01*
X85200000Y-65900000D02*
X85200000Y-67800000D01*
X83300000Y-65900000D02*
X85200000Y-65900000D01*
X85200000Y-67800000D02*
X83300000Y-67800000D01*
%TO.C,C4*%
X84665580Y-59690000D02*
X84384420Y-59690000D01*
X84665580Y-60710000D02*
X84384420Y-60710000D01*
%TO.C,C3*%
X84260000Y-64215580D02*
X84260000Y-63934420D01*
X83240000Y-64215580D02*
X83240000Y-63934420D01*
%TO.C,C2*%
X85760000Y-64215580D02*
X85760000Y-63934420D01*
X84740000Y-64215580D02*
X84740000Y-63934420D01*
%TO.C,D3*%
X81550000Y-63850000D02*
X81550000Y-66850000D01*
X81550000Y-62750000D02*
X81550000Y-62950000D01*
X76950000Y-67950000D02*
X82750000Y-67950000D01*
X76950000Y-67750000D02*
X76950000Y-67950000D01*
X76950000Y-66850000D02*
X76950000Y-63850000D01*
X76950000Y-62950000D02*
X76950000Y-62750000D01*
X76950000Y-62750000D02*
X81550000Y-62750000D01*
%TO.C,C1*%
X84665580Y-62260000D02*
X84384420Y-62260000D01*
X84665580Y-61240000D02*
X84384420Y-61240000D01*
%TD*%
%LPC*%
D12*
%TO.C,U2*%
X87400000Y-63000000D03*
D13*
X87487500Y-64500000D03*
D12*
X87400000Y-66000000D03*
%TD*%
D14*
%TO.C,T2*%
X74250000Y-63850000D03*
%TD*%
%TO.C,T1*%
X74250000Y-66850000D03*
%TD*%
%TO.C,J8*%
X79250000Y-60700000D03*
%TD*%
%TO.C,J7*%
X87300000Y-59600000D03*
%TD*%
%TO.C,J6*%
X74250000Y-60700000D03*
%TD*%
%TO.C,J4*%
X81750000Y-60700000D03*
%TD*%
%TO.C,J3*%
X89850000Y-59600000D03*
%TD*%
%TO.C,J2*%
X76750000Y-60700000D03*
%TD*%
%TO.C,J1*%
X84250000Y-66850000D03*
%TD*%
D15*
%TO.C,C4*%
X85300000Y-60200000D03*
X83750000Y-60200000D03*
%TD*%
D16*
%TO.C,C3*%
X83750000Y-64850000D03*
X83750000Y-63300000D03*
%TD*%
%TO.C,C2*%
X85250000Y-63300000D03*
X85250000Y-64850000D03*
%TD*%
D17*
%TO.C,D3*%
X82225000Y-67350000D03*
X82225000Y-63350000D03*
X76275000Y-63350000D03*
X76275000Y-67350000D03*
%TD*%
D15*
%TO.C,C1*%
X85300000Y-61750000D03*
X83750000Y-61750000D03*
%TD*%
%LPD*%
M02*
