%TF.GenerationSoftware,KiCad,Pcbnew,7.0.9*%
%TF.CreationDate,2024-02-29T00:23:49+01:00*%
%TF.ProjectId,dropdown,64726f70-646f-4776-9e2e-6b696361645f,rev?*%
%TF.SameCoordinates,Original*%
%TF.FileFunction,Copper,L1,Top*%
%TF.FilePolarity,Positive*%
%FSLAX46Y46*%
G04 Gerber Fmt 4.6, Leading zero omitted, Abs format (unit mm)*
G04 Created by KiCad (PCBNEW 7.0.9) date 2024-02-29 00:23:49*
%MOMM*%
%LPD*%
G01*
G04 APERTURE LIST*
G04 Aperture macros list*
%AMRoundRect*
0 Rectangle with rounded corners*
0 $1 Rounding radius*
0 $2 $3 $4 $5 $6 $7 $8 $9 X,Y pos of 4 corners*
0 Add a 4 corners polygon primitive as box body*
4,1,4,$2,$3,$4,$5,$6,$7,$8,$9,$2,$3,0*
0 Add four circle primitives for the rounded corners*
1,1,$1+$1,$2,$3*
1,1,$1+$1,$4,$5*
1,1,$1+$1,$6,$7*
1,1,$1+$1,$8,$9*
0 Add four rect primitives between the rounded corners*
20,1,$1+$1,$2,$3,$4,$5,0*
20,1,$1+$1,$4,$5,$6,$7,0*
20,1,$1+$1,$6,$7,$8,$9,0*
20,1,$1+$1,$8,$9,$2,$3,0*%
%AMFreePoly0*
4,1,9,3.862500,-0.866500,0.737500,-0.866500,0.737500,-0.450000,-0.737500,-0.450000,-0.737500,0.450000,0.737500,0.450000,0.737500,0.866500,3.862500,0.866500,3.862500,-0.866500,3.862500,-0.866500,$1*%
G04 Aperture macros list end*
%TA.AperFunction,NonConductor*%
%ADD10C,0.200000*%
%TD*%
%TA.AperFunction,SMDPad,CuDef*%
%ADD11R,1.300000X0.900000*%
%TD*%
%TA.AperFunction,SMDPad,CuDef*%
%ADD12FreePoly0,0.000000*%
%TD*%
%TA.AperFunction,ComponentPad*%
%ADD13R,1.500000X1.500000*%
%TD*%
%TA.AperFunction,SMDPad,CuDef*%
%ADD14RoundRect,0.225000X0.225000X0.250000X-0.225000X0.250000X-0.225000X-0.250000X0.225000X-0.250000X0*%
%TD*%
%TA.AperFunction,SMDPad,CuDef*%
%ADD15RoundRect,0.225000X0.250000X-0.225000X0.250000X0.225000X-0.250000X0.225000X-0.250000X-0.225000X0*%
%TD*%
%TA.AperFunction,SMDPad,CuDef*%
%ADD16R,1.000000X0.700000*%
%TD*%
%TA.AperFunction,ViaPad*%
%ADD17C,0.800000*%
%TD*%
G04 APERTURE END LIST*
D10*
X88150000Y-65050000D02*
X86700000Y-65050000D01*
X86700000Y-64000000D01*
X88150000Y-64000000D01*
X88150000Y-65050000D01*
%TA.AperFunction,NonConductor*%
G36*
X88150000Y-65050000D02*
G01*
X86700000Y-65050000D01*
X86700000Y-64000000D01*
X88150000Y-64000000D01*
X88150000Y-65050000D01*
G37*
%TD.AperFunction*%
X85850000Y-65850000D02*
X88400000Y-65850000D01*
X88400000Y-68050000D01*
X81600000Y-68050000D01*
X81600000Y-66750000D01*
X81650000Y-66700000D01*
X83000000Y-66700000D01*
X83050000Y-66650000D01*
X83000000Y-66600000D01*
X83000000Y-64250000D01*
X85850000Y-64250000D01*
X85850000Y-65850000D01*
%TA.AperFunction,NonConductor*%
G36*
X85850000Y-65850000D02*
G01*
X88400000Y-65850000D01*
X88400000Y-68050000D01*
X81600000Y-68050000D01*
X81600000Y-66750000D01*
X81650000Y-66700000D01*
X83000000Y-66700000D01*
X83050000Y-66650000D01*
X83000000Y-66600000D01*
X83000000Y-64250000D01*
X85850000Y-64250000D01*
X85850000Y-65850000D01*
G37*
%TD.AperFunction*%
X84400000Y-62700000D02*
X85300000Y-62700000D01*
X86000000Y-63400000D01*
X86000000Y-63900000D01*
X81600000Y-63900000D01*
X81600000Y-62400000D01*
X84100000Y-62400000D01*
X84400000Y-62700000D01*
%TA.AperFunction,NonConductor*%
G36*
X84400000Y-62700000D02*
G01*
X85300000Y-62700000D01*
X86000000Y-63400000D01*
X86000000Y-63900000D01*
X81600000Y-63900000D01*
X81600000Y-62400000D01*
X84100000Y-62400000D01*
X84400000Y-62700000D01*
G37*
%TD.AperFunction*%
X91250000Y-61200000D02*
X88450000Y-61200000D01*
X88450000Y-62900000D01*
X88000000Y-63350000D01*
X86786666Y-63350000D01*
X86200000Y-62250000D01*
X84750000Y-62250000D01*
X84750000Y-58500000D01*
X91250000Y-58500000D01*
X91250000Y-61200000D01*
%TA.AperFunction,NonConductor*%
G36*
X91250000Y-61200000D02*
G01*
X88450000Y-61200000D01*
X88450000Y-62900000D01*
X88000000Y-63350000D01*
X86786666Y-63350000D01*
X86200000Y-62250000D01*
X84750000Y-62250000D01*
X84750000Y-58500000D01*
X91250000Y-58500000D01*
X91250000Y-61200000D01*
G37*
%TD.AperFunction*%
X84084292Y-62350000D02*
X83900000Y-62371270D01*
X77750000Y-62450000D01*
X77200000Y-61900000D01*
X73000000Y-61900000D01*
X73000000Y-59450000D01*
X84092148Y-59450000D01*
X84084292Y-62350000D01*
%TA.AperFunction,NonConductor*%
G36*
X84084292Y-62350000D02*
G01*
X83900000Y-62371270D01*
X77750000Y-62450000D01*
X77200000Y-61900000D01*
X73000000Y-61900000D01*
X73000000Y-59450000D01*
X84092148Y-59450000D01*
X84084292Y-62350000D01*
G37*
%TD.AperFunction*%
X77100000Y-65100000D02*
X73000000Y-65100000D01*
X73000000Y-62600000D01*
X77100000Y-62600000D01*
X77100000Y-65100000D01*
%TA.AperFunction,NonConductor*%
G36*
X77100000Y-65100000D02*
G01*
X73000000Y-65100000D01*
X73000000Y-62600000D01*
X77100000Y-62600000D01*
X77100000Y-65100000D01*
G37*
%TD.AperFunction*%
X77150000Y-68050000D02*
X77100000Y-68100000D01*
X73000000Y-68100000D01*
X73000000Y-65600000D01*
X77150000Y-65600000D01*
X77150000Y-68050000D01*
%TA.AperFunction,NonConductor*%
G36*
X77150000Y-68050000D02*
G01*
X77100000Y-68100000D01*
X73000000Y-68100000D01*
X73000000Y-65600000D01*
X77150000Y-65600000D01*
X77150000Y-68050000D01*
G37*
%TD.AperFunction*%
D11*
%TO.P,U2,1,VO*%
%TO.N,+3.3V*%
X87400000Y-63000000D03*
D12*
%TO.P,U2,2,GND*%
%TO.N,GND*%
X87487500Y-64500000D03*
D11*
%TO.P,U2,3,VI*%
%TO.N,VD*%
X87400000Y-66000000D03*
%TD*%
D13*
%TO.P,T2,1,Pin_1*%
%TO.N,GND1*%
X74250000Y-63850000D03*
%TD*%
%TO.P,T1,1,Pin_1*%
%TO.N,+12V*%
X74250000Y-66850000D03*
%TD*%
%TO.P,J8,1,Pin_1*%
%TO.N,GND*%
X79250000Y-60700000D03*
%TD*%
%TO.P,J7,1,Pin_1*%
%TO.N,+3.3V*%
X87300000Y-59600000D03*
%TD*%
%TO.P,J6,1,Pin_1*%
%TO.N,GND*%
X74250000Y-60700000D03*
%TD*%
%TO.P,J4,1,Pin_1*%
%TO.N,GND*%
X81750000Y-60700000D03*
%TD*%
%TO.P,J3,1,Pin_1*%
%TO.N,+3.3V*%
X89850000Y-59600000D03*
%TD*%
%TO.P,J2,1,Pin_1*%
%TO.N,GND*%
X76750000Y-60700000D03*
%TD*%
%TO.P,J1,1,Pin_1*%
%TO.N,VD*%
X84250000Y-66850000D03*
%TD*%
D14*
%TO.P,C4,1*%
%TO.N,+3.3V*%
X85300000Y-60200000D03*
%TO.P,C4,2*%
%TO.N,GND*%
X83750000Y-60200000D03*
%TD*%
D15*
%TO.P,C3,1*%
%TO.N,VD*%
X83750000Y-64850000D03*
%TO.P,C3,2*%
%TO.N,GND*%
X83750000Y-63300000D03*
%TD*%
%TO.P,C2,2*%
%TO.N,GND*%
X85250000Y-63300000D03*
%TO.P,C2,1*%
%TO.N,VD*%
X85250000Y-64850000D03*
%TD*%
D16*
%TO.P,D3,1,+*%
%TO.N,VD*%
X82225000Y-67350000D03*
%TO.P,D3,2,-*%
%TO.N,GND*%
X82225000Y-63350000D03*
%TO.P,D3,3*%
%TO.N,GND1*%
X76275000Y-63350000D03*
%TO.P,D3,4*%
%TO.N,+12V*%
X76275000Y-67350000D03*
%TD*%
D14*
%TO.P,C1,1*%
%TO.N,+3.3V*%
X85300000Y-61750000D03*
%TO.P,C1,2*%
%TO.N,GND*%
X83750000Y-61750000D03*
%TD*%
D17*
%TO.N,+3.3V*%
X85800000Y-59050000D03*
%TO.N,VD*%
X82600000Y-67400000D03*
X87350000Y-66250000D03*
%TO.N,GND*%
X87487500Y-64500000D03*
X80450000Y-62050000D03*
%TO.N,+3.3V*%
X87300000Y-62200000D03*
%TO.N,GND*%
X82225000Y-63350000D03*
%TD*%
M02*
