%TF.GenerationSoftware,KiCad,Pcbnew,7.0.9*%
%TF.CreationDate,2024-02-29T00:23:50+01:00*%
%TF.ProjectId,dropdown,64726f70-646f-4776-9e2e-6b696361645f,rev?*%
%TF.SameCoordinates,Original*%
%TF.FileFunction,Copper,L4,Bot*%
%TF.FilePolarity,Positive*%
%FSLAX46Y46*%
G04 Gerber Fmt 4.6, Leading zero omitted, Abs format (unit mm)*
G04 Created by KiCad (PCBNEW 7.0.9) date 2024-02-29 00:23:50*
%MOMM*%
%LPD*%
G01*
G04 APERTURE LIST*
%TA.AperFunction,ComponentPad*%
%ADD10R,1.500000X1.500000*%
%TD*%
%TA.AperFunction,ViaPad*%
%ADD11C,0.800000*%
%TD*%
G04 APERTURE END LIST*
D10*
%TO.P,T2,1,Pin_1*%
%TO.N,GND1*%
X74250000Y-63850000D03*
%TD*%
%TO.P,T1,1,Pin_1*%
%TO.N,+12V*%
X74250000Y-66850000D03*
%TD*%
%TO.P,J8,1,Pin_1*%
%TO.N,GND*%
X79250000Y-60700000D03*
%TD*%
%TO.P,J7,1,Pin_1*%
%TO.N,+3.3V*%
X87300000Y-59600000D03*
%TD*%
%TO.P,J6,1,Pin_1*%
%TO.N,GND*%
X74250000Y-60700000D03*
%TD*%
%TO.P,J4,1,Pin_1*%
%TO.N,GND*%
X81750000Y-60700000D03*
%TD*%
%TO.P,J3,1,Pin_1*%
%TO.N,+3.3V*%
X89850000Y-59600000D03*
%TD*%
%TO.P,J2,1,Pin_1*%
%TO.N,GND*%
X76750000Y-60700000D03*
%TD*%
%TO.P,J1,1,Pin_1*%
%TO.N,VD*%
X84250000Y-66850000D03*
%TD*%
D11*
%TO.N,GND*%
X87487500Y-64500000D03*
X80450000Y-62050000D03*
X82225000Y-63350000D03*
%TD*%
%TA.AperFunction,Conductor*%
%TO.N,GND*%
G36*
X86143039Y-58319685D02*
G01*
X86188794Y-58372489D01*
X86200000Y-58424000D01*
X86200000Y-58441102D01*
X86180315Y-58508141D01*
X86175267Y-58515413D01*
X86106203Y-58607669D01*
X86106202Y-58607671D01*
X86055908Y-58742517D01*
X86049501Y-58802116D01*
X86049500Y-58802135D01*
X86049500Y-60397870D01*
X86049501Y-60397876D01*
X86055908Y-60457483D01*
X86106202Y-60592328D01*
X86106204Y-60592331D01*
X86175266Y-60684586D01*
X86199684Y-60750050D01*
X86200000Y-60758897D01*
X86200000Y-63798638D01*
X86180315Y-63865677D01*
X86163681Y-63886319D01*
X86136319Y-63913681D01*
X86074996Y-63947166D01*
X86048638Y-63950000D01*
X76174000Y-63950000D01*
X76106961Y-63930315D01*
X76061206Y-63877511D01*
X76050000Y-63826000D01*
X76050000Y-62074000D01*
X76069685Y-62006961D01*
X76122489Y-61961206D01*
X76174000Y-61950000D01*
X76500000Y-61950000D01*
X76500000Y-60948938D01*
X76581115Y-61012072D01*
X76691595Y-61050000D01*
X76779005Y-61050000D01*
X76865216Y-61035614D01*
X76967947Y-60980019D01*
X76995581Y-60950000D01*
X77000000Y-60950000D01*
X77000000Y-61950000D01*
X77547828Y-61950000D01*
X77547844Y-61949999D01*
X77607372Y-61943598D01*
X77607379Y-61943596D01*
X77742086Y-61893354D01*
X77742093Y-61893350D01*
X77857186Y-61807190D01*
X77900733Y-61749021D01*
X77956667Y-61707150D01*
X78026359Y-61702166D01*
X78087682Y-61735651D01*
X78099267Y-61749021D01*
X78142813Y-61807190D01*
X78257906Y-61893350D01*
X78257913Y-61893354D01*
X78392620Y-61943596D01*
X78392627Y-61943598D01*
X78452155Y-61949999D01*
X78452172Y-61950000D01*
X79000000Y-61950000D01*
X79000000Y-60950000D01*
X77000000Y-60950000D01*
X76995581Y-60950000D01*
X77047060Y-60894079D01*
X77093982Y-60787108D01*
X77098772Y-60729302D01*
X78896372Y-60729302D01*
X78925047Y-60842538D01*
X78988936Y-60940327D01*
X79081115Y-61012072D01*
X79191595Y-61050000D01*
X79279005Y-61050000D01*
X79365216Y-61035614D01*
X79467947Y-60980019D01*
X79495581Y-60950000D01*
X79500000Y-60950000D01*
X79500000Y-61950000D01*
X80047828Y-61950000D01*
X80047844Y-61949999D01*
X80107372Y-61943598D01*
X80107379Y-61943596D01*
X80242086Y-61893354D01*
X80242093Y-61893350D01*
X80357186Y-61807190D01*
X80400733Y-61749021D01*
X80456667Y-61707150D01*
X80526359Y-61702166D01*
X80587682Y-61735651D01*
X80599267Y-61749021D01*
X80642813Y-61807190D01*
X80757906Y-61893350D01*
X80757913Y-61893354D01*
X80892620Y-61943596D01*
X80892627Y-61943598D01*
X80952155Y-61949999D01*
X80952172Y-61950000D01*
X81500000Y-61950000D01*
X81500000Y-60950000D01*
X79500000Y-60950000D01*
X79495581Y-60950000D01*
X79547060Y-60894079D01*
X79593982Y-60787108D01*
X79598772Y-60729302D01*
X81396372Y-60729302D01*
X81425047Y-60842538D01*
X81488936Y-60940327D01*
X81581115Y-61012072D01*
X81691595Y-61050000D01*
X81779005Y-61050000D01*
X81865216Y-61035614D01*
X81967947Y-60980019D01*
X81995581Y-60950000D01*
X82000000Y-60950000D01*
X82000000Y-61950000D01*
X82547828Y-61950000D01*
X82547844Y-61949999D01*
X82607372Y-61943598D01*
X82607379Y-61943596D01*
X82742086Y-61893354D01*
X82742093Y-61893350D01*
X82857187Y-61807190D01*
X82857190Y-61807187D01*
X82943350Y-61692093D01*
X82943354Y-61692086D01*
X82993596Y-61557379D01*
X82993598Y-61557372D01*
X82999999Y-61497844D01*
X83000000Y-61497827D01*
X83000000Y-60950000D01*
X82000000Y-60950000D01*
X81995581Y-60950000D01*
X82047060Y-60894079D01*
X82093982Y-60787108D01*
X82103628Y-60670698D01*
X82074953Y-60557462D01*
X82011064Y-60459673D01*
X81918885Y-60387928D01*
X81808405Y-60350000D01*
X81720995Y-60350000D01*
X81634784Y-60364386D01*
X81532053Y-60419981D01*
X81452940Y-60505921D01*
X81406018Y-60612892D01*
X81396372Y-60729302D01*
X79598772Y-60729302D01*
X79603628Y-60670698D01*
X79574953Y-60557462D01*
X79511064Y-60459673D01*
X79418885Y-60387928D01*
X79308405Y-60350000D01*
X79220995Y-60350000D01*
X79134784Y-60364386D01*
X79032053Y-60419981D01*
X78952940Y-60505921D01*
X78906018Y-60612892D01*
X78896372Y-60729302D01*
X77098772Y-60729302D01*
X77103628Y-60670698D01*
X77074953Y-60557462D01*
X77011064Y-60459673D01*
X76918885Y-60387928D01*
X76808405Y-60350000D01*
X76720995Y-60350000D01*
X76634784Y-60364386D01*
X76532053Y-60419981D01*
X76500000Y-60454799D01*
X76500000Y-59450000D01*
X77000000Y-59450000D01*
X77000000Y-60450000D01*
X79000000Y-60450000D01*
X79000000Y-59450000D01*
X79500000Y-59450000D01*
X79500000Y-60450000D01*
X81500000Y-60450000D01*
X81500000Y-59450000D01*
X82000000Y-59450000D01*
X82000000Y-60450000D01*
X83000000Y-60450000D01*
X83000000Y-59902172D01*
X82999999Y-59902155D01*
X82993598Y-59842627D01*
X82993596Y-59842620D01*
X82943354Y-59707913D01*
X82943350Y-59707906D01*
X82857190Y-59592812D01*
X82857187Y-59592809D01*
X82742093Y-59506649D01*
X82742086Y-59506645D01*
X82607379Y-59456403D01*
X82607372Y-59456401D01*
X82547844Y-59450000D01*
X82000000Y-59450000D01*
X81500000Y-59450000D01*
X80952155Y-59450000D01*
X80892627Y-59456401D01*
X80892620Y-59456403D01*
X80757913Y-59506645D01*
X80757906Y-59506649D01*
X80642812Y-59592809D01*
X80599266Y-59650979D01*
X80543332Y-59692849D01*
X80473640Y-59697833D01*
X80412317Y-59664347D01*
X80400734Y-59650979D01*
X80357187Y-59592809D01*
X80242093Y-59506649D01*
X80242086Y-59506645D01*
X80107379Y-59456403D01*
X80107372Y-59456401D01*
X80047844Y-59450000D01*
X79500000Y-59450000D01*
X79000000Y-59450000D01*
X78452155Y-59450000D01*
X78392627Y-59456401D01*
X78392620Y-59456403D01*
X78257913Y-59506645D01*
X78257906Y-59506649D01*
X78142812Y-59592809D01*
X78099266Y-59650979D01*
X78043332Y-59692849D01*
X77973640Y-59697833D01*
X77912317Y-59664347D01*
X77900734Y-59650979D01*
X77857187Y-59592809D01*
X77742093Y-59506649D01*
X77742086Y-59506645D01*
X77607379Y-59456403D01*
X77607372Y-59456401D01*
X77547844Y-59450000D01*
X77000000Y-59450000D01*
X76500000Y-59450000D01*
X76174000Y-59450000D01*
X76106961Y-59430315D01*
X76061206Y-59377511D01*
X76050000Y-59326000D01*
X76050000Y-58424000D01*
X76069685Y-58356961D01*
X76122489Y-58311206D01*
X76174000Y-58300000D01*
X86076000Y-58300000D01*
X86143039Y-58319685D01*
G37*
%TD.AperFunction*%
%TD*%
M02*
