%TF.GenerationSoftware,KiCad,Pcbnew,7.0.9*%
%TF.CreationDate,2024-02-29T00:23:50+01:00*%
%TF.ProjectId,dropdown,64726f70-646f-4776-9e2e-6b696361645f,rev?*%
%TF.SameCoordinates,Original*%
%TF.FileFunction,Copper,L2,Inr*%
%TF.FilePolarity,Positive*%
%FSLAX46Y46*%
G04 Gerber Fmt 4.6, Leading zero omitted, Abs format (unit mm)*
G04 Created by KiCad (PCBNEW 7.0.9) date 2024-02-29 00:23:50*
%MOMM*%
%LPD*%
G01*
G04 APERTURE LIST*
%TA.AperFunction,ComponentPad*%
%ADD10R,1.500000X1.500000*%
%TD*%
%TA.AperFunction,ViaPad*%
%ADD11C,0.800000*%
%TD*%
G04 APERTURE END LIST*
D10*
%TO.N,GND1*%
%TO.C,T2*%
X74250000Y-63850000D03*
%TD*%
%TO.N,+12V*%
%TO.C,T1*%
X74250000Y-66850000D03*
%TD*%
%TO.N,GND*%
%TO.C,J8*%
X79250000Y-60700000D03*
%TD*%
%TO.N,+3.3V*%
%TO.C,J7*%
X87300000Y-59600000D03*
%TD*%
%TO.N,GND*%
%TO.C,J6*%
X74250000Y-60700000D03*
%TD*%
%TO.N,GND*%
%TO.C,J4*%
X81750000Y-60700000D03*
%TD*%
%TO.N,+3.3V*%
%TO.C,J3*%
X89850000Y-59600000D03*
%TD*%
%TO.N,GND*%
%TO.C,J2*%
X76750000Y-60700000D03*
%TD*%
%TO.N,VD*%
%TO.C,J1*%
X84250000Y-66850000D03*
%TD*%
D11*
%TO.N,+3.3V*%
X85800000Y-59050000D03*
%TO.N,VD*%
X82600000Y-67400000D03*
X87350000Y-66250000D03*
%TO.N,GND*%
X87487500Y-64500000D03*
X80450000Y-62050000D03*
%TO.N,+3.3V*%
X87300000Y-62200000D03*
%TO.N,GND*%
X82225000Y-63350000D03*
%TD*%
%TA.AperFunction,Conductor*%
%TO.N,+3.3V*%
G36*
X86156466Y-58319685D02*
G01*
X86202221Y-58372489D01*
X86212165Y-58441647D01*
X86188694Y-58498311D01*
X86106646Y-58607911D01*
X86106645Y-58607913D01*
X86056403Y-58742620D01*
X86056401Y-58742627D01*
X86050000Y-58802155D01*
X86050000Y-59350000D01*
X87054419Y-59350000D01*
X87002940Y-59405921D01*
X86956018Y-59512892D01*
X86946372Y-59629302D01*
X86975047Y-59742538D01*
X87038936Y-59840327D01*
X87131115Y-59912072D01*
X87241595Y-59950000D01*
X87329005Y-59950000D01*
X87415216Y-59935614D01*
X87517947Y-59880019D01*
X87545581Y-59850000D01*
X87550000Y-59850000D01*
X87550000Y-60850000D01*
X88097828Y-60850000D01*
X88097844Y-60849999D01*
X88157372Y-60843598D01*
X88157379Y-60843596D01*
X88292086Y-60793354D01*
X88292093Y-60793350D01*
X88407186Y-60707190D01*
X88475733Y-60615625D01*
X88531667Y-60573754D01*
X88601359Y-60568770D01*
X88662682Y-60602255D01*
X88674267Y-60615625D01*
X88742813Y-60707190D01*
X88857906Y-60793350D01*
X88857913Y-60793354D01*
X88992620Y-60843596D01*
X88992627Y-60843598D01*
X89052155Y-60849999D01*
X89052172Y-60850000D01*
X89600000Y-60850000D01*
X89600000Y-59850000D01*
X87550000Y-59850000D01*
X87545581Y-59850000D01*
X87597060Y-59794079D01*
X87643982Y-59687108D01*
X87653628Y-59570698D01*
X87624953Y-59457462D01*
X87561064Y-59359673D01*
X87548636Y-59350000D01*
X89604419Y-59350000D01*
X89552940Y-59405921D01*
X89506018Y-59512892D01*
X89496372Y-59629302D01*
X89525047Y-59742538D01*
X89588936Y-59840327D01*
X89681115Y-59912072D01*
X89791595Y-59950000D01*
X89879005Y-59950000D01*
X89965216Y-59935614D01*
X90067947Y-59880019D01*
X90095581Y-59850000D01*
X90100000Y-59850000D01*
X90100000Y-60850000D01*
X90647828Y-60850000D01*
X90647844Y-60849999D01*
X90707372Y-60843598D01*
X90707379Y-60843596D01*
X90842086Y-60793354D01*
X90842093Y-60793350D01*
X90957187Y-60707190D01*
X90957190Y-60707187D01*
X91043350Y-60592093D01*
X91043354Y-60592086D01*
X91093596Y-60457379D01*
X91093598Y-60457372D01*
X91099999Y-60397844D01*
X91100000Y-60397827D01*
X91100000Y-59850000D01*
X90100000Y-59850000D01*
X90095581Y-59850000D01*
X90147060Y-59794079D01*
X90193982Y-59687108D01*
X90203628Y-59570698D01*
X90174953Y-59457462D01*
X90111064Y-59359673D01*
X90098636Y-59350000D01*
X91100000Y-59350000D01*
X91100000Y-58802172D01*
X91099999Y-58802155D01*
X91093598Y-58742627D01*
X91093596Y-58742620D01*
X91043354Y-58607913D01*
X91043353Y-58607911D01*
X90961306Y-58498311D01*
X90936889Y-58432847D01*
X90951740Y-58364574D01*
X91001145Y-58315168D01*
X91060573Y-58300000D01*
X91625500Y-58300000D01*
X91692539Y-58319685D01*
X91738294Y-58372489D01*
X91749500Y-58424000D01*
X91749500Y-68076000D01*
X91729815Y-68143039D01*
X91677011Y-68188794D01*
X91625500Y-68200000D01*
X85406226Y-68200000D01*
X85339187Y-68180315D01*
X85293432Y-68127511D01*
X85283488Y-68058353D01*
X85312513Y-67994797D01*
X85331914Y-67976734D01*
X85357546Y-67957546D01*
X85443796Y-67842331D01*
X85494091Y-67707483D01*
X85500500Y-67647873D01*
X85500499Y-66250000D01*
X86444540Y-66250000D01*
X86464326Y-66438256D01*
X86464327Y-66438259D01*
X86522818Y-66618277D01*
X86522821Y-66618284D01*
X86617467Y-66782216D01*
X86694513Y-66867784D01*
X86744129Y-66922888D01*
X86897265Y-67034148D01*
X86897270Y-67034151D01*
X87070192Y-67111142D01*
X87070197Y-67111144D01*
X87255354Y-67150500D01*
X87255355Y-67150500D01*
X87444644Y-67150500D01*
X87444646Y-67150500D01*
X87629803Y-67111144D01*
X87802730Y-67034151D01*
X87955871Y-66922888D01*
X88082533Y-66782216D01*
X88177179Y-66618284D01*
X88235674Y-66438256D01*
X88255460Y-66250000D01*
X88235674Y-66061744D01*
X88177179Y-65881716D01*
X88082533Y-65717784D01*
X87955871Y-65577112D01*
X87873668Y-65517388D01*
X87831002Y-65462058D01*
X87825023Y-65392445D01*
X87857629Y-65330650D01*
X87896113Y-65303793D01*
X87940230Y-65284151D01*
X88093371Y-65172888D01*
X88220033Y-65032216D01*
X88314679Y-64868284D01*
X88373174Y-64688256D01*
X88392960Y-64500000D01*
X88373174Y-64311744D01*
X88314679Y-64131716D01*
X88220033Y-63967784D01*
X88093371Y-63827112D01*
X88093370Y-63827111D01*
X87940234Y-63715851D01*
X87940229Y-63715848D01*
X87767307Y-63638857D01*
X87767302Y-63638855D01*
X87621501Y-63607865D01*
X87582146Y-63599500D01*
X87392854Y-63599500D01*
X87360397Y-63606398D01*
X87207697Y-63638855D01*
X87207692Y-63638857D01*
X87034770Y-63715848D01*
X87034765Y-63715851D01*
X86881629Y-63827111D01*
X86754966Y-63967785D01*
X86660321Y-64131715D01*
X86660318Y-64131722D01*
X86601827Y-64311740D01*
X86601826Y-64311744D01*
X86582040Y-64500000D01*
X86601826Y-64688256D01*
X86601827Y-64688259D01*
X86660318Y-64868277D01*
X86660321Y-64868284D01*
X86754967Y-65032216D01*
X86881629Y-65172888D01*
X86963831Y-65232611D01*
X87006497Y-65287940D01*
X87012476Y-65357554D01*
X86979871Y-65419349D01*
X86941384Y-65446207D01*
X86897270Y-65465849D01*
X86897268Y-65465849D01*
X86897264Y-65465852D01*
X86744129Y-65577111D01*
X86617466Y-65717785D01*
X86522821Y-65881715D01*
X86522818Y-65881722D01*
X86467450Y-66052128D01*
X86464326Y-66061744D01*
X86444540Y-66250000D01*
X85500499Y-66250000D01*
X85500499Y-66052128D01*
X85494091Y-65992517D01*
X85443796Y-65857669D01*
X85443795Y-65857668D01*
X85443793Y-65857664D01*
X85357547Y-65742455D01*
X85357544Y-65742452D01*
X85242335Y-65656206D01*
X85242328Y-65656202D01*
X85107482Y-65605908D01*
X85107483Y-65605908D01*
X85047883Y-65599501D01*
X85047881Y-65599500D01*
X85047873Y-65599500D01*
X85047864Y-65599500D01*
X83452129Y-65599500D01*
X83452123Y-65599501D01*
X83392516Y-65605908D01*
X83257671Y-65656202D01*
X83257664Y-65656206D01*
X83142455Y-65742452D01*
X83142452Y-65742455D01*
X83056206Y-65857664D01*
X83056202Y-65857671D01*
X83005908Y-65992517D01*
X82999501Y-66052116D01*
X82999501Y-66052123D01*
X82999500Y-66052135D01*
X82999500Y-66411171D01*
X82979815Y-66478210D01*
X82927011Y-66523965D01*
X82857853Y-66533909D01*
X82849720Y-66532461D01*
X82694647Y-66499500D01*
X82694646Y-66499500D01*
X82505354Y-66499500D01*
X82472897Y-66506398D01*
X82320197Y-66538855D01*
X82320192Y-66538857D01*
X82147270Y-66615848D01*
X82147265Y-66615851D01*
X81994129Y-66727111D01*
X81867466Y-66867785D01*
X81772821Y-67031715D01*
X81772818Y-67031722D01*
X81714327Y-67211740D01*
X81714326Y-67211744D01*
X81694540Y-67400000D01*
X81714326Y-67588256D01*
X81714327Y-67588259D01*
X81772818Y-67768277D01*
X81772821Y-67768284D01*
X81867467Y-67932216D01*
X81922224Y-67993030D01*
X81952453Y-68056019D01*
X81943828Y-68125354D01*
X81899087Y-68179020D01*
X81832434Y-68199978D01*
X81830073Y-68200000D01*
X75406226Y-68200000D01*
X75339187Y-68180315D01*
X75293432Y-68127511D01*
X75283488Y-68058353D01*
X75312513Y-67994797D01*
X75331914Y-67976734D01*
X75357546Y-67957546D01*
X75443796Y-67842331D01*
X75494091Y-67707483D01*
X75500500Y-67647873D01*
X75500499Y-66052128D01*
X75494091Y-65992517D01*
X75443796Y-65857669D01*
X75443795Y-65857668D01*
X75443793Y-65857664D01*
X75357547Y-65742455D01*
X75357544Y-65742452D01*
X75242335Y-65656206D01*
X75242328Y-65656202D01*
X75107482Y-65605908D01*
X75107483Y-65605908D01*
X75047883Y-65599501D01*
X75047881Y-65599500D01*
X75047873Y-65599500D01*
X75047864Y-65599500D01*
X73452129Y-65599500D01*
X73452123Y-65599501D01*
X73392516Y-65605908D01*
X73257671Y-65656202D01*
X73257668Y-65656204D01*
X73198311Y-65700639D01*
X73132846Y-65725056D01*
X73064573Y-65710204D01*
X73015168Y-65660799D01*
X73000000Y-65601372D01*
X73000000Y-65098627D01*
X73019685Y-65031588D01*
X73072489Y-64985833D01*
X73141647Y-64975889D01*
X73198311Y-64999360D01*
X73242200Y-65032216D01*
X73257668Y-65043795D01*
X73257671Y-65043797D01*
X73392517Y-65094091D01*
X73392516Y-65094091D01*
X73399444Y-65094835D01*
X73452127Y-65100500D01*
X75047872Y-65100499D01*
X75107483Y-65094091D01*
X75242331Y-65043796D01*
X75357546Y-64957546D01*
X75443796Y-64842331D01*
X75494091Y-64707483D01*
X75500500Y-64647873D01*
X75500499Y-63350000D01*
X81319540Y-63350000D01*
X81339326Y-63538256D01*
X81339327Y-63538259D01*
X81397818Y-63718277D01*
X81397821Y-63718284D01*
X81492467Y-63882216D01*
X81569513Y-63967784D01*
X81619129Y-64022888D01*
X81772265Y-64134148D01*
X81772270Y-64134151D01*
X81945192Y-64211142D01*
X81945197Y-64211144D01*
X82130354Y-64250500D01*
X82130355Y-64250500D01*
X82319644Y-64250500D01*
X82319646Y-64250500D01*
X82504803Y-64211144D01*
X82677730Y-64134151D01*
X82830871Y-64022888D01*
X82957533Y-63882216D01*
X83052179Y-63718284D01*
X83110674Y-63538256D01*
X83130460Y-63350000D01*
X83110674Y-63161744D01*
X83052179Y-62981716D01*
X82957533Y-62817784D01*
X82830871Y-62677112D01*
X82808418Y-62660799D01*
X82677734Y-62565851D01*
X82677729Y-62565848D01*
X82504807Y-62488857D01*
X82504802Y-62488855D01*
X82359001Y-62457865D01*
X82319646Y-62449500D01*
X82130354Y-62449500D01*
X82097897Y-62456398D01*
X81945197Y-62488855D01*
X81945192Y-62488857D01*
X81772270Y-62565848D01*
X81772265Y-62565851D01*
X81619129Y-62677111D01*
X81492466Y-62817785D01*
X81397821Y-62981715D01*
X81397818Y-62981722D01*
X81374942Y-63052129D01*
X81339326Y-63161744D01*
X81319540Y-63350000D01*
X75500499Y-63350000D01*
X75500499Y-63052128D01*
X75494091Y-62992517D01*
X75490062Y-62981716D01*
X75443797Y-62857671D01*
X75443793Y-62857664D01*
X75357547Y-62742455D01*
X75357544Y-62742452D01*
X75242335Y-62656206D01*
X75242328Y-62656202D01*
X75107482Y-62605908D01*
X75107483Y-62605908D01*
X75047883Y-62599501D01*
X75047881Y-62599500D01*
X75047873Y-62599500D01*
X75047864Y-62599500D01*
X73452129Y-62599500D01*
X73452123Y-62599501D01*
X73392516Y-62605908D01*
X73257671Y-62656202D01*
X73257668Y-62656204D01*
X73198311Y-62700639D01*
X73132846Y-62725056D01*
X73064573Y-62710204D01*
X73015168Y-62660799D01*
X73000000Y-62601372D01*
X73000000Y-61948627D01*
X73019685Y-61881588D01*
X73072489Y-61835833D01*
X73141647Y-61825889D01*
X73198311Y-61849360D01*
X73257665Y-61893793D01*
X73257668Y-61893795D01*
X73257671Y-61893797D01*
X73392517Y-61944091D01*
X73392516Y-61944091D01*
X73399444Y-61944835D01*
X73452127Y-61950500D01*
X75047872Y-61950499D01*
X75107483Y-61944091D01*
X75242331Y-61893796D01*
X75357546Y-61807546D01*
X75400734Y-61749854D01*
X75456667Y-61707984D01*
X75526359Y-61703000D01*
X75587682Y-61736485D01*
X75599263Y-61749850D01*
X75642454Y-61807546D01*
X75666957Y-61825889D01*
X75757664Y-61893793D01*
X75757671Y-61893797D01*
X75892517Y-61944091D01*
X75892516Y-61944091D01*
X75899444Y-61944835D01*
X75952127Y-61950500D01*
X77547872Y-61950499D01*
X77607483Y-61944091D01*
X77742331Y-61893796D01*
X77857546Y-61807546D01*
X77900734Y-61749854D01*
X77956667Y-61707984D01*
X78026359Y-61703000D01*
X78087682Y-61736485D01*
X78099263Y-61749850D01*
X78142454Y-61807546D01*
X78166957Y-61825889D01*
X78257664Y-61893793D01*
X78257671Y-61893797D01*
X78392517Y-61944091D01*
X78392516Y-61944091D01*
X78399444Y-61944835D01*
X78452127Y-61950500D01*
X79422431Y-61950499D01*
X79489470Y-61970183D01*
X79535225Y-62022987D01*
X79545752Y-62061537D01*
X79554082Y-62140790D01*
X79564326Y-62238256D01*
X79564327Y-62238259D01*
X79622818Y-62418277D01*
X79622821Y-62418284D01*
X79717467Y-62582216D01*
X79784088Y-62656206D01*
X79844129Y-62722888D01*
X79997265Y-62834148D01*
X79997270Y-62834151D01*
X80170192Y-62911142D01*
X80170197Y-62911144D01*
X80355354Y-62950500D01*
X80355355Y-62950500D01*
X80544644Y-62950500D01*
X80544646Y-62950500D01*
X80729803Y-62911144D01*
X80902730Y-62834151D01*
X81055871Y-62722888D01*
X81182533Y-62582216D01*
X81277179Y-62418284D01*
X81335674Y-62238256D01*
X81354247Y-62061536D01*
X81380832Y-61996923D01*
X81438129Y-61956938D01*
X81477568Y-61950499D01*
X82547871Y-61950499D01*
X82547872Y-61950499D01*
X82607483Y-61944091D01*
X82742331Y-61893796D01*
X82857546Y-61807546D01*
X82943796Y-61692331D01*
X82994091Y-61557483D01*
X83000500Y-61497873D01*
X83000499Y-59902128D01*
X82994895Y-59850000D01*
X86050000Y-59850000D01*
X86050000Y-60397844D01*
X86056401Y-60457372D01*
X86056403Y-60457379D01*
X86106645Y-60592086D01*
X86106649Y-60592093D01*
X86192809Y-60707187D01*
X86192812Y-60707190D01*
X86307906Y-60793350D01*
X86307913Y-60793354D01*
X86442620Y-60843596D01*
X86442627Y-60843598D01*
X86502155Y-60849999D01*
X86502172Y-60850000D01*
X87050000Y-60850000D01*
X87050000Y-59850000D01*
X86050000Y-59850000D01*
X82994895Y-59850000D01*
X82994091Y-59842517D01*
X82993274Y-59840327D01*
X82943797Y-59707671D01*
X82943793Y-59707664D01*
X82857547Y-59592455D01*
X82857544Y-59592452D01*
X82742335Y-59506206D01*
X82742328Y-59506202D01*
X82607482Y-59455908D01*
X82607483Y-59455908D01*
X82547883Y-59449501D01*
X82547881Y-59449500D01*
X82547873Y-59449500D01*
X82547864Y-59449500D01*
X80952129Y-59449500D01*
X80952123Y-59449501D01*
X80892516Y-59455908D01*
X80757671Y-59506202D01*
X80757664Y-59506206D01*
X80642455Y-59592452D01*
X80599266Y-59650145D01*
X80543332Y-59692015D01*
X80473640Y-59696999D01*
X80412317Y-59663513D01*
X80400734Y-59650145D01*
X80379376Y-59621615D01*
X80357546Y-59592454D01*
X80357544Y-59592453D01*
X80357544Y-59592452D01*
X80242335Y-59506206D01*
X80242328Y-59506202D01*
X80107482Y-59455908D01*
X80107483Y-59455908D01*
X80047883Y-59449501D01*
X80047881Y-59449500D01*
X80047873Y-59449500D01*
X80047864Y-59449500D01*
X78452129Y-59449500D01*
X78452123Y-59449501D01*
X78392516Y-59455908D01*
X78257671Y-59506202D01*
X78257664Y-59506206D01*
X78142455Y-59592452D01*
X78099266Y-59650145D01*
X78043332Y-59692015D01*
X77973640Y-59696999D01*
X77912317Y-59663513D01*
X77900734Y-59650145D01*
X77879376Y-59621615D01*
X77857546Y-59592454D01*
X77857544Y-59592453D01*
X77857544Y-59592452D01*
X77742335Y-59506206D01*
X77742328Y-59506202D01*
X77607482Y-59455908D01*
X77607483Y-59455908D01*
X77547883Y-59449501D01*
X77547881Y-59449500D01*
X77547873Y-59449500D01*
X77547864Y-59449500D01*
X75952129Y-59449500D01*
X75952123Y-59449501D01*
X75892516Y-59455908D01*
X75757671Y-59506202D01*
X75757664Y-59506206D01*
X75642455Y-59592452D01*
X75599266Y-59650145D01*
X75543332Y-59692015D01*
X75473640Y-59696999D01*
X75412317Y-59663513D01*
X75400734Y-59650145D01*
X75379376Y-59621615D01*
X75357546Y-59592454D01*
X75357544Y-59592453D01*
X75357544Y-59592452D01*
X75242335Y-59506206D01*
X75242328Y-59506202D01*
X75107482Y-59455908D01*
X75107483Y-59455908D01*
X75047883Y-59449501D01*
X75047881Y-59449500D01*
X75047873Y-59449500D01*
X75047864Y-59449500D01*
X73452129Y-59449500D01*
X73452123Y-59449501D01*
X73392516Y-59455908D01*
X73257671Y-59506202D01*
X73257668Y-59506204D01*
X73198311Y-59550639D01*
X73132846Y-59575056D01*
X73064573Y-59560204D01*
X73015168Y-59510799D01*
X73000000Y-59451372D01*
X73000000Y-58424000D01*
X73019685Y-58356961D01*
X73072489Y-58311206D01*
X73124000Y-58300000D01*
X86089427Y-58300000D01*
X86156466Y-58319685D01*
G37*
%TD.AperFunction*%
%TD*%
M02*
