%TF.GenerationSoftware,KiCad,Pcbnew,9.0.7*%
%TF.CreationDate,2026-03-01T18:33:52+01:00*%
%TF.ProjectId,esp32,65737033-322e-46b6-9963-61645f706362,rev?*%
%TF.SameCoordinates,Original*%
%TF.FileFunction,Copper,L2,Bot*%
%TF.FilePolarity,Positive*%
%FSLAX46Y46*%
G04 Gerber Fmt 4.6, Leading zero omitted, Abs format (unit mm)*
G04 Created by KiCad (PCBNEW 9.0.7) date 2026-03-01 18:33:52*
%MOMM*%
%LPD*%
G01*
G04 APERTURE LIST*
%TA.AperFunction,ComponentPad*%
%ADD10R,0.850000X0.850000*%
%TD*%
%TA.AperFunction,ViaPad*%
%ADD11C,0.604799*%
%TD*%
%TA.AperFunction,ViaPad*%
%ADD12C,0.800000*%
%TD*%
%TA.AperFunction,ViaPad*%
%ADD13C,0.604800*%
%TD*%
%TA.AperFunction,Conductor*%
%ADD14C,0.400000*%
%TD*%
G04 APERTURE END LIST*
D10*
%TO.P,J6,1,Pin_1*%
%TO.N,/GPIO0*%
X103500000Y-40500000D03*
%TD*%
%TO.P,J1,1,Pin_1*%
%TO.N,/ESP32_EN*%
X121000000Y-50500000D03*
%TD*%
D11*
%TO.N,GND*%
X103100000Y-38900000D03*
X121800000Y-52200000D03*
X119950000Y-52000000D03*
D12*
X118000000Y-34000000D03*
X113000000Y-37000000D03*
X116000000Y-38500000D03*
X111350000Y-42850000D03*
X119000000Y-35500000D03*
X113500000Y-34500000D03*
X104500000Y-34500000D03*
X115500000Y-34500000D03*
X113000000Y-43000000D03*
D11*
X107500000Y-46000000D03*
D12*
X110000000Y-40000000D03*
X117250000Y-34250000D03*
X110000000Y-38500000D03*
X119000000Y-36500000D03*
X106950000Y-35050000D03*
X105000000Y-35000000D03*
X108000000Y-34500000D03*
X116500000Y-34500000D03*
X118950000Y-34450000D03*
X114500000Y-34500000D03*
X116000000Y-41500000D03*
X111000000Y-34500000D03*
X112500000Y-34500000D03*
D13*
X118500000Y-46000000D03*
D12*
X111500000Y-37000000D03*
X116000000Y-40000000D03*
X116000000Y-34500000D03*
X111500000Y-34500000D03*
X109000000Y-34500000D03*
X114500000Y-37000000D03*
X114500000Y-43000000D03*
X110000000Y-34000000D03*
X104500000Y-33500000D03*
D11*
X102500000Y-52500000D03*
D12*
X110200000Y-41800000D03*
D13*
%TO.N,+3V3*%
X119388800Y-53389700D03*
X105212900Y-52972400D03*
%TD*%
D14*
%TO.N,+3V3*%
X105212900Y-52972400D02*
X118971500Y-52972400D01*
X118971500Y-52972400D02*
X119388800Y-53389700D01*
%TD*%
%TA.AperFunction,Conductor*%
%TO.N,GND*%
G36*
X122443039Y-33019685D02*
G01*
X122488794Y-33072489D01*
X122500000Y-33124000D01*
X122500000Y-61376000D01*
X122480315Y-61443039D01*
X122427511Y-61488794D01*
X122376000Y-61500000D01*
X101124000Y-61500000D01*
X101056961Y-61480315D01*
X101011206Y-61427511D01*
X101000000Y-61376000D01*
X101000000Y-52893316D01*
X104410000Y-52893316D01*
X104410000Y-53051483D01*
X104440852Y-53206589D01*
X104440855Y-53206598D01*
X104501375Y-53352709D01*
X104501382Y-53352722D01*
X104589246Y-53484218D01*
X104589249Y-53484222D01*
X104701077Y-53596050D01*
X104701081Y-53596053D01*
X104832577Y-53683917D01*
X104832590Y-53683924D01*
X104942173Y-53729314D01*
X104978703Y-53744445D01*
X104978705Y-53744445D01*
X104978710Y-53744447D01*
X105133816Y-53775299D01*
X105133819Y-53775300D01*
X105133821Y-53775300D01*
X105291981Y-53775300D01*
X105291982Y-53775299D01*
X105343685Y-53765015D01*
X105447089Y-53744447D01*
X105447092Y-53744445D01*
X105447097Y-53744445D01*
X105515531Y-53716098D01*
X105597037Y-53682339D01*
X105644489Y-53672900D01*
X118554199Y-53672900D01*
X118621238Y-53692585D01*
X118666993Y-53745389D01*
X118668749Y-53749423D01*
X118674686Y-53763756D01*
X118677280Y-53770019D01*
X118765146Y-53901518D01*
X118765149Y-53901522D01*
X118876977Y-54013350D01*
X118876981Y-54013353D01*
X119008477Y-54101217D01*
X119008490Y-54101224D01*
X119118073Y-54146614D01*
X119154603Y-54161745D01*
X119154605Y-54161745D01*
X119154610Y-54161747D01*
X119309716Y-54192599D01*
X119309719Y-54192600D01*
X119309721Y-54192600D01*
X119467881Y-54192600D01*
X119467882Y-54192599D01*
X119519585Y-54182315D01*
X119622989Y-54161747D01*
X119622992Y-54161745D01*
X119622997Y-54161745D01*
X119769116Y-54101221D01*
X119900619Y-54013353D01*
X120012453Y-53901519D01*
X120100321Y-53770016D01*
X120160845Y-53623897D01*
X120191700Y-53468779D01*
X120191700Y-53310621D01*
X120191700Y-53310618D01*
X120191699Y-53310616D01*
X120160847Y-53155510D01*
X120160844Y-53155501D01*
X120100324Y-53009390D01*
X120100317Y-53009377D01*
X120012453Y-52877881D01*
X120012450Y-52877877D01*
X119900622Y-52766049D01*
X119900618Y-52766046D01*
X119769122Y-52678182D01*
X119769109Y-52678175D01*
X119619178Y-52616073D01*
X119578951Y-52589195D01*
X119418043Y-52428286D01*
X119303311Y-52351625D01*
X119303312Y-52351625D01*
X119303307Y-52351622D01*
X119175832Y-52298821D01*
X119175822Y-52298818D01*
X119040496Y-52271900D01*
X119040494Y-52271900D01*
X119040493Y-52271900D01*
X105644489Y-52271900D01*
X105597037Y-52262461D01*
X105447098Y-52200355D01*
X105447089Y-52200352D01*
X105291982Y-52169500D01*
X105291979Y-52169500D01*
X105133821Y-52169500D01*
X105133818Y-52169500D01*
X104978710Y-52200352D01*
X104978701Y-52200355D01*
X104832590Y-52260875D01*
X104832577Y-52260882D01*
X104701081Y-52348746D01*
X104701077Y-52348749D01*
X104589249Y-52460577D01*
X104589246Y-52460581D01*
X104501382Y-52592077D01*
X104501375Y-52592090D01*
X104440855Y-52738201D01*
X104440852Y-52738210D01*
X104410000Y-52893316D01*
X101000000Y-52893316D01*
X101000000Y-50027135D01*
X120074500Y-50027135D01*
X120074500Y-50972870D01*
X120074501Y-50972876D01*
X120080908Y-51032483D01*
X120131202Y-51167328D01*
X120131206Y-51167335D01*
X120217452Y-51282544D01*
X120217455Y-51282547D01*
X120332664Y-51368793D01*
X120332671Y-51368797D01*
X120467517Y-51419091D01*
X120467516Y-51419091D01*
X120474444Y-51419835D01*
X120527127Y-51425500D01*
X121472872Y-51425499D01*
X121532483Y-51419091D01*
X121667331Y-51368796D01*
X121782546Y-51282546D01*
X121868796Y-51167331D01*
X121919091Y-51032483D01*
X121925500Y-50972873D01*
X121925499Y-50027128D01*
X121919091Y-49967517D01*
X121868796Y-49832669D01*
X121868795Y-49832668D01*
X121868793Y-49832664D01*
X121782547Y-49717455D01*
X121782544Y-49717452D01*
X121667335Y-49631206D01*
X121667328Y-49631202D01*
X121532482Y-49580908D01*
X121532483Y-49580908D01*
X121472883Y-49574501D01*
X121472881Y-49574500D01*
X121472873Y-49574500D01*
X121472864Y-49574500D01*
X120527129Y-49574500D01*
X120527123Y-49574501D01*
X120467516Y-49580908D01*
X120332671Y-49631202D01*
X120332664Y-49631206D01*
X120217455Y-49717452D01*
X120217452Y-49717455D01*
X120131206Y-49832664D01*
X120131202Y-49832671D01*
X120080908Y-49967517D01*
X120074501Y-50027116D01*
X120074501Y-50027123D01*
X120074500Y-50027135D01*
X101000000Y-50027135D01*
X101000000Y-40027135D01*
X102574500Y-40027135D01*
X102574500Y-40972870D01*
X102574501Y-40972876D01*
X102580908Y-41032483D01*
X102631202Y-41167328D01*
X102631206Y-41167335D01*
X102717452Y-41282544D01*
X102717455Y-41282547D01*
X102832664Y-41368793D01*
X102832671Y-41368797D01*
X102967517Y-41419091D01*
X102967516Y-41419091D01*
X102974444Y-41419835D01*
X103027127Y-41425500D01*
X103972872Y-41425499D01*
X104032483Y-41419091D01*
X104167331Y-41368796D01*
X104282546Y-41282546D01*
X104368796Y-41167331D01*
X104419091Y-41032483D01*
X104425500Y-40972873D01*
X104425499Y-40027128D01*
X104419091Y-39967517D01*
X104368796Y-39832669D01*
X104368795Y-39832668D01*
X104368793Y-39832664D01*
X104282547Y-39717455D01*
X104282544Y-39717452D01*
X104167335Y-39631206D01*
X104167328Y-39631202D01*
X104032482Y-39580908D01*
X104032483Y-39580908D01*
X103972883Y-39574501D01*
X103972881Y-39574500D01*
X103972873Y-39574500D01*
X103972864Y-39574500D01*
X103027129Y-39574500D01*
X103027123Y-39574501D01*
X102967516Y-39580908D01*
X102832671Y-39631202D01*
X102832664Y-39631206D01*
X102717455Y-39717452D01*
X102717452Y-39717455D01*
X102631206Y-39832664D01*
X102631202Y-39832671D01*
X102580908Y-39967517D01*
X102574501Y-40027116D01*
X102574501Y-40027123D01*
X102574500Y-40027135D01*
X101000000Y-40027135D01*
X101000000Y-33124000D01*
X101019685Y-33056961D01*
X101072489Y-33011206D01*
X101124000Y-33000000D01*
X122376000Y-33000000D01*
X122443039Y-33019685D01*
G37*
%TD.AperFunction*%
%TD*%
M02*
