%TF.GenerationSoftware,KiCad,Pcbnew,10.0.1*%
%TF.CreationDate,2026-05-11T18:27:12+02:00*%
%TF.ProjectId,esp32,65737033-322e-46b6-9963-61645f706362,rev?*%
%TF.SameCoordinates,Original*%
%TF.FileFunction,Legend,Top*%
%TF.FilePolarity,Positive*%
%FSLAX46Y46*%
G04 Gerber Fmt 4.6, Leading zero omitted, Abs format (unit mm)*
G04 Created by KiCad (PCBNEW 10.0.1) date 2026-05-11 18:27:12*
%MOMM*%
%LPD*%
G01*
G04 APERTURE LIST*
G04 Aperture macros list*
%AMRoundRect*
0 Rectangle with rounded corners*
0 $1 Rounding radius*
0 $2 $3 $4 $5 $6 $7 $8 $9 X,Y pos of 4 corners*
0 Add a 4 corners polygon primitive as box body*
4,1,4,$2,$3,$4,$5,$6,$7,$8,$9,$2,$3,0*
0 Add four circle primitives for the rounded corners*
1,1,$1+$1,$2,$3*
1,1,$1+$1,$4,$5*
1,1,$1+$1,$6,$7*
1,1,$1+$1,$8,$9*
0 Add four rect primitives between the rounded corners*
20,1,$1+$1,$2,$3,$4,$5,0*
20,1,$1+$1,$4,$5,$6,$7,0*
20,1,$1+$1,$6,$7,$8,$9,0*
20,1,$1+$1,$8,$9,$2,$3,0*%
G04 Aperture macros list end*
%ADD10C,0.254000*%
%ADD11C,0.150000*%
%ADD12C,0.200000*%
%ADD13C,0.000000*%
%ADD14C,0.127000*%
%ADD15C,0.120000*%
%ADD16C,0.010000*%
%ADD17R,0.600000X1.550000*%
%ADD18R,1.200000X1.800000*%
%ADD19C,1.100000*%
%ADD20RoundRect,0.100000X-0.100000X0.130000X-0.100000X-0.130000X0.100000X-0.130000X0.100000X0.130000X0*%
%ADD21RoundRect,0.102000X-0.400000X-0.200000X0.400000X-0.200000X0.400000X0.200000X-0.400000X0.200000X0*%
%ADD22RoundRect,0.102000X-0.200000X-0.400000X0.200000X-0.400000X0.200000X0.400000X-0.200000X0.400000X0*%
%ADD23RoundRect,0.102000X-0.600000X-0.600000X0.600000X-0.600000X0.600000X0.600000X-0.600000X0.600000X0*%
%ADD24RoundRect,0.102000X-0.400000X-0.400000X0.400000X-0.400000X0.400000X0.400000X-0.400000X0.400000X0*%
%ADD25RoundRect,0.100000X0.100000X-0.130000X0.100000X0.130000X-0.100000X0.130000X-0.100000X-0.130000X0*%
%ADD26RoundRect,0.100000X0.100000X-0.125000X0.100000X0.125000X-0.100000X0.125000X-0.100000X-0.125000X0*%
%ADD27RoundRect,0.150000X0.150000X0.625000X-0.150000X0.625000X-0.150000X-0.625000X0.150000X-0.625000X0*%
%ADD28RoundRect,0.250000X0.350000X0.650000X-0.350000X0.650000X-0.350000X-0.650000X0.350000X-0.650000X0*%
%ADD29RoundRect,0.100000X-0.100000X0.125000X-0.100000X-0.125000X0.100000X-0.125000X0.100000X0.125000X0*%
%ADD30RoundRect,0.100000X-0.130000X-0.100000X0.130000X-0.100000X0.130000X0.100000X-0.130000X0.100000X0*%
G04 APERTURE END LIST*
D10*
X114915667Y-61480318D02*
X114915667Y-62387461D01*
X114915667Y-62387461D02*
X114855190Y-62568889D01*
X114855190Y-62568889D02*
X114734238Y-62689842D01*
X114734238Y-62689842D02*
X114552809Y-62750318D01*
X114552809Y-62750318D02*
X114431857Y-62750318D01*
X115399476Y-61480318D02*
X116185667Y-61480318D01*
X116185667Y-61480318D02*
X115762333Y-61964127D01*
X115762333Y-61964127D02*
X115943762Y-61964127D01*
X115943762Y-61964127D02*
X116064714Y-62024603D01*
X116064714Y-62024603D02*
X116125190Y-62085080D01*
X116125190Y-62085080D02*
X116185667Y-62206032D01*
X116185667Y-62206032D02*
X116185667Y-62508413D01*
X116185667Y-62508413D02*
X116125190Y-62629365D01*
X116125190Y-62629365D02*
X116064714Y-62689842D01*
X116064714Y-62689842D02*
X115943762Y-62750318D01*
X115943762Y-62750318D02*
X115580905Y-62750318D01*
X115580905Y-62750318D02*
X115459952Y-62689842D01*
X115459952Y-62689842D02*
X115399476Y-62629365D01*
X107326667Y-51904318D02*
X107326667Y-52811461D01*
X107326667Y-52811461D02*
X107266190Y-52992889D01*
X107266190Y-52992889D02*
X107145238Y-53113842D01*
X107145238Y-53113842D02*
X106963809Y-53174318D01*
X106963809Y-53174318D02*
X106842857Y-53174318D01*
X107870952Y-52025270D02*
X107931428Y-51964794D01*
X107931428Y-51964794D02*
X108052381Y-51904318D01*
X108052381Y-51904318D02*
X108354762Y-51904318D01*
X108354762Y-51904318D02*
X108475714Y-51964794D01*
X108475714Y-51964794D02*
X108536190Y-52025270D01*
X108536190Y-52025270D02*
X108596667Y-52146222D01*
X108596667Y-52146222D02*
X108596667Y-52267175D01*
X108596667Y-52267175D02*
X108536190Y-52448603D01*
X108536190Y-52448603D02*
X107810476Y-53174318D01*
X107810476Y-53174318D02*
X108596667Y-53174318D01*
D11*
X118004819Y-51011666D02*
X117528628Y-51344999D01*
X118004819Y-51583094D02*
X117004819Y-51583094D01*
X117004819Y-51583094D02*
X117004819Y-51202142D01*
X117004819Y-51202142D02*
X117052438Y-51106904D01*
X117052438Y-51106904D02*
X117100057Y-51059285D01*
X117100057Y-51059285D02*
X117195295Y-51011666D01*
X117195295Y-51011666D02*
X117338152Y-51011666D01*
X117338152Y-51011666D02*
X117433390Y-51059285D01*
X117433390Y-51059285D02*
X117481009Y-51106904D01*
X117481009Y-51106904D02*
X117528628Y-51202142D01*
X117528628Y-51202142D02*
X117528628Y-51583094D01*
X117100057Y-50630713D02*
X117052438Y-50583094D01*
X117052438Y-50583094D02*
X117004819Y-50487856D01*
X117004819Y-50487856D02*
X117004819Y-50249761D01*
X117004819Y-50249761D02*
X117052438Y-50154523D01*
X117052438Y-50154523D02*
X117100057Y-50106904D01*
X117100057Y-50106904D02*
X117195295Y-50059285D01*
X117195295Y-50059285D02*
X117290533Y-50059285D01*
X117290533Y-50059285D02*
X117433390Y-50106904D01*
X117433390Y-50106904D02*
X118004819Y-50678332D01*
X118004819Y-50678332D02*
X118004819Y-50059285D01*
X107463095Y-25469819D02*
X107463095Y-26279342D01*
X107463095Y-26279342D02*
X107510714Y-26374580D01*
X107510714Y-26374580D02*
X107558333Y-26422200D01*
X107558333Y-26422200D02*
X107653571Y-26469819D01*
X107653571Y-26469819D02*
X107844047Y-26469819D01*
X107844047Y-26469819D02*
X107939285Y-26422200D01*
X107939285Y-26422200D02*
X107986904Y-26374580D01*
X107986904Y-26374580D02*
X108034523Y-26279342D01*
X108034523Y-26279342D02*
X108034523Y-25469819D01*
X108463095Y-25565057D02*
X108510714Y-25517438D01*
X108510714Y-25517438D02*
X108605952Y-25469819D01*
X108605952Y-25469819D02*
X108844047Y-25469819D01*
X108844047Y-25469819D02*
X108939285Y-25517438D01*
X108939285Y-25517438D02*
X108986904Y-25565057D01*
X108986904Y-25565057D02*
X109034523Y-25660295D01*
X109034523Y-25660295D02*
X109034523Y-25755533D01*
X109034523Y-25755533D02*
X108986904Y-25898390D01*
X108986904Y-25898390D02*
X108415476Y-26469819D01*
X108415476Y-26469819D02*
X109034523Y-26469819D01*
X116809580Y-50487857D02*
X116857200Y-50535476D01*
X116857200Y-50535476D02*
X116904819Y-50678333D01*
X116904819Y-50678333D02*
X116904819Y-50773571D01*
X116904819Y-50773571D02*
X116857200Y-50916428D01*
X116857200Y-50916428D02*
X116761961Y-51011666D01*
X116761961Y-51011666D02*
X116666723Y-51059285D01*
X116666723Y-51059285D02*
X116476247Y-51106904D01*
X116476247Y-51106904D02*
X116333390Y-51106904D01*
X116333390Y-51106904D02*
X116142914Y-51059285D01*
X116142914Y-51059285D02*
X116047676Y-51011666D01*
X116047676Y-51011666D02*
X115952438Y-50916428D01*
X115952438Y-50916428D02*
X115904819Y-50773571D01*
X115904819Y-50773571D02*
X115904819Y-50678333D01*
X115904819Y-50678333D02*
X115952438Y-50535476D01*
X115952438Y-50535476D02*
X116000057Y-50487857D01*
X116904819Y-49535476D02*
X116904819Y-50106904D01*
X116904819Y-49821190D02*
X115904819Y-49821190D01*
X115904819Y-49821190D02*
X116047676Y-49916428D01*
X116047676Y-49916428D02*
X116142914Y-50011666D01*
X116142914Y-50011666D02*
X116190533Y-50106904D01*
X116333390Y-48964047D02*
X116285771Y-49059285D01*
X116285771Y-49059285D02*
X116238152Y-49106904D01*
X116238152Y-49106904D02*
X116142914Y-49154523D01*
X116142914Y-49154523D02*
X116095295Y-49154523D01*
X116095295Y-49154523D02*
X116000057Y-49106904D01*
X116000057Y-49106904D02*
X115952438Y-49059285D01*
X115952438Y-49059285D02*
X115904819Y-48964047D01*
X115904819Y-48964047D02*
X115904819Y-48773571D01*
X115904819Y-48773571D02*
X115952438Y-48678333D01*
X115952438Y-48678333D02*
X116000057Y-48630714D01*
X116000057Y-48630714D02*
X116095295Y-48583095D01*
X116095295Y-48583095D02*
X116142914Y-48583095D01*
X116142914Y-48583095D02*
X116238152Y-48630714D01*
X116238152Y-48630714D02*
X116285771Y-48678333D01*
X116285771Y-48678333D02*
X116333390Y-48773571D01*
X116333390Y-48773571D02*
X116333390Y-48964047D01*
X116333390Y-48964047D02*
X116381009Y-49059285D01*
X116381009Y-49059285D02*
X116428628Y-49106904D01*
X116428628Y-49106904D02*
X116523866Y-49154523D01*
X116523866Y-49154523D02*
X116714342Y-49154523D01*
X116714342Y-49154523D02*
X116809580Y-49106904D01*
X116809580Y-49106904D02*
X116857200Y-49059285D01*
X116857200Y-49059285D02*
X116904819Y-48964047D01*
X116904819Y-48964047D02*
X116904819Y-48773571D01*
X116904819Y-48773571D02*
X116857200Y-48678333D01*
X116857200Y-48678333D02*
X116809580Y-48630714D01*
X116809580Y-48630714D02*
X116714342Y-48583095D01*
X116714342Y-48583095D02*
X116523866Y-48583095D01*
X116523866Y-48583095D02*
X116428628Y-48630714D01*
X116428628Y-48630714D02*
X116381009Y-48678333D01*
X116381009Y-48678333D02*
X116333390Y-48773571D01*
X112854819Y-51213094D02*
X111854819Y-51213094D01*
X111854819Y-51213094D02*
X111854819Y-50974999D01*
X111854819Y-50974999D02*
X111902438Y-50832142D01*
X111902438Y-50832142D02*
X111997676Y-50736904D01*
X111997676Y-50736904D02*
X112092914Y-50689285D01*
X112092914Y-50689285D02*
X112283390Y-50641666D01*
X112283390Y-50641666D02*
X112426247Y-50641666D01*
X112426247Y-50641666D02*
X112616723Y-50689285D01*
X112616723Y-50689285D02*
X112711961Y-50736904D01*
X112711961Y-50736904D02*
X112807200Y-50832142D01*
X112807200Y-50832142D02*
X112854819Y-50974999D01*
X112854819Y-50974999D02*
X112854819Y-51213094D01*
X112188152Y-49784523D02*
X112854819Y-49784523D01*
X111807200Y-50022618D02*
X112521485Y-50260713D01*
X112521485Y-50260713D02*
X112521485Y-49641666D01*
X115166666Y-57079818D02*
X115166666Y-57794103D01*
X115166666Y-57794103D02*
X115119047Y-57936960D01*
X115119047Y-57936960D02*
X115023809Y-58032199D01*
X115023809Y-58032199D02*
X114880952Y-58079818D01*
X114880952Y-58079818D02*
X114785714Y-58079818D01*
X116166666Y-58079818D02*
X115595238Y-58079818D01*
X115880952Y-58079818D02*
X115880952Y-57079818D01*
X115880952Y-57079818D02*
X115785714Y-57222675D01*
X115785714Y-57222675D02*
X115690476Y-57317913D01*
X115690476Y-57317913D02*
X115595238Y-57365532D01*
X121454819Y-53413094D02*
X120454819Y-53413094D01*
X120454819Y-53413094D02*
X120454819Y-53174999D01*
X120454819Y-53174999D02*
X120502438Y-53032142D01*
X120502438Y-53032142D02*
X120597676Y-52936904D01*
X120597676Y-52936904D02*
X120692914Y-52889285D01*
X120692914Y-52889285D02*
X120883390Y-52841666D01*
X120883390Y-52841666D02*
X121026247Y-52841666D01*
X121026247Y-52841666D02*
X121216723Y-52889285D01*
X121216723Y-52889285D02*
X121311961Y-52936904D01*
X121311961Y-52936904D02*
X121407200Y-53032142D01*
X121407200Y-53032142D02*
X121454819Y-53174999D01*
X121454819Y-53174999D02*
X121454819Y-53413094D01*
X120550057Y-52460713D02*
X120502438Y-52413094D01*
X120502438Y-52413094D02*
X120454819Y-52317856D01*
X120454819Y-52317856D02*
X120454819Y-52079761D01*
X120454819Y-52079761D02*
X120502438Y-51984523D01*
X120502438Y-51984523D02*
X120550057Y-51936904D01*
X120550057Y-51936904D02*
X120645295Y-51889285D01*
X120645295Y-51889285D02*
X120740533Y-51889285D01*
X120740533Y-51889285D02*
X120883390Y-51936904D01*
X120883390Y-51936904D02*
X121454819Y-52508332D01*
X121454819Y-52508332D02*
X121454819Y-51889285D01*
X119153333Y-50309580D02*
X119105714Y-50357200D01*
X119105714Y-50357200D02*
X118962857Y-50404819D01*
X118962857Y-50404819D02*
X118867619Y-50404819D01*
X118867619Y-50404819D02*
X118724762Y-50357200D01*
X118724762Y-50357200D02*
X118629524Y-50261961D01*
X118629524Y-50261961D02*
X118581905Y-50166723D01*
X118581905Y-50166723D02*
X118534286Y-49976247D01*
X118534286Y-49976247D02*
X118534286Y-49833390D01*
X118534286Y-49833390D02*
X118581905Y-49642914D01*
X118581905Y-49642914D02*
X118629524Y-49547676D01*
X118629524Y-49547676D02*
X118724762Y-49452438D01*
X118724762Y-49452438D02*
X118867619Y-49404819D01*
X118867619Y-49404819D02*
X118962857Y-49404819D01*
X118962857Y-49404819D02*
X119105714Y-49452438D01*
X119105714Y-49452438D02*
X119153333Y-49500057D01*
X120010476Y-49738152D02*
X120010476Y-50404819D01*
X119772381Y-49357200D02*
X119534286Y-50071485D01*
X119534286Y-50071485D02*
X120153333Y-50071485D01*
%TO.C,J3*%
D10*
X109500000Y-59342000D02*
X109500000Y-61765000D01*
X109500000Y-59342000D02*
X110482000Y-59342000D01*
X115500000Y-63592000D02*
X110524000Y-63592000D01*
X115500000Y-63592000D02*
X120493000Y-63592000D01*
X121500000Y-59342000D02*
X120522000Y-59342000D01*
X121500000Y-59342000D02*
X121500000Y-61765000D01*
X109994910Y-58013000D02*
G75*
G02*
X109835090Y-58013000I-79910J0D01*
G01*
X109835090Y-58013000D02*
G75*
G02*
X109994910Y-58013000I79910J0D01*
G01*
%TO.C,J2*%
D12*
D13*
X104900000Y-50900000D02*
X104899999Y-50900000D01*
X104899999Y-50900000D01*
X104899999Y-50900000D01*
X104899999Y-50900000D01*
X104899999Y-50900000D01*
X104899999Y-50900000D01*
X104899999Y-50900000D01*
X104899999Y-50899999D01*
X104899999Y-50899999D01*
X104899999Y-50899999D01*
X104899999Y-50899999D01*
X104899999Y-50899999D01*
X104900000Y-50899999D01*
X104900000Y-50899999D01*
X104900000Y-50899999D01*
X104900000Y-50899999D01*
X104900000Y-50899999D01*
X104900000Y-50899999D01*
X104900000Y-50899999D01*
X104900000Y-50899999D01*
X104900000Y-50899999D01*
X104900000Y-50899999D01*
X104900000Y-50899999D01*
X104900000Y-50899999D01*
X104900001Y-50899999D01*
X104900001Y-50899999D01*
X104900001Y-50899999D01*
X104900001Y-50899999D01*
X104900001Y-50899999D01*
X104900001Y-50899999D01*
X104900001Y-50900000D01*
X104900001Y-50900000D01*
X104900001Y-50900000D01*
X104900001Y-50900000D01*
X104900001Y-50900000D01*
X104900001Y-50900000D01*
X104900001Y-50900000D01*
X104900000Y-50900000D01*
X104900000Y-50900000D02*
X104900001Y-50900000D01*
X104900001Y-50900000D01*
X104900001Y-50900000D01*
X104900001Y-50900000D01*
X104900001Y-50900000D01*
X104900001Y-50900000D01*
X104900001Y-50900001D01*
X104900001Y-50900001D01*
X104900001Y-50900001D01*
X104900001Y-50900001D01*
X104900001Y-50900001D01*
X104900001Y-50900001D01*
X104900001Y-50900001D01*
X104900000Y-50900001D01*
X104900000Y-50900001D01*
X104900000Y-50900001D01*
X104900000Y-50900001D01*
X104900000Y-50900001D01*
X104900000Y-50900001D01*
X104900000Y-50900001D01*
X104900000Y-50900001D01*
X104900000Y-50900001D01*
X104900000Y-50900001D01*
X104900000Y-50900001D01*
X104900000Y-50900001D01*
X104899999Y-50900001D01*
X104899999Y-50900001D01*
X104899999Y-50900001D01*
X104899999Y-50900001D01*
X104899999Y-50900001D01*
X104899999Y-50900001D01*
X104899999Y-50900000D01*
X104899999Y-50900000D01*
X104899999Y-50900000D01*
X104899999Y-50900000D01*
X104899999Y-50900000D01*
X104899999Y-50900000D01*
X104900000Y-50900000D01*
D12*
D13*
X104900000Y-51100000D02*
X104899999Y-51100000D01*
X104899999Y-51100000D01*
X104899999Y-51100000D01*
X104899999Y-51100000D01*
X104899999Y-51100000D01*
X104899999Y-51100000D01*
X104899999Y-51100000D01*
X104899999Y-51099999D01*
X104899999Y-51099999D01*
X104899999Y-51099999D01*
X104899999Y-51099999D01*
X104899999Y-51099999D01*
X104900000Y-51099999D01*
X104900000Y-51099999D01*
X104900000Y-51099999D01*
X104900000Y-51099999D01*
X104900000Y-51099999D01*
X104900000Y-51099999D01*
X104900000Y-51099999D01*
X104900000Y-51099999D01*
X104900000Y-51099999D01*
X104900000Y-51099999D01*
X104900000Y-51099999D01*
X104900000Y-51099999D01*
X104900001Y-51099999D01*
X104900001Y-51099999D01*
X104900001Y-51099999D01*
X104900001Y-51099999D01*
X104900001Y-51099999D01*
X104900001Y-51099999D01*
X104900001Y-51100000D01*
X104900001Y-51100000D01*
X104900001Y-51100000D01*
X104900001Y-51100000D01*
X104900001Y-51100000D01*
X104900001Y-51100000D01*
X104900001Y-51100000D01*
X104900000Y-51100000D01*
X104900000Y-51100000D02*
X104900001Y-51100000D01*
X104900001Y-51100000D01*
X104900001Y-51100000D01*
X104900001Y-51100000D01*
X104900001Y-51100000D01*
X104900001Y-51100000D01*
X104900001Y-51100001D01*
X104900001Y-51100001D01*
X104900001Y-51100001D01*
X104900001Y-51100001D01*
X104900001Y-51100001D01*
X104900001Y-51100001D01*
X104900001Y-51100001D01*
X104900000Y-51100001D01*
X104900000Y-51100001D01*
X104900000Y-51100001D01*
X104900000Y-51100001D01*
X104900000Y-51100001D01*
X104900000Y-51100001D01*
X104900000Y-51100001D01*
X104900000Y-51100001D01*
X104900000Y-51100001D01*
X104900000Y-51100001D01*
X104900000Y-51100001D01*
X104900000Y-51100001D01*
X104899999Y-51100001D01*
X104899999Y-51100001D01*
X104899999Y-51100001D01*
X104899999Y-51100001D01*
X104899999Y-51100001D01*
X104899999Y-51100001D01*
X104899999Y-51100000D01*
X104899999Y-51100000D01*
X104899999Y-51100000D01*
X104899999Y-51100000D01*
X104899999Y-51100000D01*
X104899999Y-51100000D01*
X104900000Y-51100000D01*
D12*
X105500000Y-49600000D02*
X110000000Y-49600000D01*
X105500000Y-55600000D02*
X105500000Y-49600000D01*
X110000000Y-49600000D02*
X110000000Y-55600000D01*
X110000000Y-55600000D02*
X105500000Y-55600000D01*
X104900000Y-50900000D02*
G75*
G02*
X104900000Y-51100000I0J-100000D01*
G01*
X104900000Y-51100000D02*
G75*
G02*
X104900000Y-50900000I0J100000D01*
G01*
%TO.C,U2*%
D14*
X105300000Y-27375000D02*
X120700000Y-27375000D01*
X105300000Y-32425000D02*
X105300000Y-27375000D01*
X120700000Y-27375000D02*
X120700000Y-32425000D01*
X120700000Y-47875000D02*
X105300000Y-47875000D01*
D12*
X104650000Y-34200000D02*
G75*
G02*
X104450000Y-34200000I-100000J0D01*
G01*
X104450000Y-34200000D02*
G75*
G02*
X104650000Y-34200000I100000J0D01*
G01*
%TO.C,D4*%
D15*
X113140000Y-50075000D02*
X113140000Y-51275000D01*
X114860000Y-50275000D02*
X114860000Y-50875000D01*
D11*
X113675000Y-51725000D02*
G75*
G02*
X113525000Y-51725000I-75000J0D01*
G01*
X113525000Y-51725000D02*
G75*
G02*
X113675000Y-51725000I75000J0D01*
G01*
%TO.C,J1*%
D15*
X113390000Y-53215000D02*
X114440000Y-53215000D01*
X113390000Y-54365000D02*
X113390000Y-53215000D01*
X116440000Y-56335000D02*
X114560000Y-56335000D01*
X116560000Y-53215000D02*
X116560000Y-52225000D01*
X117610000Y-53215000D02*
X116560000Y-53215000D01*
X117610000Y-54365000D02*
X117610000Y-53215000D01*
%TO.C,D2*%
X118540000Y-52875000D02*
X118540000Y-52275000D01*
X120260000Y-53075000D02*
X120260000Y-51875000D01*
D11*
X119875000Y-51425000D02*
G75*
G02*
X119725000Y-51425000I-75000J0D01*
G01*
X119725000Y-51425000D02*
G75*
G02*
X119875000Y-51425000I75000J0D01*
G01*
%TD*%
%LPC*%
D16*
%TO.C,U2*%
X112050000Y-39200000D02*
X110650000Y-39200000D01*
X110650000Y-38450000D01*
X111300000Y-37800000D01*
X112050000Y-37800000D01*
X112050000Y-39200000D01*
G36*
X112050000Y-39200000D02*
G01*
X110650000Y-39200000D01*
X110650000Y-38450000D01*
X111300000Y-37800000D01*
X112050000Y-37800000D01*
X112050000Y-39200000D01*
G37*
%TD*%
D17*
%TO.C,J3*%
X111000000Y-59000000D03*
X112000000Y-59000000D03*
X113000000Y-59000000D03*
X114000000Y-59000000D03*
X115000000Y-59000000D03*
X116000000Y-59000000D03*
X117000000Y-59000000D03*
X118000000Y-59000000D03*
X119000000Y-59000000D03*
X120000000Y-59000000D03*
D18*
X109700000Y-62875000D03*
X121300000Y-62875000D03*
%TD*%
D19*
%TO.C,J2*%
X107000000Y-51000000D03*
X108500000Y-51000000D03*
%TD*%
D20*
%TO.C,R2*%
X116500000Y-50525000D03*
X116500000Y-51165000D03*
%TD*%
D21*
%TO.C,U2*%
X106000000Y-34200000D03*
X106000000Y-35050000D03*
X106000000Y-35900000D03*
X106000000Y-36750000D03*
X106000000Y-37600000D03*
X106000000Y-38450000D03*
X106000000Y-39300000D03*
X106000000Y-40150000D03*
X106000000Y-41000000D03*
X106000000Y-41850000D03*
X106000000Y-42700000D03*
X106000000Y-43550000D03*
X106000000Y-44400000D03*
X106000000Y-45250000D03*
X106000000Y-46100000D03*
D22*
X107050000Y-47150000D03*
X107900000Y-47150000D03*
X108750000Y-47150000D03*
X109600000Y-47150000D03*
X110450000Y-47150000D03*
X111300000Y-47150000D03*
X112150000Y-47150000D03*
X113000000Y-47150000D03*
X113850000Y-47150000D03*
X114700000Y-47150000D03*
X115550000Y-47150000D03*
X116400000Y-47150000D03*
X117250000Y-47150000D03*
X118100000Y-47150000D03*
X118950000Y-47150000D03*
D21*
X120000000Y-46100000D03*
X120000000Y-45250000D03*
X120000000Y-44400000D03*
X120000000Y-43550000D03*
X120000000Y-42700000D03*
X120000000Y-41850000D03*
X120000000Y-41000000D03*
X120000000Y-40150000D03*
X120000000Y-39300000D03*
X120000000Y-38450000D03*
X120000000Y-37600000D03*
X120000000Y-36750000D03*
X120000000Y-35900000D03*
X120000000Y-35050000D03*
X120000000Y-34200000D03*
D22*
X118950000Y-33150000D03*
X118100000Y-33150000D03*
X117250000Y-33150000D03*
X116400000Y-33150000D03*
X115550000Y-33150000D03*
X114700000Y-33150000D03*
X113850000Y-33150000D03*
X113000000Y-33150000D03*
X112150000Y-33150000D03*
X111300000Y-33150000D03*
X110450000Y-33150000D03*
X109600000Y-33150000D03*
X108750000Y-33150000D03*
X107900000Y-33150000D03*
X107050000Y-33150000D03*
D23*
X113000000Y-40150000D03*
X113000000Y-38500000D03*
X114650000Y-38500000D03*
X114650000Y-40150000D03*
X114650000Y-41800000D03*
X113000000Y-41800000D03*
X111350000Y-41800000D03*
X111350000Y-40150000D03*
D24*
X106000000Y-33150000D03*
X106000000Y-47150000D03*
X120000000Y-47150000D03*
X120000000Y-33150000D03*
%TD*%
D25*
%TO.C,C18*%
X117500000Y-50165000D03*
X117500000Y-49525000D03*
%TD*%
D26*
%TO.C,D4*%
X113600000Y-51150000D03*
X114400000Y-51150000D03*
X114000000Y-50000000D03*
%TD*%
D27*
%TO.C,J1*%
X116000000Y-53000000D03*
X115000000Y-53000000D03*
D28*
X117300000Y-55525000D03*
X113700000Y-55525000D03*
%TD*%
D29*
%TO.C,D2*%
X119800000Y-52000000D03*
X119000000Y-52000000D03*
X119400000Y-53150000D03*
%TD*%
D30*
%TO.C,C4*%
X119000000Y-51000000D03*
X119640000Y-51000000D03*
%TD*%
%LPD*%
M02*
