%TF.GenerationSoftware,KiCad,Pcbnew,9.0.7*%
%TF.CreationDate,2026-03-04T21:51:13+01:00*%
%TF.ProjectId,esp32,65737033-322e-46b6-9963-61645f706362,rev?*%
%TF.SameCoordinates,Original*%
%TF.FileFunction,Legend,Top*%
%TF.FilePolarity,Positive*%
%FSLAX46Y46*%
G04 Gerber Fmt 4.6, Leading zero omitted, Abs format (unit mm)*
G04 Created by KiCad (PCBNEW 9.0.7) date 2026-03-04 21:51:13*
%MOMM*%
%LPD*%
G01*
G04 APERTURE LIST*
G04 Aperture macros list*
%AMRoundRect*
0 Rectangle with rounded corners*
0 $1 Rounding radius*
0 $2 $3 $4 $5 $6 $7 $8 $9 X,Y pos of 4 corners*
0 Add a 4 corners polygon primitive as box body*
4,1,4,$2,$3,$4,$5,$6,$7,$8,$9,$2,$3,0*
0 Add four circle primitives for the rounded corners*
1,1,$1+$1,$2,$3*
1,1,$1+$1,$4,$5*
1,1,$1+$1,$6,$7*
1,1,$1+$1,$8,$9*
0 Add four rect primitives between the rounded corners*
20,1,$1+$1,$2,$3,$4,$5,0*
20,1,$1+$1,$4,$5,$6,$7,0*
20,1,$1+$1,$6,$7,$8,$9,0*
20,1,$1+$1,$8,$9,$2,$3,0*%
G04 Aperture macros list end*
%ADD10C,0.254000*%
%ADD11C,0.150000*%
%ADD12C,0.200000*%
%ADD13C,0.120000*%
%ADD14C,0.127000*%
%ADD15C,0.010000*%
%ADD16R,0.600000X1.550000*%
%ADD17R,1.200000X1.800000*%
%ADD18C,1.100000*%
%ADD19RoundRect,0.135000X0.185000X-0.135000X0.185000X0.135000X-0.185000X0.135000X-0.185000X-0.135000X0*%
%ADD20RoundRect,0.102000X-0.400000X-0.200000X0.400000X-0.200000X0.400000X0.200000X-0.400000X0.200000X0*%
%ADD21RoundRect,0.102000X-0.200000X-0.400000X0.200000X-0.400000X0.200000X0.400000X-0.200000X0.400000X0*%
%ADD22RoundRect,0.102000X-0.600000X-0.600000X0.600000X-0.600000X0.600000X0.600000X-0.600000X0.600000X0*%
%ADD23RoundRect,0.102000X-0.400000X-0.400000X0.400000X-0.400000X0.400000X0.400000X-0.400000X0.400000X0*%
%ADD24RoundRect,0.225000X0.250000X-0.225000X0.250000X0.225000X-0.250000X0.225000X-0.250000X-0.225000X0*%
%ADD25RoundRect,0.100000X0.100000X-0.125000X0.100000X0.125000X-0.100000X0.125000X-0.100000X-0.125000X0*%
%ADD26RoundRect,0.100000X-0.100000X0.125000X-0.100000X-0.125000X0.100000X-0.125000X0.100000X0.125000X0*%
%ADD27R,0.850000X0.850000*%
%ADD28RoundRect,0.225000X-0.250000X0.225000X-0.250000X-0.225000X0.250000X-0.225000X0.250000X0.225000X0*%
G04 APERTURE END LIST*
D10*
X114915667Y-58689773D02*
X114915667Y-59596916D01*
X114915667Y-59596916D02*
X114855190Y-59778344D01*
X114855190Y-59778344D02*
X114734238Y-59899297D01*
X114734238Y-59899297D02*
X114552809Y-59959773D01*
X114552809Y-59959773D02*
X114431857Y-59959773D01*
X115399476Y-58689773D02*
X116185667Y-58689773D01*
X116185667Y-58689773D02*
X115762333Y-59173582D01*
X115762333Y-59173582D02*
X115943762Y-59173582D01*
X115943762Y-59173582D02*
X116064714Y-59234058D01*
X116064714Y-59234058D02*
X116125190Y-59294535D01*
X116125190Y-59294535D02*
X116185667Y-59415487D01*
X116185667Y-59415487D02*
X116185667Y-59717868D01*
X116185667Y-59717868D02*
X116125190Y-59838820D01*
X116125190Y-59838820D02*
X116064714Y-59899297D01*
X116064714Y-59899297D02*
X115943762Y-59959773D01*
X115943762Y-59959773D02*
X115580905Y-59959773D01*
X115580905Y-59959773D02*
X115459952Y-59899297D01*
X115459952Y-59899297D02*
X115399476Y-59838820D01*
X104326667Y-56404318D02*
X104326667Y-57311461D01*
X104326667Y-57311461D02*
X104266190Y-57492889D01*
X104266190Y-57492889D02*
X104145238Y-57613842D01*
X104145238Y-57613842D02*
X103963809Y-57674318D01*
X103963809Y-57674318D02*
X103842857Y-57674318D01*
X104870952Y-56525270D02*
X104931428Y-56464794D01*
X104931428Y-56464794D02*
X105052381Y-56404318D01*
X105052381Y-56404318D02*
X105354762Y-56404318D01*
X105354762Y-56404318D02*
X105475714Y-56464794D01*
X105475714Y-56464794D02*
X105536190Y-56525270D01*
X105536190Y-56525270D02*
X105596667Y-56646222D01*
X105596667Y-56646222D02*
X105596667Y-56767175D01*
X105596667Y-56767175D02*
X105536190Y-56948603D01*
X105536190Y-56948603D02*
X104810476Y-57674318D01*
X104810476Y-57674318D02*
X105596667Y-57674318D01*
D11*
X116784819Y-51176666D02*
X116308628Y-51509999D01*
X116784819Y-51748094D02*
X115784819Y-51748094D01*
X115784819Y-51748094D02*
X115784819Y-51367142D01*
X115784819Y-51367142D02*
X115832438Y-51271904D01*
X115832438Y-51271904D02*
X115880057Y-51224285D01*
X115880057Y-51224285D02*
X115975295Y-51176666D01*
X115975295Y-51176666D02*
X116118152Y-51176666D01*
X116118152Y-51176666D02*
X116213390Y-51224285D01*
X116213390Y-51224285D02*
X116261009Y-51271904D01*
X116261009Y-51271904D02*
X116308628Y-51367142D01*
X116308628Y-51367142D02*
X116308628Y-51748094D01*
X115880057Y-50795713D02*
X115832438Y-50748094D01*
X115832438Y-50748094D02*
X115784819Y-50652856D01*
X115784819Y-50652856D02*
X115784819Y-50414761D01*
X115784819Y-50414761D02*
X115832438Y-50319523D01*
X115832438Y-50319523D02*
X115880057Y-50271904D01*
X115880057Y-50271904D02*
X115975295Y-50224285D01*
X115975295Y-50224285D02*
X116070533Y-50224285D01*
X116070533Y-50224285D02*
X116213390Y-50271904D01*
X116213390Y-50271904D02*
X116784819Y-50843332D01*
X116784819Y-50843332D02*
X116784819Y-50224285D01*
X107463095Y-25469819D02*
X107463095Y-26279342D01*
X107463095Y-26279342D02*
X107510714Y-26374580D01*
X107510714Y-26374580D02*
X107558333Y-26422200D01*
X107558333Y-26422200D02*
X107653571Y-26469819D01*
X107653571Y-26469819D02*
X107844047Y-26469819D01*
X107844047Y-26469819D02*
X107939285Y-26422200D01*
X107939285Y-26422200D02*
X107986904Y-26374580D01*
X107986904Y-26374580D02*
X108034523Y-26279342D01*
X108034523Y-26279342D02*
X108034523Y-25469819D01*
X108463095Y-25565057D02*
X108510714Y-25517438D01*
X108510714Y-25517438D02*
X108605952Y-25469819D01*
X108605952Y-25469819D02*
X108844047Y-25469819D01*
X108844047Y-25469819D02*
X108939285Y-25517438D01*
X108939285Y-25517438D02*
X108986904Y-25565057D01*
X108986904Y-25565057D02*
X109034523Y-25660295D01*
X109034523Y-25660295D02*
X109034523Y-25755533D01*
X109034523Y-25755533D02*
X108986904Y-25898390D01*
X108986904Y-25898390D02*
X108415476Y-26469819D01*
X108415476Y-26469819D02*
X109034523Y-26469819D01*
X101929580Y-35642857D02*
X101977200Y-35690476D01*
X101977200Y-35690476D02*
X102024819Y-35833333D01*
X102024819Y-35833333D02*
X102024819Y-35928571D01*
X102024819Y-35928571D02*
X101977200Y-36071428D01*
X101977200Y-36071428D02*
X101881961Y-36166666D01*
X101881961Y-36166666D02*
X101786723Y-36214285D01*
X101786723Y-36214285D02*
X101596247Y-36261904D01*
X101596247Y-36261904D02*
X101453390Y-36261904D01*
X101453390Y-36261904D02*
X101262914Y-36214285D01*
X101262914Y-36214285D02*
X101167676Y-36166666D01*
X101167676Y-36166666D02*
X101072438Y-36071428D01*
X101072438Y-36071428D02*
X101024819Y-35928571D01*
X101024819Y-35928571D02*
X101024819Y-35833333D01*
X101024819Y-35833333D02*
X101072438Y-35690476D01*
X101072438Y-35690476D02*
X101120057Y-35642857D01*
X102024819Y-34690476D02*
X102024819Y-35261904D01*
X102024819Y-34976190D02*
X101024819Y-34976190D01*
X101024819Y-34976190D02*
X101167676Y-35071428D01*
X101167676Y-35071428D02*
X101262914Y-35166666D01*
X101262914Y-35166666D02*
X101310533Y-35261904D01*
X101453390Y-34119047D02*
X101405771Y-34214285D01*
X101405771Y-34214285D02*
X101358152Y-34261904D01*
X101358152Y-34261904D02*
X101262914Y-34309523D01*
X101262914Y-34309523D02*
X101215295Y-34309523D01*
X101215295Y-34309523D02*
X101120057Y-34261904D01*
X101120057Y-34261904D02*
X101072438Y-34214285D01*
X101072438Y-34214285D02*
X101024819Y-34119047D01*
X101024819Y-34119047D02*
X101024819Y-33928571D01*
X101024819Y-33928571D02*
X101072438Y-33833333D01*
X101072438Y-33833333D02*
X101120057Y-33785714D01*
X101120057Y-33785714D02*
X101215295Y-33738095D01*
X101215295Y-33738095D02*
X101262914Y-33738095D01*
X101262914Y-33738095D02*
X101358152Y-33785714D01*
X101358152Y-33785714D02*
X101405771Y-33833333D01*
X101405771Y-33833333D02*
X101453390Y-33928571D01*
X101453390Y-33928571D02*
X101453390Y-34119047D01*
X101453390Y-34119047D02*
X101501009Y-34214285D01*
X101501009Y-34214285D02*
X101548628Y-34261904D01*
X101548628Y-34261904D02*
X101643866Y-34309523D01*
X101643866Y-34309523D02*
X101834342Y-34309523D01*
X101834342Y-34309523D02*
X101929580Y-34261904D01*
X101929580Y-34261904D02*
X101977200Y-34214285D01*
X101977200Y-34214285D02*
X102024819Y-34119047D01*
X102024819Y-34119047D02*
X102024819Y-33928571D01*
X102024819Y-33928571D02*
X101977200Y-33833333D01*
X101977200Y-33833333D02*
X101929580Y-33785714D01*
X101929580Y-33785714D02*
X101834342Y-33738095D01*
X101834342Y-33738095D02*
X101643866Y-33738095D01*
X101643866Y-33738095D02*
X101548628Y-33785714D01*
X101548628Y-33785714D02*
X101501009Y-33833333D01*
X101501009Y-33833333D02*
X101453390Y-33928571D01*
X102354819Y-38138094D02*
X101354819Y-38138094D01*
X101354819Y-38138094D02*
X101354819Y-37899999D01*
X101354819Y-37899999D02*
X101402438Y-37757142D01*
X101402438Y-37757142D02*
X101497676Y-37661904D01*
X101497676Y-37661904D02*
X101592914Y-37614285D01*
X101592914Y-37614285D02*
X101783390Y-37566666D01*
X101783390Y-37566666D02*
X101926247Y-37566666D01*
X101926247Y-37566666D02*
X102116723Y-37614285D01*
X102116723Y-37614285D02*
X102211961Y-37661904D01*
X102211961Y-37661904D02*
X102307200Y-37757142D01*
X102307200Y-37757142D02*
X102354819Y-37899999D01*
X102354819Y-37899999D02*
X102354819Y-38138094D01*
X101688152Y-36709523D02*
X102354819Y-36709523D01*
X101307200Y-36947618D02*
X102021485Y-37185713D01*
X102021485Y-37185713D02*
X102021485Y-36566666D01*
X123454819Y-54413094D02*
X122454819Y-54413094D01*
X122454819Y-54413094D02*
X122454819Y-54174999D01*
X122454819Y-54174999D02*
X122502438Y-54032142D01*
X122502438Y-54032142D02*
X122597676Y-53936904D01*
X122597676Y-53936904D02*
X122692914Y-53889285D01*
X122692914Y-53889285D02*
X122883390Y-53841666D01*
X122883390Y-53841666D02*
X123026247Y-53841666D01*
X123026247Y-53841666D02*
X123216723Y-53889285D01*
X123216723Y-53889285D02*
X123311961Y-53936904D01*
X123311961Y-53936904D02*
X123407200Y-54032142D01*
X123407200Y-54032142D02*
X123454819Y-54174999D01*
X123454819Y-54174999D02*
X123454819Y-54413094D01*
X122550057Y-53460713D02*
X122502438Y-53413094D01*
X122502438Y-53413094D02*
X122454819Y-53317856D01*
X122454819Y-53317856D02*
X122454819Y-53079761D01*
X122454819Y-53079761D02*
X122502438Y-52984523D01*
X122502438Y-52984523D02*
X122550057Y-52936904D01*
X122550057Y-52936904D02*
X122645295Y-52889285D01*
X122645295Y-52889285D02*
X122740533Y-52889285D01*
X122740533Y-52889285D02*
X122883390Y-52936904D01*
X122883390Y-52936904D02*
X123454819Y-53508332D01*
X123454819Y-53508332D02*
X123454819Y-52889285D01*
X120666666Y-48344819D02*
X120666666Y-49059104D01*
X120666666Y-49059104D02*
X120619047Y-49201961D01*
X120619047Y-49201961D02*
X120523809Y-49297200D01*
X120523809Y-49297200D02*
X120380952Y-49344819D01*
X120380952Y-49344819D02*
X120285714Y-49344819D01*
X121666666Y-49344819D02*
X121095238Y-49344819D01*
X121380952Y-49344819D02*
X121380952Y-48344819D01*
X121380952Y-48344819D02*
X121285714Y-48487676D01*
X121285714Y-48487676D02*
X121190476Y-48582914D01*
X121190476Y-48582914D02*
X121095238Y-48630533D01*
X120789580Y-50441666D02*
X120837200Y-50489285D01*
X120837200Y-50489285D02*
X120884819Y-50632142D01*
X120884819Y-50632142D02*
X120884819Y-50727380D01*
X120884819Y-50727380D02*
X120837200Y-50870237D01*
X120837200Y-50870237D02*
X120741961Y-50965475D01*
X120741961Y-50965475D02*
X120646723Y-51013094D01*
X120646723Y-51013094D02*
X120456247Y-51060713D01*
X120456247Y-51060713D02*
X120313390Y-51060713D01*
X120313390Y-51060713D02*
X120122914Y-51013094D01*
X120122914Y-51013094D02*
X120027676Y-50965475D01*
X120027676Y-50965475D02*
X119932438Y-50870237D01*
X119932438Y-50870237D02*
X119884819Y-50727380D01*
X119884819Y-50727380D02*
X119884819Y-50632142D01*
X119884819Y-50632142D02*
X119932438Y-50489285D01*
X119932438Y-50489285D02*
X119980057Y-50441666D01*
X120218152Y-49584523D02*
X120884819Y-49584523D01*
X119837200Y-49822618D02*
X120551485Y-50060713D01*
X120551485Y-50060713D02*
X120551485Y-49441666D01*
X103166666Y-38344819D02*
X103166666Y-39059104D01*
X103166666Y-39059104D02*
X103119047Y-39201961D01*
X103119047Y-39201961D02*
X103023809Y-39297200D01*
X103023809Y-39297200D02*
X102880952Y-39344819D01*
X102880952Y-39344819D02*
X102785714Y-39344819D01*
X104071428Y-38344819D02*
X103880952Y-38344819D01*
X103880952Y-38344819D02*
X103785714Y-38392438D01*
X103785714Y-38392438D02*
X103738095Y-38440057D01*
X103738095Y-38440057D02*
X103642857Y-38582914D01*
X103642857Y-38582914D02*
X103595238Y-38773390D01*
X103595238Y-38773390D02*
X103595238Y-39154342D01*
X103595238Y-39154342D02*
X103642857Y-39249580D01*
X103642857Y-39249580D02*
X103690476Y-39297200D01*
X103690476Y-39297200D02*
X103785714Y-39344819D01*
X103785714Y-39344819D02*
X103976190Y-39344819D01*
X103976190Y-39344819D02*
X104071428Y-39297200D01*
X104071428Y-39297200D02*
X104119047Y-39249580D01*
X104119047Y-39249580D02*
X104166666Y-39154342D01*
X104166666Y-39154342D02*
X104166666Y-38916247D01*
X104166666Y-38916247D02*
X104119047Y-38821009D01*
X104119047Y-38821009D02*
X104071428Y-38773390D01*
X104071428Y-38773390D02*
X103976190Y-38725771D01*
X103976190Y-38725771D02*
X103785714Y-38725771D01*
X103785714Y-38725771D02*
X103690476Y-38773390D01*
X103690476Y-38773390D02*
X103642857Y-38821009D01*
X103642857Y-38821009D02*
X103595238Y-38916247D01*
D10*
%TO.C,J3*%
X115500000Y-60801455D02*
X110524000Y-60801455D01*
X115500000Y-60801455D02*
X120493000Y-60801455D01*
X109500000Y-56551455D02*
X109500000Y-58974455D01*
X121500000Y-56551455D02*
X121500000Y-58974455D01*
X121500000Y-56551455D02*
X120522000Y-56551455D01*
X109500000Y-56551455D02*
X110482000Y-56551455D01*
X109994910Y-55222455D02*
G75*
G02*
X109835090Y-55222455I-79910J0D01*
G01*
X109835090Y-55222455D02*
G75*
G02*
X109994910Y-55222455I79910J0D01*
G01*
D12*
%TO.C,J2*%
X101900000Y-55400000D02*
X101900000Y-55400000D01*
X101900000Y-55600000D02*
X101900000Y-55600000D01*
X102500000Y-54100000D02*
X107000000Y-54100000D01*
X102500000Y-60100000D02*
X102500000Y-54100000D01*
X107000000Y-54100000D02*
X107000000Y-60100000D01*
X107000000Y-60100000D02*
X102500000Y-60100000D01*
X101900000Y-55400000D02*
G75*
G02*
X101900000Y-55600000I0J-100000D01*
G01*
X101900000Y-55600000D02*
G75*
G02*
X101900000Y-55400000I0J100000D01*
G01*
D13*
%TO.C,R2*%
X117120000Y-51163641D02*
X117120000Y-50856359D01*
X117880000Y-51163641D02*
X117880000Y-50856359D01*
D14*
%TO.C,U2*%
X105300000Y-27375000D02*
X120700000Y-27375000D01*
X105300000Y-32425000D02*
X105300000Y-27375000D01*
X120700000Y-27375000D02*
X120700000Y-32425000D01*
X120700000Y-47875000D02*
X105300000Y-47875000D01*
D12*
X104650000Y-34200000D02*
G75*
G02*
X104450000Y-34200000I-100000J0D01*
G01*
X104450000Y-34200000D02*
G75*
G02*
X104650000Y-34200000I100000J0D01*
G01*
D13*
%TO.C,C18*%
X102490000Y-35140580D02*
X102490000Y-34859420D01*
X103510000Y-35140580D02*
X103510000Y-34859420D01*
%TO.C,D4*%
X102640000Y-37000000D02*
X102640000Y-38200000D01*
X104360000Y-37200000D02*
X104360000Y-37800000D01*
D11*
X103175000Y-38650000D02*
G75*
G02*
X103025000Y-38650000I-75000J0D01*
G01*
X103025000Y-38650000D02*
G75*
G02*
X103175000Y-38650000I75000J0D01*
G01*
D13*
%TO.C,D2*%
X120540000Y-53875000D02*
X120540000Y-53275000D01*
X122260000Y-54075000D02*
X122260000Y-52875000D01*
D11*
X121875000Y-52425000D02*
G75*
G02*
X121725000Y-52425000I-75000J0D01*
G01*
X121725000Y-52425000D02*
G75*
G02*
X121875000Y-52425000I75000J0D01*
G01*
D13*
%TO.C,J1*%
X120255000Y-49765000D02*
X121000000Y-49765000D01*
X120255000Y-50500000D02*
X120255000Y-49765000D01*
X120255000Y-51235000D02*
X120255000Y-51110000D01*
X120255000Y-51235000D02*
X120314435Y-51235000D01*
X120255000Y-51235000D02*
X121745000Y-51235000D01*
X121685565Y-51235000D02*
X121745000Y-51235000D01*
X121745000Y-51235000D02*
X121745000Y-51110000D01*
%TO.C,C4*%
X118490000Y-50134420D02*
X118490000Y-50415580D01*
X119510000Y-50134420D02*
X119510000Y-50415580D01*
%TO.C,J6*%
X102755000Y-39765000D02*
X103500000Y-39765000D01*
X102755000Y-40500000D02*
X102755000Y-39765000D01*
X102755000Y-41235000D02*
X102755000Y-41110000D01*
X102755000Y-41235000D02*
X102814435Y-41235000D01*
X102755000Y-41235000D02*
X104245000Y-41235000D01*
X104185565Y-41235000D02*
X104245000Y-41235000D01*
X104245000Y-41235000D02*
X104245000Y-41110000D01*
%TD*%
%LPC*%
D15*
%TO.C,U2*%
X112050000Y-39200000D02*
X110650000Y-39200000D01*
X110650000Y-38450000D01*
X111300000Y-37800000D01*
X112050000Y-37800000D01*
X112050000Y-39200000D01*
G36*
X112050000Y-39200000D02*
G01*
X110650000Y-39200000D01*
X110650000Y-38450000D01*
X111300000Y-37800000D01*
X112050000Y-37800000D01*
X112050000Y-39200000D01*
G37*
%TD*%
D16*
%TO.C,J3*%
X111000000Y-56209455D03*
X112000000Y-56209455D03*
X113000000Y-56209455D03*
X114000000Y-56209455D03*
X115000000Y-56209455D03*
X116000000Y-56209455D03*
X117000000Y-56209455D03*
X118000000Y-56209455D03*
X119000000Y-56209455D03*
X120000000Y-56209455D03*
D17*
X109700000Y-60084455D03*
X121300000Y-60084455D03*
%TD*%
D18*
%TO.C,J2*%
X104000000Y-55500000D03*
X105500000Y-55500000D03*
%TD*%
D19*
%TO.C,R2*%
X117500000Y-51520000D03*
X117500000Y-50500000D03*
%TD*%
D20*
%TO.C,U2*%
X106000000Y-34200000D03*
X106000000Y-35050000D03*
X106000000Y-35900000D03*
X106000000Y-36750000D03*
X106000000Y-37600000D03*
X106000000Y-38450000D03*
X106000000Y-39300000D03*
X106000000Y-40150000D03*
X106000000Y-41000000D03*
X106000000Y-41850000D03*
X106000000Y-42700000D03*
X106000000Y-43550000D03*
X106000000Y-44400000D03*
X106000000Y-45250000D03*
X106000000Y-46100000D03*
D21*
X107050000Y-47150000D03*
X107900000Y-47150000D03*
X108750000Y-47150000D03*
X109600000Y-47150000D03*
X110450000Y-47150000D03*
X111300000Y-47150000D03*
X112150000Y-47150000D03*
X113000000Y-47150000D03*
X113850000Y-47150000D03*
X114700000Y-47150000D03*
X115550000Y-47150000D03*
X116400000Y-47150000D03*
X117250000Y-47150000D03*
X118100000Y-47150000D03*
X118950000Y-47150000D03*
D20*
X120000000Y-46100000D03*
X120000000Y-45250000D03*
X120000000Y-44400000D03*
X120000000Y-43550000D03*
X120000000Y-42700000D03*
X120000000Y-41850000D03*
X120000000Y-41000000D03*
X120000000Y-40150000D03*
X120000000Y-39300000D03*
X120000000Y-38450000D03*
X120000000Y-37600000D03*
X120000000Y-36750000D03*
X120000000Y-35900000D03*
X120000000Y-35050000D03*
X120000000Y-34200000D03*
D21*
X118950000Y-33150000D03*
X118100000Y-33150000D03*
X117250000Y-33150000D03*
X116400000Y-33150000D03*
X115550000Y-33150000D03*
X114700000Y-33150000D03*
X113850000Y-33150000D03*
X113000000Y-33150000D03*
X112150000Y-33150000D03*
X111300000Y-33150000D03*
X110450000Y-33150000D03*
X109600000Y-33150000D03*
X108750000Y-33150000D03*
X107900000Y-33150000D03*
X107050000Y-33150000D03*
D22*
X113000000Y-40150000D03*
X113000000Y-38500000D03*
X114650000Y-38500000D03*
X114650000Y-40150000D03*
X114650000Y-41800000D03*
X113000000Y-41800000D03*
X111350000Y-41800000D03*
X111350000Y-40150000D03*
D23*
X106000000Y-33150000D03*
X106000000Y-47150000D03*
X120000000Y-47150000D03*
X120000000Y-33150000D03*
%TD*%
D24*
%TO.C,C18*%
X103000000Y-35775000D03*
X103000000Y-34225000D03*
%TD*%
D25*
%TO.C,D4*%
X103100000Y-38075000D03*
X103900000Y-38075000D03*
X103500000Y-36925000D03*
%TD*%
D26*
%TO.C,D2*%
X121800000Y-53000000D03*
X121000000Y-53000000D03*
X121400000Y-54150000D03*
%TD*%
D27*
%TO.C,J1*%
X121000000Y-50500000D03*
%TD*%
D28*
%TO.C,C4*%
X119000000Y-49500000D03*
X119000000Y-51050000D03*
%TD*%
D27*
%TO.C,J6*%
X103500000Y-40500000D03*
%TD*%
%LPD*%
M02*
