M48
; DRILL file {KiCad 9.0.7} date 2026-03-07T21:35:00+0100
; FORMAT={-:-/ absolute / inch / decimal}
; #@! TF.CreationDate,2026-03-07T21:35:00+01:00
; #@! TF.GenerationSoftware,Kicad,Pcbnew,9.0.7
; #@! TF.FileFunction,Plated,1,2,PTH
FMAT,2
INCH
; #@! TA.AperFunction,Plated,PTH,ViaDrill
T1C0.0118
; #@! TA.AperFunction,Plated,PTH,ViaDrill
T2C0.0157
; #@! TA.AperFunction,Plated,PTH,ComponentDrill
T3C0.0197
; #@! TA.AperFunction,Plated,PTH,ComponentDrill
T4C0.0276
%
G90
G05
T1
X4.0354Y-2.0669
X4.0591Y-1.5315
X4.0748Y-2.0276
X4.2323Y-1.811
X4.6654Y-1.811
X4.7003Y-2.102
X4.7224Y-2.0472
X4.7953Y-2.0551
T2
X4.1142Y-1.3189
X4.1142Y-1.3583
X4.1339Y-1.378
X4.2106Y-1.3799
X4.252Y-1.3583
X4.2913Y-1.3583
X4.3307Y-1.3386
X4.3307Y-1.5157
X4.3307Y-1.5748
X4.3386Y-1.6457
X4.3701Y-1.3583
X4.3839Y-1.687
X4.3898Y-1.3583
X4.3898Y-1.4567
X4.4291Y-1.3583
X4.4488Y-1.4567
X4.4488Y-1.6929
X4.4685Y-1.3583
X4.5079Y-1.3583
X4.5079Y-1.4567
X4.5079Y-1.6929
X4.5472Y-1.3583
X4.5669Y-1.3583
X4.5669Y-1.5157
X4.5669Y-1.5748
X4.5669Y-1.6339
X4.5866Y-1.3583
X4.6161Y-1.3484
X4.6457Y-1.3386
X4.6831Y-1.3563
X4.685Y-1.3976
X4.685Y-1.437
T3
X4.0748Y-1.5945
X4.7638Y-1.9882
T4
X4.0945Y-2.185
X4.1535Y-2.185
M30
