%TF.GenerationSoftware,KiCad,Pcbnew,9.0.7*%
%TF.CreationDate,2026-03-01T18:33:52+01:00*%
%TF.ProjectId,esp32,65737033-322e-46b6-9963-61645f706362,rev?*%
%TF.SameCoordinates,Original*%
%TF.FileFunction,Soldermask,Top*%
%TF.FilePolarity,Negative*%
%FSLAX46Y46*%
G04 Gerber Fmt 4.6, Leading zero omitted, Abs format (unit mm)*
G04 Created by KiCad (PCBNEW 9.0.7) date 2026-03-01 18:33:52*
%MOMM*%
%LPD*%
G01*
G04 APERTURE LIST*
G04 Aperture macros list*
%AMRoundRect*
0 Rectangle with rounded corners*
0 $1 Rounding radius*
0 $2 $3 $4 $5 $6 $7 $8 $9 X,Y pos of 4 corners*
0 Add a 4 corners polygon primitive as box body*
4,1,4,$2,$3,$4,$5,$6,$7,$8,$9,$2,$3,0*
0 Add four circle primitives for the rounded corners*
1,1,$1+$1,$2,$3*
1,1,$1+$1,$4,$5*
1,1,$1+$1,$6,$7*
1,1,$1+$1,$8,$9*
0 Add four rect primitives between the rounded corners*
20,1,$1+$1,$2,$3,$4,$5,0*
20,1,$1+$1,$4,$5,$6,$7,0*
20,1,$1+$1,$6,$7,$8,$9,0*
20,1,$1+$1,$8,$9,$2,$3,0*%
G04 Aperture macros list end*
%ADD10C,0.010000*%
%ADD11RoundRect,0.100000X0.100000X-0.125000X0.100000X0.125000X-0.100000X0.125000X-0.100000X-0.125000X0*%
%ADD12R,0.850000X0.850000*%
%ADD13RoundRect,0.150000X-0.150000X-0.475000X0.150000X-0.475000X0.150000X0.475000X-0.150000X0.475000X0*%
%ADD14RoundRect,0.225000X-0.225000X-0.625000X0.225000X-0.625000X0.225000X0.625000X-0.225000X0.625000X0*%
%ADD15RoundRect,0.175000X-0.175000X-1.175000X0.175000X-1.175000X0.175000X1.175000X-0.175000X1.175000X0*%
%ADD16RoundRect,0.250000X-0.300000X-0.700000X0.300000X-0.700000X0.300000X0.700000X-0.300000X0.700000X0*%
%ADD17RoundRect,0.135000X0.185000X-0.135000X0.185000X0.135000X-0.185000X0.135000X-0.185000X-0.135000X0*%
%ADD18RoundRect,0.102000X-0.400000X-0.200000X0.400000X-0.200000X0.400000X0.200000X-0.400000X0.200000X0*%
%ADD19RoundRect,0.102000X-0.200000X-0.400000X0.200000X-0.400000X0.200000X0.400000X-0.200000X0.400000X0*%
%ADD20RoundRect,0.102000X-0.600000X-0.600000X0.600000X-0.600000X0.600000X0.600000X-0.600000X0.600000X0*%
%ADD21RoundRect,0.102000X-0.400000X-0.400000X0.400000X-0.400000X0.400000X0.400000X-0.400000X0.400000X0*%
%ADD22RoundRect,0.225000X0.250000X-0.225000X0.250000X0.225000X-0.250000X0.225000X-0.250000X-0.225000X0*%
%ADD23RoundRect,0.225000X-0.250000X0.225000X-0.250000X-0.225000X0.250000X-0.225000X0.250000X0.225000X0*%
%ADD24RoundRect,0.100000X-0.100000X0.125000X-0.100000X-0.125000X0.100000X-0.125000X0.100000X0.125000X0*%
G04 APERTURE END LIST*
D10*
%TO.C,U2*%
X112050000Y-39200000D02*
X110650000Y-39200000D01*
X110650000Y-38450000D01*
X111300000Y-37800000D01*
X112050000Y-37800000D01*
X112050000Y-39200000D01*
G36*
X112050000Y-39200000D02*
G01*
X110650000Y-39200000D01*
X110650000Y-38450000D01*
X111300000Y-37800000D01*
X112050000Y-37800000D01*
X112050000Y-39200000D01*
G37*
%TD*%
D11*
%TO.C,D4*%
X103100000Y-38075000D03*
X103900000Y-38075000D03*
X103500000Y-36925000D03*
%TD*%
D12*
%TO.C,J6*%
X103500000Y-40500000D03*
%TD*%
%TO.C,J1*%
X121000000Y-50500000D03*
%TD*%
D13*
%TO.C,J3*%
X110950000Y-55800000D03*
X111950000Y-55800000D03*
X112950000Y-55800000D03*
X113950000Y-55800000D03*
X114950000Y-55800000D03*
X115950000Y-55800000D03*
X116950000Y-55800000D03*
X117950000Y-55800000D03*
X118950000Y-55800000D03*
X119950000Y-55800000D03*
D14*
X109500000Y-58925000D03*
X121400000Y-58925000D03*
%TD*%
D15*
%TO.C,J2*%
X104000000Y-54800000D03*
X105500000Y-54800000D03*
D16*
X102050000Y-58500000D03*
X107450000Y-58500000D03*
%TD*%
D17*
%TO.C,R2*%
X117500000Y-51520000D03*
X117500000Y-50500000D03*
%TD*%
D18*
%TO.C,U2*%
X106000000Y-34200000D03*
X106000000Y-35050000D03*
X106000000Y-35900000D03*
X106000000Y-36750000D03*
X106000000Y-37600000D03*
X106000000Y-38450000D03*
X106000000Y-39300000D03*
X106000000Y-40150000D03*
X106000000Y-41000000D03*
X106000000Y-41850000D03*
X106000000Y-42700000D03*
X106000000Y-43550000D03*
X106000000Y-44400000D03*
X106000000Y-45250000D03*
X106000000Y-46100000D03*
D19*
X107050000Y-47150000D03*
X107900000Y-47150000D03*
X108750000Y-47150000D03*
X109600000Y-47150000D03*
X110450000Y-47150000D03*
X111300000Y-47150000D03*
X112150000Y-47150000D03*
X113000000Y-47150000D03*
X113850000Y-47150000D03*
X114700000Y-47150000D03*
X115550000Y-47150000D03*
X116400000Y-47150000D03*
X117250000Y-47150000D03*
X118100000Y-47150000D03*
X118950000Y-47150000D03*
D18*
X120000000Y-46100000D03*
X120000000Y-45250000D03*
X120000000Y-44400000D03*
X120000000Y-43550000D03*
X120000000Y-42700000D03*
X120000000Y-41850000D03*
X120000000Y-41000000D03*
X120000000Y-40150000D03*
X120000000Y-39300000D03*
X120000000Y-38450000D03*
X120000000Y-37600000D03*
X120000000Y-36750000D03*
X120000000Y-35900000D03*
X120000000Y-35050000D03*
X120000000Y-34200000D03*
D19*
X118950000Y-33150000D03*
X118100000Y-33150000D03*
X117250000Y-33150000D03*
X116400000Y-33150000D03*
X115550000Y-33150000D03*
X114700000Y-33150000D03*
X113850000Y-33150000D03*
X113000000Y-33150000D03*
X112150000Y-33150000D03*
X111300000Y-33150000D03*
X110450000Y-33150000D03*
X109600000Y-33150000D03*
X108750000Y-33150000D03*
X107900000Y-33150000D03*
X107050000Y-33150000D03*
D20*
X113000000Y-40150000D03*
X113000000Y-38500000D03*
X114650000Y-38500000D03*
X114650000Y-40150000D03*
X114650000Y-41800000D03*
X113000000Y-41800000D03*
X111350000Y-41800000D03*
X111350000Y-40150000D03*
D21*
X106000000Y-33150000D03*
X106000000Y-47150000D03*
X120000000Y-47150000D03*
X120000000Y-33150000D03*
%TD*%
D22*
%TO.C,C18*%
X103000000Y-35775000D03*
X103000000Y-34225000D03*
%TD*%
D23*
%TO.C,C4*%
X119000000Y-49500000D03*
X119000000Y-51050000D03*
%TD*%
D24*
%TO.C,D2*%
X121800000Y-53000000D03*
X121000000Y-53000000D03*
X121400000Y-54150000D03*
%TD*%
M02*
