M48
; DRILL file {KiCad 9.0.7} date 2026-03-01T18:22:04+0100
; FORMAT={-:-/ absolute / inch / decimal}
; #@! TF.CreationDate,2026-03-01T18:22:04+01:00
; #@! TF.GenerationSoftware,Kicad,Pcbnew,9.0.7
; #@! TF.FileFunction,Plated,1,2,PTH
FMAT,2
INCH
; #@! TA.AperFunction,Plated,PTH,ViaDrill
T1C0.0118
; #@! TA.AperFunction,Plated,PTH,ComponentDrill
T2C0.0118
; #@! TA.AperFunction,Plated,PTH,ComponentDrill
T3C0.0197
%
G90
G05
T1
X4.2126Y-2.4213
X4.3307Y-2.4016
X4.4685Y-2.4803
X4.4685Y-2.6181
X4.4685Y-2.6772
X4.5079Y-2.6969
T2
X4.2461Y-2.6112
X4.2461Y-2.6813
X4.2461Y-2.7514
X4.2461Y-2.8215
X4.2461Y-2.8915
X4.2461Y-2.9616
X4.2972Y-2.6112
X4.2972Y-2.6813
X4.2972Y-2.7514
X4.2972Y-2.8215
X4.2972Y-2.8915
X4.2972Y-2.9616
X4.3484Y-2.6112
X4.3484Y-2.6813
X4.3484Y-2.7514
X4.3484Y-2.8215
X4.3484Y-2.8915
X4.3484Y-2.9616
T3
X3.9567Y-2.7362
X3.9567Y-2.815
X3.9567Y-2.8937
X3.9567Y-2.9724
X3.9567Y-3.0512
X4.0551Y-3.0512
X4.1535Y-3.0512
X4.252Y-3.0512
X4.4094Y-3.0512
X4.5079Y-3.0512
X4.6063Y-2.6378
X4.6063Y-2.7165
X4.6063Y-2.7953
X4.6063Y-2.874
X4.6063Y-2.9528
X4.6063Y-3.0512
M30
