%TF.GenerationSoftware,KiCad,Pcbnew,9.0.7*%
%TF.CreationDate,2026-03-01T18:22:04+01:00*%
%TF.ProjectId,tlc5940,746c6335-3934-4302-9e6b-696361645f70,rev?*%
%TF.SameCoordinates,Original*%
%TF.FileFunction,Soldermask,Top*%
%TF.FilePolarity,Negative*%
%FSLAX46Y46*%
G04 Gerber Fmt 4.6, Leading zero omitted, Abs format (unit mm)*
G04 Created by KiCad (PCBNEW 9.0.7) date 2026-03-01 18:22:04*
%MOMM*%
%LPD*%
G01*
G04 APERTURE LIST*
G04 Aperture macros list*
%AMRoundRect*
0 Rectangle with rounded corners*
0 $1 Rounding radius*
0 $2 $3 $4 $5 $6 $7 $8 $9 X,Y pos of 4 corners*
0 Add a 4 corners polygon primitive as box body*
4,1,4,$2,$3,$4,$5,$6,$7,$8,$9,$2,$3,0*
0 Add four circle primitives for the rounded corners*
1,1,$1+$1,$2,$3*
1,1,$1+$1,$4,$5*
1,1,$1+$1,$6,$7*
1,1,$1+$1,$8,$9*
0 Add four rect primitives between the rounded corners*
20,1,$1+$1,$2,$3,$4,$5,0*
20,1,$1+$1,$4,$5,$6,$7,0*
20,1,$1+$1,$6,$7,$8,$9,0*
20,1,$1+$1,$8,$9,$2,$3,0*%
G04 Aperture macros list end*
%ADD10RoundRect,0.150000X0.150000X0.475000X-0.150000X0.475000X-0.150000X-0.475000X0.150000X-0.475000X0*%
%ADD11RoundRect,0.225000X0.225000X0.625000X-0.225000X0.625000X-0.225000X-0.625000X0.225000X-0.625000X0*%
%ADD12R,0.850000X0.850000*%
%ADD13RoundRect,0.135000X-0.185000X0.135000X-0.185000X-0.135000X0.185000X-0.135000X0.185000X0.135000X0*%
%ADD14RoundRect,0.225000X-0.250000X0.225000X-0.250000X-0.225000X0.250000X-0.225000X0.250000X0.225000X0*%
%ADD15RoundRect,0.175000X0.175000X1.175000X-0.175000X1.175000X-0.175000X-1.175000X0.175000X-1.175000X0*%
%ADD16RoundRect,0.250000X0.300000X0.700000X-0.300000X0.700000X-0.300000X-0.700000X0.300000X-0.700000X0*%
%ADD17R,2.400000X6.170000*%
%ADD18R,1.100000X0.400000*%
G04 APERTURE END LIST*
D10*
%TO.C,J19*%
X107950000Y-59675000D03*
X106950000Y-59675000D03*
X105950000Y-59675000D03*
X104950000Y-59675000D03*
X103950000Y-59675000D03*
X102950000Y-59675000D03*
X101950000Y-59675000D03*
X100950000Y-59675000D03*
D11*
X109400000Y-56550000D03*
X99500000Y-56550000D03*
%TD*%
D12*
%TO.C,J18*%
X117000000Y-67000000D03*
%TD*%
%TO.C,J17*%
X117000000Y-69000000D03*
%TD*%
%TO.C,J16*%
X117000000Y-71000000D03*
%TD*%
%TO.C,J15*%
X117000000Y-73000000D03*
%TD*%
%TO.C,J14*%
X117000000Y-75000000D03*
%TD*%
%TO.C,J13*%
X117000000Y-77500000D03*
%TD*%
%TO.C,J12*%
X114500000Y-77500000D03*
%TD*%
%TO.C,J11*%
X112000000Y-77500000D03*
%TD*%
%TO.C,J10*%
X108000000Y-77500000D03*
%TD*%
%TO.C,J9*%
X105500000Y-77500000D03*
%TD*%
%TO.C,J8*%
X103000000Y-77500000D03*
%TD*%
%TO.C,J7*%
X100500000Y-77500000D03*
%TD*%
%TO.C,J4*%
X100500000Y-75500000D03*
%TD*%
%TO.C,J3*%
X100500000Y-73500000D03*
%TD*%
%TO.C,J2*%
X100500000Y-71500000D03*
%TD*%
%TO.C,J6*%
X100500000Y-69500000D03*
%TD*%
D13*
%TO.C,R2*%
X115000000Y-65500000D03*
X115000000Y-66520000D03*
%TD*%
D14*
%TO.C,C18*%
X112000000Y-63000000D03*
X112000000Y-64550000D03*
%TD*%
D15*
%TO.C,J5*%
X114950000Y-60200000D03*
X113450000Y-60200000D03*
D16*
X116900000Y-56500000D03*
X111500000Y-56500000D03*
%TD*%
D17*
%TO.C,U1*%
X109150000Y-70775000D03*
D18*
X106300000Y-66550000D03*
X106300000Y-67200000D03*
X106300000Y-67850000D03*
X106300000Y-68500000D03*
X106300000Y-69150000D03*
X106300000Y-69800000D03*
X106300000Y-70450000D03*
X106300000Y-71100000D03*
X106300000Y-71750000D03*
X106300000Y-72400000D03*
X106300000Y-73050000D03*
X106300000Y-73700000D03*
X106300000Y-74350000D03*
X106300000Y-75000000D03*
X112000000Y-75000000D03*
X112000000Y-74350000D03*
X112000000Y-73700000D03*
X112000000Y-73050000D03*
X112000000Y-72400000D03*
X112000000Y-71750000D03*
X112000000Y-71100000D03*
X112000000Y-70450000D03*
X112000000Y-69800000D03*
X112000000Y-69150000D03*
X112000000Y-68500000D03*
X112000000Y-67850000D03*
X112000000Y-67200000D03*
X112000000Y-66550000D03*
%TD*%
M02*
