%TF.GenerationSoftware,KiCad,Pcbnew,9.0.7*%
%TF.CreationDate,2026-03-04T22:02:23+01:00*%
%TF.ProjectId,tlc5940,746c6335-3934-4302-9e6b-696361645f70,rev?*%
%TF.SameCoordinates,Original*%
%TF.FileFunction,Legend,Top*%
%TF.FilePolarity,Positive*%
%FSLAX46Y46*%
G04 Gerber Fmt 4.6, Leading zero omitted, Abs format (unit mm)*
G04 Created by KiCad (PCBNEW 9.0.7) date 2026-03-04 22:02:23*
%MOMM*%
%LPD*%
G01*
G04 APERTURE LIST*
G04 Aperture macros list*
%AMRoundRect*
0 Rectangle with rounded corners*
0 $1 Rounding radius*
0 $2 $3 $4 $5 $6 $7 $8 $9 X,Y pos of 4 corners*
0 Add a 4 corners polygon primitive as box body*
4,1,4,$2,$3,$4,$5,$6,$7,$8,$9,$2,$3,0*
0 Add four circle primitives for the rounded corners*
1,1,$1+$1,$2,$3*
1,1,$1+$1,$4,$5*
1,1,$1+$1,$6,$7*
1,1,$1+$1,$8,$9*
0 Add four rect primitives between the rounded corners*
20,1,$1+$1,$2,$3,$4,$5,0*
20,1,$1+$1,$4,$5,$6,$7,0*
20,1,$1+$1,$6,$7,$8,$9,0*
20,1,$1+$1,$8,$9,$2,$3,0*%
G04 Aperture macros list end*
%ADD10C,0.254000*%
%ADD11C,0.150000*%
%ADD12C,0.200000*%
%ADD13C,0.120000*%
%ADD14C,1.100000*%
%ADD15R,0.850000X0.850000*%
%ADD16RoundRect,0.150000X0.150000X0.475000X-0.150000X0.475000X-0.150000X-0.475000X0.150000X-0.475000X0*%
%ADD17RoundRect,0.225000X0.225000X0.625000X-0.225000X0.625000X-0.225000X-0.625000X0.225000X-0.625000X0*%
%ADD18RoundRect,0.135000X-0.185000X0.135000X-0.185000X-0.135000X0.185000X-0.135000X0.185000X0.135000X0*%
%ADD19RoundRect,0.225000X-0.250000X0.225000X-0.250000X-0.225000X0.250000X-0.225000X0.250000X0.225000X0*%
%ADD20R,2.400000X6.170000*%
%ADD21R,1.100000X0.400000*%
G04 APERTURE END LIST*
D10*
X114076667Y-57304318D02*
X114076667Y-58211461D01*
X114076667Y-58211461D02*
X114016190Y-58392889D01*
X114016190Y-58392889D02*
X113895238Y-58513842D01*
X113895238Y-58513842D02*
X113713809Y-58574318D01*
X113713809Y-58574318D02*
X113592857Y-58574318D01*
X115346667Y-58574318D02*
X114620952Y-58574318D01*
X114983809Y-58574318D02*
X114983809Y-57304318D01*
X114983809Y-57304318D02*
X114862857Y-57485746D01*
X114862857Y-57485746D02*
X114741905Y-57606699D01*
X114741905Y-57606699D02*
X114620952Y-57667175D01*
D11*
X100166666Y-71344819D02*
X100166666Y-72059104D01*
X100166666Y-72059104D02*
X100119047Y-72201961D01*
X100119047Y-72201961D02*
X100023809Y-72297200D01*
X100023809Y-72297200D02*
X99880952Y-72344819D01*
X99880952Y-72344819D02*
X99785714Y-72344819D01*
X100547619Y-71344819D02*
X101166666Y-71344819D01*
X101166666Y-71344819D02*
X100833333Y-71725771D01*
X100833333Y-71725771D02*
X100976190Y-71725771D01*
X100976190Y-71725771D02*
X101071428Y-71773390D01*
X101071428Y-71773390D02*
X101119047Y-71821009D01*
X101119047Y-71821009D02*
X101166666Y-71916247D01*
X101166666Y-71916247D02*
X101166666Y-72154342D01*
X101166666Y-72154342D02*
X101119047Y-72249580D01*
X101119047Y-72249580D02*
X101071428Y-72297200D01*
X101071428Y-72297200D02*
X100976190Y-72344819D01*
X100976190Y-72344819D02*
X100690476Y-72344819D01*
X100690476Y-72344819D02*
X100595238Y-72297200D01*
X100595238Y-72297200D02*
X100547619Y-72249580D01*
X102666666Y-75344819D02*
X102666666Y-76059104D01*
X102666666Y-76059104D02*
X102619047Y-76201961D01*
X102619047Y-76201961D02*
X102523809Y-76297200D01*
X102523809Y-76297200D02*
X102380952Y-76344819D01*
X102380952Y-76344819D02*
X102285714Y-76344819D01*
X103285714Y-75773390D02*
X103190476Y-75725771D01*
X103190476Y-75725771D02*
X103142857Y-75678152D01*
X103142857Y-75678152D02*
X103095238Y-75582914D01*
X103095238Y-75582914D02*
X103095238Y-75535295D01*
X103095238Y-75535295D02*
X103142857Y-75440057D01*
X103142857Y-75440057D02*
X103190476Y-75392438D01*
X103190476Y-75392438D02*
X103285714Y-75344819D01*
X103285714Y-75344819D02*
X103476190Y-75344819D01*
X103476190Y-75344819D02*
X103571428Y-75392438D01*
X103571428Y-75392438D02*
X103619047Y-75440057D01*
X103619047Y-75440057D02*
X103666666Y-75535295D01*
X103666666Y-75535295D02*
X103666666Y-75582914D01*
X103666666Y-75582914D02*
X103619047Y-75678152D01*
X103619047Y-75678152D02*
X103571428Y-75725771D01*
X103571428Y-75725771D02*
X103476190Y-75773390D01*
X103476190Y-75773390D02*
X103285714Y-75773390D01*
X103285714Y-75773390D02*
X103190476Y-75821009D01*
X103190476Y-75821009D02*
X103142857Y-75868628D01*
X103142857Y-75868628D02*
X103095238Y-75963866D01*
X103095238Y-75963866D02*
X103095238Y-76154342D01*
X103095238Y-76154342D02*
X103142857Y-76249580D01*
X103142857Y-76249580D02*
X103190476Y-76297200D01*
X103190476Y-76297200D02*
X103285714Y-76344819D01*
X103285714Y-76344819D02*
X103476190Y-76344819D01*
X103476190Y-76344819D02*
X103571428Y-76297200D01*
X103571428Y-76297200D02*
X103619047Y-76249580D01*
X103619047Y-76249580D02*
X103666666Y-76154342D01*
X103666666Y-76154342D02*
X103666666Y-75963866D01*
X103666666Y-75963866D02*
X103619047Y-75868628D01*
X103619047Y-75868628D02*
X103571428Y-75821009D01*
X103571428Y-75821009D02*
X103476190Y-75773390D01*
X103640476Y-60954819D02*
X103640476Y-61669104D01*
X103640476Y-61669104D02*
X103592857Y-61811961D01*
X103592857Y-61811961D02*
X103497619Y-61907200D01*
X103497619Y-61907200D02*
X103354762Y-61954819D01*
X103354762Y-61954819D02*
X103259524Y-61954819D01*
X104640476Y-61954819D02*
X104069048Y-61954819D01*
X104354762Y-61954819D02*
X104354762Y-60954819D01*
X104354762Y-60954819D02*
X104259524Y-61097676D01*
X104259524Y-61097676D02*
X104164286Y-61192914D01*
X104164286Y-61192914D02*
X104069048Y-61240533D01*
X105116667Y-61954819D02*
X105307143Y-61954819D01*
X105307143Y-61954819D02*
X105402381Y-61907200D01*
X105402381Y-61907200D02*
X105450000Y-61859580D01*
X105450000Y-61859580D02*
X105545238Y-61716723D01*
X105545238Y-61716723D02*
X105592857Y-61526247D01*
X105592857Y-61526247D02*
X105592857Y-61145295D01*
X105592857Y-61145295D02*
X105545238Y-61050057D01*
X105545238Y-61050057D02*
X105497619Y-61002438D01*
X105497619Y-61002438D02*
X105402381Y-60954819D01*
X105402381Y-60954819D02*
X105211905Y-60954819D01*
X105211905Y-60954819D02*
X105116667Y-61002438D01*
X105116667Y-61002438D02*
X105069048Y-61050057D01*
X105069048Y-61050057D02*
X105021429Y-61145295D01*
X105021429Y-61145295D02*
X105021429Y-61383390D01*
X105021429Y-61383390D02*
X105069048Y-61478628D01*
X105069048Y-61478628D02*
X105116667Y-61526247D01*
X105116667Y-61526247D02*
X105211905Y-61573866D01*
X105211905Y-61573866D02*
X105402381Y-61573866D01*
X105402381Y-61573866D02*
X105497619Y-61526247D01*
X105497619Y-61526247D02*
X105545238Y-61478628D01*
X105545238Y-61478628D02*
X105592857Y-61383390D01*
X116190476Y-72844819D02*
X116190476Y-73559104D01*
X116190476Y-73559104D02*
X116142857Y-73701961D01*
X116142857Y-73701961D02*
X116047619Y-73797200D01*
X116047619Y-73797200D02*
X115904762Y-73844819D01*
X115904762Y-73844819D02*
X115809524Y-73844819D01*
X117190476Y-73844819D02*
X116619048Y-73844819D01*
X116904762Y-73844819D02*
X116904762Y-72844819D01*
X116904762Y-72844819D02*
X116809524Y-72987676D01*
X116809524Y-72987676D02*
X116714286Y-73082914D01*
X116714286Y-73082914D02*
X116619048Y-73130533D01*
X118047619Y-73178152D02*
X118047619Y-73844819D01*
X117809524Y-72797200D02*
X117571429Y-73511485D01*
X117571429Y-73511485D02*
X118190476Y-73511485D01*
X100166666Y-73344819D02*
X100166666Y-74059104D01*
X100166666Y-74059104D02*
X100119047Y-74201961D01*
X100119047Y-74201961D02*
X100023809Y-74297200D01*
X100023809Y-74297200D02*
X99880952Y-74344819D01*
X99880952Y-74344819D02*
X99785714Y-74344819D01*
X101071428Y-73678152D02*
X101071428Y-74344819D01*
X100833333Y-73297200D02*
X100595238Y-74011485D01*
X100595238Y-74011485D02*
X101214285Y-74011485D01*
X100166666Y-69344819D02*
X100166666Y-70059104D01*
X100166666Y-70059104D02*
X100119047Y-70201961D01*
X100119047Y-70201961D02*
X100023809Y-70297200D01*
X100023809Y-70297200D02*
X99880952Y-70344819D01*
X99880952Y-70344819D02*
X99785714Y-70344819D01*
X100595238Y-69440057D02*
X100642857Y-69392438D01*
X100642857Y-69392438D02*
X100738095Y-69344819D01*
X100738095Y-69344819D02*
X100976190Y-69344819D01*
X100976190Y-69344819D02*
X101071428Y-69392438D01*
X101071428Y-69392438D02*
X101119047Y-69440057D01*
X101119047Y-69440057D02*
X101166666Y-69535295D01*
X101166666Y-69535295D02*
X101166666Y-69630533D01*
X101166666Y-69630533D02*
X101119047Y-69773390D01*
X101119047Y-69773390D02*
X100547619Y-70344819D01*
X100547619Y-70344819D02*
X101166666Y-70344819D01*
X116624819Y-66176666D02*
X116148628Y-66509999D01*
X116624819Y-66748094D02*
X115624819Y-66748094D01*
X115624819Y-66748094D02*
X115624819Y-66367142D01*
X115624819Y-66367142D02*
X115672438Y-66271904D01*
X115672438Y-66271904D02*
X115720057Y-66224285D01*
X115720057Y-66224285D02*
X115815295Y-66176666D01*
X115815295Y-66176666D02*
X115958152Y-66176666D01*
X115958152Y-66176666D02*
X116053390Y-66224285D01*
X116053390Y-66224285D02*
X116101009Y-66271904D01*
X116101009Y-66271904D02*
X116148628Y-66367142D01*
X116148628Y-66367142D02*
X116148628Y-66748094D01*
X115720057Y-65795713D02*
X115672438Y-65748094D01*
X115672438Y-65748094D02*
X115624819Y-65652856D01*
X115624819Y-65652856D02*
X115624819Y-65414761D01*
X115624819Y-65414761D02*
X115672438Y-65319523D01*
X115672438Y-65319523D02*
X115720057Y-65271904D01*
X115720057Y-65271904D02*
X115815295Y-65224285D01*
X115815295Y-65224285D02*
X115910533Y-65224285D01*
X115910533Y-65224285D02*
X116053390Y-65271904D01*
X116053390Y-65271904D02*
X116624819Y-65843332D01*
X116624819Y-65843332D02*
X116624819Y-65224285D01*
X113789580Y-64417857D02*
X113837200Y-64465476D01*
X113837200Y-64465476D02*
X113884819Y-64608333D01*
X113884819Y-64608333D02*
X113884819Y-64703571D01*
X113884819Y-64703571D02*
X113837200Y-64846428D01*
X113837200Y-64846428D02*
X113741961Y-64941666D01*
X113741961Y-64941666D02*
X113646723Y-64989285D01*
X113646723Y-64989285D02*
X113456247Y-65036904D01*
X113456247Y-65036904D02*
X113313390Y-65036904D01*
X113313390Y-65036904D02*
X113122914Y-64989285D01*
X113122914Y-64989285D02*
X113027676Y-64941666D01*
X113027676Y-64941666D02*
X112932438Y-64846428D01*
X112932438Y-64846428D02*
X112884819Y-64703571D01*
X112884819Y-64703571D02*
X112884819Y-64608333D01*
X112884819Y-64608333D02*
X112932438Y-64465476D01*
X112932438Y-64465476D02*
X112980057Y-64417857D01*
X113884819Y-63465476D02*
X113884819Y-64036904D01*
X113884819Y-63751190D02*
X112884819Y-63751190D01*
X112884819Y-63751190D02*
X113027676Y-63846428D01*
X113027676Y-63846428D02*
X113122914Y-63941666D01*
X113122914Y-63941666D02*
X113170533Y-64036904D01*
X113313390Y-62894047D02*
X113265771Y-62989285D01*
X113265771Y-62989285D02*
X113218152Y-63036904D01*
X113218152Y-63036904D02*
X113122914Y-63084523D01*
X113122914Y-63084523D02*
X113075295Y-63084523D01*
X113075295Y-63084523D02*
X112980057Y-63036904D01*
X112980057Y-63036904D02*
X112932438Y-62989285D01*
X112932438Y-62989285D02*
X112884819Y-62894047D01*
X112884819Y-62894047D02*
X112884819Y-62703571D01*
X112884819Y-62703571D02*
X112932438Y-62608333D01*
X112932438Y-62608333D02*
X112980057Y-62560714D01*
X112980057Y-62560714D02*
X113075295Y-62513095D01*
X113075295Y-62513095D02*
X113122914Y-62513095D01*
X113122914Y-62513095D02*
X113218152Y-62560714D01*
X113218152Y-62560714D02*
X113265771Y-62608333D01*
X113265771Y-62608333D02*
X113313390Y-62703571D01*
X113313390Y-62703571D02*
X113313390Y-62894047D01*
X113313390Y-62894047D02*
X113361009Y-62989285D01*
X113361009Y-62989285D02*
X113408628Y-63036904D01*
X113408628Y-63036904D02*
X113503866Y-63084523D01*
X113503866Y-63084523D02*
X113694342Y-63084523D01*
X113694342Y-63084523D02*
X113789580Y-63036904D01*
X113789580Y-63036904D02*
X113837200Y-62989285D01*
X113837200Y-62989285D02*
X113884819Y-62894047D01*
X113884819Y-62894047D02*
X113884819Y-62703571D01*
X113884819Y-62703571D02*
X113837200Y-62608333D01*
X113837200Y-62608333D02*
X113789580Y-62560714D01*
X113789580Y-62560714D02*
X113694342Y-62513095D01*
X113694342Y-62513095D02*
X113503866Y-62513095D01*
X113503866Y-62513095D02*
X113408628Y-62560714D01*
X113408628Y-62560714D02*
X113361009Y-62608333D01*
X113361009Y-62608333D02*
X113313390Y-62703571D01*
X100166666Y-75344819D02*
X100166666Y-76059104D01*
X100166666Y-76059104D02*
X100119047Y-76201961D01*
X100119047Y-76201961D02*
X100023809Y-76297200D01*
X100023809Y-76297200D02*
X99880952Y-76344819D01*
X99880952Y-76344819D02*
X99785714Y-76344819D01*
X100547619Y-75344819D02*
X101214285Y-75344819D01*
X101214285Y-75344819D02*
X100785714Y-76344819D01*
X113690476Y-75344819D02*
X113690476Y-76059104D01*
X113690476Y-76059104D02*
X113642857Y-76201961D01*
X113642857Y-76201961D02*
X113547619Y-76297200D01*
X113547619Y-76297200D02*
X113404762Y-76344819D01*
X113404762Y-76344819D02*
X113309524Y-76344819D01*
X114690476Y-76344819D02*
X114119048Y-76344819D01*
X114404762Y-76344819D02*
X114404762Y-75344819D01*
X114404762Y-75344819D02*
X114309524Y-75487676D01*
X114309524Y-75487676D02*
X114214286Y-75582914D01*
X114214286Y-75582914D02*
X114119048Y-75630533D01*
X115071429Y-75440057D02*
X115119048Y-75392438D01*
X115119048Y-75392438D02*
X115214286Y-75344819D01*
X115214286Y-75344819D02*
X115452381Y-75344819D01*
X115452381Y-75344819D02*
X115547619Y-75392438D01*
X115547619Y-75392438D02*
X115595238Y-75440057D01*
X115595238Y-75440057D02*
X115642857Y-75535295D01*
X115642857Y-75535295D02*
X115642857Y-75630533D01*
X115642857Y-75630533D02*
X115595238Y-75773390D01*
X115595238Y-75773390D02*
X115023810Y-76344819D01*
X115023810Y-76344819D02*
X115642857Y-76344819D01*
X107190476Y-75344819D02*
X107190476Y-76059104D01*
X107190476Y-76059104D02*
X107142857Y-76201961D01*
X107142857Y-76201961D02*
X107047619Y-76297200D01*
X107047619Y-76297200D02*
X106904762Y-76344819D01*
X106904762Y-76344819D02*
X106809524Y-76344819D01*
X108190476Y-76344819D02*
X107619048Y-76344819D01*
X107904762Y-76344819D02*
X107904762Y-75344819D01*
X107904762Y-75344819D02*
X107809524Y-75487676D01*
X107809524Y-75487676D02*
X107714286Y-75582914D01*
X107714286Y-75582914D02*
X107619048Y-75630533D01*
X108809524Y-75344819D02*
X108904762Y-75344819D01*
X108904762Y-75344819D02*
X109000000Y-75392438D01*
X109000000Y-75392438D02*
X109047619Y-75440057D01*
X109047619Y-75440057D02*
X109095238Y-75535295D01*
X109095238Y-75535295D02*
X109142857Y-75725771D01*
X109142857Y-75725771D02*
X109142857Y-75963866D01*
X109142857Y-75963866D02*
X109095238Y-76154342D01*
X109095238Y-76154342D02*
X109047619Y-76249580D01*
X109047619Y-76249580D02*
X109000000Y-76297200D01*
X109000000Y-76297200D02*
X108904762Y-76344819D01*
X108904762Y-76344819D02*
X108809524Y-76344819D01*
X108809524Y-76344819D02*
X108714286Y-76297200D01*
X108714286Y-76297200D02*
X108666667Y-76249580D01*
X108666667Y-76249580D02*
X108619048Y-76154342D01*
X108619048Y-76154342D02*
X108571429Y-75963866D01*
X108571429Y-75963866D02*
X108571429Y-75725771D01*
X108571429Y-75725771D02*
X108619048Y-75535295D01*
X108619048Y-75535295D02*
X108666667Y-75440057D01*
X108666667Y-75440057D02*
X108714286Y-75392438D01*
X108714286Y-75392438D02*
X108809524Y-75344819D01*
X105166666Y-75344819D02*
X105166666Y-76059104D01*
X105166666Y-76059104D02*
X105119047Y-76201961D01*
X105119047Y-76201961D02*
X105023809Y-76297200D01*
X105023809Y-76297200D02*
X104880952Y-76344819D01*
X104880952Y-76344819D02*
X104785714Y-76344819D01*
X105690476Y-76344819D02*
X105880952Y-76344819D01*
X105880952Y-76344819D02*
X105976190Y-76297200D01*
X105976190Y-76297200D02*
X106023809Y-76249580D01*
X106023809Y-76249580D02*
X106119047Y-76106723D01*
X106119047Y-76106723D02*
X106166666Y-75916247D01*
X106166666Y-75916247D02*
X106166666Y-75535295D01*
X106166666Y-75535295D02*
X106119047Y-75440057D01*
X106119047Y-75440057D02*
X106071428Y-75392438D01*
X106071428Y-75392438D02*
X105976190Y-75344819D01*
X105976190Y-75344819D02*
X105785714Y-75344819D01*
X105785714Y-75344819D02*
X105690476Y-75392438D01*
X105690476Y-75392438D02*
X105642857Y-75440057D01*
X105642857Y-75440057D02*
X105595238Y-75535295D01*
X105595238Y-75535295D02*
X105595238Y-75773390D01*
X105595238Y-75773390D02*
X105642857Y-75868628D01*
X105642857Y-75868628D02*
X105690476Y-75916247D01*
X105690476Y-75916247D02*
X105785714Y-75963866D01*
X105785714Y-75963866D02*
X105976190Y-75963866D01*
X105976190Y-75963866D02*
X106071428Y-75916247D01*
X106071428Y-75916247D02*
X106119047Y-75868628D01*
X106119047Y-75868628D02*
X106166666Y-75773390D01*
X111190476Y-75344819D02*
X111190476Y-76059104D01*
X111190476Y-76059104D02*
X111142857Y-76201961D01*
X111142857Y-76201961D02*
X111047619Y-76297200D01*
X111047619Y-76297200D02*
X110904762Y-76344819D01*
X110904762Y-76344819D02*
X110809524Y-76344819D01*
X112190476Y-76344819D02*
X111619048Y-76344819D01*
X111904762Y-76344819D02*
X111904762Y-75344819D01*
X111904762Y-75344819D02*
X111809524Y-75487676D01*
X111809524Y-75487676D02*
X111714286Y-75582914D01*
X111714286Y-75582914D02*
X111619048Y-75630533D01*
X113142857Y-76344819D02*
X112571429Y-76344819D01*
X112857143Y-76344819D02*
X112857143Y-75344819D01*
X112857143Y-75344819D02*
X112761905Y-75487676D01*
X112761905Y-75487676D02*
X112666667Y-75582914D01*
X112666667Y-75582914D02*
X112571429Y-75630533D01*
X116190476Y-68844819D02*
X116190476Y-69559104D01*
X116190476Y-69559104D02*
X116142857Y-69701961D01*
X116142857Y-69701961D02*
X116047619Y-69797200D01*
X116047619Y-69797200D02*
X115904762Y-69844819D01*
X115904762Y-69844819D02*
X115809524Y-69844819D01*
X117190476Y-69844819D02*
X116619048Y-69844819D01*
X116904762Y-69844819D02*
X116904762Y-68844819D01*
X116904762Y-68844819D02*
X116809524Y-68987676D01*
X116809524Y-68987676D02*
X116714286Y-69082914D01*
X116714286Y-69082914D02*
X116619048Y-69130533D01*
X118047619Y-68844819D02*
X117857143Y-68844819D01*
X117857143Y-68844819D02*
X117761905Y-68892438D01*
X117761905Y-68892438D02*
X117714286Y-68940057D01*
X117714286Y-68940057D02*
X117619048Y-69082914D01*
X117619048Y-69082914D02*
X117571429Y-69273390D01*
X117571429Y-69273390D02*
X117571429Y-69654342D01*
X117571429Y-69654342D02*
X117619048Y-69749580D01*
X117619048Y-69749580D02*
X117666667Y-69797200D01*
X117666667Y-69797200D02*
X117761905Y-69844819D01*
X117761905Y-69844819D02*
X117952381Y-69844819D01*
X117952381Y-69844819D02*
X118047619Y-69797200D01*
X118047619Y-69797200D02*
X118095238Y-69749580D01*
X118095238Y-69749580D02*
X118142857Y-69654342D01*
X118142857Y-69654342D02*
X118142857Y-69416247D01*
X118142857Y-69416247D02*
X118095238Y-69321009D01*
X118095238Y-69321009D02*
X118047619Y-69273390D01*
X118047619Y-69273390D02*
X117952381Y-69225771D01*
X117952381Y-69225771D02*
X117761905Y-69225771D01*
X117761905Y-69225771D02*
X117666667Y-69273390D01*
X117666667Y-69273390D02*
X117619048Y-69321009D01*
X117619048Y-69321009D02*
X117571429Y-69416247D01*
X116190476Y-70844819D02*
X116190476Y-71559104D01*
X116190476Y-71559104D02*
X116142857Y-71701961D01*
X116142857Y-71701961D02*
X116047619Y-71797200D01*
X116047619Y-71797200D02*
X115904762Y-71844819D01*
X115904762Y-71844819D02*
X115809524Y-71844819D01*
X117190476Y-71844819D02*
X116619048Y-71844819D01*
X116904762Y-71844819D02*
X116904762Y-70844819D01*
X116904762Y-70844819D02*
X116809524Y-70987676D01*
X116809524Y-70987676D02*
X116714286Y-71082914D01*
X116714286Y-71082914D02*
X116619048Y-71130533D01*
X118095238Y-70844819D02*
X117619048Y-70844819D01*
X117619048Y-70844819D02*
X117571429Y-71321009D01*
X117571429Y-71321009D02*
X117619048Y-71273390D01*
X117619048Y-71273390D02*
X117714286Y-71225771D01*
X117714286Y-71225771D02*
X117952381Y-71225771D01*
X117952381Y-71225771D02*
X118047619Y-71273390D01*
X118047619Y-71273390D02*
X118095238Y-71321009D01*
X118095238Y-71321009D02*
X118142857Y-71416247D01*
X118142857Y-71416247D02*
X118142857Y-71654342D01*
X118142857Y-71654342D02*
X118095238Y-71749580D01*
X118095238Y-71749580D02*
X118047619Y-71797200D01*
X118047619Y-71797200D02*
X117952381Y-71844819D01*
X117952381Y-71844819D02*
X117714286Y-71844819D01*
X117714286Y-71844819D02*
X117619048Y-71797200D01*
X117619048Y-71797200D02*
X117571429Y-71749580D01*
X116190476Y-75344819D02*
X116190476Y-76059104D01*
X116190476Y-76059104D02*
X116142857Y-76201961D01*
X116142857Y-76201961D02*
X116047619Y-76297200D01*
X116047619Y-76297200D02*
X115904762Y-76344819D01*
X115904762Y-76344819D02*
X115809524Y-76344819D01*
X117190476Y-76344819D02*
X116619048Y-76344819D01*
X116904762Y-76344819D02*
X116904762Y-75344819D01*
X116904762Y-75344819D02*
X116809524Y-75487676D01*
X116809524Y-75487676D02*
X116714286Y-75582914D01*
X116714286Y-75582914D02*
X116619048Y-75630533D01*
X117523810Y-75344819D02*
X118142857Y-75344819D01*
X118142857Y-75344819D02*
X117809524Y-75725771D01*
X117809524Y-75725771D02*
X117952381Y-75725771D01*
X117952381Y-75725771D02*
X118047619Y-75773390D01*
X118047619Y-75773390D02*
X118095238Y-75821009D01*
X118095238Y-75821009D02*
X118142857Y-75916247D01*
X118142857Y-75916247D02*
X118142857Y-76154342D01*
X118142857Y-76154342D02*
X118095238Y-76249580D01*
X118095238Y-76249580D02*
X118047619Y-76297200D01*
X118047619Y-76297200D02*
X117952381Y-76344819D01*
X117952381Y-76344819D02*
X117666667Y-76344819D01*
X117666667Y-76344819D02*
X117571429Y-76297200D01*
X117571429Y-76297200D02*
X117523810Y-76249580D01*
X100166666Y-67344819D02*
X100166666Y-68059104D01*
X100166666Y-68059104D02*
X100119047Y-68201961D01*
X100119047Y-68201961D02*
X100023809Y-68297200D01*
X100023809Y-68297200D02*
X99880952Y-68344819D01*
X99880952Y-68344819D02*
X99785714Y-68344819D01*
X101071428Y-67344819D02*
X100880952Y-67344819D01*
X100880952Y-67344819D02*
X100785714Y-67392438D01*
X100785714Y-67392438D02*
X100738095Y-67440057D01*
X100738095Y-67440057D02*
X100642857Y-67582914D01*
X100642857Y-67582914D02*
X100595238Y-67773390D01*
X100595238Y-67773390D02*
X100595238Y-68154342D01*
X100595238Y-68154342D02*
X100642857Y-68249580D01*
X100642857Y-68249580D02*
X100690476Y-68297200D01*
X100690476Y-68297200D02*
X100785714Y-68344819D01*
X100785714Y-68344819D02*
X100976190Y-68344819D01*
X100976190Y-68344819D02*
X101071428Y-68297200D01*
X101071428Y-68297200D02*
X101119047Y-68249580D01*
X101119047Y-68249580D02*
X101166666Y-68154342D01*
X101166666Y-68154342D02*
X101166666Y-67916247D01*
X101166666Y-67916247D02*
X101119047Y-67821009D01*
X101119047Y-67821009D02*
X101071428Y-67773390D01*
X101071428Y-67773390D02*
X100976190Y-67725771D01*
X100976190Y-67725771D02*
X100785714Y-67725771D01*
X100785714Y-67725771D02*
X100690476Y-67773390D01*
X100690476Y-67773390D02*
X100642857Y-67821009D01*
X100642857Y-67821009D02*
X100595238Y-67916247D01*
X116190476Y-66844819D02*
X116190476Y-67559104D01*
X116190476Y-67559104D02*
X116142857Y-67701961D01*
X116142857Y-67701961D02*
X116047619Y-67797200D01*
X116047619Y-67797200D02*
X115904762Y-67844819D01*
X115904762Y-67844819D02*
X115809524Y-67844819D01*
X117190476Y-67844819D02*
X116619048Y-67844819D01*
X116904762Y-67844819D02*
X116904762Y-66844819D01*
X116904762Y-66844819D02*
X116809524Y-66987676D01*
X116809524Y-66987676D02*
X116714286Y-67082914D01*
X116714286Y-67082914D02*
X116619048Y-67130533D01*
X117523810Y-66844819D02*
X118190476Y-66844819D01*
X118190476Y-66844819D02*
X117761905Y-67844819D01*
X108388095Y-64329819D02*
X108388095Y-65139342D01*
X108388095Y-65139342D02*
X108435714Y-65234580D01*
X108435714Y-65234580D02*
X108483333Y-65282200D01*
X108483333Y-65282200D02*
X108578571Y-65329819D01*
X108578571Y-65329819D02*
X108769047Y-65329819D01*
X108769047Y-65329819D02*
X108864285Y-65282200D01*
X108864285Y-65282200D02*
X108911904Y-65234580D01*
X108911904Y-65234580D02*
X108959523Y-65139342D01*
X108959523Y-65139342D02*
X108959523Y-64329819D01*
X109959523Y-65329819D02*
X109388095Y-65329819D01*
X109673809Y-65329819D02*
X109673809Y-64329819D01*
X109673809Y-64329819D02*
X109578571Y-64472676D01*
X109578571Y-64472676D02*
X109483333Y-64567914D01*
X109483333Y-64567914D02*
X109388095Y-64615533D01*
X116190476Y-64844819D02*
X116190476Y-65559104D01*
X116190476Y-65559104D02*
X116142857Y-65701961D01*
X116142857Y-65701961D02*
X116047619Y-65797200D01*
X116047619Y-65797200D02*
X115904762Y-65844819D01*
X115904762Y-65844819D02*
X115809524Y-65844819D01*
X117190476Y-65844819D02*
X116619048Y-65844819D01*
X116904762Y-65844819D02*
X116904762Y-64844819D01*
X116904762Y-64844819D02*
X116809524Y-64987676D01*
X116809524Y-64987676D02*
X116714286Y-65082914D01*
X116714286Y-65082914D02*
X116619048Y-65130533D01*
X117761905Y-65273390D02*
X117666667Y-65225771D01*
X117666667Y-65225771D02*
X117619048Y-65178152D01*
X117619048Y-65178152D02*
X117571429Y-65082914D01*
X117571429Y-65082914D02*
X117571429Y-65035295D01*
X117571429Y-65035295D02*
X117619048Y-64940057D01*
X117619048Y-64940057D02*
X117666667Y-64892438D01*
X117666667Y-64892438D02*
X117761905Y-64844819D01*
X117761905Y-64844819D02*
X117952381Y-64844819D01*
X117952381Y-64844819D02*
X118047619Y-64892438D01*
X118047619Y-64892438D02*
X118095238Y-64940057D01*
X118095238Y-64940057D02*
X118142857Y-65035295D01*
X118142857Y-65035295D02*
X118142857Y-65082914D01*
X118142857Y-65082914D02*
X118095238Y-65178152D01*
X118095238Y-65178152D02*
X118047619Y-65225771D01*
X118047619Y-65225771D02*
X117952381Y-65273390D01*
X117952381Y-65273390D02*
X117761905Y-65273390D01*
X117761905Y-65273390D02*
X117666667Y-65321009D01*
X117666667Y-65321009D02*
X117619048Y-65368628D01*
X117619048Y-65368628D02*
X117571429Y-65463866D01*
X117571429Y-65463866D02*
X117571429Y-65654342D01*
X117571429Y-65654342D02*
X117619048Y-65749580D01*
X117619048Y-65749580D02*
X117666667Y-65797200D01*
X117666667Y-65797200D02*
X117761905Y-65844819D01*
X117761905Y-65844819D02*
X117952381Y-65844819D01*
X117952381Y-65844819D02*
X118047619Y-65797200D01*
X118047619Y-65797200D02*
X118095238Y-65749580D01*
X118095238Y-65749580D02*
X118142857Y-65654342D01*
X118142857Y-65654342D02*
X118142857Y-65463866D01*
X118142857Y-65463866D02*
X118095238Y-65368628D01*
X118095238Y-65368628D02*
X118047619Y-65321009D01*
X118047619Y-65321009D02*
X117952381Y-65273390D01*
D12*
%TO.C,J1*%
X116750000Y-61000000D02*
X112250000Y-61000000D01*
X112250000Y-61000000D02*
X112250000Y-55000000D01*
X112250000Y-55000000D02*
X116750000Y-55000000D01*
X116750000Y-55000000D02*
X116750000Y-61000000D01*
X117350000Y-59700000D02*
X117350000Y-59700000D01*
X117350000Y-59500000D02*
X117350000Y-59500000D01*
X117350000Y-59500000D02*
G75*
G02*
X117350000Y-59700000I0J-100000D01*
G01*
X117350000Y-59700000D02*
G75*
G02*
X117350000Y-59500000I0J100000D01*
G01*
D13*
%TO.C,J3*%
X99755000Y-72765000D02*
X100500000Y-72765000D01*
X99755000Y-73500000D02*
X99755000Y-72765000D01*
X99755000Y-74235000D02*
X99755000Y-74110000D01*
X99755000Y-74235000D02*
X99814435Y-74235000D01*
X99755000Y-74235000D02*
X101245000Y-74235000D01*
X101185565Y-74235000D02*
X101245000Y-74235000D01*
X101245000Y-74235000D02*
X101245000Y-74110000D01*
%TO.C,J8*%
X102255000Y-76765000D02*
X103000000Y-76765000D01*
X102255000Y-77500000D02*
X102255000Y-76765000D01*
X102255000Y-78235000D02*
X102255000Y-78110000D01*
X102255000Y-78235000D02*
X102314435Y-78235000D01*
X102255000Y-78235000D02*
X103745000Y-78235000D01*
X103685565Y-78235000D02*
X103745000Y-78235000D01*
X103745000Y-78235000D02*
X103745000Y-78110000D01*
%TO.C,J19*%
X98940000Y-54890000D02*
X98940000Y-55440000D01*
X98940000Y-57660000D02*
X98940000Y-59410000D01*
X98940000Y-59410000D02*
X100390000Y-59410000D01*
X108510000Y-59410000D02*
X108510000Y-60300000D01*
X109960000Y-54890000D02*
X98940000Y-54890000D01*
X109960000Y-55440000D02*
X109960000Y-54890000D01*
X109960000Y-57660000D02*
X109960000Y-59410000D01*
X109960000Y-59410000D02*
X108510000Y-59410000D01*
%TO.C,J14*%
X116255000Y-74265000D02*
X117000000Y-74265000D01*
X116255000Y-75000000D02*
X116255000Y-74265000D01*
X116255000Y-75735000D02*
X116255000Y-75610000D01*
X116255000Y-75735000D02*
X116314435Y-75735000D01*
X116255000Y-75735000D02*
X117745000Y-75735000D01*
X117685565Y-75735000D02*
X117745000Y-75735000D01*
X117745000Y-75735000D02*
X117745000Y-75610000D01*
%TO.C,J4*%
X99755000Y-74765000D02*
X100500000Y-74765000D01*
X99755000Y-75500000D02*
X99755000Y-74765000D01*
X99755000Y-76235000D02*
X99755000Y-76110000D01*
X99755000Y-76235000D02*
X99814435Y-76235000D01*
X99755000Y-76235000D02*
X101245000Y-76235000D01*
X101185565Y-76235000D02*
X101245000Y-76235000D01*
X101245000Y-76235000D02*
X101245000Y-76110000D01*
%TO.C,J2*%
X99755000Y-70765000D02*
X100500000Y-70765000D01*
X99755000Y-71500000D02*
X99755000Y-70765000D01*
X99755000Y-72235000D02*
X99755000Y-72110000D01*
X99755000Y-72235000D02*
X99814435Y-72235000D01*
X99755000Y-72235000D02*
X101245000Y-72235000D01*
X101185565Y-72235000D02*
X101245000Y-72235000D01*
X101245000Y-72235000D02*
X101245000Y-72110000D01*
%TO.C,R2*%
X114620000Y-65856359D02*
X114620000Y-66163641D01*
X115380000Y-65856359D02*
X115380000Y-66163641D01*
%TO.C,C18*%
X111490000Y-63634420D02*
X111490000Y-63915580D01*
X112510000Y-63634420D02*
X112510000Y-63915580D01*
%TO.C,J7*%
X99755000Y-76765000D02*
X100500000Y-76765000D01*
X99755000Y-77500000D02*
X99755000Y-76765000D01*
X99755000Y-78235000D02*
X99755000Y-78110000D01*
X99755000Y-78235000D02*
X99814435Y-78235000D01*
X99755000Y-78235000D02*
X101245000Y-78235000D01*
X101185565Y-78235000D02*
X101245000Y-78235000D01*
X101245000Y-78235000D02*
X101245000Y-78110000D01*
%TO.C,J12*%
X113755000Y-76765000D02*
X114500000Y-76765000D01*
X113755000Y-77500000D02*
X113755000Y-76765000D01*
X113755000Y-78235000D02*
X113755000Y-78110000D01*
X113755000Y-78235000D02*
X113814435Y-78235000D01*
X113755000Y-78235000D02*
X115245000Y-78235000D01*
X115185565Y-78235000D02*
X115245000Y-78235000D01*
X115245000Y-78235000D02*
X115245000Y-78110000D01*
%TO.C,J10*%
X107255000Y-76765000D02*
X108000000Y-76765000D01*
X107255000Y-77500000D02*
X107255000Y-76765000D01*
X107255000Y-78235000D02*
X107255000Y-78110000D01*
X107255000Y-78235000D02*
X107314435Y-78235000D01*
X107255000Y-78235000D02*
X108745000Y-78235000D01*
X108685565Y-78235000D02*
X108745000Y-78235000D01*
X108745000Y-78235000D02*
X108745000Y-78110000D01*
%TO.C,J9*%
X104755000Y-76765000D02*
X105500000Y-76765000D01*
X104755000Y-77500000D02*
X104755000Y-76765000D01*
X104755000Y-78235000D02*
X104755000Y-78110000D01*
X104755000Y-78235000D02*
X104814435Y-78235000D01*
X104755000Y-78235000D02*
X106245000Y-78235000D01*
X106185565Y-78235000D02*
X106245000Y-78235000D01*
X106245000Y-78235000D02*
X106245000Y-78110000D01*
%TO.C,J11*%
X111255000Y-76765000D02*
X112000000Y-76765000D01*
X111255000Y-77500000D02*
X111255000Y-76765000D01*
X111255000Y-78235000D02*
X111255000Y-78110000D01*
X111255000Y-78235000D02*
X111314435Y-78235000D01*
X111255000Y-78235000D02*
X112745000Y-78235000D01*
X112685565Y-78235000D02*
X112745000Y-78235000D01*
X112745000Y-78235000D02*
X112745000Y-78110000D01*
%TO.C,J16*%
X116255000Y-70265000D02*
X117000000Y-70265000D01*
X116255000Y-71000000D02*
X116255000Y-70265000D01*
X116255000Y-71735000D02*
X116255000Y-71610000D01*
X116255000Y-71735000D02*
X116314435Y-71735000D01*
X116255000Y-71735000D02*
X117745000Y-71735000D01*
X117685565Y-71735000D02*
X117745000Y-71735000D01*
X117745000Y-71735000D02*
X117745000Y-71610000D01*
%TO.C,J15*%
X116255000Y-72265000D02*
X117000000Y-72265000D01*
X116255000Y-73000000D02*
X116255000Y-72265000D01*
X116255000Y-73735000D02*
X116255000Y-73610000D01*
X116255000Y-73735000D02*
X116314435Y-73735000D01*
X116255000Y-73735000D02*
X117745000Y-73735000D01*
X117685565Y-73735000D02*
X117745000Y-73735000D01*
X117745000Y-73735000D02*
X117745000Y-73610000D01*
%TO.C,J13*%
X116255000Y-76765000D02*
X117000000Y-76765000D01*
X116255000Y-77500000D02*
X116255000Y-76765000D01*
X116255000Y-78235000D02*
X116255000Y-78110000D01*
X116255000Y-78235000D02*
X116314435Y-78235000D01*
X116255000Y-78235000D02*
X117745000Y-78235000D01*
X117685565Y-78235000D02*
X117745000Y-78235000D01*
X117745000Y-78235000D02*
X117745000Y-78110000D01*
%TO.C,J6*%
X99755000Y-68765000D02*
X100500000Y-68765000D01*
X99755000Y-69500000D02*
X99755000Y-68765000D01*
X99755000Y-70235000D02*
X99755000Y-70110000D01*
X99755000Y-70235000D02*
X99814435Y-70235000D01*
X99755000Y-70235000D02*
X101245000Y-70235000D01*
X101185565Y-70235000D02*
X101245000Y-70235000D01*
X101245000Y-70235000D02*
X101245000Y-70110000D01*
%TO.C,J17*%
X116255000Y-68265000D02*
X117000000Y-68265000D01*
X116255000Y-69000000D02*
X116255000Y-68265000D01*
X116255000Y-69735000D02*
X116255000Y-69610000D01*
X116255000Y-69735000D02*
X116314435Y-69735000D01*
X116255000Y-69735000D02*
X117745000Y-69735000D01*
X117685565Y-69735000D02*
X117745000Y-69735000D01*
X117745000Y-69735000D02*
X117745000Y-69610000D01*
D11*
%TO.C,U1*%
X106825000Y-65800000D02*
X106825000Y-66025000D01*
X106825000Y-65800000D02*
X111475000Y-65800000D01*
X106825000Y-75800800D02*
X106825000Y-75475800D01*
X106825000Y-75800800D02*
X111475000Y-75800800D01*
X111475000Y-65800000D02*
X111475000Y-66125000D01*
X111475000Y-75800800D02*
X111475000Y-75475800D01*
D13*
X106250000Y-66090000D02*
X106010000Y-65760000D01*
X106490000Y-65760000D01*
X106250000Y-66090000D01*
G36*
X106250000Y-66090000D02*
G01*
X106010000Y-65760000D01*
X106490000Y-65760000D01*
X106250000Y-66090000D01*
G37*
%TO.C,J18*%
X116255000Y-66265000D02*
X117000000Y-66265000D01*
X116255000Y-67000000D02*
X116255000Y-66265000D01*
X116255000Y-67735000D02*
X116255000Y-67610000D01*
X116255000Y-67735000D02*
X116314435Y-67735000D01*
X116255000Y-67735000D02*
X117745000Y-67735000D01*
X117685565Y-67735000D02*
X117745000Y-67735000D01*
X117745000Y-67735000D02*
X117745000Y-67610000D01*
%TD*%
%LPC*%
D14*
%TO.C,J1*%
X115250000Y-59600000D03*
X113750000Y-59600000D03*
%TD*%
D15*
%TO.C,J3*%
X100500000Y-73500000D03*
%TD*%
%TO.C,J8*%
X103000000Y-77500000D03*
%TD*%
D16*
%TO.C,J19*%
X107950000Y-59675000D03*
X106950000Y-59675000D03*
X105950000Y-59675000D03*
X104950000Y-59675000D03*
X103950000Y-59675000D03*
X102950000Y-59675000D03*
X101950000Y-59675000D03*
X100950000Y-59675000D03*
D17*
X109400000Y-56550000D03*
X99500000Y-56550000D03*
%TD*%
D15*
%TO.C,J14*%
X117000000Y-75000000D03*
%TD*%
%TO.C,J4*%
X100500000Y-75500000D03*
%TD*%
%TO.C,J2*%
X100500000Y-71500000D03*
%TD*%
D18*
%TO.C,R2*%
X115000000Y-65500000D03*
X115000000Y-66520000D03*
%TD*%
D19*
%TO.C,C18*%
X112000000Y-63000000D03*
X112000000Y-64550000D03*
%TD*%
D15*
%TO.C,J7*%
X100500000Y-77500000D03*
%TD*%
%TO.C,J12*%
X114500000Y-77500000D03*
%TD*%
%TO.C,J10*%
X108000000Y-77500000D03*
%TD*%
%TO.C,J9*%
X105500000Y-77500000D03*
%TD*%
%TO.C,J11*%
X112000000Y-77500000D03*
%TD*%
%TO.C,J16*%
X117000000Y-71000000D03*
%TD*%
%TO.C,J15*%
X117000000Y-73000000D03*
%TD*%
%TO.C,J13*%
X117000000Y-77500000D03*
%TD*%
%TO.C,J6*%
X100500000Y-69500000D03*
%TD*%
%TO.C,J17*%
X117000000Y-69000000D03*
%TD*%
D20*
%TO.C,U1*%
X109150000Y-70775000D03*
D21*
X106300000Y-66550000D03*
X106300000Y-67200000D03*
X106300000Y-67850000D03*
X106300000Y-68500000D03*
X106300000Y-69150000D03*
X106300000Y-69800000D03*
X106300000Y-70450000D03*
X106300000Y-71100000D03*
X106300000Y-71750000D03*
X106300000Y-72400000D03*
X106300000Y-73050000D03*
X106300000Y-73700000D03*
X106300000Y-74350000D03*
X106300000Y-75000000D03*
X112000000Y-75000000D03*
X112000000Y-74350000D03*
X112000000Y-73700000D03*
X112000000Y-73050000D03*
X112000000Y-72400000D03*
X112000000Y-71750000D03*
X112000000Y-71100000D03*
X112000000Y-70450000D03*
X112000000Y-69800000D03*
X112000000Y-69150000D03*
X112000000Y-68500000D03*
X112000000Y-67850000D03*
X112000000Y-67200000D03*
X112000000Y-66550000D03*
%TD*%
D15*
%TO.C,J18*%
X117000000Y-67000000D03*
%TD*%
%LPD*%
M02*
