M48
; DRILL file {KiCad 9.0.7} date 2026-03-04T22:19:44+0100
; FORMAT={-:-/ absolute / inch / decimal}
; #@! TF.CreationDate,2026-03-04T22:19:44+01:00
; #@! TF.GenerationSoftware,Kicad,Pcbnew,9.0.7
; #@! TF.FileFunction,Plated,1,2,PTH
FMAT,2
INCH
; #@! TA.AperFunction,Plated,PTH,ViaDrill
T1C0.0118
; #@! TA.AperFunction,Plated,PTH,ComponentDrill
T2C0.0197
; #@! TA.AperFunction,Plated,PTH,ComponentDrill
T3C0.0276
%
G90
G05
T1
X3.6614Y-3.0512
X3.7598Y-2.9134
X4.1535Y-2.8346
X4.2913Y-2.874
X4.2913Y-3.1693
X4.3307Y-2.7165
X4.3504Y-2.7756
X4.4882Y-2.874
X4.4882Y-3.0906
T2
X3.6024Y-2.9921
X3.6024Y-3.1102
X3.7205Y-2.9921
X3.7205Y-3.1102
X4.3701Y-3.1693
X4.4094Y-3.1693
X4.4488Y-3.1693
X4.4882Y-3.1693
T3
X3.7598Y-2.7165
X3.7598Y-2.7756
X3.8976Y-2.9921
X3.9567Y-2.9921
M30
