%TF.GenerationSoftware,KiCad,Pcbnew,9.0.7*%
%TF.CreationDate,2026-04-29T20:42:50+02:00*%
%TF.ProjectId,usb,7573622e-6b69-4636-9164-5f7063625858,rev?*%
%TF.SameCoordinates,Original*%
%TF.FileFunction,Legend,Top*%
%TF.FilePolarity,Positive*%
%FSLAX46Y46*%
G04 Gerber Fmt 4.6, Leading zero omitted, Abs format (unit mm)*
G04 Created by KiCad (PCBNEW 9.0.7) date 2026-04-29 20:42:50*
%MOMM*%
%LPD*%
G01*
G04 APERTURE LIST*
G04 Aperture macros list*
%AMRoundRect*
0 Rectangle with rounded corners*
0 $1 Rounding radius*
0 $2 $3 $4 $5 $6 $7 $8 $9 X,Y pos of 4 corners*
0 Add a 4 corners polygon primitive as box body*
4,1,4,$2,$3,$4,$5,$6,$7,$8,$9,$2,$3,0*
0 Add four circle primitives for the rounded corners*
1,1,$1+$1,$2,$3*
1,1,$1+$1,$4,$5*
1,1,$1+$1,$6,$7*
1,1,$1+$1,$8,$9*
0 Add four rect primitives between the rounded corners*
20,1,$1+$1,$2,$3,$4,$5,0*
20,1,$1+$1,$4,$5,$6,$7,0*
20,1,$1+$1,$6,$7,$8,$9,0*
20,1,$1+$1,$8,$9,$2,$3,0*%
%AMFreePoly0*
4,1,9,3.862500,-0.866500,0.737500,-0.866500,0.737500,-0.450000,-0.737500,-0.450000,-0.737500,0.450000,0.737500,0.450000,0.737500,0.866500,3.862500,0.866500,3.862500,-0.866500,3.862500,-0.866500,$1*%
G04 Aperture macros list end*
%ADD10C,0.150000*%
%ADD11C,0.254000*%
%ADD12C,0.120000*%
%ADD13C,0.200000*%
%ADD14RoundRect,0.225000X-0.225000X-0.250000X0.225000X-0.250000X0.225000X0.250000X-0.225000X0.250000X0*%
%ADD15RoundRect,0.150000X0.150000X-0.512500X0.150000X0.512500X-0.150000X0.512500X-0.150000X-0.512500X0*%
%ADD16R,0.850000X0.850000*%
%ADD17R,0.500000X1.100000*%
%ADD18RoundRect,0.225000X0.425000X0.225000X-0.425000X0.225000X-0.425000X-0.225000X0.425000X-0.225000X0*%
%ADD19FreePoly0,180.000000*%
%ADD20C,1.100000*%
%ADD21RoundRect,0.155000X-0.212500X-0.155000X0.212500X-0.155000X0.212500X0.155000X-0.212500X0.155000X0*%
%ADD22RoundRect,0.225000X-0.250000X0.225000X-0.250000X-0.225000X0.250000X-0.225000X0.250000X0.225000X0*%
%ADD23RoundRect,0.250000X0.625000X-0.375000X0.625000X0.375000X-0.625000X0.375000X-0.625000X-0.375000X0*%
%ADD24RoundRect,0.218750X-0.381250X0.218750X-0.381250X-0.218750X0.381250X-0.218750X0.381250X0.218750X0*%
%ADD25RoundRect,0.150000X0.150000X0.475000X-0.150000X0.475000X-0.150000X-0.475000X0.150000X-0.475000X0*%
%ADD26RoundRect,0.225000X0.225000X0.625000X-0.225000X0.625000X-0.225000X-0.625000X0.225000X-0.625000X0*%
%ADD27R,1.700000X1.700000*%
%ADD28C,1.700000*%
G04 APERTURE END LIST*
D10*
X108108333Y-69429580D02*
X108060714Y-69477200D01*
X108060714Y-69477200D02*
X107917857Y-69524819D01*
X107917857Y-69524819D02*
X107822619Y-69524819D01*
X107822619Y-69524819D02*
X107679762Y-69477200D01*
X107679762Y-69477200D02*
X107584524Y-69381961D01*
X107584524Y-69381961D02*
X107536905Y-69286723D01*
X107536905Y-69286723D02*
X107489286Y-69096247D01*
X107489286Y-69096247D02*
X107489286Y-68953390D01*
X107489286Y-68953390D02*
X107536905Y-68762914D01*
X107536905Y-68762914D02*
X107584524Y-68667676D01*
X107584524Y-68667676D02*
X107679762Y-68572438D01*
X107679762Y-68572438D02*
X107822619Y-68524819D01*
X107822619Y-68524819D02*
X107917857Y-68524819D01*
X107917857Y-68524819D02*
X108060714Y-68572438D01*
X108060714Y-68572438D02*
X108108333Y-68620057D01*
X108441667Y-68524819D02*
X109060714Y-68524819D01*
X109060714Y-68524819D02*
X108727381Y-68905771D01*
X108727381Y-68905771D02*
X108870238Y-68905771D01*
X108870238Y-68905771D02*
X108965476Y-68953390D01*
X108965476Y-68953390D02*
X109013095Y-69001009D01*
X109013095Y-69001009D02*
X109060714Y-69096247D01*
X109060714Y-69096247D02*
X109060714Y-69334342D01*
X109060714Y-69334342D02*
X109013095Y-69429580D01*
X109013095Y-69429580D02*
X108965476Y-69477200D01*
X108965476Y-69477200D02*
X108870238Y-69524819D01*
X108870238Y-69524819D02*
X108584524Y-69524819D01*
X108584524Y-69524819D02*
X108489286Y-69477200D01*
X108489286Y-69477200D02*
X108441667Y-69429580D01*
X111054819Y-76124404D02*
X111864342Y-76124404D01*
X111864342Y-76124404D02*
X111959580Y-76076785D01*
X111959580Y-76076785D02*
X112007200Y-76029166D01*
X112007200Y-76029166D02*
X112054819Y-75933928D01*
X112054819Y-75933928D02*
X112054819Y-75743452D01*
X112054819Y-75743452D02*
X112007200Y-75648214D01*
X112007200Y-75648214D02*
X111959580Y-75600595D01*
X111959580Y-75600595D02*
X111864342Y-75552976D01*
X111864342Y-75552976D02*
X111054819Y-75552976D01*
X112054819Y-74552976D02*
X112054819Y-75124404D01*
X112054819Y-74838690D02*
X111054819Y-74838690D01*
X111054819Y-74838690D02*
X111197676Y-74933928D01*
X111197676Y-74933928D02*
X111292914Y-75029166D01*
X111292914Y-75029166D02*
X111340533Y-75124404D01*
X91166666Y-73844819D02*
X91166666Y-74559104D01*
X91166666Y-74559104D02*
X91119047Y-74701961D01*
X91119047Y-74701961D02*
X91023809Y-74797200D01*
X91023809Y-74797200D02*
X90880952Y-74844819D01*
X90880952Y-74844819D02*
X90785714Y-74844819D01*
X92071428Y-74178152D02*
X92071428Y-74844819D01*
X91833333Y-73797200D02*
X91595238Y-74511485D01*
X91595238Y-74511485D02*
X92214285Y-74511485D01*
D11*
X107074318Y-76612381D02*
X105804318Y-76612381D01*
X105804318Y-76612381D02*
X105804318Y-76310000D01*
X105804318Y-76310000D02*
X105864794Y-76128571D01*
X105864794Y-76128571D02*
X105985746Y-76007619D01*
X105985746Y-76007619D02*
X106106699Y-75947142D01*
X106106699Y-75947142D02*
X106348603Y-75886666D01*
X106348603Y-75886666D02*
X106530032Y-75886666D01*
X106530032Y-75886666D02*
X106771937Y-75947142D01*
X106771937Y-75947142D02*
X106892889Y-76007619D01*
X106892889Y-76007619D02*
X107013842Y-76128571D01*
X107013842Y-76128571D02*
X107074318Y-76310000D01*
X107074318Y-76310000D02*
X107074318Y-76612381D01*
X107074318Y-74677142D02*
X107074318Y-75402857D01*
X107074318Y-75040000D02*
X105804318Y-75040000D01*
X105804318Y-75040000D02*
X105985746Y-75160952D01*
X105985746Y-75160952D02*
X106106699Y-75281904D01*
X106106699Y-75281904D02*
X106167175Y-75402857D01*
D10*
X102738095Y-71954819D02*
X102738095Y-72764342D01*
X102738095Y-72764342D02*
X102785714Y-72859580D01*
X102785714Y-72859580D02*
X102833333Y-72907200D01*
X102833333Y-72907200D02*
X102928571Y-72954819D01*
X102928571Y-72954819D02*
X103119047Y-72954819D01*
X103119047Y-72954819D02*
X103214285Y-72907200D01*
X103214285Y-72907200D02*
X103261904Y-72859580D01*
X103261904Y-72859580D02*
X103309523Y-72764342D01*
X103309523Y-72764342D02*
X103309523Y-71954819D01*
X103738095Y-72050057D02*
X103785714Y-72002438D01*
X103785714Y-72002438D02*
X103880952Y-71954819D01*
X103880952Y-71954819D02*
X104119047Y-71954819D01*
X104119047Y-71954819D02*
X104214285Y-72002438D01*
X104214285Y-72002438D02*
X104261904Y-72050057D01*
X104261904Y-72050057D02*
X104309523Y-72145295D01*
X104309523Y-72145295D02*
X104309523Y-72240533D01*
X104309523Y-72240533D02*
X104261904Y-72383390D01*
X104261904Y-72383390D02*
X103690476Y-72954819D01*
X103690476Y-72954819D02*
X104309523Y-72954819D01*
D11*
X99326667Y-76904318D02*
X99326667Y-77811461D01*
X99326667Y-77811461D02*
X99266190Y-77992889D01*
X99266190Y-77992889D02*
X99145238Y-78113842D01*
X99145238Y-78113842D02*
X98963809Y-78174318D01*
X98963809Y-78174318D02*
X98842857Y-78174318D01*
X100536190Y-76904318D02*
X99931428Y-76904318D01*
X99931428Y-76904318D02*
X99870952Y-77509080D01*
X99870952Y-77509080D02*
X99931428Y-77448603D01*
X99931428Y-77448603D02*
X100052381Y-77388127D01*
X100052381Y-77388127D02*
X100354762Y-77388127D01*
X100354762Y-77388127D02*
X100475714Y-77448603D01*
X100475714Y-77448603D02*
X100536190Y-77509080D01*
X100536190Y-77509080D02*
X100596667Y-77630032D01*
X100596667Y-77630032D02*
X100596667Y-77932413D01*
X100596667Y-77932413D02*
X100536190Y-78053365D01*
X100536190Y-78053365D02*
X100475714Y-78113842D01*
X100475714Y-78113842D02*
X100354762Y-78174318D01*
X100354762Y-78174318D02*
X100052381Y-78174318D01*
X100052381Y-78174318D02*
X99931428Y-78113842D01*
X99931428Y-78113842D02*
X99870952Y-78053365D01*
D10*
X91166666Y-76844819D02*
X91166666Y-77559104D01*
X91166666Y-77559104D02*
X91119047Y-77701961D01*
X91119047Y-77701961D02*
X91023809Y-77797200D01*
X91023809Y-77797200D02*
X90880952Y-77844819D01*
X90880952Y-77844819D02*
X90785714Y-77844819D01*
X91547619Y-76844819D02*
X92214285Y-76844819D01*
X92214285Y-76844819D02*
X91785714Y-77844819D01*
D11*
X93204318Y-70173332D02*
X94111461Y-70173332D01*
X94111461Y-70173332D02*
X94292889Y-70233809D01*
X94292889Y-70233809D02*
X94413842Y-70354761D01*
X94413842Y-70354761D02*
X94474318Y-70536190D01*
X94474318Y-70536190D02*
X94474318Y-70657142D01*
X93325270Y-69629047D02*
X93264794Y-69568571D01*
X93264794Y-69568571D02*
X93204318Y-69447618D01*
X93204318Y-69447618D02*
X93204318Y-69145237D01*
X93204318Y-69145237D02*
X93264794Y-69024285D01*
X93264794Y-69024285D02*
X93325270Y-68963809D01*
X93325270Y-68963809D02*
X93446222Y-68903332D01*
X93446222Y-68903332D02*
X93567175Y-68903332D01*
X93567175Y-68903332D02*
X93748603Y-68963809D01*
X93748603Y-68963809D02*
X94474318Y-69689523D01*
X94474318Y-69689523D02*
X94474318Y-68903332D01*
D10*
X107815833Y-68199580D02*
X107768214Y-68247200D01*
X107768214Y-68247200D02*
X107625357Y-68294819D01*
X107625357Y-68294819D02*
X107530119Y-68294819D01*
X107530119Y-68294819D02*
X107387262Y-68247200D01*
X107387262Y-68247200D02*
X107292024Y-68151961D01*
X107292024Y-68151961D02*
X107244405Y-68056723D01*
X107244405Y-68056723D02*
X107196786Y-67866247D01*
X107196786Y-67866247D02*
X107196786Y-67723390D01*
X107196786Y-67723390D02*
X107244405Y-67532914D01*
X107244405Y-67532914D02*
X107292024Y-67437676D01*
X107292024Y-67437676D02*
X107387262Y-67342438D01*
X107387262Y-67342438D02*
X107530119Y-67294819D01*
X107530119Y-67294819D02*
X107625357Y-67294819D01*
X107625357Y-67294819D02*
X107768214Y-67342438D01*
X107768214Y-67342438D02*
X107815833Y-67390057D01*
X108196786Y-67390057D02*
X108244405Y-67342438D01*
X108244405Y-67342438D02*
X108339643Y-67294819D01*
X108339643Y-67294819D02*
X108577738Y-67294819D01*
X108577738Y-67294819D02*
X108672976Y-67342438D01*
X108672976Y-67342438D02*
X108720595Y-67390057D01*
X108720595Y-67390057D02*
X108768214Y-67485295D01*
X108768214Y-67485295D02*
X108768214Y-67580533D01*
X108768214Y-67580533D02*
X108720595Y-67723390D01*
X108720595Y-67723390D02*
X108149167Y-68294819D01*
X108149167Y-68294819D02*
X108768214Y-68294819D01*
X102289580Y-70417857D02*
X102337200Y-70465476D01*
X102337200Y-70465476D02*
X102384819Y-70608333D01*
X102384819Y-70608333D02*
X102384819Y-70703571D01*
X102384819Y-70703571D02*
X102337200Y-70846428D01*
X102337200Y-70846428D02*
X102241961Y-70941666D01*
X102241961Y-70941666D02*
X102146723Y-70989285D01*
X102146723Y-70989285D02*
X101956247Y-71036904D01*
X101956247Y-71036904D02*
X101813390Y-71036904D01*
X101813390Y-71036904D02*
X101622914Y-70989285D01*
X101622914Y-70989285D02*
X101527676Y-70941666D01*
X101527676Y-70941666D02*
X101432438Y-70846428D01*
X101432438Y-70846428D02*
X101384819Y-70703571D01*
X101384819Y-70703571D02*
X101384819Y-70608333D01*
X101384819Y-70608333D02*
X101432438Y-70465476D01*
X101432438Y-70465476D02*
X101480057Y-70417857D01*
X102384819Y-69465476D02*
X102384819Y-70036904D01*
X102384819Y-69751190D02*
X101384819Y-69751190D01*
X101384819Y-69751190D02*
X101527676Y-69846428D01*
X101527676Y-69846428D02*
X101622914Y-69941666D01*
X101622914Y-69941666D02*
X101670533Y-70036904D01*
X101813390Y-68894047D02*
X101765771Y-68989285D01*
X101765771Y-68989285D02*
X101718152Y-69036904D01*
X101718152Y-69036904D02*
X101622914Y-69084523D01*
X101622914Y-69084523D02*
X101575295Y-69084523D01*
X101575295Y-69084523D02*
X101480057Y-69036904D01*
X101480057Y-69036904D02*
X101432438Y-68989285D01*
X101432438Y-68989285D02*
X101384819Y-68894047D01*
X101384819Y-68894047D02*
X101384819Y-68703571D01*
X101384819Y-68703571D02*
X101432438Y-68608333D01*
X101432438Y-68608333D02*
X101480057Y-68560714D01*
X101480057Y-68560714D02*
X101575295Y-68513095D01*
X101575295Y-68513095D02*
X101622914Y-68513095D01*
X101622914Y-68513095D02*
X101718152Y-68560714D01*
X101718152Y-68560714D02*
X101765771Y-68608333D01*
X101765771Y-68608333D02*
X101813390Y-68703571D01*
X101813390Y-68703571D02*
X101813390Y-68894047D01*
X101813390Y-68894047D02*
X101861009Y-68989285D01*
X101861009Y-68989285D02*
X101908628Y-69036904D01*
X101908628Y-69036904D02*
X102003866Y-69084523D01*
X102003866Y-69084523D02*
X102194342Y-69084523D01*
X102194342Y-69084523D02*
X102289580Y-69036904D01*
X102289580Y-69036904D02*
X102337200Y-68989285D01*
X102337200Y-68989285D02*
X102384819Y-68894047D01*
X102384819Y-68894047D02*
X102384819Y-68703571D01*
X102384819Y-68703571D02*
X102337200Y-68608333D01*
X102337200Y-68608333D02*
X102289580Y-68560714D01*
X102289580Y-68560714D02*
X102194342Y-68513095D01*
X102194342Y-68513095D02*
X102003866Y-68513095D01*
X102003866Y-68513095D02*
X101908628Y-68560714D01*
X101908628Y-68560714D02*
X101861009Y-68608333D01*
X101861009Y-68608333D02*
X101813390Y-68703571D01*
X94166666Y-73844819D02*
X94166666Y-74559104D01*
X94166666Y-74559104D02*
X94119047Y-74701961D01*
X94119047Y-74701961D02*
X94023809Y-74797200D01*
X94023809Y-74797200D02*
X93880952Y-74844819D01*
X93880952Y-74844819D02*
X93785714Y-74844819D01*
X95071428Y-73844819D02*
X94880952Y-73844819D01*
X94880952Y-73844819D02*
X94785714Y-73892438D01*
X94785714Y-73892438D02*
X94738095Y-73940057D01*
X94738095Y-73940057D02*
X94642857Y-74082914D01*
X94642857Y-74082914D02*
X94595238Y-74273390D01*
X94595238Y-74273390D02*
X94595238Y-74654342D01*
X94595238Y-74654342D02*
X94642857Y-74749580D01*
X94642857Y-74749580D02*
X94690476Y-74797200D01*
X94690476Y-74797200D02*
X94785714Y-74844819D01*
X94785714Y-74844819D02*
X94976190Y-74844819D01*
X94976190Y-74844819D02*
X95071428Y-74797200D01*
X95071428Y-74797200D02*
X95119047Y-74749580D01*
X95119047Y-74749580D02*
X95166666Y-74654342D01*
X95166666Y-74654342D02*
X95166666Y-74416247D01*
X95166666Y-74416247D02*
X95119047Y-74321009D01*
X95119047Y-74321009D02*
X95071428Y-74273390D01*
X95071428Y-74273390D02*
X94976190Y-74225771D01*
X94976190Y-74225771D02*
X94785714Y-74225771D01*
X94785714Y-74225771D02*
X94690476Y-74273390D01*
X94690476Y-74273390D02*
X94642857Y-74321009D01*
X94642857Y-74321009D02*
X94595238Y-74416247D01*
X109101009Y-76733333D02*
X109101009Y-77066666D01*
X109624819Y-77066666D02*
X108624819Y-77066666D01*
X108624819Y-77066666D02*
X108624819Y-76590476D01*
X109624819Y-75685714D02*
X109624819Y-76257142D01*
X109624819Y-75971428D02*
X108624819Y-75971428D01*
X108624819Y-75971428D02*
X108767676Y-76066666D01*
X108767676Y-76066666D02*
X108862914Y-76161904D01*
X108862914Y-76161904D02*
X108910533Y-76257142D01*
X110481009Y-76895833D02*
X110481009Y-77229166D01*
X111004819Y-77229166D02*
X110004819Y-77229166D01*
X110004819Y-77229166D02*
X110004819Y-76752976D01*
X110481009Y-76038690D02*
X110528628Y-75895833D01*
X110528628Y-75895833D02*
X110576247Y-75848214D01*
X110576247Y-75848214D02*
X110671485Y-75800595D01*
X110671485Y-75800595D02*
X110814342Y-75800595D01*
X110814342Y-75800595D02*
X110909580Y-75848214D01*
X110909580Y-75848214D02*
X110957200Y-75895833D01*
X110957200Y-75895833D02*
X111004819Y-75991071D01*
X111004819Y-75991071D02*
X111004819Y-76372023D01*
X111004819Y-76372023D02*
X110004819Y-76372023D01*
X110004819Y-76372023D02*
X110004819Y-76038690D01*
X110004819Y-76038690D02*
X110052438Y-75943452D01*
X110052438Y-75943452D02*
X110100057Y-75895833D01*
X110100057Y-75895833D02*
X110195295Y-75848214D01*
X110195295Y-75848214D02*
X110290533Y-75848214D01*
X110290533Y-75848214D02*
X110385771Y-75895833D01*
X110385771Y-75895833D02*
X110433390Y-75943452D01*
X110433390Y-75943452D02*
X110481009Y-76038690D01*
X110481009Y-76038690D02*
X110481009Y-76372023D01*
X111004819Y-74848214D02*
X111004819Y-75419642D01*
X111004819Y-75133928D02*
X110004819Y-75133928D01*
X110004819Y-75133928D02*
X110147676Y-75229166D01*
X110147676Y-75229166D02*
X110242914Y-75324404D01*
X110242914Y-75324404D02*
X110290533Y-75419642D01*
X113116666Y-71904819D02*
X113116666Y-72619104D01*
X113116666Y-72619104D02*
X113069047Y-72761961D01*
X113069047Y-72761961D02*
X112973809Y-72857200D01*
X112973809Y-72857200D02*
X112830952Y-72904819D01*
X112830952Y-72904819D02*
X112735714Y-72904819D01*
X113497619Y-71904819D02*
X114116666Y-71904819D01*
X114116666Y-71904819D02*
X113783333Y-72285771D01*
X113783333Y-72285771D02*
X113926190Y-72285771D01*
X113926190Y-72285771D02*
X114021428Y-72333390D01*
X114021428Y-72333390D02*
X114069047Y-72381009D01*
X114069047Y-72381009D02*
X114116666Y-72476247D01*
X114116666Y-72476247D02*
X114116666Y-72714342D01*
X114116666Y-72714342D02*
X114069047Y-72809580D01*
X114069047Y-72809580D02*
X114021428Y-72857200D01*
X114021428Y-72857200D02*
X113926190Y-72904819D01*
X113926190Y-72904819D02*
X113640476Y-72904819D01*
X113640476Y-72904819D02*
X113545238Y-72857200D01*
X113545238Y-72857200D02*
X113497619Y-72809580D01*
X103494819Y-80833333D02*
X104209104Y-80833333D01*
X104209104Y-80833333D02*
X104351961Y-80880952D01*
X104351961Y-80880952D02*
X104447200Y-80976190D01*
X104447200Y-80976190D02*
X104494819Y-81119047D01*
X104494819Y-81119047D02*
X104494819Y-81214285D01*
X104494819Y-79833333D02*
X104494819Y-80404761D01*
X104494819Y-80119047D02*
X103494819Y-80119047D01*
X103494819Y-80119047D02*
X103637676Y-80214285D01*
X103637676Y-80214285D02*
X103732914Y-80309523D01*
X103732914Y-80309523D02*
X103780533Y-80404761D01*
X107632142Y-66429580D02*
X107584523Y-66477200D01*
X107584523Y-66477200D02*
X107441666Y-66524819D01*
X107441666Y-66524819D02*
X107346428Y-66524819D01*
X107346428Y-66524819D02*
X107203571Y-66477200D01*
X107203571Y-66477200D02*
X107108333Y-66381961D01*
X107108333Y-66381961D02*
X107060714Y-66286723D01*
X107060714Y-66286723D02*
X107013095Y-66096247D01*
X107013095Y-66096247D02*
X107013095Y-65953390D01*
X107013095Y-65953390D02*
X107060714Y-65762914D01*
X107060714Y-65762914D02*
X107108333Y-65667676D01*
X107108333Y-65667676D02*
X107203571Y-65572438D01*
X107203571Y-65572438D02*
X107346428Y-65524819D01*
X107346428Y-65524819D02*
X107441666Y-65524819D01*
X107441666Y-65524819D02*
X107584523Y-65572438D01*
X107584523Y-65572438D02*
X107632142Y-65620057D01*
X108584523Y-66524819D02*
X108013095Y-66524819D01*
X108298809Y-66524819D02*
X108298809Y-65524819D01*
X108298809Y-65524819D02*
X108203571Y-65667676D01*
X108203571Y-65667676D02*
X108108333Y-65762914D01*
X108108333Y-65762914D02*
X108013095Y-65810533D01*
X108917857Y-65524819D02*
X109584523Y-65524819D01*
X109584523Y-65524819D02*
X109155952Y-66524819D01*
X94166666Y-76844819D02*
X94166666Y-77559104D01*
X94166666Y-77559104D02*
X94119047Y-77701961D01*
X94119047Y-77701961D02*
X94023809Y-77797200D01*
X94023809Y-77797200D02*
X93880952Y-77844819D01*
X93880952Y-77844819D02*
X93785714Y-77844819D01*
X94785714Y-77273390D02*
X94690476Y-77225771D01*
X94690476Y-77225771D02*
X94642857Y-77178152D01*
X94642857Y-77178152D02*
X94595238Y-77082914D01*
X94595238Y-77082914D02*
X94595238Y-77035295D01*
X94595238Y-77035295D02*
X94642857Y-76940057D01*
X94642857Y-76940057D02*
X94690476Y-76892438D01*
X94690476Y-76892438D02*
X94785714Y-76844819D01*
X94785714Y-76844819D02*
X94976190Y-76844819D01*
X94976190Y-76844819D02*
X95071428Y-76892438D01*
X95071428Y-76892438D02*
X95119047Y-76940057D01*
X95119047Y-76940057D02*
X95166666Y-77035295D01*
X95166666Y-77035295D02*
X95166666Y-77082914D01*
X95166666Y-77082914D02*
X95119047Y-77178152D01*
X95119047Y-77178152D02*
X95071428Y-77225771D01*
X95071428Y-77225771D02*
X94976190Y-77273390D01*
X94976190Y-77273390D02*
X94785714Y-77273390D01*
X94785714Y-77273390D02*
X94690476Y-77321009D01*
X94690476Y-77321009D02*
X94642857Y-77368628D01*
X94642857Y-77368628D02*
X94595238Y-77463866D01*
X94595238Y-77463866D02*
X94595238Y-77654342D01*
X94595238Y-77654342D02*
X94642857Y-77749580D01*
X94642857Y-77749580D02*
X94690476Y-77797200D01*
X94690476Y-77797200D02*
X94785714Y-77844819D01*
X94785714Y-77844819D02*
X94976190Y-77844819D01*
X94976190Y-77844819D02*
X95071428Y-77797200D01*
X95071428Y-77797200D02*
X95119047Y-77749580D01*
X95119047Y-77749580D02*
X95166666Y-77654342D01*
X95166666Y-77654342D02*
X95166666Y-77463866D01*
X95166666Y-77463866D02*
X95119047Y-77368628D01*
X95119047Y-77368628D02*
X95071428Y-77321009D01*
X95071428Y-77321009D02*
X94976190Y-77273390D01*
D12*
%TO.C,C3*%
X108134420Y-69990000D02*
X108415580Y-69990000D01*
X108134420Y-71010000D02*
X108415580Y-71010000D01*
%TO.C,U1*%
X112440000Y-74452500D02*
X112490000Y-74452500D01*
X112440000Y-76272500D02*
X112440000Y-74452500D01*
X112490000Y-76272500D02*
X112440000Y-76272500D01*
X115510000Y-74452500D02*
X115560000Y-74452500D01*
X115560000Y-74452500D02*
X115560000Y-76272500D01*
X115560000Y-76272500D02*
X115510000Y-76272500D01*
X112490000Y-76812500D02*
X112160000Y-77052500D01*
X112160000Y-76572500D01*
X112490000Y-76812500D01*
G36*
X112490000Y-76812500D02*
G01*
X112160000Y-77052500D01*
X112160000Y-76572500D01*
X112490000Y-76812500D01*
G37*
%TO.C,J4*%
X90755000Y-75265000D02*
X91500000Y-75265000D01*
X90755000Y-76000000D02*
X90755000Y-75265000D01*
X90755000Y-76735000D02*
X90755000Y-76610000D01*
X90755000Y-76735000D02*
X90814435Y-76735000D01*
X90755000Y-76735000D02*
X92245000Y-76735000D01*
X92185565Y-76735000D02*
X92245000Y-76735000D01*
X92245000Y-76735000D02*
X92245000Y-76610000D01*
D13*
%TO.C,D1*%
X105850000Y-74875000D02*
X105850000Y-76475000D01*
X107150000Y-73950000D02*
X107150000Y-76475000D01*
D12*
%TO.C,U2*%
X102140000Y-66640000D02*
X104860000Y-66640000D01*
X102140000Y-67620000D02*
X102140000Y-66640000D01*
X102140000Y-70380000D02*
X102140000Y-71360000D01*
X104720000Y-71360000D02*
X102140000Y-71360000D01*
X105510000Y-71540000D02*
X105030000Y-71540000D01*
X105270000Y-71210000D01*
X105510000Y-71540000D01*
G36*
X105510000Y-71540000D02*
G01*
X105030000Y-71540000D01*
X105270000Y-71210000D01*
X105510000Y-71540000D01*
G37*
D13*
%TO.C,J5*%
X96900000Y-75900000D02*
X96900000Y-75900000D01*
X96900000Y-76100000D02*
X96900000Y-76100000D01*
X97500000Y-74600000D02*
X102000000Y-74600000D01*
X97500000Y-80600000D02*
X97500000Y-74600000D01*
X102000000Y-74600000D02*
X102000000Y-80600000D01*
X102000000Y-80600000D02*
X97500000Y-80600000D01*
X96900000Y-75900000D02*
G75*
G02*
X96900000Y-76100000I0J-100000D01*
G01*
X96900000Y-76100000D02*
G75*
G02*
X96900000Y-75900000I0J100000D01*
G01*
D12*
%TO.C,J7*%
X90755000Y-78265000D02*
X91500000Y-78265000D01*
X90755000Y-79000000D02*
X90755000Y-78265000D01*
X90755000Y-79735000D02*
X90755000Y-79610000D01*
X90755000Y-79735000D02*
X90814435Y-79735000D01*
X90755000Y-79735000D02*
X92245000Y-79735000D01*
X92185565Y-79735000D02*
X92245000Y-79735000D01*
X92245000Y-79735000D02*
X92245000Y-79610000D01*
D13*
%TO.C,J2*%
X90900000Y-67500000D02*
X96900000Y-67500000D01*
X90900000Y-72000000D02*
X90900000Y-67500000D01*
X95400000Y-66900000D02*
X95400000Y-66900000D01*
X95600000Y-66900000D02*
X95600000Y-66900000D01*
X96900000Y-67500000D02*
X96900000Y-72000000D01*
X96900000Y-72000000D02*
X90900000Y-72000000D01*
X95400000Y-66900000D02*
G75*
G02*
X95600000Y-66900000I100000J0D01*
G01*
X95600000Y-66900000D02*
G75*
G02*
X95400000Y-66900000I-100000J0D01*
G01*
D12*
%TO.C,C2*%
X107866665Y-68640000D02*
X108098335Y-68640000D01*
X107866665Y-69360000D02*
X108098335Y-69360000D01*
%TO.C,C18*%
X99990000Y-69634420D02*
X99990000Y-69915580D01*
X101010000Y-69634420D02*
X101010000Y-69915580D01*
%TO.C,J6*%
X93755000Y-75265000D02*
X94500000Y-75265000D01*
X93755000Y-76000000D02*
X93755000Y-75265000D01*
X93755000Y-76735000D02*
X93755000Y-76610000D01*
X93755000Y-76735000D02*
X93814435Y-76735000D01*
X93755000Y-76735000D02*
X95245000Y-76735000D01*
X95185565Y-76735000D02*
X95245000Y-76735000D01*
X95245000Y-76735000D02*
X95245000Y-76610000D01*
%TO.C,F1*%
X110090000Y-77002064D02*
X110090000Y-75797936D01*
X111910000Y-77002064D02*
X111910000Y-75797936D01*
%TO.C,FB1*%
X108440000Y-75662878D02*
X108440000Y-76462122D01*
X109560000Y-75662878D02*
X109560000Y-76462122D01*
%TO.C,J3*%
X110940000Y-65840000D02*
X110940000Y-66390000D01*
X110940000Y-68610000D02*
X110940000Y-70360000D01*
X110940000Y-70360000D02*
X112390000Y-70360000D01*
X114510000Y-70360000D02*
X114510000Y-71250000D01*
X115960000Y-65840000D02*
X110940000Y-65840000D01*
X115960000Y-66390000D02*
X115960000Y-65840000D01*
X115960000Y-68610000D02*
X115960000Y-70360000D01*
X115960000Y-70360000D02*
X114510000Y-70360000D01*
%TO.C,J1*%
X105040000Y-81880000D02*
X105040000Y-80500000D01*
X106420000Y-81880000D02*
X105040000Y-81880000D01*
X107690000Y-79120000D02*
X115420000Y-79120000D01*
X107690000Y-81880000D02*
X107690000Y-79120000D01*
X107690000Y-81880000D02*
X115420000Y-81880000D01*
X115420000Y-81880000D02*
X115420000Y-79120000D01*
%TO.C,C17*%
X108134420Y-66990000D02*
X108415580Y-66990000D01*
X108134420Y-68010000D02*
X108415580Y-68010000D01*
%TO.C,J8*%
X93755000Y-78265000D02*
X94500000Y-78265000D01*
X93755000Y-79000000D02*
X93755000Y-78265000D01*
X93755000Y-79735000D02*
X93755000Y-79610000D01*
X93755000Y-79735000D02*
X93814435Y-79735000D01*
X93755000Y-79735000D02*
X95245000Y-79735000D01*
X95185565Y-79735000D02*
X95245000Y-79735000D01*
X95245000Y-79735000D02*
X95245000Y-79610000D01*
%TD*%
%LPC*%
D14*
%TO.C,C3*%
X107500000Y-70500000D03*
X109050000Y-70500000D03*
%TD*%
D15*
%TO.C,U1*%
X113050000Y-76500000D03*
X114000000Y-76500000D03*
X114950000Y-76500000D03*
X114950000Y-74225000D03*
X114000000Y-74225000D03*
X113050000Y-74225000D03*
%TD*%
D16*
%TO.C,J4*%
X91500000Y-76000000D03*
%TD*%
D17*
%TO.C,D1*%
X106500000Y-74500000D03*
X106500000Y-76850000D03*
%TD*%
D18*
%TO.C,U2*%
X105450000Y-70500000D03*
D19*
X105362500Y-69000000D03*
D18*
X105450000Y-67500000D03*
%TD*%
D20*
%TO.C,J5*%
X99000000Y-76000000D03*
X100500000Y-76000000D03*
%TD*%
D16*
%TO.C,J7*%
X91500000Y-79000000D03*
%TD*%
D20*
%TO.C,J2*%
X95500000Y-69000000D03*
X95500000Y-70500000D03*
%TD*%
D21*
%TO.C,C2*%
X107415000Y-69000000D03*
X108550000Y-69000000D03*
%TD*%
D22*
%TO.C,C18*%
X100500000Y-69000000D03*
X100500000Y-70550000D03*
%TD*%
D16*
%TO.C,J6*%
X94500000Y-76000000D03*
%TD*%
D23*
%TO.C,F1*%
X111000000Y-77800000D03*
X111000000Y-75000000D03*
%TD*%
D24*
%TO.C,FB1*%
X109000000Y-75000000D03*
X109000000Y-77125000D03*
%TD*%
D25*
%TO.C,J3*%
X113950000Y-70625000D03*
X112950000Y-70625000D03*
D26*
X115400000Y-67500000D03*
X111500000Y-67500000D03*
%TD*%
D27*
%TO.C,J1*%
X106420000Y-80500000D03*
D28*
X108960000Y-80500000D03*
X111500000Y-80500000D03*
X114040000Y-80500000D03*
%TD*%
D14*
%TO.C,C17*%
X107500000Y-67500000D03*
X109050000Y-67500000D03*
%TD*%
D16*
%TO.C,J8*%
X94500000Y-79000000D03*
%TD*%
%LPD*%
M02*
