%TF.GenerationSoftware,KiCad,Pcbnew,9.0.7*%
%TF.CreationDate,2026-03-01T17:50:25+01:00*%
%TF.ProjectId,usb,7573622e-6b69-4636-9164-5f7063625858,rev?*%
%TF.SameCoordinates,Original*%
%TF.FileFunction,Copper,L1,Top*%
%TF.FilePolarity,Positive*%
%FSLAX46Y46*%
G04 Gerber Fmt 4.6, Leading zero omitted, Abs format (unit mm)*
G04 Created by KiCad (PCBNEW 9.0.7) date 2026-03-01 17:50:25*
%MOMM*%
%LPD*%
G01*
G04 APERTURE LIST*
G04 Aperture macros list*
%AMRoundRect*
0 Rectangle with rounded corners*
0 $1 Rounding radius*
0 $2 $3 $4 $5 $6 $7 $8 $9 X,Y pos of 4 corners*
0 Add a 4 corners polygon primitive as box body*
4,1,4,$2,$3,$4,$5,$6,$7,$8,$9,$2,$3,0*
0 Add four circle primitives for the rounded corners*
1,1,$1+$1,$2,$3*
1,1,$1+$1,$4,$5*
1,1,$1+$1,$6,$7*
1,1,$1+$1,$8,$9*
0 Add four rect primitives between the rounded corners*
20,1,$1+$1,$2,$3,$4,$5,0*
20,1,$1+$1,$4,$5,$6,$7,0*
20,1,$1+$1,$6,$7,$8,$9,0*
20,1,$1+$1,$8,$9,$2,$3,0*%
%AMFreePoly0*
4,1,9,3.862500,-0.866500,0.737500,-0.866500,0.737500,-0.450000,-0.737500,-0.450000,-0.737500,0.450000,0.737500,0.450000,0.737500,0.866500,3.862500,0.866500,3.862500,-0.866500,3.862500,-0.866500,$1*%
G04 Aperture macros list end*
%TA.AperFunction,ComponentPad*%
%ADD10R,0.850000X0.850000*%
%TD*%
%TA.AperFunction,SMDPad,CuDef*%
%ADD11RoundRect,0.225000X-0.225000X-0.250000X0.225000X-0.250000X0.225000X0.250000X-0.225000X0.250000X0*%
%TD*%
%TA.AperFunction,SMDPad,CuDef*%
%ADD12RoundRect,0.150000X0.150000X-0.512500X0.150000X0.512500X-0.150000X0.512500X-0.150000X-0.512500X0*%
%TD*%
%TA.AperFunction,SMDPad,CuDef*%
%ADD13RoundRect,0.225000X-0.375000X0.225000X-0.375000X-0.225000X0.375000X-0.225000X0.375000X0.225000X0*%
%TD*%
%TA.AperFunction,SMDPad,CuDef*%
%ADD14RoundRect,0.225000X0.425000X0.225000X-0.425000X0.225000X-0.425000X-0.225000X0.425000X-0.225000X0*%
%TD*%
%TA.AperFunction,SMDPad,CuDef*%
%ADD15FreePoly0,180.000000*%
%TD*%
%TA.AperFunction,SMDPad,CuDef*%
%ADD16RoundRect,0.155000X-0.212500X-0.155000X0.212500X-0.155000X0.212500X0.155000X-0.212500X0.155000X0*%
%TD*%
%TA.AperFunction,SMDPad,CuDef*%
%ADD17RoundRect,0.175000X-1.175000X0.175000X-1.175000X-0.175000X1.175000X-0.175000X1.175000X0.175000X0*%
%TD*%
%TA.AperFunction,SMDPad,CuDef*%
%ADD18RoundRect,0.250000X-0.700000X0.300000X-0.700000X-0.300000X0.700000X-0.300000X0.700000X0.300000X0*%
%TD*%
%TA.AperFunction,SMDPad,CuDef*%
%ADD19RoundRect,0.225000X-0.250000X0.225000X-0.250000X-0.225000X0.250000X-0.225000X0.250000X0.225000X0*%
%TD*%
%TA.AperFunction,SMDPad,CuDef*%
%ADD20RoundRect,0.250000X0.625000X-0.375000X0.625000X0.375000X-0.625000X0.375000X-0.625000X-0.375000X0*%
%TD*%
%TA.AperFunction,SMDPad,CuDef*%
%ADD21RoundRect,0.218750X-0.381250X0.218750X-0.381250X-0.218750X0.381250X-0.218750X0.381250X0.218750X0*%
%TD*%
%TA.AperFunction,SMDPad,CuDef*%
%ADD22RoundRect,0.150000X0.150000X0.475000X-0.150000X0.475000X-0.150000X-0.475000X0.150000X-0.475000X0*%
%TD*%
%TA.AperFunction,SMDPad,CuDef*%
%ADD23RoundRect,0.225000X0.225000X0.625000X-0.225000X0.625000X-0.225000X-0.625000X0.225000X-0.625000X0*%
%TD*%
%TA.AperFunction,ComponentPad*%
%ADD24C,0.850000*%
%TD*%
%TA.AperFunction,SMDPad,CuDef*%
%ADD25RoundRect,0.175000X-0.175000X-1.175000X0.175000X-1.175000X0.175000X1.175000X-0.175000X1.175000X0*%
%TD*%
%TA.AperFunction,SMDPad,CuDef*%
%ADD26RoundRect,0.250000X-0.300000X-0.700000X0.300000X-0.700000X0.300000X0.700000X-0.300000X0.700000X0*%
%TD*%
%TA.AperFunction,ViaPad*%
%ADD27C,0.604799*%
%TD*%
%TA.AperFunction,Conductor*%
%ADD28C,0.500000*%
%TD*%
%TA.AperFunction,Conductor*%
%ADD29C,0.152400*%
%TD*%
%TA.AperFunction,Conductor*%
%ADD30C,0.300000*%
%TD*%
%TA.AperFunction,Conductor*%
%ADD31C,0.155814*%
%TD*%
G04 APERTURE END LIST*
D10*
%TO.P,J8,1,Pin_1*%
%TO.N,GND*%
X94500000Y-79000000D03*
%TD*%
%TO.P,J7,1,Pin_1*%
%TO.N,GND*%
X91500000Y-79000000D03*
%TD*%
%TO.P,J6,1,Pin_1*%
%TO.N,GND*%
X94500000Y-76000000D03*
%TD*%
%TO.P,J4,1,Pin_1*%
%TO.N,GND*%
X91500000Y-76000000D03*
%TD*%
D11*
%TO.P,C3,1*%
%TO.N,+5V*%
X107500000Y-70500000D03*
%TO.P,C3,2*%
%TO.N,GND*%
X109050000Y-70500000D03*
%TD*%
D12*
%TO.P,U1,1,I/O1*%
%TO.N,/D-*%
X113050000Y-77137500D03*
%TO.P,U1,2,GND*%
%TO.N,GND*%
X114000000Y-77137500D03*
%TO.P,U1,3,I/O2*%
%TO.N,/D+*%
X114950000Y-77137500D03*
%TO.P,U1,4,I/O2*%
%TO.N,Net-(J3-Pin_1)*%
X114950000Y-74862500D03*
%TO.P,U1,5,VBUS*%
%TO.N,+5V*%
X114000000Y-74862500D03*
%TO.P,U1,6,I/O1*%
%TO.N,Net-(J3-Pin_2)*%
X113050000Y-74862500D03*
%TD*%
D13*
%TO.P,D1,1,K*%
%TO.N,+5V*%
X107000000Y-73800000D03*
%TO.P,D1,2,A*%
%TO.N,Net-(D1-A)*%
X107000000Y-77100000D03*
%TD*%
D14*
%TO.P,U2,1,GND*%
%TO.N,GND*%
X105450000Y-70500000D03*
D15*
%TO.P,U2,2,VO*%
%TO.N,VCC*%
X105362500Y-69000000D03*
D14*
%TO.P,U2,3,VI*%
%TO.N,+5V*%
X105450000Y-67500000D03*
%TD*%
D16*
%TO.P,C2,1*%
%TO.N,+5V*%
X107415000Y-69000000D03*
%TO.P,C2,2*%
%TO.N,GND*%
X108550000Y-69000000D03*
%TD*%
D17*
%TO.P,J5,1,Pin_1*%
%TO.N,VCC*%
X96500000Y-69000000D03*
%TO.P,J5,2,Pin_2*%
%TO.N,GND*%
X96500000Y-70500000D03*
D18*
%TO.P,J5,MP*%
%TO.N,N/C*%
X92800000Y-67050000D03*
X92800000Y-72450000D03*
%TD*%
D19*
%TO.P,C18,1*%
%TO.N,VCC*%
X100500000Y-69000000D03*
%TO.P,C18,2*%
%TO.N,GND*%
X100500000Y-70550000D03*
%TD*%
D20*
%TO.P,F1,1*%
%TO.N,Net-(J1-Pin_2)*%
X111000000Y-77800000D03*
%TO.P,F1,2*%
%TO.N,Net-(F1-Pad2)*%
X111000000Y-75000000D03*
%TD*%
D21*
%TO.P,FB1,1*%
%TO.N,Net-(F1-Pad2)*%
X109000000Y-75000000D03*
%TO.P,FB1,2*%
%TO.N,Net-(D1-A)*%
X109000000Y-77125000D03*
%TD*%
D22*
%TO.P,J3,1,Pin_1*%
%TO.N,Net-(J3-Pin_1)*%
X113950000Y-70625000D03*
%TO.P,J3,2,Pin_2*%
%TO.N,Net-(J3-Pin_2)*%
X112950000Y-70625000D03*
D23*
%TO.P,J3,MP*%
%TO.N,N/C*%
X115400000Y-67500000D03*
X111500000Y-67500000D03*
%TD*%
D10*
%TO.P,J1,1,Pin_1*%
%TO.N,GND*%
X111000000Y-80500000D03*
D24*
%TO.P,J1,2,Pin_2*%
%TO.N,Net-(J1-Pin_2)*%
X112000000Y-80500000D03*
%TO.P,J1,3,Pin_3*%
%TO.N,/D-*%
X113000000Y-80500000D03*
%TO.P,J1,4,Pin_4*%
%TO.N,/D+*%
X114000000Y-80500000D03*
%TD*%
D11*
%TO.P,C17,1*%
%TO.N,+5V*%
X107500000Y-67500000D03*
%TO.P,C17,2*%
%TO.N,GND*%
X109050000Y-67500000D03*
%TD*%
D25*
%TO.P,J2,1,Pin_1*%
%TO.N,VCC*%
X99000000Y-75500000D03*
%TO.P,J2,2,Pin_2*%
%TO.N,GND*%
X100500000Y-75500000D03*
D26*
%TO.P,J2,MP*%
%TO.N,N/C*%
X97050000Y-79200000D03*
X102450000Y-79200000D03*
%TD*%
D27*
%TO.N,GND*%
X93000000Y-77500000D03*
X98000000Y-72500000D03*
X110500000Y-70500000D03*
X109000000Y-80500000D03*
X105500000Y-72000000D03*
X110000000Y-69000000D03*
X114000000Y-78500000D03*
%TO.N,+5V*%
X109000000Y-73000000D03*
X114000000Y-73000000D03*
%TD*%
D28*
%TO.N,GND*%
X91500000Y-79000000D02*
X93000000Y-77500000D01*
X91500000Y-79000000D02*
X91500000Y-76000000D01*
X94500000Y-79000000D02*
X91500000Y-79000000D01*
X94500000Y-76000000D02*
X94500000Y-79000000D01*
X91500000Y-76000000D02*
X94500000Y-76000000D01*
X96500000Y-71000000D02*
X98000000Y-72500000D01*
X96500000Y-70500000D02*
X96500000Y-71000000D01*
%TO.N,VCC*%
X99000000Y-69000000D02*
X96500000Y-69000000D01*
X99000000Y-69000000D02*
X99000000Y-75500000D01*
%TO.N,GND*%
X100500000Y-70550000D02*
X100500000Y-75500000D01*
X100550000Y-70500000D02*
X100500000Y-70550000D01*
X105450000Y-70500000D02*
X100550000Y-70500000D01*
X105450000Y-70500000D02*
X105450000Y-71950000D01*
X109050000Y-70500000D02*
X109050000Y-69500000D01*
X111000000Y-80500000D02*
X109000000Y-80500000D01*
X109050000Y-69500000D02*
X108550000Y-69000000D01*
X114000000Y-77137500D02*
X114000000Y-78500000D01*
X109050000Y-70500000D02*
X110500000Y-70500000D01*
X108550000Y-69000000D02*
X110000000Y-69000000D01*
X108550000Y-68000000D02*
X109050000Y-67500000D01*
X108550000Y-69000000D02*
X108550000Y-68000000D01*
D29*
X105450000Y-71950000D02*
X105500000Y-72000000D01*
D28*
%TO.N,Net-(J3-Pin_2)*%
X113050000Y-74862500D02*
X113050000Y-70725000D01*
D29*
X113050000Y-70725000D02*
X112950000Y-70625000D01*
D28*
%TO.N,Net-(J3-Pin_1)*%
X114950000Y-71625000D02*
X113950000Y-70625000D01*
X114950000Y-74862500D02*
X114950000Y-71625000D01*
%TO.N,VCC*%
X100500000Y-69000000D02*
X99000000Y-69000000D01*
D29*
X100000000Y-69000000D02*
X100500000Y-69000000D01*
D28*
X105362500Y-69000000D02*
X100500000Y-69000000D01*
%TO.N,Net-(D1-A)*%
X109000000Y-77125000D02*
X107025000Y-77125000D01*
D29*
X107025000Y-77125000D02*
X107000000Y-77100000D01*
D28*
%TO.N,+5V*%
X107800000Y-73000000D02*
X107000000Y-73800000D01*
X107415000Y-69915000D02*
X107415000Y-69000000D01*
X107500000Y-70500000D02*
X107500000Y-70000000D01*
X107415000Y-69000000D02*
X107415000Y-67585000D01*
X107500000Y-70500000D02*
X107500000Y-71500000D01*
X109000000Y-73000000D02*
X107800000Y-73000000D01*
X105450000Y-67500000D02*
X107500000Y-67500000D01*
D29*
X107415000Y-67585000D02*
X107500000Y-67500000D01*
X107500000Y-70000000D02*
X107415000Y-69915000D01*
D28*
X114000000Y-74862500D02*
X114000000Y-73000000D01*
X107500000Y-71500000D02*
X107000000Y-72000000D01*
X107000000Y-72000000D02*
X107000000Y-73800000D01*
%TO.N,Net-(F1-Pad2)*%
X111000000Y-75000000D02*
X109000000Y-75000000D01*
D30*
%TO.N,/D-*%
X113000000Y-80500000D02*
X113000000Y-77187500D01*
D31*
X113000000Y-77187500D02*
X113050000Y-77137500D01*
D30*
%TO.N,/D+*%
X114950000Y-79550000D02*
X114950000Y-77137500D01*
X114000000Y-80500000D02*
X114950000Y-79550000D01*
D31*
X115000000Y-77187500D02*
X114950000Y-77137500D01*
D28*
%TO.N,Net-(J1-Pin_2)*%
X112000000Y-78800000D02*
X111000000Y-77800000D01*
X112000000Y-80500000D02*
X112000000Y-78800000D01*
%TD*%
%TA.AperFunction,Conductor*%
%TO.N,GND*%
G36*
X114092539Y-77157185D02*
G01*
X114138294Y-77209989D01*
X114149500Y-77261500D01*
X114149500Y-77715701D01*
X114152401Y-77752567D01*
X114152402Y-77752573D01*
X114198254Y-77910393D01*
X114198255Y-77910396D01*
X114198256Y-77910398D01*
X114232732Y-77968694D01*
X114250000Y-78031814D01*
X114250000Y-78297295D01*
X114259671Y-78306235D01*
X114295538Y-78366196D01*
X114299500Y-78397291D01*
X114299500Y-79229192D01*
X114279815Y-79296231D01*
X114263181Y-79316873D01*
X114041873Y-79538181D01*
X114021995Y-79549035D01*
X114004752Y-79563724D01*
X113988911Y-79567100D01*
X113980550Y-79571666D01*
X113970805Y-79573382D01*
X113962536Y-79574500D01*
X113908846Y-79574500D01*
X113794926Y-79597160D01*
X113791113Y-79597676D01*
X113760219Y-79592968D01*
X113729100Y-79590184D01*
X113725965Y-79587748D01*
X113722041Y-79587151D01*
X113698596Y-79566487D01*
X113673923Y-79547321D01*
X113672602Y-79543578D01*
X113669624Y-79540953D01*
X113661071Y-79510893D01*
X113650678Y-79481432D01*
X113650500Y-79474794D01*
X113650500Y-78423606D01*
X113670185Y-78356567D01*
X113722989Y-78310812D01*
X113738306Y-78308104D01*
X113750000Y-78297295D01*
X113750000Y-78031814D01*
X113767267Y-77968694D01*
X113801744Y-77910398D01*
X113847598Y-77752569D01*
X113850500Y-77715694D01*
X113850500Y-77261500D01*
X113853050Y-77252814D01*
X113851762Y-77243853D01*
X113862740Y-77219812D01*
X113870185Y-77194461D01*
X113877025Y-77188533D01*
X113880787Y-77180297D01*
X113903021Y-77166007D01*
X113922989Y-77148706D01*
X113933503Y-77146418D01*
X113939565Y-77142523D01*
X113974500Y-77137500D01*
X114025500Y-77137500D01*
X114092539Y-77157185D01*
G37*
%TD.AperFunction*%
%TA.AperFunction,Conductor*%
G36*
X116443039Y-65519685D02*
G01*
X116488794Y-65572489D01*
X116500000Y-65624000D01*
X116500000Y-66474388D01*
X116480315Y-66541427D01*
X116427511Y-66587182D01*
X116358353Y-66597126D01*
X116294797Y-66568101D01*
X116270462Y-66539485D01*
X116197970Y-66421959D01*
X116197967Y-66421955D01*
X116078044Y-66302032D01*
X116078040Y-66302029D01*
X115933705Y-66213001D01*
X115933699Y-66212998D01*
X115933697Y-66212997D01*
X115933694Y-66212996D01*
X115772709Y-66159651D01*
X115673346Y-66149500D01*
X115126662Y-66149500D01*
X115126644Y-66149501D01*
X115027292Y-66159650D01*
X115027289Y-66159651D01*
X114866305Y-66212996D01*
X114866294Y-66213001D01*
X114721959Y-66302029D01*
X114721955Y-66302032D01*
X114602032Y-66421955D01*
X114602029Y-66421959D01*
X114513001Y-66566294D01*
X114512996Y-66566305D01*
X114459651Y-66727290D01*
X114449500Y-66826647D01*
X114449500Y-68173337D01*
X114449501Y-68173355D01*
X114459650Y-68272707D01*
X114459651Y-68272710D01*
X114512996Y-68433694D01*
X114513001Y-68433705D01*
X114602029Y-68578040D01*
X114602032Y-68578044D01*
X114721955Y-68697967D01*
X114721959Y-68697970D01*
X114866294Y-68786998D01*
X114866297Y-68786999D01*
X114866303Y-68787003D01*
X115027292Y-68840349D01*
X115126655Y-68850500D01*
X115673344Y-68850499D01*
X115673352Y-68850498D01*
X115673355Y-68850498D01*
X115727760Y-68844940D01*
X115772708Y-68840349D01*
X115933697Y-68787003D01*
X116078044Y-68697968D01*
X116197968Y-68578044D01*
X116270463Y-68460512D01*
X116322409Y-68413789D01*
X116391372Y-68402568D01*
X116455454Y-68430411D01*
X116494310Y-68488480D01*
X116500000Y-68525611D01*
X116500000Y-81876000D01*
X116480315Y-81943039D01*
X116427511Y-81988794D01*
X116376000Y-82000000D01*
X90124000Y-82000000D01*
X90056961Y-81980315D01*
X90011206Y-81927511D01*
X90000000Y-81876000D01*
X90000000Y-80972844D01*
X110075000Y-80972844D01*
X110081401Y-81032372D01*
X110081403Y-81032379D01*
X110131645Y-81167086D01*
X110131649Y-81167093D01*
X110217809Y-81282187D01*
X110217812Y-81282190D01*
X110332906Y-81368350D01*
X110332913Y-81368354D01*
X110467620Y-81418596D01*
X110467627Y-81418598D01*
X110527155Y-81424999D01*
X110527172Y-81425000D01*
X110750000Y-81425000D01*
X110750000Y-80750000D01*
X110075000Y-80750000D01*
X110075000Y-80972844D01*
X90000000Y-80972844D01*
X90000000Y-79472844D01*
X90575000Y-79472844D01*
X90581401Y-79532372D01*
X90581403Y-79532379D01*
X90631645Y-79667086D01*
X90631649Y-79667093D01*
X90717809Y-79782187D01*
X90717812Y-79782190D01*
X90832906Y-79868350D01*
X90832913Y-79868354D01*
X90967620Y-79918596D01*
X90967627Y-79918598D01*
X91027155Y-79924999D01*
X91027172Y-79925000D01*
X91250000Y-79925000D01*
X91750000Y-79925000D01*
X91972828Y-79925000D01*
X91972844Y-79924999D01*
X92032372Y-79918598D01*
X92032379Y-79918596D01*
X92167086Y-79868354D01*
X92167093Y-79868350D01*
X92282187Y-79782190D01*
X92282190Y-79782187D01*
X92368350Y-79667093D01*
X92368354Y-79667086D01*
X92418596Y-79532379D01*
X92418598Y-79532372D01*
X92424999Y-79472844D01*
X93575000Y-79472844D01*
X93581401Y-79532372D01*
X93581403Y-79532379D01*
X93631645Y-79667086D01*
X93631649Y-79667093D01*
X93717809Y-79782187D01*
X93717812Y-79782190D01*
X93832906Y-79868350D01*
X93832913Y-79868354D01*
X93967620Y-79918596D01*
X93967627Y-79918598D01*
X94027155Y-79924999D01*
X94027172Y-79925000D01*
X94250000Y-79925000D01*
X94750000Y-79925000D01*
X94972828Y-79925000D01*
X94972844Y-79924999D01*
X95032372Y-79918598D01*
X95032379Y-79918596D01*
X95167086Y-79868354D01*
X95167093Y-79868350D01*
X95282187Y-79782190D01*
X95282190Y-79782187D01*
X95368350Y-79667093D01*
X95368354Y-79667086D01*
X95418596Y-79532379D01*
X95418598Y-79532372D01*
X95424999Y-79472844D01*
X95425000Y-79472827D01*
X95425000Y-79250000D01*
X94750000Y-79250000D01*
X94750000Y-79925000D01*
X94250000Y-79925000D01*
X94250000Y-79250000D01*
X93575000Y-79250000D01*
X93575000Y-79472844D01*
X92424999Y-79472844D01*
X92425000Y-79472827D01*
X92425000Y-79250000D01*
X91750000Y-79250000D01*
X91750000Y-79925000D01*
X91250000Y-79925000D01*
X91250000Y-79250000D01*
X90575000Y-79250000D01*
X90575000Y-79472844D01*
X90000000Y-79472844D01*
X90000000Y-78950272D01*
X91250000Y-78950272D01*
X91250000Y-79049728D01*
X91288060Y-79141614D01*
X91358386Y-79211940D01*
X91450272Y-79250000D01*
X91549728Y-79250000D01*
X91641614Y-79211940D01*
X91711940Y-79141614D01*
X91750000Y-79049728D01*
X91750000Y-78950272D01*
X94250000Y-78950272D01*
X94250000Y-79049728D01*
X94288060Y-79141614D01*
X94358386Y-79211940D01*
X94450272Y-79250000D01*
X94549728Y-79250000D01*
X94641614Y-79211940D01*
X94711940Y-79141614D01*
X94750000Y-79049728D01*
X94750000Y-78950272D01*
X94711940Y-78858386D01*
X94641614Y-78788060D01*
X94549728Y-78750000D01*
X94750000Y-78750000D01*
X95425000Y-78750000D01*
X95425000Y-78527172D01*
X95424999Y-78527155D01*
X95418598Y-78467627D01*
X95418596Y-78467620D01*
X95412018Y-78449983D01*
X95999500Y-78449983D01*
X95999500Y-79950001D01*
X95999501Y-79950018D01*
X96010000Y-80052796D01*
X96010001Y-80052799D01*
X96065185Y-80219331D01*
X96065186Y-80219334D01*
X96157288Y-80368656D01*
X96281344Y-80492712D01*
X96430666Y-80584814D01*
X96597203Y-80639999D01*
X96699991Y-80650500D01*
X97400008Y-80650499D01*
X97400016Y-80650498D01*
X97400019Y-80650498D01*
X97456302Y-80644748D01*
X97502797Y-80639999D01*
X97669334Y-80584814D01*
X97818656Y-80492712D01*
X97942712Y-80368656D01*
X98034814Y-80219334D01*
X98089999Y-80052797D01*
X98100500Y-79950009D01*
X98100499Y-78449992D01*
X98100498Y-78449983D01*
X101399500Y-78449983D01*
X101399500Y-79950001D01*
X101399501Y-79950018D01*
X101410000Y-80052796D01*
X101410001Y-80052799D01*
X101465185Y-80219331D01*
X101465186Y-80219334D01*
X101557288Y-80368656D01*
X101681344Y-80492712D01*
X101830666Y-80584814D01*
X101997203Y-80639999D01*
X102099991Y-80650500D01*
X102800008Y-80650499D01*
X102800016Y-80650498D01*
X102800019Y-80650498D01*
X102856302Y-80644748D01*
X102902797Y-80639999D01*
X103069334Y-80584814D01*
X103218656Y-80492712D01*
X103342712Y-80368656D01*
X103434814Y-80219334D01*
X103489999Y-80052797D01*
X103492619Y-80027155D01*
X110075000Y-80027155D01*
X110075000Y-80250000D01*
X110750000Y-80250000D01*
X110750000Y-79575000D01*
X110527155Y-79575000D01*
X110467627Y-79581401D01*
X110467620Y-79581403D01*
X110332913Y-79631645D01*
X110332906Y-79631649D01*
X110217812Y-79717809D01*
X110217809Y-79717812D01*
X110131649Y-79832906D01*
X110131645Y-79832913D01*
X110081403Y-79967620D01*
X110081401Y-79967627D01*
X110075000Y-80027155D01*
X103492619Y-80027155D01*
X103500500Y-79950009D01*
X103500499Y-78449992D01*
X103489999Y-78347203D01*
X103434814Y-78180666D01*
X103342712Y-78031344D01*
X103218656Y-77907288D01*
X103069334Y-77815186D01*
X102902797Y-77760001D01*
X102902795Y-77760000D01*
X102800010Y-77749500D01*
X102099998Y-77749500D01*
X102099980Y-77749501D01*
X101997203Y-77760000D01*
X101997200Y-77760001D01*
X101830668Y-77815185D01*
X101830663Y-77815187D01*
X101681342Y-77907289D01*
X101557289Y-78031342D01*
X101465187Y-78180663D01*
X101465186Y-78180666D01*
X101410001Y-78347203D01*
X101410001Y-78347204D01*
X101410000Y-78347204D01*
X101399500Y-78449983D01*
X98100498Y-78449983D01*
X98089999Y-78347203D01*
X98034814Y-78180666D01*
X97942712Y-78031344D01*
X97818656Y-77907288D01*
X97669334Y-77815186D01*
X97502797Y-77760001D01*
X97502795Y-77760000D01*
X97400010Y-77749500D01*
X96699998Y-77749500D01*
X96699980Y-77749501D01*
X96597203Y-77760000D01*
X96597200Y-77760001D01*
X96430668Y-77815185D01*
X96430663Y-77815187D01*
X96281342Y-77907289D01*
X96157289Y-78031342D01*
X96065187Y-78180663D01*
X96065186Y-78180666D01*
X96010001Y-78347203D01*
X96010001Y-78347204D01*
X96010000Y-78347204D01*
X95999500Y-78449983D01*
X95412018Y-78449983D01*
X95368354Y-78332913D01*
X95368350Y-78332906D01*
X95282190Y-78217812D01*
X95282187Y-78217809D01*
X95167093Y-78131649D01*
X95167086Y-78131645D01*
X95032379Y-78081403D01*
X95032372Y-78081401D01*
X94972844Y-78075000D01*
X94750000Y-78075000D01*
X94750000Y-78750000D01*
X94549728Y-78750000D01*
X94450272Y-78750000D01*
X94358386Y-78788060D01*
X94288060Y-78858386D01*
X94250000Y-78950272D01*
X91750000Y-78950272D01*
X91711940Y-78858386D01*
X91641614Y-78788060D01*
X91549728Y-78750000D01*
X91750000Y-78750000D01*
X92425000Y-78750000D01*
X92425000Y-78527172D01*
X92424999Y-78527155D01*
X93575000Y-78527155D01*
X93575000Y-78750000D01*
X94250000Y-78750000D01*
X94250000Y-78075000D01*
X94027155Y-78075000D01*
X93967627Y-78081401D01*
X93967620Y-78081403D01*
X93832913Y-78131645D01*
X93832906Y-78131649D01*
X93717812Y-78217809D01*
X93717809Y-78217812D01*
X93631649Y-78332906D01*
X93631645Y-78332913D01*
X93581403Y-78467620D01*
X93581401Y-78467627D01*
X93575000Y-78527155D01*
X92424999Y-78527155D01*
X92418598Y-78467627D01*
X92418596Y-78467620D01*
X92368354Y-78332913D01*
X92368350Y-78332906D01*
X92282190Y-78217812D01*
X92282187Y-78217809D01*
X92167093Y-78131649D01*
X92167086Y-78131645D01*
X92032379Y-78081403D01*
X92032372Y-78081401D01*
X91972844Y-78075000D01*
X91750000Y-78075000D01*
X91750000Y-78750000D01*
X91549728Y-78750000D01*
X91450272Y-78750000D01*
X91358386Y-78788060D01*
X91288060Y-78858386D01*
X91250000Y-78950272D01*
X90000000Y-78950272D01*
X90000000Y-78527155D01*
X90575000Y-78527155D01*
X90575000Y-78750000D01*
X91250000Y-78750000D01*
X91250000Y-78075000D01*
X91027155Y-78075000D01*
X90967627Y-78081401D01*
X90967620Y-78081403D01*
X90832913Y-78131645D01*
X90832906Y-78131649D01*
X90717812Y-78217809D01*
X90717809Y-78217812D01*
X90631649Y-78332906D01*
X90631645Y-78332913D01*
X90581403Y-78467620D01*
X90581401Y-78467627D01*
X90575000Y-78527155D01*
X90000000Y-78527155D01*
X90000000Y-76472844D01*
X90575000Y-76472844D01*
X90581401Y-76532372D01*
X90581403Y-76532379D01*
X90631645Y-76667086D01*
X90631649Y-76667093D01*
X90717809Y-76782187D01*
X90717812Y-76782190D01*
X90832906Y-76868350D01*
X90832913Y-76868354D01*
X90967620Y-76918596D01*
X90967627Y-76918598D01*
X91027155Y-76924999D01*
X91027172Y-76925000D01*
X91250000Y-76925000D01*
X91750000Y-76925000D01*
X91972828Y-76925000D01*
X91972844Y-76924999D01*
X92032372Y-76918598D01*
X92032379Y-76918596D01*
X92167086Y-76868354D01*
X92167093Y-76868350D01*
X92282187Y-76782190D01*
X92282190Y-76782187D01*
X92368350Y-76667093D01*
X92368354Y-76667086D01*
X92418596Y-76532379D01*
X92418598Y-76532372D01*
X92424999Y-76472844D01*
X93575000Y-76472844D01*
X93581401Y-76532372D01*
X93581403Y-76532379D01*
X93631645Y-76667086D01*
X93631649Y-76667093D01*
X93717809Y-76782187D01*
X93717812Y-76782190D01*
X93832906Y-76868350D01*
X93832913Y-76868354D01*
X93967620Y-76918596D01*
X93967627Y-76918598D01*
X94027155Y-76924999D01*
X94027172Y-76925000D01*
X94250000Y-76925000D01*
X94750000Y-76925000D01*
X94972828Y-76925000D01*
X94972844Y-76924999D01*
X95032372Y-76918598D01*
X95032379Y-76918596D01*
X95167086Y-76868354D01*
X95167093Y-76868350D01*
X95282187Y-76782190D01*
X95282190Y-76782187D01*
X95368350Y-76667093D01*
X95368354Y-76667086D01*
X95418596Y-76532379D01*
X95418598Y-76532372D01*
X95424999Y-76472844D01*
X95425000Y-76472827D01*
X95425000Y-76250000D01*
X94750000Y-76250000D01*
X94750000Y-76925000D01*
X94250000Y-76925000D01*
X94250000Y-76250000D01*
X93575000Y-76250000D01*
X93575000Y-76472844D01*
X92424999Y-76472844D01*
X92425000Y-76472827D01*
X92425000Y-76250000D01*
X91750000Y-76250000D01*
X91750000Y-76925000D01*
X91250000Y-76925000D01*
X91250000Y-76250000D01*
X90575000Y-76250000D01*
X90575000Y-76472844D01*
X90000000Y-76472844D01*
X90000000Y-75950272D01*
X91250000Y-75950272D01*
X91250000Y-76049728D01*
X91288060Y-76141614D01*
X91358386Y-76211940D01*
X91450272Y-76250000D01*
X91549728Y-76250000D01*
X91641614Y-76211940D01*
X91711940Y-76141614D01*
X91750000Y-76049728D01*
X91750000Y-75950272D01*
X94250000Y-75950272D01*
X94250000Y-76049728D01*
X94288060Y-76141614D01*
X94358386Y-76211940D01*
X94450272Y-76250000D01*
X94549728Y-76250000D01*
X94641614Y-76211940D01*
X94711940Y-76141614D01*
X94750000Y-76049728D01*
X94750000Y-75950272D01*
X94711940Y-75858386D01*
X94641614Y-75788060D01*
X94549728Y-75750000D01*
X94750000Y-75750000D01*
X95425000Y-75750000D01*
X95425000Y-75527172D01*
X95424999Y-75527155D01*
X95418598Y-75467627D01*
X95418596Y-75467620D01*
X95368354Y-75332913D01*
X95368350Y-75332906D01*
X95282190Y-75217812D01*
X95282187Y-75217809D01*
X95167093Y-75131649D01*
X95167086Y-75131645D01*
X95032379Y-75081403D01*
X95032372Y-75081401D01*
X94972844Y-75075000D01*
X94750000Y-75075000D01*
X94750000Y-75750000D01*
X94549728Y-75750000D01*
X94450272Y-75750000D01*
X94358386Y-75788060D01*
X94288060Y-75858386D01*
X94250000Y-75950272D01*
X91750000Y-75950272D01*
X91711940Y-75858386D01*
X91641614Y-75788060D01*
X91549728Y-75750000D01*
X91750000Y-75750000D01*
X92425000Y-75750000D01*
X92425000Y-75527172D01*
X92424999Y-75527155D01*
X93575000Y-75527155D01*
X93575000Y-75750000D01*
X94250000Y-75750000D01*
X94250000Y-75075000D01*
X94027155Y-75075000D01*
X93967627Y-75081401D01*
X93967620Y-75081403D01*
X93832913Y-75131645D01*
X93832906Y-75131649D01*
X93717812Y-75217809D01*
X93717809Y-75217812D01*
X93631649Y-75332906D01*
X93631645Y-75332913D01*
X93581403Y-75467620D01*
X93581401Y-75467627D01*
X93575000Y-75527155D01*
X92424999Y-75527155D01*
X92418598Y-75467627D01*
X92418596Y-75467620D01*
X92368354Y-75332913D01*
X92368350Y-75332906D01*
X92282190Y-75217812D01*
X92282187Y-75217809D01*
X92167093Y-75131649D01*
X92167086Y-75131645D01*
X92032379Y-75081403D01*
X92032372Y-75081401D01*
X91972844Y-75075000D01*
X91750000Y-75075000D01*
X91750000Y-75750000D01*
X91549728Y-75750000D01*
X91450272Y-75750000D01*
X91358386Y-75788060D01*
X91288060Y-75858386D01*
X91250000Y-75950272D01*
X90000000Y-75950272D01*
X90000000Y-75527155D01*
X90575000Y-75527155D01*
X90575000Y-75750000D01*
X91250000Y-75750000D01*
X91250000Y-75075000D01*
X91027155Y-75075000D01*
X90967627Y-75081401D01*
X90967620Y-75081403D01*
X90832913Y-75131645D01*
X90832906Y-75131649D01*
X90717812Y-75217809D01*
X90717809Y-75217812D01*
X90631649Y-75332906D01*
X90631645Y-75332913D01*
X90581403Y-75467620D01*
X90581401Y-75467627D01*
X90575000Y-75527155D01*
X90000000Y-75527155D01*
X90000000Y-72099983D01*
X91349500Y-72099983D01*
X91349500Y-72800001D01*
X91349501Y-72800019D01*
X91360000Y-72902796D01*
X91360001Y-72902799D01*
X91415185Y-73069331D01*
X91415186Y-73069334D01*
X91507288Y-73218656D01*
X91631344Y-73342712D01*
X91780666Y-73434814D01*
X91947203Y-73489999D01*
X92049991Y-73500500D01*
X93550008Y-73500499D01*
X93652797Y-73489999D01*
X93819334Y-73434814D01*
X93968656Y-73342712D01*
X94092712Y-73218656D01*
X94184814Y-73069334D01*
X94239999Y-72902797D01*
X94250500Y-72800009D01*
X94250499Y-72099992D01*
X94239999Y-71997203D01*
X94184814Y-71830666D01*
X94092712Y-71681344D01*
X93968656Y-71557288D01*
X93819334Y-71465186D01*
X93652797Y-71410001D01*
X93652795Y-71410000D01*
X93550010Y-71399500D01*
X92049998Y-71399500D01*
X92049981Y-71399501D01*
X91947203Y-71410000D01*
X91947200Y-71410001D01*
X91780668Y-71465185D01*
X91780663Y-71465187D01*
X91631342Y-71557289D01*
X91507289Y-71681342D01*
X91415187Y-71830663D01*
X91415185Y-71830668D01*
X91390644Y-71904729D01*
X91360001Y-71997203D01*
X91360001Y-71997204D01*
X91360000Y-71997204D01*
X91349500Y-72099983D01*
X90000000Y-72099983D01*
X90000000Y-70750000D01*
X94651857Y-70750000D01*
X94656178Y-70797558D01*
X94704947Y-70954065D01*
X94789743Y-71094337D01*
X94789747Y-71094342D01*
X94905657Y-71210252D01*
X94905662Y-71210256D01*
X95045934Y-71295052D01*
X95202437Y-71343820D01*
X95270443Y-71349999D01*
X96249999Y-71349999D01*
X96250000Y-71349998D01*
X96250000Y-70750000D01*
X94651857Y-70750000D01*
X90000000Y-70750000D01*
X90000000Y-68770406D01*
X94649500Y-68770406D01*
X94649500Y-69229594D01*
X94655685Y-69297657D01*
X94655686Y-69297662D01*
X94655687Y-69297664D01*
X94704485Y-69454263D01*
X94704488Y-69454272D01*
X94789348Y-69594648D01*
X94789351Y-69594652D01*
X94857370Y-69662671D01*
X94890855Y-69723994D01*
X94885871Y-69793686D01*
X94857371Y-69838032D01*
X94789748Y-69905656D01*
X94789743Y-69905662D01*
X94704947Y-70045934D01*
X94656178Y-70202441D01*
X94651857Y-70249999D01*
X94651857Y-70250000D01*
X96376000Y-70250000D01*
X96443039Y-70269685D01*
X96488794Y-70322489D01*
X96500000Y-70374000D01*
X96500000Y-70500000D01*
X96626000Y-70500000D01*
X96693039Y-70519685D01*
X96738794Y-70572489D01*
X96750000Y-70624000D01*
X96750000Y-71349999D01*
X97729565Y-71349999D01*
X97797561Y-71343821D01*
X97797572Y-71343818D01*
X97954060Y-71295055D01*
X97954064Y-71295053D01*
X98061351Y-71230197D01*
X98128905Y-71212361D01*
X98195379Y-71233879D01*
X98239666Y-71287920D01*
X98249500Y-71336314D01*
X98249500Y-73936703D01*
X98231617Y-74000852D01*
X98204488Y-74045728D01*
X98204487Y-74045730D01*
X98155686Y-74202338D01*
X98155685Y-74202341D01*
X98155685Y-74202343D01*
X98149500Y-74270406D01*
X98149500Y-76729594D01*
X98155685Y-76797657D01*
X98155686Y-76797662D01*
X98155687Y-76797664D01*
X98204485Y-76954263D01*
X98204488Y-76954272D01*
X98289348Y-77094648D01*
X98289351Y-77094652D01*
X98405347Y-77210648D01*
X98405351Y-77210651D01*
X98545727Y-77295511D01*
X98545730Y-77295512D01*
X98702343Y-77344315D01*
X98770406Y-77350500D01*
X98770409Y-77350500D01*
X99229591Y-77350500D01*
X99229594Y-77350500D01*
X99297657Y-77344315D01*
X99454270Y-77295512D01*
X99455026Y-77295055D01*
X99594647Y-77210652D01*
X99594647Y-77210651D01*
X99594653Y-77210648D01*
X99662674Y-77142626D01*
X99723993Y-77109144D01*
X99793685Y-77114128D01*
X99838033Y-77142628D01*
X99905661Y-77210255D01*
X99905662Y-77210256D01*
X100045934Y-77295052D01*
X100202442Y-77343821D01*
X100202440Y-77343821D01*
X100249999Y-77348142D01*
X100250000Y-77348142D01*
X100250000Y-77348141D01*
X100750000Y-77348141D01*
X100797561Y-77343821D01*
X100797570Y-77343819D01*
X100954060Y-77295055D01*
X100954064Y-77295053D01*
X101094337Y-77210256D01*
X101094342Y-77210252D01*
X101210252Y-77094342D01*
X101210256Y-77094337D01*
X101295052Y-76954065D01*
X101343820Y-76797562D01*
X101350000Y-76729556D01*
X101350000Y-75750000D01*
X100750000Y-75750000D01*
X100750000Y-77348141D01*
X100250000Y-77348141D01*
X100250000Y-75250000D01*
X100750000Y-75250000D01*
X101349999Y-75250000D01*
X101349999Y-74270433D01*
X101343821Y-74202438D01*
X101343818Y-74202427D01*
X101295055Y-74045939D01*
X101295053Y-74045935D01*
X101210256Y-73905662D01*
X101210252Y-73905657D01*
X101094342Y-73789747D01*
X101094337Y-73789743D01*
X100954065Y-73704947D01*
X100797562Y-73656179D01*
X100750000Y-73651856D01*
X100750000Y-75250000D01*
X100250000Y-75250000D01*
X100250000Y-73651857D01*
X100249999Y-73651857D01*
X100202441Y-73656178D01*
X100045937Y-73704946D01*
X99938649Y-73769803D01*
X99871094Y-73787638D01*
X99804620Y-73766120D01*
X99760333Y-73712079D01*
X99750500Y-73663685D01*
X99750500Y-71540901D01*
X99770185Y-71473862D01*
X99822989Y-71428107D01*
X99892147Y-71418163D01*
X99934891Y-71433658D01*
X99934968Y-71433493D01*
X99936828Y-71434360D01*
X99939605Y-71435367D01*
X99941517Y-71436546D01*
X99941518Y-71436547D01*
X100102393Y-71489855D01*
X100201683Y-71499999D01*
X100750000Y-71499999D01*
X100798308Y-71499999D01*
X100798322Y-71499998D01*
X100897607Y-71489855D01*
X101058481Y-71436547D01*
X101058492Y-71436542D01*
X101202728Y-71347575D01*
X101202732Y-71347572D01*
X101322572Y-71227732D01*
X101322575Y-71227728D01*
X101411542Y-71083492D01*
X101411547Y-71083481D01*
X101464855Y-70922606D01*
X101474999Y-70823322D01*
X101475000Y-70823309D01*
X101475000Y-70800000D01*
X100750000Y-70800000D01*
X100750000Y-71499999D01*
X100201683Y-71499999D01*
X100249999Y-71499998D01*
X100250000Y-71499998D01*
X100250000Y-70773322D01*
X104300001Y-70773322D01*
X104310144Y-70872607D01*
X104363452Y-71033481D01*
X104363457Y-71033492D01*
X104452424Y-71177728D01*
X104452427Y-71177732D01*
X104572267Y-71297572D01*
X104572271Y-71297575D01*
X104716507Y-71386542D01*
X104716518Y-71386547D01*
X104877393Y-71439855D01*
X104976683Y-71449999D01*
X105199999Y-71449999D01*
X105200000Y-71449998D01*
X105200000Y-70750000D01*
X104300001Y-70750000D01*
X104300001Y-70773322D01*
X100250000Y-70773322D01*
X100250000Y-70674000D01*
X100269685Y-70606961D01*
X100322489Y-70561206D01*
X100374000Y-70550000D01*
X100500000Y-70550000D01*
X100500000Y-70424000D01*
X100519685Y-70356961D01*
X100572489Y-70311206D01*
X100624000Y-70300000D01*
X101217788Y-70300000D01*
X101269300Y-70311206D01*
X101357581Y-70351523D01*
X101357582Y-70351523D01*
X101357584Y-70351524D01*
X101500000Y-70372000D01*
X101500003Y-70372000D01*
X104625000Y-70372000D01*
X104696940Y-70366855D01*
X104834992Y-70326319D01*
X104923116Y-70269685D01*
X104990156Y-70250000D01*
X105326000Y-70250000D01*
X105393039Y-70269685D01*
X105438794Y-70322489D01*
X105450000Y-70374000D01*
X105450000Y-70500000D01*
X105576000Y-70500000D01*
X105643039Y-70519685D01*
X105688794Y-70572489D01*
X105700000Y-70624000D01*
X105700000Y-71449999D01*
X105923308Y-71449999D01*
X105923322Y-71449998D01*
X106022607Y-71439855D01*
X106183481Y-71386547D01*
X106183488Y-71386544D01*
X106249899Y-71345581D01*
X106317292Y-71327140D01*
X106383955Y-71348062D01*
X106428725Y-71401704D01*
X106437387Y-71471034D01*
X106418100Y-71520009D01*
X106367813Y-71595270D01*
X106367812Y-71595269D01*
X106334921Y-71644496D01*
X106334914Y-71644508D01*
X106278342Y-71781086D01*
X106278340Y-71781092D01*
X106249500Y-71926079D01*
X106249500Y-72884995D01*
X106229815Y-72952034D01*
X106190600Y-72990532D01*
X106171954Y-73002033D01*
X106052029Y-73121959D01*
X105963001Y-73266294D01*
X105962996Y-73266305D01*
X105909651Y-73427290D01*
X105899500Y-73526647D01*
X105899500Y-74073337D01*
X105899501Y-74073355D01*
X105909650Y-74172707D01*
X105909651Y-74172710D01*
X105962996Y-74333694D01*
X105963001Y-74333705D01*
X106052029Y-74478040D01*
X106052032Y-74478044D01*
X106171955Y-74597967D01*
X106171959Y-74597970D01*
X106316294Y-74686998D01*
X106316297Y-74686999D01*
X106316303Y-74687003D01*
X106477292Y-74740349D01*
X106576655Y-74750500D01*
X107423344Y-74750499D01*
X107423352Y-74750498D01*
X107423355Y-74750498D01*
X107477760Y-74744940D01*
X107522708Y-74740349D01*
X107683697Y-74687003D01*
X107710402Y-74670530D01*
X107777793Y-74652089D01*
X107844457Y-74673010D01*
X107889227Y-74726651D01*
X107899500Y-74776068D01*
X107899500Y-75266681D01*
X107909563Y-75365183D01*
X107962450Y-75524784D01*
X107962455Y-75524795D01*
X108050716Y-75667887D01*
X108050719Y-75667891D01*
X108169608Y-75786780D01*
X108169612Y-75786783D01*
X108312704Y-75875044D01*
X108312707Y-75875045D01*
X108312713Y-75875049D01*
X108472315Y-75927936D01*
X108570826Y-75938000D01*
X108570831Y-75938000D01*
X109429169Y-75938000D01*
X109429174Y-75938000D01*
X109527685Y-75927936D01*
X109687287Y-75875049D01*
X109687293Y-75875044D01*
X109693829Y-75871998D01*
X109695099Y-75874722D01*
X109749391Y-75859861D01*
X109816057Y-75880775D01*
X109834791Y-75896159D01*
X109906344Y-75967712D01*
X110055666Y-76059814D01*
X110222203Y-76114999D01*
X110324991Y-76125500D01*
X111675008Y-76125499D01*
X111777797Y-76114999D01*
X111944334Y-76059814D01*
X112093656Y-75967712D01*
X112217712Y-75843656D01*
X112223506Y-75834261D01*
X112239577Y-75819805D01*
X112252059Y-75802149D01*
X112265040Y-75796900D01*
X112275449Y-75787537D01*
X112296789Y-75784063D01*
X112316835Y-75775958D01*
X112330592Y-75778560D01*
X112344411Y-75776311D01*
X112364242Y-75784926D01*
X112385487Y-75788945D01*
X112403261Y-75801876D01*
X112408494Y-75804150D01*
X112414307Y-75809318D01*
X112415532Y-75810478D01*
X112498135Y-75893081D01*
X112510458Y-75900369D01*
X112520590Y-75909963D01*
X112531430Y-75928591D01*
X112546136Y-75944343D01*
X112548653Y-75958188D01*
X112555732Y-75970352D01*
X112554780Y-75991880D01*
X112558637Y-76013085D01*
X112553269Y-76026094D01*
X112552648Y-76040153D01*
X112540208Y-76057750D01*
X112531988Y-76077673D01*
X112516854Y-76090786D01*
X112512316Y-76097206D01*
X112506933Y-76099382D01*
X112504078Y-76101856D01*
X112504298Y-76102139D01*
X112499092Y-76106176D01*
X112498455Y-76106729D01*
X112498140Y-76106914D01*
X112498129Y-76106923D01*
X112381923Y-76223129D01*
X112381917Y-76223137D01*
X112298255Y-76364603D01*
X112298254Y-76364606D01*
X112252402Y-76522426D01*
X112252401Y-76522432D01*
X112249500Y-76559298D01*
X112249500Y-76706239D01*
X112229815Y-76773278D01*
X112177011Y-76819033D01*
X112107853Y-76828977D01*
X112060404Y-76811778D01*
X111944334Y-76740186D01*
X111777797Y-76685001D01*
X111777795Y-76685000D01*
X111675010Y-76674500D01*
X110324998Y-76674500D01*
X110324981Y-76674501D01*
X110222203Y-76685000D01*
X110222193Y-76685003D01*
X110198838Y-76692742D01*
X110129010Y-76695143D01*
X110068969Y-76659411D01*
X110042131Y-76614042D01*
X110037549Y-76600213D01*
X110037544Y-76600206D01*
X110037544Y-76600204D01*
X109949283Y-76457112D01*
X109949280Y-76457108D01*
X109830391Y-76338219D01*
X109830387Y-76338216D01*
X109687295Y-76249955D01*
X109687289Y-76249952D01*
X109687287Y-76249951D01*
X109527685Y-76197064D01*
X109527683Y-76197063D01*
X109429181Y-76187000D01*
X109429174Y-76187000D01*
X108570826Y-76187000D01*
X108570818Y-76187000D01*
X108472316Y-76197063D01*
X108472315Y-76197064D01*
X108393656Y-76223129D01*
X108312715Y-76249950D01*
X108312704Y-76249955D01*
X108169612Y-76338216D01*
X108163946Y-76342697D01*
X108163171Y-76341717D01*
X108142719Y-76352884D01*
X108116901Y-76369477D01*
X108110700Y-76370368D01*
X108108324Y-76371666D01*
X108081966Y-76374500D01*
X107951874Y-76374500D01*
X107884835Y-76354815D01*
X107864193Y-76338181D01*
X107828044Y-76302032D01*
X107828040Y-76302029D01*
X107683705Y-76213001D01*
X107683699Y-76212998D01*
X107683697Y-76212997D01*
X107605243Y-76187000D01*
X107522709Y-76159651D01*
X107423346Y-76149500D01*
X106576662Y-76149500D01*
X106576644Y-76149501D01*
X106477292Y-76159650D01*
X106477289Y-76159651D01*
X106316305Y-76212996D01*
X106316294Y-76213001D01*
X106171959Y-76302029D01*
X106171955Y-76302032D01*
X106052032Y-76421955D01*
X106052029Y-76421959D01*
X105963001Y-76566294D01*
X105962996Y-76566305D01*
X105909651Y-76727290D01*
X105899500Y-76826647D01*
X105899500Y-77373337D01*
X105899501Y-77373355D01*
X105909650Y-77472707D01*
X105909651Y-77472710D01*
X105962996Y-77633694D01*
X105963001Y-77633705D01*
X106052029Y-77778040D01*
X106052032Y-77778044D01*
X106171955Y-77897967D01*
X106171959Y-77897970D01*
X106316294Y-77986998D01*
X106316297Y-77986999D01*
X106316303Y-77987003D01*
X106477292Y-78040349D01*
X106576655Y-78050500D01*
X107423344Y-78050499D01*
X107423352Y-78050498D01*
X107423355Y-78050498D01*
X107477760Y-78044940D01*
X107522708Y-78040349D01*
X107683697Y-77987003D01*
X107805647Y-77911783D01*
X107834191Y-77894177D01*
X107835868Y-77896896D01*
X107844668Y-77893347D01*
X107864625Y-77880523D01*
X107883041Y-77877875D01*
X107887466Y-77876091D01*
X107899560Y-77875500D01*
X108081966Y-77875500D01*
X108149005Y-77895185D01*
X108169114Y-77911390D01*
X108169612Y-77911783D01*
X108312704Y-78000044D01*
X108312707Y-78000045D01*
X108312713Y-78000049D01*
X108472315Y-78052936D01*
X108570826Y-78063000D01*
X108570831Y-78063000D01*
X109429169Y-78063000D01*
X109429174Y-78063000D01*
X109487899Y-78057000D01*
X109556589Y-78069769D01*
X109607474Y-78117648D01*
X109624500Y-78180355D01*
X109624500Y-78224999D01*
X109624501Y-78225019D01*
X109635000Y-78327796D01*
X109635001Y-78327799D01*
X109690185Y-78494331D01*
X109690187Y-78494336D01*
X109725069Y-78550888D01*
X109782288Y-78643656D01*
X109906344Y-78767712D01*
X110055666Y-78859814D01*
X110222203Y-78914999D01*
X110324991Y-78925500D01*
X111012770Y-78925499D01*
X111042216Y-78934145D01*
X111072197Y-78940667D01*
X111077210Y-78944419D01*
X111079809Y-78945183D01*
X111100451Y-78961818D01*
X111213181Y-79074548D01*
X111246666Y-79135871D01*
X111249500Y-79162229D01*
X111249500Y-79919730D01*
X111229815Y-79986769D01*
X111228603Y-79988619D01*
X111179838Y-80061602D01*
X111179831Y-80061614D01*
X111110067Y-80230041D01*
X111110065Y-80230047D01*
X111101805Y-80271570D01*
X111049728Y-80250000D01*
X110950272Y-80250000D01*
X110858386Y-80288060D01*
X110788060Y-80358386D01*
X110750000Y-80450272D01*
X110750000Y-80549728D01*
X110788060Y-80641614D01*
X110858386Y-80711940D01*
X110950272Y-80750000D01*
X111049728Y-80750000D01*
X111101805Y-80728429D01*
X111110065Y-80769952D01*
X111110068Y-80769962D01*
X111179829Y-80938382D01*
X111179836Y-80938394D01*
X111229102Y-81012125D01*
X111249980Y-81078802D01*
X111250000Y-81081016D01*
X111250000Y-81425000D01*
X111472828Y-81425000D01*
X111472844Y-81424999D01*
X111532372Y-81418598D01*
X111532376Y-81418597D01*
X111627088Y-81383272D01*
X111696780Y-81378288D01*
X111717872Y-81384892D01*
X111730042Y-81389933D01*
X111730046Y-81389933D01*
X111730047Y-81389934D01*
X111908843Y-81425500D01*
X111908846Y-81425500D01*
X112091156Y-81425500D01*
X112211445Y-81401572D01*
X112269958Y-81389933D01*
X112438389Y-81320167D01*
X112438394Y-81320163D01*
X112441541Y-81318482D01*
X112443386Y-81318097D01*
X112444018Y-81317836D01*
X112444067Y-81317955D01*
X112509943Y-81304236D01*
X112558459Y-81318482D01*
X112561615Y-81320169D01*
X112677945Y-81368354D01*
X112730042Y-81389933D01*
X112730046Y-81389933D01*
X112730047Y-81389934D01*
X112908843Y-81425500D01*
X112908846Y-81425500D01*
X113091156Y-81425500D01*
X113211445Y-81401572D01*
X113269958Y-81389933D01*
X113438389Y-81320167D01*
X113438394Y-81320163D01*
X113441541Y-81318482D01*
X113443386Y-81318097D01*
X113444018Y-81317836D01*
X113444067Y-81317955D01*
X113509943Y-81304236D01*
X113558459Y-81318482D01*
X113561615Y-81320169D01*
X113677945Y-81368354D01*
X113730042Y-81389933D01*
X113730046Y-81389933D01*
X113730047Y-81389934D01*
X113908843Y-81425500D01*
X113908846Y-81425500D01*
X114091156Y-81425500D01*
X114211445Y-81401572D01*
X114269958Y-81389933D01*
X114382245Y-81343422D01*
X114438387Y-81320168D01*
X114438391Y-81320166D01*
X114513672Y-81269864D01*
X114589972Y-81218883D01*
X114718883Y-81089972D01*
X114820167Y-80938389D01*
X114889933Y-80769958D01*
X114913695Y-80650500D01*
X114925500Y-80591156D01*
X114925500Y-80545808D01*
X114945185Y-80478769D01*
X114961819Y-80458127D01*
X115455273Y-79964673D01*
X115455277Y-79964669D01*
X115526465Y-79858127D01*
X115575501Y-79739744D01*
X115587418Y-79679833D01*
X115600500Y-79614069D01*
X115600500Y-78115515D01*
X115617768Y-78052394D01*
X115618889Y-78050498D01*
X115701744Y-77910398D01*
X115747598Y-77752569D01*
X115750500Y-77715694D01*
X115750500Y-76559306D01*
X115747598Y-76522431D01*
X115701744Y-76364602D01*
X115618081Y-76223135D01*
X115618079Y-76223133D01*
X115618076Y-76223129D01*
X115501870Y-76106923D01*
X115501867Y-76106921D01*
X115501865Y-76106919D01*
X115501549Y-76106732D01*
X115501353Y-76106522D01*
X115495702Y-76102139D01*
X115496409Y-76101227D01*
X115453866Y-76055664D01*
X115441362Y-75986923D01*
X115468006Y-75922333D01*
X115495921Y-75898144D01*
X115495702Y-75897861D01*
X115500911Y-75893820D01*
X115501550Y-75893267D01*
X115501865Y-75893081D01*
X115618081Y-75776865D01*
X115701744Y-75635398D01*
X115747598Y-75477569D01*
X115750500Y-75440694D01*
X115750500Y-74284306D01*
X115747598Y-74247431D01*
X115740716Y-74223743D01*
X115705424Y-74102265D01*
X115700500Y-74067670D01*
X115700500Y-71551080D01*
X115694207Y-71519446D01*
X115690710Y-71501865D01*
X115671659Y-71406088D01*
X115637229Y-71322968D01*
X115626710Y-71297572D01*
X115615085Y-71269506D01*
X115615083Y-71269503D01*
X115532954Y-71146588D01*
X115532953Y-71146587D01*
X115532951Y-71146584D01*
X115428416Y-71042049D01*
X114786819Y-70400451D01*
X114753334Y-70339128D01*
X114750500Y-70312770D01*
X114750500Y-70084313D01*
X114750499Y-70084298D01*
X114747598Y-70047432D01*
X114747597Y-70047426D01*
X114701745Y-69889606D01*
X114701744Y-69889603D01*
X114701744Y-69889602D01*
X114618081Y-69748135D01*
X114618079Y-69748133D01*
X114618076Y-69748129D01*
X114501870Y-69631923D01*
X114501862Y-69631917D01*
X114360396Y-69548255D01*
X114360393Y-69548254D01*
X114202573Y-69502402D01*
X114202567Y-69502401D01*
X114165701Y-69499500D01*
X114165694Y-69499500D01*
X113734306Y-69499500D01*
X113734298Y-69499500D01*
X113697432Y-69502401D01*
X113697426Y-69502402D01*
X113539606Y-69548253D01*
X113513119Y-69563918D01*
X113445394Y-69581098D01*
X113386881Y-69563918D01*
X113360393Y-69548253D01*
X113202573Y-69502402D01*
X113202567Y-69502401D01*
X113165701Y-69499500D01*
X113165694Y-69499500D01*
X112734306Y-69499500D01*
X112734298Y-69499500D01*
X112697432Y-69502401D01*
X112697426Y-69502402D01*
X112539606Y-69548254D01*
X112539603Y-69548255D01*
X112398137Y-69631917D01*
X112398129Y-69631923D01*
X112281923Y-69748129D01*
X112281917Y-69748137D01*
X112198255Y-69889603D01*
X112198254Y-69889606D01*
X112152402Y-70047426D01*
X112152401Y-70047432D01*
X112149500Y-70084298D01*
X112149500Y-71165701D01*
X112152401Y-71202567D01*
X112152402Y-71202573D01*
X112198254Y-71360393D01*
X112198255Y-71360396D01*
X112198256Y-71360398D01*
X112281919Y-71501865D01*
X112282232Y-71502394D01*
X112299500Y-71565515D01*
X112299500Y-73938922D01*
X112279815Y-74005961D01*
X112227011Y-74051716D01*
X112157853Y-74061660D01*
X112098593Y-74036191D01*
X112093661Y-74032292D01*
X112093658Y-74032290D01*
X112093656Y-74032288D01*
X111944334Y-73940186D01*
X111777797Y-73885001D01*
X111777795Y-73885000D01*
X111675010Y-73874500D01*
X110324998Y-73874500D01*
X110324981Y-73874501D01*
X110222203Y-73885000D01*
X110222200Y-73885001D01*
X110055668Y-73940185D01*
X110055663Y-73940187D01*
X109906345Y-74032287D01*
X109834791Y-74103841D01*
X109773467Y-74137325D01*
X109703776Y-74132340D01*
X109694035Y-74127576D01*
X109693836Y-74128005D01*
X109687285Y-74124950D01*
X109580611Y-74089602D01*
X109527685Y-74072064D01*
X109527683Y-74072063D01*
X109429181Y-74062000D01*
X109429174Y-74062000D01*
X108570826Y-74062000D01*
X108570818Y-74062000D01*
X108472316Y-74072063D01*
X108472315Y-74072064D01*
X108419389Y-74089602D01*
X108312715Y-74124950D01*
X108312710Y-74124953D01*
X108289593Y-74139211D01*
X108222200Y-74157649D01*
X108155537Y-74136724D01*
X108110769Y-74083081D01*
X108100499Y-74033674D01*
X108100499Y-73874498D01*
X108120184Y-73807461D01*
X108172988Y-73761706D01*
X108224499Y-73750500D01*
X108689126Y-73750500D01*
X108736578Y-73759939D01*
X108765798Y-73772042D01*
X108765803Y-73772044D01*
X108920916Y-73802898D01*
X108920919Y-73802899D01*
X108920921Y-73802899D01*
X109079081Y-73802899D01*
X109079082Y-73802898D01*
X109234197Y-73772044D01*
X109380315Y-73711520D01*
X109511818Y-73623652D01*
X109623652Y-73511818D01*
X109711520Y-73380315D01*
X109772044Y-73234197D01*
X109802899Y-73079079D01*
X109802899Y-72920921D01*
X109802899Y-72920918D01*
X109802898Y-72920916D01*
X109799294Y-72902796D01*
X109772044Y-72765803D01*
X109711520Y-72619685D01*
X109682098Y-72575653D01*
X109623652Y-72488181D01*
X109511818Y-72376347D01*
X109380312Y-72288478D01*
X109380310Y-72288477D01*
X109234201Y-72227957D01*
X109234189Y-72227954D01*
X109079082Y-72197101D01*
X109079079Y-72197101D01*
X108920921Y-72197101D01*
X108920918Y-72197101D01*
X108765810Y-72227954D01*
X108765798Y-72227957D01*
X108736578Y-72240061D01*
X108689126Y-72249500D01*
X108111230Y-72249500D01*
X108095823Y-72244975D01*
X108079771Y-72245443D01*
X108062987Y-72235334D01*
X108044191Y-72229815D01*
X108033675Y-72217679D01*
X108019919Y-72209394D01*
X108011264Y-72191815D01*
X107998436Y-72177011D01*
X107996150Y-72161118D01*
X107989057Y-72146710D01*
X107991280Y-72127243D01*
X107988492Y-72107853D01*
X107995252Y-72092461D01*
X107996985Y-72077291D01*
X108011180Y-72056197D01*
X108015195Y-72047058D01*
X108019140Y-72042227D01*
X108082952Y-71978416D01*
X108132186Y-71904729D01*
X108165084Y-71855495D01*
X108221658Y-71718913D01*
X108231096Y-71671462D01*
X108250500Y-71573920D01*
X108250500Y-71469640D01*
X108270185Y-71402601D01*
X108322989Y-71356846D01*
X108392147Y-71346902D01*
X108439598Y-71364102D01*
X108516511Y-71411544D01*
X108516518Y-71411547D01*
X108677393Y-71464855D01*
X108776683Y-71474999D01*
X109300000Y-71474999D01*
X109323308Y-71474999D01*
X109323322Y-71474998D01*
X109422607Y-71464855D01*
X109583481Y-71411547D01*
X109583492Y-71411542D01*
X109727728Y-71322575D01*
X109727732Y-71322572D01*
X109847572Y-71202732D01*
X109847575Y-71202728D01*
X109936542Y-71058492D01*
X109936547Y-71058481D01*
X109989855Y-70897606D01*
X109999999Y-70798322D01*
X110000000Y-70798309D01*
X110000000Y-70750000D01*
X109300000Y-70750000D01*
X109300000Y-71474999D01*
X108776683Y-71474999D01*
X108800000Y-71474998D01*
X108800000Y-70624000D01*
X108819685Y-70556961D01*
X108872489Y-70511206D01*
X108924000Y-70500000D01*
X109050000Y-70500000D01*
X109050000Y-70374000D01*
X109069685Y-70306961D01*
X109122489Y-70261206D01*
X109174000Y-70250000D01*
X109999999Y-70250000D01*
X109999999Y-70201692D01*
X109999998Y-70201677D01*
X109989855Y-70102392D01*
X109936547Y-69941518D01*
X109936542Y-69941507D01*
X109847575Y-69797271D01*
X109847572Y-69797267D01*
X109727732Y-69677427D01*
X109727728Y-69677424D01*
X109583492Y-69588457D01*
X109583481Y-69588452D01*
X109455312Y-69545981D01*
X109397867Y-69506208D01*
X109371044Y-69441692D01*
X109375240Y-69393679D01*
X109414578Y-69258279D01*
X109415230Y-69250000D01*
X108674000Y-69250000D01*
X108606961Y-69230315D01*
X108561206Y-69177511D01*
X108550000Y-69126000D01*
X108550000Y-68874000D01*
X108569685Y-68806961D01*
X108622489Y-68761206D01*
X108674000Y-68750000D01*
X109415230Y-68750000D01*
X109414578Y-68741720D01*
X109375240Y-68606320D01*
X109375439Y-68536450D01*
X109413381Y-68477780D01*
X109455313Y-68454018D01*
X109583479Y-68411548D01*
X109583492Y-68411542D01*
X109727728Y-68322575D01*
X109727732Y-68322572D01*
X109847572Y-68202732D01*
X109847575Y-68202728D01*
X109936542Y-68058492D01*
X109936547Y-68058481D01*
X109989855Y-67897606D01*
X109999999Y-67798322D01*
X110000000Y-67798309D01*
X110000000Y-67750000D01*
X109174000Y-67750000D01*
X109106961Y-67730315D01*
X109061206Y-67677511D01*
X109050000Y-67626000D01*
X109050000Y-67500000D01*
X108924000Y-67500000D01*
X108856961Y-67480315D01*
X108811206Y-67427511D01*
X108800000Y-67376000D01*
X108800000Y-67250000D01*
X109300000Y-67250000D01*
X109999999Y-67250000D01*
X109999999Y-67201692D01*
X109999998Y-67201677D01*
X109989855Y-67102392D01*
X109936547Y-66941518D01*
X109936544Y-66941511D01*
X109903905Y-66888596D01*
X109903904Y-66888594D01*
X109865694Y-66826647D01*
X110549500Y-66826647D01*
X110549500Y-68173337D01*
X110549501Y-68173355D01*
X110559650Y-68272707D01*
X110559651Y-68272710D01*
X110612996Y-68433694D01*
X110613001Y-68433705D01*
X110702029Y-68578040D01*
X110702032Y-68578044D01*
X110821955Y-68697967D01*
X110821959Y-68697970D01*
X110966294Y-68786998D01*
X110966297Y-68786999D01*
X110966303Y-68787003D01*
X111127292Y-68840349D01*
X111226655Y-68850500D01*
X111773344Y-68850499D01*
X111773352Y-68850498D01*
X111773355Y-68850498D01*
X111827760Y-68844940D01*
X111872708Y-68840349D01*
X112033697Y-68787003D01*
X112178044Y-68697968D01*
X112297968Y-68578044D01*
X112387003Y-68433697D01*
X112440349Y-68272708D01*
X112450500Y-68173345D01*
X112450499Y-66826656D01*
X112440349Y-66727292D01*
X112387003Y-66566303D01*
X112386999Y-66566297D01*
X112386998Y-66566294D01*
X112297970Y-66421959D01*
X112297967Y-66421955D01*
X112178044Y-66302032D01*
X112178040Y-66302029D01*
X112033705Y-66213001D01*
X112033699Y-66212998D01*
X112033697Y-66212997D01*
X112033694Y-66212996D01*
X111872709Y-66159651D01*
X111773346Y-66149500D01*
X111226662Y-66149500D01*
X111226644Y-66149501D01*
X111127292Y-66159650D01*
X111127289Y-66159651D01*
X110966305Y-66212996D01*
X110966294Y-66213001D01*
X110821959Y-66302029D01*
X110821955Y-66302032D01*
X110702032Y-66421955D01*
X110702029Y-66421959D01*
X110613001Y-66566294D01*
X110612996Y-66566305D01*
X110559651Y-66727290D01*
X110549500Y-66826647D01*
X109865694Y-66826647D01*
X109847575Y-66797271D01*
X109847572Y-66797267D01*
X109727732Y-66677427D01*
X109727728Y-66677424D01*
X109583492Y-66588457D01*
X109583481Y-66588452D01*
X109422606Y-66535144D01*
X109323322Y-66525000D01*
X109300000Y-66525000D01*
X109300000Y-67250000D01*
X108800000Y-67250000D01*
X108800000Y-66524999D01*
X108776693Y-66525000D01*
X108776674Y-66525001D01*
X108677392Y-66535144D01*
X108516518Y-66588452D01*
X108516507Y-66588457D01*
X108372271Y-66677424D01*
X108372265Y-66677428D01*
X108363031Y-66686663D01*
X108301707Y-66720146D01*
X108232015Y-66715159D01*
X108187672Y-66686660D01*
X108178044Y-66677032D01*
X108178040Y-66677029D01*
X108033705Y-66588001D01*
X108033699Y-66587998D01*
X108033697Y-66587997D01*
X108033694Y-66587996D01*
X107872709Y-66534651D01*
X107773346Y-66524500D01*
X107226662Y-66524500D01*
X107226644Y-66524501D01*
X107127292Y-66534650D01*
X107127289Y-66534651D01*
X106966305Y-66587996D01*
X106966294Y-66588001D01*
X106821959Y-66677029D01*
X106821955Y-66677032D01*
X106785807Y-66713181D01*
X106724484Y-66746666D01*
X106698126Y-66749500D01*
X106426874Y-66749500D01*
X106359835Y-66729815D01*
X106339193Y-66713181D01*
X106328044Y-66702032D01*
X106328040Y-66702029D01*
X106183705Y-66613001D01*
X106183699Y-66612998D01*
X106183697Y-66612997D01*
X106183694Y-66612996D01*
X106022709Y-66559651D01*
X105923346Y-66549500D01*
X104976662Y-66549500D01*
X104976644Y-66549501D01*
X104877292Y-66559650D01*
X104877289Y-66559651D01*
X104716305Y-66612996D01*
X104716294Y-66613001D01*
X104571959Y-66702029D01*
X104571955Y-66702032D01*
X104452032Y-66821955D01*
X104452029Y-66821959D01*
X104363001Y-66966294D01*
X104362996Y-66966305D01*
X104309651Y-67127290D01*
X104299500Y-67226648D01*
X104299500Y-67226655D01*
X104299500Y-67400019D01*
X104299501Y-67504000D01*
X104279817Y-67571039D01*
X104227013Y-67616794D01*
X104175501Y-67628000D01*
X101499997Y-67628000D01*
X101428059Y-67633144D01*
X101290005Y-67673682D01*
X101168969Y-67751467D01*
X101168965Y-67751471D01*
X101074750Y-67860200D01*
X101074743Y-67860210D01*
X101016768Y-67987157D01*
X100971013Y-68039961D01*
X100903973Y-68059645D01*
X100891372Y-68059003D01*
X100798347Y-68049500D01*
X100201662Y-68049500D01*
X100201644Y-68049501D01*
X100102292Y-68059650D01*
X100102289Y-68059651D01*
X99941305Y-68112996D01*
X99941294Y-68113001D01*
X99796959Y-68202029D01*
X99796955Y-68202032D01*
X99785807Y-68213181D01*
X99724484Y-68246666D01*
X99698126Y-68249500D01*
X98063297Y-68249500D01*
X97999148Y-68231617D01*
X97954272Y-68204489D01*
X97954263Y-68204485D01*
X97797664Y-68155687D01*
X97797662Y-68155686D01*
X97797657Y-68155685D01*
X97729594Y-68149500D01*
X95270406Y-68149500D01*
X95202343Y-68155685D01*
X95202339Y-68155686D01*
X95202335Y-68155687D01*
X95045736Y-68204485D01*
X95045727Y-68204488D01*
X94905351Y-68289348D01*
X94905347Y-68289351D01*
X94789351Y-68405347D01*
X94789348Y-68405351D01*
X94704488Y-68545727D01*
X94704485Y-68545736D01*
X94655687Y-68702335D01*
X94655685Y-68702343D01*
X94649500Y-68770406D01*
X90000000Y-68770406D01*
X90000000Y-66699983D01*
X91349500Y-66699983D01*
X91349500Y-67400001D01*
X91349501Y-67400019D01*
X91360000Y-67502796D01*
X91360001Y-67502799D01*
X91415185Y-67669331D01*
X91415187Y-67669336D01*
X91450069Y-67725888D01*
X91507288Y-67818656D01*
X91631344Y-67942712D01*
X91780666Y-68034814D01*
X91947203Y-68089999D01*
X92049991Y-68100500D01*
X93550008Y-68100499D01*
X93652797Y-68089999D01*
X93819334Y-68034814D01*
X93968656Y-67942712D01*
X94092712Y-67818656D01*
X94184814Y-67669334D01*
X94239999Y-67502797D01*
X94250500Y-67400009D01*
X94250499Y-66699992D01*
X94249137Y-66686663D01*
X94239999Y-66597203D01*
X94239998Y-66597200D01*
X94236678Y-66587182D01*
X94184814Y-66430666D01*
X94092712Y-66281344D01*
X93968656Y-66157288D01*
X93819334Y-66065186D01*
X93652797Y-66010001D01*
X93652795Y-66010000D01*
X93550010Y-65999500D01*
X92049998Y-65999500D01*
X92049981Y-65999501D01*
X91947203Y-66010000D01*
X91947200Y-66010001D01*
X91780668Y-66065185D01*
X91780663Y-66065187D01*
X91631342Y-66157289D01*
X91507289Y-66281342D01*
X91415187Y-66430663D01*
X91415186Y-66430666D01*
X91360001Y-66597203D01*
X91360001Y-66597204D01*
X91360000Y-66597204D01*
X91349500Y-66699983D01*
X90000000Y-66699983D01*
X90000000Y-65624000D01*
X90019685Y-65556961D01*
X90072489Y-65511206D01*
X90124000Y-65500000D01*
X116376000Y-65500000D01*
X116443039Y-65519685D01*
G37*
%TD.AperFunction*%
%TD*%
M02*
