%TF.GenerationSoftware,KiCad,Pcbnew,9.0.7*%
%TF.CreationDate,2026-02-28T20:33:11+01:00*%
%TF.ProjectId,usb,7573622e-6b69-4636-9164-5f7063625858,rev?*%
%TF.SameCoordinates,Original*%
%TF.FileFunction,Copper,L2,Bot*%
%TF.FilePolarity,Positive*%
%FSLAX46Y46*%
G04 Gerber Fmt 4.6, Leading zero omitted, Abs format (unit mm)*
G04 Created by KiCad (PCBNEW 9.0.7) date 2026-02-28 20:33:11*
%MOMM*%
%LPD*%
G01*
G04 APERTURE LIST*
%TA.AperFunction,ViaPad*%
%ADD10C,0.604799*%
%TD*%
%TA.AperFunction,Conductor*%
%ADD11C,0.152400*%
%TD*%
G04 APERTURE END LIST*
D10*
%TO.N,GND*%
X107500000Y-80500000D03*
X114000000Y-78500000D03*
X98000000Y-72500000D03*
X110500000Y-72000000D03*
X105500000Y-72000000D03*
X110000000Y-70500000D03*
%TO.N,+5V*%
X114000000Y-73000000D03*
X106500000Y-73000000D03*
%TD*%
D11*
%TO.N,+5V*%
X114000000Y-73000000D02*
X106500000Y-73000000D01*
%TD*%
%TA.AperFunction,Conductor*%
%TO.N,GND*%
G36*
X116443039Y-65519685D02*
G01*
X116488794Y-65572489D01*
X116500000Y-65624000D01*
X116500000Y-83376000D01*
X116480315Y-83443039D01*
X116427511Y-83488794D01*
X116376000Y-83500000D01*
X90124000Y-83500000D01*
X90056961Y-83480315D01*
X90011206Y-83427511D01*
X90000000Y-83376000D01*
X90000000Y-72920916D01*
X105697101Y-72920916D01*
X105697101Y-73079083D01*
X105727954Y-73234189D01*
X105727957Y-73234201D01*
X105788477Y-73380310D01*
X105788478Y-73380312D01*
X105876347Y-73511818D01*
X105988181Y-73623652D01*
X106075653Y-73682098D01*
X106119685Y-73711520D01*
X106119686Y-73711520D01*
X106119687Y-73711521D01*
X106119689Y-73711522D01*
X106265798Y-73772042D01*
X106265803Y-73772044D01*
X106420916Y-73802898D01*
X106420919Y-73802899D01*
X106420921Y-73802899D01*
X106579081Y-73802899D01*
X106579082Y-73802898D01*
X106734197Y-73772044D01*
X106880315Y-73711520D01*
X107011818Y-73623652D01*
X107011821Y-73623649D01*
X107022452Y-73613019D01*
X107083775Y-73579534D01*
X107110133Y-73576700D01*
X113389867Y-73576700D01*
X113456906Y-73596385D01*
X113477548Y-73613019D01*
X113488181Y-73623652D01*
X113575653Y-73682098D01*
X113619685Y-73711520D01*
X113619686Y-73711520D01*
X113619687Y-73711521D01*
X113619689Y-73711522D01*
X113765798Y-73772042D01*
X113765803Y-73772044D01*
X113920916Y-73802898D01*
X113920919Y-73802899D01*
X113920921Y-73802899D01*
X114079081Y-73802899D01*
X114079082Y-73802898D01*
X114234197Y-73772044D01*
X114380315Y-73711520D01*
X114511818Y-73623652D01*
X114623652Y-73511818D01*
X114711520Y-73380315D01*
X114772044Y-73234197D01*
X114802899Y-73079079D01*
X114802899Y-72920921D01*
X114802899Y-72920918D01*
X114802898Y-72920916D01*
X114772045Y-72765810D01*
X114772044Y-72765803D01*
X114711520Y-72619685D01*
X114682098Y-72575653D01*
X114623652Y-72488181D01*
X114511818Y-72376347D01*
X114380312Y-72288478D01*
X114380310Y-72288477D01*
X114234201Y-72227957D01*
X114234189Y-72227954D01*
X114079082Y-72197101D01*
X114079079Y-72197101D01*
X113920921Y-72197101D01*
X113920918Y-72197101D01*
X113765810Y-72227954D01*
X113765798Y-72227957D01*
X113619689Y-72288477D01*
X113619687Y-72288478D01*
X113488181Y-72376347D01*
X113488178Y-72376350D01*
X113477548Y-72386981D01*
X113416225Y-72420466D01*
X113389867Y-72423300D01*
X107110133Y-72423300D01*
X107043094Y-72403615D01*
X107022452Y-72386981D01*
X107011818Y-72376347D01*
X106880312Y-72288478D01*
X106880310Y-72288477D01*
X106734201Y-72227957D01*
X106734189Y-72227954D01*
X106579082Y-72197101D01*
X106579079Y-72197101D01*
X106420921Y-72197101D01*
X106420918Y-72197101D01*
X106265810Y-72227954D01*
X106265798Y-72227957D01*
X106119689Y-72288477D01*
X106119687Y-72288478D01*
X105988181Y-72376347D01*
X105876347Y-72488181D01*
X105788478Y-72619687D01*
X105788477Y-72619689D01*
X105727957Y-72765798D01*
X105727954Y-72765810D01*
X105697101Y-72920916D01*
X90000000Y-72920916D01*
X90000000Y-65624000D01*
X90019685Y-65556961D01*
X90072489Y-65511206D01*
X90124000Y-65500000D01*
X116376000Y-65500000D01*
X116443039Y-65519685D01*
G37*
%TD.AperFunction*%
%TD*%
M02*
