%TF.GenerationSoftware,KiCad,Pcbnew,9.0.7*%
%TF.CreationDate,2026-02-26T21:52:52+01:00*%
%TF.ProjectId,usb,7573622e-6b69-4636-9164-5f7063625858,rev?*%
%TF.SameCoordinates,Original*%
%TF.FileFunction,Soldermask,Top*%
%TF.FilePolarity,Negative*%
%FSLAX46Y46*%
G04 Gerber Fmt 4.6, Leading zero omitted, Abs format (unit mm)*
G04 Created by KiCad (PCBNEW 9.0.7) date 2026-02-26 21:52:52*
%MOMM*%
%LPD*%
G01*
G04 APERTURE LIST*
G04 Aperture macros list*
%AMRoundRect*
0 Rectangle with rounded corners*
0 $1 Rounding radius*
0 $2 $3 $4 $5 $6 $7 $8 $9 X,Y pos of 4 corners*
0 Add a 4 corners polygon primitive as box body*
4,1,4,$2,$3,$4,$5,$6,$7,$8,$9,$2,$3,0*
0 Add four circle primitives for the rounded corners*
1,1,$1+$1,$2,$3*
1,1,$1+$1,$4,$5*
1,1,$1+$1,$6,$7*
1,1,$1+$1,$8,$9*
0 Add four rect primitives between the rounded corners*
20,1,$1+$1,$2,$3,$4,$5,0*
20,1,$1+$1,$4,$5,$6,$7,0*
20,1,$1+$1,$6,$7,$8,$9,0*
20,1,$1+$1,$8,$9,$2,$3,0*%
%AMFreePoly0*
4,1,9,3.862500,-0.866500,0.737500,-0.866500,0.737500,-0.450000,-0.737500,-0.450000,-0.737500,0.450000,0.737500,0.450000,0.737500,0.866500,3.862500,0.866500,3.862500,-0.866500,3.862500,-0.866500,$1*%
G04 Aperture macros list end*
%ADD10RoundRect,0.225000X-0.225000X-0.250000X0.225000X-0.250000X0.225000X0.250000X-0.225000X0.250000X0*%
%ADD11RoundRect,0.150000X0.150000X-0.512500X0.150000X0.512500X-0.150000X0.512500X-0.150000X-0.512500X0*%
%ADD12RoundRect,0.225000X-0.375000X0.225000X-0.375000X-0.225000X0.375000X-0.225000X0.375000X0.225000X0*%
%ADD13RoundRect,0.225000X0.425000X0.225000X-0.425000X0.225000X-0.425000X-0.225000X0.425000X-0.225000X0*%
%ADD14FreePoly0,180.000000*%
%ADD15RoundRect,0.135000X-0.135000X-0.185000X0.135000X-0.185000X0.135000X0.185000X-0.135000X0.185000X0*%
%ADD16RoundRect,0.150000X-0.150000X-0.425000X0.150000X-0.425000X0.150000X0.425000X-0.150000X0.425000X0*%
%ADD17RoundRect,0.075000X-0.075000X-0.500000X0.075000X-0.500000X0.075000X0.500000X-0.075000X0.500000X0*%
%ADD18O,1.000000X2.100000*%
%ADD19O,1.000000X1.800000*%
%ADD20RoundRect,0.155000X-0.212500X-0.155000X0.212500X-0.155000X0.212500X0.155000X-0.212500X0.155000X0*%
%ADD21RoundRect,0.175000X-1.175000X0.175000X-1.175000X-0.175000X1.175000X-0.175000X1.175000X0.175000X0*%
%ADD22RoundRect,0.250000X-0.700000X0.300000X-0.700000X-0.300000X0.700000X-0.300000X0.700000X0.300000X0*%
%ADD23RoundRect,0.225000X-0.250000X0.225000X-0.250000X-0.225000X0.250000X-0.225000X0.250000X0.225000X0*%
%ADD24RoundRect,0.135000X0.135000X0.185000X-0.135000X0.185000X-0.135000X-0.185000X0.135000X-0.185000X0*%
%ADD25RoundRect,0.250000X0.625000X-0.375000X0.625000X0.375000X-0.625000X0.375000X-0.625000X-0.375000X0*%
%ADD26RoundRect,0.218750X-0.381250X0.218750X-0.381250X-0.218750X0.381250X-0.218750X0.381250X0.218750X0*%
%ADD27RoundRect,0.150000X0.150000X0.475000X-0.150000X0.475000X-0.150000X-0.475000X0.150000X-0.475000X0*%
%ADD28RoundRect,0.225000X0.225000X0.625000X-0.225000X0.625000X-0.225000X-0.625000X0.225000X-0.625000X0*%
%ADD29RoundRect,0.175000X-0.175000X-1.175000X0.175000X-1.175000X0.175000X1.175000X-0.175000X1.175000X0*%
%ADD30RoundRect,0.250000X-0.300000X-0.700000X0.300000X-0.700000X0.300000X0.700000X-0.300000X0.700000X0*%
G04 APERTURE END LIST*
D10*
%TO.C,C3*%
X107500000Y-72000000D03*
X109050000Y-72000000D03*
%TD*%
D11*
%TO.C,U1*%
X113050000Y-77137500D03*
X114000000Y-77137500D03*
X114950000Y-77137500D03*
X114950000Y-74862500D03*
X114000000Y-74862500D03*
X113050000Y-74862500D03*
%TD*%
D12*
%TO.C,D1*%
X104500000Y-73800000D03*
X104500000Y-77100000D03*
%TD*%
D13*
%TO.C,U2*%
X105450000Y-70500000D03*
D14*
X105362500Y-69000000D03*
D13*
X105450000Y-67500000D03*
%TD*%
D15*
%TO.C,R4*%
X116990000Y-78500000D03*
X118010000Y-78500000D03*
%TD*%
D16*
%TO.C,JUSB1*%
X111272500Y-80500000D03*
X112072500Y-80500000D03*
D17*
X113222500Y-80500000D03*
X114222500Y-80500000D03*
X114722500Y-80500000D03*
X115722500Y-80500000D03*
D16*
X116872500Y-80500000D03*
X117672500Y-80500000D03*
X117672500Y-80500000D03*
X116872500Y-80500000D03*
D17*
X116222500Y-80500000D03*
X115222500Y-80500000D03*
X113722500Y-80500000D03*
X112722500Y-80500000D03*
D16*
X112072500Y-80500000D03*
X111272500Y-80500000D03*
D18*
X110152500Y-81075000D03*
D19*
X110152500Y-85255000D03*
D18*
X118792500Y-81075000D03*
D19*
X118792500Y-85255000D03*
%TD*%
D20*
%TO.C,C2*%
X107415000Y-70500000D03*
X108550000Y-70500000D03*
%TD*%
D21*
%TO.C,J5*%
X96500000Y-69000000D03*
X96500000Y-70500000D03*
D22*
X92800000Y-67050000D03*
X92800000Y-72450000D03*
%TD*%
D23*
%TO.C,C18*%
X100500000Y-69000000D03*
X100500000Y-70550000D03*
%TD*%
D24*
%TO.C,R1*%
X111510000Y-77000000D03*
X110490000Y-77000000D03*
%TD*%
D25*
%TO.C,F1*%
X108500000Y-77800000D03*
X108500000Y-75000000D03*
%TD*%
D26*
%TO.C,FB1*%
X106500000Y-75000000D03*
X106500000Y-77125000D03*
%TD*%
D27*
%TO.C,J3*%
X113950000Y-67625000D03*
X112950000Y-67625000D03*
D28*
X115400000Y-64500000D03*
X111500000Y-64500000D03*
%TD*%
D10*
%TO.C,C17*%
X107500000Y-69000000D03*
X109050000Y-69000000D03*
%TD*%
D29*
%TO.C,J2*%
X97500000Y-77000000D03*
X99000000Y-77000000D03*
D30*
X95550000Y-80700000D03*
X100950000Y-80700000D03*
%TD*%
M02*
