%TF.GenerationSoftware,KiCad,Pcbnew,9.0.7*%
%TF.CreationDate,2026-02-26T21:52:52+01:00*%
%TF.ProjectId,usb,7573622e-6b69-4636-9164-5f7063625858,rev?*%
%TF.SameCoordinates,Original*%
%TF.FileFunction,Legend,Top*%
%TF.FilePolarity,Positive*%
%FSLAX46Y46*%
G04 Gerber Fmt 4.6, Leading zero omitted, Abs format (unit mm)*
G04 Created by KiCad (PCBNEW 9.0.7) date 2026-02-26 21:52:52*
%MOMM*%
%LPD*%
G01*
G04 APERTURE LIST*
G04 Aperture macros list*
%AMRoundRect*
0 Rectangle with rounded corners*
0 $1 Rounding radius*
0 $2 $3 $4 $5 $6 $7 $8 $9 X,Y pos of 4 corners*
0 Add a 4 corners polygon primitive as box body*
4,1,4,$2,$3,$4,$5,$6,$7,$8,$9,$2,$3,0*
0 Add four circle primitives for the rounded corners*
1,1,$1+$1,$2,$3*
1,1,$1+$1,$4,$5*
1,1,$1+$1,$6,$7*
1,1,$1+$1,$8,$9*
0 Add four rect primitives between the rounded corners*
20,1,$1+$1,$2,$3,$4,$5,0*
20,1,$1+$1,$4,$5,$6,$7,0*
20,1,$1+$1,$6,$7,$8,$9,0*
20,1,$1+$1,$8,$9,$2,$3,0*%
%AMFreePoly0*
4,1,9,3.862500,-0.866500,0.737500,-0.866500,0.737500,-0.450000,-0.737500,-0.450000,-0.737500,0.450000,0.737500,0.450000,0.737500,0.866500,3.862500,0.866500,3.862500,-0.866500,3.862500,-0.866500,$1*%
G04 Aperture macros list end*
%ADD10C,0.150000*%
%ADD11C,0.120000*%
%ADD12RoundRect,0.225000X-0.225000X-0.250000X0.225000X-0.250000X0.225000X0.250000X-0.225000X0.250000X0*%
%ADD13RoundRect,0.150000X0.150000X-0.512500X0.150000X0.512500X-0.150000X0.512500X-0.150000X-0.512500X0*%
%ADD14RoundRect,0.225000X-0.375000X0.225000X-0.375000X-0.225000X0.375000X-0.225000X0.375000X0.225000X0*%
%ADD15RoundRect,0.225000X0.425000X0.225000X-0.425000X0.225000X-0.425000X-0.225000X0.425000X-0.225000X0*%
%ADD16FreePoly0,180.000000*%
%ADD17RoundRect,0.135000X-0.135000X-0.185000X0.135000X-0.185000X0.135000X0.185000X-0.135000X0.185000X0*%
%ADD18C,0.650000*%
%ADD19RoundRect,0.150000X-0.150000X-0.425000X0.150000X-0.425000X0.150000X0.425000X-0.150000X0.425000X0*%
%ADD20RoundRect,0.075000X-0.075000X-0.500000X0.075000X-0.500000X0.075000X0.500000X-0.075000X0.500000X0*%
%ADD21O,1.000000X2.100000*%
%ADD22O,1.000000X1.800000*%
%ADD23RoundRect,0.155000X-0.212500X-0.155000X0.212500X-0.155000X0.212500X0.155000X-0.212500X0.155000X0*%
%ADD24RoundRect,0.175000X-1.175000X0.175000X-1.175000X-0.175000X1.175000X-0.175000X1.175000X0.175000X0*%
%ADD25RoundRect,0.250000X-0.700000X0.300000X-0.700000X-0.300000X0.700000X-0.300000X0.700000X0.300000X0*%
%ADD26RoundRect,0.225000X-0.250000X0.225000X-0.250000X-0.225000X0.250000X-0.225000X0.250000X0.225000X0*%
%ADD27RoundRect,0.135000X0.135000X0.185000X-0.135000X0.185000X-0.135000X-0.185000X0.135000X-0.185000X0*%
%ADD28RoundRect,0.250000X0.625000X-0.375000X0.625000X0.375000X-0.625000X0.375000X-0.625000X-0.375000X0*%
%ADD29RoundRect,0.218750X-0.381250X0.218750X-0.381250X-0.218750X0.381250X-0.218750X0.381250X0.218750X0*%
%ADD30RoundRect,0.150000X0.150000X0.475000X-0.150000X0.475000X-0.150000X-0.475000X0.150000X-0.475000X0*%
%ADD31RoundRect,0.225000X0.225000X0.625000X-0.225000X0.625000X-0.225000X-0.625000X0.225000X-0.625000X0*%
%ADD32RoundRect,0.175000X-0.175000X-1.175000X0.175000X-1.175000X0.175000X1.175000X-0.175000X1.175000X0*%
%ADD33RoundRect,0.250000X-0.300000X-0.700000X0.300000X-0.700000X0.300000X0.700000X-0.300000X0.700000X0*%
G04 APERTURE END LIST*
D10*
X108108333Y-70929580D02*
X108060714Y-70977200D01*
X108060714Y-70977200D02*
X107917857Y-71024819D01*
X107917857Y-71024819D02*
X107822619Y-71024819D01*
X107822619Y-71024819D02*
X107679762Y-70977200D01*
X107679762Y-70977200D02*
X107584524Y-70881961D01*
X107584524Y-70881961D02*
X107536905Y-70786723D01*
X107536905Y-70786723D02*
X107489286Y-70596247D01*
X107489286Y-70596247D02*
X107489286Y-70453390D01*
X107489286Y-70453390D02*
X107536905Y-70262914D01*
X107536905Y-70262914D02*
X107584524Y-70167676D01*
X107584524Y-70167676D02*
X107679762Y-70072438D01*
X107679762Y-70072438D02*
X107822619Y-70024819D01*
X107822619Y-70024819D02*
X107917857Y-70024819D01*
X107917857Y-70024819D02*
X108060714Y-70072438D01*
X108060714Y-70072438D02*
X108108333Y-70120057D01*
X108441667Y-70024819D02*
X109060714Y-70024819D01*
X109060714Y-70024819D02*
X108727381Y-70405771D01*
X108727381Y-70405771D02*
X108870238Y-70405771D01*
X108870238Y-70405771D02*
X108965476Y-70453390D01*
X108965476Y-70453390D02*
X109013095Y-70501009D01*
X109013095Y-70501009D02*
X109060714Y-70596247D01*
X109060714Y-70596247D02*
X109060714Y-70834342D01*
X109060714Y-70834342D02*
X109013095Y-70929580D01*
X109013095Y-70929580D02*
X108965476Y-70977200D01*
X108965476Y-70977200D02*
X108870238Y-71024819D01*
X108870238Y-71024819D02*
X108584524Y-71024819D01*
X108584524Y-71024819D02*
X108489286Y-70977200D01*
X108489286Y-70977200D02*
X108441667Y-70929580D01*
X111054819Y-76761904D02*
X111864342Y-76761904D01*
X111864342Y-76761904D02*
X111959580Y-76714285D01*
X111959580Y-76714285D02*
X112007200Y-76666666D01*
X112007200Y-76666666D02*
X112054819Y-76571428D01*
X112054819Y-76571428D02*
X112054819Y-76380952D01*
X112054819Y-76380952D02*
X112007200Y-76285714D01*
X112007200Y-76285714D02*
X111959580Y-76238095D01*
X111959580Y-76238095D02*
X111864342Y-76190476D01*
X111864342Y-76190476D02*
X111054819Y-76190476D01*
X112054819Y-75190476D02*
X112054819Y-75761904D01*
X112054819Y-75476190D02*
X111054819Y-75476190D01*
X111054819Y-75476190D02*
X111197676Y-75571428D01*
X111197676Y-75571428D02*
X111292914Y-75666666D01*
X111292914Y-75666666D02*
X111340533Y-75761904D01*
X106954819Y-76188094D02*
X105954819Y-76188094D01*
X105954819Y-76188094D02*
X105954819Y-75949999D01*
X105954819Y-75949999D02*
X106002438Y-75807142D01*
X106002438Y-75807142D02*
X106097676Y-75711904D01*
X106097676Y-75711904D02*
X106192914Y-75664285D01*
X106192914Y-75664285D02*
X106383390Y-75616666D01*
X106383390Y-75616666D02*
X106526247Y-75616666D01*
X106526247Y-75616666D02*
X106716723Y-75664285D01*
X106716723Y-75664285D02*
X106811961Y-75711904D01*
X106811961Y-75711904D02*
X106907200Y-75807142D01*
X106907200Y-75807142D02*
X106954819Y-75949999D01*
X106954819Y-75949999D02*
X106954819Y-76188094D01*
X106954819Y-74664285D02*
X106954819Y-75235713D01*
X106954819Y-74949999D02*
X105954819Y-74949999D01*
X105954819Y-74949999D02*
X106097676Y-75045237D01*
X106097676Y-75045237D02*
X106192914Y-75140475D01*
X106192914Y-75140475D02*
X106240533Y-75235713D01*
X102738095Y-71954819D02*
X102738095Y-72764342D01*
X102738095Y-72764342D02*
X102785714Y-72859580D01*
X102785714Y-72859580D02*
X102833333Y-72907200D01*
X102833333Y-72907200D02*
X102928571Y-72954819D01*
X102928571Y-72954819D02*
X103119047Y-72954819D01*
X103119047Y-72954819D02*
X103214285Y-72907200D01*
X103214285Y-72907200D02*
X103261904Y-72859580D01*
X103261904Y-72859580D02*
X103309523Y-72764342D01*
X103309523Y-72764342D02*
X103309523Y-71954819D01*
X103738095Y-72050057D02*
X103785714Y-72002438D01*
X103785714Y-72002438D02*
X103880952Y-71954819D01*
X103880952Y-71954819D02*
X104119047Y-71954819D01*
X104119047Y-71954819D02*
X104214285Y-72002438D01*
X104214285Y-72002438D02*
X104261904Y-72050057D01*
X104261904Y-72050057D02*
X104309523Y-72145295D01*
X104309523Y-72145295D02*
X104309523Y-72240533D01*
X104309523Y-72240533D02*
X104261904Y-72383390D01*
X104261904Y-72383390D02*
X103690476Y-72954819D01*
X103690476Y-72954819D02*
X104309523Y-72954819D01*
X117333333Y-77784819D02*
X117000000Y-77308628D01*
X116761905Y-77784819D02*
X116761905Y-76784819D01*
X116761905Y-76784819D02*
X117142857Y-76784819D01*
X117142857Y-76784819D02*
X117238095Y-76832438D01*
X117238095Y-76832438D02*
X117285714Y-76880057D01*
X117285714Y-76880057D02*
X117333333Y-76975295D01*
X117333333Y-76975295D02*
X117333333Y-77118152D01*
X117333333Y-77118152D02*
X117285714Y-77213390D01*
X117285714Y-77213390D02*
X117238095Y-77261009D01*
X117238095Y-77261009D02*
X117142857Y-77308628D01*
X117142857Y-77308628D02*
X116761905Y-77308628D01*
X118190476Y-77118152D02*
X118190476Y-77784819D01*
X117952381Y-76737200D02*
X117714286Y-77451485D01*
X117714286Y-77451485D02*
X118333333Y-77451485D01*
X112639166Y-78134819D02*
X112639166Y-78849104D01*
X112639166Y-78849104D02*
X112591547Y-78991961D01*
X112591547Y-78991961D02*
X112496309Y-79087200D01*
X112496309Y-79087200D02*
X112353452Y-79134819D01*
X112353452Y-79134819D02*
X112258214Y-79134819D01*
X113115357Y-78134819D02*
X113115357Y-78944342D01*
X113115357Y-78944342D02*
X113162976Y-79039580D01*
X113162976Y-79039580D02*
X113210595Y-79087200D01*
X113210595Y-79087200D02*
X113305833Y-79134819D01*
X113305833Y-79134819D02*
X113496309Y-79134819D01*
X113496309Y-79134819D02*
X113591547Y-79087200D01*
X113591547Y-79087200D02*
X113639166Y-79039580D01*
X113639166Y-79039580D02*
X113686785Y-78944342D01*
X113686785Y-78944342D02*
X113686785Y-78134819D01*
X114115357Y-79087200D02*
X114258214Y-79134819D01*
X114258214Y-79134819D02*
X114496309Y-79134819D01*
X114496309Y-79134819D02*
X114591547Y-79087200D01*
X114591547Y-79087200D02*
X114639166Y-79039580D01*
X114639166Y-79039580D02*
X114686785Y-78944342D01*
X114686785Y-78944342D02*
X114686785Y-78849104D01*
X114686785Y-78849104D02*
X114639166Y-78753866D01*
X114639166Y-78753866D02*
X114591547Y-78706247D01*
X114591547Y-78706247D02*
X114496309Y-78658628D01*
X114496309Y-78658628D02*
X114305833Y-78611009D01*
X114305833Y-78611009D02*
X114210595Y-78563390D01*
X114210595Y-78563390D02*
X114162976Y-78515771D01*
X114162976Y-78515771D02*
X114115357Y-78420533D01*
X114115357Y-78420533D02*
X114115357Y-78325295D01*
X114115357Y-78325295D02*
X114162976Y-78230057D01*
X114162976Y-78230057D02*
X114210595Y-78182438D01*
X114210595Y-78182438D02*
X114305833Y-78134819D01*
X114305833Y-78134819D02*
X114543928Y-78134819D01*
X114543928Y-78134819D02*
X114686785Y-78182438D01*
X115448690Y-78611009D02*
X115591547Y-78658628D01*
X115591547Y-78658628D02*
X115639166Y-78706247D01*
X115639166Y-78706247D02*
X115686785Y-78801485D01*
X115686785Y-78801485D02*
X115686785Y-78944342D01*
X115686785Y-78944342D02*
X115639166Y-79039580D01*
X115639166Y-79039580D02*
X115591547Y-79087200D01*
X115591547Y-79087200D02*
X115496309Y-79134819D01*
X115496309Y-79134819D02*
X115115357Y-79134819D01*
X115115357Y-79134819D02*
X115115357Y-78134819D01*
X115115357Y-78134819D02*
X115448690Y-78134819D01*
X115448690Y-78134819D02*
X115543928Y-78182438D01*
X115543928Y-78182438D02*
X115591547Y-78230057D01*
X115591547Y-78230057D02*
X115639166Y-78325295D01*
X115639166Y-78325295D02*
X115639166Y-78420533D01*
X115639166Y-78420533D02*
X115591547Y-78515771D01*
X115591547Y-78515771D02*
X115543928Y-78563390D01*
X115543928Y-78563390D02*
X115448690Y-78611009D01*
X115448690Y-78611009D02*
X115115357Y-78611009D01*
X116639166Y-79134819D02*
X116067738Y-79134819D01*
X116353452Y-79134819D02*
X116353452Y-78134819D01*
X116353452Y-78134819D02*
X116258214Y-78277676D01*
X116258214Y-78277676D02*
X116162976Y-78372914D01*
X116162976Y-78372914D02*
X116067738Y-78420533D01*
X107815833Y-69699580D02*
X107768214Y-69747200D01*
X107768214Y-69747200D02*
X107625357Y-69794819D01*
X107625357Y-69794819D02*
X107530119Y-69794819D01*
X107530119Y-69794819D02*
X107387262Y-69747200D01*
X107387262Y-69747200D02*
X107292024Y-69651961D01*
X107292024Y-69651961D02*
X107244405Y-69556723D01*
X107244405Y-69556723D02*
X107196786Y-69366247D01*
X107196786Y-69366247D02*
X107196786Y-69223390D01*
X107196786Y-69223390D02*
X107244405Y-69032914D01*
X107244405Y-69032914D02*
X107292024Y-68937676D01*
X107292024Y-68937676D02*
X107387262Y-68842438D01*
X107387262Y-68842438D02*
X107530119Y-68794819D01*
X107530119Y-68794819D02*
X107625357Y-68794819D01*
X107625357Y-68794819D02*
X107768214Y-68842438D01*
X107768214Y-68842438D02*
X107815833Y-68890057D01*
X108196786Y-68890057D02*
X108244405Y-68842438D01*
X108244405Y-68842438D02*
X108339643Y-68794819D01*
X108339643Y-68794819D02*
X108577738Y-68794819D01*
X108577738Y-68794819D02*
X108672976Y-68842438D01*
X108672976Y-68842438D02*
X108720595Y-68890057D01*
X108720595Y-68890057D02*
X108768214Y-68985295D01*
X108768214Y-68985295D02*
X108768214Y-69080533D01*
X108768214Y-69080533D02*
X108720595Y-69223390D01*
X108720595Y-69223390D02*
X108149167Y-69794819D01*
X108149167Y-69794819D02*
X108768214Y-69794819D01*
X98504819Y-70083333D02*
X99219104Y-70083333D01*
X99219104Y-70083333D02*
X99361961Y-70130952D01*
X99361961Y-70130952D02*
X99457200Y-70226190D01*
X99457200Y-70226190D02*
X99504819Y-70369047D01*
X99504819Y-70369047D02*
X99504819Y-70464285D01*
X98504819Y-69130952D02*
X98504819Y-69607142D01*
X98504819Y-69607142D02*
X98981009Y-69654761D01*
X98981009Y-69654761D02*
X98933390Y-69607142D01*
X98933390Y-69607142D02*
X98885771Y-69511904D01*
X98885771Y-69511904D02*
X98885771Y-69273809D01*
X98885771Y-69273809D02*
X98933390Y-69178571D01*
X98933390Y-69178571D02*
X98981009Y-69130952D01*
X98981009Y-69130952D02*
X99076247Y-69083333D01*
X99076247Y-69083333D02*
X99314342Y-69083333D01*
X99314342Y-69083333D02*
X99409580Y-69130952D01*
X99409580Y-69130952D02*
X99457200Y-69178571D01*
X99457200Y-69178571D02*
X99504819Y-69273809D01*
X99504819Y-69273809D02*
X99504819Y-69511904D01*
X99504819Y-69511904D02*
X99457200Y-69607142D01*
X99457200Y-69607142D02*
X99409580Y-69654761D01*
X102289580Y-70417857D02*
X102337200Y-70465476D01*
X102337200Y-70465476D02*
X102384819Y-70608333D01*
X102384819Y-70608333D02*
X102384819Y-70703571D01*
X102384819Y-70703571D02*
X102337200Y-70846428D01*
X102337200Y-70846428D02*
X102241961Y-70941666D01*
X102241961Y-70941666D02*
X102146723Y-70989285D01*
X102146723Y-70989285D02*
X101956247Y-71036904D01*
X101956247Y-71036904D02*
X101813390Y-71036904D01*
X101813390Y-71036904D02*
X101622914Y-70989285D01*
X101622914Y-70989285D02*
X101527676Y-70941666D01*
X101527676Y-70941666D02*
X101432438Y-70846428D01*
X101432438Y-70846428D02*
X101384819Y-70703571D01*
X101384819Y-70703571D02*
X101384819Y-70608333D01*
X101384819Y-70608333D02*
X101432438Y-70465476D01*
X101432438Y-70465476D02*
X101480057Y-70417857D01*
X102384819Y-69465476D02*
X102384819Y-70036904D01*
X102384819Y-69751190D02*
X101384819Y-69751190D01*
X101384819Y-69751190D02*
X101527676Y-69846428D01*
X101527676Y-69846428D02*
X101622914Y-69941666D01*
X101622914Y-69941666D02*
X101670533Y-70036904D01*
X101813390Y-68894047D02*
X101765771Y-68989285D01*
X101765771Y-68989285D02*
X101718152Y-69036904D01*
X101718152Y-69036904D02*
X101622914Y-69084523D01*
X101622914Y-69084523D02*
X101575295Y-69084523D01*
X101575295Y-69084523D02*
X101480057Y-69036904D01*
X101480057Y-69036904D02*
X101432438Y-68989285D01*
X101432438Y-68989285D02*
X101384819Y-68894047D01*
X101384819Y-68894047D02*
X101384819Y-68703571D01*
X101384819Y-68703571D02*
X101432438Y-68608333D01*
X101432438Y-68608333D02*
X101480057Y-68560714D01*
X101480057Y-68560714D02*
X101575295Y-68513095D01*
X101575295Y-68513095D02*
X101622914Y-68513095D01*
X101622914Y-68513095D02*
X101718152Y-68560714D01*
X101718152Y-68560714D02*
X101765771Y-68608333D01*
X101765771Y-68608333D02*
X101813390Y-68703571D01*
X101813390Y-68703571D02*
X101813390Y-68894047D01*
X101813390Y-68894047D02*
X101861009Y-68989285D01*
X101861009Y-68989285D02*
X101908628Y-69036904D01*
X101908628Y-69036904D02*
X102003866Y-69084523D01*
X102003866Y-69084523D02*
X102194342Y-69084523D01*
X102194342Y-69084523D02*
X102289580Y-69036904D01*
X102289580Y-69036904D02*
X102337200Y-68989285D01*
X102337200Y-68989285D02*
X102384819Y-68894047D01*
X102384819Y-68894047D02*
X102384819Y-68703571D01*
X102384819Y-68703571D02*
X102337200Y-68608333D01*
X102337200Y-68608333D02*
X102289580Y-68560714D01*
X102289580Y-68560714D02*
X102194342Y-68513095D01*
X102194342Y-68513095D02*
X102003866Y-68513095D01*
X102003866Y-68513095D02*
X101908628Y-68560714D01*
X101908628Y-68560714D02*
X101861009Y-68608333D01*
X101861009Y-68608333D02*
X101813390Y-68703571D01*
X110833333Y-78624819D02*
X110500000Y-78148628D01*
X110261905Y-78624819D02*
X110261905Y-77624819D01*
X110261905Y-77624819D02*
X110642857Y-77624819D01*
X110642857Y-77624819D02*
X110738095Y-77672438D01*
X110738095Y-77672438D02*
X110785714Y-77720057D01*
X110785714Y-77720057D02*
X110833333Y-77815295D01*
X110833333Y-77815295D02*
X110833333Y-77958152D01*
X110833333Y-77958152D02*
X110785714Y-78053390D01*
X110785714Y-78053390D02*
X110738095Y-78101009D01*
X110738095Y-78101009D02*
X110642857Y-78148628D01*
X110642857Y-78148628D02*
X110261905Y-78148628D01*
X111785714Y-78624819D02*
X111214286Y-78624819D01*
X111500000Y-78624819D02*
X111500000Y-77624819D01*
X111500000Y-77624819D02*
X111404762Y-77767676D01*
X111404762Y-77767676D02*
X111309524Y-77862914D01*
X111309524Y-77862914D02*
X111214286Y-77910533D01*
X106601009Y-76733333D02*
X106601009Y-77066666D01*
X107124819Y-77066666D02*
X106124819Y-77066666D01*
X106124819Y-77066666D02*
X106124819Y-76590476D01*
X107124819Y-75685714D02*
X107124819Y-76257142D01*
X107124819Y-75971428D02*
X106124819Y-75971428D01*
X106124819Y-75971428D02*
X106267676Y-76066666D01*
X106267676Y-76066666D02*
X106362914Y-76161904D01*
X106362914Y-76161904D02*
X106410533Y-76257142D01*
X107981009Y-76895833D02*
X107981009Y-77229166D01*
X108504819Y-77229166D02*
X107504819Y-77229166D01*
X107504819Y-77229166D02*
X107504819Y-76752976D01*
X107981009Y-76038690D02*
X108028628Y-75895833D01*
X108028628Y-75895833D02*
X108076247Y-75848214D01*
X108076247Y-75848214D02*
X108171485Y-75800595D01*
X108171485Y-75800595D02*
X108314342Y-75800595D01*
X108314342Y-75800595D02*
X108409580Y-75848214D01*
X108409580Y-75848214D02*
X108457200Y-75895833D01*
X108457200Y-75895833D02*
X108504819Y-75991071D01*
X108504819Y-75991071D02*
X108504819Y-76372023D01*
X108504819Y-76372023D02*
X107504819Y-76372023D01*
X107504819Y-76372023D02*
X107504819Y-76038690D01*
X107504819Y-76038690D02*
X107552438Y-75943452D01*
X107552438Y-75943452D02*
X107600057Y-75895833D01*
X107600057Y-75895833D02*
X107695295Y-75848214D01*
X107695295Y-75848214D02*
X107790533Y-75848214D01*
X107790533Y-75848214D02*
X107885771Y-75895833D01*
X107885771Y-75895833D02*
X107933390Y-75943452D01*
X107933390Y-75943452D02*
X107981009Y-76038690D01*
X107981009Y-76038690D02*
X107981009Y-76372023D01*
X108504819Y-74848214D02*
X108504819Y-75419642D01*
X108504819Y-75133928D02*
X107504819Y-75133928D01*
X107504819Y-75133928D02*
X107647676Y-75229166D01*
X107647676Y-75229166D02*
X107742914Y-75324404D01*
X107742914Y-75324404D02*
X107790533Y-75419642D01*
X113116666Y-68904819D02*
X113116666Y-69619104D01*
X113116666Y-69619104D02*
X113069047Y-69761961D01*
X113069047Y-69761961D02*
X112973809Y-69857200D01*
X112973809Y-69857200D02*
X112830952Y-69904819D01*
X112830952Y-69904819D02*
X112735714Y-69904819D01*
X113497619Y-68904819D02*
X114116666Y-68904819D01*
X114116666Y-68904819D02*
X113783333Y-69285771D01*
X113783333Y-69285771D02*
X113926190Y-69285771D01*
X113926190Y-69285771D02*
X114021428Y-69333390D01*
X114021428Y-69333390D02*
X114069047Y-69381009D01*
X114069047Y-69381009D02*
X114116666Y-69476247D01*
X114116666Y-69476247D02*
X114116666Y-69714342D01*
X114116666Y-69714342D02*
X114069047Y-69809580D01*
X114069047Y-69809580D02*
X114021428Y-69857200D01*
X114021428Y-69857200D02*
X113926190Y-69904819D01*
X113926190Y-69904819D02*
X113640476Y-69904819D01*
X113640476Y-69904819D02*
X113545238Y-69857200D01*
X113545238Y-69857200D02*
X113497619Y-69809580D01*
X107632142Y-67929580D02*
X107584523Y-67977200D01*
X107584523Y-67977200D02*
X107441666Y-68024819D01*
X107441666Y-68024819D02*
X107346428Y-68024819D01*
X107346428Y-68024819D02*
X107203571Y-67977200D01*
X107203571Y-67977200D02*
X107108333Y-67881961D01*
X107108333Y-67881961D02*
X107060714Y-67786723D01*
X107060714Y-67786723D02*
X107013095Y-67596247D01*
X107013095Y-67596247D02*
X107013095Y-67453390D01*
X107013095Y-67453390D02*
X107060714Y-67262914D01*
X107060714Y-67262914D02*
X107108333Y-67167676D01*
X107108333Y-67167676D02*
X107203571Y-67072438D01*
X107203571Y-67072438D02*
X107346428Y-67024819D01*
X107346428Y-67024819D02*
X107441666Y-67024819D01*
X107441666Y-67024819D02*
X107584523Y-67072438D01*
X107584523Y-67072438D02*
X107632142Y-67120057D01*
X108584523Y-68024819D02*
X108013095Y-68024819D01*
X108298809Y-68024819D02*
X108298809Y-67024819D01*
X108298809Y-67024819D02*
X108203571Y-67167676D01*
X108203571Y-67167676D02*
X108108333Y-67262914D01*
X108108333Y-67262914D02*
X108013095Y-67310533D01*
X108917857Y-67024819D02*
X109584523Y-67024819D01*
X109584523Y-67024819D02*
X109155952Y-68024819D01*
X97916666Y-73904819D02*
X97916666Y-74619104D01*
X97916666Y-74619104D02*
X97869047Y-74761961D01*
X97869047Y-74761961D02*
X97773809Y-74857200D01*
X97773809Y-74857200D02*
X97630952Y-74904819D01*
X97630952Y-74904819D02*
X97535714Y-74904819D01*
X98345238Y-74000057D02*
X98392857Y-73952438D01*
X98392857Y-73952438D02*
X98488095Y-73904819D01*
X98488095Y-73904819D02*
X98726190Y-73904819D01*
X98726190Y-73904819D02*
X98821428Y-73952438D01*
X98821428Y-73952438D02*
X98869047Y-74000057D01*
X98869047Y-74000057D02*
X98916666Y-74095295D01*
X98916666Y-74095295D02*
X98916666Y-74190533D01*
X98916666Y-74190533D02*
X98869047Y-74333390D01*
X98869047Y-74333390D02*
X98297619Y-74904819D01*
X98297619Y-74904819D02*
X98916666Y-74904819D01*
D11*
%TO.C,C3*%
X108134420Y-71490000D02*
X108415580Y-71490000D01*
X108134420Y-72510000D02*
X108415580Y-72510000D01*
%TO.C,U1*%
X112440000Y-75090000D02*
X112490000Y-75090000D01*
X112440000Y-76910000D02*
X112440000Y-75090000D01*
X112490000Y-76910000D02*
X112440000Y-76910000D01*
X115510000Y-75090000D02*
X115560000Y-75090000D01*
X115560000Y-75090000D02*
X115560000Y-76910000D01*
X115560000Y-76910000D02*
X115510000Y-76910000D01*
X112490000Y-77450000D02*
X112160000Y-77690000D01*
X112160000Y-77210000D01*
X112490000Y-77450000D01*
G36*
X112490000Y-77450000D02*
G01*
X112160000Y-77690000D01*
X112160000Y-77210000D01*
X112490000Y-77450000D01*
G37*
%TO.C,D1*%
X103500000Y-73090000D02*
X103500000Y-77100000D01*
X105500000Y-73090000D02*
X103500000Y-73090000D01*
X105500000Y-73090000D02*
X105500000Y-77100000D01*
%TO.C,U2*%
X102140000Y-66640000D02*
X104860000Y-66640000D01*
X102140000Y-67620000D02*
X102140000Y-66640000D01*
X102140000Y-70380000D02*
X102140000Y-71360000D01*
X104720000Y-71360000D02*
X102140000Y-71360000D01*
X105510000Y-71540000D02*
X105030000Y-71540000D01*
X105270000Y-71210000D01*
X105510000Y-71540000D01*
G36*
X105510000Y-71540000D02*
G01*
X105030000Y-71540000D01*
X105270000Y-71210000D01*
X105510000Y-71540000D01*
G37*
%TO.C,R4*%
X117346359Y-78120000D02*
X117653641Y-78120000D01*
X117346359Y-78880000D02*
X117653641Y-78880000D01*
%TO.C,JUSB1*%
X109802500Y-84080000D02*
X109802500Y-82380000D01*
X119142500Y-84080000D02*
X119142500Y-82380000D01*
%TO.C,C2*%
X107866665Y-70140000D02*
X108098335Y-70140000D01*
X107866665Y-70860000D02*
X108098335Y-70860000D01*
%TO.C,J5*%
X90740000Y-66640000D02*
X90740000Y-72860000D01*
X90740000Y-72860000D02*
X91590000Y-72860000D01*
X91590000Y-66640000D02*
X90740000Y-66640000D01*
X94010000Y-66640000D02*
X96960000Y-66640000D01*
X94010000Y-72860000D02*
X96960000Y-72860000D01*
X96960000Y-66640000D02*
X96960000Y-68390000D01*
X96960000Y-68390000D02*
X97850000Y-68390000D01*
X96960000Y-72860000D02*
X96960000Y-71110000D01*
%TO.C,C18*%
X99990000Y-69634420D02*
X99990000Y-69915580D01*
X101010000Y-69634420D02*
X101010000Y-69915580D01*
%TO.C,R1*%
X111153641Y-76620000D02*
X110846359Y-76620000D01*
X111153641Y-77380000D02*
X110846359Y-77380000D01*
%TO.C,F1*%
X107590000Y-77002064D02*
X107590000Y-75797936D01*
X109410000Y-77002064D02*
X109410000Y-75797936D01*
%TO.C,FB1*%
X105940000Y-75662878D02*
X105940000Y-76462122D01*
X107060000Y-75662878D02*
X107060000Y-76462122D01*
%TO.C,J3*%
X110940000Y-62840000D02*
X110940000Y-63390000D01*
X110940000Y-65610000D02*
X110940000Y-67360000D01*
X110940000Y-67360000D02*
X112390000Y-67360000D01*
X114510000Y-67360000D02*
X114510000Y-68250000D01*
X115960000Y-62840000D02*
X110940000Y-62840000D01*
X115960000Y-63390000D02*
X115960000Y-62840000D01*
X115960000Y-65610000D02*
X115960000Y-67360000D01*
X115960000Y-67360000D02*
X114510000Y-67360000D01*
%TO.C,C17*%
X108134420Y-68490000D02*
X108415580Y-68490000D01*
X108134420Y-69510000D02*
X108415580Y-69510000D01*
%TO.C,J2*%
X95140000Y-76540000D02*
X96890000Y-76540000D01*
X95140000Y-79490000D02*
X95140000Y-76540000D01*
X95140000Y-81910000D02*
X95140000Y-82760000D01*
X95140000Y-82760000D02*
X101360000Y-82760000D01*
X96890000Y-76540000D02*
X96890000Y-75650000D01*
X101360000Y-76540000D02*
X99610000Y-76540000D01*
X101360000Y-79490000D02*
X101360000Y-76540000D01*
X101360000Y-82760000D02*
X101360000Y-81910000D01*
%TD*%
%LPC*%
D12*
%TO.C,C3*%
X107500000Y-72000000D03*
X109050000Y-72000000D03*
%TD*%
D13*
%TO.C,U1*%
X113050000Y-77137500D03*
X114000000Y-77137500D03*
X114950000Y-77137500D03*
X114950000Y-74862500D03*
X114000000Y-74862500D03*
X113050000Y-74862500D03*
%TD*%
D14*
%TO.C,D1*%
X104500000Y-73800000D03*
X104500000Y-77100000D03*
%TD*%
D15*
%TO.C,U2*%
X105450000Y-70500000D03*
D16*
X105362500Y-69000000D03*
D15*
X105450000Y-67500000D03*
%TD*%
D17*
%TO.C,R4*%
X116990000Y-78500000D03*
X118010000Y-78500000D03*
%TD*%
D18*
%TO.C,JUSB1*%
X111582500Y-81575000D03*
X117362500Y-81575000D03*
D19*
X111272500Y-80500000D03*
X112072500Y-80500000D03*
D20*
X113222500Y-80500000D03*
X114222500Y-80500000D03*
X114722500Y-80500000D03*
X115722500Y-80500000D03*
D19*
X116872500Y-80500000D03*
X117672500Y-80500000D03*
X117672500Y-80500000D03*
X116872500Y-80500000D03*
D20*
X116222500Y-80500000D03*
X115222500Y-80500000D03*
X113722500Y-80500000D03*
X112722500Y-80500000D03*
D19*
X112072500Y-80500000D03*
X111272500Y-80500000D03*
D21*
X110152500Y-81075000D03*
D22*
X110152500Y-85255000D03*
D21*
X118792500Y-81075000D03*
D22*
X118792500Y-85255000D03*
%TD*%
D23*
%TO.C,C2*%
X107415000Y-70500000D03*
X108550000Y-70500000D03*
%TD*%
D24*
%TO.C,J5*%
X96500000Y-69000000D03*
X96500000Y-70500000D03*
D25*
X92800000Y-67050000D03*
X92800000Y-72450000D03*
%TD*%
D26*
%TO.C,C18*%
X100500000Y-69000000D03*
X100500000Y-70550000D03*
%TD*%
D27*
%TO.C,R1*%
X111510000Y-77000000D03*
X110490000Y-77000000D03*
%TD*%
D28*
%TO.C,F1*%
X108500000Y-77800000D03*
X108500000Y-75000000D03*
%TD*%
D29*
%TO.C,FB1*%
X106500000Y-75000000D03*
X106500000Y-77125000D03*
%TD*%
D30*
%TO.C,J3*%
X113950000Y-67625000D03*
X112950000Y-67625000D03*
D31*
X115400000Y-64500000D03*
X111500000Y-64500000D03*
%TD*%
D12*
%TO.C,C17*%
X107500000Y-69000000D03*
X109050000Y-69000000D03*
%TD*%
D32*
%TO.C,J2*%
X97500000Y-77000000D03*
X99000000Y-77000000D03*
D33*
X95550000Y-80700000D03*
X100950000Y-80700000D03*
%TD*%
%LPD*%
M02*
