M48
; DRILL file {KiCad 9.0.7} date 2026-02-26T21:52:52+0100
; FORMAT={-:-/ absolute / inch / decimal}
; #@! TF.CreationDate,2026-02-26T21:52:52+01:00
; #@! TF.GenerationSoftware,Kicad,Pcbnew,9.0.7
; #@! TF.FileFunction,Plated,1,2,PTH
FMAT,2
INCH
; #@! TA.AperFunction,Plated,PTH,ViaDrill
T1C0.0118
; #@! TA.AperFunction,Plated,PTH,ViaDrill
T2C0.0118
; #@! TA.AperFunction,Plated,PTH,ViaDrill
T3C0.0157
; #@! TA.AperFunction,Plated,PTH,ComponentDrill
T4C0.0236
%
G90
G05
T1
X3.8583Y-2.8543
X4.1535Y-2.8346
X4.1929Y-2.874
X4.3307Y-2.7756
X4.35Y-2.9925
X4.3504Y-2.8346
X4.4882Y-2.874
X4.5079Y-3.0906
T2
X4.4674Y-3.2945
X4.4871Y-3.2551
X4.5166Y-3.2945
X4.5462Y-3.2551
T3
X4.369Y-3.2945
X4.369Y-3.3732
X4.6249Y-3.3142
T4
G00X4.3367Y-3.1703
M15
G01X4.3367Y-3.2136
M16
G05
G00X4.3367Y-3.3407
M15
G01X4.3367Y-3.3722
M16
G05
G00X4.6769Y-3.1703
M15
G01X4.6769Y-3.2136
M16
G05
G00X4.6769Y-3.3407
M15
G01X4.6769Y-3.3722
M16
G05
M30
