%TF.GenerationSoftware,KiCad,Pcbnew,9.0.7*%
%TF.CreationDate,2026-02-28T20:33:11+01:00*%
%TF.ProjectId,usb,7573622e-6b69-4636-9164-5f7063625858,rev?*%
%TF.SameCoordinates,Original*%
%TF.FileFunction,Copper,L1,Top*%
%TF.FilePolarity,Positive*%
%FSLAX46Y46*%
G04 Gerber Fmt 4.6, Leading zero omitted, Abs format (unit mm)*
G04 Created by KiCad (PCBNEW 9.0.7) date 2026-02-28 20:33:11*
%MOMM*%
%LPD*%
G01*
G04 APERTURE LIST*
G04 Aperture macros list*
%AMRoundRect*
0 Rectangle with rounded corners*
0 $1 Rounding radius*
0 $2 $3 $4 $5 $6 $7 $8 $9 X,Y pos of 4 corners*
0 Add a 4 corners polygon primitive as box body*
4,1,4,$2,$3,$4,$5,$6,$7,$8,$9,$2,$3,0*
0 Add four circle primitives for the rounded corners*
1,1,$1+$1,$2,$3*
1,1,$1+$1,$4,$5*
1,1,$1+$1,$6,$7*
1,1,$1+$1,$8,$9*
0 Add four rect primitives between the rounded corners*
20,1,$1+$1,$2,$3,$4,$5,0*
20,1,$1+$1,$4,$5,$6,$7,0*
20,1,$1+$1,$6,$7,$8,$9,0*
20,1,$1+$1,$8,$9,$2,$3,0*%
%AMFreePoly0*
4,1,9,3.862500,-0.866500,0.737500,-0.866500,0.737500,-0.450000,-0.737500,-0.450000,-0.737500,0.450000,0.737500,0.450000,0.737500,0.866500,3.862500,0.866500,3.862500,-0.866500,3.862500,-0.866500,$1*%
G04 Aperture macros list end*
%TA.AperFunction,SMDPad,CuDef*%
%ADD10R,1.000000X1.000000*%
%TD*%
%TA.AperFunction,SMDPad,CuDef*%
%ADD11RoundRect,0.225000X-0.225000X-0.250000X0.225000X-0.250000X0.225000X0.250000X-0.225000X0.250000X0*%
%TD*%
%TA.AperFunction,SMDPad,CuDef*%
%ADD12RoundRect,0.150000X0.150000X-0.512500X0.150000X0.512500X-0.150000X0.512500X-0.150000X-0.512500X0*%
%TD*%
%TA.AperFunction,SMDPad,CuDef*%
%ADD13RoundRect,0.225000X-0.375000X0.225000X-0.375000X-0.225000X0.375000X-0.225000X0.375000X0.225000X0*%
%TD*%
%TA.AperFunction,SMDPad,CuDef*%
%ADD14RoundRect,0.225000X0.425000X0.225000X-0.425000X0.225000X-0.425000X-0.225000X0.425000X-0.225000X0*%
%TD*%
%TA.AperFunction,SMDPad,CuDef*%
%ADD15FreePoly0,180.000000*%
%TD*%
%TA.AperFunction,SMDPad,CuDef*%
%ADD16RoundRect,0.155000X-0.212500X-0.155000X0.212500X-0.155000X0.212500X0.155000X-0.212500X0.155000X0*%
%TD*%
%TA.AperFunction,SMDPad,CuDef*%
%ADD17RoundRect,0.175000X-1.175000X0.175000X-1.175000X-0.175000X1.175000X-0.175000X1.175000X0.175000X0*%
%TD*%
%TA.AperFunction,SMDPad,CuDef*%
%ADD18RoundRect,0.250000X-0.700000X0.300000X-0.700000X-0.300000X0.700000X-0.300000X0.700000X0.300000X0*%
%TD*%
%TA.AperFunction,SMDPad,CuDef*%
%ADD19RoundRect,0.225000X-0.250000X0.225000X-0.250000X-0.225000X0.250000X-0.225000X0.250000X0.225000X0*%
%TD*%
%TA.AperFunction,SMDPad,CuDef*%
%ADD20RoundRect,0.250000X0.625000X-0.375000X0.625000X0.375000X-0.625000X0.375000X-0.625000X-0.375000X0*%
%TD*%
%TA.AperFunction,SMDPad,CuDef*%
%ADD21RoundRect,0.218750X-0.381250X0.218750X-0.381250X-0.218750X0.381250X-0.218750X0.381250X0.218750X0*%
%TD*%
%TA.AperFunction,SMDPad,CuDef*%
%ADD22RoundRect,0.150000X0.150000X0.475000X-0.150000X0.475000X-0.150000X-0.475000X0.150000X-0.475000X0*%
%TD*%
%TA.AperFunction,SMDPad,CuDef*%
%ADD23RoundRect,0.225000X0.225000X0.625000X-0.225000X0.625000X-0.225000X-0.625000X0.225000X-0.625000X0*%
%TD*%
%TA.AperFunction,SMDPad,CuDef*%
%ADD24RoundRect,0.175000X-0.175000X-1.175000X0.175000X-1.175000X0.175000X1.175000X-0.175000X1.175000X0*%
%TD*%
%TA.AperFunction,SMDPad,CuDef*%
%ADD25RoundRect,0.250000X-0.300000X-0.700000X0.300000X-0.700000X0.300000X0.700000X-0.300000X0.700000X0*%
%TD*%
%TA.AperFunction,ViaPad*%
%ADD26C,0.604799*%
%TD*%
%TA.AperFunction,Conductor*%
%ADD27C,0.152400*%
%TD*%
%TA.AperFunction,Conductor*%
%ADD28C,0.155814*%
%TD*%
G04 APERTURE END LIST*
D10*
%TO.P,TP4,1,1*%
%TO.N,GND*%
X109000000Y-80500000D03*
%TD*%
%TO.P,TP3,1,1*%
%TO.N,/D+*%
X115000000Y-80500000D03*
%TD*%
%TO.P,TP2,1,1*%
%TO.N,/D-*%
X113000000Y-80500000D03*
%TD*%
%TO.P,TP1,1,1*%
%TO.N,Net-(F1-Pad1)*%
X111000000Y-80500000D03*
%TD*%
D11*
%TO.P,C3,1*%
%TO.N,+5V*%
X107500000Y-72000000D03*
%TO.P,C3,2*%
%TO.N,GND*%
X109050000Y-72000000D03*
%TD*%
D12*
%TO.P,U1,1,I/O1*%
%TO.N,/D-*%
X113050000Y-77137500D03*
%TO.P,U1,2,GND*%
%TO.N,GND*%
X114000000Y-77137500D03*
%TO.P,U1,3,I/O2*%
%TO.N,/D+*%
X114950000Y-77137500D03*
%TO.P,U1,4,I/O2*%
%TO.N,Net-(J3-Pin_1)*%
X114950000Y-74862500D03*
%TO.P,U1,5,VBUS*%
%TO.N,+5V*%
X114000000Y-74862500D03*
%TO.P,U1,6,I/O1*%
%TO.N,Net-(J3-Pin_2)*%
X113050000Y-74862500D03*
%TD*%
D13*
%TO.P,D1,1,K*%
%TO.N,+5V*%
X104500000Y-73800000D03*
%TO.P,D1,2,A*%
%TO.N,Net-(D1-A)*%
X104500000Y-77100000D03*
%TD*%
D14*
%TO.P,U2,1,GND*%
%TO.N,GND*%
X105450000Y-70500000D03*
D15*
%TO.P,U2,2,VO*%
%TO.N,VCC*%
X105362500Y-69000000D03*
D14*
%TO.P,U2,3,VI*%
%TO.N,+5V*%
X105450000Y-67500000D03*
%TD*%
D16*
%TO.P,C2,1*%
%TO.N,+5V*%
X107415000Y-70500000D03*
%TO.P,C2,2*%
%TO.N,GND*%
X108550000Y-70500000D03*
%TD*%
D17*
%TO.P,J5,1,Pin_1*%
%TO.N,VCC*%
X96500000Y-69000000D03*
%TO.P,J5,2,Pin_2*%
%TO.N,GND*%
X96500000Y-70500000D03*
D18*
%TO.P,J5,MP*%
%TO.N,N/C*%
X92800000Y-67050000D03*
X92800000Y-72450000D03*
%TD*%
D19*
%TO.P,C18,1*%
%TO.N,VCC*%
X100500000Y-69000000D03*
%TO.P,C18,2*%
%TO.N,GND*%
X100500000Y-70550000D03*
%TD*%
D20*
%TO.P,F1,1*%
%TO.N,Net-(F1-Pad1)*%
X108500000Y-77800000D03*
%TO.P,F1,2*%
%TO.N,Net-(F1-Pad2)*%
X108500000Y-75000000D03*
%TD*%
D21*
%TO.P,FB1,1*%
%TO.N,Net-(F1-Pad2)*%
X106500000Y-75000000D03*
%TO.P,FB1,2*%
%TO.N,Net-(D1-A)*%
X106500000Y-77125000D03*
%TD*%
D22*
%TO.P,J3,1,Pin_1*%
%TO.N,Net-(J3-Pin_1)*%
X113950000Y-70625000D03*
%TO.P,J3,2,Pin_2*%
%TO.N,Net-(J3-Pin_2)*%
X112950000Y-70625000D03*
D23*
%TO.P,J3,MP*%
%TO.N,N/C*%
X115400000Y-67500000D03*
X111500000Y-67500000D03*
%TD*%
D11*
%TO.P,C17,1*%
%TO.N,+5V*%
X107500000Y-69000000D03*
%TO.P,C17,2*%
%TO.N,GND*%
X109050000Y-69000000D03*
%TD*%
D24*
%TO.P,J2,1,Pin_1*%
%TO.N,VCC*%
X97500000Y-77000000D03*
%TO.P,J2,2,Pin_2*%
%TO.N,GND*%
X99000000Y-77000000D03*
D25*
%TO.P,J2,MP*%
%TO.N,N/C*%
X95550000Y-80700000D03*
X100950000Y-80700000D03*
%TD*%
D26*
%TO.N,GND*%
X107500000Y-80500000D03*
X114000000Y-78500000D03*
X98000000Y-72500000D03*
X110500000Y-72000000D03*
X105500000Y-72000000D03*
X110000000Y-70500000D03*
%TO.N,+5V*%
X114000000Y-73000000D03*
X106500000Y-73000000D03*
%TD*%
D27*
%TO.N,Net-(J3-Pin_1)*%
X114950000Y-74862500D02*
X114950000Y-71625000D01*
X114950000Y-71625000D02*
X113950000Y-70625000D01*
%TO.N,Net-(J3-Pin_2)*%
X113050000Y-70725000D02*
X112950000Y-70625000D01*
X113050000Y-74862500D02*
X113050000Y-70725000D01*
%TO.N,GND*%
X109000000Y-80500000D02*
X107500000Y-80500000D01*
X114000000Y-77137500D02*
X114000000Y-78500000D01*
D28*
%TO.N,/D+*%
X115000000Y-77187500D02*
X114950000Y-77137500D01*
X115000000Y-80500000D02*
X115000000Y-77187500D01*
D27*
%TO.N,Net-(F1-Pad1)*%
X108500000Y-78000000D02*
X111000000Y-80500000D01*
X108500000Y-77800000D02*
X108500000Y-78000000D01*
D28*
%TO.N,/D-*%
X113050000Y-79950000D02*
X113050000Y-77137500D01*
X113000000Y-80500000D02*
X113000000Y-80000000D01*
X113000000Y-80000000D02*
X113050000Y-79950000D01*
D27*
%TO.N,GND*%
X109050000Y-72000000D02*
X109050000Y-71000000D01*
X109050000Y-71000000D02*
X108550000Y-70500000D01*
X100500000Y-70550000D02*
X100500000Y-75500000D01*
X109050000Y-72000000D02*
X110500000Y-72000000D01*
X96500000Y-70500000D02*
X98000000Y-72000000D01*
X98000000Y-72000000D02*
X98000000Y-72500000D01*
X100500000Y-75500000D02*
X99000000Y-77000000D01*
X108550000Y-70500000D02*
X110000000Y-70500000D01*
X108550000Y-69500000D02*
X109050000Y-69000000D01*
X108550000Y-70500000D02*
X108550000Y-69500000D01*
X105450000Y-70500000D02*
X105450000Y-71950000D01*
X105450000Y-71950000D02*
X105500000Y-72000000D01*
%TO.N,VCC*%
X100500000Y-69000000D02*
X96500000Y-69000000D01*
X100000000Y-69000000D02*
X100500000Y-69000000D01*
X99000000Y-70000000D02*
X100000000Y-69000000D01*
X97500000Y-77000000D02*
X97500000Y-74500000D01*
X99000000Y-73000000D02*
X99000000Y-70000000D01*
X97500000Y-74500000D02*
X99000000Y-73000000D01*
X105362500Y-69000000D02*
X100500000Y-69000000D01*
%TO.N,Net-(D1-A)*%
X106500000Y-77125000D02*
X104525000Y-77125000D01*
X104525000Y-77125000D02*
X104500000Y-77100000D01*
%TO.N,+5V*%
X105700000Y-73800000D02*
X106500000Y-73000000D01*
X104500000Y-73800000D02*
X105700000Y-73800000D01*
X107500000Y-68000000D02*
X107000000Y-67500000D01*
X107500000Y-69000000D02*
X107500000Y-68000000D01*
X107415000Y-71415000D02*
X107415000Y-70500000D01*
X107500000Y-72000000D02*
X107500000Y-71500000D01*
X106500000Y-73000000D02*
X106500000Y-72932500D01*
X107415000Y-70500000D02*
X107415000Y-69085000D01*
X107000000Y-67500000D02*
X105450000Y-67500000D01*
X107415000Y-69085000D02*
X107500000Y-69000000D01*
X107500000Y-71500000D02*
X107415000Y-71415000D01*
X114000000Y-74862500D02*
X114000000Y-73000000D01*
X106500000Y-73000000D02*
X107500000Y-72000000D01*
%TO.N,Net-(F1-Pad2)*%
X108500000Y-75000000D02*
X106500000Y-75000000D01*
%TD*%
%TA.AperFunction,Conductor*%
%TO.N,GND*%
G36*
X114092539Y-77157185D02*
G01*
X114138294Y-77209989D01*
X114149500Y-77261500D01*
X114149500Y-77715701D01*
X114152401Y-77752567D01*
X114152402Y-77752573D01*
X114198254Y-77910393D01*
X114198255Y-77910396D01*
X114198256Y-77910398D01*
X114232732Y-77968694D01*
X114250000Y-78031814D01*
X114250000Y-78297295D01*
X114250001Y-78297295D01*
X114252488Y-78297100D01*
X114252491Y-78297099D01*
X114262994Y-78294048D01*
X114332864Y-78294245D01*
X114391535Y-78332185D01*
X114420380Y-78395823D01*
X114421593Y-78413123D01*
X114421593Y-79408968D01*
X114401908Y-79476007D01*
X114349104Y-79521762D01*
X114340927Y-79525150D01*
X114257669Y-79556203D01*
X114257664Y-79556206D01*
X114142455Y-79642452D01*
X114099266Y-79700145D01*
X114043332Y-79742015D01*
X113973640Y-79746999D01*
X113912317Y-79713513D01*
X113900734Y-79700145D01*
X113857814Y-79642812D01*
X113857546Y-79642454D01*
X113857544Y-79642453D01*
X113857544Y-79642452D01*
X113742335Y-79556206D01*
X113742324Y-79556200D01*
X113709073Y-79543798D01*
X113653139Y-79501927D01*
X113628723Y-79436462D01*
X113628407Y-79427617D01*
X113628407Y-78421868D01*
X113648092Y-78354829D01*
X113700896Y-78309074D01*
X113745854Y-78301127D01*
X113750000Y-78297295D01*
X113750000Y-78031814D01*
X113767267Y-77968694D01*
X113801744Y-77910398D01*
X113847598Y-77752569D01*
X113850500Y-77715694D01*
X113850500Y-77261500D01*
X113853050Y-77252814D01*
X113851762Y-77243853D01*
X113862740Y-77219812D01*
X113870185Y-77194461D01*
X113877025Y-77188533D01*
X113880787Y-77180297D01*
X113903021Y-77166007D01*
X113922989Y-77148706D01*
X113933503Y-77146418D01*
X113939565Y-77142523D01*
X113974500Y-77137500D01*
X114025500Y-77137500D01*
X114092539Y-77157185D01*
G37*
%TD.AperFunction*%
%TA.AperFunction,Conductor*%
G36*
X116443039Y-65519685D02*
G01*
X116488794Y-65572489D01*
X116500000Y-65624000D01*
X116500000Y-66474388D01*
X116480315Y-66541427D01*
X116427511Y-66587182D01*
X116358353Y-66597126D01*
X116294797Y-66568101D01*
X116270462Y-66539485D01*
X116197970Y-66421959D01*
X116197967Y-66421955D01*
X116078044Y-66302032D01*
X116078040Y-66302029D01*
X115933705Y-66213001D01*
X115933699Y-66212998D01*
X115933697Y-66212997D01*
X115933694Y-66212996D01*
X115772709Y-66159651D01*
X115673346Y-66149500D01*
X115126662Y-66149500D01*
X115126644Y-66149501D01*
X115027292Y-66159650D01*
X115027289Y-66159651D01*
X114866305Y-66212996D01*
X114866294Y-66213001D01*
X114721959Y-66302029D01*
X114721955Y-66302032D01*
X114602032Y-66421955D01*
X114602029Y-66421959D01*
X114513001Y-66566294D01*
X114512996Y-66566305D01*
X114459651Y-66727290D01*
X114449500Y-66826647D01*
X114449500Y-68173337D01*
X114449501Y-68173355D01*
X114459650Y-68272707D01*
X114459651Y-68272710D01*
X114512996Y-68433694D01*
X114513001Y-68433705D01*
X114602029Y-68578040D01*
X114602032Y-68578044D01*
X114721955Y-68697967D01*
X114721959Y-68697970D01*
X114866294Y-68786998D01*
X114866297Y-68786999D01*
X114866303Y-68787003D01*
X115027292Y-68840349D01*
X115126655Y-68850500D01*
X115673344Y-68850499D01*
X115673352Y-68850498D01*
X115673355Y-68850498D01*
X115727760Y-68844940D01*
X115772708Y-68840349D01*
X115933697Y-68787003D01*
X116078044Y-68697968D01*
X116197968Y-68578044D01*
X116270463Y-68460512D01*
X116322409Y-68413789D01*
X116391372Y-68402568D01*
X116455454Y-68430411D01*
X116494310Y-68488480D01*
X116500000Y-68525611D01*
X116500000Y-83376000D01*
X116480315Y-83443039D01*
X116427511Y-83488794D01*
X116376000Y-83500000D01*
X90124000Y-83500000D01*
X90056961Y-83480315D01*
X90011206Y-83427511D01*
X90000000Y-83376000D01*
X90000000Y-79949983D01*
X94499500Y-79949983D01*
X94499500Y-81450001D01*
X94499501Y-81450018D01*
X94510000Y-81552796D01*
X94510001Y-81552799D01*
X94565185Y-81719331D01*
X94565186Y-81719334D01*
X94657288Y-81868656D01*
X94781344Y-81992712D01*
X94930666Y-82084814D01*
X95097203Y-82139999D01*
X95199991Y-82150500D01*
X95900008Y-82150499D01*
X95900016Y-82150498D01*
X95900019Y-82150498D01*
X95956302Y-82144748D01*
X96002797Y-82139999D01*
X96169334Y-82084814D01*
X96318656Y-81992712D01*
X96442712Y-81868656D01*
X96534814Y-81719334D01*
X96589999Y-81552797D01*
X96600500Y-81450009D01*
X96600499Y-79949992D01*
X96600498Y-79949983D01*
X99899500Y-79949983D01*
X99899500Y-81450001D01*
X99899501Y-81450018D01*
X99910000Y-81552796D01*
X99910001Y-81552799D01*
X99965185Y-81719331D01*
X99965186Y-81719334D01*
X100057288Y-81868656D01*
X100181344Y-81992712D01*
X100330666Y-82084814D01*
X100497203Y-82139999D01*
X100599991Y-82150500D01*
X101300008Y-82150499D01*
X101300016Y-82150498D01*
X101300019Y-82150498D01*
X101356302Y-82144748D01*
X101402797Y-82139999D01*
X101569334Y-82084814D01*
X101718656Y-81992712D01*
X101842712Y-81868656D01*
X101934814Y-81719334D01*
X101989999Y-81552797D01*
X102000500Y-81450009D01*
X102000500Y-81047844D01*
X108000000Y-81047844D01*
X108006401Y-81107372D01*
X108006403Y-81107379D01*
X108056645Y-81242086D01*
X108056649Y-81242093D01*
X108142809Y-81357187D01*
X108142812Y-81357190D01*
X108257906Y-81443350D01*
X108257913Y-81443354D01*
X108392620Y-81493596D01*
X108392627Y-81493598D01*
X108452155Y-81499999D01*
X108452172Y-81500000D01*
X108750000Y-81500000D01*
X108750000Y-80750000D01*
X108000000Y-80750000D01*
X108000000Y-81047844D01*
X102000500Y-81047844D01*
X102000499Y-79952155D01*
X108000000Y-79952155D01*
X108000000Y-80250000D01*
X108750000Y-80250000D01*
X108750000Y-79500000D01*
X108452155Y-79500000D01*
X108392627Y-79506401D01*
X108392620Y-79506403D01*
X108257913Y-79556645D01*
X108257906Y-79556649D01*
X108142812Y-79642809D01*
X108142809Y-79642812D01*
X108056649Y-79757906D01*
X108056645Y-79757913D01*
X108006403Y-79892620D01*
X108006401Y-79892627D01*
X108000000Y-79952155D01*
X102000499Y-79952155D01*
X102000499Y-79949992D01*
X102000242Y-79947481D01*
X101989999Y-79847203D01*
X101989998Y-79847200D01*
X101960411Y-79757913D01*
X101934814Y-79680666D01*
X101842712Y-79531344D01*
X101718656Y-79407288D01*
X101569334Y-79315186D01*
X101402797Y-79260001D01*
X101402795Y-79260000D01*
X101300010Y-79249500D01*
X100599998Y-79249500D01*
X100599980Y-79249501D01*
X100497203Y-79260000D01*
X100497200Y-79260001D01*
X100330668Y-79315185D01*
X100330663Y-79315187D01*
X100181342Y-79407289D01*
X100057289Y-79531342D01*
X99965187Y-79680663D01*
X99965185Y-79680668D01*
X99944857Y-79742015D01*
X99910001Y-79847203D01*
X99910001Y-79847204D01*
X99910000Y-79847204D01*
X99899500Y-79949983D01*
X96600498Y-79949983D01*
X96600242Y-79947481D01*
X96589999Y-79847203D01*
X96589998Y-79847200D01*
X96560411Y-79757913D01*
X96534814Y-79680666D01*
X96442712Y-79531344D01*
X96318656Y-79407288D01*
X96169334Y-79315186D01*
X96002797Y-79260001D01*
X96002795Y-79260000D01*
X95900010Y-79249500D01*
X95199998Y-79249500D01*
X95199980Y-79249501D01*
X95097203Y-79260000D01*
X95097200Y-79260001D01*
X94930668Y-79315185D01*
X94930663Y-79315187D01*
X94781342Y-79407289D01*
X94657289Y-79531342D01*
X94565187Y-79680663D01*
X94565185Y-79680668D01*
X94544857Y-79742015D01*
X94510001Y-79847203D01*
X94510001Y-79847204D01*
X94510000Y-79847204D01*
X94499500Y-79949983D01*
X90000000Y-79949983D01*
X90000000Y-72099983D01*
X91349500Y-72099983D01*
X91349500Y-72800001D01*
X91349501Y-72800019D01*
X91360000Y-72902796D01*
X91360001Y-72902799D01*
X91384092Y-72975499D01*
X91415186Y-73069334D01*
X91507288Y-73218656D01*
X91631344Y-73342712D01*
X91780666Y-73434814D01*
X91947203Y-73489999D01*
X92049991Y-73500500D01*
X93550008Y-73500499D01*
X93652797Y-73489999D01*
X93819334Y-73434814D01*
X93968656Y-73342712D01*
X94092712Y-73218656D01*
X94184814Y-73069334D01*
X94239999Y-72902797D01*
X94250500Y-72800009D01*
X94250499Y-72099992D01*
X94239999Y-71997203D01*
X94184814Y-71830666D01*
X94092712Y-71681344D01*
X93968656Y-71557288D01*
X93819334Y-71465186D01*
X93652797Y-71410001D01*
X93652795Y-71410000D01*
X93550010Y-71399500D01*
X92049998Y-71399500D01*
X92049981Y-71399501D01*
X91947203Y-71410000D01*
X91947200Y-71410001D01*
X91780668Y-71465185D01*
X91780663Y-71465187D01*
X91631342Y-71557289D01*
X91507289Y-71681342D01*
X91415187Y-71830663D01*
X91415185Y-71830668D01*
X91400661Y-71874500D01*
X91360001Y-71997203D01*
X91360001Y-71997204D01*
X91360000Y-71997204D01*
X91349500Y-72099983D01*
X90000000Y-72099983D01*
X90000000Y-70750000D01*
X94651857Y-70750000D01*
X94656178Y-70797558D01*
X94704947Y-70954065D01*
X94789742Y-71094335D01*
X94789747Y-71094342D01*
X94905657Y-71210252D01*
X94905662Y-71210256D01*
X95045934Y-71295052D01*
X95202437Y-71343820D01*
X95270443Y-71349999D01*
X96249999Y-71349999D01*
X96250000Y-71349998D01*
X96250000Y-70750000D01*
X94651857Y-70750000D01*
X90000000Y-70750000D01*
X90000000Y-68770406D01*
X94649500Y-68770406D01*
X94649500Y-69229594D01*
X94655685Y-69297657D01*
X94655686Y-69297662D01*
X94655687Y-69297664D01*
X94704485Y-69454263D01*
X94704488Y-69454272D01*
X94789348Y-69594648D01*
X94789351Y-69594652D01*
X94857370Y-69662671D01*
X94890855Y-69723994D01*
X94885871Y-69793686D01*
X94857371Y-69838032D01*
X94789748Y-69905656D01*
X94789743Y-69905662D01*
X94704947Y-70045934D01*
X94656178Y-70202441D01*
X94651857Y-70249999D01*
X94651857Y-70250000D01*
X96376000Y-70250000D01*
X96443039Y-70269685D01*
X96488794Y-70322489D01*
X96500000Y-70374000D01*
X96500000Y-70500000D01*
X96626000Y-70500000D01*
X96693039Y-70519685D01*
X96738794Y-70572489D01*
X96750000Y-70624000D01*
X96750000Y-71349999D01*
X97729565Y-71349999D01*
X97797561Y-71343821D01*
X97797572Y-71343818D01*
X97954060Y-71295055D01*
X97954064Y-71295053D01*
X98094337Y-71210256D01*
X98094342Y-71210252D01*
X98211619Y-71092976D01*
X98272942Y-71059491D01*
X98342634Y-71064475D01*
X98398567Y-71106347D01*
X98422984Y-71171811D01*
X98423300Y-71180657D01*
X98423300Y-72709761D01*
X98403615Y-72776800D01*
X98386981Y-72797442D01*
X97038527Y-74145895D01*
X97038522Y-74145901D01*
X96962602Y-74277398D01*
X96962602Y-74277399D01*
X96923300Y-74424076D01*
X96923300Y-75220036D01*
X96903615Y-75287075D01*
X96886982Y-75307717D01*
X96789348Y-75405351D01*
X96704488Y-75545727D01*
X96704485Y-75545736D01*
X96658180Y-75694336D01*
X96655685Y-75702343D01*
X96649500Y-75770406D01*
X96649500Y-78229594D01*
X96655685Y-78297657D01*
X96655686Y-78297662D01*
X96655687Y-78297664D01*
X96704485Y-78454263D01*
X96704488Y-78454272D01*
X96789348Y-78594648D01*
X96789351Y-78594652D01*
X96905347Y-78710648D01*
X96905351Y-78710651D01*
X97045727Y-78795511D01*
X97045730Y-78795512D01*
X97202343Y-78844315D01*
X97270406Y-78850500D01*
X97270409Y-78850500D01*
X97729591Y-78850500D01*
X97729594Y-78850500D01*
X97797657Y-78844315D01*
X97954270Y-78795512D01*
X97955026Y-78795055D01*
X98094647Y-78710652D01*
X98094647Y-78710651D01*
X98094653Y-78710648D01*
X98162674Y-78642626D01*
X98223993Y-78609144D01*
X98293685Y-78614128D01*
X98338033Y-78642628D01*
X98405661Y-78710255D01*
X98405662Y-78710256D01*
X98545934Y-78795052D01*
X98702442Y-78843821D01*
X98702440Y-78843821D01*
X98749999Y-78848142D01*
X98750000Y-78848142D01*
X98750000Y-78848141D01*
X99250000Y-78848141D01*
X99297561Y-78843821D01*
X99297570Y-78843819D01*
X99454060Y-78795055D01*
X99454064Y-78795053D01*
X99594337Y-78710256D01*
X99594342Y-78710252D01*
X99710252Y-78594342D01*
X99710256Y-78594337D01*
X99795052Y-78454065D01*
X99843820Y-78297562D01*
X99850000Y-78229556D01*
X99850000Y-77250000D01*
X99250000Y-77250000D01*
X99250000Y-78848141D01*
X98750000Y-78848141D01*
X98750000Y-76826647D01*
X103399500Y-76826647D01*
X103399500Y-77373337D01*
X103399501Y-77373355D01*
X103409650Y-77472707D01*
X103409651Y-77472710D01*
X103462996Y-77633694D01*
X103463001Y-77633705D01*
X103552029Y-77778040D01*
X103552032Y-77778044D01*
X103671955Y-77897967D01*
X103671959Y-77897970D01*
X103816294Y-77986998D01*
X103816297Y-77986999D01*
X103816303Y-77987003D01*
X103977292Y-78040349D01*
X104076655Y-78050500D01*
X104923344Y-78050499D01*
X104923352Y-78050498D01*
X104923355Y-78050498D01*
X104977760Y-78044940D01*
X105022708Y-78040349D01*
X105183697Y-77987003D01*
X105328044Y-77897968D01*
X105404239Y-77821773D01*
X105465562Y-77788288D01*
X105535254Y-77793272D01*
X105579601Y-77821773D01*
X105669608Y-77911780D01*
X105669612Y-77911783D01*
X105812704Y-78000044D01*
X105812707Y-78000045D01*
X105812713Y-78000049D01*
X105972315Y-78052936D01*
X106070826Y-78063000D01*
X106070831Y-78063000D01*
X106929169Y-78063000D01*
X106929174Y-78063000D01*
X106987899Y-78057000D01*
X107056589Y-78069769D01*
X107107474Y-78117648D01*
X107124500Y-78180355D01*
X107124500Y-78224999D01*
X107124501Y-78225019D01*
X107135000Y-78327796D01*
X107135001Y-78327799D01*
X107163275Y-78413123D01*
X107190186Y-78494334D01*
X107282288Y-78643656D01*
X107406344Y-78767712D01*
X107555666Y-78859814D01*
X107722203Y-78914999D01*
X107824991Y-78925500D01*
X108558560Y-78925499D01*
X108625599Y-78945183D01*
X108646241Y-78961818D01*
X109213681Y-79529258D01*
X109247166Y-79590581D01*
X109250000Y-79616939D01*
X109250000Y-81500000D01*
X109547828Y-81500000D01*
X109547844Y-81499999D01*
X109607372Y-81493598D01*
X109607379Y-81493596D01*
X109742086Y-81443354D01*
X109742093Y-81443350D01*
X109857187Y-81357190D01*
X109857188Y-81357189D01*
X109900420Y-81299439D01*
X109956353Y-81257567D01*
X110026045Y-81252583D01*
X110087368Y-81286068D01*
X110098953Y-81299437D01*
X110099266Y-81299855D01*
X110142187Y-81357190D01*
X110142455Y-81357547D01*
X110257664Y-81443793D01*
X110257671Y-81443797D01*
X110392517Y-81494091D01*
X110392516Y-81494091D01*
X110399444Y-81494835D01*
X110452127Y-81500500D01*
X111547872Y-81500499D01*
X111607483Y-81494091D01*
X111742331Y-81443796D01*
X111857546Y-81357546D01*
X111900734Y-81299854D01*
X111956667Y-81257984D01*
X112026359Y-81253000D01*
X112087682Y-81286485D01*
X112099263Y-81299850D01*
X112142454Y-81357546D01*
X112188643Y-81392123D01*
X112257664Y-81443793D01*
X112257671Y-81443797D01*
X112392517Y-81494091D01*
X112392516Y-81494091D01*
X112399444Y-81494835D01*
X112452127Y-81500500D01*
X113547872Y-81500499D01*
X113607483Y-81494091D01*
X113742331Y-81443796D01*
X113857546Y-81357546D01*
X113900734Y-81299854D01*
X113956667Y-81257984D01*
X114026359Y-81253000D01*
X114087682Y-81286485D01*
X114099263Y-81299850D01*
X114142454Y-81357546D01*
X114188643Y-81392123D01*
X114257664Y-81443793D01*
X114257671Y-81443797D01*
X114392517Y-81494091D01*
X114392516Y-81494091D01*
X114399444Y-81494835D01*
X114452127Y-81500500D01*
X115547872Y-81500499D01*
X115607483Y-81494091D01*
X115742331Y-81443796D01*
X115857546Y-81357546D01*
X115943796Y-81242331D01*
X115994091Y-81107483D01*
X116000500Y-81047873D01*
X116000499Y-79952128D01*
X115994091Y-79892517D01*
X115977190Y-79847204D01*
X115943797Y-79757671D01*
X115943793Y-79757664D01*
X115857547Y-79642455D01*
X115857544Y-79642452D01*
X115742335Y-79556206D01*
X115742328Y-79556202D01*
X115659074Y-79525151D01*
X115603140Y-79483280D01*
X115578723Y-79417816D01*
X115578407Y-79408969D01*
X115578407Y-78142901D01*
X115598092Y-78075862D01*
X115614731Y-78055215D01*
X115618078Y-78051868D01*
X115618081Y-78051865D01*
X115701744Y-77910398D01*
X115747598Y-77752569D01*
X115750500Y-77715694D01*
X115750500Y-76559306D01*
X115747598Y-76522431D01*
X115701744Y-76364602D01*
X115618081Y-76223135D01*
X115618079Y-76223133D01*
X115618076Y-76223129D01*
X115501870Y-76106923D01*
X115501867Y-76106921D01*
X115501865Y-76106919D01*
X115501549Y-76106732D01*
X115501353Y-76106522D01*
X115495702Y-76102139D01*
X115496409Y-76101227D01*
X115453866Y-76055664D01*
X115441362Y-75986923D01*
X115468006Y-75922333D01*
X115495921Y-75898144D01*
X115495702Y-75897861D01*
X115500911Y-75893820D01*
X115501550Y-75893267D01*
X115501865Y-75893081D01*
X115618081Y-75776865D01*
X115701744Y-75635398D01*
X115747598Y-75477569D01*
X115750500Y-75440694D01*
X115750500Y-74284306D01*
X115747598Y-74247431D01*
X115725888Y-74172707D01*
X115701745Y-74089606D01*
X115701744Y-74089603D01*
X115701744Y-74089602D01*
X115618081Y-73948135D01*
X115618079Y-73948133D01*
X115618076Y-73948129D01*
X115563019Y-73893072D01*
X115529534Y-73831749D01*
X115526700Y-73805391D01*
X115526700Y-71549078D01*
X115526700Y-71549076D01*
X115487399Y-71402402D01*
X115478242Y-71386542D01*
X115411477Y-71270901D01*
X115411472Y-71270895D01*
X114786819Y-70646242D01*
X114753334Y-70584919D01*
X114750500Y-70558561D01*
X114750500Y-70084313D01*
X114750499Y-70084298D01*
X114750365Y-70082600D01*
X114747598Y-70047431D01*
X114747163Y-70045934D01*
X114701745Y-69889606D01*
X114701744Y-69889603D01*
X114701744Y-69889602D01*
X114618081Y-69748135D01*
X114618079Y-69748133D01*
X114618076Y-69748129D01*
X114501870Y-69631923D01*
X114501862Y-69631917D01*
X114377706Y-69558492D01*
X114360398Y-69548256D01*
X114360397Y-69548255D01*
X114360396Y-69548255D01*
X114360393Y-69548254D01*
X114202573Y-69502402D01*
X114202567Y-69502401D01*
X114165701Y-69499500D01*
X114165694Y-69499500D01*
X113734306Y-69499500D01*
X113734298Y-69499500D01*
X113697432Y-69502401D01*
X113697426Y-69502402D01*
X113539606Y-69548253D01*
X113513119Y-69563918D01*
X113445394Y-69581098D01*
X113386881Y-69563918D01*
X113360393Y-69548253D01*
X113202573Y-69502402D01*
X113202567Y-69502401D01*
X113165701Y-69499500D01*
X113165694Y-69499500D01*
X112734306Y-69499500D01*
X112734298Y-69499500D01*
X112697432Y-69502401D01*
X112697426Y-69502402D01*
X112539606Y-69548254D01*
X112539603Y-69548255D01*
X112398137Y-69631917D01*
X112398129Y-69631923D01*
X112281923Y-69748129D01*
X112281917Y-69748137D01*
X112198255Y-69889603D01*
X112198254Y-69889606D01*
X112152402Y-70047426D01*
X112152401Y-70047432D01*
X112149500Y-70084298D01*
X112149500Y-71165701D01*
X112152401Y-71202567D01*
X112152402Y-71202573D01*
X112198254Y-71360393D01*
X112198255Y-71360396D01*
X112198256Y-71360398D01*
X112221381Y-71399500D01*
X112281917Y-71501862D01*
X112281923Y-71501870D01*
X112398129Y-71618076D01*
X112398132Y-71618078D01*
X112398135Y-71618081D01*
X112412419Y-71626528D01*
X112460103Y-71677594D01*
X112473300Y-71733261D01*
X112473300Y-73805391D01*
X112453615Y-73872430D01*
X112436981Y-73893072D01*
X112381923Y-73948129D01*
X112381917Y-73948137D01*
X112298255Y-74089603D01*
X112298254Y-74089606D01*
X112252402Y-74247426D01*
X112252401Y-74247432D01*
X112249500Y-74284298D01*
X112249500Y-75440701D01*
X112252401Y-75477567D01*
X112252402Y-75477573D01*
X112298254Y-75635393D01*
X112298255Y-75635396D01*
X112381917Y-75776862D01*
X112381923Y-75776870D01*
X112498129Y-75893076D01*
X112498140Y-75893085D01*
X112498455Y-75893271D01*
X112498650Y-75893480D01*
X112504298Y-75897861D01*
X112503591Y-75898772D01*
X112546136Y-75944343D01*
X112558637Y-76013085D01*
X112531988Y-76077673D01*
X112504078Y-76101856D01*
X112504298Y-76102139D01*
X112499092Y-76106176D01*
X112498455Y-76106729D01*
X112498140Y-76106914D01*
X112498129Y-76106923D01*
X112381923Y-76223129D01*
X112381917Y-76223137D01*
X112298255Y-76364603D01*
X112298254Y-76364606D01*
X112252402Y-76522426D01*
X112252401Y-76522432D01*
X112249500Y-76559298D01*
X112249500Y-77715701D01*
X112252401Y-77752567D01*
X112252402Y-77752573D01*
X112298254Y-77910393D01*
X112298255Y-77910396D01*
X112381917Y-78051862D01*
X112381923Y-78051870D01*
X112435273Y-78105219D01*
X112468759Y-78166542D01*
X112471593Y-78192901D01*
X112471593Y-79390320D01*
X112451908Y-79457359D01*
X112399104Y-79503114D01*
X112390926Y-79506502D01*
X112257671Y-79556202D01*
X112257664Y-79556206D01*
X112142455Y-79642452D01*
X112099266Y-79700145D01*
X112043332Y-79742015D01*
X111973640Y-79746999D01*
X111912317Y-79713513D01*
X111900734Y-79700145D01*
X111857814Y-79642812D01*
X111857546Y-79642454D01*
X111857544Y-79642453D01*
X111857544Y-79642452D01*
X111742335Y-79556206D01*
X111742328Y-79556202D01*
X111607482Y-79505908D01*
X111607483Y-79505908D01*
X111547883Y-79499501D01*
X111547881Y-79499500D01*
X111547873Y-79499500D01*
X111547865Y-79499500D01*
X110866439Y-79499500D01*
X110799400Y-79479815D01*
X110778758Y-79463181D01*
X109863920Y-78548343D01*
X109830435Y-78487020D01*
X109833894Y-78421663D01*
X109864999Y-78327797D01*
X109875500Y-78225009D01*
X109875499Y-77374992D01*
X109864999Y-77272203D01*
X109809814Y-77105666D01*
X109717712Y-76956344D01*
X109593656Y-76832288D01*
X109444334Y-76740186D01*
X109277797Y-76685001D01*
X109277795Y-76685000D01*
X109175010Y-76674500D01*
X107824998Y-76674500D01*
X107824981Y-76674501D01*
X107722203Y-76685000D01*
X107722193Y-76685003D01*
X107698838Y-76692742D01*
X107629010Y-76695143D01*
X107568969Y-76659411D01*
X107542131Y-76614042D01*
X107537549Y-76600213D01*
X107537544Y-76600206D01*
X107537544Y-76600204D01*
X107449283Y-76457112D01*
X107449280Y-76457108D01*
X107330391Y-76338219D01*
X107330387Y-76338216D01*
X107187295Y-76249955D01*
X107187289Y-76249952D01*
X107187287Y-76249951D01*
X107027685Y-76197064D01*
X107027683Y-76197063D01*
X106929181Y-76187000D01*
X106929174Y-76187000D01*
X106070826Y-76187000D01*
X106070818Y-76187000D01*
X105972316Y-76197063D01*
X105972315Y-76197064D01*
X105893656Y-76223129D01*
X105812715Y-76249950D01*
X105812704Y-76249955D01*
X105669612Y-76338216D01*
X105669607Y-76338219D01*
X105604599Y-76403227D01*
X105543275Y-76436712D01*
X105473584Y-76431726D01*
X105429238Y-76403226D01*
X105328044Y-76302032D01*
X105328040Y-76302029D01*
X105183705Y-76213001D01*
X105183699Y-76212998D01*
X105183697Y-76212997D01*
X105105243Y-76187000D01*
X105022709Y-76159651D01*
X104923346Y-76149500D01*
X104076662Y-76149500D01*
X104076644Y-76149501D01*
X103977292Y-76159650D01*
X103977289Y-76159651D01*
X103816305Y-76212996D01*
X103816294Y-76213001D01*
X103671959Y-76302029D01*
X103671955Y-76302032D01*
X103552032Y-76421955D01*
X103552029Y-76421959D01*
X103463001Y-76566294D01*
X103462996Y-76566305D01*
X103409651Y-76727290D01*
X103399500Y-76826647D01*
X98750000Y-76826647D01*
X98750000Y-76750000D01*
X99250000Y-76750000D01*
X99849999Y-76750000D01*
X99849999Y-75770433D01*
X99843821Y-75702438D01*
X99843818Y-75702427D01*
X99795055Y-75545939D01*
X99795053Y-75545935D01*
X99710256Y-75405662D01*
X99710252Y-75405657D01*
X99594342Y-75289747D01*
X99594337Y-75289743D01*
X99454065Y-75204947D01*
X99297562Y-75156179D01*
X99250000Y-75151856D01*
X99250000Y-76750000D01*
X98750000Y-76750000D01*
X98750000Y-75151857D01*
X98749999Y-75151857D01*
X98702441Y-75156178D01*
X98545934Y-75204947D01*
X98405662Y-75289743D01*
X98405656Y-75289748D01*
X98338032Y-75357371D01*
X98330086Y-75361709D01*
X98324661Y-75368957D01*
X98299901Y-75378191D01*
X98276708Y-75390856D01*
X98267677Y-75390209D01*
X98259197Y-75393373D01*
X98233375Y-75387755D01*
X98207017Y-75385870D01*
X98197965Y-75380052D01*
X98190924Y-75378521D01*
X98162670Y-75357369D01*
X98113018Y-75307716D01*
X98079534Y-75246393D01*
X98076700Y-75220036D01*
X98076700Y-74790239D01*
X98096385Y-74723200D01*
X98113019Y-74702558D01*
X98783290Y-74032287D01*
X99461475Y-73354102D01*
X99537399Y-73222598D01*
X99576700Y-73075924D01*
X99576700Y-72924076D01*
X99576700Y-71426367D01*
X99596385Y-71359328D01*
X99649189Y-71313573D01*
X99718347Y-71303629D01*
X99781903Y-71332654D01*
X99788381Y-71338686D01*
X99797267Y-71347572D01*
X99797271Y-71347575D01*
X99941507Y-71436542D01*
X99941518Y-71436547D01*
X100102393Y-71489855D01*
X100201683Y-71499999D01*
X100750000Y-71499999D01*
X100798308Y-71499999D01*
X100798322Y-71499998D01*
X100897607Y-71489855D01*
X101058481Y-71436547D01*
X101058492Y-71436542D01*
X101202728Y-71347575D01*
X101202732Y-71347572D01*
X101322572Y-71227732D01*
X101322575Y-71227728D01*
X101411542Y-71083492D01*
X101411547Y-71083481D01*
X101464855Y-70922606D01*
X101474999Y-70823322D01*
X101475000Y-70823309D01*
X101475000Y-70800000D01*
X100750000Y-70800000D01*
X100750000Y-71499999D01*
X100201683Y-71499999D01*
X100249999Y-71499998D01*
X100250000Y-71499998D01*
X100250000Y-70773322D01*
X104300001Y-70773322D01*
X104310144Y-70872607D01*
X104363452Y-71033481D01*
X104363457Y-71033492D01*
X104452424Y-71177728D01*
X104452427Y-71177732D01*
X104572267Y-71297572D01*
X104572271Y-71297575D01*
X104716507Y-71386542D01*
X104716518Y-71386547D01*
X104877393Y-71439855D01*
X104976683Y-71449999D01*
X105199999Y-71449999D01*
X105200000Y-71449998D01*
X105200000Y-70750000D01*
X104300001Y-70750000D01*
X104300001Y-70773322D01*
X100250000Y-70773322D01*
X100250000Y-70674000D01*
X100269685Y-70606961D01*
X100322489Y-70561206D01*
X100374000Y-70550000D01*
X100500000Y-70550000D01*
X100500000Y-70424000D01*
X100519685Y-70356961D01*
X100572489Y-70311206D01*
X100624000Y-70300000D01*
X101217788Y-70300000D01*
X101269300Y-70311206D01*
X101357581Y-70351523D01*
X101357582Y-70351523D01*
X101357584Y-70351524D01*
X101500000Y-70372000D01*
X101500003Y-70372000D01*
X104625000Y-70372000D01*
X104696940Y-70366855D01*
X104834992Y-70326319D01*
X104923116Y-70269685D01*
X104990156Y-70250000D01*
X105326000Y-70250000D01*
X105393039Y-70269685D01*
X105438794Y-70322489D01*
X105450000Y-70374000D01*
X105450000Y-70500000D01*
X105576000Y-70500000D01*
X105643039Y-70519685D01*
X105688794Y-70572489D01*
X105700000Y-70624000D01*
X105700000Y-71449999D01*
X105923308Y-71449999D01*
X105923322Y-71449998D01*
X106022607Y-71439855D01*
X106183481Y-71386547D01*
X106183492Y-71386542D01*
X106327728Y-71297575D01*
X106327732Y-71297572D01*
X106447573Y-71177731D01*
X106499012Y-71094335D01*
X106516303Y-71078781D01*
X106530241Y-71060164D01*
X106541791Y-71055855D01*
X106550959Y-71047610D01*
X106573915Y-71043874D01*
X106595705Y-71035747D01*
X106607751Y-71038367D01*
X106619922Y-71036387D01*
X106641254Y-71045655D01*
X106663978Y-71050599D01*
X106679672Y-71062348D01*
X106684004Y-71064230D01*
X106692232Y-71071750D01*
X106722053Y-71101571D01*
X106755538Y-71162894D01*
X106750554Y-71232586D01*
X106722057Y-71276930D01*
X106702030Y-71296958D01*
X106702029Y-71296959D01*
X106613001Y-71441294D01*
X106612996Y-71441305D01*
X106559651Y-71602290D01*
X106549500Y-71701647D01*
X106549500Y-72073101D01*
X106529815Y-72140140D01*
X106477011Y-72185895D01*
X106425500Y-72197101D01*
X106420918Y-72197101D01*
X106265810Y-72227954D01*
X106265798Y-72227957D01*
X106119689Y-72288477D01*
X106119687Y-72288478D01*
X105988181Y-72376347D01*
X105876347Y-72488181D01*
X105788478Y-72619687D01*
X105788477Y-72619689D01*
X105727957Y-72765798D01*
X105727954Y-72765810D01*
X105697101Y-72920916D01*
X105697101Y-72935959D01*
X105688456Y-72965399D01*
X105681933Y-72995386D01*
X105678178Y-73000401D01*
X105677416Y-73002998D01*
X105660782Y-73023640D01*
X105592898Y-73091524D01*
X105531575Y-73125009D01*
X105461883Y-73120025D01*
X105417536Y-73091524D01*
X105328044Y-73002032D01*
X105328040Y-73002029D01*
X105183705Y-72913001D01*
X105183699Y-72912998D01*
X105183697Y-72912997D01*
X105152909Y-72902795D01*
X105022709Y-72859651D01*
X104923346Y-72849500D01*
X104076662Y-72849500D01*
X104076644Y-72849501D01*
X103977292Y-72859650D01*
X103977289Y-72859651D01*
X103816305Y-72912996D01*
X103816294Y-72913001D01*
X103671959Y-73002029D01*
X103671955Y-73002032D01*
X103552032Y-73121955D01*
X103552029Y-73121959D01*
X103463001Y-73266294D01*
X103462996Y-73266305D01*
X103409651Y-73427290D01*
X103399500Y-73526647D01*
X103399500Y-74073337D01*
X103399501Y-74073355D01*
X103409650Y-74172707D01*
X103409651Y-74172710D01*
X103462996Y-74333694D01*
X103463001Y-74333705D01*
X103552029Y-74478040D01*
X103552032Y-74478044D01*
X103671955Y-74597967D01*
X103671959Y-74597970D01*
X103816294Y-74686998D01*
X103816297Y-74686999D01*
X103816303Y-74687003D01*
X103977292Y-74740349D01*
X104076655Y-74750500D01*
X104923344Y-74750499D01*
X104923352Y-74750498D01*
X104923355Y-74750498D01*
X104977760Y-74744940D01*
X105022708Y-74740349D01*
X105183697Y-74687003D01*
X105210402Y-74670530D01*
X105277793Y-74652089D01*
X105344457Y-74673010D01*
X105389227Y-74726651D01*
X105399500Y-74776068D01*
X105399500Y-75266681D01*
X105409563Y-75365183D01*
X105462450Y-75524784D01*
X105462455Y-75524795D01*
X105550716Y-75667887D01*
X105550719Y-75667891D01*
X105669608Y-75786780D01*
X105669612Y-75786783D01*
X105812704Y-75875044D01*
X105812707Y-75875045D01*
X105812713Y-75875049D01*
X105972315Y-75927936D01*
X106070826Y-75938000D01*
X106070831Y-75938000D01*
X106929169Y-75938000D01*
X106929174Y-75938000D01*
X107027685Y-75927936D01*
X107187287Y-75875049D01*
X107187293Y-75875044D01*
X107193829Y-75871998D01*
X107195099Y-75874722D01*
X107249391Y-75859861D01*
X107316057Y-75880775D01*
X107334791Y-75896159D01*
X107406344Y-75967712D01*
X107555666Y-76059814D01*
X107722203Y-76114999D01*
X107824991Y-76125500D01*
X109175008Y-76125499D01*
X109277797Y-76114999D01*
X109444334Y-76059814D01*
X109593656Y-75967712D01*
X109717712Y-75843656D01*
X109809814Y-75694334D01*
X109864999Y-75527797D01*
X109875500Y-75425009D01*
X109875499Y-74574992D01*
X109864999Y-74472203D01*
X109809814Y-74305666D01*
X109717712Y-74156344D01*
X109593656Y-74032288D01*
X109457225Y-73948137D01*
X109444336Y-73940187D01*
X109444331Y-73940185D01*
X109424715Y-73933685D01*
X109277797Y-73885001D01*
X109277795Y-73885000D01*
X109175010Y-73874500D01*
X107824998Y-73874500D01*
X107824981Y-73874501D01*
X107722203Y-73885000D01*
X107722200Y-73885001D01*
X107555668Y-73940185D01*
X107555663Y-73940187D01*
X107406345Y-74032287D01*
X107334791Y-74103841D01*
X107273467Y-74137325D01*
X107203776Y-74132340D01*
X107194035Y-74127576D01*
X107193836Y-74128005D01*
X107187285Y-74124950D01*
X107080611Y-74089602D01*
X107027685Y-74072064D01*
X107027683Y-74072063D01*
X106929181Y-74062000D01*
X106929174Y-74062000D01*
X106552939Y-74062000D01*
X106531693Y-74055761D01*
X106509605Y-74054182D01*
X106498821Y-74046109D01*
X106485900Y-74042315D01*
X106471400Y-74025581D01*
X106453672Y-74012310D01*
X106448964Y-73999689D01*
X106440145Y-73989511D01*
X106436993Y-73967593D01*
X106429255Y-73946846D01*
X106432117Y-73933685D01*
X106430201Y-73920353D01*
X106439400Y-73900209D01*
X106444107Y-73878573D01*
X106457375Y-73860847D01*
X106459226Y-73856797D01*
X106465258Y-73850319D01*
X106476359Y-73839218D01*
X106537682Y-73805733D01*
X106564040Y-73802899D01*
X106579081Y-73802899D01*
X106579082Y-73802898D01*
X106734197Y-73772044D01*
X106880315Y-73711520D01*
X107011818Y-73623652D01*
X107123652Y-73511818D01*
X107211520Y-73380315D01*
X107272044Y-73234197D01*
X107294370Y-73121959D01*
X107303650Y-73075307D01*
X107336035Y-73013396D01*
X107396751Y-72978822D01*
X107425267Y-72975499D01*
X107773338Y-72975499D01*
X107773344Y-72975499D01*
X107773352Y-72975498D01*
X107773355Y-72975498D01*
X107827760Y-72969940D01*
X107872708Y-72965349D01*
X108033697Y-72912003D01*
X108178044Y-72822968D01*
X108187668Y-72813343D01*
X108248987Y-72779856D01*
X108318679Y-72784835D01*
X108363034Y-72813339D01*
X108372267Y-72822572D01*
X108372271Y-72822575D01*
X108516507Y-72911542D01*
X108516518Y-72911547D01*
X108677393Y-72964855D01*
X108776683Y-72974999D01*
X109300000Y-72974999D01*
X109323308Y-72974999D01*
X109323322Y-72974998D01*
X109422607Y-72964855D01*
X109583481Y-72911547D01*
X109583492Y-72911542D01*
X109727728Y-72822575D01*
X109727732Y-72822572D01*
X109847572Y-72702732D01*
X109847575Y-72702728D01*
X109936542Y-72558492D01*
X109936547Y-72558481D01*
X109989855Y-72397606D01*
X109999999Y-72298322D01*
X110000000Y-72298309D01*
X110000000Y-72250000D01*
X109300000Y-72250000D01*
X109300000Y-72974999D01*
X108776683Y-72974999D01*
X108800000Y-72974998D01*
X108800000Y-72124000D01*
X108819685Y-72056961D01*
X108872489Y-72011206D01*
X108924000Y-72000000D01*
X109050000Y-72000000D01*
X109050000Y-71874000D01*
X109069685Y-71806961D01*
X109122489Y-71761206D01*
X109174000Y-71750000D01*
X109999999Y-71750000D01*
X109999999Y-71701692D01*
X109999998Y-71701677D01*
X109989855Y-71602392D01*
X109936547Y-71441518D01*
X109936542Y-71441507D01*
X109847575Y-71297271D01*
X109847572Y-71297267D01*
X109727732Y-71177427D01*
X109727728Y-71177424D01*
X109583492Y-71088457D01*
X109583481Y-71088452D01*
X109455312Y-71045981D01*
X109397867Y-71006208D01*
X109371044Y-70941692D01*
X109375240Y-70893679D01*
X109414578Y-70758279D01*
X109415230Y-70750000D01*
X108674000Y-70750000D01*
X108606961Y-70730315D01*
X108561206Y-70677511D01*
X108550000Y-70626000D01*
X108550000Y-70374000D01*
X108569685Y-70306961D01*
X108622489Y-70261206D01*
X108674000Y-70250000D01*
X109415230Y-70250000D01*
X109414578Y-70241720D01*
X109375240Y-70106320D01*
X109375439Y-70036450D01*
X109413381Y-69977780D01*
X109455313Y-69954018D01*
X109583479Y-69911548D01*
X109583492Y-69911542D01*
X109727728Y-69822575D01*
X109727732Y-69822572D01*
X109847572Y-69702732D01*
X109847575Y-69702728D01*
X109936542Y-69558492D01*
X109936547Y-69558481D01*
X109989855Y-69397606D01*
X109999999Y-69298322D01*
X110000000Y-69298309D01*
X110000000Y-69250000D01*
X109174000Y-69250000D01*
X109106961Y-69230315D01*
X109061206Y-69177511D01*
X109050000Y-69126000D01*
X109050000Y-69000000D01*
X108924000Y-69000000D01*
X108856961Y-68980315D01*
X108811206Y-68927511D01*
X108800000Y-68876000D01*
X108800000Y-68750000D01*
X109300000Y-68750000D01*
X109999999Y-68750000D01*
X109999999Y-68701692D01*
X109999998Y-68701677D01*
X109989855Y-68602392D01*
X109936547Y-68441518D01*
X109936542Y-68441507D01*
X109847575Y-68297271D01*
X109847572Y-68297267D01*
X109727732Y-68177427D01*
X109727728Y-68177424D01*
X109583492Y-68088457D01*
X109583481Y-68088452D01*
X109422606Y-68035144D01*
X109323322Y-68025000D01*
X109300000Y-68025000D01*
X109300000Y-68750000D01*
X108800000Y-68750000D01*
X108800000Y-68024999D01*
X108776693Y-68025000D01*
X108776674Y-68025001D01*
X108677392Y-68035144D01*
X108516518Y-68088452D01*
X108516507Y-68088457D01*
X108372271Y-68177424D01*
X108372264Y-68177430D01*
X108363028Y-68186665D01*
X108301703Y-68220146D01*
X108232011Y-68215157D01*
X108202976Y-68199663D01*
X108194791Y-68193779D01*
X108178044Y-68177032D01*
X108131891Y-68148564D01*
X108128323Y-68145999D01*
X108109432Y-68121755D01*
X108088878Y-68098903D01*
X108087747Y-68093926D01*
X108085378Y-68090886D01*
X108084257Y-68078570D01*
X108076700Y-68045314D01*
X108076700Y-67924078D01*
X108076700Y-67924076D01*
X108037399Y-67777402D01*
X108022425Y-67751467D01*
X107961477Y-67645901D01*
X107961472Y-67645895D01*
X107354104Y-67038527D01*
X107354098Y-67038522D01*
X107222600Y-66962602D01*
X107222599Y-66962601D01*
X107222598Y-66962601D01*
X107075924Y-66923300D01*
X107075923Y-66923300D01*
X106579684Y-66923300D01*
X106512645Y-66903615D01*
X106474145Y-66864396D01*
X106450861Y-66826647D01*
X110549500Y-66826647D01*
X110549500Y-68173337D01*
X110549501Y-68173355D01*
X110559650Y-68272707D01*
X110559651Y-68272710D01*
X110612996Y-68433694D01*
X110613001Y-68433705D01*
X110702029Y-68578040D01*
X110702032Y-68578044D01*
X110821955Y-68697967D01*
X110821959Y-68697970D01*
X110966294Y-68786998D01*
X110966297Y-68786999D01*
X110966303Y-68787003D01*
X111127292Y-68840349D01*
X111226655Y-68850500D01*
X111773344Y-68850499D01*
X111773352Y-68850498D01*
X111773355Y-68850498D01*
X111827760Y-68844940D01*
X111872708Y-68840349D01*
X112033697Y-68787003D01*
X112178044Y-68697968D01*
X112297968Y-68578044D01*
X112387003Y-68433697D01*
X112440349Y-68272708D01*
X112450500Y-68173345D01*
X112450499Y-66826656D01*
X112440349Y-66727292D01*
X112387003Y-66566303D01*
X112386999Y-66566297D01*
X112386998Y-66566294D01*
X112297970Y-66421959D01*
X112297967Y-66421955D01*
X112178044Y-66302032D01*
X112178040Y-66302029D01*
X112033705Y-66213001D01*
X112033699Y-66212998D01*
X112033697Y-66212997D01*
X112033694Y-66212996D01*
X111872709Y-66159651D01*
X111773346Y-66149500D01*
X111226662Y-66149500D01*
X111226644Y-66149501D01*
X111127292Y-66159650D01*
X111127289Y-66159651D01*
X110966305Y-66212996D01*
X110966294Y-66213001D01*
X110821959Y-66302029D01*
X110821955Y-66302032D01*
X110702032Y-66421955D01*
X110702029Y-66421959D01*
X110613001Y-66566294D01*
X110612996Y-66566305D01*
X110559651Y-66727290D01*
X110549500Y-66826647D01*
X106450861Y-66826647D01*
X106447968Y-66821956D01*
X106328044Y-66702032D01*
X106328040Y-66702029D01*
X106183705Y-66613001D01*
X106183699Y-66612998D01*
X106183697Y-66612997D01*
X106183694Y-66612996D01*
X106022709Y-66559651D01*
X105923346Y-66549500D01*
X104976662Y-66549500D01*
X104976644Y-66549501D01*
X104877292Y-66559650D01*
X104877289Y-66559651D01*
X104716305Y-66612996D01*
X104716294Y-66613001D01*
X104571959Y-66702029D01*
X104571955Y-66702032D01*
X104452032Y-66821955D01*
X104452029Y-66821959D01*
X104363001Y-66966294D01*
X104362996Y-66966305D01*
X104309651Y-67127290D01*
X104299500Y-67226648D01*
X104299500Y-67226655D01*
X104299500Y-67400019D01*
X104299501Y-67504000D01*
X104279817Y-67571039D01*
X104227013Y-67616794D01*
X104175501Y-67628000D01*
X101499997Y-67628000D01*
X101428059Y-67633144D01*
X101290005Y-67673682D01*
X101168969Y-67751467D01*
X101168965Y-67751471D01*
X101074750Y-67860200D01*
X101074743Y-67860210D01*
X101016768Y-67987157D01*
X100971013Y-68039961D01*
X100903973Y-68059645D01*
X100891372Y-68059003D01*
X100798347Y-68049500D01*
X100201662Y-68049500D01*
X100201644Y-68049501D01*
X100102292Y-68059650D01*
X100102289Y-68059651D01*
X99941305Y-68112996D01*
X99941294Y-68113001D01*
X99796959Y-68202029D01*
X99796955Y-68202032D01*
X99677031Y-68321956D01*
X99650855Y-68364396D01*
X99598907Y-68411121D01*
X99545316Y-68423300D01*
X98279964Y-68423300D01*
X98212925Y-68403615D01*
X98192283Y-68386982D01*
X98145309Y-68340008D01*
X98094653Y-68289352D01*
X98094650Y-68289350D01*
X98094648Y-68289348D01*
X97954272Y-68204488D01*
X97954263Y-68204485D01*
X97797664Y-68155687D01*
X97797662Y-68155686D01*
X97797657Y-68155685D01*
X97729594Y-68149500D01*
X95270406Y-68149500D01*
X95202343Y-68155685D01*
X95202339Y-68155686D01*
X95202335Y-68155687D01*
X95045736Y-68204485D01*
X95045727Y-68204488D01*
X94905351Y-68289348D01*
X94905347Y-68289351D01*
X94789351Y-68405347D01*
X94789348Y-68405351D01*
X94704488Y-68545727D01*
X94704485Y-68545736D01*
X94655687Y-68702335D01*
X94655685Y-68702343D01*
X94649500Y-68770406D01*
X90000000Y-68770406D01*
X90000000Y-66699983D01*
X91349500Y-66699983D01*
X91349500Y-67400001D01*
X91349501Y-67400019D01*
X91360000Y-67502796D01*
X91360001Y-67502799D01*
X91371840Y-67538525D01*
X91415186Y-67669334D01*
X91507288Y-67818656D01*
X91631344Y-67942712D01*
X91780666Y-68034814D01*
X91947203Y-68089999D01*
X92049991Y-68100500D01*
X93550008Y-68100499D01*
X93652797Y-68089999D01*
X93819334Y-68034814D01*
X93968656Y-67942712D01*
X94092712Y-67818656D01*
X94184814Y-67669334D01*
X94239999Y-67502797D01*
X94250500Y-67400009D01*
X94250499Y-66699992D01*
X94239999Y-66597203D01*
X94184814Y-66430666D01*
X94092712Y-66281344D01*
X93968656Y-66157288D01*
X93819334Y-66065186D01*
X93652797Y-66010001D01*
X93652795Y-66010000D01*
X93550010Y-65999500D01*
X92049998Y-65999500D01*
X92049981Y-65999501D01*
X91947203Y-66010000D01*
X91947200Y-66010001D01*
X91780668Y-66065185D01*
X91780663Y-66065187D01*
X91631342Y-66157289D01*
X91507289Y-66281342D01*
X91415187Y-66430663D01*
X91415186Y-66430666D01*
X91360001Y-66597203D01*
X91360001Y-66597204D01*
X91360000Y-66597204D01*
X91349500Y-66699983D01*
X90000000Y-66699983D01*
X90000000Y-65624000D01*
X90019685Y-65556961D01*
X90072489Y-65511206D01*
X90124000Y-65500000D01*
X116376000Y-65500000D01*
X116443039Y-65519685D01*
G37*
%TD.AperFunction*%
%TD*%
M02*
