%TF.GenerationSoftware,KiCad,Pcbnew,9.0.7*%
%TF.CreationDate,2026-03-04T22:19:44+01:00*%
%TF.ProjectId,usb,7573622e-6b69-4636-9164-5f7063625858,rev?*%
%TF.SameCoordinates,Original*%
%TF.FileFunction,Copper,L2,Bot*%
%TF.FilePolarity,Positive*%
%FSLAX46Y46*%
G04 Gerber Fmt 4.6, Leading zero omitted, Abs format (unit mm)*
G04 Created by KiCad (PCBNEW 9.0.7) date 2026-03-04 22:19:44*
%MOMM*%
%LPD*%
G01*
G04 APERTURE LIST*
%TA.AperFunction,ComponentPad*%
%ADD10C,1.100000*%
%TD*%
%TA.AperFunction,ComponentPad*%
%ADD11R,0.850000X0.850000*%
%TD*%
%TA.AperFunction,ComponentPad*%
%ADD12C,0.850000*%
%TD*%
%TA.AperFunction,ViaPad*%
%ADD13C,0.604799*%
%TD*%
%TA.AperFunction,Conductor*%
%ADD14C,0.500000*%
%TD*%
G04 APERTURE END LIST*
D10*
%TO.P,J5,1,Pin_1*%
%TO.N,VCC*%
X99000000Y-76000000D03*
%TO.P,J5,2,Pin_2*%
%TO.N,GND*%
X100500000Y-76000000D03*
%TD*%
%TO.P,J2,1,Pin_1*%
%TO.N,VCC*%
X95500000Y-69000000D03*
%TO.P,J2,2,Pin_2*%
%TO.N,GND*%
X95500000Y-70500000D03*
%TD*%
D11*
%TO.P,J4,1,Pin_1*%
%TO.N,GND*%
X91500000Y-76000000D03*
%TD*%
%TO.P,J7,1,Pin_1*%
%TO.N,GND*%
X91500000Y-79000000D03*
%TD*%
%TO.P,J6,1,Pin_1*%
%TO.N,GND*%
X94500000Y-76000000D03*
%TD*%
%TO.P,J1,1,Pin_1*%
%TO.N,GND*%
X111000000Y-80500000D03*
D12*
%TO.P,J1,2,Pin_2*%
%TO.N,Net-(J1-Pin_2)*%
X112000000Y-80500000D03*
%TO.P,J1,3,Pin_3*%
%TO.N,/D-*%
X113000000Y-80500000D03*
%TO.P,J1,4,Pin_4*%
%TO.N,/D+*%
X114000000Y-80500000D03*
%TD*%
D11*
%TO.P,J8,1,Pin_1*%
%TO.N,GND*%
X94500000Y-79000000D03*
%TD*%
D13*
%TO.N,GND*%
X95500000Y-74000000D03*
X110500000Y-70500000D03*
X109000000Y-80500000D03*
X105500000Y-72000000D03*
X93000000Y-77500000D03*
X110000000Y-69000000D03*
X114000000Y-78500000D03*
%TO.N,+5V*%
X109000000Y-73000000D03*
X114000000Y-73000000D03*
%TD*%
D14*
%TO.N,+5V*%
X114000000Y-73000000D02*
X109000000Y-73000000D01*
%TD*%
%TA.AperFunction,Conductor*%
%TO.N,GND*%
G36*
X116443039Y-65519685D02*
G01*
X116488794Y-65572489D01*
X116500000Y-65624000D01*
X116500000Y-81876000D01*
X116480315Y-81943039D01*
X116427511Y-81988794D01*
X116376000Y-82000000D01*
X90124000Y-82000000D01*
X90056961Y-81980315D01*
X90011206Y-81927511D01*
X90000000Y-81876000D01*
X90000000Y-80972844D01*
X110075000Y-80972844D01*
X110081401Y-81032372D01*
X110081403Y-81032379D01*
X110131645Y-81167086D01*
X110131649Y-81167093D01*
X110217809Y-81282187D01*
X110217812Y-81282190D01*
X110332906Y-81368350D01*
X110332913Y-81368354D01*
X110467620Y-81418596D01*
X110467627Y-81418598D01*
X110527155Y-81424999D01*
X110527172Y-81425000D01*
X110750000Y-81425000D01*
X110750000Y-80750000D01*
X110075000Y-80750000D01*
X110075000Y-80972844D01*
X90000000Y-80972844D01*
X90000000Y-80450272D01*
X110750000Y-80450272D01*
X110750000Y-80549728D01*
X110788060Y-80641614D01*
X110858386Y-80711940D01*
X110950272Y-80750000D01*
X111049728Y-80750000D01*
X111101805Y-80728429D01*
X111110065Y-80769952D01*
X111110068Y-80769962D01*
X111179829Y-80938382D01*
X111179836Y-80938394D01*
X111229102Y-81012125D01*
X111249980Y-81078802D01*
X111250000Y-81081016D01*
X111250000Y-81425000D01*
X111472828Y-81425000D01*
X111472844Y-81424999D01*
X111532372Y-81418598D01*
X111532376Y-81418597D01*
X111627088Y-81383272D01*
X111696780Y-81378288D01*
X111717872Y-81384892D01*
X111730042Y-81389933D01*
X111730046Y-81389933D01*
X111730047Y-81389934D01*
X111908843Y-81425500D01*
X111908846Y-81425500D01*
X112091156Y-81425500D01*
X112211445Y-81401572D01*
X112269958Y-81389933D01*
X112438389Y-81320167D01*
X112438394Y-81320163D01*
X112441541Y-81318482D01*
X112443386Y-81318097D01*
X112444018Y-81317836D01*
X112444067Y-81317955D01*
X112509943Y-81304236D01*
X112558459Y-81318482D01*
X112561615Y-81320169D01*
X112677945Y-81368354D01*
X112730042Y-81389933D01*
X112730046Y-81389933D01*
X112730047Y-81389934D01*
X112908843Y-81425500D01*
X112908846Y-81425500D01*
X113091156Y-81425500D01*
X113211445Y-81401572D01*
X113269958Y-81389933D01*
X113438389Y-81320167D01*
X113438394Y-81320163D01*
X113441541Y-81318482D01*
X113443386Y-81318097D01*
X113444018Y-81317836D01*
X113444067Y-81317955D01*
X113509943Y-81304236D01*
X113558459Y-81318482D01*
X113561615Y-81320169D01*
X113677945Y-81368354D01*
X113730042Y-81389933D01*
X113730046Y-81389933D01*
X113730047Y-81389934D01*
X113908843Y-81425500D01*
X113908846Y-81425500D01*
X114091156Y-81425500D01*
X114211445Y-81401572D01*
X114269958Y-81389933D01*
X114382245Y-81343422D01*
X114438387Y-81320168D01*
X114438391Y-81320166D01*
X114513672Y-81269864D01*
X114589972Y-81218883D01*
X114718883Y-81089972D01*
X114820167Y-80938389D01*
X114889933Y-80769958D01*
X114925500Y-80591154D01*
X114925500Y-80408846D01*
X114925500Y-80408843D01*
X114889934Y-80230047D01*
X114889933Y-80230046D01*
X114889933Y-80230042D01*
X114889931Y-80230037D01*
X114820168Y-80061612D01*
X114820166Y-80061608D01*
X114718886Y-79910032D01*
X114718880Y-79910024D01*
X114589975Y-79781119D01*
X114589967Y-79781113D01*
X114438391Y-79679833D01*
X114438387Y-79679831D01*
X114269962Y-79610068D01*
X114269952Y-79610065D01*
X114091156Y-79574500D01*
X114091154Y-79574500D01*
X113908846Y-79574500D01*
X113908844Y-79574500D01*
X113730047Y-79610065D01*
X113730041Y-79610067D01*
X113561605Y-79679835D01*
X113558444Y-79681525D01*
X113556600Y-79681908D01*
X113555984Y-79682164D01*
X113555935Y-79682047D01*
X113490040Y-79695761D01*
X113441556Y-79681525D01*
X113438394Y-79679835D01*
X113269958Y-79610067D01*
X113269952Y-79610065D01*
X113091156Y-79574500D01*
X113091154Y-79574500D01*
X112908846Y-79574500D01*
X112908844Y-79574500D01*
X112730047Y-79610065D01*
X112730041Y-79610067D01*
X112561605Y-79679835D01*
X112558444Y-79681525D01*
X112556600Y-79681908D01*
X112555984Y-79682164D01*
X112555935Y-79682047D01*
X112490040Y-79695761D01*
X112441556Y-79681525D01*
X112438394Y-79679835D01*
X112269958Y-79610067D01*
X112269952Y-79610065D01*
X112091156Y-79574500D01*
X112091154Y-79574500D01*
X111908846Y-79574500D01*
X111908844Y-79574500D01*
X111730048Y-79610065D01*
X111730037Y-79610068D01*
X111717867Y-79615109D01*
X111648398Y-79622573D01*
X111627089Y-79616727D01*
X111532380Y-79581403D01*
X111532372Y-79581401D01*
X111472844Y-79575000D01*
X111250000Y-79575000D01*
X111250000Y-79918983D01*
X111230315Y-79986022D01*
X111229103Y-79987873D01*
X111179830Y-80061614D01*
X111110068Y-80230037D01*
X111110065Y-80230047D01*
X111101805Y-80271570D01*
X111049728Y-80250000D01*
X110950272Y-80250000D01*
X110858386Y-80288060D01*
X110788060Y-80358386D01*
X110750000Y-80450272D01*
X90000000Y-80450272D01*
X90000000Y-80027155D01*
X110075000Y-80027155D01*
X110075000Y-80250000D01*
X110750000Y-80250000D01*
X110750000Y-79575000D01*
X110527155Y-79575000D01*
X110467627Y-79581401D01*
X110467620Y-79581403D01*
X110332913Y-79631645D01*
X110332906Y-79631649D01*
X110217812Y-79717809D01*
X110217809Y-79717812D01*
X110131649Y-79832906D01*
X110131645Y-79832913D01*
X110081403Y-79967620D01*
X110081401Y-79967627D01*
X110075000Y-80027155D01*
X90000000Y-80027155D01*
X90000000Y-79472844D01*
X90575000Y-79472844D01*
X90581401Y-79532372D01*
X90581403Y-79532379D01*
X90631645Y-79667086D01*
X90631649Y-79667093D01*
X90717809Y-79782187D01*
X90717812Y-79782190D01*
X90832906Y-79868350D01*
X90832913Y-79868354D01*
X90967620Y-79918596D01*
X90967627Y-79918598D01*
X91027155Y-79924999D01*
X91027172Y-79925000D01*
X91250000Y-79925000D01*
X91750000Y-79925000D01*
X91972828Y-79925000D01*
X91972844Y-79924999D01*
X92032372Y-79918598D01*
X92032379Y-79918596D01*
X92167086Y-79868354D01*
X92167093Y-79868350D01*
X92282187Y-79782190D01*
X92282190Y-79782187D01*
X92368350Y-79667093D01*
X92368354Y-79667086D01*
X92418596Y-79532379D01*
X92418598Y-79532372D01*
X92424999Y-79472844D01*
X93575000Y-79472844D01*
X93581401Y-79532372D01*
X93581403Y-79532379D01*
X93631645Y-79667086D01*
X93631649Y-79667093D01*
X93717809Y-79782187D01*
X93717812Y-79782190D01*
X93832906Y-79868350D01*
X93832913Y-79868354D01*
X93967620Y-79918596D01*
X93967627Y-79918598D01*
X94027155Y-79924999D01*
X94027172Y-79925000D01*
X94250000Y-79925000D01*
X94750000Y-79925000D01*
X94972828Y-79925000D01*
X94972844Y-79924999D01*
X95032372Y-79918598D01*
X95032380Y-79918596D01*
X95061679Y-79907669D01*
X95167086Y-79868354D01*
X95167093Y-79868350D01*
X95282187Y-79782190D01*
X95282190Y-79782187D01*
X95368350Y-79667093D01*
X95368354Y-79667086D01*
X95418596Y-79532379D01*
X95418598Y-79532372D01*
X95424999Y-79472844D01*
X95425000Y-79472827D01*
X95425000Y-79250000D01*
X94750000Y-79250000D01*
X94750000Y-79925000D01*
X94250000Y-79925000D01*
X94250000Y-79250000D01*
X93575000Y-79250000D01*
X93575000Y-79472844D01*
X92424999Y-79472844D01*
X92425000Y-79472827D01*
X92425000Y-79250000D01*
X91750000Y-79250000D01*
X91750000Y-79925000D01*
X91250000Y-79925000D01*
X91250000Y-79250000D01*
X90575000Y-79250000D01*
X90575000Y-79472844D01*
X90000000Y-79472844D01*
X90000000Y-78950272D01*
X91250000Y-78950272D01*
X91250000Y-79049728D01*
X91288060Y-79141614D01*
X91358386Y-79211940D01*
X91450272Y-79250000D01*
X91549728Y-79250000D01*
X91641614Y-79211940D01*
X91711940Y-79141614D01*
X91750000Y-79049728D01*
X91750000Y-78950272D01*
X94250000Y-78950272D01*
X94250000Y-79049728D01*
X94288060Y-79141614D01*
X94358386Y-79211940D01*
X94450272Y-79250000D01*
X94549728Y-79250000D01*
X94641614Y-79211940D01*
X94711940Y-79141614D01*
X94750000Y-79049728D01*
X94750000Y-78950272D01*
X94711940Y-78858386D01*
X94641614Y-78788060D01*
X94549728Y-78750000D01*
X94750000Y-78750000D01*
X95425000Y-78750000D01*
X95425000Y-78527172D01*
X95424999Y-78527155D01*
X95418598Y-78467627D01*
X95418596Y-78467620D01*
X95368354Y-78332913D01*
X95368350Y-78332906D01*
X95282190Y-78217812D01*
X95282187Y-78217809D01*
X95167093Y-78131649D01*
X95167086Y-78131645D01*
X95032379Y-78081403D01*
X95032372Y-78081401D01*
X94972844Y-78075000D01*
X94750000Y-78075000D01*
X94750000Y-78750000D01*
X94549728Y-78750000D01*
X94450272Y-78750000D01*
X94358386Y-78788060D01*
X94288060Y-78858386D01*
X94250000Y-78950272D01*
X91750000Y-78950272D01*
X91711940Y-78858386D01*
X91641614Y-78788060D01*
X91549728Y-78750000D01*
X91750000Y-78750000D01*
X92425000Y-78750000D01*
X92425000Y-78527172D01*
X92424999Y-78527155D01*
X93575000Y-78527155D01*
X93575000Y-78750000D01*
X94250000Y-78750000D01*
X94250000Y-78075000D01*
X94027155Y-78075000D01*
X93967627Y-78081401D01*
X93967620Y-78081403D01*
X93832913Y-78131645D01*
X93832906Y-78131649D01*
X93717812Y-78217809D01*
X93717809Y-78217812D01*
X93631649Y-78332906D01*
X93631645Y-78332913D01*
X93581403Y-78467620D01*
X93581401Y-78467627D01*
X93575000Y-78527155D01*
X92424999Y-78527155D01*
X92418598Y-78467627D01*
X92418596Y-78467620D01*
X92368354Y-78332913D01*
X92368350Y-78332906D01*
X92282190Y-78217812D01*
X92282187Y-78217809D01*
X92167093Y-78131649D01*
X92167086Y-78131645D01*
X92032379Y-78081403D01*
X92032372Y-78081401D01*
X91972844Y-78075000D01*
X91750000Y-78075000D01*
X91750000Y-78750000D01*
X91549728Y-78750000D01*
X91450272Y-78750000D01*
X91358386Y-78788060D01*
X91288060Y-78858386D01*
X91250000Y-78950272D01*
X90000000Y-78950272D01*
X90000000Y-78527155D01*
X90575000Y-78527155D01*
X90575000Y-78750000D01*
X91250000Y-78750000D01*
X91250000Y-78075000D01*
X91027155Y-78075000D01*
X90967627Y-78081401D01*
X90967620Y-78081403D01*
X90832913Y-78131645D01*
X90832906Y-78131649D01*
X90717812Y-78217809D01*
X90717809Y-78217812D01*
X90631649Y-78332906D01*
X90631645Y-78332913D01*
X90581403Y-78467620D01*
X90581401Y-78467627D01*
X90575000Y-78527155D01*
X90000000Y-78527155D01*
X90000000Y-76472844D01*
X90575000Y-76472844D01*
X90581401Y-76532372D01*
X90581403Y-76532379D01*
X90631645Y-76667086D01*
X90631649Y-76667093D01*
X90717809Y-76782187D01*
X90717812Y-76782190D01*
X90832906Y-76868350D01*
X90832913Y-76868354D01*
X90967620Y-76918596D01*
X90967627Y-76918598D01*
X91027155Y-76924999D01*
X91027172Y-76925000D01*
X91250000Y-76925000D01*
X91750000Y-76925000D01*
X91972828Y-76925000D01*
X91972844Y-76924999D01*
X92032372Y-76918598D01*
X92032379Y-76918596D01*
X92167086Y-76868354D01*
X92167093Y-76868350D01*
X92282187Y-76782190D01*
X92282190Y-76782187D01*
X92368350Y-76667093D01*
X92368354Y-76667086D01*
X92418596Y-76532379D01*
X92418598Y-76532372D01*
X92424999Y-76472844D01*
X93575000Y-76472844D01*
X93581401Y-76532372D01*
X93581403Y-76532379D01*
X93631645Y-76667086D01*
X93631649Y-76667093D01*
X93717809Y-76782187D01*
X93717812Y-76782190D01*
X93832906Y-76868350D01*
X93832913Y-76868354D01*
X93967620Y-76918596D01*
X93967627Y-76918598D01*
X94027155Y-76924999D01*
X94027172Y-76925000D01*
X94250000Y-76925000D01*
X94750000Y-76925000D01*
X94972828Y-76925000D01*
X94972844Y-76924999D01*
X95032372Y-76918598D01*
X95032379Y-76918596D01*
X95167086Y-76868354D01*
X95167093Y-76868350D01*
X95282187Y-76782190D01*
X95282190Y-76782187D01*
X95368350Y-76667093D01*
X95368354Y-76667086D01*
X95418596Y-76532379D01*
X95418598Y-76532372D01*
X95424999Y-76472844D01*
X95425000Y-76472827D01*
X95425000Y-76250000D01*
X94750000Y-76250000D01*
X94750000Y-76925000D01*
X94250000Y-76925000D01*
X94250000Y-76250000D01*
X93575000Y-76250000D01*
X93575000Y-76472844D01*
X92424999Y-76472844D01*
X92425000Y-76472827D01*
X92425000Y-76250000D01*
X91750000Y-76250000D01*
X91750000Y-76925000D01*
X91250000Y-76925000D01*
X91250000Y-76250000D01*
X90575000Y-76250000D01*
X90575000Y-76472844D01*
X90000000Y-76472844D01*
X90000000Y-75950272D01*
X91250000Y-75950272D01*
X91250000Y-76049728D01*
X91288060Y-76141614D01*
X91358386Y-76211940D01*
X91450272Y-76250000D01*
X91549728Y-76250000D01*
X91641614Y-76211940D01*
X91711940Y-76141614D01*
X91750000Y-76049728D01*
X91750000Y-75950272D01*
X94250000Y-75950272D01*
X94250000Y-76049728D01*
X94288060Y-76141614D01*
X94358386Y-76211940D01*
X94450272Y-76250000D01*
X94549728Y-76250000D01*
X94641614Y-76211940D01*
X94711940Y-76141614D01*
X94750000Y-76049728D01*
X94750000Y-75950272D01*
X94727740Y-75896530D01*
X97949500Y-75896530D01*
X97949500Y-76103469D01*
X97989868Y-76306412D01*
X97989870Y-76306420D01*
X98069058Y-76497596D01*
X98184024Y-76669657D01*
X98330342Y-76815975D01*
X98330345Y-76815977D01*
X98502402Y-76930941D01*
X98693580Y-77010130D01*
X98894016Y-77049999D01*
X98896530Y-77050499D01*
X98896534Y-77050500D01*
X98896535Y-77050500D01*
X99103466Y-77050500D01*
X99103467Y-77050499D01*
X99306420Y-77010130D01*
X99497598Y-76930941D01*
X99545970Y-76898620D01*
X99954931Y-76898620D01*
X99954932Y-76898621D01*
X100002633Y-76930495D01*
X100002639Y-76930498D01*
X100193725Y-77009649D01*
X100193733Y-77009651D01*
X100396579Y-77049999D01*
X100396583Y-77050000D01*
X100603417Y-77050000D01*
X100603420Y-77049999D01*
X100806266Y-77009651D01*
X100806274Y-77009649D01*
X100997366Y-76930495D01*
X101045066Y-76898621D01*
X101045067Y-76898620D01*
X100500001Y-76353554D01*
X100500000Y-76353554D01*
X99954931Y-76898620D01*
X99545970Y-76898620D01*
X99669655Y-76815977D01*
X99669658Y-76815974D01*
X99720905Y-76764728D01*
X99815974Y-76669658D01*
X99815975Y-76669657D01*
X99815977Y-76669655D01*
X99930941Y-76497598D01*
X100010130Y-76306420D01*
X100045029Y-76130970D01*
X100055853Y-76099476D01*
X100119429Y-75972983D01*
X100100368Y-75953922D01*
X100150000Y-75953922D01*
X100150000Y-76046078D01*
X100173852Y-76135095D01*
X100219930Y-76214905D01*
X100285095Y-76280070D01*
X100364905Y-76326148D01*
X100453922Y-76350000D01*
X100546078Y-76350000D01*
X100635095Y-76326148D01*
X100714905Y-76280070D01*
X100780070Y-76214905D01*
X100826148Y-76135095D01*
X100850000Y-76046078D01*
X100850000Y-75999999D01*
X100853554Y-75999999D01*
X100853554Y-76000001D01*
X101398620Y-76545067D01*
X101398621Y-76545066D01*
X101430495Y-76497366D01*
X101509649Y-76306274D01*
X101509651Y-76306266D01*
X101549999Y-76103420D01*
X101550000Y-76103417D01*
X101550000Y-75896583D01*
X101549999Y-75896579D01*
X101509651Y-75693733D01*
X101509649Y-75693725D01*
X101430498Y-75502639D01*
X101430495Y-75502633D01*
X101398621Y-75454932D01*
X101398620Y-75454931D01*
X100853554Y-75999999D01*
X100850000Y-75999999D01*
X100850000Y-75953922D01*
X100826148Y-75864905D01*
X100780070Y-75785095D01*
X100714905Y-75719930D01*
X100635095Y-75673852D01*
X100546078Y-75650000D01*
X100453922Y-75650000D01*
X100364905Y-75673852D01*
X100285095Y-75719930D01*
X100219930Y-75785095D01*
X100173852Y-75864905D01*
X100150000Y-75953922D01*
X100100368Y-75953922D01*
X100078965Y-75932519D01*
X100045480Y-75871196D01*
X100045029Y-75869029D01*
X100028333Y-75785095D01*
X100010130Y-75693580D01*
X99930941Y-75502402D01*
X99815977Y-75330345D01*
X99815975Y-75330342D01*
X99669657Y-75184024D01*
X99545967Y-75101378D01*
X99545966Y-75101377D01*
X99954932Y-75101377D01*
X99954932Y-75101378D01*
X100500000Y-75646446D01*
X100500001Y-75646446D01*
X101045067Y-75101378D01*
X101045067Y-75101377D01*
X100997359Y-75069500D01*
X100806274Y-74990350D01*
X100806266Y-74990348D01*
X100603420Y-74950000D01*
X100396579Y-74950000D01*
X100193733Y-74990348D01*
X100193725Y-74990350D01*
X100002641Y-75069500D01*
X100002631Y-75069505D01*
X99954932Y-75101377D01*
X99545966Y-75101377D01*
X99497598Y-75069059D01*
X99306420Y-74989870D01*
X99306412Y-74989868D01*
X99103469Y-74949500D01*
X99103465Y-74949500D01*
X98896535Y-74949500D01*
X98896530Y-74949500D01*
X98693587Y-74989868D01*
X98693579Y-74989870D01*
X98502403Y-75069058D01*
X98330342Y-75184024D01*
X98184024Y-75330342D01*
X98069058Y-75502403D01*
X97989870Y-75693579D01*
X97989868Y-75693587D01*
X97949500Y-75896530D01*
X94727740Y-75896530D01*
X94711940Y-75858386D01*
X94641614Y-75788060D01*
X94549728Y-75750000D01*
X94750000Y-75750000D01*
X95425000Y-75750000D01*
X95425000Y-75527172D01*
X95424999Y-75527155D01*
X95418598Y-75467627D01*
X95418596Y-75467620D01*
X95368354Y-75332913D01*
X95368350Y-75332906D01*
X95282190Y-75217812D01*
X95282187Y-75217809D01*
X95167093Y-75131649D01*
X95167086Y-75131645D01*
X95032379Y-75081403D01*
X95032372Y-75081401D01*
X94972844Y-75075000D01*
X94750000Y-75075000D01*
X94750000Y-75750000D01*
X94549728Y-75750000D01*
X94450272Y-75750000D01*
X94358386Y-75788060D01*
X94288060Y-75858386D01*
X94250000Y-75950272D01*
X91750000Y-75950272D01*
X91711940Y-75858386D01*
X91641614Y-75788060D01*
X91549728Y-75750000D01*
X91750000Y-75750000D01*
X92425000Y-75750000D01*
X92425000Y-75527172D01*
X92424999Y-75527155D01*
X93575000Y-75527155D01*
X93575000Y-75750000D01*
X94250000Y-75750000D01*
X94250000Y-75075000D01*
X94027155Y-75075000D01*
X93967627Y-75081401D01*
X93967620Y-75081403D01*
X93832913Y-75131645D01*
X93832906Y-75131649D01*
X93717812Y-75217809D01*
X93717809Y-75217812D01*
X93631649Y-75332906D01*
X93631645Y-75332913D01*
X93581403Y-75467620D01*
X93581401Y-75467627D01*
X93575000Y-75527155D01*
X92424999Y-75527155D01*
X92418598Y-75467627D01*
X92418596Y-75467620D01*
X92368354Y-75332913D01*
X92368350Y-75332906D01*
X92282190Y-75217812D01*
X92282187Y-75217809D01*
X92167093Y-75131649D01*
X92167086Y-75131645D01*
X92032379Y-75081403D01*
X92032372Y-75081401D01*
X91972844Y-75075000D01*
X91750000Y-75075000D01*
X91750000Y-75750000D01*
X91549728Y-75750000D01*
X91450272Y-75750000D01*
X91358386Y-75788060D01*
X91288060Y-75858386D01*
X91250000Y-75950272D01*
X90000000Y-75950272D01*
X90000000Y-75527155D01*
X90575000Y-75527155D01*
X90575000Y-75750000D01*
X91250000Y-75750000D01*
X91250000Y-75075000D01*
X91027155Y-75075000D01*
X90967627Y-75081401D01*
X90967620Y-75081403D01*
X90832913Y-75131645D01*
X90832906Y-75131649D01*
X90717812Y-75217809D01*
X90717809Y-75217812D01*
X90631649Y-75332906D01*
X90631645Y-75332913D01*
X90581403Y-75467620D01*
X90581401Y-75467627D01*
X90575000Y-75527155D01*
X90000000Y-75527155D01*
X90000000Y-72920916D01*
X108197101Y-72920916D01*
X108197101Y-73079083D01*
X108227954Y-73234189D01*
X108227957Y-73234201D01*
X108288477Y-73380310D01*
X108288478Y-73380312D01*
X108376347Y-73511818D01*
X108488181Y-73623652D01*
X108575653Y-73682098D01*
X108619685Y-73711520D01*
X108619686Y-73711520D01*
X108619687Y-73711521D01*
X108619689Y-73711522D01*
X108713791Y-73750500D01*
X108765803Y-73772044D01*
X108920916Y-73802898D01*
X108920919Y-73802899D01*
X108920921Y-73802899D01*
X109079081Y-73802899D01*
X109079082Y-73802898D01*
X109234197Y-73772044D01*
X109248692Y-73766039D01*
X109263422Y-73759939D01*
X109310874Y-73750500D01*
X113689126Y-73750500D01*
X113736578Y-73759939D01*
X113765798Y-73772042D01*
X113765803Y-73772044D01*
X113920916Y-73802898D01*
X113920919Y-73802899D01*
X113920921Y-73802899D01*
X114079081Y-73802899D01*
X114079082Y-73802898D01*
X114234197Y-73772044D01*
X114380315Y-73711520D01*
X114511818Y-73623652D01*
X114623652Y-73511818D01*
X114711520Y-73380315D01*
X114772044Y-73234197D01*
X114802899Y-73079079D01*
X114802899Y-72920921D01*
X114802899Y-72920918D01*
X114802898Y-72920916D01*
X114772045Y-72765810D01*
X114772044Y-72765803D01*
X114711520Y-72619685D01*
X114682098Y-72575653D01*
X114623652Y-72488181D01*
X114511818Y-72376347D01*
X114380312Y-72288478D01*
X114380310Y-72288477D01*
X114234201Y-72227957D01*
X114234189Y-72227954D01*
X114079082Y-72197101D01*
X114079079Y-72197101D01*
X113920921Y-72197101D01*
X113920918Y-72197101D01*
X113765810Y-72227954D01*
X113765798Y-72227957D01*
X113736578Y-72240061D01*
X113689126Y-72249500D01*
X109310874Y-72249500D01*
X109263422Y-72240061D01*
X109234201Y-72227957D01*
X109234189Y-72227954D01*
X109079082Y-72197101D01*
X109079079Y-72197101D01*
X108920921Y-72197101D01*
X108920918Y-72197101D01*
X108765810Y-72227954D01*
X108765798Y-72227957D01*
X108619689Y-72288477D01*
X108619687Y-72288478D01*
X108488181Y-72376347D01*
X108376347Y-72488181D01*
X108288478Y-72619687D01*
X108288477Y-72619689D01*
X108227957Y-72765798D01*
X108227954Y-72765810D01*
X108197101Y-72920916D01*
X90000000Y-72920916D01*
X90000000Y-71398620D01*
X94954931Y-71398620D01*
X94954932Y-71398621D01*
X95002633Y-71430495D01*
X95002639Y-71430498D01*
X95193725Y-71509649D01*
X95193733Y-71509651D01*
X95396579Y-71549999D01*
X95396583Y-71550000D01*
X95603417Y-71550000D01*
X95603420Y-71549999D01*
X95806266Y-71509651D01*
X95806274Y-71509649D01*
X95997366Y-71430495D01*
X96045066Y-71398621D01*
X96045067Y-71398620D01*
X95500001Y-70853554D01*
X95500000Y-70853554D01*
X94954931Y-71398620D01*
X90000000Y-71398620D01*
X90000000Y-70396579D01*
X94450000Y-70396579D01*
X94450000Y-70603420D01*
X94490348Y-70806266D01*
X94490350Y-70806274D01*
X94569500Y-70997359D01*
X94601377Y-71045067D01*
X94601378Y-71045067D01*
X95146446Y-70500000D01*
X95100368Y-70453922D01*
X95150000Y-70453922D01*
X95150000Y-70546078D01*
X95173852Y-70635095D01*
X95219930Y-70714905D01*
X95285095Y-70780070D01*
X95364905Y-70826148D01*
X95453922Y-70850000D01*
X95546078Y-70850000D01*
X95635095Y-70826148D01*
X95714905Y-70780070D01*
X95780070Y-70714905D01*
X95826148Y-70635095D01*
X95850000Y-70546078D01*
X95850000Y-70499999D01*
X95853554Y-70499999D01*
X95853554Y-70500000D01*
X96398620Y-71045067D01*
X96398621Y-71045066D01*
X96430495Y-70997366D01*
X96509649Y-70806274D01*
X96509651Y-70806266D01*
X96549999Y-70603420D01*
X96550000Y-70603417D01*
X96550000Y-70396583D01*
X96549999Y-70396579D01*
X96509651Y-70193733D01*
X96509649Y-70193725D01*
X96430498Y-70002639D01*
X96430495Y-70002633D01*
X96398621Y-69954932D01*
X96398620Y-69954931D01*
X95853554Y-70499999D01*
X95850000Y-70499999D01*
X95850000Y-70453922D01*
X95826148Y-70364905D01*
X95780070Y-70285095D01*
X95714905Y-70219930D01*
X95635095Y-70173852D01*
X95546078Y-70150000D01*
X95453922Y-70150000D01*
X95364905Y-70173852D01*
X95285095Y-70219930D01*
X95219930Y-70285095D01*
X95173852Y-70364905D01*
X95150000Y-70453922D01*
X95100368Y-70453922D01*
X94601378Y-69954932D01*
X94601377Y-69954932D01*
X94569505Y-70002631D01*
X94569500Y-70002641D01*
X94490350Y-70193725D01*
X94490348Y-70193733D01*
X94450000Y-70396579D01*
X90000000Y-70396579D01*
X90000000Y-68896530D01*
X94449500Y-68896530D01*
X94449500Y-69103469D01*
X94489868Y-69306412D01*
X94489870Y-69306420D01*
X94569058Y-69497596D01*
X94684024Y-69669657D01*
X94830342Y-69815975D01*
X94830345Y-69815977D01*
X95002402Y-69930941D01*
X95193580Y-70010130D01*
X95301017Y-70031500D01*
X95369029Y-70045029D01*
X95430940Y-70077413D01*
X95432519Y-70078965D01*
X95499999Y-70146445D01*
X95567479Y-70078965D01*
X95628802Y-70045480D01*
X95630970Y-70045029D01*
X95644521Y-70042333D01*
X95806420Y-70010130D01*
X95997598Y-69930941D01*
X96169655Y-69815977D01*
X96315977Y-69669655D01*
X96430941Y-69497598D01*
X96510130Y-69306420D01*
X96550500Y-69103465D01*
X96550500Y-68896535D01*
X96510130Y-68693580D01*
X96430941Y-68502402D01*
X96315977Y-68330345D01*
X96315975Y-68330342D01*
X96169657Y-68184024D01*
X96083626Y-68126541D01*
X95997598Y-68069059D01*
X95806420Y-67989870D01*
X95806412Y-67989868D01*
X95603469Y-67949500D01*
X95603465Y-67949500D01*
X95396535Y-67949500D01*
X95396530Y-67949500D01*
X95193587Y-67989868D01*
X95193579Y-67989870D01*
X95002403Y-68069058D01*
X94830342Y-68184024D01*
X94684024Y-68330342D01*
X94569058Y-68502403D01*
X94489870Y-68693579D01*
X94489868Y-68693587D01*
X94449500Y-68896530D01*
X90000000Y-68896530D01*
X90000000Y-65624000D01*
X90019685Y-65556961D01*
X90072489Y-65511206D01*
X90124000Y-65500000D01*
X116376000Y-65500000D01*
X116443039Y-65519685D01*
G37*
%TD.AperFunction*%
%TD*%
M02*
