%TF.GenerationSoftware,KiCad,Pcbnew,9.0.7*%
%TF.CreationDate,2026-02-26T21:52:52+01:00*%
%TF.ProjectId,usb,7573622e-6b69-4636-9164-5f7063625858,rev?*%
%TF.SameCoordinates,Original*%
%TF.FileFunction,Copper,L1,Top*%
%TF.FilePolarity,Positive*%
%FSLAX46Y46*%
G04 Gerber Fmt 4.6, Leading zero omitted, Abs format (unit mm)*
G04 Created by KiCad (PCBNEW 9.0.7) date 2026-02-26 21:52:52*
%MOMM*%
%LPD*%
G01*
G04 APERTURE LIST*
G04 Aperture macros list*
%AMRoundRect*
0 Rectangle with rounded corners*
0 $1 Rounding radius*
0 $2 $3 $4 $5 $6 $7 $8 $9 X,Y pos of 4 corners*
0 Add a 4 corners polygon primitive as box body*
4,1,4,$2,$3,$4,$5,$6,$7,$8,$9,$2,$3,0*
0 Add four circle primitives for the rounded corners*
1,1,$1+$1,$2,$3*
1,1,$1+$1,$4,$5*
1,1,$1+$1,$6,$7*
1,1,$1+$1,$8,$9*
0 Add four rect primitives between the rounded corners*
20,1,$1+$1,$2,$3,$4,$5,0*
20,1,$1+$1,$4,$5,$6,$7,0*
20,1,$1+$1,$6,$7,$8,$9,0*
20,1,$1+$1,$8,$9,$2,$3,0*%
%AMFreePoly0*
4,1,9,3.862500,-0.866500,0.737500,-0.866500,0.737500,-0.450000,-0.737500,-0.450000,-0.737500,0.450000,0.737500,0.450000,0.737500,0.866500,3.862500,0.866500,3.862500,-0.866500,3.862500,-0.866500,$1*%
G04 Aperture macros list end*
%TA.AperFunction,SMDPad,CuDef*%
%ADD10RoundRect,0.225000X-0.225000X-0.250000X0.225000X-0.250000X0.225000X0.250000X-0.225000X0.250000X0*%
%TD*%
%TA.AperFunction,SMDPad,CuDef*%
%ADD11RoundRect,0.150000X0.150000X-0.512500X0.150000X0.512500X-0.150000X0.512500X-0.150000X-0.512500X0*%
%TD*%
%TA.AperFunction,SMDPad,CuDef*%
%ADD12RoundRect,0.225000X-0.375000X0.225000X-0.375000X-0.225000X0.375000X-0.225000X0.375000X0.225000X0*%
%TD*%
%TA.AperFunction,SMDPad,CuDef*%
%ADD13RoundRect,0.225000X0.425000X0.225000X-0.425000X0.225000X-0.425000X-0.225000X0.425000X-0.225000X0*%
%TD*%
%TA.AperFunction,SMDPad,CuDef*%
%ADD14FreePoly0,180.000000*%
%TD*%
%TA.AperFunction,SMDPad,CuDef*%
%ADD15RoundRect,0.135000X-0.135000X-0.185000X0.135000X-0.185000X0.135000X0.185000X-0.135000X0.185000X0*%
%TD*%
%TA.AperFunction,SMDPad,CuDef*%
%ADD16RoundRect,0.150000X-0.150000X-0.425000X0.150000X-0.425000X0.150000X0.425000X-0.150000X0.425000X0*%
%TD*%
%TA.AperFunction,SMDPad,CuDef*%
%ADD17RoundRect,0.075000X-0.075000X-0.500000X0.075000X-0.500000X0.075000X0.500000X-0.075000X0.500000X0*%
%TD*%
%TA.AperFunction,HeatsinkPad*%
%ADD18O,1.000000X2.100000*%
%TD*%
%TA.AperFunction,HeatsinkPad*%
%ADD19O,1.000000X1.800000*%
%TD*%
%TA.AperFunction,SMDPad,CuDef*%
%ADD20RoundRect,0.155000X-0.212500X-0.155000X0.212500X-0.155000X0.212500X0.155000X-0.212500X0.155000X0*%
%TD*%
%TA.AperFunction,SMDPad,CuDef*%
%ADD21RoundRect,0.175000X-1.175000X0.175000X-1.175000X-0.175000X1.175000X-0.175000X1.175000X0.175000X0*%
%TD*%
%TA.AperFunction,SMDPad,CuDef*%
%ADD22RoundRect,0.250000X-0.700000X0.300000X-0.700000X-0.300000X0.700000X-0.300000X0.700000X0.300000X0*%
%TD*%
%TA.AperFunction,SMDPad,CuDef*%
%ADD23RoundRect,0.225000X-0.250000X0.225000X-0.250000X-0.225000X0.250000X-0.225000X0.250000X0.225000X0*%
%TD*%
%TA.AperFunction,SMDPad,CuDef*%
%ADD24RoundRect,0.135000X0.135000X0.185000X-0.135000X0.185000X-0.135000X-0.185000X0.135000X-0.185000X0*%
%TD*%
%TA.AperFunction,SMDPad,CuDef*%
%ADD25RoundRect,0.250000X0.625000X-0.375000X0.625000X0.375000X-0.625000X0.375000X-0.625000X-0.375000X0*%
%TD*%
%TA.AperFunction,SMDPad,CuDef*%
%ADD26RoundRect,0.218750X-0.381250X0.218750X-0.381250X-0.218750X0.381250X-0.218750X0.381250X0.218750X0*%
%TD*%
%TA.AperFunction,SMDPad,CuDef*%
%ADD27RoundRect,0.150000X0.150000X0.475000X-0.150000X0.475000X-0.150000X-0.475000X0.150000X-0.475000X0*%
%TD*%
%TA.AperFunction,SMDPad,CuDef*%
%ADD28RoundRect,0.225000X0.225000X0.625000X-0.225000X0.625000X-0.225000X-0.625000X0.225000X-0.625000X0*%
%TD*%
%TA.AperFunction,SMDPad,CuDef*%
%ADD29RoundRect,0.175000X-0.175000X-1.175000X0.175000X-1.175000X0.175000X1.175000X-0.175000X1.175000X0*%
%TD*%
%TA.AperFunction,SMDPad,CuDef*%
%ADD30RoundRect,0.250000X-0.300000X-0.700000X0.300000X-0.700000X0.300000X0.700000X-0.300000X0.700000X0*%
%TD*%
%TA.AperFunction,ViaPad*%
%ADD31C,0.604799*%
%TD*%
%TA.AperFunction,ViaPad*%
%ADD32C,0.800000*%
%TD*%
%TA.AperFunction,ViaPad*%
%ADD33C,0.600000*%
%TD*%
%TA.AperFunction,Conductor*%
%ADD34C,0.152400*%
%TD*%
%TA.AperFunction,Conductor*%
%ADD35C,0.250000*%
%TD*%
%TA.AperFunction,Conductor*%
%ADD36C,0.155814*%
%TD*%
G04 APERTURE END LIST*
D10*
%TO.P,C3,1*%
%TO.N,+5V*%
X107500000Y-72000000D03*
%TO.P,C3,2*%
%TO.N,GND*%
X109050000Y-72000000D03*
%TD*%
D11*
%TO.P,U1,1,I/O1*%
%TO.N,/D-*%
X113050000Y-77137500D03*
%TO.P,U1,2,GND*%
%TO.N,GND*%
X114000000Y-77137500D03*
%TO.P,U1,3,I/O2*%
%TO.N,/D+*%
X114950000Y-77137500D03*
%TO.P,U1,4,I/O2*%
%TO.N,Net-(J3-Pin_1)*%
X114950000Y-74862500D03*
%TO.P,U1,5,VBUS*%
%TO.N,+5V*%
X114000000Y-74862500D03*
%TO.P,U1,6,I/O1*%
%TO.N,Net-(J3-Pin_2)*%
X113050000Y-74862500D03*
%TD*%
D12*
%TO.P,D1,1,K*%
%TO.N,+5V*%
X104500000Y-73800000D03*
%TO.P,D1,2,A*%
%TO.N,Net-(D1-A)*%
X104500000Y-77100000D03*
%TD*%
D13*
%TO.P,U2,1,GND*%
%TO.N,GND*%
X105450000Y-70500000D03*
D14*
%TO.P,U2,2,VO*%
%TO.N,VCC*%
X105362500Y-69000000D03*
D13*
%TO.P,U2,3,VI*%
%TO.N,+5V*%
X105450000Y-67500000D03*
%TD*%
D15*
%TO.P,R4,1*%
%TO.N,/CC2*%
X116990000Y-78500000D03*
%TO.P,R4,2*%
%TO.N,GND*%
X118010000Y-78500000D03*
%TD*%
D16*
%TO.P,JUSB1,A1,GND*%
%TO.N,GND*%
X111272500Y-80500000D03*
%TO.P,JUSB1,A4,VBUS*%
%TO.N,Net-(F1-Pad1)*%
X112072500Y-80500000D03*
D17*
%TO.P,JUSB1,A5,CC1*%
%TO.N,/CC1*%
X113222500Y-80500000D03*
%TO.P,JUSB1,A6,D+*%
%TO.N,/D+*%
X114222500Y-80500000D03*
%TO.P,JUSB1,A7,D-*%
%TO.N,/D-*%
X114722500Y-80500000D03*
%TO.P,JUSB1,A8,SBU1*%
%TO.N,unconnected-(JUSB1-SBU1-PadA8)*%
X115722500Y-80500000D03*
D16*
%TO.P,JUSB1,A9,VBUS*%
%TO.N,Net-(F1-Pad1)*%
X116872500Y-80500000D03*
%TO.P,JUSB1,A12,GND*%
%TO.N,GND*%
X117672500Y-80500000D03*
%TO.P,JUSB1,B1,GND*%
X117672500Y-80500000D03*
%TO.P,JUSB1,B4,VBUS*%
%TO.N,Net-(F1-Pad1)*%
X116872500Y-80500000D03*
D17*
%TO.P,JUSB1,B5,CC2*%
%TO.N,/CC2*%
X116222500Y-80500000D03*
%TO.P,JUSB1,B6,D+*%
%TO.N,/D+*%
X115222500Y-80500000D03*
%TO.P,JUSB1,B7,D-*%
%TO.N,/D-*%
X113722500Y-80500000D03*
%TO.P,JUSB1,B8,SBU2*%
%TO.N,unconnected-(JUSB1-SBU2-PadB8)*%
X112722500Y-80500000D03*
D16*
%TO.P,JUSB1,B9,VBUS*%
%TO.N,Net-(F1-Pad1)*%
X112072500Y-80500000D03*
%TO.P,JUSB1,B12,GND*%
%TO.N,GND*%
X111272500Y-80500000D03*
D18*
%TO.P,JUSB1,S1,SHIELD*%
X110152500Y-81075000D03*
D19*
X110152500Y-85255000D03*
D18*
X118792500Y-81075000D03*
D19*
X118792500Y-85255000D03*
%TD*%
D20*
%TO.P,C2,1*%
%TO.N,+5V*%
X107415000Y-70500000D03*
%TO.P,C2,2*%
%TO.N,GND*%
X108550000Y-70500000D03*
%TD*%
D21*
%TO.P,J5,1,Pin_1*%
%TO.N,VCC*%
X96500000Y-69000000D03*
%TO.P,J5,2,Pin_2*%
%TO.N,GND*%
X96500000Y-70500000D03*
D22*
%TO.P,J5,MP*%
%TO.N,N/C*%
X92800000Y-67050000D03*
X92800000Y-72450000D03*
%TD*%
D23*
%TO.P,C18,1*%
%TO.N,VCC*%
X100500000Y-69000000D03*
%TO.P,C18,2*%
%TO.N,GND*%
X100500000Y-70550000D03*
%TD*%
D24*
%TO.P,R1,1*%
%TO.N,/CC1*%
X111510000Y-77000000D03*
%TO.P,R1,2*%
%TO.N,GND*%
X110490000Y-77000000D03*
%TD*%
D25*
%TO.P,F1,1*%
%TO.N,Net-(F1-Pad1)*%
X108500000Y-77800000D03*
%TO.P,F1,2*%
%TO.N,Net-(F1-Pad2)*%
X108500000Y-75000000D03*
%TD*%
D26*
%TO.P,FB1,1*%
%TO.N,Net-(F1-Pad2)*%
X106500000Y-75000000D03*
%TO.P,FB1,2*%
%TO.N,Net-(D1-A)*%
X106500000Y-77125000D03*
%TD*%
D27*
%TO.P,J3,1,Pin_1*%
%TO.N,Net-(J3-Pin_1)*%
X113950000Y-67625000D03*
%TO.P,J3,2,Pin_2*%
%TO.N,Net-(J3-Pin_2)*%
X112950000Y-67625000D03*
D28*
%TO.P,J3,MP*%
%TO.N,N/C*%
X115400000Y-64500000D03*
X111500000Y-64500000D03*
%TD*%
D10*
%TO.P,C17,1*%
%TO.N,+5V*%
X107500000Y-69000000D03*
%TO.P,C17,2*%
%TO.N,GND*%
X109050000Y-69000000D03*
%TD*%
D29*
%TO.P,J2,1,Pin_1*%
%TO.N,VCC*%
X97500000Y-77000000D03*
%TO.P,J2,2,Pin_2*%
%TO.N,GND*%
X99000000Y-77000000D03*
D30*
%TO.P,J2,MP*%
%TO.N,N/C*%
X95550000Y-80700000D03*
X100950000Y-80700000D03*
%TD*%
D31*
%TO.N,GND*%
X98000000Y-72500000D03*
X110500000Y-72000000D03*
D32*
X110972500Y-85680000D03*
D31*
X110490000Y-76010000D03*
X114500000Y-78500000D03*
D32*
X117472500Y-84180000D03*
D31*
X105500000Y-72000000D03*
X110000000Y-70500000D03*
D32*
X110972500Y-83680000D03*
D31*
%TO.N,+5V*%
X114000000Y-73000000D03*
X106500000Y-73000000D03*
D33*
%TO.N,/D-*%
X113472500Y-83680000D03*
X114722500Y-83680000D03*
%TO.N,/D+*%
X115472500Y-82680000D03*
X113972500Y-82680000D03*
%TD*%
D34*
%TO.N,GND*%
X110727500Y-80500000D02*
X110152500Y-81075000D01*
D35*
X110152500Y-82075000D02*
X110152500Y-82860000D01*
D34*
X111272500Y-80500000D02*
X110727500Y-80500000D01*
X117672500Y-78837500D02*
X118010000Y-78500000D01*
X109050000Y-72000000D02*
X109050000Y-71000000D01*
X109050000Y-71000000D02*
X108550000Y-70500000D01*
X109952500Y-80875000D02*
X110152500Y-81075000D01*
X114000000Y-78000000D02*
X114500000Y-78500000D01*
X100500000Y-70550000D02*
X100500000Y-75500000D01*
D35*
X118472500Y-82680000D02*
X117472500Y-83680000D01*
D34*
X117672500Y-80500000D02*
X118217500Y-80500000D01*
X110490000Y-77000000D02*
X110490000Y-76010000D01*
D35*
X117472500Y-84180000D02*
X118792500Y-85500000D01*
D34*
X109050000Y-72000000D02*
X110500000Y-72000000D01*
D35*
X118792500Y-82360000D02*
X118472500Y-82680000D01*
D34*
X117672500Y-80500000D02*
X117672500Y-78837500D01*
X96500000Y-70500000D02*
X98000000Y-72000000D01*
D35*
X118792500Y-82075000D02*
X118792500Y-82360000D01*
D34*
X114000000Y-77137500D02*
X114000000Y-78000000D01*
X98000000Y-72000000D02*
X98000000Y-72500000D01*
X100500000Y-75500000D02*
X99000000Y-77000000D01*
X108550000Y-70500000D02*
X110000000Y-70500000D01*
X108550000Y-69500000D02*
X109050000Y-69000000D01*
X108550000Y-70500000D02*
X108550000Y-69500000D01*
X118217500Y-80500000D02*
X118792500Y-81075000D01*
X105450000Y-70500000D02*
X105450000Y-71950000D01*
D35*
X110152500Y-82860000D02*
X110972500Y-83680000D01*
D34*
X105450000Y-71950000D02*
X105500000Y-72000000D01*
D35*
X117472500Y-83680000D02*
X117472500Y-84180000D01*
X118792500Y-85500000D02*
X118792500Y-86255000D01*
X110972500Y-85680000D02*
X110972500Y-83680000D01*
D34*
%TO.N,Net-(J3-Pin_2)*%
X113050000Y-74862500D02*
X113050000Y-73550000D01*
X113000000Y-73500000D02*
X113000000Y-68000000D01*
X113050000Y-73550000D02*
X113000000Y-73500000D01*
%TO.N,Net-(J3-Pin_1)*%
X114950000Y-74862500D02*
X114950000Y-69500000D01*
X113950000Y-68500000D02*
X114950000Y-69500000D01*
X113950000Y-67625000D02*
X113950000Y-68500000D01*
%TO.N,VCC*%
X100500000Y-69000000D02*
X96500000Y-69000000D01*
X100000000Y-69000000D02*
X100500000Y-69000000D01*
X99000000Y-70000000D02*
X100000000Y-69000000D01*
X97500000Y-77000000D02*
X97500000Y-74500000D01*
X99000000Y-73000000D02*
X99000000Y-70000000D01*
X97500000Y-74500000D02*
X99000000Y-73000000D01*
X105362500Y-69000000D02*
X100500000Y-69000000D01*
%TO.N,Net-(D1-A)*%
X106500000Y-77125000D02*
X104525000Y-77125000D01*
X104525000Y-77125000D02*
X104500000Y-77100000D01*
%TO.N,+5V*%
X105700000Y-73800000D02*
X106500000Y-73000000D01*
X104500000Y-73800000D02*
X105700000Y-73800000D01*
X107500000Y-68000000D02*
X107000000Y-67500000D01*
X107500000Y-69000000D02*
X107500000Y-68000000D01*
X107415000Y-71415000D02*
X107415000Y-70500000D01*
X107500000Y-72000000D02*
X107500000Y-71500000D01*
X106500000Y-73000000D02*
X106500000Y-72932500D01*
X107415000Y-70500000D02*
X107415000Y-69085000D01*
X107000000Y-67500000D02*
X105450000Y-67500000D01*
X107415000Y-69085000D02*
X107500000Y-69000000D01*
X107500000Y-71500000D02*
X107415000Y-71415000D01*
X114000000Y-74862500D02*
X114000000Y-73000000D01*
X106500000Y-73000000D02*
X107500000Y-72000000D01*
%TO.N,Net-(F1-Pad2)*%
X108500000Y-75000000D02*
X106500000Y-75000000D01*
D35*
%TO.N,Net-(F1-Pad1)*%
X112472500Y-84180000D02*
X112472500Y-81474999D01*
X116759100Y-82893400D02*
X114972500Y-84680000D01*
X116759100Y-80613400D02*
X116872500Y-80500000D01*
D34*
X109947499Y-77800000D02*
X112072500Y-79925001D01*
X108500000Y-77800000D02*
X109947499Y-77800000D01*
D35*
X112972500Y-84680000D02*
X112472500Y-84180000D01*
X112472500Y-81474999D02*
X112072500Y-81074999D01*
X114972500Y-84680000D02*
X112972500Y-84680000D01*
D34*
X112072500Y-79925001D02*
X112072500Y-80500000D01*
D35*
X116759100Y-82893400D02*
X116759100Y-80613400D01*
D34*
%TO.N,/CC2*%
X116222500Y-80500000D02*
X116222500Y-79267500D01*
X116222500Y-79267500D02*
X116990000Y-78500000D01*
D36*
%TO.N,/D-*%
X113050000Y-78050000D02*
X113722500Y-78722500D01*
X113722500Y-82077580D02*
X113722500Y-80500000D01*
X113393593Y-83601093D02*
X113393593Y-82406487D01*
X113722500Y-78722500D02*
X113722500Y-80500000D01*
X113393593Y-82406487D02*
X113722500Y-82077580D01*
X113050000Y-77137500D02*
X113050000Y-78050000D01*
X113472500Y-83680000D02*
X113393593Y-83601093D01*
X114722500Y-80500000D02*
X114722500Y-83680000D01*
%TO.N,/D+*%
X115222500Y-80500000D02*
X115222500Y-77410000D01*
X115222500Y-77410000D02*
X114950000Y-77137500D01*
X115472500Y-82680000D02*
X115222500Y-82430000D01*
X114222500Y-82430000D02*
X114222500Y-80500000D01*
X115222500Y-82430000D02*
X115222500Y-80500000D01*
X113972500Y-82680000D02*
X114222500Y-82430000D01*
D34*
%TO.N,/CC1*%
X113222500Y-79722500D02*
X111510000Y-78010000D01*
X113222500Y-80500000D02*
X113222500Y-79722500D01*
X111510000Y-78010000D02*
X111510000Y-77000000D01*
%TD*%
%TA.AperFunction,Conductor*%
%TO.N,GND*%
G36*
X117865539Y-80519685D02*
G01*
X117911294Y-80572489D01*
X117922500Y-80624000D01*
X117922500Y-81159785D01*
X117902815Y-81226824D01*
X117850011Y-81272579D01*
X117780853Y-81282523D01*
X117717297Y-81253498D01*
X117710819Y-81247466D01*
X117681615Y-81218262D01*
X117648130Y-81156939D01*
X117650220Y-81095987D01*
X117670098Y-81027569D01*
X117673000Y-80990694D01*
X117673000Y-80624000D01*
X117675550Y-80615314D01*
X117674262Y-80606353D01*
X117685240Y-80582312D01*
X117692685Y-80556961D01*
X117699525Y-80551033D01*
X117703287Y-80542797D01*
X117725521Y-80528507D01*
X117745489Y-80511206D01*
X117756003Y-80508918D01*
X117762065Y-80505023D01*
X117797000Y-80500000D01*
X117798500Y-80500000D01*
X117865539Y-80519685D01*
G37*
%TD.AperFunction*%
%TA.AperFunction,Conductor*%
G36*
X114482489Y-78234388D02*
G01*
X114485462Y-78233795D01*
X114519817Y-78241884D01*
X114529073Y-78245517D01*
X114539602Y-78251744D01*
X114560128Y-78257707D01*
X114565401Y-78259777D01*
X114588709Y-78277853D01*
X114613573Y-78293732D01*
X114616008Y-78299025D01*
X114620613Y-78302596D01*
X114630448Y-78330405D01*
X114642780Y-78357204D01*
X114641967Y-78362973D01*
X114643910Y-78368467D01*
X114644093Y-78375203D01*
X114644093Y-79311237D01*
X114624408Y-79378276D01*
X114571604Y-79424031D01*
X114536281Y-79434176D01*
X114521130Y-79436170D01*
X114497264Y-79439313D01*
X114497262Y-79439313D01*
X114489210Y-79440374D01*
X114488818Y-79437399D01*
X114456182Y-79437399D01*
X114455790Y-79440374D01*
X114447737Y-79439313D01*
X114447736Y-79439313D01*
X114423869Y-79436170D01*
X114408719Y-79434176D01*
X114344823Y-79405908D01*
X114306353Y-79347583D01*
X114300907Y-79311237D01*
X114300907Y-78646353D01*
X114300906Y-78646347D01*
X114296099Y-78628407D01*
X114261490Y-78499244D01*
X114239325Y-78460853D01*
X114222852Y-78392953D01*
X114245705Y-78326926D01*
X114300626Y-78283735D01*
X114312118Y-78279776D01*
X114410196Y-78251282D01*
X114411382Y-78250581D01*
X114412436Y-78250313D01*
X114415293Y-78249076D01*
X114416946Y-78247480D01*
X114448204Y-78241236D01*
X114479105Y-78233395D01*
X114482489Y-78234388D01*
G37*
%TD.AperFunction*%
%TA.AperFunction,Conductor*%
G36*
X119945544Y-62019685D02*
G01*
X119991299Y-62072489D01*
X120002478Y-62121469D01*
X120496931Y-86349642D01*
X120497418Y-86373470D01*
X120479106Y-86440897D01*
X120427246Y-86487720D01*
X120373444Y-86500000D01*
X119661077Y-86500000D01*
X119594038Y-86480315D01*
X119548283Y-86427511D01*
X119538339Y-86358353D01*
X119566035Y-86297706D01*
X119565386Y-86297173D01*
X119569251Y-86292462D01*
X119678685Y-86128684D01*
X119678692Y-86128671D01*
X119754069Y-85946693D01*
X119754072Y-85946681D01*
X119792499Y-85753495D01*
X119792500Y-85753492D01*
X119792500Y-85505000D01*
X119092500Y-85505000D01*
X119092500Y-85005000D01*
X119792500Y-85005000D01*
X119792500Y-84756508D01*
X119792499Y-84756504D01*
X119754072Y-84563318D01*
X119754069Y-84563306D01*
X119678692Y-84381328D01*
X119678685Y-84381315D01*
X119569251Y-84217537D01*
X119569248Y-84217533D01*
X119429966Y-84078251D01*
X119429962Y-84078248D01*
X119266184Y-83968814D01*
X119266171Y-83968807D01*
X119084191Y-83893429D01*
X119084183Y-83893427D01*
X119042500Y-83885135D01*
X119042500Y-84688011D01*
X119032560Y-84670795D01*
X118976705Y-84614940D01*
X118908296Y-84575444D01*
X118831996Y-84555000D01*
X118753004Y-84555000D01*
X118676704Y-84575444D01*
X118608295Y-84614940D01*
X118552440Y-84670795D01*
X118542500Y-84688011D01*
X118542500Y-83885136D01*
X118542499Y-83885135D01*
X118500816Y-83893427D01*
X118500808Y-83893429D01*
X118318828Y-83968807D01*
X118318815Y-83968814D01*
X118155037Y-84078248D01*
X118155033Y-84078251D01*
X118015751Y-84217533D01*
X118015748Y-84217537D01*
X117906314Y-84381315D01*
X117906307Y-84381328D01*
X117830930Y-84563306D01*
X117830927Y-84563318D01*
X117792500Y-84756504D01*
X117792500Y-85005000D01*
X118492500Y-85005000D01*
X118492500Y-85505000D01*
X117792500Y-85505000D01*
X117792500Y-85753495D01*
X117830927Y-85946681D01*
X117830930Y-85946693D01*
X117906307Y-86128671D01*
X117906314Y-86128684D01*
X118015748Y-86292462D01*
X118019614Y-86297173D01*
X118017421Y-86298972D01*
X118045089Y-86349642D01*
X118040105Y-86419334D01*
X117998233Y-86475267D01*
X117932769Y-86499684D01*
X117923923Y-86500000D01*
X111021077Y-86500000D01*
X110954038Y-86480315D01*
X110908283Y-86427511D01*
X110898339Y-86358353D01*
X110926035Y-86297706D01*
X110925386Y-86297173D01*
X110929251Y-86292462D01*
X111038685Y-86128684D01*
X111038692Y-86128671D01*
X111114069Y-85946693D01*
X111114072Y-85946681D01*
X111152499Y-85753495D01*
X111152500Y-85753492D01*
X111152500Y-85505000D01*
X110452500Y-85505000D01*
X110452500Y-85005000D01*
X111152500Y-85005000D01*
X111152500Y-84756508D01*
X111152499Y-84756504D01*
X111114072Y-84563318D01*
X111114069Y-84563306D01*
X111038692Y-84381328D01*
X111038685Y-84381315D01*
X110929251Y-84217537D01*
X110929248Y-84217533D01*
X110789966Y-84078251D01*
X110789962Y-84078248D01*
X110626184Y-83968814D01*
X110626171Y-83968807D01*
X110444191Y-83893429D01*
X110444183Y-83893427D01*
X110402500Y-83885135D01*
X110402500Y-84688011D01*
X110392560Y-84670795D01*
X110336705Y-84614940D01*
X110268296Y-84575444D01*
X110191996Y-84555000D01*
X110113004Y-84555000D01*
X110036704Y-84575444D01*
X109968295Y-84614940D01*
X109912440Y-84670795D01*
X109902500Y-84688011D01*
X109902500Y-83885136D01*
X109902499Y-83885135D01*
X109860816Y-83893427D01*
X109860808Y-83893429D01*
X109678828Y-83968807D01*
X109678815Y-83968814D01*
X109515037Y-84078248D01*
X109515033Y-84078251D01*
X109375751Y-84217533D01*
X109375748Y-84217537D01*
X109266314Y-84381315D01*
X109266307Y-84381328D01*
X109190930Y-84563306D01*
X109190927Y-84563318D01*
X109152500Y-84756504D01*
X109152500Y-85005000D01*
X109852500Y-85005000D01*
X109852500Y-85505000D01*
X109152500Y-85505000D01*
X109152500Y-85753495D01*
X109190927Y-85946681D01*
X109190930Y-85946693D01*
X109266307Y-86128671D01*
X109266314Y-86128684D01*
X109375748Y-86292462D01*
X109379614Y-86297173D01*
X109377421Y-86298972D01*
X109405089Y-86349642D01*
X109400105Y-86419334D01*
X109358233Y-86475267D01*
X109292769Y-86499684D01*
X109283923Y-86500000D01*
X90124000Y-86500000D01*
X90056961Y-86480315D01*
X90011206Y-86427511D01*
X90000000Y-86376000D01*
X90000000Y-79949983D01*
X94499500Y-79949983D01*
X94499500Y-81450001D01*
X94499501Y-81450018D01*
X94510000Y-81552796D01*
X94510001Y-81552799D01*
X94565185Y-81719331D01*
X94565187Y-81719336D01*
X94578424Y-81740796D01*
X94657288Y-81868656D01*
X94781344Y-81992712D01*
X94930666Y-82084814D01*
X95097203Y-82139999D01*
X95199991Y-82150500D01*
X95900008Y-82150499D01*
X95900016Y-82150498D01*
X95900019Y-82150498D01*
X95956302Y-82144748D01*
X96002797Y-82139999D01*
X96169334Y-82084814D01*
X96318656Y-81992712D01*
X96442712Y-81868656D01*
X96534814Y-81719334D01*
X96589999Y-81552797D01*
X96600500Y-81450009D01*
X96600499Y-79949992D01*
X96600498Y-79949983D01*
X99899500Y-79949983D01*
X99899500Y-81450001D01*
X99899501Y-81450018D01*
X99910000Y-81552796D01*
X99910001Y-81552799D01*
X99965185Y-81719331D01*
X99965187Y-81719336D01*
X99978424Y-81740796D01*
X100057288Y-81868656D01*
X100181344Y-81992712D01*
X100330666Y-82084814D01*
X100497203Y-82139999D01*
X100599991Y-82150500D01*
X101300008Y-82150499D01*
X101300016Y-82150498D01*
X101300019Y-82150498D01*
X101356302Y-82144748D01*
X101402797Y-82139999D01*
X101569334Y-82084814D01*
X101718656Y-81992712D01*
X101842712Y-81868656D01*
X101934814Y-81719334D01*
X101989999Y-81552797D01*
X102000500Y-81450009D01*
X102000499Y-79949992D01*
X101989999Y-79847203D01*
X101934814Y-79680666D01*
X101842712Y-79531344D01*
X101718656Y-79407288D01*
X101603820Y-79336457D01*
X101569336Y-79315187D01*
X101569331Y-79315185D01*
X101557417Y-79311237D01*
X101402797Y-79260001D01*
X101402795Y-79260000D01*
X101300010Y-79249500D01*
X100599998Y-79249500D01*
X100599980Y-79249501D01*
X100497203Y-79260000D01*
X100497200Y-79260001D01*
X100330668Y-79315185D01*
X100330663Y-79315187D01*
X100181342Y-79407289D01*
X100057289Y-79531342D01*
X99965187Y-79680663D01*
X99965185Y-79680668D01*
X99937349Y-79764670D01*
X99910001Y-79847203D01*
X99910001Y-79847204D01*
X99910000Y-79847204D01*
X99899500Y-79949983D01*
X96600498Y-79949983D01*
X96589999Y-79847203D01*
X96534814Y-79680666D01*
X96442712Y-79531344D01*
X96318656Y-79407288D01*
X96203820Y-79336457D01*
X96169336Y-79315187D01*
X96169331Y-79315185D01*
X96157417Y-79311237D01*
X96002797Y-79260001D01*
X96002795Y-79260000D01*
X95900010Y-79249500D01*
X95199998Y-79249500D01*
X95199980Y-79249501D01*
X95097203Y-79260000D01*
X95097200Y-79260001D01*
X94930668Y-79315185D01*
X94930663Y-79315187D01*
X94781342Y-79407289D01*
X94657289Y-79531342D01*
X94565187Y-79680663D01*
X94565185Y-79680668D01*
X94537349Y-79764670D01*
X94510001Y-79847203D01*
X94510001Y-79847204D01*
X94510000Y-79847204D01*
X94499500Y-79949983D01*
X90000000Y-79949983D01*
X90000000Y-72099983D01*
X91349500Y-72099983D01*
X91349500Y-72800001D01*
X91349501Y-72800019D01*
X91360000Y-72902796D01*
X91360001Y-72902799D01*
X91384092Y-72975499D01*
X91415186Y-73069334D01*
X91507288Y-73218656D01*
X91631344Y-73342712D01*
X91780666Y-73434814D01*
X91947203Y-73489999D01*
X92049991Y-73500500D01*
X93550008Y-73500499D01*
X93652797Y-73489999D01*
X93819334Y-73434814D01*
X93968656Y-73342712D01*
X94092712Y-73218656D01*
X94184814Y-73069334D01*
X94239999Y-72902797D01*
X94250500Y-72800009D01*
X94250499Y-72099992D01*
X94239999Y-71997203D01*
X94184814Y-71830666D01*
X94092712Y-71681344D01*
X93968656Y-71557288D01*
X93819334Y-71465186D01*
X93652797Y-71410001D01*
X93652795Y-71410000D01*
X93550010Y-71399500D01*
X92049998Y-71399500D01*
X92049981Y-71399501D01*
X91947203Y-71410000D01*
X91947200Y-71410001D01*
X91780668Y-71465185D01*
X91780663Y-71465187D01*
X91631342Y-71557289D01*
X91507289Y-71681342D01*
X91415187Y-71830663D01*
X91415185Y-71830668D01*
X91387349Y-71914670D01*
X91360001Y-71997203D01*
X91360001Y-71997204D01*
X91360000Y-71997204D01*
X91349500Y-72099983D01*
X90000000Y-72099983D01*
X90000000Y-70750000D01*
X94651857Y-70750000D01*
X94656178Y-70797558D01*
X94704947Y-70954065D01*
X94789742Y-71094335D01*
X94789747Y-71094342D01*
X94905657Y-71210252D01*
X94905662Y-71210256D01*
X95045934Y-71295052D01*
X95202437Y-71343820D01*
X95270443Y-71349999D01*
X96249999Y-71349999D01*
X96250000Y-71349998D01*
X96250000Y-70750000D01*
X94651857Y-70750000D01*
X90000000Y-70750000D01*
X90000000Y-68770406D01*
X94649500Y-68770406D01*
X94649500Y-69229594D01*
X94655685Y-69297657D01*
X94655686Y-69297662D01*
X94655687Y-69297664D01*
X94704485Y-69454263D01*
X94704488Y-69454272D01*
X94789348Y-69594648D01*
X94789351Y-69594652D01*
X94857370Y-69662671D01*
X94890855Y-69723994D01*
X94885871Y-69793686D01*
X94857371Y-69838032D01*
X94789748Y-69905656D01*
X94789743Y-69905662D01*
X94704947Y-70045934D01*
X94656178Y-70202441D01*
X94651857Y-70249999D01*
X94651857Y-70250000D01*
X96376000Y-70250000D01*
X96443039Y-70269685D01*
X96488794Y-70322489D01*
X96500000Y-70374000D01*
X96500000Y-70500000D01*
X96626000Y-70500000D01*
X96693039Y-70519685D01*
X96738794Y-70572489D01*
X96750000Y-70624000D01*
X96750000Y-71349999D01*
X97729565Y-71349999D01*
X97797561Y-71343821D01*
X97797572Y-71343818D01*
X97954060Y-71295055D01*
X97954064Y-71295053D01*
X98094337Y-71210256D01*
X98094342Y-71210252D01*
X98211619Y-71092976D01*
X98272942Y-71059491D01*
X98342634Y-71064475D01*
X98398567Y-71106347D01*
X98422984Y-71171811D01*
X98423300Y-71180657D01*
X98423300Y-72709761D01*
X98403615Y-72776800D01*
X98386981Y-72797442D01*
X97038527Y-74145895D01*
X97038522Y-74145901D01*
X96962602Y-74277398D01*
X96962602Y-74277399D01*
X96923300Y-74424076D01*
X96923300Y-75220036D01*
X96903615Y-75287075D01*
X96886982Y-75307717D01*
X96789348Y-75405351D01*
X96704488Y-75545727D01*
X96704485Y-75545736D01*
X96658180Y-75694336D01*
X96655685Y-75702343D01*
X96649500Y-75770406D01*
X96649500Y-78229594D01*
X96655685Y-78297657D01*
X96655686Y-78297662D01*
X96655687Y-78297664D01*
X96704485Y-78454263D01*
X96704488Y-78454272D01*
X96789348Y-78594648D01*
X96789351Y-78594652D01*
X96905347Y-78710648D01*
X96905351Y-78710651D01*
X97045727Y-78795511D01*
X97045730Y-78795512D01*
X97202343Y-78844315D01*
X97270406Y-78850500D01*
X97270409Y-78850500D01*
X97729591Y-78850500D01*
X97729594Y-78850500D01*
X97797657Y-78844315D01*
X97954270Y-78795512D01*
X97955026Y-78795055D01*
X98094647Y-78710652D01*
X98094647Y-78710651D01*
X98094653Y-78710648D01*
X98162674Y-78642626D01*
X98223993Y-78609144D01*
X98293685Y-78614128D01*
X98338033Y-78642628D01*
X98405661Y-78710255D01*
X98405662Y-78710256D01*
X98545934Y-78795052D01*
X98702442Y-78843821D01*
X98702440Y-78843821D01*
X98749999Y-78848142D01*
X98750000Y-78848142D01*
X98750000Y-78848141D01*
X99250000Y-78848141D01*
X99297561Y-78843821D01*
X99297570Y-78843819D01*
X99454060Y-78795055D01*
X99454064Y-78795053D01*
X99594337Y-78710256D01*
X99594342Y-78710252D01*
X99710252Y-78594342D01*
X99710256Y-78594337D01*
X99795052Y-78454065D01*
X99843820Y-78297562D01*
X99850000Y-78229556D01*
X99850000Y-77250000D01*
X99250000Y-77250000D01*
X99250000Y-78848141D01*
X98750000Y-78848141D01*
X98750000Y-76826647D01*
X103399500Y-76826647D01*
X103399500Y-77373337D01*
X103399501Y-77373355D01*
X103409650Y-77472707D01*
X103409651Y-77472710D01*
X103462996Y-77633694D01*
X103463001Y-77633705D01*
X103552029Y-77778040D01*
X103552032Y-77778044D01*
X103671955Y-77897967D01*
X103671959Y-77897970D01*
X103816294Y-77986998D01*
X103816297Y-77986999D01*
X103816303Y-77987003D01*
X103977292Y-78040349D01*
X104076655Y-78050500D01*
X104923344Y-78050499D01*
X104923352Y-78050498D01*
X104923355Y-78050498D01*
X104977760Y-78044940D01*
X105022708Y-78040349D01*
X105183697Y-77987003D01*
X105328044Y-77897968D01*
X105404239Y-77821773D01*
X105465562Y-77788288D01*
X105535254Y-77793272D01*
X105579601Y-77821773D01*
X105669608Y-77911780D01*
X105669612Y-77911783D01*
X105812704Y-78000044D01*
X105812707Y-78000045D01*
X105812713Y-78000049D01*
X105972315Y-78052936D01*
X106070826Y-78063000D01*
X106070831Y-78063000D01*
X106929169Y-78063000D01*
X106929174Y-78063000D01*
X106987899Y-78057000D01*
X107056589Y-78069769D01*
X107107474Y-78117648D01*
X107124500Y-78180355D01*
X107124500Y-78224999D01*
X107124501Y-78225019D01*
X107135000Y-78327796D01*
X107135001Y-78327799D01*
X107190185Y-78494331D01*
X107190187Y-78494336D01*
X107193213Y-78499242D01*
X107282288Y-78643656D01*
X107406344Y-78767712D01*
X107555666Y-78859814D01*
X107722203Y-78914999D01*
X107824991Y-78925500D01*
X109175008Y-78925499D01*
X109277797Y-78914999D01*
X109444334Y-78859814D01*
X109593656Y-78767712D01*
X109717712Y-78643656D01*
X109733758Y-78617640D01*
X109785705Y-78570916D01*
X109854668Y-78559693D01*
X109918750Y-78587536D01*
X109926978Y-78595056D01*
X110717409Y-79385487D01*
X110721745Y-79393429D01*
X110728994Y-79398855D01*
X110738231Y-79423620D01*
X110750894Y-79446810D01*
X110750248Y-79455837D01*
X110753412Y-79464319D01*
X110747795Y-79490140D01*
X110745910Y-79516502D01*
X110740091Y-79525555D01*
X110738561Y-79532593D01*
X110717411Y-79560847D01*
X110694150Y-79584109D01*
X110632828Y-79617596D01*
X110563136Y-79612613D01*
X110559014Y-79610991D01*
X110444187Y-79563428D01*
X110444183Y-79563427D01*
X110402500Y-79555135D01*
X110402500Y-80250000D01*
X111148000Y-80250000D01*
X111215039Y-80269685D01*
X111260794Y-80322489D01*
X111272000Y-80374000D01*
X111272000Y-80990701D01*
X111274901Y-81027567D01*
X111294779Y-81095987D01*
X111294579Y-81165856D01*
X111263385Y-81218261D01*
X111234183Y-81247464D01*
X111172860Y-81280950D01*
X111103168Y-81275967D01*
X111047234Y-81234096D01*
X111022816Y-81168632D01*
X111022500Y-81159784D01*
X111022500Y-80750000D01*
X110452500Y-80750000D01*
X110452500Y-80485504D01*
X110432056Y-80409204D01*
X110392560Y-80340795D01*
X110336705Y-80284940D01*
X110268296Y-80245444D01*
X110191996Y-80225000D01*
X110113004Y-80225000D01*
X110036704Y-80245444D01*
X109968295Y-80284940D01*
X109912440Y-80340795D01*
X109902500Y-80358011D01*
X109902500Y-79555136D01*
X109902499Y-79555135D01*
X109860816Y-79563427D01*
X109860808Y-79563429D01*
X109678828Y-79638807D01*
X109678815Y-79638814D01*
X109515037Y-79748248D01*
X109515033Y-79748251D01*
X109375751Y-79887533D01*
X109375748Y-79887537D01*
X109266314Y-80051315D01*
X109266307Y-80051328D01*
X109190930Y-80233306D01*
X109190927Y-80233318D01*
X109152500Y-80426504D01*
X109152500Y-80825000D01*
X109852500Y-80825000D01*
X109852500Y-81325000D01*
X109152500Y-81325000D01*
X109152500Y-81723495D01*
X109190927Y-81916681D01*
X109190930Y-81916693D01*
X109266307Y-82098671D01*
X109266314Y-82098684D01*
X109375748Y-82262462D01*
X109375751Y-82262466D01*
X109515033Y-82401748D01*
X109515037Y-82401751D01*
X109678815Y-82511185D01*
X109678828Y-82511192D01*
X109860808Y-82586569D01*
X109902500Y-82594862D01*
X109902500Y-81791988D01*
X109912440Y-81809205D01*
X109968295Y-81865060D01*
X110036704Y-81904556D01*
X110113004Y-81925000D01*
X110191996Y-81925000D01*
X110268296Y-81904556D01*
X110336705Y-81865060D01*
X110392560Y-81809205D01*
X110402500Y-81791988D01*
X110402500Y-82594862D01*
X110444190Y-82586569D01*
X110444192Y-82586569D01*
X110626171Y-82511192D01*
X110626184Y-82511185D01*
X110789962Y-82401751D01*
X110789966Y-82401748D01*
X110929248Y-82262466D01*
X110929251Y-82262462D01*
X111038685Y-82098684D01*
X111038691Y-82098672D01*
X111082378Y-81993202D01*
X111126218Y-81938798D01*
X111192512Y-81916733D01*
X111260212Y-81934012D01*
X111284620Y-81952973D01*
X111289062Y-81957415D01*
X111398037Y-82020332D01*
X111519583Y-82052900D01*
X111519585Y-82052900D01*
X111645415Y-82052900D01*
X111645417Y-82052900D01*
X111690907Y-82040711D01*
X111760755Y-82042373D01*
X111818618Y-82081534D01*
X111846123Y-82145763D01*
X111847000Y-82160485D01*
X111847000Y-84241611D01*
X111871035Y-84362444D01*
X111871040Y-84362461D01*
X111918185Y-84476280D01*
X111918187Y-84476283D01*
X111918188Y-84476286D01*
X111952415Y-84527509D01*
X111986642Y-84578733D01*
X112073767Y-84665858D01*
X112073770Y-84665860D01*
X112081054Y-84673144D01*
X112483516Y-85075606D01*
X112483545Y-85075637D01*
X112573764Y-85165856D01*
X112573767Y-85165858D01*
X112650690Y-85217256D01*
X112676215Y-85234312D01*
X112742897Y-85261932D01*
X112746685Y-85263501D01*
X112746693Y-85263505D01*
X112783927Y-85278927D01*
X112790048Y-85281463D01*
X112850471Y-85293481D01*
X112910893Y-85305500D01*
X115034107Y-85305500D01*
X115094529Y-85293481D01*
X115154952Y-85281463D01*
X115188292Y-85267652D01*
X115268786Y-85234312D01*
X115320009Y-85200084D01*
X115371233Y-85165858D01*
X115458358Y-85078733D01*
X115458359Y-85078731D01*
X115465425Y-85071665D01*
X115465428Y-85071661D01*
X117157829Y-83379260D01*
X117157833Y-83379258D01*
X117244958Y-83292133D01*
X117313411Y-83189686D01*
X117313412Y-83189685D01*
X117349096Y-83103535D01*
X117360563Y-83075852D01*
X117384600Y-82955006D01*
X117384600Y-82158985D01*
X117404285Y-82091946D01*
X117457089Y-82046191D01*
X117476501Y-82039212D01*
X117546963Y-82020332D01*
X117655938Y-81957415D01*
X117660378Y-81952974D01*
X117721696Y-81919489D01*
X117791388Y-81924470D01*
X117847323Y-81966339D01*
X117862621Y-81993201D01*
X117906309Y-82098675D01*
X117906314Y-82098684D01*
X118015748Y-82262462D01*
X118015751Y-82262466D01*
X118155033Y-82401748D01*
X118155037Y-82401751D01*
X118318815Y-82511185D01*
X118318828Y-82511192D01*
X118500808Y-82586569D01*
X118542500Y-82594862D01*
X118542500Y-81791988D01*
X118552440Y-81809205D01*
X118608295Y-81865060D01*
X118676704Y-81904556D01*
X118753004Y-81925000D01*
X118831996Y-81925000D01*
X118908296Y-81904556D01*
X118976705Y-81865060D01*
X119032560Y-81809205D01*
X119042500Y-81791988D01*
X119042500Y-82594862D01*
X119084190Y-82586569D01*
X119084192Y-82586569D01*
X119266171Y-82511192D01*
X119266184Y-82511185D01*
X119429962Y-82401751D01*
X119429966Y-82401748D01*
X119569248Y-82262466D01*
X119569251Y-82262462D01*
X119678685Y-82098684D01*
X119678692Y-82098671D01*
X119754069Y-81916693D01*
X119754072Y-81916681D01*
X119792499Y-81723495D01*
X119792500Y-81723492D01*
X119792500Y-81325000D01*
X119092500Y-81325000D01*
X119092500Y-80825000D01*
X119792500Y-80825000D01*
X119792500Y-80426508D01*
X119792499Y-80426504D01*
X119754072Y-80233318D01*
X119754069Y-80233306D01*
X119678692Y-80051328D01*
X119678685Y-80051315D01*
X119569251Y-79887537D01*
X119569248Y-79887533D01*
X119429966Y-79748251D01*
X119429962Y-79748248D01*
X119266184Y-79638814D01*
X119266171Y-79638807D01*
X119084191Y-79563429D01*
X119084183Y-79563427D01*
X119042500Y-79555135D01*
X119042500Y-80358011D01*
X119032560Y-80340795D01*
X118976705Y-80284940D01*
X118908296Y-80245444D01*
X118831996Y-80225000D01*
X118753004Y-80225000D01*
X118676704Y-80245444D01*
X118608295Y-80284940D01*
X118552440Y-80340795D01*
X118542500Y-80358011D01*
X118542500Y-79555136D01*
X118542499Y-79555135D01*
X118500816Y-79563427D01*
X118500808Y-79563429D01*
X118385983Y-79610991D01*
X118372438Y-79612447D01*
X118360242Y-79618514D01*
X118338382Y-79616108D01*
X118316513Y-79618460D01*
X118302848Y-79612198D01*
X118290792Y-79610872D01*
X118270971Y-79597592D01*
X118260484Y-79592787D01*
X118189690Y-79535445D01*
X118174807Y-79513895D01*
X118156932Y-79494751D01*
X118155268Y-79485602D01*
X118149985Y-79477953D01*
X118149115Y-79451776D01*
X118144429Y-79426009D01*
X118147974Y-79417414D01*
X118147666Y-79408122D01*
X118161085Y-79385631D01*
X118171074Y-79361420D01*
X118178703Y-79356106D01*
X118183468Y-79348122D01*
X118206918Y-79336457D01*
X118228410Y-79321490D01*
X118244398Y-79317378D01*
X118399188Y-79272407D01*
X118399191Y-79272406D01*
X118537285Y-79190738D01*
X118537294Y-79190731D01*
X118650731Y-79077294D01*
X118650738Y-79077285D01*
X118732406Y-78939191D01*
X118732407Y-78939188D01*
X118777166Y-78785128D01*
X118777167Y-78785122D01*
X118779931Y-78750000D01*
X118134000Y-78750000D01*
X118066961Y-78730315D01*
X118021206Y-78677511D01*
X118010000Y-78626000D01*
X118010000Y-78500000D01*
X117884499Y-78500000D01*
X117876032Y-78497513D01*
X117867301Y-78498802D01*
X117843021Y-78487820D01*
X117817460Y-78480315D01*
X117811681Y-78473645D01*
X117803640Y-78470009D01*
X117789151Y-78447644D01*
X117771705Y-78427511D01*
X117769449Y-78417235D01*
X117765650Y-78411370D01*
X117760693Y-78377335D01*
X117760500Y-78376454D01*
X117760499Y-78376249D01*
X117760499Y-78250820D01*
X117760017Y-78244705D01*
X117760001Y-78240061D01*
X117760015Y-78240009D01*
X117760000Y-78239607D01*
X117760000Y-77687154D01*
X118260000Y-77687154D01*
X118260000Y-78250000D01*
X118779931Y-78250000D01*
X118777167Y-78214877D01*
X118777166Y-78214871D01*
X118732407Y-78060811D01*
X118732406Y-78060808D01*
X118650738Y-77922714D01*
X118650731Y-77922705D01*
X118537294Y-77809268D01*
X118537285Y-77809261D01*
X118399191Y-77727593D01*
X118399188Y-77727591D01*
X118260001Y-77687153D01*
X118260000Y-77687154D01*
X117760000Y-77687154D01*
X117759998Y-77687153D01*
X117620811Y-77727591D01*
X117620810Y-77727592D01*
X117563611Y-77761419D01*
X117495886Y-77778600D01*
X117437371Y-77761419D01*
X117380174Y-77727593D01*
X117379393Y-77727131D01*
X117379392Y-77727130D01*
X117379391Y-77727130D01*
X117379388Y-77727129D01*
X117225208Y-77682335D01*
X117225202Y-77682334D01*
X117189181Y-77679500D01*
X116790830Y-77679500D01*
X116790808Y-77679501D01*
X116754794Y-77682335D01*
X116600611Y-77727129D01*
X116600606Y-77727131D01*
X116462404Y-77808863D01*
X116462396Y-77808869D01*
X116348869Y-77922396D01*
X116348863Y-77922404D01*
X116267131Y-78060606D01*
X116267129Y-78060611D01*
X116222335Y-78214791D01*
X116222334Y-78214797D01*
X116219500Y-78250811D01*
X116219500Y-78403560D01*
X116210855Y-78433000D01*
X116204332Y-78462987D01*
X116200577Y-78468002D01*
X116199815Y-78470599D01*
X116183181Y-78491241D01*
X116012588Y-78661834D01*
X115951265Y-78695319D01*
X115881573Y-78690335D01*
X115825640Y-78648463D01*
X115801223Y-78582999D01*
X115800907Y-78574153D01*
X115800907Y-77333853D01*
X115800907Y-77333851D01*
X115761489Y-77186743D01*
X115761487Y-77186740D01*
X115761487Y-77186738D01*
X115759938Y-77182998D01*
X115750500Y-77135548D01*
X115750500Y-76559313D01*
X115750499Y-76559298D01*
X115747598Y-76522432D01*
X115747597Y-76522426D01*
X115701745Y-76364606D01*
X115701744Y-76364603D01*
X115701744Y-76364602D01*
X115618081Y-76223135D01*
X115618079Y-76223133D01*
X115618076Y-76223129D01*
X115501870Y-76106923D01*
X115501867Y-76106921D01*
X115501865Y-76106919D01*
X115501549Y-76106732D01*
X115501353Y-76106522D01*
X115495702Y-76102139D01*
X115496409Y-76101227D01*
X115453866Y-76055664D01*
X115441362Y-75986923D01*
X115468006Y-75922333D01*
X115495921Y-75898144D01*
X115495702Y-75897861D01*
X115500911Y-75893820D01*
X115501550Y-75893267D01*
X115501865Y-75893081D01*
X115618081Y-75776865D01*
X115701744Y-75635398D01*
X115747598Y-75477569D01*
X115750500Y-75440694D01*
X115750500Y-74284306D01*
X115747598Y-74247431D01*
X115725888Y-74172707D01*
X115701745Y-74089606D01*
X115701744Y-74089603D01*
X115701744Y-74089602D01*
X115618081Y-73948135D01*
X115618079Y-73948133D01*
X115618076Y-73948129D01*
X115563019Y-73893072D01*
X115529534Y-73831749D01*
X115526700Y-73805391D01*
X115526700Y-69424078D01*
X115526700Y-69424076D01*
X115487399Y-69277402D01*
X115471578Y-69250000D01*
X115411477Y-69145901D01*
X115411472Y-69145895D01*
X114736541Y-68470964D01*
X114703056Y-68409641D01*
X114705146Y-68348687D01*
X114747598Y-68202569D01*
X114750500Y-68165694D01*
X114750500Y-67084306D01*
X114747598Y-67047431D01*
X114745011Y-67038527D01*
X114701745Y-66889606D01*
X114701744Y-66889603D01*
X114701744Y-66889602D01*
X114618081Y-66748135D01*
X114618079Y-66748133D01*
X114618076Y-66748129D01*
X114501870Y-66631923D01*
X114501862Y-66631917D01*
X114360396Y-66548255D01*
X114360393Y-66548254D01*
X114202573Y-66502402D01*
X114202567Y-66502401D01*
X114165701Y-66499500D01*
X114165694Y-66499500D01*
X113734306Y-66499500D01*
X113734298Y-66499500D01*
X113697432Y-66502401D01*
X113697426Y-66502402D01*
X113539606Y-66548253D01*
X113513119Y-66563918D01*
X113445394Y-66581098D01*
X113386881Y-66563918D01*
X113360393Y-66548253D01*
X113202573Y-66502402D01*
X113202567Y-66502401D01*
X113165701Y-66499500D01*
X113165694Y-66499500D01*
X112734306Y-66499500D01*
X112734298Y-66499500D01*
X112697432Y-66502401D01*
X112697426Y-66502402D01*
X112539606Y-66548254D01*
X112539603Y-66548255D01*
X112398137Y-66631917D01*
X112398129Y-66631923D01*
X112281923Y-66748129D01*
X112281917Y-66748137D01*
X112198255Y-66889603D01*
X112198254Y-66889606D01*
X112152402Y-67047426D01*
X112152401Y-67047432D01*
X112149500Y-67084298D01*
X112149500Y-68165701D01*
X112152401Y-68202567D01*
X112152402Y-68202573D01*
X112198254Y-68360393D01*
X112198255Y-68360396D01*
X112198256Y-68360398D01*
X112213978Y-68386982D01*
X112268518Y-68479206D01*
X112281919Y-68501865D01*
X112386982Y-68606928D01*
X112420466Y-68668249D01*
X112423300Y-68694608D01*
X112423300Y-73424076D01*
X112423300Y-73575924D01*
X112459633Y-73711522D01*
X112462603Y-73722604D01*
X112463862Y-73725644D01*
X112465487Y-73733818D01*
X112468277Y-73738158D01*
X112473300Y-73773093D01*
X112473300Y-73805391D01*
X112453615Y-73872430D01*
X112436981Y-73893072D01*
X112381923Y-73948129D01*
X112381917Y-73948137D01*
X112298255Y-74089603D01*
X112298254Y-74089606D01*
X112252402Y-74247426D01*
X112252401Y-74247432D01*
X112249500Y-74284298D01*
X112249500Y-75440701D01*
X112252401Y-75477567D01*
X112252402Y-75477573D01*
X112298254Y-75635393D01*
X112298255Y-75635396D01*
X112381917Y-75776862D01*
X112381923Y-75776870D01*
X112498129Y-75893076D01*
X112498140Y-75893085D01*
X112498455Y-75893271D01*
X112498650Y-75893480D01*
X112504298Y-75897861D01*
X112503591Y-75898772D01*
X112546136Y-75944343D01*
X112558637Y-76013085D01*
X112531988Y-76077673D01*
X112504078Y-76101856D01*
X112504298Y-76102139D01*
X112499092Y-76106176D01*
X112498455Y-76106729D01*
X112498140Y-76106914D01*
X112498129Y-76106923D01*
X112381923Y-76223129D01*
X112381916Y-76223138D01*
X112303478Y-76355771D01*
X112252409Y-76403455D01*
X112183667Y-76415958D01*
X112119078Y-76389313D01*
X112109065Y-76380331D01*
X112037603Y-76308869D01*
X112037595Y-76308863D01*
X111899393Y-76227131D01*
X111899388Y-76227129D01*
X111745208Y-76182335D01*
X111745202Y-76182334D01*
X111709181Y-76179500D01*
X111310830Y-76179500D01*
X111310808Y-76179501D01*
X111274794Y-76182335D01*
X111120611Y-76227129D01*
X111120607Y-76227130D01*
X111062628Y-76261419D01*
X110994903Y-76278600D01*
X110936388Y-76261419D01*
X110879189Y-76227592D01*
X110879188Y-76227591D01*
X110740001Y-76187153D01*
X110740000Y-76187154D01*
X110740000Y-76739591D01*
X110739999Y-76740045D01*
X110739981Y-76744694D01*
X110739500Y-76750819D01*
X110739500Y-76876385D01*
X110739500Y-76876454D01*
X110729582Y-76909781D01*
X110719817Y-76943039D01*
X110719638Y-76943193D01*
X110719571Y-76943421D01*
X110693165Y-76966132D01*
X110667013Y-76988794D01*
X110666752Y-76988850D01*
X110666600Y-76988982D01*
X110665333Y-76989159D01*
X110615501Y-77000000D01*
X110364000Y-77000000D01*
X110296961Y-76980315D01*
X110251206Y-76927511D01*
X110240000Y-76876000D01*
X110240000Y-76187154D01*
X110239998Y-76187153D01*
X110100811Y-76227591D01*
X110100808Y-76227593D01*
X109962714Y-76309261D01*
X109962705Y-76309268D01*
X109849268Y-76422705D01*
X109849261Y-76422714D01*
X109767593Y-76560808D01*
X109767592Y-76560811D01*
X109721065Y-76720959D01*
X109719548Y-76720518D01*
X109691662Y-76775902D01*
X109631489Y-76811413D01*
X109561670Y-76808755D01*
X109536014Y-76796734D01*
X109444334Y-76740186D01*
X109443908Y-76740045D01*
X109418864Y-76731746D01*
X109277797Y-76685001D01*
X109277795Y-76685000D01*
X109175010Y-76674500D01*
X107824998Y-76674500D01*
X107824981Y-76674501D01*
X107722203Y-76685000D01*
X107722193Y-76685003D01*
X107698838Y-76692742D01*
X107629010Y-76695143D01*
X107568969Y-76659411D01*
X107542131Y-76614042D01*
X107537549Y-76600213D01*
X107537544Y-76600206D01*
X107537544Y-76600204D01*
X107449283Y-76457112D01*
X107449280Y-76457108D01*
X107330391Y-76338219D01*
X107330387Y-76338216D01*
X107187295Y-76249955D01*
X107187289Y-76249952D01*
X107187287Y-76249951D01*
X107027685Y-76197064D01*
X107027683Y-76197063D01*
X106929181Y-76187000D01*
X106929174Y-76187000D01*
X106070826Y-76187000D01*
X106070818Y-76187000D01*
X105972316Y-76197063D01*
X105972315Y-76197064D01*
X105893656Y-76223129D01*
X105812715Y-76249950D01*
X105812704Y-76249955D01*
X105669612Y-76338216D01*
X105669607Y-76338219D01*
X105604599Y-76403227D01*
X105543275Y-76436712D01*
X105473584Y-76431726D01*
X105429238Y-76403226D01*
X105328044Y-76302032D01*
X105328040Y-76302029D01*
X105183705Y-76213001D01*
X105183699Y-76212998D01*
X105183697Y-76212997D01*
X105135611Y-76197063D01*
X105022709Y-76159651D01*
X104923346Y-76149500D01*
X104076662Y-76149500D01*
X104076644Y-76149501D01*
X103977292Y-76159650D01*
X103977289Y-76159651D01*
X103816305Y-76212996D01*
X103816294Y-76213001D01*
X103671959Y-76302029D01*
X103671955Y-76302032D01*
X103552032Y-76421955D01*
X103552029Y-76421959D01*
X103463001Y-76566294D01*
X103462996Y-76566305D01*
X103409651Y-76727290D01*
X103399500Y-76826647D01*
X98750000Y-76826647D01*
X98750000Y-76750000D01*
X99250000Y-76750000D01*
X99849999Y-76750000D01*
X99849999Y-75770433D01*
X99843821Y-75702438D01*
X99843818Y-75702427D01*
X99795055Y-75545939D01*
X99795053Y-75545935D01*
X99710256Y-75405662D01*
X99710252Y-75405657D01*
X99594342Y-75289747D01*
X99594337Y-75289743D01*
X99454065Y-75204947D01*
X99297562Y-75156179D01*
X99250000Y-75151856D01*
X99250000Y-76750000D01*
X98750000Y-76750000D01*
X98750000Y-75151857D01*
X98749999Y-75151857D01*
X98702441Y-75156178D01*
X98545934Y-75204947D01*
X98405662Y-75289743D01*
X98405656Y-75289748D01*
X98338032Y-75357371D01*
X98330086Y-75361709D01*
X98324661Y-75368957D01*
X98299901Y-75378191D01*
X98276708Y-75390856D01*
X98267677Y-75390209D01*
X98259197Y-75393373D01*
X98233375Y-75387755D01*
X98207017Y-75385870D01*
X98197965Y-75380052D01*
X98190924Y-75378521D01*
X98162670Y-75357369D01*
X98113018Y-75307716D01*
X98079534Y-75246393D01*
X98076700Y-75220036D01*
X98076700Y-74790239D01*
X98096385Y-74723200D01*
X98113019Y-74702558D01*
X98783290Y-74032287D01*
X99461475Y-73354102D01*
X99537399Y-73222598D01*
X99576700Y-73075924D01*
X99576700Y-72924076D01*
X99576700Y-71426367D01*
X99596385Y-71359328D01*
X99649189Y-71313573D01*
X99718347Y-71303629D01*
X99781903Y-71332654D01*
X99788381Y-71338686D01*
X99797267Y-71347572D01*
X99797271Y-71347575D01*
X99941507Y-71436542D01*
X99941518Y-71436547D01*
X100102393Y-71489855D01*
X100201683Y-71499999D01*
X100750000Y-71499999D01*
X100798308Y-71499999D01*
X100798322Y-71499998D01*
X100897607Y-71489855D01*
X101058481Y-71436547D01*
X101058492Y-71436542D01*
X101202728Y-71347575D01*
X101202732Y-71347572D01*
X101322572Y-71227732D01*
X101322575Y-71227728D01*
X101411542Y-71083492D01*
X101411547Y-71083481D01*
X101464855Y-70922606D01*
X101474999Y-70823322D01*
X101475000Y-70823309D01*
X101475000Y-70800000D01*
X100750000Y-70800000D01*
X100750000Y-71499999D01*
X100201683Y-71499999D01*
X100249999Y-71499998D01*
X100250000Y-71499998D01*
X100250000Y-70773322D01*
X104300001Y-70773322D01*
X104310144Y-70872607D01*
X104363452Y-71033481D01*
X104363457Y-71033492D01*
X104452424Y-71177728D01*
X104452427Y-71177732D01*
X104572267Y-71297572D01*
X104572271Y-71297575D01*
X104716507Y-71386542D01*
X104716518Y-71386547D01*
X104877393Y-71439855D01*
X104976683Y-71449999D01*
X105199999Y-71449999D01*
X105200000Y-71449998D01*
X105200000Y-70750000D01*
X104300001Y-70750000D01*
X104300001Y-70773322D01*
X100250000Y-70773322D01*
X100250000Y-70674000D01*
X100269685Y-70606961D01*
X100322489Y-70561206D01*
X100374000Y-70550000D01*
X100500000Y-70550000D01*
X100500000Y-70424000D01*
X100519685Y-70356961D01*
X100572489Y-70311206D01*
X100624000Y-70300000D01*
X101217788Y-70300000D01*
X101269300Y-70311206D01*
X101357581Y-70351523D01*
X101357582Y-70351523D01*
X101357584Y-70351524D01*
X101500000Y-70372000D01*
X101500003Y-70372000D01*
X104625000Y-70372000D01*
X104696940Y-70366855D01*
X104834992Y-70326319D01*
X104923116Y-70269685D01*
X104990156Y-70250000D01*
X105326000Y-70250000D01*
X105393039Y-70269685D01*
X105438794Y-70322489D01*
X105450000Y-70374000D01*
X105450000Y-70500000D01*
X105576000Y-70500000D01*
X105643039Y-70519685D01*
X105688794Y-70572489D01*
X105700000Y-70624000D01*
X105700000Y-71449999D01*
X105923308Y-71449999D01*
X105923322Y-71449998D01*
X106022607Y-71439855D01*
X106183481Y-71386547D01*
X106183492Y-71386542D01*
X106327728Y-71297575D01*
X106327732Y-71297572D01*
X106447573Y-71177731D01*
X106499012Y-71094335D01*
X106516303Y-71078781D01*
X106530241Y-71060164D01*
X106541791Y-71055855D01*
X106550959Y-71047610D01*
X106573915Y-71043874D01*
X106595705Y-71035747D01*
X106607751Y-71038367D01*
X106619922Y-71036387D01*
X106641254Y-71045655D01*
X106663978Y-71050599D01*
X106679672Y-71062348D01*
X106684004Y-71064230D01*
X106692232Y-71071750D01*
X106722053Y-71101571D01*
X106755538Y-71162894D01*
X106750554Y-71232586D01*
X106722057Y-71276930D01*
X106702030Y-71296958D01*
X106702029Y-71296959D01*
X106613001Y-71441294D01*
X106612996Y-71441305D01*
X106559651Y-71602290D01*
X106549500Y-71701647D01*
X106549500Y-72073101D01*
X106529815Y-72140140D01*
X106477011Y-72185895D01*
X106425500Y-72197101D01*
X106420918Y-72197101D01*
X106265810Y-72227954D01*
X106265798Y-72227957D01*
X106119689Y-72288477D01*
X106119687Y-72288478D01*
X105988181Y-72376347D01*
X105876347Y-72488181D01*
X105788478Y-72619687D01*
X105788477Y-72619689D01*
X105727957Y-72765798D01*
X105727954Y-72765810D01*
X105697101Y-72920916D01*
X105697101Y-72935959D01*
X105688456Y-72965399D01*
X105681933Y-72995386D01*
X105678178Y-73000401D01*
X105677416Y-73002998D01*
X105660782Y-73023640D01*
X105592898Y-73091524D01*
X105531575Y-73125009D01*
X105461883Y-73120025D01*
X105417536Y-73091524D01*
X105328044Y-73002032D01*
X105328040Y-73002029D01*
X105183705Y-72913001D01*
X105183699Y-72912998D01*
X105183697Y-72912997D01*
X105152909Y-72902795D01*
X105022709Y-72859651D01*
X104923346Y-72849500D01*
X104076662Y-72849500D01*
X104076644Y-72849501D01*
X103977292Y-72859650D01*
X103977289Y-72859651D01*
X103816305Y-72912996D01*
X103816294Y-72913001D01*
X103671959Y-73002029D01*
X103671955Y-73002032D01*
X103552032Y-73121955D01*
X103552029Y-73121959D01*
X103463001Y-73266294D01*
X103462996Y-73266305D01*
X103409651Y-73427290D01*
X103399500Y-73526647D01*
X103399500Y-74073337D01*
X103399501Y-74073355D01*
X103409650Y-74172707D01*
X103409651Y-74172710D01*
X103462996Y-74333694D01*
X103463001Y-74333705D01*
X103552029Y-74478040D01*
X103552032Y-74478044D01*
X103671955Y-74597967D01*
X103671959Y-74597970D01*
X103816294Y-74686998D01*
X103816297Y-74686999D01*
X103816303Y-74687003D01*
X103977292Y-74740349D01*
X104076655Y-74750500D01*
X104923344Y-74750499D01*
X104923352Y-74750498D01*
X104923355Y-74750498D01*
X104977760Y-74744940D01*
X105022708Y-74740349D01*
X105183697Y-74687003D01*
X105210402Y-74670530D01*
X105277793Y-74652089D01*
X105344457Y-74673010D01*
X105389227Y-74726651D01*
X105399500Y-74776068D01*
X105399500Y-75266681D01*
X105409563Y-75365183D01*
X105462450Y-75524784D01*
X105462455Y-75524795D01*
X105550716Y-75667887D01*
X105550719Y-75667891D01*
X105669608Y-75786780D01*
X105669612Y-75786783D01*
X105812704Y-75875044D01*
X105812707Y-75875045D01*
X105812713Y-75875049D01*
X105972315Y-75927936D01*
X106070826Y-75938000D01*
X106070831Y-75938000D01*
X106929169Y-75938000D01*
X106929174Y-75938000D01*
X107027685Y-75927936D01*
X107187287Y-75875049D01*
X107187293Y-75875044D01*
X107193829Y-75871998D01*
X107195099Y-75874722D01*
X107249391Y-75859861D01*
X107316057Y-75880775D01*
X107334791Y-75896159D01*
X107406344Y-75967712D01*
X107555666Y-76059814D01*
X107722203Y-76114999D01*
X107824991Y-76125500D01*
X109175008Y-76125499D01*
X109277797Y-76114999D01*
X109444334Y-76059814D01*
X109593656Y-75967712D01*
X109717712Y-75843656D01*
X109809814Y-75694334D01*
X109864999Y-75527797D01*
X109875500Y-75425009D01*
X109875499Y-74574992D01*
X109864999Y-74472203D01*
X109809814Y-74305666D01*
X109717712Y-74156344D01*
X109593656Y-74032288D01*
X109457225Y-73948137D01*
X109444336Y-73940187D01*
X109444331Y-73940185D01*
X109424715Y-73933685D01*
X109277797Y-73885001D01*
X109277795Y-73885000D01*
X109175010Y-73874500D01*
X107824998Y-73874500D01*
X107824981Y-73874501D01*
X107722203Y-73885000D01*
X107722200Y-73885001D01*
X107555668Y-73940185D01*
X107555663Y-73940187D01*
X107406345Y-74032287D01*
X107334791Y-74103841D01*
X107273467Y-74137325D01*
X107203776Y-74132340D01*
X107194035Y-74127576D01*
X107193836Y-74128005D01*
X107187285Y-74124950D01*
X107080611Y-74089602D01*
X107027685Y-74072064D01*
X107027683Y-74072063D01*
X106929181Y-74062000D01*
X106929174Y-74062000D01*
X106552939Y-74062000D01*
X106531693Y-74055761D01*
X106509605Y-74054182D01*
X106498821Y-74046109D01*
X106485900Y-74042315D01*
X106471400Y-74025581D01*
X106453672Y-74012310D01*
X106448964Y-73999689D01*
X106440145Y-73989511D01*
X106436993Y-73967593D01*
X106429255Y-73946846D01*
X106432117Y-73933685D01*
X106430201Y-73920353D01*
X106439400Y-73900209D01*
X106444107Y-73878573D01*
X106457375Y-73860847D01*
X106459226Y-73856797D01*
X106465258Y-73850319D01*
X106476359Y-73839218D01*
X106537682Y-73805733D01*
X106564040Y-73802899D01*
X106579081Y-73802899D01*
X106579082Y-73802898D01*
X106734197Y-73772044D01*
X106880315Y-73711520D01*
X107011818Y-73623652D01*
X107123652Y-73511818D01*
X107211520Y-73380315D01*
X107272044Y-73234197D01*
X107294370Y-73121959D01*
X107303650Y-73075307D01*
X107336035Y-73013396D01*
X107396751Y-72978822D01*
X107425267Y-72975499D01*
X107773338Y-72975499D01*
X107773344Y-72975499D01*
X107773352Y-72975498D01*
X107773355Y-72975498D01*
X107827760Y-72969940D01*
X107872708Y-72965349D01*
X108033697Y-72912003D01*
X108178044Y-72822968D01*
X108187668Y-72813343D01*
X108248987Y-72779856D01*
X108318679Y-72784835D01*
X108363034Y-72813339D01*
X108372267Y-72822572D01*
X108372271Y-72822575D01*
X108516507Y-72911542D01*
X108516518Y-72911547D01*
X108677393Y-72964855D01*
X108776683Y-72974999D01*
X109300000Y-72974999D01*
X109323308Y-72974999D01*
X109323322Y-72974998D01*
X109422607Y-72964855D01*
X109583481Y-72911547D01*
X109583492Y-72911542D01*
X109727728Y-72822575D01*
X109727732Y-72822572D01*
X109847572Y-72702732D01*
X109847575Y-72702728D01*
X109936542Y-72558492D01*
X109936547Y-72558481D01*
X109989855Y-72397606D01*
X109999999Y-72298322D01*
X110000000Y-72298309D01*
X110000000Y-72250000D01*
X109300000Y-72250000D01*
X109300000Y-72974999D01*
X108776683Y-72974999D01*
X108800000Y-72974998D01*
X108800000Y-72124000D01*
X108819685Y-72056961D01*
X108872489Y-72011206D01*
X108924000Y-72000000D01*
X109050000Y-72000000D01*
X109050000Y-71874000D01*
X109069685Y-71806961D01*
X109122489Y-71761206D01*
X109174000Y-71750000D01*
X109999999Y-71750000D01*
X109999999Y-71701692D01*
X109999998Y-71701677D01*
X109989855Y-71602392D01*
X109936547Y-71441518D01*
X109936542Y-71441507D01*
X109847575Y-71297271D01*
X109847572Y-71297267D01*
X109727732Y-71177427D01*
X109727728Y-71177424D01*
X109583492Y-71088457D01*
X109583481Y-71088452D01*
X109455312Y-71045981D01*
X109397867Y-71006208D01*
X109371044Y-70941692D01*
X109375240Y-70893679D01*
X109414578Y-70758279D01*
X109415230Y-70750000D01*
X108674000Y-70750000D01*
X108606961Y-70730315D01*
X108561206Y-70677511D01*
X108550000Y-70626000D01*
X108550000Y-70374000D01*
X108569685Y-70306961D01*
X108622489Y-70261206D01*
X108674000Y-70250000D01*
X109415230Y-70250000D01*
X109414578Y-70241720D01*
X109375240Y-70106320D01*
X109375439Y-70036450D01*
X109413381Y-69977780D01*
X109455313Y-69954018D01*
X109583479Y-69911548D01*
X109583492Y-69911542D01*
X109727728Y-69822575D01*
X109727732Y-69822572D01*
X109847572Y-69702732D01*
X109847575Y-69702728D01*
X109936542Y-69558492D01*
X109936547Y-69558481D01*
X109989855Y-69397606D01*
X109999999Y-69298322D01*
X110000000Y-69298309D01*
X110000000Y-69250000D01*
X109174000Y-69250000D01*
X109106961Y-69230315D01*
X109061206Y-69177511D01*
X109050000Y-69126000D01*
X109050000Y-69000000D01*
X108924000Y-69000000D01*
X108856961Y-68980315D01*
X108811206Y-68927511D01*
X108800000Y-68876000D01*
X108800000Y-68750000D01*
X109300000Y-68750000D01*
X109999999Y-68750000D01*
X109999999Y-68701692D01*
X109999998Y-68701677D01*
X109989855Y-68602392D01*
X109936547Y-68441518D01*
X109936542Y-68441507D01*
X109847575Y-68297271D01*
X109847572Y-68297267D01*
X109727732Y-68177427D01*
X109727728Y-68177424D01*
X109583492Y-68088457D01*
X109583481Y-68088452D01*
X109422606Y-68035144D01*
X109323322Y-68025000D01*
X109300000Y-68025000D01*
X109300000Y-68750000D01*
X108800000Y-68750000D01*
X108800000Y-68024999D01*
X108776693Y-68025000D01*
X108776674Y-68025001D01*
X108677392Y-68035144D01*
X108516518Y-68088452D01*
X108516507Y-68088457D01*
X108372271Y-68177424D01*
X108372264Y-68177430D01*
X108363028Y-68186665D01*
X108301703Y-68220146D01*
X108232011Y-68215157D01*
X108202976Y-68199663D01*
X108194791Y-68193779D01*
X108178044Y-68177032D01*
X108131891Y-68148564D01*
X108128323Y-68145999D01*
X108109432Y-68121755D01*
X108088878Y-68098903D01*
X108087747Y-68093926D01*
X108085378Y-68090886D01*
X108084257Y-68078570D01*
X108076700Y-68045314D01*
X108076700Y-67924078D01*
X108076700Y-67924076D01*
X108037399Y-67777402D01*
X108022425Y-67751467D01*
X107961477Y-67645901D01*
X107961472Y-67645895D01*
X107354104Y-67038527D01*
X107354098Y-67038522D01*
X107222600Y-66962602D01*
X107222599Y-66962601D01*
X107222598Y-66962601D01*
X107075924Y-66923300D01*
X107075923Y-66923300D01*
X106579684Y-66923300D01*
X106512645Y-66903615D01*
X106474145Y-66864396D01*
X106447968Y-66821956D01*
X106328044Y-66702032D01*
X106328040Y-66702029D01*
X106183705Y-66613001D01*
X106183699Y-66612998D01*
X106183697Y-66612997D01*
X106148235Y-66601246D01*
X106022709Y-66559651D01*
X105923346Y-66549500D01*
X104976662Y-66549500D01*
X104976644Y-66549501D01*
X104877292Y-66559650D01*
X104877289Y-66559651D01*
X104716305Y-66612996D01*
X104716294Y-66613001D01*
X104571959Y-66702029D01*
X104571955Y-66702032D01*
X104452032Y-66821955D01*
X104452029Y-66821959D01*
X104363001Y-66966294D01*
X104362996Y-66966305D01*
X104309651Y-67127290D01*
X104299500Y-67226648D01*
X104299500Y-67226655D01*
X104299500Y-67400019D01*
X104299501Y-67504000D01*
X104279817Y-67571039D01*
X104227013Y-67616794D01*
X104175501Y-67628000D01*
X101499997Y-67628000D01*
X101428059Y-67633144D01*
X101290005Y-67673682D01*
X101168969Y-67751467D01*
X101168965Y-67751471D01*
X101074750Y-67860200D01*
X101074743Y-67860210D01*
X101016768Y-67987157D01*
X100971013Y-68039961D01*
X100903973Y-68059645D01*
X100891372Y-68059003D01*
X100798347Y-68049500D01*
X100201662Y-68049500D01*
X100201644Y-68049501D01*
X100102292Y-68059650D01*
X100102289Y-68059651D01*
X99941305Y-68112996D01*
X99941294Y-68113001D01*
X99796959Y-68202029D01*
X99796955Y-68202032D01*
X99677031Y-68321956D01*
X99650855Y-68364396D01*
X99598907Y-68411121D01*
X99545316Y-68423300D01*
X98279964Y-68423300D01*
X98212925Y-68403615D01*
X98192283Y-68386982D01*
X98145309Y-68340008D01*
X98094653Y-68289352D01*
X98094650Y-68289350D01*
X98094648Y-68289348D01*
X97954272Y-68204488D01*
X97954263Y-68204485D01*
X97797664Y-68155687D01*
X97797662Y-68155686D01*
X97797657Y-68155685D01*
X97729594Y-68149500D01*
X95270406Y-68149500D01*
X95202343Y-68155685D01*
X95202339Y-68155686D01*
X95202335Y-68155687D01*
X95045736Y-68204485D01*
X95045727Y-68204488D01*
X94905351Y-68289348D01*
X94905347Y-68289351D01*
X94789351Y-68405347D01*
X94789348Y-68405351D01*
X94704488Y-68545727D01*
X94704485Y-68545736D01*
X94655687Y-68702335D01*
X94655685Y-68702343D01*
X94649500Y-68770406D01*
X90000000Y-68770406D01*
X90000000Y-66699983D01*
X91349500Y-66699983D01*
X91349500Y-67400001D01*
X91349501Y-67400019D01*
X91360000Y-67502796D01*
X91360001Y-67502799D01*
X91371840Y-67538525D01*
X91415186Y-67669334D01*
X91507288Y-67818656D01*
X91631344Y-67942712D01*
X91780666Y-68034814D01*
X91947203Y-68089999D01*
X92049991Y-68100500D01*
X93550008Y-68100499D01*
X93652797Y-68089999D01*
X93819334Y-68034814D01*
X93968656Y-67942712D01*
X94092712Y-67818656D01*
X94184814Y-67669334D01*
X94239999Y-67502797D01*
X94250500Y-67400009D01*
X94250499Y-66699992D01*
X94239999Y-66597203D01*
X94184814Y-66430666D01*
X94092712Y-66281344D01*
X93968656Y-66157288D01*
X93819334Y-66065186D01*
X93652797Y-66010001D01*
X93652795Y-66010000D01*
X93550010Y-65999500D01*
X92049998Y-65999500D01*
X92049981Y-65999501D01*
X91947203Y-66010000D01*
X91947200Y-66010001D01*
X91780668Y-66065185D01*
X91780663Y-66065187D01*
X91631342Y-66157289D01*
X91507289Y-66281342D01*
X91415187Y-66430663D01*
X91415186Y-66430666D01*
X91360001Y-66597203D01*
X91360001Y-66597204D01*
X91360000Y-66597204D01*
X91349500Y-66699983D01*
X90000000Y-66699983D01*
X90000000Y-63826647D01*
X110549500Y-63826647D01*
X110549500Y-65173337D01*
X110549501Y-65173355D01*
X110559650Y-65272707D01*
X110559651Y-65272710D01*
X110612996Y-65433694D01*
X110613001Y-65433705D01*
X110702029Y-65578040D01*
X110702032Y-65578044D01*
X110821955Y-65697967D01*
X110821959Y-65697970D01*
X110966294Y-65786998D01*
X110966297Y-65786999D01*
X110966303Y-65787003D01*
X111127292Y-65840349D01*
X111226655Y-65850500D01*
X111773344Y-65850499D01*
X111773352Y-65850498D01*
X111773355Y-65850498D01*
X111827760Y-65844940D01*
X111872708Y-65840349D01*
X112033697Y-65787003D01*
X112178044Y-65697968D01*
X112297968Y-65578044D01*
X112387003Y-65433697D01*
X112440349Y-65272708D01*
X112450500Y-65173345D01*
X112450499Y-63826656D01*
X112450498Y-63826647D01*
X114449500Y-63826647D01*
X114449500Y-65173337D01*
X114449501Y-65173355D01*
X114459650Y-65272707D01*
X114459651Y-65272710D01*
X114512996Y-65433694D01*
X114513001Y-65433705D01*
X114602029Y-65578040D01*
X114602032Y-65578044D01*
X114721955Y-65697967D01*
X114721959Y-65697970D01*
X114866294Y-65786998D01*
X114866297Y-65786999D01*
X114866303Y-65787003D01*
X115027292Y-65840349D01*
X115126655Y-65850500D01*
X115673344Y-65850499D01*
X115673352Y-65850498D01*
X115673355Y-65850498D01*
X115727760Y-65844940D01*
X115772708Y-65840349D01*
X115933697Y-65787003D01*
X116078044Y-65697968D01*
X116197968Y-65578044D01*
X116287003Y-65433697D01*
X116340349Y-65272708D01*
X116350500Y-65173345D01*
X116350499Y-63826656D01*
X116340349Y-63727292D01*
X116287003Y-63566303D01*
X116286999Y-63566297D01*
X116286998Y-63566294D01*
X116197970Y-63421959D01*
X116197967Y-63421955D01*
X116078044Y-63302032D01*
X116078040Y-63302029D01*
X115933705Y-63213001D01*
X115933699Y-63212998D01*
X115933697Y-63212997D01*
X115933694Y-63212996D01*
X115772709Y-63159651D01*
X115673346Y-63149500D01*
X115126662Y-63149500D01*
X115126644Y-63149501D01*
X115027292Y-63159650D01*
X115027289Y-63159651D01*
X114866305Y-63212996D01*
X114866294Y-63213001D01*
X114721959Y-63302029D01*
X114721955Y-63302032D01*
X114602032Y-63421955D01*
X114602029Y-63421959D01*
X114513001Y-63566294D01*
X114512996Y-63566305D01*
X114459651Y-63727290D01*
X114449500Y-63826647D01*
X112450498Y-63826647D01*
X112440349Y-63727292D01*
X112387003Y-63566303D01*
X112386999Y-63566297D01*
X112386998Y-63566294D01*
X112297970Y-63421959D01*
X112297967Y-63421955D01*
X112178044Y-63302032D01*
X112178040Y-63302029D01*
X112033705Y-63213001D01*
X112033699Y-63212998D01*
X112033697Y-63212997D01*
X112033694Y-63212996D01*
X111872709Y-63159651D01*
X111773346Y-63149500D01*
X111226662Y-63149500D01*
X111226644Y-63149501D01*
X111127292Y-63159650D01*
X111127289Y-63159651D01*
X110966305Y-63212996D01*
X110966294Y-63213001D01*
X110821959Y-63302029D01*
X110821955Y-63302032D01*
X110702032Y-63421955D01*
X110702029Y-63421959D01*
X110613001Y-63566294D01*
X110612996Y-63566305D01*
X110559651Y-63727290D01*
X110549500Y-63826647D01*
X90000000Y-63826647D01*
X90000000Y-62124000D01*
X90019685Y-62056961D01*
X90072489Y-62011206D01*
X90124000Y-62000000D01*
X119878505Y-62000000D01*
X119945544Y-62019685D01*
G37*
%TD.AperFunction*%
%TD*%
M02*
