M48
; DRILL file KiCad 10.0.1 date 2026-05-11T18:27:12
; FORMAT={-:-/ absolute / inch / decimal}
; #@! TF.CreationDate,2026-05-11T18:27:12+02:00
; #@! TF.GenerationSoftware,Kicad,Pcbnew,10.0.1
; #@! TF.FileFunction,Plated,1,2,PTH
FMAT,2
INCH
; #@! TA.AperFunction,Plated,PTH,ViaDrill
T1C0.0118
; #@! TA.AperFunction,Plated,PTH,ViaDrill
T2C0.0157
; #@! TA.AperFunction,Plated,PTH,ComponentDrill
T3C0.0276
%
G90
G05
T1
X4.1929Y-2.0669
X4.2283Y-1.4134
X4.2717Y-1.437
X4.2913Y-1.7126
X4.2913Y-1.752
X4.2913Y-1.7913
X4.3307Y-1.752
X4.3701Y-1.7717
X4.3701Y-2.2638
X4.4094Y-1.7323
X4.4094Y-2.2638
X4.4488Y-1.7323
X4.4488Y-1.811
X4.4488Y-2.2638
X4.4685Y-2.0472
X4.4882Y-1.752
X4.4882Y-1.811
X4.4882Y-2.2638
X4.5276Y-2.2638
X4.5669Y-2.2638
X4.5718Y-1.9439
X4.6063Y-2.2638
X4.626Y-2.0472
X4.6457Y-1.3976
X4.6457Y-2.2638
X4.6644Y-1.9498
X4.6654Y-1.811
X4.685Y-2.2638
X4.7244Y-2.2638
X4.7441Y-2.0472
T2
X4.2106Y-1.3799
X4.252Y-1.3583
X4.2913Y-1.3583
X4.3307Y-1.3386
X4.3307Y-1.5157
X4.3307Y-1.5748
X4.3386Y-1.6457
X4.3701Y-1.3583
X4.3839Y-1.687
X4.3898Y-1.3583
X4.3898Y-1.4567
X4.4291Y-1.3583
X4.4488Y-1.4567
X4.4488Y-1.6929
X4.4685Y-1.3583
X4.5079Y-1.3583
X4.5079Y-1.4567
X4.5079Y-1.6929
X4.5472Y-1.3583
X4.5669Y-1.3583
X4.5669Y-1.5157
X4.5669Y-1.5748
X4.5669Y-1.6339
X4.5866Y-1.3583
X4.6161Y-1.3484
X4.6457Y-1.3386
X4.685Y-1.3976
X4.685Y-1.437
T3
X4.2126Y-2.0079
X4.2717Y-2.0079
M30
