%TF.GenerationSoftware,KiCad,Pcbnew,10.0.1*%
%TF.CreationDate,2026-05-11T18:27:12+02:00*%
%TF.ProjectId,esp32,65737033-322e-46b6-9963-61645f706362,rev?*%
%TF.SameCoordinates,Original*%
%TF.FileFunction,Soldermask,Top*%
%TF.FilePolarity,Negative*%
%FSLAX46Y46*%
G04 Gerber Fmt 4.6, Leading zero omitted, Abs format (unit mm)*
G04 Created by KiCad (PCBNEW 10.0.1) date 2026-05-11 18:27:12*
%MOMM*%
%LPD*%
G01*
G04 APERTURE LIST*
G04 Aperture macros list*
%AMRoundRect*
0 Rectangle with rounded corners*
0 $1 Rounding radius*
0 $2 $3 $4 $5 $6 $7 $8 $9 X,Y pos of 4 corners*
0 Add a 4 corners polygon primitive as box body*
4,1,4,$2,$3,$4,$5,$6,$7,$8,$9,$2,$3,0*
0 Add four circle primitives for the rounded corners*
1,1,$1+$1,$2,$3*
1,1,$1+$1,$4,$5*
1,1,$1+$1,$6,$7*
1,1,$1+$1,$8,$9*
0 Add four rect primitives between the rounded corners*
20,1,$1+$1,$2,$3,$4,$5,0*
20,1,$1+$1,$4,$5,$6,$7,0*
20,1,$1+$1,$6,$7,$8,$9,0*
20,1,$1+$1,$8,$9,$2,$3,0*%
G04 Aperture macros list end*
%ADD10C,0.010000*%
%ADD11R,0.600000X1.550000*%
%ADD12R,1.200000X1.800000*%
%ADD13C,1.100000*%
%ADD14RoundRect,0.100000X-0.100000X0.130000X-0.100000X-0.130000X0.100000X-0.130000X0.100000X0.130000X0*%
%ADD15RoundRect,0.102000X-0.400000X-0.200000X0.400000X-0.200000X0.400000X0.200000X-0.400000X0.200000X0*%
%ADD16RoundRect,0.102000X-0.200000X-0.400000X0.200000X-0.400000X0.200000X0.400000X-0.200000X0.400000X0*%
%ADD17RoundRect,0.102000X-0.600000X-0.600000X0.600000X-0.600000X0.600000X0.600000X-0.600000X0.600000X0*%
%ADD18RoundRect,0.102000X-0.400000X-0.400000X0.400000X-0.400000X0.400000X0.400000X-0.400000X0.400000X0*%
%ADD19RoundRect,0.100000X0.100000X-0.130000X0.100000X0.130000X-0.100000X0.130000X-0.100000X-0.130000X0*%
%ADD20RoundRect,0.100000X0.100000X-0.125000X0.100000X0.125000X-0.100000X0.125000X-0.100000X-0.125000X0*%
%ADD21RoundRect,0.150000X0.150000X0.625000X-0.150000X0.625000X-0.150000X-0.625000X0.150000X-0.625000X0*%
%ADD22RoundRect,0.250000X0.350000X0.650000X-0.350000X0.650000X-0.350000X-0.650000X0.350000X-0.650000X0*%
%ADD23RoundRect,0.100000X-0.100000X0.125000X-0.100000X-0.125000X0.100000X-0.125000X0.100000X0.125000X0*%
%ADD24RoundRect,0.100000X-0.130000X-0.100000X0.130000X-0.100000X0.130000X0.100000X-0.130000X0.100000X0*%
G04 APERTURE END LIST*
D10*
%TO.C,U2*%
X112050000Y-39200000D02*
X110650000Y-39200000D01*
X110650000Y-38450000D01*
X111300000Y-37800000D01*
X112050000Y-37800000D01*
X112050000Y-39200000D01*
G36*
X112050000Y-39200000D02*
G01*
X110650000Y-39200000D01*
X110650000Y-38450000D01*
X111300000Y-37800000D01*
X112050000Y-37800000D01*
X112050000Y-39200000D01*
G37*
%TD*%
D11*
%TO.C,J3*%
X111000000Y-59000000D03*
X112000000Y-59000000D03*
X113000000Y-59000000D03*
X114000000Y-59000000D03*
X115000000Y-59000000D03*
X116000000Y-59000000D03*
X117000000Y-59000000D03*
X118000000Y-59000000D03*
X119000000Y-59000000D03*
X120000000Y-59000000D03*
D12*
X109700000Y-62875000D03*
X121300000Y-62875000D03*
%TD*%
D13*
%TO.C,J2*%
X107000000Y-51000000D03*
X108500000Y-51000000D03*
%TD*%
D14*
%TO.C,R2*%
X116500000Y-50525000D03*
X116500000Y-51165000D03*
%TD*%
D15*
%TO.C,U2*%
X106000000Y-34200000D03*
X106000000Y-35050000D03*
X106000000Y-35900000D03*
X106000000Y-36750000D03*
X106000000Y-37600000D03*
X106000000Y-38450000D03*
X106000000Y-39300000D03*
X106000000Y-40150000D03*
X106000000Y-41000000D03*
X106000000Y-41850000D03*
X106000000Y-42700000D03*
X106000000Y-43550000D03*
X106000000Y-44400000D03*
X106000000Y-45250000D03*
X106000000Y-46100000D03*
D16*
X107050000Y-47150000D03*
X107900000Y-47150000D03*
X108750000Y-47150000D03*
X109600000Y-47150000D03*
X110450000Y-47150000D03*
X111300000Y-47150000D03*
X112150000Y-47150000D03*
X113000000Y-47150000D03*
X113850000Y-47150000D03*
X114700000Y-47150000D03*
X115550000Y-47150000D03*
X116400000Y-47150000D03*
X117250000Y-47150000D03*
X118100000Y-47150000D03*
X118950000Y-47150000D03*
D15*
X120000000Y-46100000D03*
X120000000Y-45250000D03*
X120000000Y-44400000D03*
X120000000Y-43550000D03*
X120000000Y-42700000D03*
X120000000Y-41850000D03*
X120000000Y-41000000D03*
X120000000Y-40150000D03*
X120000000Y-39300000D03*
X120000000Y-38450000D03*
X120000000Y-37600000D03*
X120000000Y-36750000D03*
X120000000Y-35900000D03*
X120000000Y-35050000D03*
X120000000Y-34200000D03*
D16*
X118950000Y-33150000D03*
X118100000Y-33150000D03*
X117250000Y-33150000D03*
X116400000Y-33150000D03*
X115550000Y-33150000D03*
X114700000Y-33150000D03*
X113850000Y-33150000D03*
X113000000Y-33150000D03*
X112150000Y-33150000D03*
X111300000Y-33150000D03*
X110450000Y-33150000D03*
X109600000Y-33150000D03*
X108750000Y-33150000D03*
X107900000Y-33150000D03*
X107050000Y-33150000D03*
D17*
X113000000Y-40150000D03*
X113000000Y-38500000D03*
X114650000Y-38500000D03*
X114650000Y-40150000D03*
X114650000Y-41800000D03*
X113000000Y-41800000D03*
X111350000Y-41800000D03*
X111350000Y-40150000D03*
D18*
X106000000Y-33150000D03*
X106000000Y-47150000D03*
X120000000Y-47150000D03*
X120000000Y-33150000D03*
%TD*%
D19*
%TO.C,C18*%
X117500000Y-50165000D03*
X117500000Y-49525000D03*
%TD*%
D20*
%TO.C,D4*%
X113600000Y-51150000D03*
X114400000Y-51150000D03*
X114000000Y-50000000D03*
%TD*%
D21*
%TO.C,J1*%
X116000000Y-53000000D03*
X115000000Y-53000000D03*
D22*
X117300000Y-55525000D03*
X113700000Y-55525000D03*
%TD*%
D23*
%TO.C,D2*%
X119800000Y-52000000D03*
X119000000Y-52000000D03*
X119400000Y-53150000D03*
%TD*%
D24*
%TO.C,C4*%
X119000000Y-51000000D03*
X119640000Y-51000000D03*
%TD*%
M02*
