%TF.GenerationSoftware,KiCad,Pcbnew,10.0.1*%
%TF.CreationDate,2026-05-11T18:17:24+02:00*%
%TF.ProjectId,esp32v2,65737033-3276-4322-9e6b-696361645f70,rev?*%
%TF.SameCoordinates,Original*%
%TF.FileFunction,Copper,L2,Inr*%
%TF.FilePolarity,Positive*%
%FSLAX46Y46*%
G04 Gerber Fmt 4.6, Leading zero omitted, Abs format (unit mm)*
G04 Created by KiCad (PCBNEW 10.0.1) date 2026-05-11 18:17:24*
%MOMM*%
%LPD*%
G01*
G04 APERTURE LIST*
%TA.AperFunction,ComponentPad*%
%ADD10C,1.100000*%
%TD*%
%TA.AperFunction,ViaPad*%
%ADD11C,0.604799*%
%TD*%
G04 APERTURE END LIST*
D10*
%TO.N,VDD_CPU*%
%TO.C,J2*%
X105000000Y-52500000D03*
%TO.N,GND*%
X106500000Y-52500000D03*
%TD*%
D11*
%TO.N,VDD_CPU*%
X115500000Y-43000000D03*
X105000000Y-45500000D03*
X104000000Y-49500000D03*
X113000000Y-39000000D03*
X108500000Y-38500000D03*
X106000000Y-42000000D03*
%TO.N,GND*%
X112273726Y-38773726D03*
X113500000Y-50000000D03*
X109500000Y-37500000D03*
X107529774Y-50500000D03*
X115000000Y-38500000D03*
X108500000Y-39500000D03*
X113000000Y-47500000D03*
X118000000Y-43500000D03*
X111000000Y-38000000D03*
%TO.N,EN*%
X109000000Y-41000000D03*
X107500000Y-36500000D03*
%TO.N,IO0*%
X106000000Y-44000000D03*
X105000000Y-39000000D03*
%TD*%
%TA.AperFunction,Conductor*%
%TO.N,VDD_CPU*%
G36*
X121443039Y-33519685D02*
G01*
X121488794Y-33572489D01*
X121500000Y-33624000D01*
X121500000Y-57876000D01*
X121480315Y-57943039D01*
X121427511Y-57988794D01*
X121376000Y-58000000D01*
X102624000Y-58000000D01*
X102556961Y-57980315D01*
X102511206Y-57927511D01*
X102500000Y-57876000D01*
X102500000Y-53398620D01*
X104454931Y-53398620D01*
X104454932Y-53398621D01*
X104502633Y-53430495D01*
X104502639Y-53430498D01*
X104693725Y-53509649D01*
X104693733Y-53509651D01*
X104896579Y-53549999D01*
X104896583Y-53550000D01*
X105103417Y-53550000D01*
X105103420Y-53549999D01*
X105306266Y-53509651D01*
X105306274Y-53509649D01*
X105497366Y-53430495D01*
X105545066Y-53398621D01*
X105545067Y-53398620D01*
X105000001Y-52853554D01*
X105000000Y-52853554D01*
X104454931Y-53398620D01*
X102500000Y-53398620D01*
X102500000Y-52396579D01*
X103950000Y-52396579D01*
X103950000Y-52603420D01*
X103990348Y-52806266D01*
X103990350Y-52806274D01*
X104069500Y-52997359D01*
X104101377Y-53045067D01*
X104101378Y-53045067D01*
X104646446Y-52500000D01*
X104600368Y-52453922D01*
X104650000Y-52453922D01*
X104650000Y-52546078D01*
X104673852Y-52635095D01*
X104719930Y-52714905D01*
X104785095Y-52780070D01*
X104864905Y-52826148D01*
X104953922Y-52850000D01*
X105046078Y-52850000D01*
X105135095Y-52826148D01*
X105214905Y-52780070D01*
X105280070Y-52714905D01*
X105326148Y-52635095D01*
X105350000Y-52546078D01*
X105350000Y-52500000D01*
X105353554Y-52500000D01*
X105421034Y-52567480D01*
X105454519Y-52628803D01*
X105454970Y-52630970D01*
X105489868Y-52806412D01*
X105489870Y-52806420D01*
X105569058Y-52997596D01*
X105684024Y-53169657D01*
X105830342Y-53315975D01*
X105830345Y-53315977D01*
X106002402Y-53430941D01*
X106193580Y-53510130D01*
X106394016Y-53549999D01*
X106396530Y-53550499D01*
X106396534Y-53550500D01*
X106396535Y-53550500D01*
X106603466Y-53550500D01*
X106603467Y-53550499D01*
X106806420Y-53510130D01*
X106997598Y-53430941D01*
X107169655Y-53315977D01*
X107315977Y-53169655D01*
X107430941Y-52997598D01*
X107510130Y-52806420D01*
X107550500Y-52603465D01*
X107550500Y-52396535D01*
X107510130Y-52193580D01*
X107430941Y-52002402D01*
X107315977Y-51830345D01*
X107315975Y-51830342D01*
X107169657Y-51684024D01*
X107045967Y-51601378D01*
X106997598Y-51569059D01*
X106806420Y-51489870D01*
X106806412Y-51489868D01*
X106603469Y-51449500D01*
X106603465Y-51449500D01*
X106396535Y-51449500D01*
X106396530Y-51449500D01*
X106193587Y-51489868D01*
X106193579Y-51489870D01*
X106002403Y-51569058D01*
X105830342Y-51684024D01*
X105684024Y-51830342D01*
X105569058Y-52002403D01*
X105489870Y-52193579D01*
X105489868Y-52193585D01*
X105454970Y-52369030D01*
X105446204Y-52385786D01*
X105442185Y-52404264D01*
X105423439Y-52429307D01*
X105422585Y-52430940D01*
X105421035Y-52432519D01*
X105353554Y-52500000D01*
X105350000Y-52500000D01*
X105350000Y-52453922D01*
X105326148Y-52364905D01*
X105280070Y-52285095D01*
X105214905Y-52219930D01*
X105135095Y-52173852D01*
X105046078Y-52150000D01*
X104953922Y-52150000D01*
X104864905Y-52173852D01*
X104785095Y-52219930D01*
X104719930Y-52285095D01*
X104673852Y-52364905D01*
X104650000Y-52453922D01*
X104600368Y-52453922D01*
X104101378Y-51954932D01*
X104101377Y-51954932D01*
X104069505Y-52002631D01*
X104069500Y-52002641D01*
X103990350Y-52193725D01*
X103990348Y-52193733D01*
X103950000Y-52396579D01*
X102500000Y-52396579D01*
X102500000Y-51601377D01*
X104454932Y-51601377D01*
X104454932Y-51601378D01*
X105000000Y-52146446D01*
X105000001Y-52146446D01*
X105545067Y-51601378D01*
X105545067Y-51601377D01*
X105497359Y-51569500D01*
X105306274Y-51490350D01*
X105306266Y-51490348D01*
X105103420Y-51450000D01*
X104896579Y-51450000D01*
X104693733Y-51490348D01*
X104693725Y-51490350D01*
X104502641Y-51569500D01*
X104502631Y-51569505D01*
X104454932Y-51601377D01*
X102500000Y-51601377D01*
X102500000Y-50420916D01*
X106726875Y-50420916D01*
X106726875Y-50579083D01*
X106757728Y-50734189D01*
X106757731Y-50734201D01*
X106818251Y-50880310D01*
X106818252Y-50880312D01*
X106906121Y-51011818D01*
X107017955Y-51123652D01*
X107105427Y-51182098D01*
X107149459Y-51211520D01*
X107149460Y-51211520D01*
X107149461Y-51211521D01*
X107149463Y-51211522D01*
X107295572Y-51272042D01*
X107295577Y-51272044D01*
X107450690Y-51302898D01*
X107450693Y-51302899D01*
X107450695Y-51302899D01*
X107608855Y-51302899D01*
X107608856Y-51302898D01*
X107763971Y-51272044D01*
X107910089Y-51211520D01*
X108041592Y-51123652D01*
X108153426Y-51011818D01*
X108241294Y-50880315D01*
X108301818Y-50734197D01*
X108332673Y-50579079D01*
X108332673Y-50420921D01*
X108332673Y-50420918D01*
X108332672Y-50420916D01*
X108301819Y-50265810D01*
X108301818Y-50265803D01*
X108288728Y-50234201D01*
X108241296Y-50119689D01*
X108241295Y-50119687D01*
X108153426Y-49988182D01*
X108153423Y-49988178D01*
X108086161Y-49920916D01*
X112697101Y-49920916D01*
X112697101Y-50079083D01*
X112727954Y-50234189D01*
X112727957Y-50234201D01*
X112788477Y-50380310D01*
X112788478Y-50380312D01*
X112876347Y-50511818D01*
X112988181Y-50623652D01*
X113075653Y-50682098D01*
X113119685Y-50711520D01*
X113119686Y-50711520D01*
X113119687Y-50711521D01*
X113119689Y-50711522D01*
X113265798Y-50772042D01*
X113265803Y-50772044D01*
X113420916Y-50802898D01*
X113420919Y-50802899D01*
X113420921Y-50802899D01*
X113579081Y-50802899D01*
X113579082Y-50802898D01*
X113734197Y-50772044D01*
X113880315Y-50711520D01*
X114011818Y-50623652D01*
X114123652Y-50511818D01*
X114211520Y-50380315D01*
X114272044Y-50234197D01*
X114302899Y-50079079D01*
X114302899Y-49920921D01*
X114302899Y-49920918D01*
X114302898Y-49920916D01*
X114294033Y-49876347D01*
X114272044Y-49765803D01*
X114256367Y-49727956D01*
X114211522Y-49619689D01*
X114211521Y-49619687D01*
X114123652Y-49488181D01*
X114011818Y-49376347D01*
X113880312Y-49288478D01*
X113880310Y-49288477D01*
X113734201Y-49227957D01*
X113734189Y-49227954D01*
X113579082Y-49197101D01*
X113579079Y-49197101D01*
X113420921Y-49197101D01*
X113420918Y-49197101D01*
X113265810Y-49227954D01*
X113265798Y-49227957D01*
X113119689Y-49288477D01*
X113119687Y-49288478D01*
X112988181Y-49376347D01*
X112876347Y-49488181D01*
X112788478Y-49619687D01*
X112788477Y-49619689D01*
X112727957Y-49765798D01*
X112727954Y-49765810D01*
X112697101Y-49920916D01*
X108086161Y-49920916D01*
X108041592Y-49876347D01*
X107910086Y-49788478D01*
X107910084Y-49788477D01*
X107763975Y-49727957D01*
X107763963Y-49727954D01*
X107608856Y-49697101D01*
X107608853Y-49697101D01*
X107450695Y-49697101D01*
X107450692Y-49697101D01*
X107295584Y-49727954D01*
X107295572Y-49727957D01*
X107149463Y-49788477D01*
X107149461Y-49788478D01*
X107017955Y-49876347D01*
X106906121Y-49988181D01*
X106818252Y-50119687D01*
X106818251Y-50119689D01*
X106757731Y-50265798D01*
X106757728Y-50265810D01*
X106726875Y-50420916D01*
X102500000Y-50420916D01*
X102500000Y-47420916D01*
X112197101Y-47420916D01*
X112197101Y-47579083D01*
X112227954Y-47734189D01*
X112227957Y-47734201D01*
X112288477Y-47880310D01*
X112288478Y-47880312D01*
X112376347Y-48011818D01*
X112488181Y-48123652D01*
X112575653Y-48182098D01*
X112619685Y-48211520D01*
X112619686Y-48211520D01*
X112619687Y-48211521D01*
X112619689Y-48211522D01*
X112765798Y-48272042D01*
X112765803Y-48272044D01*
X112920916Y-48302898D01*
X112920919Y-48302899D01*
X112920921Y-48302899D01*
X113079081Y-48302899D01*
X113079082Y-48302898D01*
X113234197Y-48272044D01*
X113380315Y-48211520D01*
X113511818Y-48123652D01*
X113623652Y-48011818D01*
X113711520Y-47880315D01*
X113772044Y-47734197D01*
X113802899Y-47579079D01*
X113802899Y-47420921D01*
X113802899Y-47420918D01*
X113802898Y-47420916D01*
X113772045Y-47265810D01*
X113772044Y-47265803D01*
X113711520Y-47119685D01*
X113682098Y-47075653D01*
X113623652Y-46988181D01*
X113511818Y-46876347D01*
X113380312Y-46788478D01*
X113380310Y-46788477D01*
X113234201Y-46727957D01*
X113234189Y-46727954D01*
X113079082Y-46697101D01*
X113079079Y-46697101D01*
X112920921Y-46697101D01*
X112920918Y-46697101D01*
X112765810Y-46727954D01*
X112765798Y-46727957D01*
X112619689Y-46788477D01*
X112619687Y-46788478D01*
X112488181Y-46876347D01*
X112376347Y-46988181D01*
X112288478Y-47119687D01*
X112288477Y-47119689D01*
X112227957Y-47265798D01*
X112227954Y-47265810D01*
X112197101Y-47420916D01*
X102500000Y-47420916D01*
X102500000Y-43920916D01*
X105197101Y-43920916D01*
X105197101Y-44079083D01*
X105227954Y-44234189D01*
X105227957Y-44234201D01*
X105288477Y-44380310D01*
X105288478Y-44380312D01*
X105376347Y-44511818D01*
X105488181Y-44623652D01*
X105575653Y-44682098D01*
X105619685Y-44711520D01*
X105619686Y-44711520D01*
X105619687Y-44711521D01*
X105619689Y-44711522D01*
X105765798Y-44772042D01*
X105765803Y-44772044D01*
X105920916Y-44802898D01*
X105920919Y-44802899D01*
X105920921Y-44802899D01*
X106079081Y-44802899D01*
X106079082Y-44802898D01*
X106234197Y-44772044D01*
X106380315Y-44711520D01*
X106511818Y-44623652D01*
X106623652Y-44511818D01*
X106711520Y-44380315D01*
X106772044Y-44234197D01*
X106802899Y-44079079D01*
X106802899Y-43920921D01*
X106802899Y-43920918D01*
X106802898Y-43920916D01*
X106772045Y-43765810D01*
X106772044Y-43765803D01*
X106758954Y-43734201D01*
X106711522Y-43619689D01*
X106711521Y-43619687D01*
X106623652Y-43488182D01*
X106623649Y-43488178D01*
X106556387Y-43420916D01*
X117197101Y-43420916D01*
X117197101Y-43579083D01*
X117227954Y-43734189D01*
X117227957Y-43734201D01*
X117288477Y-43880310D01*
X117288478Y-43880312D01*
X117376347Y-44011818D01*
X117488181Y-44123652D01*
X117575653Y-44182098D01*
X117619685Y-44211520D01*
X117619686Y-44211520D01*
X117619687Y-44211521D01*
X117619689Y-44211522D01*
X117765798Y-44272042D01*
X117765803Y-44272044D01*
X117920916Y-44302898D01*
X117920919Y-44302899D01*
X117920921Y-44302899D01*
X118079081Y-44302899D01*
X118079082Y-44302898D01*
X118234197Y-44272044D01*
X118380315Y-44211520D01*
X118511818Y-44123652D01*
X118623652Y-44011818D01*
X118711520Y-43880315D01*
X118772044Y-43734197D01*
X118802899Y-43579079D01*
X118802899Y-43420921D01*
X118802899Y-43420918D01*
X118802898Y-43420916D01*
X118794033Y-43376347D01*
X118772044Y-43265803D01*
X118756367Y-43227956D01*
X118711522Y-43119689D01*
X118711521Y-43119687D01*
X118623652Y-42988181D01*
X118511818Y-42876347D01*
X118380312Y-42788478D01*
X118380310Y-42788477D01*
X118234201Y-42727957D01*
X118234189Y-42727954D01*
X118079082Y-42697101D01*
X118079079Y-42697101D01*
X117920921Y-42697101D01*
X117920918Y-42697101D01*
X117765810Y-42727954D01*
X117765798Y-42727957D01*
X117619689Y-42788477D01*
X117619687Y-42788478D01*
X117488181Y-42876347D01*
X117376347Y-42988181D01*
X117288478Y-43119687D01*
X117288477Y-43119689D01*
X117227957Y-43265798D01*
X117227954Y-43265810D01*
X117197101Y-43420916D01*
X106556387Y-43420916D01*
X106511818Y-43376347D01*
X106380312Y-43288478D01*
X106380310Y-43288477D01*
X106234201Y-43227957D01*
X106234189Y-43227954D01*
X106079082Y-43197101D01*
X106079079Y-43197101D01*
X105920921Y-43197101D01*
X105920918Y-43197101D01*
X105765810Y-43227954D01*
X105765798Y-43227957D01*
X105619689Y-43288477D01*
X105619687Y-43288478D01*
X105488181Y-43376347D01*
X105376347Y-43488181D01*
X105288478Y-43619687D01*
X105288477Y-43619689D01*
X105227957Y-43765798D01*
X105227954Y-43765810D01*
X105197101Y-43920916D01*
X102500000Y-43920916D01*
X102500000Y-38920916D01*
X104197101Y-38920916D01*
X104197101Y-39079083D01*
X104227954Y-39234189D01*
X104227957Y-39234201D01*
X104288477Y-39380310D01*
X104288478Y-39380312D01*
X104376347Y-39511818D01*
X104488181Y-39623652D01*
X104575653Y-39682098D01*
X104619685Y-39711520D01*
X104619686Y-39711520D01*
X104619687Y-39711521D01*
X104619689Y-39711522D01*
X104765798Y-39772042D01*
X104765803Y-39772044D01*
X104920916Y-39802898D01*
X104920919Y-39802899D01*
X104920921Y-39802899D01*
X105079081Y-39802899D01*
X105079082Y-39802898D01*
X105234197Y-39772044D01*
X105380315Y-39711520D01*
X105511818Y-39623652D01*
X105623652Y-39511818D01*
X105684391Y-39420916D01*
X107697101Y-39420916D01*
X107697101Y-39579083D01*
X107727954Y-39734189D01*
X107727957Y-39734201D01*
X107788477Y-39880310D01*
X107788478Y-39880312D01*
X107876347Y-40011818D01*
X107988181Y-40123652D01*
X108075653Y-40182098D01*
X108119685Y-40211520D01*
X108119686Y-40211520D01*
X108119687Y-40211521D01*
X108119689Y-40211522D01*
X108159367Y-40227957D01*
X108265803Y-40272044D01*
X108265807Y-40272044D01*
X108265808Y-40272045D01*
X108310755Y-40280986D01*
X108372666Y-40313371D01*
X108407240Y-40374087D01*
X108403500Y-40443856D01*
X108379112Y-40482568D01*
X108380213Y-40483472D01*
X108376347Y-40488181D01*
X108288478Y-40619687D01*
X108288477Y-40619689D01*
X108227957Y-40765798D01*
X108227954Y-40765810D01*
X108197101Y-40920916D01*
X108197101Y-41079083D01*
X108227954Y-41234189D01*
X108227957Y-41234201D01*
X108288477Y-41380310D01*
X108288478Y-41380312D01*
X108376347Y-41511818D01*
X108488181Y-41623652D01*
X108575653Y-41682098D01*
X108619685Y-41711520D01*
X108619686Y-41711520D01*
X108619687Y-41711521D01*
X108619689Y-41711522D01*
X108765798Y-41772042D01*
X108765803Y-41772044D01*
X108920916Y-41802898D01*
X108920919Y-41802899D01*
X108920921Y-41802899D01*
X109079081Y-41802899D01*
X109079082Y-41802898D01*
X109234197Y-41772044D01*
X109380315Y-41711520D01*
X109511818Y-41623652D01*
X109623652Y-41511818D01*
X109711520Y-41380315D01*
X109772044Y-41234197D01*
X109802899Y-41079079D01*
X109802899Y-40920921D01*
X109802899Y-40920918D01*
X109802898Y-40920916D01*
X109772045Y-40765810D01*
X109772044Y-40765803D01*
X109711520Y-40619685D01*
X109682098Y-40575653D01*
X109623652Y-40488181D01*
X109511818Y-40376347D01*
X109380312Y-40288478D01*
X109380310Y-40288477D01*
X109234201Y-40227957D01*
X109234192Y-40227954D01*
X109189243Y-40219013D01*
X109127332Y-40186627D01*
X109092759Y-40125910D01*
X109096500Y-40056141D01*
X109120895Y-40017437D01*
X109119787Y-40016528D01*
X109123652Y-40011818D01*
X109211520Y-39880315D01*
X109272044Y-39734197D01*
X109302899Y-39579079D01*
X109302899Y-39420921D01*
X109302899Y-39420918D01*
X109302898Y-39420916D01*
X109294821Y-39380310D01*
X109272044Y-39265803D01*
X109258954Y-39234201D01*
X109211522Y-39119689D01*
X109211521Y-39119687D01*
X109123652Y-38988181D01*
X109011818Y-38876347D01*
X108880312Y-38788478D01*
X108880310Y-38788477D01*
X108734201Y-38727957D01*
X108734189Y-38727954D01*
X108579082Y-38697101D01*
X108579079Y-38697101D01*
X108420921Y-38697101D01*
X108420918Y-38697101D01*
X108265810Y-38727954D01*
X108265798Y-38727957D01*
X108119689Y-38788477D01*
X108119687Y-38788478D01*
X107988181Y-38876347D01*
X107876347Y-38988181D01*
X107788478Y-39119687D01*
X107788477Y-39119689D01*
X107727957Y-39265798D01*
X107727954Y-39265810D01*
X107697101Y-39420916D01*
X105684391Y-39420916D01*
X105711520Y-39380315D01*
X105711523Y-39380308D01*
X105716881Y-39367375D01*
X105772042Y-39234201D01*
X105772044Y-39234197D01*
X105802899Y-39079079D01*
X105802899Y-38920921D01*
X105802899Y-38920918D01*
X105802898Y-38920916D01*
X105789351Y-38852810D01*
X105772044Y-38765803D01*
X105758954Y-38734201D01*
X105711522Y-38619689D01*
X105711521Y-38619687D01*
X105623652Y-38488181D01*
X105511818Y-38376347D01*
X105380312Y-38288478D01*
X105380310Y-38288477D01*
X105234201Y-38227957D01*
X105234189Y-38227954D01*
X105079082Y-38197101D01*
X105079079Y-38197101D01*
X104920921Y-38197101D01*
X104920918Y-38197101D01*
X104765810Y-38227954D01*
X104765798Y-38227957D01*
X104619689Y-38288477D01*
X104619687Y-38288478D01*
X104488181Y-38376347D01*
X104376347Y-38488181D01*
X104288478Y-38619687D01*
X104288477Y-38619689D01*
X104227957Y-38765798D01*
X104227954Y-38765810D01*
X104197101Y-38920916D01*
X102500000Y-38920916D01*
X102500000Y-37420916D01*
X108697101Y-37420916D01*
X108697101Y-37579083D01*
X108727954Y-37734189D01*
X108727957Y-37734201D01*
X108788477Y-37880310D01*
X108788478Y-37880312D01*
X108876347Y-38011818D01*
X108988181Y-38123652D01*
X109027725Y-38150074D01*
X109119685Y-38211520D01*
X109119686Y-38211520D01*
X109119687Y-38211521D01*
X109119689Y-38211522D01*
X109250724Y-38265798D01*
X109265803Y-38272044D01*
X109420916Y-38302898D01*
X109420919Y-38302899D01*
X109420921Y-38302899D01*
X109579081Y-38302899D01*
X109579082Y-38302898D01*
X109734197Y-38272044D01*
X109880315Y-38211520D01*
X110011818Y-38123652D01*
X110016528Y-38119787D01*
X110017805Y-38121343D01*
X110071010Y-38092276D01*
X110140703Y-38097244D01*
X110196646Y-38139103D01*
X110219013Y-38189243D01*
X110227954Y-38234192D01*
X110227957Y-38234201D01*
X110288477Y-38380310D01*
X110288478Y-38380312D01*
X110376347Y-38511818D01*
X110488181Y-38623652D01*
X110575653Y-38682098D01*
X110619685Y-38711520D01*
X110619686Y-38711520D01*
X110619687Y-38711521D01*
X110619689Y-38711522D01*
X110700556Y-38745018D01*
X110765803Y-38772044D01*
X110920916Y-38802898D01*
X110920919Y-38802899D01*
X110920921Y-38802899D01*
X111079081Y-38802899D01*
X111079082Y-38802898D01*
X111234197Y-38772044D01*
X111299444Y-38745017D01*
X111368909Y-38737549D01*
X111431389Y-38768823D01*
X111467042Y-38828912D01*
X111470297Y-38847425D01*
X111470827Y-38852810D01*
X111501680Y-39007915D01*
X111501683Y-39007927D01*
X111562203Y-39154036D01*
X111562204Y-39154038D01*
X111650073Y-39285544D01*
X111761907Y-39397378D01*
X111797142Y-39420921D01*
X111893411Y-39485246D01*
X111893412Y-39485246D01*
X111893413Y-39485247D01*
X111893415Y-39485248D01*
X112039524Y-39545768D01*
X112039529Y-39545770D01*
X112194642Y-39576624D01*
X112194645Y-39576625D01*
X112194647Y-39576625D01*
X112352807Y-39576625D01*
X112352808Y-39576624D01*
X112507923Y-39545770D01*
X112654041Y-39485246D01*
X112785544Y-39397378D01*
X112897378Y-39285544D01*
X112985246Y-39154041D01*
X113045770Y-39007923D01*
X113076625Y-38852805D01*
X113076625Y-38694647D01*
X113076625Y-38694644D01*
X113076624Y-38694642D01*
X113045771Y-38539536D01*
X113045770Y-38539529D01*
X112996639Y-38420916D01*
X114197101Y-38420916D01*
X114197101Y-38579083D01*
X114227954Y-38734189D01*
X114227957Y-38734201D01*
X114288477Y-38880310D01*
X114288478Y-38880312D01*
X114376347Y-39011818D01*
X114488181Y-39123652D01*
X114533662Y-39154041D01*
X114619685Y-39211520D01*
X114619686Y-39211520D01*
X114619687Y-39211521D01*
X114619689Y-39211522D01*
X114750724Y-39265798D01*
X114765803Y-39272044D01*
X114920916Y-39302898D01*
X114920919Y-39302899D01*
X114920921Y-39302899D01*
X115079081Y-39302899D01*
X115079082Y-39302898D01*
X115234197Y-39272044D01*
X115380315Y-39211520D01*
X115511818Y-39123652D01*
X115623652Y-39011818D01*
X115711520Y-38880315D01*
X115772044Y-38734197D01*
X115802899Y-38579079D01*
X115802899Y-38420921D01*
X115802899Y-38420918D01*
X115802898Y-38420916D01*
X115779423Y-38302899D01*
X115772044Y-38265803D01*
X115758954Y-38234201D01*
X115711522Y-38119689D01*
X115711521Y-38119687D01*
X115623652Y-37988181D01*
X115511818Y-37876347D01*
X115380312Y-37788478D01*
X115380310Y-37788477D01*
X115234201Y-37727957D01*
X115234189Y-37727954D01*
X115079082Y-37697101D01*
X115079079Y-37697101D01*
X114920921Y-37697101D01*
X114920918Y-37697101D01*
X114765810Y-37727954D01*
X114765798Y-37727957D01*
X114619689Y-37788477D01*
X114619687Y-37788478D01*
X114488181Y-37876347D01*
X114376347Y-37988181D01*
X114288478Y-38119687D01*
X114288477Y-38119689D01*
X114227957Y-38265798D01*
X114227954Y-38265810D01*
X114197101Y-38420916D01*
X112996639Y-38420916D01*
X112985246Y-38393411D01*
X112955824Y-38349379D01*
X112897378Y-38261907D01*
X112785544Y-38150073D01*
X112654038Y-38062204D01*
X112654036Y-38062203D01*
X112507927Y-38001683D01*
X112507915Y-38001680D01*
X112352808Y-37970827D01*
X112352805Y-37970827D01*
X112194647Y-37970827D01*
X112194644Y-37970827D01*
X112039536Y-38001680D01*
X112039524Y-38001683D01*
X111974283Y-38028707D01*
X111904814Y-38036176D01*
X111842335Y-38004900D01*
X111806683Y-37944811D01*
X111803427Y-37926290D01*
X111802899Y-37920930D01*
X111802899Y-37920921D01*
X111772044Y-37765803D01*
X111758954Y-37734201D01*
X111711522Y-37619689D01*
X111711521Y-37619687D01*
X111702489Y-37606170D01*
X111682098Y-37575653D01*
X111623652Y-37488181D01*
X111511818Y-37376347D01*
X111380312Y-37288478D01*
X111380310Y-37288477D01*
X111234201Y-37227957D01*
X111234189Y-37227954D01*
X111079082Y-37197101D01*
X111079079Y-37197101D01*
X110920921Y-37197101D01*
X110920918Y-37197101D01*
X110765810Y-37227954D01*
X110765798Y-37227957D01*
X110619689Y-37288477D01*
X110619687Y-37288478D01*
X110488181Y-37376347D01*
X110483472Y-37380213D01*
X110482201Y-37378664D01*
X110428934Y-37407735D01*
X110359243Y-37402735D01*
X110303319Y-37360851D01*
X110280986Y-37310755D01*
X110272045Y-37265808D01*
X110272044Y-37265807D01*
X110272044Y-37265803D01*
X110256367Y-37227956D01*
X110211522Y-37119689D01*
X110211521Y-37119687D01*
X110123652Y-36988181D01*
X110011818Y-36876347D01*
X109880312Y-36788478D01*
X109880310Y-36788477D01*
X109734201Y-36727957D01*
X109734189Y-36727954D01*
X109579082Y-36697101D01*
X109579079Y-36697101D01*
X109420921Y-36697101D01*
X109420918Y-36697101D01*
X109265810Y-36727954D01*
X109265798Y-36727957D01*
X109119689Y-36788477D01*
X109119687Y-36788478D01*
X108988181Y-36876347D01*
X108876347Y-36988181D01*
X108788478Y-37119687D01*
X108788477Y-37119689D01*
X108727957Y-37265798D01*
X108727954Y-37265810D01*
X108697101Y-37420916D01*
X102500000Y-37420916D01*
X102500000Y-36420916D01*
X106697101Y-36420916D01*
X106697101Y-36579083D01*
X106727954Y-36734189D01*
X106727957Y-36734201D01*
X106788477Y-36880310D01*
X106788478Y-36880312D01*
X106876347Y-37011818D01*
X106988181Y-37123652D01*
X107075653Y-37182098D01*
X107119685Y-37211520D01*
X107119686Y-37211520D01*
X107119687Y-37211521D01*
X107119689Y-37211522D01*
X107159367Y-37227957D01*
X107265803Y-37272044D01*
X107420916Y-37302898D01*
X107420919Y-37302899D01*
X107420921Y-37302899D01*
X107579081Y-37302899D01*
X107579082Y-37302898D01*
X107590543Y-37300618D01*
X107627782Y-37293212D01*
X107684066Y-37282015D01*
X107734197Y-37272044D01*
X107880315Y-37211520D01*
X108011818Y-37123652D01*
X108123652Y-37011818D01*
X108211520Y-36880315D01*
X108272044Y-36734197D01*
X108302899Y-36579079D01*
X108302899Y-36420921D01*
X108302899Y-36420918D01*
X108302898Y-36420916D01*
X108272045Y-36265810D01*
X108272044Y-36265803D01*
X108211520Y-36119685D01*
X108182098Y-36075653D01*
X108123652Y-35988181D01*
X108011818Y-35876347D01*
X107880312Y-35788478D01*
X107880310Y-35788477D01*
X107734201Y-35727957D01*
X107734189Y-35727954D01*
X107579082Y-35697101D01*
X107579079Y-35697101D01*
X107420921Y-35697101D01*
X107420918Y-35697101D01*
X107265810Y-35727954D01*
X107265798Y-35727957D01*
X107119689Y-35788477D01*
X107119687Y-35788478D01*
X106988181Y-35876347D01*
X106876347Y-35988181D01*
X106788478Y-36119687D01*
X106788477Y-36119689D01*
X106727957Y-36265798D01*
X106727954Y-36265810D01*
X106697101Y-36420916D01*
X102500000Y-36420916D01*
X102500000Y-33624000D01*
X102519685Y-33556961D01*
X102572489Y-33511206D01*
X102624000Y-33500000D01*
X121376000Y-33500000D01*
X121443039Y-33519685D01*
G37*
%TD.AperFunction*%
%TD*%
M02*
