M48
; DRILL file KiCad 10.0.1 date 2026-05-18T21:08:31
; FORMAT={-:-/ absolute / inch / decimal}
; #@! TF.CreationDate,2026-05-18T21:08:31+02:00
; #@! TF.GenerationSoftware,Kicad,Pcbnew,10.0.1
; #@! TF.FileFunction,Plated,1,4,PTH
FMAT,2
INCH
; #@! TA.AperFunction,Plated,PTH,ViaDrill
T1C0.0118
; #@! TA.AperFunction,Plated,PTH,ComponentDrill
T2C0.0276
%
G90
G05
T1
X4.0945Y-1.7717
X4.1142Y-2.3819
X4.1929Y-2.3622
X4.213Y-1.7721
X4.2521Y-1.7692
X4.3635Y-2.1311
X4.3702Y-1.7068
X4.4192Y-2.0476
X4.4398Y-1.6372
X4.4398Y-1.7486
X4.5166Y-1.6996
X4.5444Y-1.6718
X4.5472Y-1.5551
X4.614Y-1.9919
X4.6419Y-1.7845
X4.6558Y-1.811
X4.6697Y-2.0754
X4.7244Y-1.7126
X4.7441Y-1.8307
T2
X4.1339Y-2.3189
X4.1929Y-2.3189
M30
