%TF.GenerationSoftware,KiCad,Pcbnew,10.0.1*%
%TF.CreationDate,2026-05-11T18:17:24+02:00*%
%TF.ProjectId,esp32v2,65737033-3276-4322-9e6b-696361645f70,rev?*%
%TF.SameCoordinates,Original*%
%TF.FileFunction,Paste,Top*%
%TF.FilePolarity,Positive*%
%FSLAX46Y46*%
G04 Gerber Fmt 4.6, Leading zero omitted, Abs format (unit mm)*
G04 Created by KiCad (PCBNEW 10.0.1) date 2026-05-11 18:17:24*
%MOMM*%
%LPD*%
G01*
G04 APERTURE LIST*
G04 Aperture macros list*
%AMRoundRect*
0 Rectangle with rounded corners*
0 $1 Rounding radius*
0 $2 $3 $4 $5 $6 $7 $8 $9 X,Y pos of 4 corners*
0 Add a 4 corners polygon primitive as box body*
4,1,4,$2,$3,$4,$5,$6,$7,$8,$9,$2,$3,0*
0 Add four circle primitives for the rounded corners*
1,1,$1+$1,$2,$3*
1,1,$1+$1,$4,$5*
1,1,$1+$1,$6,$7*
1,1,$1+$1,$8,$9*
0 Add four rect primitives between the rounded corners*
20,1,$1+$1,$2,$3,$4,$5,0*
20,1,$1+$1,$4,$5,$6,$7,0*
20,1,$1+$1,$6,$7,$8,$9,0*
20,1,$1+$1,$8,$9,$2,$3,0*%
G04 Aperture macros list end*
%ADD10RoundRect,0.079500X0.127279X0.014849X0.014849X0.127279X-0.127279X-0.014849X-0.014849X-0.127279X0*%
%ADD11R,0.600000X1.550000*%
%ADD12R,1.200000X1.800000*%
%ADD13RoundRect,0.079500X-0.127279X-0.014849X-0.014849X-0.127279X0.127279X0.014849X0.014849X0.127279X0*%
%ADD14RoundRect,0.079500X-0.014849X0.127279X-0.127279X0.014849X0.014849X-0.127279X0.127279X-0.014849X0*%
%ADD15RoundRect,0.079500X0.014849X-0.127279X0.127279X-0.014849X-0.014849X0.127279X-0.127279X0.014849X0*%
%ADD16RoundRect,0.150000X0.625000X-0.150000X0.625000X0.150000X-0.625000X0.150000X-0.625000X-0.150000X0*%
%ADD17RoundRect,0.250000X0.650000X-0.350000X0.650000X0.350000X-0.650000X0.350000X-0.650000X-0.350000X0*%
%ADD18RoundRect,0.250000X-0.403051X0.000000X0.000000X-0.403051X0.403051X0.000000X0.000000X0.403051X0*%
%ADD19RoundRect,0.050000X-0.282843X0.212132X0.212132X-0.282843X0.282843X-0.212132X-0.212132X0.282843X0*%
%ADD20RoundRect,0.050000X-0.282843X-0.212132X-0.212132X-0.282843X0.282843X0.212132X0.212132X0.282843X0*%
%ADD21RoundRect,0.250000X-0.406586X0.053033X0.053033X-0.406586X0.406586X-0.053033X-0.053033X0.406586X0*%
G04 APERTURE END LIST*
D10*
%TO.C,C40*%
X112743952Y-40243952D03*
X112256048Y-39756048D03*
%TD*%
D11*
%TO.C,J3*%
X111000000Y-53500000D03*
X112000000Y-53500000D03*
X113000000Y-53500000D03*
X114000000Y-53500000D03*
X115000000Y-53500000D03*
X116000000Y-53500000D03*
X117000000Y-53500000D03*
X118000000Y-53500000D03*
X119000000Y-53500000D03*
X120000000Y-53500000D03*
D12*
X109700000Y-57375000D03*
X121300000Y-57375000D03*
%TD*%
D13*
%TO.C,L3*%
X109500000Y-39500000D03*
X109987904Y-39987904D03*
%TD*%
D14*
%TO.C,C26*%
X106017678Y-46982322D03*
X105529774Y-47470226D03*
%TD*%
D10*
%TO.C,C31*%
X109470226Y-38470226D03*
X108982322Y-37982322D03*
%TD*%
D14*
%TO.C,C10*%
X106535356Y-47464644D03*
X106047452Y-47952548D03*
%TD*%
D13*
%TO.C,R2*%
X107000000Y-42000000D03*
X107487904Y-42487904D03*
%TD*%
D14*
%TO.C,C11*%
X107017678Y-47982322D03*
X106529774Y-48470226D03*
%TD*%
D15*
%TO.C,C1*%
X113975103Y-39450911D03*
X114463007Y-38963007D03*
%TD*%
D16*
%TO.C,J1*%
X106500000Y-38800000D03*
X106500000Y-37800000D03*
D17*
X103975000Y-40100000D03*
X103975000Y-36500000D03*
%TD*%
D15*
%TO.C,C13*%
X112500000Y-51000000D03*
X112987904Y-50512096D03*
%TD*%
%TO.C,C32*%
X113000000Y-51500000D03*
X113487904Y-51012096D03*
%TD*%
D18*
%TO.C,U1*%
X111440452Y-43559548D03*
X110500000Y-44500000D03*
X109559548Y-45440452D03*
X112380904Y-44500000D03*
X111440452Y-45440452D03*
X110500000Y-46380904D03*
X113321356Y-45440452D03*
X112380904Y-46380904D03*
X111440452Y-47321356D03*
D19*
X110839411Y-41162456D03*
X110556569Y-41445299D03*
X110273726Y-41728141D03*
X109990883Y-42010984D03*
X109708040Y-42293827D03*
X109425198Y-42576670D03*
X109142355Y-42859512D03*
X108859512Y-43142355D03*
X108576670Y-43425198D03*
X108293827Y-43708040D03*
X108010984Y-43990883D03*
X107728141Y-44273726D03*
X107445299Y-44556569D03*
X107162456Y-44839411D03*
D20*
X107162456Y-46041493D03*
X107445299Y-46324335D03*
X107728141Y-46607178D03*
X108010984Y-46890021D03*
X108293827Y-47172864D03*
X108576670Y-47455706D03*
X108859512Y-47738549D03*
X109142355Y-48021392D03*
X109425198Y-48304234D03*
X109708040Y-48587077D03*
X109990883Y-48869920D03*
X110273726Y-49152763D03*
X110556569Y-49435605D03*
X110839411Y-49718448D03*
D19*
X112041493Y-49718448D03*
X112324335Y-49435605D03*
X112607178Y-49152763D03*
X112890021Y-48869920D03*
X113172864Y-48587077D03*
X113455706Y-48304234D03*
X113738549Y-48021392D03*
X114021392Y-47738549D03*
X114304234Y-47455706D03*
X114587077Y-47172864D03*
X114869920Y-46890021D03*
X115152763Y-46607178D03*
X115435605Y-46324335D03*
X115718448Y-46041493D03*
D20*
X115718448Y-44839411D03*
X115435605Y-44556569D03*
X115152763Y-44273726D03*
X114869920Y-43990883D03*
X114587077Y-43708040D03*
X114304234Y-43425198D03*
X114021392Y-43142355D03*
X113738549Y-42859512D03*
X113455706Y-42576670D03*
X113172864Y-42293827D03*
X112890021Y-42010984D03*
X112607178Y-41728141D03*
X112324335Y-41445299D03*
X112041493Y-41162456D03*
%TD*%
D14*
%TO.C,C2*%
X105517678Y-46482322D03*
X105029774Y-46970226D03*
%TD*%
D10*
%TO.C,R22*%
X107987904Y-41987904D03*
X107500000Y-41500000D03*
%TD*%
%TO.C,C16*%
X108500000Y-40500000D03*
X108012096Y-40012096D03*
%TD*%
%TO.C,DNP1*%
X110970226Y-38970226D03*
X110482322Y-38482322D03*
%TD*%
D14*
%TO.C,C25*%
X108000000Y-49000000D03*
X107512096Y-49487904D03*
%TD*%
D15*
%TO.C,C33*%
X117256048Y-42743952D03*
X117743952Y-42256048D03*
%TD*%
D10*
%TO.C,L6*%
X110470226Y-39470226D03*
X109982322Y-38982322D03*
%TD*%
D21*
%TO.C,Y2*%
X115010051Y-40489949D03*
X116247488Y-41727386D03*
X117237437Y-40737437D03*
X116000000Y-39500000D03*
%TD*%
D13*
%TO.C,R21*%
X106500000Y-42500000D03*
X106987904Y-42987904D03*
%TD*%
D10*
%TO.C,C19*%
X109487904Y-40487904D03*
X109000000Y-40000000D03*
%TD*%
D14*
%TO.C,C39*%
X107517678Y-48482322D03*
X107029774Y-48970226D03*
%TD*%
D10*
%TO.C,C15*%
X108487904Y-41487904D03*
X108000000Y-41000000D03*
%TD*%
M02*
