%TF.GenerationSoftware,KiCad,Pcbnew,10.0.1*%
%TF.CreationDate,2026-05-18T21:08:31+02:00*%
%TF.ProjectId,esp32v2,65737033-3276-4322-9e6b-696361645f70,rev?*%
%TF.SameCoordinates,Original*%
%TF.FileFunction,Legend,Top*%
%TF.FilePolarity,Positive*%
%FSLAX46Y46*%
G04 Gerber Fmt 4.6, Leading zero omitted, Abs format (unit mm)*
G04 Created by KiCad (PCBNEW 10.0.1) date 2026-05-18 21:08:31*
%MOMM*%
%LPD*%
G01*
G04 APERTURE LIST*
G04 Aperture macros list*
%AMRoundRect*
0 Rectangle with rounded corners*
0 $1 Rounding radius*
0 $2 $3 $4 $5 $6 $7 $8 $9 X,Y pos of 4 corners*
0 Add a 4 corners polygon primitive as box body*
4,1,4,$2,$3,$4,$5,$6,$7,$8,$9,$2,$3,0*
0 Add four circle primitives for the rounded corners*
1,1,$1+$1,$2,$3*
1,1,$1+$1,$4,$5*
1,1,$1+$1,$6,$7*
1,1,$1+$1,$8,$9*
0 Add four rect primitives between the rounded corners*
20,1,$1+$1,$2,$3,$4,$5,0*
20,1,$1+$1,$4,$5,$6,$7,0*
20,1,$1+$1,$6,$7,$8,$9,0*
20,1,$1+$1,$8,$9,$2,$3,0*%
G04 Aperture macros list end*
%ADD10C,0.150000*%
%ADD11C,0.254000*%
%ADD12C,0.127000*%
%ADD13C,0.120000*%
%ADD14C,0.200000*%
%ADD15C,0.000000*%
%ADD16RoundRect,0.100000X0.100000X-0.130000X0.100000X0.130000X-0.100000X0.130000X-0.100000X-0.130000X0*%
%ADD17RoundRect,0.100000X-0.100000X0.130000X-0.100000X-0.130000X0.100000X-0.130000X0.100000X0.130000X0*%
%ADD18RoundRect,0.100000X0.130000X0.100000X-0.130000X0.100000X-0.130000X-0.100000X0.130000X-0.100000X0*%
%ADD19RoundRect,0.287778X-0.489222X-0.714222X0.489222X-0.714222X0.489222X0.714222X-0.489222X0.714222X0*%
%ADD20RoundRect,0.100000X-0.130000X-0.100000X0.130000X-0.100000X0.130000X0.100000X-0.130000X0.100000X0*%
%ADD21RoundRect,0.150000X-0.150000X-0.475000X0.150000X-0.475000X0.150000X0.475000X-0.150000X0.475000X0*%
%ADD22RoundRect,0.225000X-0.225000X-0.625000X0.225000X-0.625000X0.225000X0.625000X-0.225000X0.625000X0*%
%ADD23RoundRect,0.287778X0.489222X0.714222X-0.489222X0.714222X-0.489222X-0.714222X0.489222X-0.714222X0*%
%ADD24C,1.100000*%
%ADD25RoundRect,0.150000X0.625000X-0.150000X0.625000X0.150000X-0.625000X0.150000X-0.625000X-0.150000X0*%
%ADD26RoundRect,0.250000X0.650000X-0.350000X0.650000X0.350000X-0.650000X0.350000X-0.650000X-0.350000X0*%
%ADD27RoundRect,0.050000X-0.050000X0.350000X-0.050000X-0.350000X0.050000X-0.350000X0.050000X0.350000X0*%
%ADD28RoundRect,0.050000X-0.350000X0.050000X-0.350000X-0.050000X0.350000X-0.050000X0.350000X0.050000X0*%
%ADD29R,4.000000X4.000000*%
%ADD30RoundRect,0.250000X-0.250000X0.325000X-0.250000X-0.325000X0.250000X-0.325000X0.250000X0.325000X0*%
%ADD31RoundRect,0.100000X0.400000X0.400000X-0.400000X0.400000X-0.400000X-0.400000X0.400000X-0.400000X0*%
%ADD32RoundRect,0.105000X0.420000X0.995000X-0.420000X0.995000X-0.420000X-0.995000X0.420000X-0.995000X0*%
G04 APERTURE END LIST*
D10*
X116505774Y-46995090D02*
X116553394Y-47042709D01*
X116553394Y-47042709D02*
X116601013Y-47185566D01*
X116601013Y-47185566D02*
X116601013Y-47280804D01*
X116601013Y-47280804D02*
X116553394Y-47423661D01*
X116553394Y-47423661D02*
X116458155Y-47518899D01*
X116458155Y-47518899D02*
X116362917Y-47566518D01*
X116362917Y-47566518D02*
X116172441Y-47614137D01*
X116172441Y-47614137D02*
X116029584Y-47614137D01*
X116029584Y-47614137D02*
X115839108Y-47566518D01*
X115839108Y-47566518D02*
X115743870Y-47518899D01*
X115743870Y-47518899D02*
X115648632Y-47423661D01*
X115648632Y-47423661D02*
X115601013Y-47280804D01*
X115601013Y-47280804D02*
X115601013Y-47185566D01*
X115601013Y-47185566D02*
X115648632Y-47042709D01*
X115648632Y-47042709D02*
X115696251Y-46995090D01*
X115934346Y-46137947D02*
X116601013Y-46137947D01*
X115553394Y-46376042D02*
X116267679Y-46614137D01*
X116267679Y-46614137D02*
X116267679Y-45995090D01*
X115601013Y-45423661D02*
X115601013Y-45328423D01*
X115601013Y-45328423D02*
X115648632Y-45233185D01*
X115648632Y-45233185D02*
X115696251Y-45185566D01*
X115696251Y-45185566D02*
X115791489Y-45137947D01*
X115791489Y-45137947D02*
X115981965Y-45090328D01*
X115981965Y-45090328D02*
X116220060Y-45090328D01*
X116220060Y-45090328D02*
X116410536Y-45137947D01*
X116410536Y-45137947D02*
X116505774Y-45185566D01*
X116505774Y-45185566D02*
X116553394Y-45233185D01*
X116553394Y-45233185D02*
X116601013Y-45328423D01*
X116601013Y-45328423D02*
X116601013Y-45423661D01*
X116601013Y-45423661D02*
X116553394Y-45518899D01*
X116553394Y-45518899D02*
X116505774Y-45566518D01*
X116505774Y-45566518D02*
X116410536Y-45614137D01*
X116410536Y-45614137D02*
X116220060Y-45661756D01*
X116220060Y-45661756D02*
X115981965Y-45661756D01*
X115981965Y-45661756D02*
X115791489Y-45614137D01*
X115791489Y-45614137D02*
X115696251Y-45566518D01*
X115696251Y-45566518D02*
X115648632Y-45518899D01*
X115648632Y-45518899D02*
X115601013Y-45423661D01*
X116933246Y-44389028D02*
X116933246Y-44865218D01*
X116933246Y-44865218D02*
X115933246Y-44865218D01*
X115933246Y-44150932D02*
X115933246Y-43531885D01*
X115933246Y-43531885D02*
X116314198Y-43865218D01*
X116314198Y-43865218D02*
X116314198Y-43722361D01*
X116314198Y-43722361D02*
X116361817Y-43627123D01*
X116361817Y-43627123D02*
X116409436Y-43579504D01*
X116409436Y-43579504D02*
X116504674Y-43531885D01*
X116504674Y-43531885D02*
X116742769Y-43531885D01*
X116742769Y-43531885D02*
X116838007Y-43579504D01*
X116838007Y-43579504D02*
X116885627Y-43627123D01*
X116885627Y-43627123D02*
X116933246Y-43722361D01*
X116933246Y-43722361D02*
X116933246Y-44008075D01*
X116933246Y-44008075D02*
X116885627Y-44103313D01*
X116885627Y-44103313D02*
X116838007Y-44150932D01*
X116857142Y-43309580D02*
X116809523Y-43357200D01*
X116809523Y-43357200D02*
X116666666Y-43404819D01*
X116666666Y-43404819D02*
X116571428Y-43404819D01*
X116571428Y-43404819D02*
X116428571Y-43357200D01*
X116428571Y-43357200D02*
X116333333Y-43261961D01*
X116333333Y-43261961D02*
X116285714Y-43166723D01*
X116285714Y-43166723D02*
X116238095Y-42976247D01*
X116238095Y-42976247D02*
X116238095Y-42833390D01*
X116238095Y-42833390D02*
X116285714Y-42642914D01*
X116285714Y-42642914D02*
X116333333Y-42547676D01*
X116333333Y-42547676D02*
X116428571Y-42452438D01*
X116428571Y-42452438D02*
X116571428Y-42404819D01*
X116571428Y-42404819D02*
X116666666Y-42404819D01*
X116666666Y-42404819D02*
X116809523Y-42452438D01*
X116809523Y-42452438D02*
X116857142Y-42500057D01*
X117190476Y-42404819D02*
X117809523Y-42404819D01*
X117809523Y-42404819D02*
X117476190Y-42785771D01*
X117476190Y-42785771D02*
X117619047Y-42785771D01*
X117619047Y-42785771D02*
X117714285Y-42833390D01*
X117714285Y-42833390D02*
X117761904Y-42881009D01*
X117761904Y-42881009D02*
X117809523Y-42976247D01*
X117809523Y-42976247D02*
X117809523Y-43214342D01*
X117809523Y-43214342D02*
X117761904Y-43309580D01*
X117761904Y-43309580D02*
X117714285Y-43357200D01*
X117714285Y-43357200D02*
X117619047Y-43404819D01*
X117619047Y-43404819D02*
X117333333Y-43404819D01*
X117333333Y-43404819D02*
X117238095Y-43357200D01*
X117238095Y-43357200D02*
X117190476Y-43309580D01*
X118761904Y-43404819D02*
X118190476Y-43404819D01*
X118476190Y-43404819D02*
X118476190Y-42404819D01*
X118476190Y-42404819D02*
X118380952Y-42547676D01*
X118380952Y-42547676D02*
X118285714Y-42642914D01*
X118285714Y-42642914D02*
X118190476Y-42690533D01*
X106712394Y-48822475D02*
X106664775Y-48870095D01*
X106664775Y-48870095D02*
X106521918Y-48917714D01*
X106521918Y-48917714D02*
X106426680Y-48917714D01*
X106426680Y-48917714D02*
X106283823Y-48870095D01*
X106283823Y-48870095D02*
X106188585Y-48774856D01*
X106188585Y-48774856D02*
X106140966Y-48679618D01*
X106140966Y-48679618D02*
X106093347Y-48489142D01*
X106093347Y-48489142D02*
X106093347Y-48346285D01*
X106093347Y-48346285D02*
X106140966Y-48155809D01*
X106140966Y-48155809D02*
X106188585Y-48060571D01*
X106188585Y-48060571D02*
X106283823Y-47965333D01*
X106283823Y-47965333D02*
X106426680Y-47917714D01*
X106426680Y-47917714D02*
X106521918Y-47917714D01*
X106521918Y-47917714D02*
X106664775Y-47965333D01*
X106664775Y-47965333D02*
X106712394Y-48012952D01*
X107664775Y-48917714D02*
X107093347Y-48917714D01*
X107379061Y-48917714D02*
X107379061Y-47917714D01*
X107379061Y-47917714D02*
X107283823Y-48060571D01*
X107283823Y-48060571D02*
X107188585Y-48155809D01*
X107188585Y-48155809D02*
X107093347Y-48203428D01*
X108283823Y-47917714D02*
X108379061Y-47917714D01*
X108379061Y-47917714D02*
X108474299Y-47965333D01*
X108474299Y-47965333D02*
X108521918Y-48012952D01*
X108521918Y-48012952D02*
X108569537Y-48108190D01*
X108569537Y-48108190D02*
X108617156Y-48298666D01*
X108617156Y-48298666D02*
X108617156Y-48536761D01*
X108617156Y-48536761D02*
X108569537Y-48727237D01*
X108569537Y-48727237D02*
X108521918Y-48822475D01*
X108521918Y-48822475D02*
X108474299Y-48870095D01*
X108474299Y-48870095D02*
X108379061Y-48917714D01*
X108379061Y-48917714D02*
X108283823Y-48917714D01*
X108283823Y-48917714D02*
X108188585Y-48870095D01*
X108188585Y-48870095D02*
X108140966Y-48822475D01*
X108140966Y-48822475D02*
X108093347Y-48727237D01*
X108093347Y-48727237D02*
X108045728Y-48536761D01*
X108045728Y-48536761D02*
X108045728Y-48298666D01*
X108045728Y-48298666D02*
X108093347Y-48108190D01*
X108093347Y-48108190D02*
X108140966Y-48012952D01*
X108140966Y-48012952D02*
X108188585Y-47965333D01*
X108188585Y-47965333D02*
X108283823Y-47917714D01*
X112990967Y-41697440D02*
X112657634Y-41221249D01*
X112419539Y-41697440D02*
X112419539Y-40697440D01*
X112419539Y-40697440D02*
X112800491Y-40697440D01*
X112800491Y-40697440D02*
X112895729Y-40745059D01*
X112895729Y-40745059D02*
X112943348Y-40792678D01*
X112943348Y-40792678D02*
X112990967Y-40887916D01*
X112990967Y-40887916D02*
X112990967Y-41030773D01*
X112990967Y-41030773D02*
X112943348Y-41126011D01*
X112943348Y-41126011D02*
X112895729Y-41173630D01*
X112895729Y-41173630D02*
X112800491Y-41221249D01*
X112800491Y-41221249D02*
X112419539Y-41221249D01*
X113371920Y-40792678D02*
X113419539Y-40745059D01*
X113419539Y-40745059D02*
X113514777Y-40697440D01*
X113514777Y-40697440D02*
X113752872Y-40697440D01*
X113752872Y-40697440D02*
X113848110Y-40745059D01*
X113848110Y-40745059D02*
X113895729Y-40792678D01*
X113895729Y-40792678D02*
X113943348Y-40887916D01*
X113943348Y-40887916D02*
X113943348Y-40983154D01*
X113943348Y-40983154D02*
X113895729Y-41126011D01*
X113895729Y-41126011D02*
X113324301Y-41697440D01*
X113324301Y-41697440D02*
X113943348Y-41697440D01*
X106687396Y-49529582D02*
X106639777Y-49577202D01*
X106639777Y-49577202D02*
X106496920Y-49624821D01*
X106496920Y-49624821D02*
X106401682Y-49624821D01*
X106401682Y-49624821D02*
X106258825Y-49577202D01*
X106258825Y-49577202D02*
X106163587Y-49481963D01*
X106163587Y-49481963D02*
X106115968Y-49386725D01*
X106115968Y-49386725D02*
X106068349Y-49196249D01*
X106068349Y-49196249D02*
X106068349Y-49053392D01*
X106068349Y-49053392D02*
X106115968Y-48862916D01*
X106115968Y-48862916D02*
X106163587Y-48767678D01*
X106163587Y-48767678D02*
X106258825Y-48672440D01*
X106258825Y-48672440D02*
X106401682Y-48624821D01*
X106401682Y-48624821D02*
X106496920Y-48624821D01*
X106496920Y-48624821D02*
X106639777Y-48672440D01*
X106639777Y-48672440D02*
X106687396Y-48720059D01*
X107639777Y-49624821D02*
X107068349Y-49624821D01*
X107354063Y-49624821D02*
X107354063Y-48624821D01*
X107354063Y-48624821D02*
X107258825Y-48767678D01*
X107258825Y-48767678D02*
X107163587Y-48862916D01*
X107163587Y-48862916D02*
X107068349Y-48910535D01*
X108592158Y-49624821D02*
X108020730Y-49624821D01*
X108306444Y-49624821D02*
X108306444Y-48624821D01*
X108306444Y-48624821D02*
X108211206Y-48767678D01*
X108211206Y-48767678D02*
X108115968Y-48862916D01*
X108115968Y-48862916D02*
X108020730Y-48910535D01*
X118805847Y-46316605D02*
X118758228Y-46364225D01*
X118758228Y-46364225D02*
X118615371Y-46411844D01*
X118615371Y-46411844D02*
X118520133Y-46411844D01*
X118520133Y-46411844D02*
X118377276Y-46364225D01*
X118377276Y-46364225D02*
X118282038Y-46268986D01*
X118282038Y-46268986D02*
X118234419Y-46173748D01*
X118234419Y-46173748D02*
X118186800Y-45983272D01*
X118186800Y-45983272D02*
X118186800Y-45840415D01*
X118186800Y-45840415D02*
X118234419Y-45649939D01*
X118234419Y-45649939D02*
X118282038Y-45554701D01*
X118282038Y-45554701D02*
X118377276Y-45459463D01*
X118377276Y-45459463D02*
X118520133Y-45411844D01*
X118520133Y-45411844D02*
X118615371Y-45411844D01*
X118615371Y-45411844D02*
X118758228Y-45459463D01*
X118758228Y-45459463D02*
X118805847Y-45507082D01*
X119758228Y-46411844D02*
X119186800Y-46411844D01*
X119472514Y-46411844D02*
X119472514Y-45411844D01*
X119472514Y-45411844D02*
X119377276Y-45554701D01*
X119377276Y-45554701D02*
X119282038Y-45649939D01*
X119282038Y-45649939D02*
X119186800Y-45697558D01*
X114716666Y-56004819D02*
X114716666Y-56719104D01*
X114716666Y-56719104D02*
X114669047Y-56861961D01*
X114669047Y-56861961D02*
X114573809Y-56957200D01*
X114573809Y-56957200D02*
X114430952Y-57004819D01*
X114430952Y-57004819D02*
X114335714Y-57004819D01*
X115716666Y-57004819D02*
X115145238Y-57004819D01*
X115430952Y-57004819D02*
X115430952Y-56004819D01*
X115430952Y-56004819D02*
X115335714Y-56147676D01*
X115335714Y-56147676D02*
X115240476Y-56242914D01*
X115240476Y-56242914D02*
X115145238Y-56290533D01*
X109120163Y-53439991D02*
X109072544Y-53487611D01*
X109072544Y-53487611D02*
X108929687Y-53535230D01*
X108929687Y-53535230D02*
X108834449Y-53535230D01*
X108834449Y-53535230D02*
X108691592Y-53487611D01*
X108691592Y-53487611D02*
X108596354Y-53392372D01*
X108596354Y-53392372D02*
X108548735Y-53297134D01*
X108548735Y-53297134D02*
X108501116Y-53106658D01*
X108501116Y-53106658D02*
X108501116Y-52963801D01*
X108501116Y-52963801D02*
X108548735Y-52773325D01*
X108548735Y-52773325D02*
X108596354Y-52678087D01*
X108596354Y-52678087D02*
X108691592Y-52582849D01*
X108691592Y-52582849D02*
X108834449Y-52535230D01*
X108834449Y-52535230D02*
X108929687Y-52535230D01*
X108929687Y-52535230D02*
X109072544Y-52582849D01*
X109072544Y-52582849D02*
X109120163Y-52630468D01*
X110072544Y-53535230D02*
X109501116Y-53535230D01*
X109786830Y-53535230D02*
X109786830Y-52535230D01*
X109786830Y-52535230D02*
X109691592Y-52678087D01*
X109691592Y-52678087D02*
X109596354Y-52773325D01*
X109596354Y-52773325D02*
X109501116Y-52820944D01*
X110405878Y-52535230D02*
X111024925Y-52535230D01*
X111024925Y-52535230D02*
X110691592Y-52916182D01*
X110691592Y-52916182D02*
X110834449Y-52916182D01*
X110834449Y-52916182D02*
X110929687Y-52963801D01*
X110929687Y-52963801D02*
X110977306Y-53011420D01*
X110977306Y-53011420D02*
X111024925Y-53106658D01*
X111024925Y-53106658D02*
X111024925Y-53344753D01*
X111024925Y-53344753D02*
X110977306Y-53439991D01*
X110977306Y-53439991D02*
X110929687Y-53487611D01*
X110929687Y-53487611D02*
X110834449Y-53535230D01*
X110834449Y-53535230D02*
X110548735Y-53535230D01*
X110548735Y-53535230D02*
X110453497Y-53487611D01*
X110453497Y-53487611D02*
X110405878Y-53439991D01*
D11*
X105326667Y-59804318D02*
X105326667Y-60711461D01*
X105326667Y-60711461D02*
X105266190Y-60892889D01*
X105266190Y-60892889D02*
X105145238Y-61013842D01*
X105145238Y-61013842D02*
X104963809Y-61074318D01*
X104963809Y-61074318D02*
X104842857Y-61074318D01*
X105870952Y-59925270D02*
X105931428Y-59864794D01*
X105931428Y-59864794D02*
X106052381Y-59804318D01*
X106052381Y-59804318D02*
X106354762Y-59804318D01*
X106354762Y-59804318D02*
X106475714Y-59864794D01*
X106475714Y-59864794D02*
X106536190Y-59925270D01*
X106536190Y-59925270D02*
X106596667Y-60046222D01*
X106596667Y-60046222D02*
X106596667Y-60167175D01*
X106596667Y-60167175D02*
X106536190Y-60348603D01*
X106536190Y-60348603D02*
X105810476Y-61074318D01*
X105810476Y-61074318D02*
X106596667Y-61074318D01*
D10*
X109120162Y-54147097D02*
X109072543Y-54194717D01*
X109072543Y-54194717D02*
X108929686Y-54242336D01*
X108929686Y-54242336D02*
X108834448Y-54242336D01*
X108834448Y-54242336D02*
X108691591Y-54194717D01*
X108691591Y-54194717D02*
X108596353Y-54099478D01*
X108596353Y-54099478D02*
X108548734Y-54004240D01*
X108548734Y-54004240D02*
X108501115Y-53813764D01*
X108501115Y-53813764D02*
X108501115Y-53670907D01*
X108501115Y-53670907D02*
X108548734Y-53480431D01*
X108548734Y-53480431D02*
X108596353Y-53385193D01*
X108596353Y-53385193D02*
X108691591Y-53289955D01*
X108691591Y-53289955D02*
X108834448Y-53242336D01*
X108834448Y-53242336D02*
X108929686Y-53242336D01*
X108929686Y-53242336D02*
X109072543Y-53289955D01*
X109072543Y-53289955D02*
X109120162Y-53337574D01*
X109453496Y-53242336D02*
X110072543Y-53242336D01*
X110072543Y-53242336D02*
X109739210Y-53623288D01*
X109739210Y-53623288D02*
X109882067Y-53623288D01*
X109882067Y-53623288D02*
X109977305Y-53670907D01*
X109977305Y-53670907D02*
X110024924Y-53718526D01*
X110024924Y-53718526D02*
X110072543Y-53813764D01*
X110072543Y-53813764D02*
X110072543Y-54051859D01*
X110072543Y-54051859D02*
X110024924Y-54147097D01*
X110024924Y-54147097D02*
X109977305Y-54194717D01*
X109977305Y-54194717D02*
X109882067Y-54242336D01*
X109882067Y-54242336D02*
X109596353Y-54242336D01*
X109596353Y-54242336D02*
X109501115Y-54194717D01*
X109501115Y-54194717D02*
X109453496Y-54147097D01*
X110453496Y-53337574D02*
X110501115Y-53289955D01*
X110501115Y-53289955D02*
X110596353Y-53242336D01*
X110596353Y-53242336D02*
X110834448Y-53242336D01*
X110834448Y-53242336D02*
X110929686Y-53289955D01*
X110929686Y-53289955D02*
X110977305Y-53337574D01*
X110977305Y-53337574D02*
X111024924Y-53432812D01*
X111024924Y-53432812D02*
X111024924Y-53528050D01*
X111024924Y-53528050D02*
X110977305Y-53670907D01*
X110977305Y-53670907D02*
X110405877Y-54242336D01*
X110405877Y-54242336D02*
X111024924Y-54242336D01*
X101354820Y-53633333D02*
X102069105Y-53633333D01*
X102069105Y-53633333D02*
X102211962Y-53680952D01*
X102211962Y-53680952D02*
X102307201Y-53776190D01*
X102307201Y-53776190D02*
X102354820Y-53919047D01*
X102354820Y-53919047D02*
X102354820Y-54014285D01*
X101354820Y-52680952D02*
X101354820Y-53157142D01*
X101354820Y-53157142D02*
X101831010Y-53204761D01*
X101831010Y-53204761D02*
X101783391Y-53157142D01*
X101783391Y-53157142D02*
X101735772Y-53061904D01*
X101735772Y-53061904D02*
X101735772Y-52823809D01*
X101735772Y-52823809D02*
X101783391Y-52728571D01*
X101783391Y-52728571D02*
X101831010Y-52680952D01*
X101831010Y-52680952D02*
X101926248Y-52633333D01*
X101926248Y-52633333D02*
X102164343Y-52633333D01*
X102164343Y-52633333D02*
X102259581Y-52680952D01*
X102259581Y-52680952D02*
X102307201Y-52728571D01*
X102307201Y-52728571D02*
X102354820Y-52823809D01*
X102354820Y-52823809D02*
X102354820Y-53061904D01*
X102354820Y-53061904D02*
X102307201Y-53157142D01*
X102307201Y-53157142D02*
X102259581Y-53204761D01*
X112054819Y-50211904D02*
X112864342Y-50211904D01*
X112864342Y-50211904D02*
X112959580Y-50164285D01*
X112959580Y-50164285D02*
X113007200Y-50116666D01*
X113007200Y-50116666D02*
X113054819Y-50021428D01*
X113054819Y-50021428D02*
X113054819Y-49830952D01*
X113054819Y-49830952D02*
X113007200Y-49735714D01*
X113007200Y-49735714D02*
X112959580Y-49688095D01*
X112959580Y-49688095D02*
X112864342Y-49640476D01*
X112864342Y-49640476D02*
X112054819Y-49640476D01*
X113054819Y-48640476D02*
X113054819Y-49211904D01*
X113054819Y-48926190D02*
X112054819Y-48926190D01*
X112054819Y-48926190D02*
X112197676Y-49021428D01*
X112197676Y-49021428D02*
X112292914Y-49116666D01*
X112292914Y-49116666D02*
X112340533Y-49211904D01*
X107163588Y-47408262D02*
X107115969Y-47455882D01*
X107115969Y-47455882D02*
X106973112Y-47503501D01*
X106973112Y-47503501D02*
X106877874Y-47503501D01*
X106877874Y-47503501D02*
X106735017Y-47455882D01*
X106735017Y-47455882D02*
X106639779Y-47360643D01*
X106639779Y-47360643D02*
X106592160Y-47265405D01*
X106592160Y-47265405D02*
X106544541Y-47074929D01*
X106544541Y-47074929D02*
X106544541Y-46932072D01*
X106544541Y-46932072D02*
X106592160Y-46741596D01*
X106592160Y-46741596D02*
X106639779Y-46646358D01*
X106639779Y-46646358D02*
X106735017Y-46551120D01*
X106735017Y-46551120D02*
X106877874Y-46503501D01*
X106877874Y-46503501D02*
X106973112Y-46503501D01*
X106973112Y-46503501D02*
X107115969Y-46551120D01*
X107115969Y-46551120D02*
X107163588Y-46598739D01*
X107544541Y-46598739D02*
X107592160Y-46551120D01*
X107592160Y-46551120D02*
X107687398Y-46503501D01*
X107687398Y-46503501D02*
X107925493Y-46503501D01*
X107925493Y-46503501D02*
X108020731Y-46551120D01*
X108020731Y-46551120D02*
X108068350Y-46598739D01*
X108068350Y-46598739D02*
X108115969Y-46693977D01*
X108115969Y-46693977D02*
X108115969Y-46789215D01*
X108115969Y-46789215D02*
X108068350Y-46932072D01*
X108068350Y-46932072D02*
X107496922Y-47503501D01*
X107496922Y-47503501D02*
X108115969Y-47503501D01*
X112514775Y-44504546D02*
X112181442Y-44028355D01*
X111943347Y-44504546D02*
X111943347Y-43504546D01*
X111943347Y-43504546D02*
X112324299Y-43504546D01*
X112324299Y-43504546D02*
X112419537Y-43552165D01*
X112419537Y-43552165D02*
X112467156Y-43599784D01*
X112467156Y-43599784D02*
X112514775Y-43695022D01*
X112514775Y-43695022D02*
X112514775Y-43837879D01*
X112514775Y-43837879D02*
X112467156Y-43933117D01*
X112467156Y-43933117D02*
X112419537Y-43980736D01*
X112419537Y-43980736D02*
X112324299Y-44028355D01*
X112324299Y-44028355D02*
X111943347Y-44028355D01*
X112895728Y-43599784D02*
X112943347Y-43552165D01*
X112943347Y-43552165D02*
X113038585Y-43504546D01*
X113038585Y-43504546D02*
X113276680Y-43504546D01*
X113276680Y-43504546D02*
X113371918Y-43552165D01*
X113371918Y-43552165D02*
X113419537Y-43599784D01*
X113419537Y-43599784D02*
X113467156Y-43695022D01*
X113467156Y-43695022D02*
X113467156Y-43790260D01*
X113467156Y-43790260D02*
X113419537Y-43933117D01*
X113419537Y-43933117D02*
X112848109Y-44504546D01*
X112848109Y-44504546D02*
X113467156Y-44504546D01*
X113848109Y-43599784D02*
X113895728Y-43552165D01*
X113895728Y-43552165D02*
X113990966Y-43504546D01*
X113990966Y-43504546D02*
X114229061Y-43504546D01*
X114229061Y-43504546D02*
X114324299Y-43552165D01*
X114324299Y-43552165D02*
X114371918Y-43599784D01*
X114371918Y-43599784D02*
X114419537Y-43695022D01*
X114419537Y-43695022D02*
X114419537Y-43790260D01*
X114419537Y-43790260D02*
X114371918Y-43933117D01*
X114371918Y-43933117D02*
X113800490Y-44504546D01*
X113800490Y-44504546D02*
X114419537Y-44504546D01*
X112834774Y-45116415D02*
X112787155Y-45164035D01*
X112787155Y-45164035D02*
X112644298Y-45211654D01*
X112644298Y-45211654D02*
X112549060Y-45211654D01*
X112549060Y-45211654D02*
X112406203Y-45164035D01*
X112406203Y-45164035D02*
X112310965Y-45068796D01*
X112310965Y-45068796D02*
X112263346Y-44973558D01*
X112263346Y-44973558D02*
X112215727Y-44783082D01*
X112215727Y-44783082D02*
X112215727Y-44640225D01*
X112215727Y-44640225D02*
X112263346Y-44449749D01*
X112263346Y-44449749D02*
X112310965Y-44354511D01*
X112310965Y-44354511D02*
X112406203Y-44259273D01*
X112406203Y-44259273D02*
X112549060Y-44211654D01*
X112549060Y-44211654D02*
X112644298Y-44211654D01*
X112644298Y-44211654D02*
X112787155Y-44259273D01*
X112787155Y-44259273D02*
X112834774Y-44306892D01*
X113787155Y-45211654D02*
X113215727Y-45211654D01*
X113501441Y-45211654D02*
X113501441Y-44211654D01*
X113501441Y-44211654D02*
X113406203Y-44354511D01*
X113406203Y-44354511D02*
X113310965Y-44449749D01*
X113310965Y-44449749D02*
X113215727Y-44497368D01*
X114644298Y-44211654D02*
X114453822Y-44211654D01*
X114453822Y-44211654D02*
X114358584Y-44259273D01*
X114358584Y-44259273D02*
X114310965Y-44306892D01*
X114310965Y-44306892D02*
X114215727Y-44449749D01*
X114215727Y-44449749D02*
X114168108Y-44640225D01*
X114168108Y-44640225D02*
X114168108Y-45021177D01*
X114168108Y-45021177D02*
X114215727Y-45116415D01*
X114215727Y-45116415D02*
X114263346Y-45164035D01*
X114263346Y-45164035D02*
X114358584Y-45211654D01*
X114358584Y-45211654D02*
X114549060Y-45211654D01*
X114549060Y-45211654D02*
X114644298Y-45164035D01*
X114644298Y-45164035D02*
X114691917Y-45116415D01*
X114691917Y-45116415D02*
X114739536Y-45021177D01*
X114739536Y-45021177D02*
X114739536Y-44783082D01*
X114739536Y-44783082D02*
X114691917Y-44687844D01*
X114691917Y-44687844D02*
X114644298Y-44640225D01*
X114644298Y-44640225D02*
X114549060Y-44592606D01*
X114549060Y-44592606D02*
X114358584Y-44592606D01*
X114358584Y-44592606D02*
X114263346Y-44640225D01*
X114263346Y-44640225D02*
X114215727Y-44687844D01*
X114215727Y-44687844D02*
X114168108Y-44783082D01*
X115627842Y-44149286D02*
X115627842Y-43149286D01*
X115627842Y-43149286D02*
X115865937Y-43149286D01*
X115865937Y-43149286D02*
X116008794Y-43196905D01*
X116008794Y-43196905D02*
X116104032Y-43292143D01*
X116104032Y-43292143D02*
X116151651Y-43387381D01*
X116151651Y-43387381D02*
X116199270Y-43577857D01*
X116199270Y-43577857D02*
X116199270Y-43720714D01*
X116199270Y-43720714D02*
X116151651Y-43911190D01*
X116151651Y-43911190D02*
X116104032Y-44006428D01*
X116104032Y-44006428D02*
X116008794Y-44101667D01*
X116008794Y-44101667D02*
X115865937Y-44149286D01*
X115865937Y-44149286D02*
X115627842Y-44149286D01*
X116627842Y-44149286D02*
X116627842Y-43149286D01*
X116627842Y-43149286D02*
X117199270Y-44149286D01*
X117199270Y-44149286D02*
X117199270Y-43149286D01*
X117675461Y-44149286D02*
X117675461Y-43149286D01*
X117675461Y-43149286D02*
X118056413Y-43149286D01*
X118056413Y-43149286D02*
X118151651Y-43196905D01*
X118151651Y-43196905D02*
X118199270Y-43244524D01*
X118199270Y-43244524D02*
X118246889Y-43339762D01*
X118246889Y-43339762D02*
X118246889Y-43482619D01*
X118246889Y-43482619D02*
X118199270Y-43577857D01*
X118199270Y-43577857D02*
X118151651Y-43625476D01*
X118151651Y-43625476D02*
X118056413Y-43673095D01*
X118056413Y-43673095D02*
X117675461Y-43673095D01*
X119199270Y-44149286D02*
X118627842Y-44149286D01*
X118913556Y-44149286D02*
X118913556Y-43149286D01*
X118913556Y-43149286D02*
X118818318Y-43292143D01*
X118818318Y-43292143D02*
X118723080Y-43387381D01*
X118723080Y-43387381D02*
X118627842Y-43435000D01*
X118321103Y-50965114D02*
X118273484Y-51012734D01*
X118273484Y-51012734D02*
X118130627Y-51060353D01*
X118130627Y-51060353D02*
X118035389Y-51060353D01*
X118035389Y-51060353D02*
X117892532Y-51012734D01*
X117892532Y-51012734D02*
X117797294Y-50917495D01*
X117797294Y-50917495D02*
X117749675Y-50822257D01*
X117749675Y-50822257D02*
X117702056Y-50631781D01*
X117702056Y-50631781D02*
X117702056Y-50488924D01*
X117702056Y-50488924D02*
X117749675Y-50298448D01*
X117749675Y-50298448D02*
X117797294Y-50203210D01*
X117797294Y-50203210D02*
X117892532Y-50107972D01*
X117892532Y-50107972D02*
X118035389Y-50060353D01*
X118035389Y-50060353D02*
X118130627Y-50060353D01*
X118130627Y-50060353D02*
X118273484Y-50107972D01*
X118273484Y-50107972D02*
X118321103Y-50155591D01*
X118654437Y-50060353D02*
X119273484Y-50060353D01*
X119273484Y-50060353D02*
X118940151Y-50441305D01*
X118940151Y-50441305D02*
X119083008Y-50441305D01*
X119083008Y-50441305D02*
X119178246Y-50488924D01*
X119178246Y-50488924D02*
X119225865Y-50536543D01*
X119225865Y-50536543D02*
X119273484Y-50631781D01*
X119273484Y-50631781D02*
X119273484Y-50869876D01*
X119273484Y-50869876D02*
X119225865Y-50965114D01*
X119225865Y-50965114D02*
X119178246Y-51012734D01*
X119178246Y-51012734D02*
X119083008Y-51060353D01*
X119083008Y-51060353D02*
X118797294Y-51060353D01*
X118797294Y-51060353D02*
X118702056Y-51012734D01*
X118702056Y-51012734D02*
X118654437Y-50965114D01*
X119606818Y-50060353D02*
X120225865Y-50060353D01*
X120225865Y-50060353D02*
X119892532Y-50441305D01*
X119892532Y-50441305D02*
X120035389Y-50441305D01*
X120035389Y-50441305D02*
X120130627Y-50488924D01*
X120130627Y-50488924D02*
X120178246Y-50536543D01*
X120178246Y-50536543D02*
X120225865Y-50631781D01*
X120225865Y-50631781D02*
X120225865Y-50869876D01*
X120225865Y-50869876D02*
X120178246Y-50965114D01*
X120178246Y-50965114D02*
X120130627Y-51012734D01*
X120130627Y-51012734D02*
X120035389Y-51060353D01*
X120035389Y-51060353D02*
X119749675Y-51060353D01*
X119749675Y-51060353D02*
X119654437Y-51012734D01*
X119654437Y-51012734D02*
X119606818Y-50965114D01*
X115540353Y-44364025D02*
X115540353Y-44840215D01*
X115540353Y-44840215D02*
X114540353Y-44840215D01*
X114540353Y-43602120D02*
X114540353Y-43792596D01*
X114540353Y-43792596D02*
X114587972Y-43887834D01*
X114587972Y-43887834D02*
X114635591Y-43935453D01*
X114635591Y-43935453D02*
X114778448Y-44030691D01*
X114778448Y-44030691D02*
X114968924Y-44078310D01*
X114968924Y-44078310D02*
X115349876Y-44078310D01*
X115349876Y-44078310D02*
X115445114Y-44030691D01*
X115445114Y-44030691D02*
X115492734Y-43983072D01*
X115492734Y-43983072D02*
X115540353Y-43887834D01*
X115540353Y-43887834D02*
X115540353Y-43697358D01*
X115540353Y-43697358D02*
X115492734Y-43602120D01*
X115492734Y-43602120D02*
X115445114Y-43554501D01*
X115445114Y-43554501D02*
X115349876Y-43506882D01*
X115349876Y-43506882D02*
X115111781Y-43506882D01*
X115111781Y-43506882D02*
X115016543Y-43554501D01*
X115016543Y-43554501D02*
X114968924Y-43602120D01*
X114968924Y-43602120D02*
X114921305Y-43697358D01*
X114921305Y-43697358D02*
X114921305Y-43887834D01*
X114921305Y-43887834D02*
X114968924Y-43983072D01*
X114968924Y-43983072D02*
X115016543Y-44030691D01*
X115016543Y-44030691D02*
X115111781Y-44078310D01*
X121503251Y-49824745D02*
X121979442Y-49824745D01*
X120979442Y-50158078D02*
X121503251Y-49824745D01*
X121503251Y-49824745D02*
X120979442Y-49491412D01*
X121074680Y-49205697D02*
X121027061Y-49158078D01*
X121027061Y-49158078D02*
X120979442Y-49062840D01*
X120979442Y-49062840D02*
X120979442Y-48824745D01*
X120979442Y-48824745D02*
X121027061Y-48729507D01*
X121027061Y-48729507D02*
X121074680Y-48681888D01*
X121074680Y-48681888D02*
X121169918Y-48634269D01*
X121169918Y-48634269D02*
X121265156Y-48634269D01*
X121265156Y-48634269D02*
X121408013Y-48681888D01*
X121408013Y-48681888D02*
X121979442Y-49253316D01*
X121979442Y-49253316D02*
X121979442Y-48634269D01*
X114030900Y-44865219D02*
X114078520Y-44912838D01*
X114078520Y-44912838D02*
X114126139Y-45055695D01*
X114126139Y-45055695D02*
X114126139Y-45150933D01*
X114126139Y-45150933D02*
X114078520Y-45293790D01*
X114078520Y-45293790D02*
X113983281Y-45389028D01*
X113983281Y-45389028D02*
X113888043Y-45436647D01*
X113888043Y-45436647D02*
X113697567Y-45484266D01*
X113697567Y-45484266D02*
X113554710Y-45484266D01*
X113554710Y-45484266D02*
X113364234Y-45436647D01*
X113364234Y-45436647D02*
X113268996Y-45389028D01*
X113268996Y-45389028D02*
X113173758Y-45293790D01*
X113173758Y-45293790D02*
X113126139Y-45150933D01*
X113126139Y-45150933D02*
X113126139Y-45055695D01*
X113126139Y-45055695D02*
X113173758Y-44912838D01*
X113173758Y-44912838D02*
X113221377Y-44865219D01*
X114126139Y-43912838D02*
X114126139Y-44484266D01*
X114126139Y-44198552D02*
X113126139Y-44198552D01*
X113126139Y-44198552D02*
X113268996Y-44293790D01*
X113268996Y-44293790D02*
X113364234Y-44389028D01*
X113364234Y-44389028D02*
X113411853Y-44484266D01*
X114126139Y-43436647D02*
X114126139Y-43246171D01*
X114126139Y-43246171D02*
X114078520Y-43150933D01*
X114078520Y-43150933D02*
X114030900Y-43103314D01*
X114030900Y-43103314D02*
X113888043Y-43008076D01*
X113888043Y-43008076D02*
X113697567Y-42960457D01*
X113697567Y-42960457D02*
X113316615Y-42960457D01*
X113316615Y-42960457D02*
X113221377Y-43008076D01*
X113221377Y-43008076D02*
X113173758Y-43055695D01*
X113173758Y-43055695D02*
X113126139Y-43150933D01*
X113126139Y-43150933D02*
X113126139Y-43341409D01*
X113126139Y-43341409D02*
X113173758Y-43436647D01*
X113173758Y-43436647D02*
X113221377Y-43484266D01*
X113221377Y-43484266D02*
X113316615Y-43531885D01*
X113316615Y-43531885D02*
X113554710Y-43531885D01*
X113554710Y-43531885D02*
X113649948Y-43484266D01*
X113649948Y-43484266D02*
X113697567Y-43436647D01*
X113697567Y-43436647D02*
X113745186Y-43341409D01*
X113745186Y-43341409D02*
X113745186Y-43150933D01*
X113745186Y-43150933D02*
X113697567Y-43055695D01*
X113697567Y-43055695D02*
X113649948Y-43008076D01*
X113649948Y-43008076D02*
X113554710Y-42960457D01*
X118166666Y-43454819D02*
X118166666Y-44169104D01*
X118166666Y-44169104D02*
X118119047Y-44311961D01*
X118119047Y-44311961D02*
X118023809Y-44407200D01*
X118023809Y-44407200D02*
X117880952Y-44454819D01*
X117880952Y-44454819D02*
X117785714Y-44454819D01*
X119071428Y-43788152D02*
X119071428Y-44454819D01*
X118833333Y-43407200D02*
X118595238Y-44121485D01*
X118595238Y-44121485D02*
X119214285Y-44121485D01*
X106687396Y-50236688D02*
X106639777Y-50284308D01*
X106639777Y-50284308D02*
X106496920Y-50331927D01*
X106496920Y-50331927D02*
X106401682Y-50331927D01*
X106401682Y-50331927D02*
X106258825Y-50284308D01*
X106258825Y-50284308D02*
X106163587Y-50189069D01*
X106163587Y-50189069D02*
X106115968Y-50093831D01*
X106115968Y-50093831D02*
X106068349Y-49903355D01*
X106068349Y-49903355D02*
X106068349Y-49760498D01*
X106068349Y-49760498D02*
X106115968Y-49570022D01*
X106115968Y-49570022D02*
X106163587Y-49474784D01*
X106163587Y-49474784D02*
X106258825Y-49379546D01*
X106258825Y-49379546D02*
X106401682Y-49331927D01*
X106401682Y-49331927D02*
X106496920Y-49331927D01*
X106496920Y-49331927D02*
X106639777Y-49379546D01*
X106639777Y-49379546D02*
X106687396Y-49427165D01*
X107020730Y-49331927D02*
X107639777Y-49331927D01*
X107639777Y-49331927D02*
X107306444Y-49712879D01*
X107306444Y-49712879D02*
X107449301Y-49712879D01*
X107449301Y-49712879D02*
X107544539Y-49760498D01*
X107544539Y-49760498D02*
X107592158Y-49808117D01*
X107592158Y-49808117D02*
X107639777Y-49903355D01*
X107639777Y-49903355D02*
X107639777Y-50141450D01*
X107639777Y-50141450D02*
X107592158Y-50236688D01*
X107592158Y-50236688D02*
X107544539Y-50284308D01*
X107544539Y-50284308D02*
X107449301Y-50331927D01*
X107449301Y-50331927D02*
X107163587Y-50331927D01*
X107163587Y-50331927D02*
X107068349Y-50284308D01*
X107068349Y-50284308D02*
X107020730Y-50236688D01*
X108115968Y-50331927D02*
X108306444Y-50331927D01*
X108306444Y-50331927D02*
X108401682Y-50284308D01*
X108401682Y-50284308D02*
X108449301Y-50236688D01*
X108449301Y-50236688D02*
X108544539Y-50093831D01*
X108544539Y-50093831D02*
X108592158Y-49903355D01*
X108592158Y-49903355D02*
X108592158Y-49522403D01*
X108592158Y-49522403D02*
X108544539Y-49427165D01*
X108544539Y-49427165D02*
X108496920Y-49379546D01*
X108496920Y-49379546D02*
X108401682Y-49331927D01*
X108401682Y-49331927D02*
X108211206Y-49331927D01*
X108211206Y-49331927D02*
X108115968Y-49379546D01*
X108115968Y-49379546D02*
X108068349Y-49427165D01*
X108068349Y-49427165D02*
X108020730Y-49522403D01*
X108020730Y-49522403D02*
X108020730Y-49760498D01*
X108020730Y-49760498D02*
X108068349Y-49855736D01*
X108068349Y-49855736D02*
X108115968Y-49903355D01*
X108115968Y-49903355D02*
X108211206Y-49950974D01*
X108211206Y-49950974D02*
X108401682Y-49950974D01*
X108401682Y-49950974D02*
X108496920Y-49903355D01*
X108496920Y-49903355D02*
X108544539Y-49855736D01*
X108544539Y-49855736D02*
X108592158Y-49760498D01*
X112834774Y-45823522D02*
X112787155Y-45871142D01*
X112787155Y-45871142D02*
X112644298Y-45918761D01*
X112644298Y-45918761D02*
X112549060Y-45918761D01*
X112549060Y-45918761D02*
X112406203Y-45871142D01*
X112406203Y-45871142D02*
X112310965Y-45775903D01*
X112310965Y-45775903D02*
X112263346Y-45680665D01*
X112263346Y-45680665D02*
X112215727Y-45490189D01*
X112215727Y-45490189D02*
X112215727Y-45347332D01*
X112215727Y-45347332D02*
X112263346Y-45156856D01*
X112263346Y-45156856D02*
X112310965Y-45061618D01*
X112310965Y-45061618D02*
X112406203Y-44966380D01*
X112406203Y-44966380D02*
X112549060Y-44918761D01*
X112549060Y-44918761D02*
X112644298Y-44918761D01*
X112644298Y-44918761D02*
X112787155Y-44966380D01*
X112787155Y-44966380D02*
X112834774Y-45013999D01*
X113787155Y-45918761D02*
X113215727Y-45918761D01*
X113501441Y-45918761D02*
X113501441Y-44918761D01*
X113501441Y-44918761D02*
X113406203Y-45061618D01*
X113406203Y-45061618D02*
X113310965Y-45156856D01*
X113310965Y-45156856D02*
X113215727Y-45204475D01*
X114691917Y-44918761D02*
X114215727Y-44918761D01*
X114215727Y-44918761D02*
X114168108Y-45394951D01*
X114168108Y-45394951D02*
X114215727Y-45347332D01*
X114215727Y-45347332D02*
X114310965Y-45299713D01*
X114310965Y-45299713D02*
X114549060Y-45299713D01*
X114549060Y-45299713D02*
X114644298Y-45347332D01*
X114644298Y-45347332D02*
X114691917Y-45394951D01*
X114691917Y-45394951D02*
X114739536Y-45490189D01*
X114739536Y-45490189D02*
X114739536Y-45728284D01*
X114739536Y-45728284D02*
X114691917Y-45823522D01*
X114691917Y-45823522D02*
X114644298Y-45871142D01*
X114644298Y-45871142D02*
X114549060Y-45918761D01*
X114549060Y-45918761D02*
X114310965Y-45918761D01*
X114310965Y-45918761D02*
X114215727Y-45871142D01*
X114215727Y-45871142D02*
X114168108Y-45823522D01*
%TO.C,S2*%
D12*
X104275001Y-37550000D02*
X108275001Y-37550000D01*
X104275001Y-37780000D02*
X104275001Y-37550000D01*
X104275001Y-40450000D02*
X104275001Y-40220000D01*
X108275001Y-37550000D02*
X108275001Y-37780000D01*
X108275001Y-40450000D02*
X104275001Y-40450000D01*
X108275001Y-40450000D02*
X108275001Y-40220000D01*
%TO.C,J1*%
D13*
X109540000Y-58640000D02*
X110990000Y-58640000D01*
X109540000Y-60390000D02*
X109540000Y-58640000D01*
X109540000Y-62610000D02*
X109540000Y-63160000D01*
X109540000Y-63160000D02*
X120560000Y-63160000D01*
X110990000Y-58640000D02*
X110990000Y-57750000D01*
X120560000Y-58640000D02*
X119110000Y-58640000D01*
X120560000Y-60390000D02*
X120560000Y-58640000D01*
X120560000Y-63160000D02*
X120560000Y-62610000D01*
%TO.C,S1*%
D12*
X104199999Y-41050000D02*
X104199999Y-41280000D01*
X104199999Y-41050000D02*
X108199999Y-41050000D01*
X104199999Y-43950000D02*
X104199999Y-43720000D01*
X108199999Y-41050000D02*
X108199999Y-41280000D01*
X108199999Y-43720000D02*
X108199999Y-43950000D01*
X108199999Y-43950000D02*
X104199999Y-43950000D01*
%TO.C,J2*%
D14*
D15*
X102900000Y-58800000D02*
X102899999Y-58800000D01*
X102899999Y-58800000D01*
X102899999Y-58800000D01*
X102899999Y-58800000D01*
X102899999Y-58800000D01*
X102899999Y-58800000D01*
X102899999Y-58800000D01*
X102899999Y-58799999D01*
X102899999Y-58799999D01*
X102899999Y-58799999D01*
X102899999Y-58799999D01*
X102899999Y-58799999D01*
X102900000Y-58799999D01*
X102900000Y-58799999D01*
X102900000Y-58799999D01*
X102900000Y-58799999D01*
X102900000Y-58799999D01*
X102900000Y-58799999D01*
X102900000Y-58799999D01*
X102900000Y-58799999D01*
X102900000Y-58799999D01*
X102900000Y-58799999D01*
X102900000Y-58799999D01*
X102900000Y-58799999D01*
X102900001Y-58799999D01*
X102900001Y-58799999D01*
X102900001Y-58799999D01*
X102900001Y-58799999D01*
X102900001Y-58799999D01*
X102900001Y-58799999D01*
X102900001Y-58800000D01*
X102900001Y-58800000D01*
X102900001Y-58800000D01*
X102900001Y-58800000D01*
X102900001Y-58800000D01*
X102900001Y-58800000D01*
X102900001Y-58800000D01*
X102900000Y-58800000D01*
X102900000Y-58800000D02*
X102900001Y-58800000D01*
X102900001Y-58800000D01*
X102900001Y-58800000D01*
X102900001Y-58800000D01*
X102900001Y-58800000D01*
X102900001Y-58800000D01*
X102900001Y-58800001D01*
X102900001Y-58800001D01*
X102900001Y-58800001D01*
X102900001Y-58800001D01*
X102900001Y-58800001D01*
X102900001Y-58800001D01*
X102900001Y-58800001D01*
X102900000Y-58800001D01*
X102900000Y-58800001D01*
X102900000Y-58800001D01*
X102900000Y-58800001D01*
X102900000Y-58800001D01*
X102900000Y-58800001D01*
X102900000Y-58800001D01*
X102900000Y-58800001D01*
X102900000Y-58800001D01*
X102900000Y-58800001D01*
X102900000Y-58800001D01*
X102900000Y-58800001D01*
X102899999Y-58800001D01*
X102899999Y-58800001D01*
X102899999Y-58800001D01*
X102899999Y-58800001D01*
X102899999Y-58800001D01*
X102899999Y-58800001D01*
X102899999Y-58800000D01*
X102899999Y-58800000D01*
X102899999Y-58800000D01*
X102899999Y-58800000D01*
X102899999Y-58800000D01*
X102899999Y-58800000D01*
X102900000Y-58800000D01*
D14*
D15*
X102900000Y-59000000D02*
X102899999Y-59000000D01*
X102899999Y-59000000D01*
X102899999Y-59000000D01*
X102899999Y-59000000D01*
X102899999Y-59000000D01*
X102899999Y-59000000D01*
X102899999Y-59000000D01*
X102899999Y-58999999D01*
X102899999Y-58999999D01*
X102899999Y-58999999D01*
X102899999Y-58999999D01*
X102899999Y-58999999D01*
X102900000Y-58999999D01*
X102900000Y-58999999D01*
X102900000Y-58999999D01*
X102900000Y-58999999D01*
X102900000Y-58999999D01*
X102900000Y-58999999D01*
X102900000Y-58999999D01*
X102900000Y-58999999D01*
X102900000Y-58999999D01*
X102900000Y-58999999D01*
X102900000Y-58999999D01*
X102900000Y-58999999D01*
X102900001Y-58999999D01*
X102900001Y-58999999D01*
X102900001Y-58999999D01*
X102900001Y-58999999D01*
X102900001Y-58999999D01*
X102900001Y-58999999D01*
X102900001Y-59000000D01*
X102900001Y-59000000D01*
X102900001Y-59000000D01*
X102900001Y-59000000D01*
X102900001Y-59000000D01*
X102900001Y-59000000D01*
X102900001Y-59000000D01*
X102900000Y-59000000D01*
X102900000Y-59000000D02*
X102900001Y-59000000D01*
X102900001Y-59000000D01*
X102900001Y-59000000D01*
X102900001Y-59000000D01*
X102900001Y-59000000D01*
X102900001Y-59000000D01*
X102900001Y-59000001D01*
X102900001Y-59000001D01*
X102900001Y-59000001D01*
X102900001Y-59000001D01*
X102900001Y-59000001D01*
X102900001Y-59000001D01*
X102900001Y-59000001D01*
X102900000Y-59000001D01*
X102900000Y-59000001D01*
X102900000Y-59000001D01*
X102900000Y-59000001D01*
X102900000Y-59000001D01*
X102900000Y-59000001D01*
X102900000Y-59000001D01*
X102900000Y-59000001D01*
X102900000Y-59000001D01*
X102900000Y-59000001D01*
X102900000Y-59000001D01*
X102900000Y-59000001D01*
X102899999Y-59000001D01*
X102899999Y-59000001D01*
X102899999Y-59000001D01*
X102899999Y-59000001D01*
X102899999Y-59000001D01*
X102899999Y-59000001D01*
X102899999Y-59000000D01*
X102899999Y-59000000D01*
X102899999Y-59000000D01*
X102899999Y-59000000D01*
X102899999Y-59000000D01*
X102899999Y-59000000D01*
X102900000Y-59000000D01*
D14*
X103500000Y-57500000D02*
X108000000Y-57500000D01*
X103500000Y-63500000D02*
X103500000Y-57500000D01*
X108000000Y-57500000D02*
X108000000Y-63500000D01*
X108000000Y-63500000D02*
X103500000Y-63500000D01*
X102900000Y-58800000D02*
G75*
G02*
X102900000Y-59000000I0J-100000D01*
G01*
X102900000Y-59000000D02*
G75*
G02*
X102900000Y-58800000I0J100000D01*
G01*
%TO.C,J5*%
D13*
X103190000Y-54240000D02*
X103190000Y-52360000D01*
X105160000Y-51190000D02*
X106310000Y-51190000D01*
X105160000Y-55410000D02*
X106310000Y-55410000D01*
X106310000Y-51190000D02*
X106310000Y-52240000D01*
X106310000Y-54360000D02*
X107300000Y-54360000D01*
X106310000Y-55410000D02*
X106310000Y-54360000D01*
%TO.C,U1*%
X108990000Y-45840000D02*
X109639999Y-45840000D01*
X108990000Y-46489999D02*
X108990000Y-45840000D01*
X108990000Y-53060000D02*
X108990000Y-52410001D01*
X109639999Y-53060000D02*
X108990000Y-53060000D01*
X115560001Y-45840000D02*
X116210000Y-45840000D01*
X116210000Y-45840000D02*
X116210000Y-46489999D01*
X116210000Y-52410001D02*
X116210000Y-53060000D01*
X116210000Y-53060000D02*
X115560001Y-53060000D01*
X115200001Y-45340000D02*
X114960000Y-45010000D01*
X115440000Y-45010000D01*
X115200001Y-45340000D01*
G36*
X115200001Y-45340000D02*
G01*
X114960000Y-45010000D01*
X115440000Y-45010000D01*
X115200001Y-45340000D01*
G37*
%TO.C,Y2*%
X117864624Y-47638555D02*
X117864624Y-51058555D01*
X120784622Y-47638555D02*
X117864624Y-47638555D01*
%TO.C,J4*%
X117000000Y-39000000D02*
X117800000Y-39000000D01*
X117000000Y-39200000D02*
X117000000Y-39000000D01*
X117000000Y-42000000D02*
X117000000Y-41800000D01*
X117800000Y-39000000D02*
X117800000Y-38500000D01*
X117800000Y-42000000D02*
X117000000Y-42000000D01*
X119200000Y-39000000D02*
X119200000Y-38500000D01*
X119200000Y-39000000D02*
X119800000Y-39000000D01*
X119800000Y-39000000D02*
X120000000Y-39200000D01*
X120000000Y-41800000D02*
X120000000Y-42000000D01*
X120000000Y-42000000D02*
X119200000Y-42000000D01*
%TD*%
%LPC*%
D16*
%TO.C,C40*%
X117196194Y-46672233D03*
X117196194Y-46032233D03*
%TD*%
D17*
%TO.C,L3*%
X115428427Y-43902362D03*
X115428427Y-44542362D03*
%TD*%
D18*
%TO.C,C26*%
X107650253Y-46705789D03*
X107010253Y-46705789D03*
%TD*%
D19*
%TO.C,S2*%
X104200000Y-39000000D03*
X108350002Y-39000000D03*
%TD*%
D20*
%TO.C,C31*%
X117180000Y-44000000D03*
X117820000Y-44000000D03*
%TD*%
D18*
%TO.C,C10*%
X107675252Y-47412895D03*
X107035252Y-47412895D03*
%TD*%
D20*
%TO.C,R2*%
X112837634Y-42292621D03*
X113477634Y-42292621D03*
%TD*%
D18*
%TO.C,C11*%
X107650254Y-48120002D03*
X107010254Y-48120002D03*
%TD*%
D20*
%TO.C,C1*%
X118652514Y-47007025D03*
X119292514Y-47007025D03*
%TD*%
D21*
%TO.C,J1*%
X111550000Y-58375000D03*
X112550000Y-58375000D03*
X113550000Y-58375000D03*
X114550000Y-58375000D03*
X115550000Y-58375000D03*
X116550000Y-58375000D03*
X117550000Y-58375000D03*
X118550000Y-58375000D03*
D22*
X110100000Y-61500000D03*
X120000000Y-61500000D03*
%TD*%
D23*
%TO.C,S1*%
X108275000Y-42500000D03*
X104124998Y-42500000D03*
%TD*%
D20*
%TO.C,C13*%
X109443021Y-54130411D03*
X110083021Y-54130411D03*
%TD*%
D24*
%TO.C,J2*%
X105000000Y-58900000D03*
X106500000Y-58900000D03*
%TD*%
D20*
%TO.C,C32*%
X109443020Y-54837517D03*
X110083020Y-54837517D03*
%TD*%
D25*
%TO.C,J5*%
X106525000Y-53800000D03*
X106525000Y-52800000D03*
D26*
X104000000Y-55100000D03*
X104000000Y-51500000D03*
%TD*%
D27*
%TO.C,U1*%
X115200000Y-46000000D03*
X114800000Y-46000001D03*
X114400000Y-46000000D03*
X114000000Y-46000000D03*
X113600000Y-46000000D03*
X113200000Y-46000001D03*
X112800000Y-46000000D03*
X112400000Y-46000000D03*
X112000000Y-46000001D03*
X111600000Y-46000000D03*
X111200000Y-46000000D03*
X110800000Y-46000000D03*
X110400000Y-46000001D03*
X110000000Y-46000000D03*
D28*
X109150000Y-46850000D03*
X109150001Y-47250000D03*
X109150000Y-47650000D03*
X109150000Y-48050000D03*
X109150000Y-48450000D03*
X109150001Y-48850000D03*
X109150000Y-49250000D03*
X109150000Y-49650000D03*
X109150001Y-50050000D03*
X109150000Y-50450000D03*
X109150000Y-50850000D03*
X109150000Y-51250000D03*
X109150001Y-51650000D03*
X109150000Y-52050000D03*
D27*
X110000000Y-52900000D03*
X110400000Y-52899999D03*
X110800000Y-52900000D03*
X111200000Y-52900000D03*
X111600000Y-52900000D03*
X112000000Y-52899999D03*
X112400000Y-52900000D03*
X112800000Y-52900000D03*
X113200000Y-52899999D03*
X113600000Y-52900000D03*
X114000000Y-52900000D03*
X114400000Y-52900000D03*
X114800000Y-52899999D03*
X115200000Y-52900000D03*
D28*
X116050000Y-52050000D03*
X116049999Y-51650000D03*
X116050000Y-51250000D03*
X116050000Y-50850000D03*
X116050000Y-50450000D03*
X116049999Y-50050000D03*
X116050000Y-49650000D03*
X116050000Y-49250000D03*
X116049999Y-48850000D03*
X116050000Y-48450000D03*
X116050000Y-48050000D03*
X116050000Y-47650000D03*
X116049999Y-47250000D03*
X116050000Y-46850000D03*
D29*
X112600000Y-49450000D03*
%TD*%
D18*
%TO.C,C2*%
X107650255Y-45998682D03*
X107010255Y-45998682D03*
%TD*%
%TO.C,R22*%
X113477633Y-42999727D03*
X112837633Y-42999727D03*
%TD*%
%TO.C,C16*%
X113797632Y-43706835D03*
X113157632Y-43706835D03*
%TD*%
D20*
%TO.C,DNP1*%
X117069747Y-44744467D03*
X117709747Y-44744467D03*
%TD*%
D18*
%TO.C,C25*%
X107625252Y-49534216D03*
X106985252Y-49534216D03*
%TD*%
D20*
%TO.C,C33*%
X118643961Y-51655534D03*
X119283961Y-51655534D03*
%TD*%
D16*
%TO.C,L6*%
X116135534Y-44517359D03*
X116135534Y-43877359D03*
%TD*%
D30*
%TO.C,Y2*%
X118624623Y-48473555D03*
X118624623Y-50223555D03*
X120024623Y-50223555D03*
X120024623Y-48473555D03*
%TD*%
D20*
%TO.C,R21*%
X111069867Y-44060388D03*
X111709867Y-44060388D03*
%TD*%
D16*
%TO.C,C19*%
X114721320Y-44542362D03*
X114721320Y-43902362D03*
%TD*%
D31*
%TO.C,J4*%
X118500000Y-42000000D03*
D32*
X117024999Y-40500000D03*
D31*
X118500000Y-39000000D03*
D32*
X119975001Y-40500000D03*
%TD*%
D18*
%TO.C,C39*%
X107650254Y-48827108D03*
X107010254Y-48827108D03*
%TD*%
%TO.C,C15*%
X113797632Y-44413942D03*
X113157632Y-44413942D03*
%TD*%
%LPD*%
M02*
