%TF.GenerationSoftware,KiCad,Pcbnew,10.0.1*%
%TF.CreationDate,2026-05-11T18:17:24+02:00*%
%TF.ProjectId,esp32v2,65737033-3276-4322-9e6b-696361645f70,rev?*%
%TF.SameCoordinates,Original*%
%TF.FileFunction,Copper,L1,Top*%
%TF.FilePolarity,Positive*%
%FSLAX46Y46*%
G04 Gerber Fmt 4.6, Leading zero omitted, Abs format (unit mm)*
G04 Created by KiCad (PCBNEW 10.0.1) date 2026-05-11 18:17:24*
%MOMM*%
%LPD*%
G01*
G04 APERTURE LIST*
G04 Aperture macros list*
%AMRoundRect*
0 Rectangle with rounded corners*
0 $1 Rounding radius*
0 $2 $3 $4 $5 $6 $7 $8 $9 X,Y pos of 4 corners*
0 Add a 4 corners polygon primitive as box body*
4,1,4,$2,$3,$4,$5,$6,$7,$8,$9,$2,$3,0*
0 Add four circle primitives for the rounded corners*
1,1,$1+$1,$2,$3*
1,1,$1+$1,$4,$5*
1,1,$1+$1,$6,$7*
1,1,$1+$1,$8,$9*
0 Add four rect primitives between the rounded corners*
20,1,$1+$1,$2,$3,$4,$5,0*
20,1,$1+$1,$4,$5,$6,$7,0*
20,1,$1+$1,$6,$7,$8,$9,0*
20,1,$1+$1,$8,$9,$2,$3,0*%
%AMRotRect*
0 Rectangle, with rotation*
0 The origin of the aperture is its center*
0 $1 length*
0 $2 width*
0 $3 Rotation angle, in degrees counterclockwise*
0 Add horizontal line*
21,1,$1,$2,0,0,$3*%
G04 Aperture macros list end*
%TA.AperFunction,SMDPad,CuDef*%
%ADD10RoundRect,0.100000X0.162635X-0.021213X-0.021213X0.162635X-0.162635X0.021213X0.021213X-0.162635X0*%
%TD*%
%TA.AperFunction,SMDPad,CuDef*%
%ADD11R,0.600000X1.550000*%
%TD*%
%TA.AperFunction,SMDPad,CuDef*%
%ADD12R,1.200000X1.800000*%
%TD*%
%TA.AperFunction,SMDPad,CuDef*%
%ADD13RoundRect,0.100000X-0.162635X0.021213X0.021213X-0.162635X0.162635X-0.021213X-0.021213X0.162635X0*%
%TD*%
%TA.AperFunction,SMDPad,CuDef*%
%ADD14RoundRect,0.100000X0.021213X0.162635X-0.162635X-0.021213X-0.021213X-0.162635X0.162635X0.021213X0*%
%TD*%
%TA.AperFunction,SMDPad,CuDef*%
%ADD15RoundRect,0.100000X-0.021213X-0.162635X0.162635X0.021213X0.021213X0.162635X-0.162635X-0.021213X0*%
%TD*%
%TA.AperFunction,SMDPad,CuDef*%
%ADD16RoundRect,0.150000X0.625000X-0.150000X0.625000X0.150000X-0.625000X0.150000X-0.625000X-0.150000X0*%
%TD*%
%TA.AperFunction,SMDPad,CuDef*%
%ADD17RoundRect,0.250000X0.650000X-0.350000X0.650000X0.350000X-0.650000X0.350000X-0.650000X-0.350000X0*%
%TD*%
%TA.AperFunction,ComponentPad*%
%ADD18C,1.100000*%
%TD*%
%TA.AperFunction,SMDPad,CuDef*%
%ADD19RoundRect,0.050000X-0.282843X0.212132X0.212132X-0.282843X0.282843X-0.212132X-0.212132X0.282843X0*%
%TD*%
%TA.AperFunction,SMDPad,CuDef*%
%ADD20RoundRect,0.050000X-0.282843X-0.212132X-0.212132X-0.282843X0.282843X0.212132X0.212132X0.282843X0*%
%TD*%
%TA.AperFunction,HeatsinkPad*%
%ADD21RotRect,4.000000X4.000000X315.000000*%
%TD*%
%TA.AperFunction,SMDPad,CuDef*%
%ADD22RoundRect,0.250000X-0.406586X0.053033X0.053033X-0.406586X0.406586X-0.053033X-0.053033X0.406586X0*%
%TD*%
%TA.AperFunction,ViaPad*%
%ADD23C,0.604799*%
%TD*%
%TA.AperFunction,Conductor*%
%ADD24C,0.152400*%
%TD*%
%TA.AperFunction,Conductor*%
%ADD25C,0.155814*%
%TD*%
G04 APERTURE END LIST*
D10*
%TO.P,C40,1*%
%TO.N,VDD_CPU*%
X112726274Y-40226274D03*
%TO.P,C40,2*%
%TO.N,GND*%
X112273726Y-39773726D03*
%TD*%
D11*
%TO.P,J3,1,Pin_1_1*%
%TO.N,USB_D-*%
X111000000Y-53500000D03*
%TO.P,J3,2,Pin_2_2*%
%TO.N,USB_D+*%
X112000000Y-53500000D03*
%TO.P,J3,3,Pin_3_3*%
%TO.N,IO48*%
X113000000Y-53500000D03*
%TO.P,J3,4,Pin_4_4*%
%TO.N,IO47*%
X114000000Y-53500000D03*
%TO.P,J3,5,Pin_5_5*%
%TO.N,IO33*%
X115000000Y-53500000D03*
%TO.P,J3,6,Pin_6_6*%
%TO.N,IO34*%
X116000000Y-53500000D03*
%TO.P,J3,7,Pin_7_7*%
%TO.N,IO35*%
X117000000Y-53500000D03*
%TO.P,J3,8,Pin_8_8*%
%TO.N,IO36*%
X118000000Y-53500000D03*
%TO.P,J3,9,Pin_9_9*%
%TO.N,IO37*%
X119000000Y-53500000D03*
%TO.P,J3,10,Pin_10_10*%
%TO.N,IO38*%
X120000000Y-53500000D03*
D12*
%TO.P,J3,11*%
%TO.N,N/C*%
X109700000Y-57375000D03*
%TO.P,J3,12*%
X121300000Y-57375000D03*
%TD*%
D13*
%TO.P,L3,1,1_1*%
%TO.N,VDD_CPU*%
X109517678Y-39517678D03*
%TO.P,L3,2,2_2*%
%TO.N,Net-(C19-Pad1)*%
X109970226Y-39970226D03*
%TD*%
D14*
%TO.P,C26,1*%
%TO.N,VDD_CPU*%
X106000000Y-47000000D03*
%TO.P,C26,2*%
%TO.N,GND*%
X105547452Y-47452548D03*
%TD*%
D10*
%TO.P,C31,1*%
%TO.N,Net-(AE1-FEED)*%
X109452548Y-38452548D03*
%TO.P,C31,2*%
%TO.N,GND*%
X109000000Y-38000000D03*
%TD*%
D14*
%TO.P,C10,1*%
%TO.N,VDD_CPU*%
X106517678Y-47482322D03*
%TO.P,C10,2*%
%TO.N,GND*%
X106065130Y-47934870D03*
%TD*%
D13*
%TO.P,R2,1*%
%TO.N,VDD_CPU*%
X107017678Y-42017678D03*
%TO.P,R2,2*%
%TO.N,EN*%
X107470226Y-42470226D03*
%TD*%
D14*
%TO.P,C11,1*%
%TO.N,VDD_CPU*%
X107000000Y-48000000D03*
%TO.P,C11,2*%
%TO.N,GND*%
X106547452Y-48452548D03*
%TD*%
D15*
%TO.P,C1,1*%
%TO.N,Net-(U1-XTAL_P)*%
X113992781Y-39433233D03*
%TO.P,C1,2*%
%TO.N,GND*%
X114445329Y-38980685D03*
%TD*%
D16*
%TO.P,J1,1,Pin_1_1*%
%TO.N,IO0*%
X106500000Y-38800000D03*
%TO.P,J1,2,Pin_2_2*%
%TO.N,EN*%
X106500000Y-37800000D03*
D17*
%TO.P,J1,MP*%
%TO.N,N/C*%
X103975000Y-40100000D03*
X103975000Y-36500000D03*
%TD*%
D15*
%TO.P,C13,1*%
%TO.N,VDD_SPI*%
X112517678Y-50982322D03*
%TO.P,C13,2*%
%TO.N,GND*%
X112970226Y-50529774D03*
%TD*%
D18*
%TO.P,J2,1,Pin_1_1*%
%TO.N,VDD_CPU*%
X105000000Y-52500000D03*
%TO.P,J2,2,Pin_2_2*%
%TO.N,GND*%
X106500000Y-52500000D03*
%TD*%
D15*
%TO.P,C32,1*%
%TO.N,VDD_SPI*%
X113017678Y-51482322D03*
%TO.P,C32,2*%
%TO.N,GND*%
X113470226Y-51029774D03*
%TD*%
D19*
%TO.P,U1,1,LNA_IN_1*%
%TO.N,Net-(U1-LNA_IN)*%
X110839411Y-41162456D03*
%TO.P,U1,2,VDD3P3_2*%
%TO.N,Net-(C19-Pad1)*%
X110556569Y-41445299D03*
%TO.P,U1,3,VDD3P3_3*%
X110273726Y-41728141D03*
%TO.P,U1,4,CHIP_PU_4*%
%TO.N,EN*%
X109990883Y-42010984D03*
%TO.P,U1,5,GPIO0_5*%
%TO.N,IO0*%
X109708040Y-42293827D03*
%TO.P,U1,6,GPIO1_6*%
%TO.N,IO1*%
X109425198Y-42576670D03*
%TO.P,U1,7,GPIO2_7*%
%TO.N,IO2*%
X109142355Y-42859512D03*
%TO.P,U1,8,GPIO3_8*%
%TO.N,IO3*%
X108859512Y-43142355D03*
%TO.P,U1,9,GPIO4_9*%
%TO.N,IO4{slash}BAT*%
X108576670Y-43425198D03*
%TO.P,U1,10,GPIO5_10*%
%TO.N,IO5*%
X108293827Y-43708040D03*
%TO.P,U1,11,GPIO6_11*%
%TO.N,IO6*%
X108010984Y-43990883D03*
%TO.P,U1,12,GPIO7_12*%
%TO.N,IO7*%
X107728141Y-44273726D03*
%TO.P,U1,13,GPIO8_13*%
%TO.N,IO8*%
X107445299Y-44556569D03*
%TO.P,U1,14,GPIO9_14*%
%TO.N,IO9*%
X107162456Y-44839411D03*
D20*
%TO.P,U1,15,GPIO10_15*%
%TO.N,IO10*%
X107162456Y-46041493D03*
%TO.P,U1,16,GPIO11_16*%
%TO.N,IO11*%
X107445299Y-46324335D03*
%TO.P,U1,17,GPIO12_17*%
%TO.N,IO12*%
X107728141Y-46607178D03*
%TO.P,U1,18,GPIO13_18*%
%TO.N,IO13*%
X108010984Y-46890021D03*
%TO.P,U1,19,GPIO14_19*%
%TO.N,IO14*%
X108293827Y-47172864D03*
%TO.P,U1,20,VDD3P3_RTC_20*%
%TO.N,VDD_CPU*%
X108576670Y-47455706D03*
%TO.P,U1,21,XTAL_32K_P_21*%
%TO.N,XTAL32P*%
X108859512Y-47738549D03*
%TO.P,U1,22,XTAL_32K_N_22*%
%TO.N,XTAL32N*%
X109142355Y-48021392D03*
%TO.P,U1,23,GPIO17_23*%
%TO.N,IO17{slash}SCL*%
X109425198Y-48304234D03*
%TO.P,U1,24,GPIO18_24*%
%TO.N,IO18{slash}SDA*%
X109708040Y-48587077D03*
%TO.P,U1,25,GPIO19/USB_D-_25*%
%TO.N,USB_D-*%
X109990883Y-48869920D03*
%TO.P,U1,26,GPIO20/USB_D+_26*%
%TO.N,USB_D+*%
X110273726Y-49152763D03*
%TO.P,U1,27,GPIO21_27*%
%TO.N,IO21*%
X110556569Y-49435605D03*
%TO.P,U1,28,SPICS1_28*%
%TO.N,unconnected-(U1-SPICS1-Pad28)*%
X110839411Y-49718448D03*
D19*
%TO.P,U1,29,VDD_SPI_29*%
%TO.N,VDD_SPI*%
X112041493Y-49718448D03*
%TO.P,U1,30,SPIHD_30*%
%TO.N,SPIHD*%
X112324335Y-49435605D03*
%TO.P,U1,31,SPIWP_31*%
%TO.N,SPIWP*%
X112607178Y-49152763D03*
%TO.P,U1,32,SPICS0_32*%
%TO.N,SPICS0*%
X112890021Y-48869920D03*
%TO.P,U1,33,SPICLK_33*%
%TO.N,SPISCK*%
X113172864Y-48587077D03*
%TO.P,U1,34,SPIQ_34*%
%TO.N,SPIQ*%
X113455706Y-48304234D03*
%TO.P,U1,35,SPID_35*%
%TO.N,SPID*%
X113738549Y-48021392D03*
%TO.P,U1,36,SPICLK_N_36*%
%TO.N,IO48*%
X114021392Y-47738549D03*
%TO.P,U1,37,SPICLK_P_37*%
%TO.N,IO47*%
X114304234Y-47455706D03*
%TO.P,U1,38,GPIO33_38*%
%TO.N,IO33*%
X114587077Y-47172864D03*
%TO.P,U1,39,GPIO34_39*%
%TO.N,IO34*%
X114869920Y-46890021D03*
%TO.P,U1,40,GPIO35_40*%
%TO.N,IO35*%
X115152763Y-46607178D03*
%TO.P,U1,41,GPIO36_41*%
%TO.N,IO36*%
X115435605Y-46324335D03*
%TO.P,U1,42,GPIO37_42*%
%TO.N,IO37*%
X115718448Y-46041493D03*
D20*
%TO.P,U1,43,GPIO38_43*%
%TO.N,IO38*%
X115718448Y-44839411D03*
%TO.P,U1,44,MTCK_44*%
%TO.N,IO39*%
X115435605Y-44556569D03*
%TO.P,U1,45,MTDO_45*%
%TO.N,IO40*%
X115152763Y-44273726D03*
%TO.P,U1,46,VDD3P3_CPU_46*%
%TO.N,VDD_CPU*%
X114869920Y-43990883D03*
%TO.P,U1,47,MTDI_47*%
%TO.N,IO41*%
X114587077Y-43708040D03*
%TO.P,U1,48,MTMS_48*%
%TO.N,IO42*%
X114304234Y-43425198D03*
%TO.P,U1,49,U0TXD_49*%
%TO.N,TX*%
X114021392Y-43142355D03*
%TO.P,U1,50,U0RXD_50*%
%TO.N,RX*%
X113738549Y-42859512D03*
%TO.P,U1,51,GPIO45_51*%
%TO.N,IO45*%
X113455706Y-42576670D03*
%TO.P,U1,52,GPIO46_52*%
%TO.N,IO46*%
X113172864Y-42293827D03*
%TO.P,U1,53,XTAL_N_53*%
%TO.N,Net-(U1-XTAL_N)*%
X112890021Y-42010984D03*
%TO.P,U1,54,XTAL_P_54*%
%TO.N,Net-(U1-XTAL_P)*%
X112607178Y-41728141D03*
%TO.P,U1,55,VDDA_55*%
%TO.N,VDD_CPU*%
X112324335Y-41445299D03*
%TO.P,U1,56,VDDA_56*%
X112041493Y-41162456D03*
D21*
%TO.P,U1,57,GND_57*%
%TO.N,GND*%
X111440452Y-45440452D03*
%TD*%
D14*
%TO.P,C2,1*%
%TO.N,VDD_CPU*%
X105500000Y-46500000D03*
%TO.P,C2,2*%
%TO.N,GND*%
X105047452Y-46952548D03*
%TD*%
D10*
%TO.P,R22,1*%
%TO.N,EN*%
X107970226Y-41970226D03*
%TO.P,R22,2*%
%TO.N,VDD_CPU*%
X107517678Y-41517678D03*
%TD*%
%TO.P,C16,1*%
%TO.N,EN*%
X108482322Y-40482322D03*
%TO.P,C16,2*%
%TO.N,GND*%
X108029774Y-40029774D03*
%TD*%
%TO.P,DNP1,1*%
%TO.N,Net-(U1-LNA_IN)*%
X110952548Y-38952548D03*
%TO.P,DNP1,2*%
%TO.N,GND*%
X110500000Y-38500000D03*
%TD*%
D14*
%TO.P,C25,1*%
%TO.N,VDD_CPU*%
X107982322Y-49017678D03*
%TO.P,C25,2*%
%TO.N,GND*%
X107529774Y-49470226D03*
%TD*%
D15*
%TO.P,C33,1*%
%TO.N,GND*%
X117273726Y-42726274D03*
%TO.P,C33,2*%
%TO.N,Net-(U1-XTAL_N)*%
X117726274Y-42273726D03*
%TD*%
D10*
%TO.P,L6,1,1_1*%
%TO.N,Net-(U1-LNA_IN)*%
X110452548Y-39452548D03*
%TO.P,L6,2,2_2*%
%TO.N,Net-(AE1-FEED)*%
X110000000Y-39000000D03*
%TD*%
D22*
%TO.P,Y2,1,1_1*%
%TO.N,Net-(U1-XTAL_P)*%
X115010051Y-40489949D03*
%TO.P,Y2,2,2_2*%
%TO.N,GND*%
X116247488Y-41727386D03*
%TO.P,Y2,3,3_3*%
%TO.N,Net-(U1-XTAL_N)*%
X117237437Y-40737437D03*
%TO.P,Y2,4,4_4*%
%TO.N,GND*%
X116000000Y-39500000D03*
%TD*%
D13*
%TO.P,R21,1*%
%TO.N,VDD_CPU*%
X106517678Y-42517678D03*
%TO.P,R21,2*%
%TO.N,IO0*%
X106970226Y-42970226D03*
%TD*%
D10*
%TO.P,C19,1*%
%TO.N,Net-(C19-Pad1)*%
X109470226Y-40470226D03*
%TO.P,C19,2*%
%TO.N,GND*%
X109017678Y-40017678D03*
%TD*%
D14*
%TO.P,C39,1*%
%TO.N,VDD_CPU*%
X107500000Y-48500000D03*
%TO.P,C39,2*%
%TO.N,GND*%
X107047452Y-48952548D03*
%TD*%
D10*
%TO.P,C15,1*%
%TO.N,EN*%
X108470226Y-41470226D03*
%TO.P,C15,2*%
%TO.N,GND*%
X108017678Y-41017678D03*
%TD*%
D23*
%TO.N,VDD_CPU*%
X115500000Y-43000000D03*
X105000000Y-45500000D03*
X104000000Y-49500000D03*
X113000000Y-39000000D03*
X108500000Y-38500000D03*
X106000000Y-42000000D03*
%TO.N,GND*%
X112273726Y-38773726D03*
X113500000Y-50000000D03*
X109500000Y-37500000D03*
X107529774Y-50500000D03*
X115000000Y-38500000D03*
X108500000Y-39500000D03*
X113000000Y-47500000D03*
X118000000Y-43500000D03*
X111000000Y-38000000D03*
%TO.N,EN*%
X109000000Y-41000000D03*
X107500000Y-36500000D03*
%TO.N,IO0*%
X106000000Y-44000000D03*
X105000000Y-39000000D03*
%TD*%
%TO.N,VDD_CPU*%
D24*
X106482322Y-47482322D02*
X106000000Y-47000000D01*
X112041493Y-41162456D02*
X112324335Y-41445299D01*
X115500000Y-43360803D02*
X115500000Y-43000000D01*
X105000000Y-50500000D02*
X104000000Y-49500000D01*
X106000000Y-47000000D02*
X105500000Y-46500000D01*
X107000000Y-48000000D02*
X107000000Y-47964644D01*
X112726274Y-40226274D02*
X112726274Y-40477675D01*
X113000000Y-39952548D02*
X113000000Y-39000000D01*
X107982322Y-48982322D02*
X107500000Y-48500000D01*
X105500000Y-46500000D02*
X105000000Y-46000000D01*
X105000000Y-46000000D02*
X105000000Y-45500000D01*
X106517678Y-47482322D02*
X106482322Y-47482322D01*
X106517678Y-42517678D02*
X106000000Y-42000000D01*
X107532376Y-48500000D02*
X108576670Y-47455706D01*
X109517678Y-39517678D02*
X108500000Y-38500000D01*
X112726274Y-40226274D02*
X113000000Y-39952548D01*
X107500000Y-48500000D02*
X107532376Y-48500000D01*
X106517678Y-42517678D02*
X107017678Y-42017678D01*
X105000000Y-52500000D02*
X105000000Y-50500000D01*
X107000000Y-47964644D02*
X106517678Y-47482322D01*
X112726274Y-40477675D02*
X112041493Y-41162456D01*
X107982322Y-49017678D02*
X107982322Y-48982322D01*
X114869920Y-43990883D02*
X115500000Y-43360803D01*
X107017678Y-42017678D02*
X107517678Y-41517678D01*
X107500000Y-48500000D02*
X107000000Y-48000000D01*
%TO.N,GND*%
X117273726Y-42726274D02*
X117273726Y-42773726D01*
X117273726Y-42773726D02*
X118000000Y-43500000D01*
X112970226Y-50529774D02*
X113500000Y-50000000D01*
X113000000Y-47000000D02*
X113000000Y-47500000D01*
X105047452Y-46987904D02*
X105047452Y-46952548D01*
X107855044Y-40855044D02*
X107855044Y-40204504D01*
X108017678Y-41017678D02*
X107855044Y-40855044D01*
X108029774Y-39970226D02*
X108500000Y-39500000D01*
X107529774Y-49470226D02*
X105047452Y-46987904D01*
X109000000Y-38000000D02*
X109500000Y-37500000D01*
X107529774Y-50500000D02*
X107529774Y-51470226D01*
X117246376Y-42726274D02*
X116247488Y-41727386D01*
X110500000Y-38500000D02*
X111000000Y-38000000D01*
X117273726Y-42726274D02*
X117246376Y-42726274D01*
X108029774Y-40029774D02*
X108029774Y-39970226D01*
X114926014Y-38500000D02*
X115000000Y-38500000D01*
X111440452Y-45440452D02*
X113000000Y-47000000D01*
X112970226Y-50529774D02*
X113470226Y-51029774D01*
X107529774Y-49470226D02*
X107529774Y-50500000D01*
X109017678Y-40017678D02*
X108500000Y-39500000D01*
X114445329Y-38980685D02*
X114926014Y-38500000D01*
X107529774Y-51470226D02*
X106500000Y-52500000D01*
X116000000Y-39500000D02*
X115000000Y-38500000D01*
X107855044Y-40204504D02*
X108029774Y-40029774D01*
X112273726Y-39773726D02*
X112273726Y-38773726D01*
%TO.N,USB_D-*%
D25*
X109712137Y-52212137D02*
X109712137Y-49148666D01*
X109712137Y-49148666D02*
X109990883Y-48869920D01*
X111000000Y-53500000D02*
X109712137Y-52212137D01*
%TO.N,USB_D+*%
X110882776Y-48874016D02*
X110552473Y-48874016D01*
X111401000Y-49392240D02*
X110882776Y-48874016D01*
X110552473Y-48874016D02*
X110273726Y-49152763D01*
X111401000Y-52401000D02*
X111401000Y-49392240D01*
X112000000Y-53000000D02*
X111401000Y-52401000D01*
X112000000Y-53500000D02*
X112000000Y-53000000D01*
%TO.N,IO48*%
D24*
X114298431Y-51201569D02*
X114298431Y-48015588D01*
X114298431Y-48015588D02*
X114021392Y-47738549D01*
X113000000Y-52500000D02*
X114298431Y-51201569D01*
X113000000Y-53500000D02*
X113000000Y-52500000D01*
%TO.N,IO47*%
X114000000Y-53500000D02*
X114000000Y-52500000D01*
X114000000Y-52500000D02*
X114600691Y-51899309D01*
X114600691Y-47752163D02*
X114304234Y-47455706D01*
X114600691Y-51899309D02*
X114600691Y-47752163D01*
%TO.N,IO33*%
X115000000Y-47585787D02*
X114587077Y-47172864D01*
X115000000Y-53500000D02*
X115000000Y-47585787D01*
%TO.N,IO34*%
X116000000Y-53500000D02*
X116000000Y-48020101D01*
X116000000Y-48020101D02*
X114869920Y-46890021D01*
%TO.N,IO35*%
X117000000Y-53500000D02*
X117000000Y-48454415D01*
X117000000Y-48454415D02*
X115152763Y-46607178D01*
%TO.N,IO36*%
X118000000Y-48888730D02*
X115435605Y-46324335D01*
X118000000Y-53500000D02*
X118000000Y-48888730D01*
%TO.N,IO37*%
X119000000Y-49323045D02*
X115718448Y-46041493D01*
X119000000Y-53500000D02*
X119000000Y-49323045D01*
%TO.N,IO38*%
X120000000Y-49120963D02*
X115718448Y-44839411D01*
X120000000Y-53500000D02*
X120000000Y-49120963D01*
%TO.N,Net-(C19-Pad1)*%
X109970226Y-39970226D02*
X109470226Y-40470226D01*
X109470226Y-40470226D02*
X109581496Y-40470226D01*
X109581496Y-40470226D02*
X110556569Y-41445299D01*
X110273726Y-41728141D02*
X110273726Y-41273726D01*
X110273726Y-41273726D02*
X109470226Y-40470226D01*
%TO.N,Net-(AE1-FEED)*%
X110000000Y-39000000D02*
X109452548Y-38452548D01*
%TO.N,EN*%
X109000000Y-41000000D02*
X108482322Y-40482322D01*
X106500000Y-37800000D02*
X106500000Y-37500000D01*
X109000000Y-41000000D02*
X109000000Y-41020101D01*
X109000000Y-41020101D02*
X109990883Y-42010984D01*
X107470226Y-42470226D02*
X108470226Y-41470226D01*
X108529774Y-41470226D02*
X109000000Y-41000000D01*
X106500000Y-37500000D02*
X107500000Y-36500000D01*
X108470226Y-41470226D02*
X108529774Y-41470226D01*
%TO.N,Net-(U1-XTAL_P)*%
X115010051Y-40450503D02*
X113992781Y-39433233D01*
X115010051Y-40489949D02*
X115010051Y-40450503D01*
X112607178Y-41728141D02*
X113845370Y-40489949D01*
X113845370Y-40489949D02*
X115010051Y-40489949D01*
%TO.N,IO0*%
X106970226Y-42970226D02*
X107000000Y-43000000D01*
X107000000Y-43000000D02*
X108000000Y-43000000D01*
X109431001Y-42016788D02*
X109708040Y-42293827D01*
X106000000Y-43940452D02*
X106970226Y-42970226D01*
X108000000Y-43000000D02*
X108983212Y-42016788D01*
X106500000Y-38800000D02*
X105200000Y-38800000D01*
X106000000Y-44000000D02*
X106000000Y-43940452D01*
X108983212Y-42016788D02*
X109431001Y-42016788D01*
X105200000Y-38800000D02*
X105000000Y-39000000D01*
%TO.N,VDD_SPI*%
X112517678Y-50982322D02*
X112041493Y-50506137D01*
X112041493Y-50506137D02*
X112041493Y-49718448D01*
X113017678Y-51482322D02*
X112517678Y-50982322D01*
%TO.N,Net-(U1-LNA_IN)*%
X110952548Y-38952548D02*
X110452548Y-39452548D01*
X110839411Y-41162456D02*
X110839411Y-39839411D01*
X110839411Y-39839411D02*
X110452548Y-39452548D01*
%TO.N,IO5*%
X108293827Y-43793827D02*
X108293827Y-43708040D01*
%TO.N,Net-(U1-XTAL_N)*%
X117726274Y-41226274D02*
X117237437Y-40737437D01*
X117766507Y-42159507D02*
X117766507Y-42233493D01*
X115895433Y-40737437D02*
X114898925Y-41733945D01*
X117726274Y-42273726D02*
X117726274Y-41226274D01*
X117237437Y-40737437D02*
X115895433Y-40737437D01*
X113167060Y-41733945D02*
X112890021Y-42010984D01*
X114898925Y-41733945D02*
X113167060Y-41733945D01*
%TD*%
M02*
