%TF.GenerationSoftware,KiCad,Pcbnew,10.0.1*%
%TF.CreationDate,2026-05-18T21:08:31+02:00*%
%TF.ProjectId,esp32v2,65737033-3276-4322-9e6b-696361645f70,rev?*%
%TF.SameCoordinates,Original*%
%TF.FileFunction,Copper,L4,Bot*%
%TF.FilePolarity,Positive*%
%FSLAX46Y46*%
G04 Gerber Fmt 4.6, Leading zero omitted, Abs format (unit mm)*
G04 Created by KiCad (PCBNEW 10.0.1) date 2026-05-18 21:08:31*
%MOMM*%
%LPD*%
G01*
G04 APERTURE LIST*
%TA.AperFunction,ComponentPad*%
%ADD10C,1.100000*%
%TD*%
%TA.AperFunction,ViaPad*%
%ADD11C,0.604799*%
%TD*%
G04 APERTURE END LIST*
D10*
%TO.P,J2,1,Pin_1_1*%
%TO.N,VDD_CPU*%
X105000000Y-58900000D03*
%TO.P,J2,2,Pin_2_2*%
%TO.N,GND*%
X106500000Y-58900000D03*
%TD*%
D11*
%TO.N,VDD_CPU*%
X117196192Y-50594875D03*
X108003806Y-44938021D03*
X104500000Y-60500000D03*
X111002760Y-43353282D03*
X118256854Y-45998683D03*
X115428425Y-42463147D03*
X112770526Y-41585514D03*
%TO.N,GND*%
X107010255Y-45010255D03*
X117903301Y-45325129D03*
X110832233Y-54130409D03*
X120500000Y-46500000D03*
X120000000Y-43500000D03*
X114721320Y-43170255D03*
X106500000Y-60000000D03*
X112770528Y-44413941D03*
X112246447Y-52009090D03*
X115500000Y-39500000D03*
X118610409Y-52716196D03*
X104000000Y-45000000D03*
%TD*%
%TA.AperFunction,Conductor*%
%TO.N,GND*%
G36*
X121443039Y-36520185D02*
G01*
X121488794Y-36572989D01*
X121500000Y-36624500D01*
X121500000Y-63876000D01*
X121480315Y-63943039D01*
X121427511Y-63988794D01*
X121376000Y-64000000D01*
X102624000Y-64000000D01*
X102556961Y-63980315D01*
X102511206Y-63927511D01*
X102500000Y-63876000D01*
X102500000Y-60420916D01*
X103697101Y-60420916D01*
X103697101Y-60579083D01*
X103727954Y-60734189D01*
X103727957Y-60734201D01*
X103788477Y-60880310D01*
X103788478Y-60880312D01*
X103876347Y-61011818D01*
X103988181Y-61123652D01*
X104075653Y-61182098D01*
X104119685Y-61211520D01*
X104119686Y-61211520D01*
X104119687Y-61211521D01*
X104119689Y-61211522D01*
X104265798Y-61272042D01*
X104265803Y-61272044D01*
X104420916Y-61302898D01*
X104420919Y-61302899D01*
X104420921Y-61302899D01*
X104579081Y-61302899D01*
X104579082Y-61302898D01*
X104734197Y-61272044D01*
X104880315Y-61211520D01*
X105011818Y-61123652D01*
X105123652Y-61011818D01*
X105211520Y-60880315D01*
X105272044Y-60734197D01*
X105302899Y-60579079D01*
X105302899Y-60420921D01*
X105302899Y-60420918D01*
X105302898Y-60420916D01*
X105272045Y-60265810D01*
X105272044Y-60265803D01*
X105211520Y-60119685D01*
X105202160Y-60105677D01*
X105181284Y-60039002D01*
X105199769Y-59971622D01*
X105251748Y-59924932D01*
X105281069Y-59915172D01*
X105306420Y-59910130D01*
X105497598Y-59830941D01*
X105545970Y-59798620D01*
X105954931Y-59798620D01*
X105954932Y-59798621D01*
X106002633Y-59830495D01*
X106002639Y-59830498D01*
X106193725Y-59909649D01*
X106193733Y-59909651D01*
X106396579Y-59949999D01*
X106396583Y-59950000D01*
X106603417Y-59950000D01*
X106603420Y-59949999D01*
X106806266Y-59909651D01*
X106806274Y-59909649D01*
X106997366Y-59830495D01*
X107045066Y-59798621D01*
X107045067Y-59798620D01*
X106500001Y-59253554D01*
X106500000Y-59253554D01*
X105954931Y-59798620D01*
X105545970Y-59798620D01*
X105669655Y-59715977D01*
X105680298Y-59705334D01*
X105720905Y-59664728D01*
X105815974Y-59569658D01*
X105815975Y-59569657D01*
X105815977Y-59569655D01*
X105930941Y-59397598D01*
X106010130Y-59206420D01*
X106045029Y-59030970D01*
X106055853Y-58999476D01*
X106119429Y-58872983D01*
X106100368Y-58853922D01*
X106150000Y-58853922D01*
X106150000Y-58946078D01*
X106173852Y-59035095D01*
X106219930Y-59114905D01*
X106285095Y-59180070D01*
X106364905Y-59226148D01*
X106453922Y-59250000D01*
X106546078Y-59250000D01*
X106635095Y-59226148D01*
X106714905Y-59180070D01*
X106780070Y-59114905D01*
X106826148Y-59035095D01*
X106850000Y-58946078D01*
X106850000Y-58899999D01*
X106853554Y-58899999D01*
X106853554Y-58900001D01*
X107398620Y-59445067D01*
X107398621Y-59445066D01*
X107430495Y-59397366D01*
X107509649Y-59206274D01*
X107509651Y-59206266D01*
X107549999Y-59003420D01*
X107550000Y-59003417D01*
X107550000Y-58796583D01*
X107549999Y-58796579D01*
X107509651Y-58593733D01*
X107509649Y-58593725D01*
X107430498Y-58402639D01*
X107430495Y-58402633D01*
X107398621Y-58354932D01*
X107398620Y-58354931D01*
X106853554Y-58899999D01*
X106850000Y-58899999D01*
X106850000Y-58853922D01*
X106826148Y-58764905D01*
X106780070Y-58685095D01*
X106714905Y-58619930D01*
X106635095Y-58573852D01*
X106546078Y-58550000D01*
X106453922Y-58550000D01*
X106364905Y-58573852D01*
X106285095Y-58619930D01*
X106219930Y-58685095D01*
X106173852Y-58764905D01*
X106150000Y-58853922D01*
X106100368Y-58853922D01*
X106078965Y-58832519D01*
X106045480Y-58771196D01*
X106045029Y-58769029D01*
X106010160Y-58593733D01*
X106010130Y-58593580D01*
X105930941Y-58402402D01*
X105815977Y-58230345D01*
X105815975Y-58230342D01*
X105669657Y-58084024D01*
X105545967Y-58001378D01*
X105545966Y-58001377D01*
X105954932Y-58001377D01*
X105954932Y-58001378D01*
X106500000Y-58546446D01*
X106500001Y-58546446D01*
X107045067Y-58001378D01*
X107045067Y-58001377D01*
X106997359Y-57969500D01*
X106806274Y-57890350D01*
X106806266Y-57890348D01*
X106603420Y-57850000D01*
X106396579Y-57850000D01*
X106193733Y-57890348D01*
X106193725Y-57890350D01*
X106002641Y-57969500D01*
X106002631Y-57969505D01*
X105954932Y-58001377D01*
X105545966Y-58001377D01*
X105497598Y-57969059D01*
X105306420Y-57889870D01*
X105306412Y-57889868D01*
X105103469Y-57849500D01*
X105103465Y-57849500D01*
X104896535Y-57849500D01*
X104896530Y-57849500D01*
X104693587Y-57889868D01*
X104693579Y-57889870D01*
X104502403Y-57969058D01*
X104330342Y-58084024D01*
X104184024Y-58230342D01*
X104069058Y-58402403D01*
X103989870Y-58593579D01*
X103989868Y-58593587D01*
X103949500Y-58796530D01*
X103949500Y-59003469D01*
X103989868Y-59206412D01*
X103989870Y-59206420D01*
X104069058Y-59397596D01*
X104184024Y-59569657D01*
X104188686Y-59574319D01*
X104222171Y-59635642D01*
X104217187Y-59705334D01*
X104175315Y-59761267D01*
X104148460Y-59776560D01*
X104119688Y-59788478D01*
X104119687Y-59788478D01*
X103988181Y-59876347D01*
X103876347Y-59988181D01*
X103788478Y-60119687D01*
X103788477Y-60119689D01*
X103727957Y-60265798D01*
X103727954Y-60265810D01*
X103697101Y-60420916D01*
X102500000Y-60420916D01*
X102500000Y-50515791D01*
X116393293Y-50515791D01*
X116393293Y-50673958D01*
X116424146Y-50829064D01*
X116424149Y-50829076D01*
X116484669Y-50975185D01*
X116484670Y-50975187D01*
X116572539Y-51106693D01*
X116684373Y-51218527D01*
X116725026Y-51245690D01*
X116815877Y-51306395D01*
X116815878Y-51306395D01*
X116815879Y-51306396D01*
X116815881Y-51306397D01*
X116929224Y-51353345D01*
X116961995Y-51366919D01*
X117117108Y-51397773D01*
X117117111Y-51397774D01*
X117117113Y-51397774D01*
X117275273Y-51397774D01*
X117275274Y-51397773D01*
X117430389Y-51366919D01*
X117576507Y-51306395D01*
X117690437Y-51230268D01*
X117720735Y-51220781D01*
X117750481Y-51209687D01*
X117753836Y-51210416D01*
X117757113Y-51209391D01*
X117787731Y-51217790D01*
X117818754Y-51224539D01*
X117822468Y-51227319D01*
X117824493Y-51227875D01*
X117847008Y-51245690D01*
X117866982Y-51265664D01*
X117900467Y-51326987D01*
X117903301Y-51353345D01*
X117903301Y-52009090D01*
X119317515Y-52009090D01*
X119988303Y-51338299D01*
X120049624Y-51304816D01*
X120075973Y-51301982D01*
X120731728Y-51301982D01*
X120731727Y-47059341D01*
X119671068Y-46705789D01*
X118982007Y-46705789D01*
X118914968Y-46686104D01*
X118869213Y-46633300D01*
X118859269Y-46564142D01*
X118878905Y-46512899D01*
X118938159Y-46424216D01*
X118968374Y-46378998D01*
X119028898Y-46232880D01*
X119059753Y-46077762D01*
X119059753Y-45919604D01*
X119059753Y-45919601D01*
X119059752Y-45919599D01*
X119028899Y-45764493D01*
X119028898Y-45764486D01*
X118981287Y-45649542D01*
X118968376Y-45618372D01*
X118968375Y-45618370D01*
X118880506Y-45486864D01*
X118768672Y-45375030D01*
X118637166Y-45287161D01*
X118637164Y-45287160D01*
X118491055Y-45226640D01*
X118491043Y-45226637D01*
X118335936Y-45195784D01*
X118335933Y-45195784D01*
X118177775Y-45195784D01*
X118177772Y-45195784D01*
X118022664Y-45226637D01*
X118022652Y-45226640D01*
X117876543Y-45287160D01*
X117876541Y-45287161D01*
X117745035Y-45375030D01*
X117633201Y-45486864D01*
X117545332Y-45618370D01*
X117545331Y-45618372D01*
X117484811Y-45764481D01*
X117484808Y-45764493D01*
X117453955Y-45919599D01*
X117453955Y-46077766D01*
X117484808Y-46232872D01*
X117484811Y-46232884D01*
X117545331Y-46378993D01*
X117545332Y-46378995D01*
X117633201Y-46510501D01*
X117745035Y-46622335D01*
X117832507Y-46680781D01*
X117876539Y-46710203D01*
X117876540Y-46710203D01*
X117876541Y-46710204D01*
X117876543Y-46710205D01*
X117970886Y-46749283D01*
X118025290Y-46793124D01*
X118047355Y-46859418D01*
X118030076Y-46927117D01*
X118011115Y-46951525D01*
X117549746Y-47412894D01*
X117549746Y-49695477D01*
X117530061Y-49762516D01*
X117477257Y-49808271D01*
X117408099Y-49818215D01*
X117401555Y-49817095D01*
X117309261Y-49798737D01*
X117275271Y-49791976D01*
X117117113Y-49791976D01*
X117117110Y-49791976D01*
X116962002Y-49822829D01*
X116961990Y-49822832D01*
X116815881Y-49883352D01*
X116815879Y-49883353D01*
X116684373Y-49971222D01*
X116572539Y-50083056D01*
X116484670Y-50214562D01*
X116484669Y-50214564D01*
X116424149Y-50360673D01*
X116424146Y-50360685D01*
X116393293Y-50515791D01*
X102500000Y-50515791D01*
X102500000Y-44858937D01*
X107200907Y-44858937D01*
X107200907Y-45017104D01*
X107231760Y-45172210D01*
X107231763Y-45172222D01*
X107292283Y-45318331D01*
X107292284Y-45318333D01*
X107380153Y-45449839D01*
X107491987Y-45561673D01*
X107576838Y-45618368D01*
X107623491Y-45649541D01*
X107623492Y-45649541D01*
X107623493Y-45649542D01*
X107623495Y-45649543D01*
X107769604Y-45710063D01*
X107769609Y-45710065D01*
X107924722Y-45740919D01*
X107924725Y-45740920D01*
X107924727Y-45740920D01*
X108082887Y-45740920D01*
X108082888Y-45740919D01*
X108238003Y-45710065D01*
X108384121Y-45649541D01*
X108515624Y-45561673D01*
X108627458Y-45449839D01*
X108715326Y-45318336D01*
X108775850Y-45172218D01*
X108806705Y-45017100D01*
X108806705Y-44858942D01*
X108806705Y-44858939D01*
X108806704Y-44858937D01*
X108775851Y-44703831D01*
X108775850Y-44703824D01*
X108715326Y-44557706D01*
X108685904Y-44513674D01*
X108627458Y-44426202D01*
X108515624Y-44314368D01*
X108384118Y-44226499D01*
X108384116Y-44226498D01*
X108238007Y-44165978D01*
X108237995Y-44165975D01*
X108082888Y-44135122D01*
X108082885Y-44135122D01*
X107924727Y-44135122D01*
X107924724Y-44135122D01*
X107769616Y-44165975D01*
X107769604Y-44165978D01*
X107623495Y-44226498D01*
X107623493Y-44226499D01*
X107491987Y-44314368D01*
X107380153Y-44426202D01*
X107292284Y-44557708D01*
X107292283Y-44557710D01*
X107231763Y-44703819D01*
X107231760Y-44703831D01*
X107200907Y-44858937D01*
X102500000Y-44858937D01*
X102500000Y-43274198D01*
X110199861Y-43274198D01*
X110199861Y-43432365D01*
X110230714Y-43587471D01*
X110230717Y-43587483D01*
X110291237Y-43733592D01*
X110291238Y-43733594D01*
X110379107Y-43865100D01*
X110490941Y-43976934D01*
X110578413Y-44035380D01*
X110622445Y-44064802D01*
X110622446Y-44064802D01*
X110622447Y-44064803D01*
X110622449Y-44064804D01*
X110768558Y-44125324D01*
X110768563Y-44125326D01*
X110923676Y-44156180D01*
X110923679Y-44156181D01*
X110923681Y-44156181D01*
X111081841Y-44156181D01*
X111081842Y-44156180D01*
X111236957Y-44125326D01*
X111383075Y-44064802D01*
X111514578Y-43976934D01*
X111626412Y-43865100D01*
X111714280Y-43733597D01*
X111774804Y-43587479D01*
X111805659Y-43432361D01*
X111805659Y-43274203D01*
X111805659Y-43274200D01*
X111805658Y-43274198D01*
X111774805Y-43119092D01*
X111774804Y-43119085D01*
X111740522Y-43036320D01*
X111714282Y-42972971D01*
X111714281Y-42972969D01*
X111626412Y-42841463D01*
X111514578Y-42729629D01*
X111383072Y-42641760D01*
X111383070Y-42641759D01*
X111236961Y-42581239D01*
X111236949Y-42581236D01*
X111081842Y-42550383D01*
X111081839Y-42550383D01*
X110923681Y-42550383D01*
X110923678Y-42550383D01*
X110768570Y-42581236D01*
X110768558Y-42581239D01*
X110622449Y-42641759D01*
X110622447Y-42641760D01*
X110490941Y-42729629D01*
X110379107Y-42841463D01*
X110291238Y-42972969D01*
X110291237Y-42972971D01*
X110230717Y-43119080D01*
X110230714Y-43119092D01*
X110199861Y-43274198D01*
X102500000Y-43274198D01*
X102500000Y-41506430D01*
X111967627Y-41506430D01*
X111967627Y-41664597D01*
X111998480Y-41819703D01*
X111998483Y-41819715D01*
X112059003Y-41965824D01*
X112059004Y-41965826D01*
X112146873Y-42097332D01*
X112258707Y-42209166D01*
X112346179Y-42267612D01*
X112390211Y-42297034D01*
X112390212Y-42297034D01*
X112390213Y-42297035D01*
X112390215Y-42297036D01*
X112536324Y-42357556D01*
X112536329Y-42357558D01*
X112691442Y-42388412D01*
X112691445Y-42388413D01*
X112691447Y-42388413D01*
X112849607Y-42388413D01*
X112849608Y-42388412D01*
X112871472Y-42384063D01*
X114625526Y-42384063D01*
X114625526Y-42542230D01*
X114656379Y-42697336D01*
X114656382Y-42697348D01*
X114716902Y-42843457D01*
X114716903Y-42843459D01*
X114804772Y-42974965D01*
X114916606Y-43086799D01*
X115004078Y-43145245D01*
X115048110Y-43174667D01*
X115048111Y-43174667D01*
X115048112Y-43174668D01*
X115048114Y-43174669D01*
X115194223Y-43235189D01*
X115194228Y-43235191D01*
X115349341Y-43266045D01*
X115349344Y-43266046D01*
X115349346Y-43266046D01*
X115507506Y-43266046D01*
X115507507Y-43266045D01*
X115662622Y-43235191D01*
X115808740Y-43174667D01*
X115940243Y-43086799D01*
X115990722Y-43036320D01*
X116052045Y-43002834D01*
X116078404Y-43000000D01*
X121000000Y-43000000D01*
X121000000Y-38000000D01*
X116000000Y-38000000D01*
X116000000Y-41647435D01*
X115980315Y-41714474D01*
X115927511Y-41760229D01*
X115858353Y-41770173D01*
X115814672Y-41753438D01*
X115814107Y-41754496D01*
X115808735Y-41751624D01*
X115662626Y-41691104D01*
X115662614Y-41691101D01*
X115507507Y-41660248D01*
X115507504Y-41660248D01*
X115349346Y-41660248D01*
X115349343Y-41660248D01*
X115194235Y-41691101D01*
X115194223Y-41691104D01*
X115048114Y-41751624D01*
X115048112Y-41751625D01*
X114916606Y-41839494D01*
X114804772Y-41951328D01*
X114716903Y-42082834D01*
X114716902Y-42082836D01*
X114656382Y-42228945D01*
X114656379Y-42228957D01*
X114625526Y-42384063D01*
X112871472Y-42384063D01*
X113004723Y-42357558D01*
X113150841Y-42297034D01*
X113282344Y-42209166D01*
X113394178Y-42097332D01*
X113482046Y-41965829D01*
X113542570Y-41819711D01*
X113573425Y-41664593D01*
X113573425Y-41506435D01*
X113573425Y-41506432D01*
X113573424Y-41506430D01*
X113542571Y-41351324D01*
X113542570Y-41351317D01*
X113482046Y-41205199D01*
X113452624Y-41161167D01*
X113394178Y-41073695D01*
X113282344Y-40961861D01*
X113150838Y-40873992D01*
X113150836Y-40873991D01*
X113004727Y-40813471D01*
X113004715Y-40813468D01*
X112849608Y-40782615D01*
X112849605Y-40782615D01*
X112691447Y-40782615D01*
X112691444Y-40782615D01*
X112536336Y-40813468D01*
X112536324Y-40813471D01*
X112390215Y-40873991D01*
X112390213Y-40873992D01*
X112258707Y-40961861D01*
X112146873Y-41073695D01*
X112059004Y-41205201D01*
X112059003Y-41205203D01*
X111998483Y-41351312D01*
X111998480Y-41351324D01*
X111967627Y-41506430D01*
X102500000Y-41506430D01*
X102500000Y-36624500D01*
X102519685Y-36557461D01*
X102572489Y-36511706D01*
X102624000Y-36500500D01*
X121376000Y-36500500D01*
X121443039Y-36520185D01*
G37*
%TD.AperFunction*%
%TD*%
M02*
