%TF.GenerationSoftware,KiCad,Pcbnew,10.0.1*%
%TF.CreationDate,2026-05-11T18:17:24+02:00*%
%TF.ProjectId,esp32v2,65737033-3276-4322-9e6b-696361645f70,rev?*%
%TF.SameCoordinates,Original*%
%TF.FileFunction,Legend,Top*%
%TF.FilePolarity,Positive*%
%FSLAX46Y46*%
G04 Gerber Fmt 4.6, Leading zero omitted, Abs format (unit mm)*
G04 Created by KiCad (PCBNEW 10.0.1) date 2026-05-11 18:17:24*
%MOMM*%
%LPD*%
G01*
G04 APERTURE LIST*
G04 Aperture macros list*
%AMRoundRect*
0 Rectangle with rounded corners*
0 $1 Rounding radius*
0 $2 $3 $4 $5 $6 $7 $8 $9 X,Y pos of 4 corners*
0 Add a 4 corners polygon primitive as box body*
4,1,4,$2,$3,$4,$5,$6,$7,$8,$9,$2,$3,0*
0 Add four circle primitives for the rounded corners*
1,1,$1+$1,$2,$3*
1,1,$1+$1,$4,$5*
1,1,$1+$1,$6,$7*
1,1,$1+$1,$8,$9*
0 Add four rect primitives between the rounded corners*
20,1,$1+$1,$2,$3,$4,$5,0*
20,1,$1+$1,$4,$5,$6,$7,0*
20,1,$1+$1,$6,$7,$8,$9,0*
20,1,$1+$1,$8,$9,$2,$3,0*%
%AMRotRect*
0 Rectangle, with rotation*
0 The origin of the aperture is its center*
0 $1 length*
0 $2 width*
0 $3 Rotation angle, in degrees counterclockwise*
0 Add horizontal line*
21,1,$1,$2,0,0,$3*%
G04 Aperture macros list end*
%ADD10C,0.150000*%
%ADD11C,0.254000*%
%ADD12C,0.120000*%
%ADD13C,0.200000*%
%ADD14C,0.000000*%
%ADD15RoundRect,0.100000X0.162635X-0.021213X-0.021213X0.162635X-0.162635X0.021213X0.021213X-0.162635X0*%
%ADD16R,0.600000X1.550000*%
%ADD17R,1.200000X1.800000*%
%ADD18RoundRect,0.100000X-0.162635X0.021213X0.021213X-0.162635X0.162635X-0.021213X-0.021213X0.162635X0*%
%ADD19RoundRect,0.100000X0.021213X0.162635X-0.162635X-0.021213X-0.021213X-0.162635X0.162635X0.021213X0*%
%ADD20RoundRect,0.100000X-0.021213X-0.162635X0.162635X0.021213X0.021213X0.162635X-0.162635X-0.021213X0*%
%ADD21RoundRect,0.150000X0.625000X-0.150000X0.625000X0.150000X-0.625000X0.150000X-0.625000X-0.150000X0*%
%ADD22RoundRect,0.250000X0.650000X-0.350000X0.650000X0.350000X-0.650000X0.350000X-0.650000X-0.350000X0*%
%ADD23C,1.100000*%
%ADD24RoundRect,0.050000X-0.282843X0.212132X0.212132X-0.282843X0.282843X-0.212132X-0.212132X0.282843X0*%
%ADD25RoundRect,0.050000X-0.282843X-0.212132X-0.212132X-0.282843X0.282843X0.212132X0.212132X0.282843X0*%
%ADD26RotRect,4.000000X4.000000X315.000000*%
%ADD27RoundRect,0.250000X-0.406586X0.053033X0.053033X-0.406586X0.406586X-0.053033X-0.053033X0.406586X0*%
G04 APERTURE END LIST*
D10*
X111048707Y-40542155D02*
X110981363Y-40542155D01*
X110981363Y-40542155D02*
X110846676Y-40474811D01*
X110846676Y-40474811D02*
X110779333Y-40407468D01*
X110779333Y-40407468D02*
X110711989Y-40272781D01*
X110711989Y-40272781D02*
X110711989Y-40138094D01*
X110711989Y-40138094D02*
X110745661Y-40037079D01*
X110745661Y-40037079D02*
X110846676Y-39868720D01*
X110846676Y-39868720D02*
X110947691Y-39767705D01*
X110947691Y-39767705D02*
X111116050Y-39666689D01*
X111116050Y-39666689D02*
X111217065Y-39633018D01*
X111217065Y-39633018D02*
X111351752Y-39633018D01*
X111351752Y-39633018D02*
X111486439Y-39700361D01*
X111486439Y-39700361D02*
X111553783Y-39767705D01*
X111553783Y-39767705D02*
X111621126Y-39902392D01*
X111621126Y-39902392D02*
X111621126Y-39969735D01*
X112058859Y-40744185D02*
X111587455Y-41215590D01*
X112159874Y-40306453D02*
X111486439Y-40643170D01*
X111486439Y-40643170D02*
X111924172Y-41080903D01*
X112799638Y-41013560D02*
X112866981Y-41080903D01*
X112866981Y-41080903D02*
X112900653Y-41181918D01*
X112900653Y-41181918D02*
X112900653Y-41249262D01*
X112900653Y-41249262D02*
X112866981Y-41350277D01*
X112866981Y-41350277D02*
X112765966Y-41518636D01*
X112765966Y-41518636D02*
X112597607Y-41686995D01*
X112597607Y-41686995D02*
X112429249Y-41788010D01*
X112429249Y-41788010D02*
X112328233Y-41821682D01*
X112328233Y-41821682D02*
X112260890Y-41821682D01*
X112260890Y-41821682D02*
X112159875Y-41788010D01*
X112159875Y-41788010D02*
X112092531Y-41720666D01*
X112092531Y-41720666D02*
X112058859Y-41619651D01*
X112058859Y-41619651D02*
X112058859Y-41552308D01*
X112058859Y-41552308D02*
X112092531Y-41451292D01*
X112092531Y-41451292D02*
X112193546Y-41282934D01*
X112193546Y-41282934D02*
X112361905Y-41114575D01*
X112361905Y-41114575D02*
X112530264Y-41013560D01*
X112530264Y-41013560D02*
X112631279Y-40979888D01*
X112631279Y-40979888D02*
X112698623Y-40979888D01*
X112698623Y-40979888D02*
X112799638Y-41013560D01*
D11*
X114915667Y-55980318D02*
X114915667Y-56887461D01*
X114915667Y-56887461D02*
X114855190Y-57068889D01*
X114855190Y-57068889D02*
X114734238Y-57189842D01*
X114734238Y-57189842D02*
X114552809Y-57250318D01*
X114552809Y-57250318D02*
X114431857Y-57250318D01*
X115399476Y-55980318D02*
X116185667Y-55980318D01*
X116185667Y-55980318D02*
X115762333Y-56464127D01*
X115762333Y-56464127D02*
X115943762Y-56464127D01*
X115943762Y-56464127D02*
X116064714Y-56524603D01*
X116064714Y-56524603D02*
X116125190Y-56585080D01*
X116125190Y-56585080D02*
X116185667Y-56706032D01*
X116185667Y-56706032D02*
X116185667Y-57008413D01*
X116185667Y-57008413D02*
X116125190Y-57129365D01*
X116125190Y-57129365D02*
X116064714Y-57189842D01*
X116064714Y-57189842D02*
X115943762Y-57250318D01*
X115943762Y-57250318D02*
X115580905Y-57250318D01*
X115580905Y-57250318D02*
X115459952Y-57189842D01*
X115459952Y-57189842D02*
X115399476Y-57129365D01*
D10*
X110046957Y-39205244D02*
X109710239Y-38868527D01*
X109710239Y-38868527D02*
X110417346Y-38161420D01*
X110922423Y-38666496D02*
X111360155Y-39104229D01*
X111360155Y-39104229D02*
X110855079Y-39137901D01*
X110855079Y-39137901D02*
X110956094Y-39238916D01*
X110956094Y-39238916D02*
X110989766Y-39339931D01*
X110989766Y-39339931D02*
X110989766Y-39407275D01*
X110989766Y-39407275D02*
X110956094Y-39508290D01*
X110956094Y-39508290D02*
X110787736Y-39676649D01*
X110787736Y-39676649D02*
X110686720Y-39710321D01*
X110686720Y-39710321D02*
X110619377Y-39710321D01*
X110619377Y-39710321D02*
X110518362Y-39676649D01*
X110518362Y-39676649D02*
X110316331Y-39474618D01*
X110316331Y-39474618D02*
X110282659Y-39373603D01*
X110282659Y-39373603D02*
X110282659Y-39306260D01*
X107774981Y-38768429D02*
X107707637Y-38768429D01*
X107707637Y-38768429D02*
X107572950Y-38701085D01*
X107572950Y-38701085D02*
X107505607Y-38633742D01*
X107505607Y-38633742D02*
X107438263Y-38499055D01*
X107438263Y-38499055D02*
X107438263Y-38364368D01*
X107438263Y-38364368D02*
X107471935Y-38263353D01*
X107471935Y-38263353D02*
X107572950Y-38094994D01*
X107572950Y-38094994D02*
X107673965Y-37993979D01*
X107673965Y-37993979D02*
X107842324Y-37892963D01*
X107842324Y-37892963D02*
X107943339Y-37859292D01*
X107943339Y-37859292D02*
X108078026Y-37859292D01*
X108078026Y-37859292D02*
X108212713Y-37926635D01*
X108212713Y-37926635D02*
X108280057Y-37993979D01*
X108280057Y-37993979D02*
X108347400Y-38128666D01*
X108347400Y-38128666D02*
X108347400Y-38196009D01*
X108650446Y-38364368D02*
X109088179Y-38802101D01*
X109088179Y-38802101D02*
X108583103Y-38835772D01*
X108583103Y-38835772D02*
X108684118Y-38936788D01*
X108684118Y-38936788D02*
X108717790Y-39037803D01*
X108717790Y-39037803D02*
X108717790Y-39105146D01*
X108717790Y-39105146D02*
X108684118Y-39206162D01*
X108684118Y-39206162D02*
X108515759Y-39374520D01*
X108515759Y-39374520D02*
X108414744Y-39408192D01*
X108414744Y-39408192D02*
X108347400Y-39408192D01*
X108347400Y-39408192D02*
X108246385Y-39374520D01*
X108246385Y-39374520D02*
X108044355Y-39172490D01*
X108044355Y-39172490D02*
X108010683Y-39071475D01*
X108010683Y-39071475D02*
X108010683Y-39004131D01*
X109054507Y-40182643D02*
X108650446Y-39778582D01*
X108852477Y-39980612D02*
X109559584Y-39273505D01*
X109559584Y-39273505D02*
X109391225Y-39307177D01*
X109391225Y-39307177D02*
X109256538Y-39307177D01*
X109256538Y-39307177D02*
X109155523Y-39273505D01*
X106833559Y-49159888D02*
X106833559Y-49227232D01*
X106833559Y-49227232D02*
X106766215Y-49361919D01*
X106766215Y-49361919D02*
X106698872Y-49429262D01*
X106698872Y-49429262D02*
X106564185Y-49496606D01*
X106564185Y-49496606D02*
X106429498Y-49496606D01*
X106429498Y-49496606D02*
X106328483Y-49462934D01*
X106328483Y-49462934D02*
X106160124Y-49361919D01*
X106160124Y-49361919D02*
X106059109Y-49260904D01*
X106059109Y-49260904D02*
X105958093Y-49092545D01*
X105958093Y-49092545D02*
X105924422Y-48991530D01*
X105924422Y-48991530D02*
X105924422Y-48856843D01*
X105924422Y-48856843D02*
X105991765Y-48722156D01*
X105991765Y-48722156D02*
X106059109Y-48654812D01*
X106059109Y-48654812D02*
X106193796Y-48587469D01*
X106193796Y-48587469D02*
X106261139Y-48587469D01*
X107574337Y-48553797D02*
X107170276Y-48957858D01*
X107372307Y-48755827D02*
X106665200Y-48048721D01*
X106665200Y-48048721D02*
X106698872Y-48217079D01*
X106698872Y-48217079D02*
X106698872Y-48351766D01*
X106698872Y-48351766D02*
X106665200Y-48452782D01*
X107304964Y-47408957D02*
X107372307Y-47341614D01*
X107372307Y-47341614D02*
X107473322Y-47307942D01*
X107473322Y-47307942D02*
X107540666Y-47307942D01*
X107540666Y-47307942D02*
X107641681Y-47341614D01*
X107641681Y-47341614D02*
X107810040Y-47442629D01*
X107810040Y-47442629D02*
X107978399Y-47610988D01*
X107978399Y-47610988D02*
X108079414Y-47779346D01*
X108079414Y-47779346D02*
X108113086Y-47880362D01*
X108113086Y-47880362D02*
X108113086Y-47947705D01*
X108113086Y-47947705D02*
X108079414Y-48048720D01*
X108079414Y-48048720D02*
X108012070Y-48116064D01*
X108012070Y-48116064D02*
X107911055Y-48149736D01*
X107911055Y-48149736D02*
X107843712Y-48149736D01*
X107843712Y-48149736D02*
X107742696Y-48116064D01*
X107742696Y-48116064D02*
X107574338Y-48015049D01*
X107574338Y-48015049D02*
X107405979Y-47846690D01*
X107405979Y-47846690D02*
X107304964Y-47678331D01*
X107304964Y-47678331D02*
X107271292Y-47577316D01*
X107271292Y-47577316D02*
X107271292Y-47509972D01*
X107271292Y-47509972D02*
X107304964Y-47408957D01*
X107546957Y-41705244D02*
X107647972Y-41132825D01*
X107142896Y-41301183D02*
X107850003Y-40594077D01*
X107850003Y-40594077D02*
X108119377Y-40863451D01*
X108119377Y-40863451D02*
X108153049Y-40964466D01*
X108153049Y-40964466D02*
X108153049Y-41031809D01*
X108153049Y-41031809D02*
X108119377Y-41132825D01*
X108119377Y-41132825D02*
X108018362Y-41233840D01*
X108018362Y-41233840D02*
X107917346Y-41267512D01*
X107917346Y-41267512D02*
X107850003Y-41267512D01*
X107850003Y-41267512D02*
X107748988Y-41233840D01*
X107748988Y-41233840D02*
X107479614Y-40964466D01*
X108456094Y-41334855D02*
X108523438Y-41334855D01*
X108523438Y-41334855D02*
X108624453Y-41368527D01*
X108624453Y-41368527D02*
X108792812Y-41536886D01*
X108792812Y-41536886D02*
X108826484Y-41637901D01*
X108826484Y-41637901D02*
X108826484Y-41705244D01*
X108826484Y-41705244D02*
X108792812Y-41806260D01*
X108792812Y-41806260D02*
X108725468Y-41873603D01*
X108725468Y-41873603D02*
X108590781Y-41940947D01*
X108590781Y-41940947D02*
X107782659Y-41940947D01*
X107782659Y-41940947D02*
X108220392Y-42378679D01*
X107315881Y-49677566D02*
X107315881Y-49744910D01*
X107315881Y-49744910D02*
X107248537Y-49879597D01*
X107248537Y-49879597D02*
X107181194Y-49946940D01*
X107181194Y-49946940D02*
X107046507Y-50014284D01*
X107046507Y-50014284D02*
X106911820Y-50014284D01*
X106911820Y-50014284D02*
X106810805Y-49980612D01*
X106810805Y-49980612D02*
X106642446Y-49879597D01*
X106642446Y-49879597D02*
X106541431Y-49778582D01*
X106541431Y-49778582D02*
X106440415Y-49610223D01*
X106440415Y-49610223D02*
X106406744Y-49509208D01*
X106406744Y-49509208D02*
X106406744Y-49374521D01*
X106406744Y-49374521D02*
X106474087Y-49239834D01*
X106474087Y-49239834D02*
X106541431Y-49172490D01*
X106541431Y-49172490D02*
X106676118Y-49105147D01*
X106676118Y-49105147D02*
X106743461Y-49105147D01*
X108056659Y-49071475D02*
X107652598Y-49475536D01*
X107854629Y-49273505D02*
X107147522Y-48566399D01*
X107147522Y-48566399D02*
X107181194Y-48734757D01*
X107181194Y-48734757D02*
X107181194Y-48869444D01*
X107181194Y-48869444D02*
X107147522Y-48970460D01*
X108730095Y-48398040D02*
X108326034Y-48802101D01*
X108528064Y-48600070D02*
X107820957Y-47892963D01*
X107820957Y-47892963D02*
X107854629Y-48061322D01*
X107854629Y-48061322D02*
X107854629Y-48196009D01*
X107854629Y-48196009D02*
X107820957Y-48297024D01*
X113613004Y-38836609D02*
X113613004Y-38903953D01*
X113613004Y-38903953D02*
X113545660Y-39038640D01*
X113545660Y-39038640D02*
X113478317Y-39105983D01*
X113478317Y-39105983D02*
X113343630Y-39173327D01*
X113343630Y-39173327D02*
X113208943Y-39173327D01*
X113208943Y-39173327D02*
X113107928Y-39139655D01*
X113107928Y-39139655D02*
X112939569Y-39038640D01*
X112939569Y-39038640D02*
X112838554Y-38937625D01*
X112838554Y-38937625D02*
X112737538Y-38769266D01*
X112737538Y-38769266D02*
X112703867Y-38668251D01*
X112703867Y-38668251D02*
X112703867Y-38533564D01*
X112703867Y-38533564D02*
X112771210Y-38398877D01*
X112771210Y-38398877D02*
X112838554Y-38331533D01*
X112838554Y-38331533D02*
X112973241Y-38264190D01*
X112973241Y-38264190D02*
X113040584Y-38264190D01*
X114353782Y-38230518D02*
X113949721Y-38634579D01*
X114151752Y-38432548D02*
X113444645Y-37725442D01*
X113444645Y-37725442D02*
X113478317Y-37893800D01*
X113478317Y-37893800D02*
X113478317Y-38028487D01*
X113478317Y-38028487D02*
X113444645Y-38129503D01*
X111801183Y-50722416D02*
X111801183Y-50789760D01*
X111801183Y-50789760D02*
X111733839Y-50924447D01*
X111733839Y-50924447D02*
X111666496Y-50991790D01*
X111666496Y-50991790D02*
X111531809Y-51059134D01*
X111531809Y-51059134D02*
X111397122Y-51059134D01*
X111397122Y-51059134D02*
X111296107Y-51025462D01*
X111296107Y-51025462D02*
X111127748Y-50924447D01*
X111127748Y-50924447D02*
X111026733Y-50823432D01*
X111026733Y-50823432D02*
X110925717Y-50655073D01*
X110925717Y-50655073D02*
X110892046Y-50554058D01*
X110892046Y-50554058D02*
X110892046Y-50419371D01*
X110892046Y-50419371D02*
X110959389Y-50284684D01*
X110959389Y-50284684D02*
X111026733Y-50217340D01*
X111026733Y-50217340D02*
X111161420Y-50149997D01*
X111161420Y-50149997D02*
X111228763Y-50149997D01*
X112541961Y-50116325D02*
X112137900Y-50520386D01*
X112339931Y-50318355D02*
X111632824Y-49611249D01*
X111632824Y-49611249D02*
X111666496Y-49779607D01*
X111666496Y-49779607D02*
X111666496Y-49914294D01*
X111666496Y-49914294D02*
X111632824Y-50015310D01*
X112070557Y-49173516D02*
X112508290Y-48735783D01*
X112508290Y-48735783D02*
X112541962Y-49240859D01*
X112541962Y-49240859D02*
X112642977Y-49139844D01*
X112642977Y-49139844D02*
X112743992Y-49106172D01*
X112743992Y-49106172D02*
X112811336Y-49106172D01*
X112811336Y-49106172D02*
X112912351Y-49139844D01*
X112912351Y-49139844D02*
X113080710Y-49308203D01*
X113080710Y-49308203D02*
X113114381Y-49409218D01*
X113114381Y-49409218D02*
X113114381Y-49476561D01*
X113114381Y-49476561D02*
X113080710Y-49577577D01*
X113080710Y-49577577D02*
X112878679Y-49779607D01*
X112878679Y-49779607D02*
X112777664Y-49813279D01*
X112777664Y-49813279D02*
X112710320Y-49813279D01*
D11*
X105326667Y-53404318D02*
X105326667Y-54311461D01*
X105326667Y-54311461D02*
X105266190Y-54492889D01*
X105266190Y-54492889D02*
X105145238Y-54613842D01*
X105145238Y-54613842D02*
X104963809Y-54674318D01*
X104963809Y-54674318D02*
X104842857Y-54674318D01*
X105870952Y-53525270D02*
X105931428Y-53464794D01*
X105931428Y-53464794D02*
X106052381Y-53404318D01*
X106052381Y-53404318D02*
X106354762Y-53404318D01*
X106354762Y-53404318D02*
X106475714Y-53464794D01*
X106475714Y-53464794D02*
X106536190Y-53525270D01*
X106536190Y-53525270D02*
X106596667Y-53646222D01*
X106596667Y-53646222D02*
X106596667Y-53767175D01*
X106596667Y-53767175D02*
X106536190Y-53948603D01*
X106536190Y-53948603D02*
X105810476Y-54674318D01*
X105810476Y-54674318D02*
X106596667Y-54674318D01*
D10*
X112301183Y-51222416D02*
X112301183Y-51289760D01*
X112301183Y-51289760D02*
X112233839Y-51424447D01*
X112233839Y-51424447D02*
X112166496Y-51491790D01*
X112166496Y-51491790D02*
X112031809Y-51559134D01*
X112031809Y-51559134D02*
X111897122Y-51559134D01*
X111897122Y-51559134D02*
X111796107Y-51525462D01*
X111796107Y-51525462D02*
X111627748Y-51424447D01*
X111627748Y-51424447D02*
X111526733Y-51323432D01*
X111526733Y-51323432D02*
X111425717Y-51155073D01*
X111425717Y-51155073D02*
X111392046Y-51054058D01*
X111392046Y-51054058D02*
X111392046Y-50919371D01*
X111392046Y-50919371D02*
X111459389Y-50784684D01*
X111459389Y-50784684D02*
X111526733Y-50717340D01*
X111526733Y-50717340D02*
X111661420Y-50649997D01*
X111661420Y-50649997D02*
X111728763Y-50649997D01*
X111897122Y-50346951D02*
X112334855Y-49909218D01*
X112334855Y-49909218D02*
X112368526Y-50414294D01*
X112368526Y-50414294D02*
X112469542Y-50313279D01*
X112469542Y-50313279D02*
X112570557Y-50279607D01*
X112570557Y-50279607D02*
X112637900Y-50279607D01*
X112637900Y-50279607D02*
X112738916Y-50313279D01*
X112738916Y-50313279D02*
X112907274Y-50481638D01*
X112907274Y-50481638D02*
X112940946Y-50582653D01*
X112940946Y-50582653D02*
X112940946Y-50649997D01*
X112940946Y-50649997D02*
X112907274Y-50751012D01*
X112907274Y-50751012D02*
X112705244Y-50953042D01*
X112705244Y-50953042D02*
X112604229Y-50986714D01*
X112604229Y-50986714D02*
X112536885Y-50986714D01*
X112671572Y-49707187D02*
X112671572Y-49639844D01*
X112671572Y-49639844D02*
X112705244Y-49538829D01*
X112705244Y-49538829D02*
X112873603Y-49370470D01*
X112873603Y-49370470D02*
X112974618Y-49336798D01*
X112974618Y-49336798D02*
X113041962Y-49336798D01*
X113041962Y-49336798D02*
X113142977Y-49370470D01*
X113142977Y-49370470D02*
X113210320Y-49437813D01*
X113210320Y-49437813D02*
X113277664Y-49572500D01*
X113277664Y-49572500D02*
X113277664Y-50380622D01*
X113277664Y-50380622D02*
X113715397Y-49942890D01*
X111287205Y-44516202D02*
X110714785Y-45088622D01*
X110714785Y-45088622D02*
X110681113Y-45189637D01*
X110681113Y-45189637D02*
X110681113Y-45256981D01*
X110681113Y-45256981D02*
X110714785Y-45357996D01*
X110714785Y-45357996D02*
X110849472Y-45492683D01*
X110849472Y-45492683D02*
X110950487Y-45526355D01*
X110950487Y-45526355D02*
X111017831Y-45526355D01*
X111017831Y-45526355D02*
X111118846Y-45492683D01*
X111118846Y-45492683D02*
X111691266Y-44920263D01*
X111691266Y-46334477D02*
X111287205Y-45930416D01*
X111489235Y-46132446D02*
X112196342Y-45425340D01*
X112196342Y-45425340D02*
X112027983Y-45459011D01*
X112027983Y-45459011D02*
X111893296Y-45459011D01*
X111893296Y-45459011D02*
X111792281Y-45425340D01*
X106152599Y-47840848D02*
X106152599Y-47908192D01*
X106152599Y-47908192D02*
X106085255Y-48042879D01*
X106085255Y-48042879D02*
X106017912Y-48110222D01*
X106017912Y-48110222D02*
X105883225Y-48177566D01*
X105883225Y-48177566D02*
X105748538Y-48177566D01*
X105748538Y-48177566D02*
X105647523Y-48143894D01*
X105647523Y-48143894D02*
X105479164Y-48042879D01*
X105479164Y-48042879D02*
X105378149Y-47941864D01*
X105378149Y-47941864D02*
X105277133Y-47773505D01*
X105277133Y-47773505D02*
X105243462Y-47672490D01*
X105243462Y-47672490D02*
X105243462Y-47537803D01*
X105243462Y-47537803D02*
X105310805Y-47403116D01*
X105310805Y-47403116D02*
X105378149Y-47335772D01*
X105378149Y-47335772D02*
X105512836Y-47268429D01*
X105512836Y-47268429D02*
X105580179Y-47268429D01*
X105849553Y-46999055D02*
X105849553Y-46931711D01*
X105849553Y-46931711D02*
X105883225Y-46830696D01*
X105883225Y-46830696D02*
X106051584Y-46662337D01*
X106051584Y-46662337D02*
X106152599Y-46628665D01*
X106152599Y-46628665D02*
X106219942Y-46628665D01*
X106219942Y-46628665D02*
X106320958Y-46662337D01*
X106320958Y-46662337D02*
X106388301Y-46729681D01*
X106388301Y-46729681D02*
X106455645Y-46864368D01*
X106455645Y-46864368D02*
X106455645Y-47672490D01*
X106455645Y-47672490D02*
X106893377Y-47234757D01*
X106225315Y-42353450D02*
X106326330Y-41781031D01*
X105821254Y-41949389D02*
X106528361Y-41242283D01*
X106528361Y-41242283D02*
X106797735Y-41511657D01*
X106797735Y-41511657D02*
X106831407Y-41612672D01*
X106831407Y-41612672D02*
X106831407Y-41680015D01*
X106831407Y-41680015D02*
X106797735Y-41781031D01*
X106797735Y-41781031D02*
X106696720Y-41882046D01*
X106696720Y-41882046D02*
X106595704Y-41915718D01*
X106595704Y-41915718D02*
X106528361Y-41915718D01*
X106528361Y-41915718D02*
X106427346Y-41882046D01*
X106427346Y-41882046D02*
X106157972Y-41612672D01*
X107134452Y-41983061D02*
X107201796Y-41983061D01*
X107201796Y-41983061D02*
X107302811Y-42016733D01*
X107302811Y-42016733D02*
X107471170Y-42185092D01*
X107471170Y-42185092D02*
X107504842Y-42286107D01*
X107504842Y-42286107D02*
X107504842Y-42353450D01*
X107504842Y-42353450D02*
X107471170Y-42454466D01*
X107471170Y-42454466D02*
X107403826Y-42521809D01*
X107403826Y-42521809D02*
X107269139Y-42589153D01*
X107269139Y-42589153D02*
X106461017Y-42589153D01*
X106461017Y-42589153D02*
X106898750Y-43026885D01*
X107807888Y-42656496D02*
X107875231Y-42656496D01*
X107875231Y-42656496D02*
X107976246Y-42690168D01*
X107976246Y-42690168D02*
X108144605Y-42858527D01*
X108144605Y-42858527D02*
X108178277Y-42959542D01*
X108178277Y-42959542D02*
X108178277Y-43026886D01*
X108178277Y-43026886D02*
X108144605Y-43127901D01*
X108144605Y-43127901D02*
X108077262Y-43195244D01*
X108077262Y-43195244D02*
X107942575Y-43262588D01*
X107942575Y-43262588D02*
X107134453Y-43262588D01*
X107134453Y-43262588D02*
X107572185Y-43700321D01*
X106804755Y-40798203D02*
X106737411Y-40798203D01*
X106737411Y-40798203D02*
X106602724Y-40730859D01*
X106602724Y-40730859D02*
X106535381Y-40663516D01*
X106535381Y-40663516D02*
X106468037Y-40528829D01*
X106468037Y-40528829D02*
X106468037Y-40394142D01*
X106468037Y-40394142D02*
X106501709Y-40293127D01*
X106501709Y-40293127D02*
X106602724Y-40124768D01*
X106602724Y-40124768D02*
X106703739Y-40023753D01*
X106703739Y-40023753D02*
X106872098Y-39922737D01*
X106872098Y-39922737D02*
X106973113Y-39889066D01*
X106973113Y-39889066D02*
X107107800Y-39889066D01*
X107107800Y-39889066D02*
X107242487Y-39956409D01*
X107242487Y-39956409D02*
X107309831Y-40023753D01*
X107309831Y-40023753D02*
X107377174Y-40158440D01*
X107377174Y-40158440D02*
X107377174Y-40225783D01*
X107410846Y-41538981D02*
X107006785Y-41134920D01*
X107208816Y-41336951D02*
X107915922Y-40629844D01*
X107915922Y-40629844D02*
X107747564Y-40663516D01*
X107747564Y-40663516D02*
X107612877Y-40663516D01*
X107612877Y-40663516D02*
X107511861Y-40629844D01*
X108724045Y-41437966D02*
X108589358Y-41303279D01*
X108589358Y-41303279D02*
X108488342Y-41269608D01*
X108488342Y-41269608D02*
X108420999Y-41269608D01*
X108420999Y-41269608D02*
X108252640Y-41303279D01*
X108252640Y-41303279D02*
X108084281Y-41404295D01*
X108084281Y-41404295D02*
X107814907Y-41673669D01*
X107814907Y-41673669D02*
X107781236Y-41774684D01*
X107781236Y-41774684D02*
X107781236Y-41842027D01*
X107781236Y-41842027D02*
X107814907Y-41943043D01*
X107814907Y-41943043D02*
X107949594Y-42077730D01*
X107949594Y-42077730D02*
X108050610Y-42111401D01*
X108050610Y-42111401D02*
X108117953Y-42111401D01*
X108117953Y-42111401D02*
X108218968Y-42077730D01*
X108218968Y-42077730D02*
X108387327Y-41909371D01*
X108387327Y-41909371D02*
X108420999Y-41808356D01*
X108420999Y-41808356D02*
X108420999Y-41741012D01*
X108420999Y-41741012D02*
X108387327Y-41639997D01*
X108387327Y-41639997D02*
X108252640Y-41505310D01*
X108252640Y-41505310D02*
X108151625Y-41471638D01*
X108151625Y-41471638D02*
X108084281Y-41471638D01*
X108084281Y-41471638D02*
X107983266Y-41505310D01*
X108416351Y-38544486D02*
X109123458Y-37837380D01*
X109123458Y-37837380D02*
X109291817Y-38005738D01*
X109291817Y-38005738D02*
X109359160Y-38140425D01*
X109359160Y-38140425D02*
X109359160Y-38275112D01*
X109359160Y-38275112D02*
X109325488Y-38376128D01*
X109325488Y-38376128D02*
X109224473Y-38544486D01*
X109224473Y-38544486D02*
X109123458Y-38645502D01*
X109123458Y-38645502D02*
X108955099Y-38746517D01*
X108955099Y-38746517D02*
X108854084Y-38780189D01*
X108854084Y-38780189D02*
X108719397Y-38780189D01*
X108719397Y-38780189D02*
X108584710Y-38712845D01*
X108584710Y-38712845D02*
X108416351Y-38544486D01*
X109123458Y-39251593D02*
X109830565Y-38544486D01*
X109830565Y-38544486D02*
X109527519Y-39655654D01*
X109527519Y-39655654D02*
X110234626Y-38948547D01*
X109864236Y-39992372D02*
X110571343Y-39285265D01*
X110571343Y-39285265D02*
X110840717Y-39554639D01*
X110840717Y-39554639D02*
X110874389Y-39655654D01*
X110874389Y-39655654D02*
X110874389Y-39722998D01*
X110874389Y-39722998D02*
X110840717Y-39824013D01*
X110840717Y-39824013D02*
X110739702Y-39925028D01*
X110739702Y-39925028D02*
X110638687Y-39958700D01*
X110638687Y-39958700D02*
X110571343Y-39958700D01*
X110571343Y-39958700D02*
X110470328Y-39925028D01*
X110470328Y-39925028D02*
X110200954Y-39655654D01*
X110941732Y-41069868D02*
X110537671Y-40665807D01*
X110739702Y-40867837D02*
X111446809Y-40160730D01*
X111446809Y-40160730D02*
X111278450Y-40194402D01*
X111278450Y-40194402D02*
X111143763Y-40194402D01*
X111143763Y-40194402D02*
X111042748Y-40160730D01*
X116557231Y-42466368D02*
X116557231Y-42533712D01*
X116557231Y-42533712D02*
X116489887Y-42668399D01*
X116489887Y-42668399D02*
X116422544Y-42735742D01*
X116422544Y-42735742D02*
X116287857Y-42803086D01*
X116287857Y-42803086D02*
X116153170Y-42803086D01*
X116153170Y-42803086D02*
X116052155Y-42769414D01*
X116052155Y-42769414D02*
X115883796Y-42668399D01*
X115883796Y-42668399D02*
X115782781Y-42567384D01*
X115782781Y-42567384D02*
X115681765Y-42399025D01*
X115681765Y-42399025D02*
X115648094Y-42298010D01*
X115648094Y-42298010D02*
X115648094Y-42163323D01*
X115648094Y-42163323D02*
X115715437Y-42028636D01*
X115715437Y-42028636D02*
X115782781Y-41961292D01*
X115782781Y-41961292D02*
X115917468Y-41893949D01*
X115917468Y-41893949D02*
X115984811Y-41893949D01*
X116153170Y-41590903D02*
X116590903Y-41153170D01*
X116590903Y-41153170D02*
X116624574Y-41658246D01*
X116624574Y-41658246D02*
X116725590Y-41557231D01*
X116725590Y-41557231D02*
X116826605Y-41523559D01*
X116826605Y-41523559D02*
X116893948Y-41523559D01*
X116893948Y-41523559D02*
X116994964Y-41557231D01*
X116994964Y-41557231D02*
X117163322Y-41725590D01*
X117163322Y-41725590D02*
X117196994Y-41826605D01*
X117196994Y-41826605D02*
X117196994Y-41893949D01*
X117196994Y-41893949D02*
X117163322Y-41994964D01*
X117163322Y-41994964D02*
X116961292Y-42196994D01*
X116961292Y-42196994D02*
X116860277Y-42230666D01*
X116860277Y-42230666D02*
X116792933Y-42230666D01*
X116826605Y-40917468D02*
X117264338Y-40479735D01*
X117264338Y-40479735D02*
X117298010Y-40984811D01*
X117298010Y-40984811D02*
X117399025Y-40883796D01*
X117399025Y-40883796D02*
X117500040Y-40850124D01*
X117500040Y-40850124D02*
X117567384Y-40850124D01*
X117567384Y-40850124D02*
X117668399Y-40883796D01*
X117668399Y-40883796D02*
X117836758Y-41052155D01*
X117836758Y-41052155D02*
X117870429Y-41153170D01*
X117870429Y-41153170D02*
X117870429Y-41220513D01*
X117870429Y-41220513D02*
X117836758Y-41321529D01*
X117836758Y-41321529D02*
X117634727Y-41523559D01*
X117634727Y-41523559D02*
X117533712Y-41557231D01*
X117533712Y-41557231D02*
X117466368Y-41557231D01*
X109044355Y-40172490D02*
X108707637Y-39835773D01*
X108707637Y-39835773D02*
X109414744Y-39128666D01*
X110290210Y-40004132D02*
X110155523Y-39869445D01*
X110155523Y-39869445D02*
X110054508Y-39835773D01*
X110054508Y-39835773D02*
X109987164Y-39835773D01*
X109987164Y-39835773D02*
X109818805Y-39869445D01*
X109818805Y-39869445D02*
X109650447Y-39970460D01*
X109650447Y-39970460D02*
X109381073Y-40239834D01*
X109381073Y-40239834D02*
X109347401Y-40340849D01*
X109347401Y-40340849D02*
X109347401Y-40408193D01*
X109347401Y-40408193D02*
X109381073Y-40509208D01*
X109381073Y-40509208D02*
X109515760Y-40643895D01*
X109515760Y-40643895D02*
X109616775Y-40677567D01*
X109616775Y-40677567D02*
X109684118Y-40677567D01*
X109684118Y-40677567D02*
X109785134Y-40643895D01*
X109785134Y-40643895D02*
X109953492Y-40475536D01*
X109953492Y-40475536D02*
X109987164Y-40374521D01*
X109987164Y-40374521D02*
X109987164Y-40307177D01*
X109987164Y-40307177D02*
X109953492Y-40206162D01*
X109953492Y-40206162D02*
X109818805Y-40071475D01*
X109818805Y-40071475D02*
X109717790Y-40037803D01*
X109717790Y-40037803D02*
X109650447Y-40037803D01*
X109650447Y-40037803D02*
X109549431Y-40071475D01*
X117357773Y-38706228D02*
X117021055Y-39042946D01*
X117492460Y-38100137D02*
X117357773Y-38706228D01*
X117357773Y-38706228D02*
X117963864Y-38571541D01*
X118098551Y-38840915D02*
X118165895Y-38840915D01*
X118165895Y-38840915D02*
X118266910Y-38874587D01*
X118266910Y-38874587D02*
X118435269Y-39042946D01*
X118435269Y-39042946D02*
X118468941Y-39143961D01*
X118468941Y-39143961D02*
X118468941Y-39211304D01*
X118468941Y-39211304D02*
X118435269Y-39312320D01*
X118435269Y-39312320D02*
X118367925Y-39379663D01*
X118367925Y-39379663D02*
X118233238Y-39447007D01*
X118233238Y-39447007D02*
X117425116Y-39447007D01*
X117425116Y-39447007D02*
X117862849Y-39884739D01*
X107792659Y-40786107D02*
X107725315Y-40786107D01*
X107725315Y-40786107D02*
X107590628Y-40718763D01*
X107590628Y-40718763D02*
X107523285Y-40651420D01*
X107523285Y-40651420D02*
X107455941Y-40516733D01*
X107455941Y-40516733D02*
X107455941Y-40382046D01*
X107455941Y-40382046D02*
X107489613Y-40281031D01*
X107489613Y-40281031D02*
X107590628Y-40112672D01*
X107590628Y-40112672D02*
X107691643Y-40011657D01*
X107691643Y-40011657D02*
X107860002Y-39910641D01*
X107860002Y-39910641D02*
X107961017Y-39876970D01*
X107961017Y-39876970D02*
X108095704Y-39876970D01*
X108095704Y-39876970D02*
X108230391Y-39944313D01*
X108230391Y-39944313D02*
X108297735Y-40011657D01*
X108297735Y-40011657D02*
X108365078Y-40146344D01*
X108365078Y-40146344D02*
X108365078Y-40213687D01*
X108398750Y-41526885D02*
X107994689Y-41122824D01*
X108196720Y-41324855D02*
X108903826Y-40617748D01*
X108903826Y-40617748D02*
X108735468Y-40651420D01*
X108735468Y-40651420D02*
X108600781Y-40651420D01*
X108600781Y-40651420D02*
X108499765Y-40617748D01*
X108735468Y-41863603D02*
X108870155Y-41998290D01*
X108870155Y-41998290D02*
X108971170Y-42031962D01*
X108971170Y-42031962D02*
X109038514Y-42031962D01*
X109038514Y-42031962D02*
X109206872Y-41998290D01*
X109206872Y-41998290D02*
X109375231Y-41897275D01*
X109375231Y-41897275D02*
X109644605Y-41627901D01*
X109644605Y-41627901D02*
X109678277Y-41526886D01*
X109678277Y-41526886D02*
X109678277Y-41459542D01*
X109678277Y-41459542D02*
X109644605Y-41358527D01*
X109644605Y-41358527D02*
X109509918Y-41223840D01*
X109509918Y-41223840D02*
X109408903Y-41190168D01*
X109408903Y-41190168D02*
X109341559Y-41190168D01*
X109341559Y-41190168D02*
X109240544Y-41223840D01*
X109240544Y-41223840D02*
X109072185Y-41392199D01*
X109072185Y-41392199D02*
X109038514Y-41493214D01*
X109038514Y-41493214D02*
X109038514Y-41560557D01*
X109038514Y-41560557D02*
X109072185Y-41661573D01*
X109072185Y-41661573D02*
X109206872Y-41796260D01*
X109206872Y-41796260D02*
X109307888Y-41829931D01*
X109307888Y-41829931D02*
X109375231Y-41829931D01*
X109375231Y-41829931D02*
X109476246Y-41796260D01*
X107815881Y-50177566D02*
X107815881Y-50244910D01*
X107815881Y-50244910D02*
X107748537Y-50379597D01*
X107748537Y-50379597D02*
X107681194Y-50446940D01*
X107681194Y-50446940D02*
X107546507Y-50514284D01*
X107546507Y-50514284D02*
X107411820Y-50514284D01*
X107411820Y-50514284D02*
X107310805Y-50480612D01*
X107310805Y-50480612D02*
X107142446Y-50379597D01*
X107142446Y-50379597D02*
X107041431Y-50278582D01*
X107041431Y-50278582D02*
X106940415Y-50110223D01*
X106940415Y-50110223D02*
X106906744Y-50009208D01*
X106906744Y-50009208D02*
X106906744Y-49874521D01*
X106906744Y-49874521D02*
X106974087Y-49739834D01*
X106974087Y-49739834D02*
X107041431Y-49672490D01*
X107041431Y-49672490D02*
X107176118Y-49605147D01*
X107176118Y-49605147D02*
X107243461Y-49605147D01*
X107411820Y-49302101D02*
X107849553Y-48864368D01*
X107849553Y-48864368D02*
X107883224Y-49369444D01*
X107883224Y-49369444D02*
X107984240Y-49268429D01*
X107984240Y-49268429D02*
X108085255Y-49234757D01*
X108085255Y-49234757D02*
X108152598Y-49234757D01*
X108152598Y-49234757D02*
X108253614Y-49268429D01*
X108253614Y-49268429D02*
X108421972Y-49436788D01*
X108421972Y-49436788D02*
X108455644Y-49537803D01*
X108455644Y-49537803D02*
X108455644Y-49605147D01*
X108455644Y-49605147D02*
X108421972Y-49706162D01*
X108421972Y-49706162D02*
X108219942Y-49908192D01*
X108219942Y-49908192D02*
X108118927Y-49941864D01*
X108118927Y-49941864D02*
X108051583Y-49941864D01*
X108893377Y-49234757D02*
X109028064Y-49100070D01*
X109028064Y-49100070D02*
X109061736Y-48999055D01*
X109061736Y-48999055D02*
X109061736Y-48931711D01*
X109061736Y-48931711D02*
X109028064Y-48763353D01*
X109028064Y-48763353D02*
X108927049Y-48594994D01*
X108927049Y-48594994D02*
X108657675Y-48325620D01*
X108657675Y-48325620D02*
X108556660Y-48291948D01*
X108556660Y-48291948D02*
X108489316Y-48291948D01*
X108489316Y-48291948D02*
X108388301Y-48325620D01*
X108388301Y-48325620D02*
X108253614Y-48460307D01*
X108253614Y-48460307D02*
X108219942Y-48561322D01*
X108219942Y-48561322D02*
X108219942Y-48628666D01*
X108219942Y-48628666D02*
X108253614Y-48729681D01*
X108253614Y-48729681D02*
X108421973Y-48898040D01*
X108421973Y-48898040D02*
X108522988Y-48931711D01*
X108522988Y-48931711D02*
X108590331Y-48931711D01*
X108590331Y-48931711D02*
X108691347Y-48898040D01*
X108691347Y-48898040D02*
X108826034Y-48763353D01*
X108826034Y-48763353D02*
X108859705Y-48662337D01*
X108859705Y-48662337D02*
X108859705Y-48594994D01*
X108859705Y-48594994D02*
X108826034Y-48493979D01*
X106792659Y-41786107D02*
X106725315Y-41786107D01*
X106725315Y-41786107D02*
X106590628Y-41718763D01*
X106590628Y-41718763D02*
X106523285Y-41651420D01*
X106523285Y-41651420D02*
X106455941Y-41516733D01*
X106455941Y-41516733D02*
X106455941Y-41382046D01*
X106455941Y-41382046D02*
X106489613Y-41281031D01*
X106489613Y-41281031D02*
X106590628Y-41112672D01*
X106590628Y-41112672D02*
X106691643Y-41011657D01*
X106691643Y-41011657D02*
X106860002Y-40910641D01*
X106860002Y-40910641D02*
X106961017Y-40876970D01*
X106961017Y-40876970D02*
X107095704Y-40876970D01*
X107095704Y-40876970D02*
X107230391Y-40944313D01*
X107230391Y-40944313D02*
X107297735Y-41011657D01*
X107297735Y-41011657D02*
X107365078Y-41146344D01*
X107365078Y-41146344D02*
X107365078Y-41213687D01*
X107398750Y-42526885D02*
X106994689Y-42122824D01*
X107196720Y-42324855D02*
X107903826Y-41617748D01*
X107903826Y-41617748D02*
X107735468Y-41651420D01*
X107735468Y-41651420D02*
X107600781Y-41651420D01*
X107600781Y-41651420D02*
X107499765Y-41617748D01*
X108745620Y-42459542D02*
X108408903Y-42122824D01*
X108408903Y-42122824D02*
X108038514Y-42425870D01*
X108038514Y-42425870D02*
X108105857Y-42425870D01*
X108105857Y-42425870D02*
X108206872Y-42459542D01*
X108206872Y-42459542D02*
X108375231Y-42627901D01*
X108375231Y-42627901D02*
X108408903Y-42728916D01*
X108408903Y-42728916D02*
X108408903Y-42796260D01*
X108408903Y-42796260D02*
X108375231Y-42897275D01*
X108375231Y-42897275D02*
X108206872Y-43065634D01*
X108206872Y-43065634D02*
X108105857Y-43099305D01*
X108105857Y-43099305D02*
X108038514Y-43099305D01*
X108038514Y-43099305D02*
X107937498Y-43065634D01*
X107937498Y-43065634D02*
X107769140Y-42897275D01*
X107769140Y-42897275D02*
X107735468Y-42796260D01*
X107735468Y-42796260D02*
X107735468Y-42728916D01*
%TO.C,J3*%
D11*
X109500000Y-53842000D02*
X109500000Y-56265000D01*
X109500000Y-53842000D02*
X110482000Y-53842000D01*
X115500000Y-58092000D02*
X110524000Y-58092000D01*
X115500000Y-58092000D02*
X120493000Y-58092000D01*
X121500000Y-53842000D02*
X120522000Y-53842000D01*
X121500000Y-53842000D02*
X121500000Y-56265000D01*
X109994910Y-52513000D02*
G75*
G02*
X109835090Y-52513000I-79910J0D01*
G01*
X109835090Y-52513000D02*
G75*
G02*
X109994910Y-52513000I79910J0D01*
G01*
%TO.C,J1*%
D12*
X103165000Y-39240000D02*
X103165000Y-37360000D01*
X105135000Y-36190000D02*
X106285000Y-36190000D01*
X105135000Y-40410000D02*
X106285000Y-40410000D01*
X106285000Y-36190000D02*
X106285000Y-37240000D01*
X106285000Y-39360000D02*
X107275000Y-39360000D01*
X106285000Y-40410000D02*
X106285000Y-39360000D01*
%TO.C,J2*%
D13*
D14*
X102900000Y-52400000D02*
X102899999Y-52400000D01*
X102899999Y-52400000D01*
X102899999Y-52400000D01*
X102899999Y-52400000D01*
X102899999Y-52400000D01*
X102899999Y-52400000D01*
X102899999Y-52400000D01*
X102899999Y-52399999D01*
X102899999Y-52399999D01*
X102899999Y-52399999D01*
X102899999Y-52399999D01*
X102899999Y-52399999D01*
X102900000Y-52399999D01*
X102900000Y-52399999D01*
X102900000Y-52399999D01*
X102900000Y-52399999D01*
X102900000Y-52399999D01*
X102900000Y-52399999D01*
X102900000Y-52399999D01*
X102900000Y-52399999D01*
X102900000Y-52399999D01*
X102900000Y-52399999D01*
X102900000Y-52399999D01*
X102900000Y-52399999D01*
X102900001Y-52399999D01*
X102900001Y-52399999D01*
X102900001Y-52399999D01*
X102900001Y-52399999D01*
X102900001Y-52399999D01*
X102900001Y-52399999D01*
X102900001Y-52400000D01*
X102900001Y-52400000D01*
X102900001Y-52400000D01*
X102900001Y-52400000D01*
X102900001Y-52400000D01*
X102900001Y-52400000D01*
X102900001Y-52400000D01*
X102900000Y-52400000D01*
X102900000Y-52400000D02*
X102900001Y-52400000D01*
X102900001Y-52400000D01*
X102900001Y-52400000D01*
X102900001Y-52400000D01*
X102900001Y-52400000D01*
X102900001Y-52400000D01*
X102900001Y-52400001D01*
X102900001Y-52400001D01*
X102900001Y-52400001D01*
X102900001Y-52400001D01*
X102900001Y-52400001D01*
X102900001Y-52400001D01*
X102900001Y-52400001D01*
X102900000Y-52400001D01*
X102900000Y-52400001D01*
X102900000Y-52400001D01*
X102900000Y-52400001D01*
X102900000Y-52400001D01*
X102900000Y-52400001D01*
X102900000Y-52400001D01*
X102900000Y-52400001D01*
X102900000Y-52400001D01*
X102900000Y-52400001D01*
X102900000Y-52400001D01*
X102900000Y-52400001D01*
X102899999Y-52400001D01*
X102899999Y-52400001D01*
X102899999Y-52400001D01*
X102899999Y-52400001D01*
X102899999Y-52400001D01*
X102899999Y-52400001D01*
X102899999Y-52400000D01*
X102899999Y-52400000D01*
X102899999Y-52400000D01*
X102899999Y-52400000D01*
X102899999Y-52400000D01*
X102899999Y-52400000D01*
X102900000Y-52400000D01*
D13*
D14*
X102900000Y-52600000D02*
X102899999Y-52600000D01*
X102899999Y-52600000D01*
X102899999Y-52600000D01*
X102899999Y-52600000D01*
X102899999Y-52600000D01*
X102899999Y-52600000D01*
X102899999Y-52600000D01*
X102899999Y-52599999D01*
X102899999Y-52599999D01*
X102899999Y-52599999D01*
X102899999Y-52599999D01*
X102899999Y-52599999D01*
X102900000Y-52599999D01*
X102900000Y-52599999D01*
X102900000Y-52599999D01*
X102900000Y-52599999D01*
X102900000Y-52599999D01*
X102900000Y-52599999D01*
X102900000Y-52599999D01*
X102900000Y-52599999D01*
X102900000Y-52599999D01*
X102900000Y-52599999D01*
X102900000Y-52599999D01*
X102900000Y-52599999D01*
X102900001Y-52599999D01*
X102900001Y-52599999D01*
X102900001Y-52599999D01*
X102900001Y-52599999D01*
X102900001Y-52599999D01*
X102900001Y-52599999D01*
X102900001Y-52600000D01*
X102900001Y-52600000D01*
X102900001Y-52600000D01*
X102900001Y-52600000D01*
X102900001Y-52600000D01*
X102900001Y-52600000D01*
X102900001Y-52600000D01*
X102900000Y-52600000D01*
X102900000Y-52600000D02*
X102900001Y-52600000D01*
X102900001Y-52600000D01*
X102900001Y-52600000D01*
X102900001Y-52600000D01*
X102900001Y-52600000D01*
X102900001Y-52600000D01*
X102900001Y-52600001D01*
X102900001Y-52600001D01*
X102900001Y-52600001D01*
X102900001Y-52600001D01*
X102900001Y-52600001D01*
X102900001Y-52600001D01*
X102900001Y-52600001D01*
X102900000Y-52600001D01*
X102900000Y-52600001D01*
X102900000Y-52600001D01*
X102900000Y-52600001D01*
X102900000Y-52600001D01*
X102900000Y-52600001D01*
X102900000Y-52600001D01*
X102900000Y-52600001D01*
X102900000Y-52600001D01*
X102900000Y-52600001D01*
X102900000Y-52600001D01*
X102900000Y-52600001D01*
X102899999Y-52600001D01*
X102899999Y-52600001D01*
X102899999Y-52600001D01*
X102899999Y-52600001D01*
X102899999Y-52600001D01*
X102899999Y-52600001D01*
X102899999Y-52600000D01*
X102899999Y-52600000D01*
X102899999Y-52600000D01*
X102899999Y-52600000D01*
X102899999Y-52600000D01*
X102899999Y-52600000D01*
X102900000Y-52600000D01*
D13*
X103500000Y-51100000D02*
X108000000Y-51100000D01*
X103500000Y-57100000D02*
X103500000Y-51100000D01*
X108000000Y-51100000D02*
X108000000Y-57100000D01*
X108000000Y-57100000D02*
X103500000Y-57100000D01*
X102900000Y-52400000D02*
G75*
G02*
X102900000Y-52600000I0J-100000D01*
G01*
X102900000Y-52600000D02*
G75*
G02*
X102900000Y-52400000I0J100000D01*
G01*
%TO.C,U1*%
D12*
X106335141Y-45440452D02*
X106794760Y-44980833D01*
X106794760Y-45900071D02*
X106335141Y-45440452D01*
X110980833Y-40794760D02*
X111440452Y-40335141D01*
X111440452Y-40335141D02*
X111900071Y-40794760D01*
X111440452Y-50545763D02*
X110980833Y-50086144D01*
X111900071Y-50086144D02*
X111440452Y-50545763D01*
X116086144Y-44980833D02*
X116545763Y-45440452D01*
X116545763Y-45440452D02*
X116086144Y-45900071D01*
X110372721Y-40695765D02*
X109969670Y-40632126D01*
X110309081Y-40292715D01*
X110372721Y-40695765D01*
G36*
X110372721Y-40695765D02*
G01*
X109969670Y-40632126D01*
X110309081Y-40292715D01*
X110372721Y-40695765D01*
G37*
%TO.C,Y2*%
X113882216Y-40436916D02*
X116300521Y-42855221D01*
X115946967Y-38372165D02*
X113882216Y-40436916D01*
%TD*%
%LPC*%
D15*
%TO.C,C40*%
X112726274Y-40226274D03*
X112273726Y-39773726D03*
%TD*%
D16*
%TO.C,J3*%
X111000000Y-53500000D03*
X112000000Y-53500000D03*
X113000000Y-53500000D03*
X114000000Y-53500000D03*
X115000000Y-53500000D03*
X116000000Y-53500000D03*
X117000000Y-53500000D03*
X118000000Y-53500000D03*
X119000000Y-53500000D03*
X120000000Y-53500000D03*
D17*
X109700000Y-57375000D03*
X121300000Y-57375000D03*
%TD*%
D18*
%TO.C,L3*%
X109517678Y-39517678D03*
X109970226Y-39970226D03*
%TD*%
D19*
%TO.C,C26*%
X106000000Y-47000000D03*
X105547452Y-47452548D03*
%TD*%
D15*
%TO.C,C31*%
X109452548Y-38452548D03*
X109000000Y-38000000D03*
%TD*%
D19*
%TO.C,C10*%
X106517678Y-47482322D03*
X106065130Y-47934870D03*
%TD*%
D18*
%TO.C,R2*%
X107017678Y-42017678D03*
X107470226Y-42470226D03*
%TD*%
D19*
%TO.C,C11*%
X107000000Y-48000000D03*
X106547452Y-48452548D03*
%TD*%
D20*
%TO.C,C1*%
X113992781Y-39433233D03*
X114445329Y-38980685D03*
%TD*%
D21*
%TO.C,J1*%
X106500000Y-38800000D03*
X106500000Y-37800000D03*
D22*
X103975000Y-40100000D03*
X103975000Y-36500000D03*
%TD*%
D20*
%TO.C,C13*%
X112517678Y-50982322D03*
X112970226Y-50529774D03*
%TD*%
D23*
%TO.C,J2*%
X105000000Y-52500000D03*
X106500000Y-52500000D03*
%TD*%
D20*
%TO.C,C32*%
X113017678Y-51482322D03*
X113470226Y-51029774D03*
%TD*%
D24*
%TO.C,U1*%
X110839411Y-41162456D03*
X110556569Y-41445299D03*
X110273726Y-41728141D03*
X109990883Y-42010984D03*
X109708040Y-42293827D03*
X109425198Y-42576670D03*
X109142355Y-42859512D03*
X108859512Y-43142355D03*
X108576670Y-43425198D03*
X108293827Y-43708040D03*
X108010984Y-43990883D03*
X107728141Y-44273726D03*
X107445299Y-44556569D03*
X107162456Y-44839411D03*
D25*
X107162456Y-46041493D03*
X107445299Y-46324335D03*
X107728141Y-46607178D03*
X108010984Y-46890021D03*
X108293827Y-47172864D03*
X108576670Y-47455706D03*
X108859512Y-47738549D03*
X109142355Y-48021392D03*
X109425198Y-48304234D03*
X109708040Y-48587077D03*
X109990883Y-48869920D03*
X110273726Y-49152763D03*
X110556569Y-49435605D03*
X110839411Y-49718448D03*
D24*
X112041493Y-49718448D03*
X112324335Y-49435605D03*
X112607178Y-49152763D03*
X112890021Y-48869920D03*
X113172864Y-48587077D03*
X113455706Y-48304234D03*
X113738549Y-48021392D03*
X114021392Y-47738549D03*
X114304234Y-47455706D03*
X114587077Y-47172864D03*
X114869920Y-46890021D03*
X115152763Y-46607178D03*
X115435605Y-46324335D03*
X115718448Y-46041493D03*
D25*
X115718448Y-44839411D03*
X115435605Y-44556569D03*
X115152763Y-44273726D03*
X114869920Y-43990883D03*
X114587077Y-43708040D03*
X114304234Y-43425198D03*
X114021392Y-43142355D03*
X113738549Y-42859512D03*
X113455706Y-42576670D03*
X113172864Y-42293827D03*
X112890021Y-42010984D03*
X112607178Y-41728141D03*
X112324335Y-41445299D03*
X112041493Y-41162456D03*
D26*
X111440452Y-45440452D03*
%TD*%
D19*
%TO.C,C2*%
X105500000Y-46500000D03*
X105047452Y-46952548D03*
%TD*%
D15*
%TO.C,R22*%
X107970226Y-41970226D03*
X107517678Y-41517678D03*
%TD*%
%TO.C,C16*%
X108482322Y-40482322D03*
X108029774Y-40029774D03*
%TD*%
%TO.C,DNP1*%
X110952548Y-38952548D03*
X110500000Y-38500000D03*
%TD*%
D19*
%TO.C,C25*%
X107982322Y-49017678D03*
X107529774Y-49470226D03*
%TD*%
D20*
%TO.C,C33*%
X117273726Y-42726274D03*
X117726274Y-42273726D03*
%TD*%
D15*
%TO.C,L6*%
X110452548Y-39452548D03*
X110000000Y-39000000D03*
%TD*%
D27*
%TO.C,Y2*%
X115010051Y-40489949D03*
X116247488Y-41727386D03*
X117237437Y-40737437D03*
X116000000Y-39500000D03*
%TD*%
D18*
%TO.C,R21*%
X106517678Y-42517678D03*
X106970226Y-42970226D03*
%TD*%
D15*
%TO.C,C19*%
X109470226Y-40470226D03*
X109017678Y-40017678D03*
%TD*%
D19*
%TO.C,C39*%
X107500000Y-48500000D03*
X107047452Y-48952548D03*
%TD*%
D15*
%TO.C,C15*%
X108470226Y-41470226D03*
X108017678Y-41017678D03*
%TD*%
%LPD*%
M02*
