%TF.GenerationSoftware,KiCad,Pcbnew,10.0.1*%
%TF.CreationDate,2026-05-18T21:08:31+02:00*%
%TF.ProjectId,esp32v2,65737033-3276-4322-9e6b-696361645f70,rev?*%
%TF.SameCoordinates,Original*%
%TF.FileFunction,Soldermask,Top*%
%TF.FilePolarity,Negative*%
%FSLAX46Y46*%
G04 Gerber Fmt 4.6, Leading zero omitted, Abs format (unit mm)*
G04 Created by KiCad (PCBNEW 10.0.1) date 2026-05-18 21:08:31*
%MOMM*%
%LPD*%
G01*
G04 APERTURE LIST*
G04 Aperture macros list*
%AMRoundRect*
0 Rectangle with rounded corners*
0 $1 Rounding radius*
0 $2 $3 $4 $5 $6 $7 $8 $9 X,Y pos of 4 corners*
0 Add a 4 corners polygon primitive as box body*
4,1,4,$2,$3,$4,$5,$6,$7,$8,$9,$2,$3,0*
0 Add four circle primitives for the rounded corners*
1,1,$1+$1,$2,$3*
1,1,$1+$1,$4,$5*
1,1,$1+$1,$6,$7*
1,1,$1+$1,$8,$9*
0 Add four rect primitives between the rounded corners*
20,1,$1+$1,$2,$3,$4,$5,0*
20,1,$1+$1,$4,$5,$6,$7,0*
20,1,$1+$1,$6,$7,$8,$9,0*
20,1,$1+$1,$8,$9,$2,$3,0*%
G04 Aperture macros list end*
%ADD10RoundRect,0.100000X0.100000X-0.130000X0.100000X0.130000X-0.100000X0.130000X-0.100000X-0.130000X0*%
%ADD11RoundRect,0.100000X-0.100000X0.130000X-0.100000X-0.130000X0.100000X-0.130000X0.100000X0.130000X0*%
%ADD12RoundRect,0.100000X0.130000X0.100000X-0.130000X0.100000X-0.130000X-0.100000X0.130000X-0.100000X0*%
%ADD13RoundRect,0.287778X-0.489222X-0.714222X0.489222X-0.714222X0.489222X0.714222X-0.489222X0.714222X0*%
%ADD14RoundRect,0.100000X-0.130000X-0.100000X0.130000X-0.100000X0.130000X0.100000X-0.130000X0.100000X0*%
%ADD15RoundRect,0.150000X-0.150000X-0.475000X0.150000X-0.475000X0.150000X0.475000X-0.150000X0.475000X0*%
%ADD16RoundRect,0.225000X-0.225000X-0.625000X0.225000X-0.625000X0.225000X0.625000X-0.225000X0.625000X0*%
%ADD17RoundRect,0.287778X0.489222X0.714222X-0.489222X0.714222X-0.489222X-0.714222X0.489222X-0.714222X0*%
%ADD18C,1.100000*%
%ADD19RoundRect,0.150000X0.625000X-0.150000X0.625000X0.150000X-0.625000X0.150000X-0.625000X-0.150000X0*%
%ADD20RoundRect,0.250000X0.650000X-0.350000X0.650000X0.350000X-0.650000X0.350000X-0.650000X-0.350000X0*%
%ADD21RoundRect,0.050000X-0.050000X0.350000X-0.050000X-0.350000X0.050000X-0.350000X0.050000X0.350000X0*%
%ADD22RoundRect,0.050000X-0.350000X0.050000X-0.350000X-0.050000X0.350000X-0.050000X0.350000X0.050000X0*%
%ADD23R,4.000000X4.000000*%
%ADD24RoundRect,0.250000X-0.250000X0.325000X-0.250000X-0.325000X0.250000X-0.325000X0.250000X0.325000X0*%
%ADD25RoundRect,0.100000X0.400000X0.400000X-0.400000X0.400000X-0.400000X-0.400000X0.400000X-0.400000X0*%
%ADD26RoundRect,0.105000X0.420000X0.995000X-0.420000X0.995000X-0.420000X-0.995000X0.420000X-0.995000X0*%
G04 APERTURE END LIST*
D10*
%TO.C,C40*%
X117196194Y-46672233D03*
X117196194Y-46032233D03*
%TD*%
D11*
%TO.C,L3*%
X115428427Y-43902362D03*
X115428427Y-44542362D03*
%TD*%
D12*
%TO.C,C26*%
X107650253Y-46705789D03*
X107010253Y-46705789D03*
%TD*%
D13*
%TO.C,S2*%
X104200000Y-39000000D03*
X108350002Y-39000000D03*
%TD*%
D14*
%TO.C,C31*%
X117180000Y-44000000D03*
X117820000Y-44000000D03*
%TD*%
D12*
%TO.C,C10*%
X107675252Y-47412895D03*
X107035252Y-47412895D03*
%TD*%
D14*
%TO.C,R2*%
X112837634Y-42292621D03*
X113477634Y-42292621D03*
%TD*%
D12*
%TO.C,C11*%
X107650254Y-48120002D03*
X107010254Y-48120002D03*
%TD*%
D14*
%TO.C,C1*%
X118652514Y-47007025D03*
X119292514Y-47007025D03*
%TD*%
D15*
%TO.C,J1*%
X111550000Y-58375000D03*
X112550000Y-58375000D03*
X113550000Y-58375000D03*
X114550000Y-58375000D03*
X115550000Y-58375000D03*
X116550000Y-58375000D03*
X117550000Y-58375000D03*
X118550000Y-58375000D03*
D16*
X110100000Y-61500000D03*
X120000000Y-61500000D03*
%TD*%
D17*
%TO.C,S1*%
X108275000Y-42500000D03*
X104124998Y-42500000D03*
%TD*%
D14*
%TO.C,C13*%
X109443021Y-54130411D03*
X110083021Y-54130411D03*
%TD*%
D18*
%TO.C,J2*%
X105000000Y-58900000D03*
X106500000Y-58900000D03*
%TD*%
D14*
%TO.C,C32*%
X109443020Y-54837517D03*
X110083020Y-54837517D03*
%TD*%
D19*
%TO.C,J5*%
X106525000Y-53800000D03*
X106525000Y-52800000D03*
D20*
X104000000Y-55100000D03*
X104000000Y-51500000D03*
%TD*%
D21*
%TO.C,U1*%
X115200000Y-46000000D03*
X114800000Y-46000001D03*
X114400000Y-46000000D03*
X114000000Y-46000000D03*
X113600000Y-46000000D03*
X113200000Y-46000001D03*
X112800000Y-46000000D03*
X112400000Y-46000000D03*
X112000000Y-46000001D03*
X111600000Y-46000000D03*
X111200000Y-46000000D03*
X110800000Y-46000000D03*
X110400000Y-46000001D03*
X110000000Y-46000000D03*
D22*
X109150000Y-46850000D03*
X109150001Y-47250000D03*
X109150000Y-47650000D03*
X109150000Y-48050000D03*
X109150000Y-48450000D03*
X109150001Y-48850000D03*
X109150000Y-49250000D03*
X109150000Y-49650000D03*
X109150001Y-50050000D03*
X109150000Y-50450000D03*
X109150000Y-50850000D03*
X109150000Y-51250000D03*
X109150001Y-51650000D03*
X109150000Y-52050000D03*
D21*
X110000000Y-52900000D03*
X110400000Y-52899999D03*
X110800000Y-52900000D03*
X111200000Y-52900000D03*
X111600000Y-52900000D03*
X112000000Y-52899999D03*
X112400000Y-52900000D03*
X112800000Y-52900000D03*
X113200000Y-52899999D03*
X113600000Y-52900000D03*
X114000000Y-52900000D03*
X114400000Y-52900000D03*
X114800000Y-52899999D03*
X115200000Y-52900000D03*
D22*
X116050000Y-52050000D03*
X116049999Y-51650000D03*
X116050000Y-51250000D03*
X116050000Y-50850000D03*
X116050000Y-50450000D03*
X116049999Y-50050000D03*
X116050000Y-49650000D03*
X116050000Y-49250000D03*
X116049999Y-48850000D03*
X116050000Y-48450000D03*
X116050000Y-48050000D03*
X116050000Y-47650000D03*
X116049999Y-47250000D03*
X116050000Y-46850000D03*
D23*
X112600000Y-49450000D03*
%TD*%
D12*
%TO.C,C2*%
X107650255Y-45998682D03*
X107010255Y-45998682D03*
%TD*%
%TO.C,R22*%
X113477633Y-42999727D03*
X112837633Y-42999727D03*
%TD*%
%TO.C,C16*%
X113797632Y-43706835D03*
X113157632Y-43706835D03*
%TD*%
D14*
%TO.C,DNP1*%
X117069747Y-44744467D03*
X117709747Y-44744467D03*
%TD*%
D12*
%TO.C,C25*%
X107625252Y-49534216D03*
X106985252Y-49534216D03*
%TD*%
D14*
%TO.C,C33*%
X118643961Y-51655534D03*
X119283961Y-51655534D03*
%TD*%
D10*
%TO.C,L6*%
X116135534Y-44517359D03*
X116135534Y-43877359D03*
%TD*%
D24*
%TO.C,Y2*%
X118624623Y-48473555D03*
X118624623Y-50223555D03*
X120024623Y-50223555D03*
X120024623Y-48473555D03*
%TD*%
D14*
%TO.C,R21*%
X111069867Y-44060388D03*
X111709867Y-44060388D03*
%TD*%
D10*
%TO.C,C19*%
X114721320Y-44542362D03*
X114721320Y-43902362D03*
%TD*%
D25*
%TO.C,J4*%
X118500000Y-42000000D03*
D26*
X117024999Y-40500000D03*
D25*
X118500000Y-39000000D03*
D26*
X119975001Y-40500000D03*
%TD*%
D12*
%TO.C,C39*%
X107650254Y-48827108D03*
X107010254Y-48827108D03*
%TD*%
%TO.C,C15*%
X113797632Y-44413942D03*
X113157632Y-44413942D03*
%TD*%
M02*
