M48
; DRILL file {KiCad 9.0.7} date 2026-03-04T21:58:38+0100
; FORMAT={-:-/ absolute / inch / decimal}
; #@! TF.CreationDate,2026-03-04T21:58:38+01:00
; #@! TF.GenerationSoftware,Kicad,Pcbnew,9.0.7
; #@! TF.FileFunction,Plated,1,2,PTH
FMAT,2
INCH
; #@! TA.AperFunction,Plated,PTH,ComponentDrill
T1C0.0079
; #@! TA.AperFunction,Plated,PTH,ViaDrill
T2C0.0118
; #@! TA.AperFunction,Plated,PTH,ViaDrill
T3C0.0157
; #@! TA.AperFunction,Plated,PTH,ComponentDrill
T4C0.0197
; #@! TA.AperFunction,Plated,PTH,ComponentDrill
T5C0.0276
%
G90
G05
T1
X4.1929Y-2.0276
X4.1929Y-2.0748
X4.1929Y-2.122
X4.248Y-2.0276
X4.248Y-2.0748
X4.248Y-2.122
T2
X4.2323Y-1.5748
X4.2913Y-2.5197
X4.3833Y-2.0998
X4.5079Y-2.2244
X4.5866Y-2.4803
X4.6063Y-2.2244
T3
X4.2205Y-2.0748
X4.3071Y-2.2047
X4.5226Y-2.1703
T4
X4.0354Y-1.4961
X4.1339Y-1.4961
X4.2323Y-1.4961
T5
X4.1043Y-2.5551
X4.1437Y-1.7953
X4.1634Y-2.5551
X4.2028Y-1.7953
X4.4587Y-2.5551
X4.4685Y-1.6339
X4.5177Y-2.5551
X4.5276Y-1.6339
M30
