%TF.GenerationSoftware,KiCad,Pcbnew,9.0.7*%
%TF.CreationDate,2026-03-01T17:54:10+01:00*%
%TF.ProjectId,ams1117,616d7331-3131-4372-9e6b-696361645f70,rev?*%
%TF.SameCoordinates,Original*%
%TF.FileFunction,Copper,L1,Top*%
%TF.FilePolarity,Positive*%
%FSLAX46Y46*%
G04 Gerber Fmt 4.6, Leading zero omitted, Abs format (unit mm)*
G04 Created by KiCad (PCBNEW 9.0.7) date 2026-03-01 17:54:10*
%MOMM*%
%LPD*%
G01*
G04 APERTURE LIST*
G04 Aperture macros list*
%AMRoundRect*
0 Rectangle with rounded corners*
0 $1 Rounding radius*
0 $2 $3 $4 $5 $6 $7 $8 $9 X,Y pos of 4 corners*
0 Add a 4 corners polygon primitive as box body*
4,1,4,$2,$3,$4,$5,$6,$7,$8,$9,$2,$3,0*
0 Add four circle primitives for the rounded corners*
1,1,$1+$1,$2,$3*
1,1,$1+$1,$4,$5*
1,1,$1+$1,$6,$7*
1,1,$1+$1,$8,$9*
0 Add four rect primitives between the rounded corners*
20,1,$1+$1,$2,$3,$4,$5,0*
20,1,$1+$1,$4,$5,$6,$7,0*
20,1,$1+$1,$6,$7,$8,$9,0*
20,1,$1+$1,$8,$9,$2,$3,0*%
%AMFreePoly0*
4,1,9,3.862500,-0.866500,0.737500,-0.866500,0.737500,-0.450000,-0.737500,-0.450000,-0.737500,0.450000,0.737500,0.450000,0.737500,0.866500,3.862500,0.866500,3.862500,-0.866500,3.862500,-0.866500,$1*%
G04 Aperture macros list end*
%TA.AperFunction,ComponentPad*%
%ADD10R,0.850000X0.850000*%
%TD*%
%TA.AperFunction,SMDPad,CuDef*%
%ADD11RoundRect,0.150000X0.825000X0.150000X-0.825000X0.150000X-0.825000X-0.150000X0.825000X-0.150000X0*%
%TD*%
%TA.AperFunction,ComponentPad*%
%ADD12C,0.500000*%
%TD*%
%TA.AperFunction,SMDPad,CuDef*%
%ADD13R,2.410000X3.300000*%
%TD*%
%TA.AperFunction,SMDPad,CuDef*%
%ADD14RoundRect,0.175000X-0.175000X-1.175000X0.175000X-1.175000X0.175000X1.175000X-0.175000X1.175000X0*%
%TD*%
%TA.AperFunction,SMDPad,CuDef*%
%ADD15RoundRect,0.250000X-0.300000X-0.700000X0.300000X-0.700000X0.300000X0.700000X-0.300000X0.700000X0*%
%TD*%
%TA.AperFunction,SMDPad,CuDef*%
%ADD16RoundRect,0.225000X-0.225000X0.425000X-0.225000X-0.425000X0.225000X-0.425000X0.225000X0.425000X0*%
%TD*%
%TA.AperFunction,SMDPad,CuDef*%
%ADD17FreePoly0,270.000000*%
%TD*%
%TA.AperFunction,SMDPad,CuDef*%
%ADD18RoundRect,0.225000X-0.225000X-0.250000X0.225000X-0.250000X0.225000X0.250000X-0.225000X0.250000X0*%
%TD*%
%TA.AperFunction,SMDPad,CuDef*%
%ADD19R,0.700000X1.000000*%
%TD*%
%TA.AperFunction,SMDPad,CuDef*%
%ADD20RoundRect,0.150000X0.475000X-0.150000X0.475000X0.150000X-0.475000X0.150000X-0.475000X-0.150000X0*%
%TD*%
%TA.AperFunction,SMDPad,CuDef*%
%ADD21RoundRect,0.225000X0.625000X-0.225000X0.625000X0.225000X-0.625000X0.225000X-0.625000X-0.225000X0*%
%TD*%
%TA.AperFunction,SMDPad,CuDef*%
%ADD22RoundRect,0.175000X0.175000X1.175000X-0.175000X1.175000X-0.175000X-1.175000X0.175000X-1.175000X0*%
%TD*%
%TA.AperFunction,SMDPad,CuDef*%
%ADD23RoundRect,0.250000X0.300000X0.700000X-0.300000X0.700000X-0.300000X-0.700000X0.300000X-0.700000X0*%
%TD*%
%TA.AperFunction,SMDPad,CuDef*%
%ADD24RoundRect,0.225000X0.250000X-0.225000X0.250000X0.225000X-0.250000X0.225000X-0.250000X-0.225000X0*%
%TD*%
%TA.AperFunction,ViaPad*%
%ADD25C,0.604799*%
%TD*%
%TA.AperFunction,ViaPad*%
%ADD26C,0.800000*%
%TD*%
%TA.AperFunction,Conductor*%
%ADD27C,0.500000*%
%TD*%
%TA.AperFunction,Conductor*%
%ADD28C,0.152400*%
%TD*%
%TA.AperFunction,Conductor*%
%ADD29C,0.250000*%
%TD*%
%TA.AperFunction,Conductor*%
%ADD30C,0.300000*%
%TD*%
G04 APERTURE END LIST*
D10*
%TO.P,J8,1,Pin_1*%
%TO.N,GND*%
X107500000Y-38000000D03*
%TD*%
%TO.P,J7,1,Pin_1*%
%TO.N,GND*%
X105000000Y-38000000D03*
%TD*%
%TO.P,J6,1,Pin_1*%
%TO.N,GND*%
X102500000Y-38000000D03*
%TD*%
D11*
%TO.P,U4,1,GND*%
%TO.N,GND*%
X109675000Y-54605000D03*
%TO.P,U4,2,VCC*%
%TO.N,VCC*%
X109675000Y-53335000D03*
%TO.P,U4,3,VM*%
%TO.N,Net-(D1-+)*%
X109675000Y-52065000D03*
%TO.P,U4,4,OUTA*%
%TO.N,Net-(J4-Pin_1)*%
X109675000Y-50795000D03*
%TO.P,U4,5,OUTB*%
%TO.N,Net-(J4-Pin_2)*%
X104725000Y-50795000D03*
%TO.P,U4,6,INA*%
%TO.N,Net-(J3-Pin_1)*%
X104725000Y-52065000D03*
%TO.P,U4,7,INB*%
%TO.N,Net-(J3-Pin_2)*%
X104725000Y-53335000D03*
%TO.P,U4,8,NC*%
%TO.N,unconnected-(U4-NC-Pad8)*%
X104725000Y-54605000D03*
D12*
%TO.P,U4,9,GND*%
%TO.N,GND*%
X107900000Y-53900000D03*
X107900000Y-52700000D03*
X107900000Y-51500000D03*
D13*
X107200000Y-52700000D03*
D12*
X106500000Y-53900000D03*
X106500000Y-52700000D03*
X106500000Y-51500000D03*
%TD*%
D14*
%TO.P,J5,1,Pin_1*%
%TO.N,VCC*%
X104500000Y-64350000D03*
%TO.P,J5,2,Pin_2*%
%TO.N,GND*%
X106000000Y-64350000D03*
D15*
%TO.P,J5,MP*%
%TO.N,N/C*%
X102550000Y-68050000D03*
X107950000Y-68050000D03*
%TD*%
D16*
%TO.P,U1,1,GND*%
%TO.N,GND*%
X116000000Y-58000000D03*
D17*
%TO.P,U1,2,VO*%
%TO.N,VCC*%
X114500000Y-58087500D03*
D16*
%TO.P,U1,3,VI*%
%TO.N,Net-(D1-+)*%
X113000000Y-58000000D03*
%TD*%
D18*
%TO.P,C3,1*%
%TO.N,Net-(D1-+)*%
X113325000Y-54000000D03*
%TO.P,C3,2*%
%TO.N,GND*%
X114875000Y-54000000D03*
%TD*%
D19*
%TO.P,D1,1,+*%
%TO.N,Net-(D1-+)*%
X112600000Y-50950000D03*
%TO.P,D1,2,-*%
%TO.N,GND*%
X116600000Y-50950000D03*
%TO.P,D1,3*%
%TO.N,Net-(J1-Pin_1)*%
X116600000Y-45000000D03*
%TO.P,D1,4*%
%TO.N,Net-(J1-Pin_2)*%
X112600000Y-45000000D03*
%TD*%
D20*
%TO.P,J3,1,Pin_1*%
%TO.N,Net-(J3-Pin_1)*%
X103875000Y-59450000D03*
%TO.P,J3,2,Pin_2*%
%TO.N,Net-(J3-Pin_2)*%
X103875000Y-58450000D03*
D21*
%TO.P,J3,MP*%
%TO.N,N/C*%
X107000000Y-60900000D03*
X107000000Y-57000000D03*
%TD*%
D22*
%TO.P,J4,1,Pin_1*%
%TO.N,Net-(J4-Pin_1)*%
X106450000Y-47700000D03*
%TO.P,J4,2,Pin_2*%
%TO.N,Net-(J4-Pin_2)*%
X104950000Y-47700000D03*
D23*
%TO.P,J4,MP*%
%TO.N,N/C*%
X108400000Y-44000000D03*
X103000000Y-44000000D03*
%TD*%
D22*
%TO.P,J1,1,Pin_1*%
%TO.N,Net-(J1-Pin_1)*%
X114450000Y-42200000D03*
%TO.P,J1,2,Pin_2*%
%TO.N,Net-(J1-Pin_2)*%
X112950000Y-42200000D03*
D23*
%TO.P,J1,MP*%
%TO.N,N/C*%
X116400000Y-38500000D03*
X111000000Y-38500000D03*
%TD*%
D14*
%TO.P,J2,1,Pin_1*%
%TO.N,VCC*%
X113250000Y-64500000D03*
%TO.P,J2,2,Pin_2*%
%TO.N,GND*%
X114750000Y-64500000D03*
D15*
%TO.P,J2,MP*%
%TO.N,N/C*%
X111300000Y-68200000D03*
X116700000Y-68200000D03*
%TD*%
D24*
%TO.P,C18,1*%
%TO.N,VCC*%
X116500000Y-54050000D03*
%TO.P,C18,2*%
%TO.N,GND*%
X116500000Y-52500000D03*
%TD*%
D18*
%TO.P,C17,1*%
%TO.N,Net-(D1-+)*%
X113325000Y-52500000D03*
%TO.P,C17,2*%
%TO.N,GND*%
X114875000Y-52500000D03*
%TD*%
D25*
%TO.N,GND*%
X107500000Y-40000000D03*
D26*
X107200000Y-52700000D03*
X114875000Y-55125000D03*
D25*
X109000000Y-64000000D03*
X117000000Y-56500000D03*
D26*
X109400000Y-56000000D03*
D25*
X116500000Y-63000000D03*
%TO.N,VCC*%
X111335000Y-53335000D03*
X114500000Y-56500000D03*
%TD*%
D27*
%TO.N,GND*%
X107500000Y-38000000D02*
X107500000Y-40000000D01*
X105000000Y-38000000D02*
X107500000Y-38000000D01*
X102500000Y-38000000D02*
X105000000Y-38000000D01*
D28*
X116000000Y-58000000D02*
X116000000Y-57500000D01*
D29*
X107900000Y-51500000D02*
X107900000Y-52000000D01*
X116600000Y-52400000D02*
X116500000Y-52500000D01*
X107900000Y-53400000D02*
X107200000Y-52700000D01*
X106500000Y-52000000D02*
X107200000Y-52700000D01*
D27*
X116000000Y-57500000D02*
X117000000Y-56500000D01*
X107900000Y-54500000D02*
X109400000Y-56000000D01*
D28*
X116250000Y-63000000D02*
X116500000Y-63000000D01*
D29*
X107200000Y-52700000D02*
X107200000Y-53200000D01*
X106500000Y-52700000D02*
X107200000Y-52700000D01*
D27*
X116600000Y-50950000D02*
X116600000Y-52400000D01*
X109675000Y-54605000D02*
X109675000Y-55725000D01*
X114875000Y-52500000D02*
X114875000Y-54000000D01*
X116500000Y-52500000D02*
X114875000Y-52500000D01*
D28*
X106000000Y-64350000D02*
X106350000Y-64000000D01*
D29*
X106500000Y-51500000D02*
X106500000Y-52000000D01*
X107900000Y-53900000D02*
X107900000Y-53400000D01*
D27*
X114875000Y-54000000D02*
X114875000Y-55125000D01*
X114750000Y-64500000D02*
X116250000Y-63000000D01*
D29*
X107900000Y-52000000D02*
X107200000Y-52700000D01*
D27*
X106350000Y-64000000D02*
X109000000Y-64000000D01*
D29*
X107200000Y-53200000D02*
X106500000Y-53900000D01*
D27*
X107900000Y-53900000D02*
X107900000Y-54500000D01*
D29*
X109675000Y-55725000D02*
X109400000Y-56000000D01*
X107200000Y-52700000D02*
X107900000Y-52700000D01*
D27*
%TO.N,Net-(D1-+)*%
X113325000Y-52500000D02*
X113325000Y-54000000D01*
X111485000Y-52065000D02*
X112600000Y-50950000D01*
X109675000Y-52065000D02*
X111485000Y-52065000D01*
X112600000Y-51775000D02*
X113325000Y-52500000D01*
D29*
X113500000Y-54175000D02*
X113325000Y-54000000D01*
D27*
X112600000Y-50950000D02*
X112600000Y-51775000D01*
X113325000Y-54000000D02*
X113325000Y-57675000D01*
D29*
X113325000Y-57675000D02*
X113000000Y-58000000D01*
D28*
%TO.N,Net-(J1-Pin_2)*%
X112600000Y-42550000D02*
X112950000Y-42200000D01*
D27*
X112600000Y-45000000D02*
X112600000Y-42550000D01*
%TO.N,Net-(J1-Pin_1)*%
X116600000Y-44350000D02*
X114450000Y-42200000D01*
X116600000Y-44675000D02*
X116600000Y-45000000D01*
X116600000Y-45000000D02*
X116600000Y-44350000D01*
%TO.N,VCC*%
X113250000Y-64500000D02*
X111220541Y-62470541D01*
X109675000Y-53335000D02*
X111335000Y-53335000D01*
X114500000Y-56500000D02*
X115500000Y-56500000D01*
X105029459Y-62470541D02*
X104500000Y-63000000D01*
X104500000Y-63000000D02*
X104500000Y-64350000D01*
X116500000Y-55500000D02*
X116500000Y-54050000D01*
X114000000Y-63750000D02*
X114000000Y-58587500D01*
X111220541Y-62470541D02*
X105029459Y-62470541D01*
X113250000Y-64500000D02*
X114000000Y-63750000D01*
X115500000Y-56500000D02*
X116500000Y-55500000D01*
X114500000Y-56500000D02*
X114500000Y-58087500D01*
X114000000Y-58587500D02*
X114500000Y-58087500D01*
%TO.N,Net-(J4-Pin_1)*%
X109545000Y-50795000D02*
X106450000Y-47700000D01*
D28*
X109675000Y-50795000D02*
X109545000Y-50795000D01*
D27*
%TO.N,Net-(J4-Pin_2)*%
X104725000Y-50795000D02*
X104725000Y-47925000D01*
D28*
X104725000Y-47925000D02*
X104950000Y-47700000D01*
D30*
%TO.N,Net-(J3-Pin_1)*%
X103375000Y-59450000D02*
X102450000Y-59450000D01*
X102450000Y-59450000D02*
X101500000Y-58500000D01*
X101500000Y-58500000D02*
X101500000Y-54315001D01*
X101500000Y-54315001D02*
X103750001Y-52065000D01*
X103750001Y-52065000D02*
X104725000Y-52065000D01*
%TO.N,Net-(J3-Pin_2)*%
X104725000Y-53335000D02*
X103750001Y-53335000D01*
X103375000Y-53710001D02*
X103375000Y-58450000D01*
X103750001Y-53335000D02*
X103375000Y-53710001D01*
%TD*%
%TA.AperFunction,Conductor*%
%TO.N,GND*%
G36*
X105711195Y-49312182D02*
G01*
X105743334Y-49314481D01*
X105746151Y-49316291D01*
X105748587Y-49316578D01*
X105755705Y-49322432D01*
X105787681Y-49342982D01*
X105855347Y-49410648D01*
X105855351Y-49410651D01*
X105995727Y-49495511D01*
X105995730Y-49495512D01*
X106152343Y-49544315D01*
X106220406Y-49550500D01*
X106220409Y-49550500D01*
X106679591Y-49550500D01*
X106679594Y-49550500D01*
X106747657Y-49544315D01*
X106904270Y-49495512D01*
X106995563Y-49440323D01*
X107063116Y-49422488D01*
X107129589Y-49444006D01*
X107147392Y-49458760D01*
X108026951Y-50338319D01*
X108060436Y-50399642D01*
X108055452Y-50469334D01*
X108013580Y-50525267D01*
X107948116Y-50549684D01*
X107939270Y-50550000D01*
X107450000Y-50550000D01*
X107450000Y-51596446D01*
X107635542Y-51410904D01*
X107696865Y-51377419D01*
X107766556Y-51382403D01*
X107810904Y-51410904D01*
X107829289Y-51429289D01*
X107815224Y-51443355D01*
X107800000Y-51480109D01*
X107800000Y-51519891D01*
X107815224Y-51556645D01*
X107843355Y-51584776D01*
X107880109Y-51600000D01*
X107919891Y-51600000D01*
X107956645Y-51584776D01*
X107984776Y-51556645D01*
X108000000Y-51519891D01*
X108000000Y-51480109D01*
X107984776Y-51443355D01*
X107970710Y-51429289D01*
X107989096Y-51410904D01*
X107997041Y-51406565D01*
X108002467Y-51399318D01*
X108027226Y-51390083D01*
X108050419Y-51377419D01*
X108059448Y-51378064D01*
X108067931Y-51374901D01*
X108093751Y-51380517D01*
X108120111Y-51382403D01*
X108129164Y-51388221D01*
X108136204Y-51389753D01*
X108164458Y-51410904D01*
X108239665Y-51486111D01*
X108273150Y-51547434D01*
X108268166Y-51617126D01*
X108258719Y-51636908D01*
X108248256Y-51654601D01*
X108248254Y-51654606D01*
X108202402Y-51812426D01*
X108202401Y-51812432D01*
X108199500Y-51849298D01*
X108199500Y-51853692D01*
X108179815Y-51920731D01*
X108127011Y-51966486D01*
X108057853Y-51976430D01*
X107994297Y-51947405D01*
X107987819Y-51941373D01*
X107900000Y-51853554D01*
X107653554Y-52100000D01*
X107899999Y-52346445D01*
X107992975Y-52253469D01*
X108054298Y-52219984D01*
X108123990Y-52224968D01*
X108179924Y-52266839D01*
X108199554Y-52311798D01*
X108200634Y-52311485D01*
X108248254Y-52475393D01*
X108248255Y-52475396D01*
X108248256Y-52475398D01*
X108256178Y-52488794D01*
X108284730Y-52537072D01*
X108301998Y-52600193D01*
X108301998Y-52799806D01*
X108295759Y-52821051D01*
X108294180Y-52843140D01*
X108284731Y-52862926D01*
X108248254Y-52924605D01*
X108248254Y-52924606D01*
X108200634Y-53088515D01*
X108199143Y-53088082D01*
X108171217Y-53143553D01*
X108111047Y-53179067D01*
X108041227Y-53176413D01*
X107992976Y-53146530D01*
X107900000Y-53053554D01*
X107653554Y-53300000D01*
X107900000Y-53546446D01*
X107987819Y-53458627D01*
X108049142Y-53425142D01*
X108118834Y-53430126D01*
X108174767Y-53471998D01*
X108199184Y-53537462D01*
X108199500Y-53546308D01*
X108199500Y-53550701D01*
X108202401Y-53587567D01*
X108202402Y-53587573D01*
X108248254Y-53745393D01*
X108248254Y-53745394D01*
X108248255Y-53745396D01*
X108248256Y-53745398D01*
X108258715Y-53763084D01*
X108258717Y-53763086D01*
X108265719Y-53790688D01*
X108275668Y-53817360D01*
X108274199Y-53824110D01*
X108275899Y-53830810D01*
X108266867Y-53857813D01*
X108260816Y-53885633D01*
X108254937Y-53893485D01*
X108253738Y-53897072D01*
X108239665Y-53913887D01*
X108164457Y-53989095D01*
X108103134Y-54022580D01*
X108033442Y-54017596D01*
X107989095Y-53989095D01*
X107970710Y-53970710D01*
X107984776Y-53956645D01*
X108000000Y-53919891D01*
X108000000Y-53880109D01*
X107984776Y-53843355D01*
X107956645Y-53815224D01*
X107919891Y-53800000D01*
X107880109Y-53800000D01*
X107843355Y-53815224D01*
X107815224Y-53843355D01*
X107800000Y-53880109D01*
X107800000Y-53919891D01*
X107815224Y-53956645D01*
X107829289Y-53970710D01*
X107810904Y-53989096D01*
X107749581Y-54022580D01*
X107679889Y-54017596D01*
X107635542Y-53989095D01*
X107450000Y-53803553D01*
X107450000Y-54850000D01*
X108107621Y-54850000D01*
X108174660Y-54869685D01*
X108220415Y-54922489D01*
X108226697Y-54939404D01*
X108248716Y-55015195D01*
X108248717Y-55015196D01*
X108332314Y-55156552D01*
X108332321Y-55156561D01*
X108448438Y-55272678D01*
X108448447Y-55272685D01*
X108589803Y-55356282D01*
X108589806Y-55356283D01*
X108747504Y-55402099D01*
X108747510Y-55402100D01*
X108784350Y-55404999D01*
X108784366Y-55405000D01*
X109425000Y-55405000D01*
X109925000Y-55405000D01*
X110565634Y-55405000D01*
X110565649Y-55404999D01*
X110602489Y-55402100D01*
X110602495Y-55402099D01*
X110760193Y-55356283D01*
X110760196Y-55356282D01*
X110901552Y-55272685D01*
X110901561Y-55272678D01*
X111017678Y-55156561D01*
X111017685Y-55156552D01*
X111101281Y-55015198D01*
X111147100Y-54857486D01*
X111147295Y-54855001D01*
X111147295Y-54855000D01*
X109925000Y-54855000D01*
X109925000Y-55405000D01*
X109425000Y-55405000D01*
X109425000Y-54729000D01*
X109444685Y-54661961D01*
X109497489Y-54616206D01*
X109549000Y-54605000D01*
X109675000Y-54605000D01*
X109675000Y-54479000D01*
X109694685Y-54411961D01*
X109747489Y-54366206D01*
X109799000Y-54355000D01*
X111147295Y-54355000D01*
X111147295Y-54354998D01*
X111147100Y-54352511D01*
X111147099Y-54352505D01*
X111130826Y-54296494D01*
X111131025Y-54226625D01*
X111168967Y-54167955D01*
X111232605Y-54139111D01*
X111249902Y-54137899D01*
X111414081Y-54137899D01*
X111414082Y-54137898D01*
X111569197Y-54107044D01*
X111715315Y-54046520D01*
X111846818Y-53958652D01*
X111958652Y-53846818D01*
X112046520Y-53715315D01*
X112107044Y-53569197D01*
X112137899Y-53414079D01*
X112137899Y-53255921D01*
X112137899Y-53255918D01*
X112137898Y-53255916D01*
X112127381Y-53203044D01*
X112107044Y-53100803D01*
X112046520Y-52954685D01*
X111985209Y-52862927D01*
X111958652Y-52823181D01*
X111954787Y-52818472D01*
X111956230Y-52817287D01*
X111949514Y-52812259D01*
X111940277Y-52787496D01*
X111927615Y-52764306D01*
X111928260Y-52755277D01*
X111925097Y-52746795D01*
X111930713Y-52720975D01*
X111932599Y-52694614D01*
X111938418Y-52685559D01*
X111939949Y-52678522D01*
X111961099Y-52650267D01*
X111963409Y-52647956D01*
X111963416Y-52647952D01*
X112099820Y-52511545D01*
X112161140Y-52478063D01*
X112230832Y-52483047D01*
X112275180Y-52511548D01*
X112338181Y-52574549D01*
X112371666Y-52635872D01*
X112374500Y-52662229D01*
X112374500Y-52798336D01*
X112374501Y-52798355D01*
X112384650Y-52897707D01*
X112384651Y-52897710D01*
X112437996Y-53058694D01*
X112437998Y-53058699D01*
X112515842Y-53184903D01*
X112534282Y-53252296D01*
X112515842Y-53315097D01*
X112437998Y-53441300D01*
X112437996Y-53441305D01*
X112384651Y-53602290D01*
X112374500Y-53701647D01*
X112374500Y-54298337D01*
X112374501Y-54298355D01*
X112384650Y-54397707D01*
X112384651Y-54397710D01*
X112437996Y-54558694D01*
X112438001Y-54558705D01*
X112527029Y-54703040D01*
X112527032Y-54703044D01*
X112538181Y-54714193D01*
X112571666Y-54775516D01*
X112574500Y-54801874D01*
X112574500Y-56787603D01*
X112554815Y-56854642D01*
X112502011Y-56900397D01*
X112489504Y-56905309D01*
X112466302Y-56912997D01*
X112466299Y-56912998D01*
X112321959Y-57002029D01*
X112321955Y-57002032D01*
X112202032Y-57121955D01*
X112202029Y-57121959D01*
X112113001Y-57266294D01*
X112112996Y-57266305D01*
X112059651Y-57427290D01*
X112049500Y-57526647D01*
X112049500Y-58473337D01*
X112049501Y-58473355D01*
X112059650Y-58572707D01*
X112059651Y-58572710D01*
X112112996Y-58733694D01*
X112113001Y-58733705D01*
X112202029Y-58878040D01*
X112202032Y-58878044D01*
X112321955Y-58997967D01*
X112321959Y-58997970D01*
X112466294Y-59086998D01*
X112466297Y-59086999D01*
X112466303Y-59087003D01*
X112627292Y-59140349D01*
X112726655Y-59150500D01*
X113004001Y-59150499D01*
X113071039Y-59170183D01*
X113116794Y-59222987D01*
X113128000Y-59274499D01*
X113128000Y-61950002D01*
X113133144Y-62021940D01*
X113161838Y-62119660D01*
X113173681Y-62159992D01*
X113214360Y-62223290D01*
X113229815Y-62247337D01*
X113234838Y-62264443D01*
X113244477Y-62279442D01*
X113249500Y-62314377D01*
X113249500Y-62525500D01*
X113229815Y-62592539D01*
X113177011Y-62638294D01*
X113125500Y-62649500D01*
X113020406Y-62649500D01*
X112952343Y-62655685D01*
X112952339Y-62655686D01*
X112952335Y-62655687D01*
X112795736Y-62704485D01*
X112795734Y-62704486D01*
X112795731Y-62704487D01*
X112795730Y-62704488D01*
X112736747Y-62740143D01*
X112704437Y-62759676D01*
X112636882Y-62777511D01*
X112570408Y-62755993D01*
X112552607Y-62741239D01*
X111698962Y-61887593D01*
X111698955Y-61887587D01*
X111625270Y-61838353D01*
X111625270Y-61838354D01*
X111576032Y-61805454D01*
X111439458Y-61748884D01*
X111439448Y-61748881D01*
X111294461Y-61720041D01*
X111294459Y-61720041D01*
X108332558Y-61720041D01*
X108265519Y-61700356D01*
X108219764Y-61647552D01*
X108209820Y-61578394D01*
X108227020Y-61530943D01*
X108287003Y-61433697D01*
X108340349Y-61272708D01*
X108350500Y-61173345D01*
X108350499Y-60626656D01*
X108340349Y-60527292D01*
X108287003Y-60366303D01*
X108286999Y-60366297D01*
X108286998Y-60366294D01*
X108197970Y-60221959D01*
X108197967Y-60221955D01*
X108078044Y-60102032D01*
X108078040Y-60102029D01*
X107933705Y-60013001D01*
X107933699Y-60012998D01*
X107933697Y-60012997D01*
X107900103Y-60001865D01*
X107772709Y-59959651D01*
X107673346Y-59949500D01*
X106326662Y-59949500D01*
X106326644Y-59949501D01*
X106227292Y-59959650D01*
X106227289Y-59959651D01*
X106066305Y-60012996D01*
X106066294Y-60013001D01*
X105921959Y-60102029D01*
X105921955Y-60102032D01*
X105802032Y-60221955D01*
X105802029Y-60221959D01*
X105713001Y-60366294D01*
X105712996Y-60366305D01*
X105659651Y-60527290D01*
X105649500Y-60626647D01*
X105649500Y-61173337D01*
X105649501Y-61173355D01*
X105659650Y-61272707D01*
X105659651Y-61272710D01*
X105712996Y-61433694D01*
X105712999Y-61433701D01*
X105772980Y-61530943D01*
X105791421Y-61598336D01*
X105770499Y-61664999D01*
X105716857Y-61709769D01*
X105667442Y-61720041D01*
X104955539Y-61720041D01*
X104810551Y-61748881D01*
X104810541Y-61748884D01*
X104673967Y-61805454D01*
X104551043Y-61887589D01*
X104551043Y-61887590D01*
X103917047Y-62521584D01*
X103917045Y-62521586D01*
X103901765Y-62544457D01*
X103901764Y-62544459D01*
X103834914Y-62644506D01*
X103791835Y-62748510D01*
X103783391Y-62765206D01*
X103704488Y-62895728D01*
X103704487Y-62895730D01*
X103655686Y-63052338D01*
X103655685Y-63052341D01*
X103655685Y-63052343D01*
X103649500Y-63120406D01*
X103649500Y-65579594D01*
X103655685Y-65647657D01*
X103655686Y-65647662D01*
X103655687Y-65647664D01*
X103704485Y-65804263D01*
X103704488Y-65804272D01*
X103789348Y-65944648D01*
X103789351Y-65944652D01*
X103905347Y-66060648D01*
X103905351Y-66060651D01*
X104045727Y-66145511D01*
X104045730Y-66145512D01*
X104202343Y-66194315D01*
X104270406Y-66200500D01*
X104270409Y-66200500D01*
X104729591Y-66200500D01*
X104729594Y-66200500D01*
X104797657Y-66194315D01*
X104954270Y-66145512D01*
X104955026Y-66145055D01*
X105094647Y-66060652D01*
X105094647Y-66060651D01*
X105094653Y-66060648D01*
X105162674Y-65992626D01*
X105223993Y-65959144D01*
X105293685Y-65964128D01*
X105338033Y-65992628D01*
X105405661Y-66060255D01*
X105405662Y-66060256D01*
X105545934Y-66145052D01*
X105702442Y-66193821D01*
X105702440Y-66193821D01*
X105749999Y-66198142D01*
X105750000Y-66198142D01*
X105750000Y-66198141D01*
X106250000Y-66198141D01*
X106297561Y-66193821D01*
X106297570Y-66193819D01*
X106454060Y-66145055D01*
X106454064Y-66145053D01*
X106594337Y-66060256D01*
X106594342Y-66060252D01*
X106710252Y-65944342D01*
X106710256Y-65944337D01*
X106795052Y-65804065D01*
X106843820Y-65647562D01*
X106850000Y-65579556D01*
X106850000Y-64600000D01*
X106250000Y-64600000D01*
X106250000Y-66198141D01*
X105750000Y-66198141D01*
X105750000Y-64474000D01*
X105769685Y-64406961D01*
X105822489Y-64361206D01*
X105874000Y-64350000D01*
X106000000Y-64350000D01*
X106000000Y-64224000D01*
X106019685Y-64156961D01*
X106072489Y-64111206D01*
X106124000Y-64100000D01*
X106849999Y-64100000D01*
X106849999Y-63345041D01*
X106869684Y-63278002D01*
X106922488Y-63232247D01*
X106973999Y-63221041D01*
X110858311Y-63221041D01*
X110925350Y-63240726D01*
X110945992Y-63257360D01*
X112363181Y-64674548D01*
X112396666Y-64735871D01*
X112399500Y-64762229D01*
X112399500Y-65729594D01*
X112405685Y-65797657D01*
X112405686Y-65797662D01*
X112405687Y-65797664D01*
X112454485Y-65954263D01*
X112454488Y-65954272D01*
X112539348Y-66094648D01*
X112539351Y-66094652D01*
X112655347Y-66210648D01*
X112655351Y-66210651D01*
X112795727Y-66295511D01*
X112795730Y-66295512D01*
X112952343Y-66344315D01*
X113020406Y-66350500D01*
X113020409Y-66350500D01*
X113479591Y-66350500D01*
X113479594Y-66350500D01*
X113547657Y-66344315D01*
X113704270Y-66295512D01*
X113705026Y-66295055D01*
X113844647Y-66210652D01*
X113844647Y-66210651D01*
X113844653Y-66210648D01*
X113912674Y-66142626D01*
X113973993Y-66109144D01*
X114043685Y-66114128D01*
X114088033Y-66142628D01*
X114155661Y-66210255D01*
X114155662Y-66210256D01*
X114295934Y-66295052D01*
X114452442Y-66343821D01*
X114452440Y-66343821D01*
X114499999Y-66348142D01*
X114500000Y-66348142D01*
X114500000Y-66348141D01*
X115000000Y-66348141D01*
X115047561Y-66343821D01*
X115047570Y-66343819D01*
X115204060Y-66295055D01*
X115204064Y-66295053D01*
X115344337Y-66210256D01*
X115344342Y-66210252D01*
X115460252Y-66094342D01*
X115460256Y-66094337D01*
X115545052Y-65954065D01*
X115593820Y-65797562D01*
X115600000Y-65729556D01*
X115600000Y-64750000D01*
X115000000Y-64750000D01*
X115000000Y-66348141D01*
X114500000Y-66348141D01*
X114500000Y-64624000D01*
X114519685Y-64556961D01*
X114572489Y-64511206D01*
X114624000Y-64500000D01*
X114750000Y-64500000D01*
X114750000Y-64374000D01*
X114769685Y-64306961D01*
X114822489Y-64261206D01*
X114874000Y-64250000D01*
X115599999Y-64250000D01*
X115599999Y-63270433D01*
X115593821Y-63202438D01*
X115593818Y-63202427D01*
X115545055Y-63045939D01*
X115545053Y-63045935D01*
X115460256Y-62905662D01*
X115460252Y-62905657D01*
X115344342Y-62789747D01*
X115344337Y-62789743D01*
X115204064Y-62704946D01*
X115181405Y-62697886D01*
X115123257Y-62659149D01*
X115095282Y-62595123D01*
X115106363Y-62526138D01*
X115152981Y-62474095D01*
X115218294Y-62455500D01*
X115366500Y-62455500D01*
X115438440Y-62450355D01*
X115576492Y-62409819D01*
X115697532Y-62332031D01*
X115791754Y-62223294D01*
X115851524Y-62092416D01*
X115872000Y-61950000D01*
X115872000Y-59149999D01*
X116250000Y-59149999D01*
X116273308Y-59149999D01*
X116273322Y-59149998D01*
X116372607Y-59139855D01*
X116533481Y-59086547D01*
X116533492Y-59086542D01*
X116677728Y-58997575D01*
X116677732Y-58997572D01*
X116797572Y-58877732D01*
X116797575Y-58877728D01*
X116886542Y-58733492D01*
X116886547Y-58733481D01*
X116939855Y-58572606D01*
X116949999Y-58473322D01*
X116950000Y-58473309D01*
X116950000Y-58250000D01*
X116250000Y-58250000D01*
X116250000Y-59149999D01*
X115872000Y-59149999D01*
X115872000Y-58825000D01*
X115866855Y-58753060D01*
X115861169Y-58733697D01*
X115859879Y-58729303D01*
X115826319Y-58615008D01*
X115769684Y-58526882D01*
X115750000Y-58459843D01*
X115750000Y-58124000D01*
X115769685Y-58056961D01*
X115822489Y-58011206D01*
X115874000Y-58000000D01*
X116000000Y-58000000D01*
X116000000Y-57874000D01*
X116019685Y-57806961D01*
X116072489Y-57761206D01*
X116124000Y-57750000D01*
X116949999Y-57750000D01*
X116949999Y-57526692D01*
X116949998Y-57526677D01*
X116939855Y-57427392D01*
X116886547Y-57266518D01*
X116886542Y-57266507D01*
X116797575Y-57122271D01*
X116797572Y-57122267D01*
X116677732Y-57002427D01*
X116677728Y-57002424D01*
X116533492Y-56913457D01*
X116533481Y-56913452D01*
X116434708Y-56880722D01*
X116377263Y-56840949D01*
X116350440Y-56776433D01*
X116362755Y-56707657D01*
X116386026Y-56675340D01*
X117082952Y-55978415D01*
X117110205Y-55937627D01*
X117165084Y-55855495D01*
X117188518Y-55798920D01*
X117221659Y-55718912D01*
X117250500Y-55573917D01*
X117250500Y-55426082D01*
X117250500Y-54851874D01*
X117259144Y-54822433D01*
X117265668Y-54792447D01*
X117269422Y-54787431D01*
X117270185Y-54784835D01*
X117286819Y-54764193D01*
X117288319Y-54762693D01*
X117349642Y-54729208D01*
X117419334Y-54734192D01*
X117475267Y-54776064D01*
X117499684Y-54841528D01*
X117500000Y-54850374D01*
X117500000Y-66704791D01*
X117480315Y-66771830D01*
X117427511Y-66817585D01*
X117358353Y-66827529D01*
X117323599Y-66817175D01*
X117319334Y-66815186D01*
X117319331Y-66815185D01*
X117152797Y-66760001D01*
X117152795Y-66760000D01*
X117050010Y-66749500D01*
X116349998Y-66749500D01*
X116349980Y-66749501D01*
X116247203Y-66760000D01*
X116247200Y-66760001D01*
X116080668Y-66815185D01*
X116080663Y-66815187D01*
X115931342Y-66907289D01*
X115807289Y-67031342D01*
X115715187Y-67180663D01*
X115715186Y-67180666D01*
X115660001Y-67347203D01*
X115660001Y-67347204D01*
X115660000Y-67347204D01*
X115649500Y-67449983D01*
X115649500Y-68950001D01*
X115649501Y-68950018D01*
X115660000Y-69052796D01*
X115660001Y-69052799D01*
X115665481Y-69069336D01*
X115715186Y-69219334D01*
X115807288Y-69368656D01*
X115931344Y-69492712D01*
X116080666Y-69584814D01*
X116247203Y-69639999D01*
X116349991Y-69650500D01*
X117050008Y-69650499D01*
X117050016Y-69650498D01*
X117050019Y-69650498D01*
X117106302Y-69644748D01*
X117152797Y-69639999D01*
X117319334Y-69584814D01*
X117319345Y-69584806D01*
X117323590Y-69582828D01*
X117392667Y-69572333D01*
X117456452Y-69600850D01*
X117494695Y-69659325D01*
X117500000Y-69695208D01*
X117500000Y-70376000D01*
X117480315Y-70443039D01*
X117427511Y-70488794D01*
X117376000Y-70500000D01*
X101124000Y-70500000D01*
X101056961Y-70480315D01*
X101011206Y-70427511D01*
X101000000Y-70376000D01*
X101000000Y-67299983D01*
X101499500Y-67299983D01*
X101499500Y-68800001D01*
X101499501Y-68800018D01*
X101510000Y-68902796D01*
X101510001Y-68902799D01*
X101559706Y-69052796D01*
X101565186Y-69069334D01*
X101657288Y-69218656D01*
X101781344Y-69342712D01*
X101930666Y-69434814D01*
X102097203Y-69489999D01*
X102199991Y-69500500D01*
X102900008Y-69500499D01*
X102900016Y-69500498D01*
X102900019Y-69500498D01*
X102976238Y-69492712D01*
X103002797Y-69489999D01*
X103169334Y-69434814D01*
X103318656Y-69342712D01*
X103442712Y-69218656D01*
X103534814Y-69069334D01*
X103589999Y-68902797D01*
X103600500Y-68800009D01*
X103600499Y-67299992D01*
X103600498Y-67299983D01*
X106899500Y-67299983D01*
X106899500Y-68800001D01*
X106899501Y-68800018D01*
X106910000Y-68902796D01*
X106910001Y-68902799D01*
X106959706Y-69052796D01*
X106965186Y-69069334D01*
X107057288Y-69218656D01*
X107181344Y-69342712D01*
X107330666Y-69434814D01*
X107497203Y-69489999D01*
X107599991Y-69500500D01*
X108300008Y-69500499D01*
X108300016Y-69500498D01*
X108300019Y-69500498D01*
X108376238Y-69492712D01*
X108402797Y-69489999D01*
X108569334Y-69434814D01*
X108718656Y-69342712D01*
X108842712Y-69218656D01*
X108934814Y-69069334D01*
X108989999Y-68902797D01*
X109000500Y-68800009D01*
X109000499Y-67449983D01*
X110249500Y-67449983D01*
X110249500Y-68950001D01*
X110249501Y-68950018D01*
X110260000Y-69052796D01*
X110260001Y-69052799D01*
X110265481Y-69069336D01*
X110315186Y-69219334D01*
X110407288Y-69368656D01*
X110531344Y-69492712D01*
X110680666Y-69584814D01*
X110847203Y-69639999D01*
X110949991Y-69650500D01*
X111650008Y-69650499D01*
X111650016Y-69650498D01*
X111650019Y-69650498D01*
X111706302Y-69644748D01*
X111752797Y-69639999D01*
X111919334Y-69584814D01*
X112068656Y-69492712D01*
X112192712Y-69368656D01*
X112284814Y-69219334D01*
X112339999Y-69052797D01*
X112350500Y-68950009D01*
X112350499Y-67449992D01*
X112339999Y-67347203D01*
X112284814Y-67180666D01*
X112192712Y-67031344D01*
X112068656Y-66907288D01*
X111975888Y-66850069D01*
X111919336Y-66815187D01*
X111919331Y-66815185D01*
X111917862Y-66814698D01*
X111752797Y-66760001D01*
X111752795Y-66760000D01*
X111650010Y-66749500D01*
X110949998Y-66749500D01*
X110949980Y-66749501D01*
X110847203Y-66760000D01*
X110847200Y-66760001D01*
X110680668Y-66815185D01*
X110680663Y-66815187D01*
X110531342Y-66907289D01*
X110407289Y-67031342D01*
X110315187Y-67180663D01*
X110315186Y-67180666D01*
X110260001Y-67347203D01*
X110260001Y-67347204D01*
X110260000Y-67347204D01*
X110249500Y-67449983D01*
X109000499Y-67449983D01*
X109000499Y-67299992D01*
X108989999Y-67197203D01*
X108934814Y-67030666D01*
X108842712Y-66881344D01*
X108718656Y-66757288D01*
X108569334Y-66665186D01*
X108402797Y-66610001D01*
X108402795Y-66610000D01*
X108300010Y-66599500D01*
X107599998Y-66599500D01*
X107599980Y-66599501D01*
X107497203Y-66610000D01*
X107497200Y-66610001D01*
X107330668Y-66665185D01*
X107330663Y-66665187D01*
X107181342Y-66757289D01*
X107057289Y-66881342D01*
X106965187Y-67030663D01*
X106965186Y-67030666D01*
X106910001Y-67197203D01*
X106910001Y-67197204D01*
X106910000Y-67197204D01*
X106899500Y-67299983D01*
X103600498Y-67299983D01*
X103589999Y-67197203D01*
X103534814Y-67030666D01*
X103442712Y-66881344D01*
X103318656Y-66757288D01*
X103169334Y-66665186D01*
X103002797Y-66610001D01*
X103002795Y-66610000D01*
X102900010Y-66599500D01*
X102199998Y-66599500D01*
X102199980Y-66599501D01*
X102097203Y-66610000D01*
X102097200Y-66610001D01*
X101930668Y-66665185D01*
X101930663Y-66665187D01*
X101781342Y-66757289D01*
X101657289Y-66881342D01*
X101565187Y-67030663D01*
X101565186Y-67030666D01*
X101510001Y-67197203D01*
X101510001Y-67197204D01*
X101510000Y-67197204D01*
X101499500Y-67299983D01*
X101000000Y-67299983D01*
X101000000Y-59219308D01*
X101019685Y-59152269D01*
X101072489Y-59106514D01*
X101141647Y-59096570D01*
X101205203Y-59125595D01*
X101211681Y-59131627D01*
X102035325Y-59955272D01*
X102035326Y-59955273D01*
X102035329Y-59955275D01*
X102035331Y-59955277D01*
X102141873Y-60026465D01*
X102260256Y-60075501D01*
X102260260Y-60075501D01*
X102260261Y-60075502D01*
X102385928Y-60100500D01*
X102385931Y-60100500D01*
X102934484Y-60100500D01*
X102997605Y-60117768D01*
X103058167Y-60153583D01*
X103139602Y-60201744D01*
X103181224Y-60213836D01*
X103297426Y-60247597D01*
X103297429Y-60247597D01*
X103297431Y-60247598D01*
X103334306Y-60250500D01*
X103334314Y-60250500D01*
X104415686Y-60250500D01*
X104415694Y-60250500D01*
X104452569Y-60247598D01*
X104452571Y-60247597D01*
X104452573Y-60247597D01*
X104540818Y-60221959D01*
X104610398Y-60201744D01*
X104751865Y-60118081D01*
X104868081Y-60001865D01*
X104951744Y-59860398D01*
X104997598Y-59702569D01*
X105000500Y-59665694D01*
X105000500Y-59234306D01*
X104997598Y-59197431D01*
X104983817Y-59149998D01*
X104951745Y-59039606D01*
X104951744Y-59039602D01*
X104936084Y-59013122D01*
X104918900Y-58945399D01*
X104936084Y-58886878D01*
X104951742Y-58860401D01*
X104951744Y-58860398D01*
X104997598Y-58702569D01*
X105000500Y-58665694D01*
X105000500Y-58234306D01*
X104997598Y-58197431D01*
X104951744Y-58039602D01*
X104868081Y-57898135D01*
X104868079Y-57898133D01*
X104868076Y-57898129D01*
X104751870Y-57781923D01*
X104751862Y-57781917D01*
X104610396Y-57698255D01*
X104610393Y-57698254D01*
X104452573Y-57652402D01*
X104452567Y-57652401D01*
X104415701Y-57649500D01*
X104415694Y-57649500D01*
X104149500Y-57649500D01*
X104082461Y-57629815D01*
X104036706Y-57577011D01*
X104025500Y-57525500D01*
X104025500Y-56726647D01*
X105649500Y-56726647D01*
X105649500Y-57273337D01*
X105649501Y-57273355D01*
X105659650Y-57372707D01*
X105659651Y-57372710D01*
X105712996Y-57533694D01*
X105713001Y-57533705D01*
X105802029Y-57678040D01*
X105802032Y-57678044D01*
X105921955Y-57797967D01*
X105921959Y-57797970D01*
X106066294Y-57886998D01*
X106066297Y-57886999D01*
X106066303Y-57887003D01*
X106227292Y-57940349D01*
X106326655Y-57950500D01*
X107673344Y-57950499D01*
X107673352Y-57950498D01*
X107673355Y-57950498D01*
X107727760Y-57944940D01*
X107772708Y-57940349D01*
X107933697Y-57887003D01*
X108078044Y-57797968D01*
X108197968Y-57678044D01*
X108287003Y-57533697D01*
X108340349Y-57372708D01*
X108350500Y-57273345D01*
X108350499Y-56726656D01*
X108340349Y-56627292D01*
X108287003Y-56466303D01*
X108286999Y-56466297D01*
X108286998Y-56466294D01*
X108197970Y-56321959D01*
X108197967Y-56321955D01*
X108078044Y-56202032D01*
X108078040Y-56202029D01*
X107933705Y-56113001D01*
X107933699Y-56112998D01*
X107933697Y-56112997D01*
X107933694Y-56112996D01*
X107772709Y-56059651D01*
X107673346Y-56049500D01*
X106326662Y-56049500D01*
X106326644Y-56049501D01*
X106227292Y-56059650D01*
X106227289Y-56059651D01*
X106066305Y-56112996D01*
X106066294Y-56113001D01*
X105921959Y-56202029D01*
X105921955Y-56202032D01*
X105802032Y-56321955D01*
X105802029Y-56321959D01*
X105713001Y-56466294D01*
X105712996Y-56466305D01*
X105659651Y-56627290D01*
X105649500Y-56726647D01*
X104025500Y-56726647D01*
X104025500Y-55529500D01*
X104045185Y-55462461D01*
X104097989Y-55416706D01*
X104149500Y-55405500D01*
X105615686Y-55405500D01*
X105615694Y-55405500D01*
X105652569Y-55402598D01*
X105652571Y-55402597D01*
X105652573Y-55402597D01*
X105694191Y-55390505D01*
X105810398Y-55356744D01*
X105951865Y-55273081D01*
X106068081Y-55156865D01*
X106151744Y-55015398D01*
X106151745Y-55015394D01*
X106151746Y-55015393D01*
X106173823Y-54939405D01*
X106211429Y-54880519D01*
X106274902Y-54851313D01*
X106292899Y-54850000D01*
X106950000Y-54850000D01*
X106950000Y-53803554D01*
X106949998Y-53803553D01*
X106764457Y-53989095D01*
X106703134Y-54022580D01*
X106633442Y-54017596D01*
X106589095Y-53989095D01*
X106570710Y-53970710D01*
X106584776Y-53956645D01*
X106600000Y-53919891D01*
X106600000Y-53880109D01*
X106584776Y-53843355D01*
X106556645Y-53815224D01*
X106519891Y-53800000D01*
X106480109Y-53800000D01*
X106443355Y-53815224D01*
X106415224Y-53843355D01*
X106400000Y-53880109D01*
X106400000Y-53919891D01*
X106415224Y-53956645D01*
X106429289Y-53970710D01*
X106410904Y-53989096D01*
X106402958Y-53993434D01*
X106397533Y-54000682D01*
X106372773Y-54009916D01*
X106349581Y-54022581D01*
X106340551Y-54021935D01*
X106332069Y-54025099D01*
X106306248Y-54019482D01*
X106279889Y-54017597D01*
X106270835Y-54011778D01*
X106263796Y-54010247D01*
X106235542Y-53989096D01*
X106160334Y-53913888D01*
X106126849Y-53852565D01*
X106131833Y-53782873D01*
X106141283Y-53763086D01*
X106151744Y-53745398D01*
X106197598Y-53587569D01*
X106200500Y-53550694D01*
X106200500Y-53546308D01*
X106220185Y-53479269D01*
X106272989Y-53433514D01*
X106342147Y-53423570D01*
X106405703Y-53452595D01*
X106412181Y-53458627D01*
X106500000Y-53546446D01*
X106746446Y-53300000D01*
X106500000Y-53053554D01*
X106407023Y-53146531D01*
X106345700Y-53180015D01*
X106276008Y-53175031D01*
X106220075Y-53133159D01*
X106200448Y-53088200D01*
X106199366Y-53088515D01*
X106151745Y-52924606D01*
X106151744Y-52924603D01*
X106151744Y-52924602D01*
X106115268Y-52862925D01*
X106098086Y-52795204D01*
X106103917Y-52761963D01*
X106130123Y-52680188D01*
X106130080Y-52680109D01*
X106400000Y-52680109D01*
X106400000Y-52719891D01*
X106415224Y-52756645D01*
X106443355Y-52784776D01*
X106480109Y-52800000D01*
X106519891Y-52800000D01*
X106556645Y-52784776D01*
X106584776Y-52756645D01*
X106600000Y-52719891D01*
X106600000Y-52699999D01*
X106853554Y-52699999D01*
X106853554Y-52700000D01*
X106949999Y-52796446D01*
X107450000Y-52796446D01*
X107546446Y-52700000D01*
X107546446Y-52699999D01*
X107526556Y-52680109D01*
X107800000Y-52680109D01*
X107800000Y-52719891D01*
X107815224Y-52756645D01*
X107843355Y-52784776D01*
X107880109Y-52800000D01*
X107919891Y-52800000D01*
X107956645Y-52784776D01*
X107984776Y-52756645D01*
X108000000Y-52719891D01*
X108000000Y-52680109D01*
X107984776Y-52643355D01*
X107956645Y-52615224D01*
X107919891Y-52600000D01*
X107880109Y-52600000D01*
X107843355Y-52615224D01*
X107815224Y-52643355D01*
X107800000Y-52680109D01*
X107526556Y-52680109D01*
X107450000Y-52603553D01*
X107450000Y-52796446D01*
X106949999Y-52796446D01*
X106950000Y-52796445D01*
X106950000Y-52603554D01*
X106949999Y-52603553D01*
X106853554Y-52699999D01*
X106600000Y-52699999D01*
X106600000Y-52680109D01*
X106584776Y-52643355D01*
X106556645Y-52615224D01*
X106519891Y-52600000D01*
X106480109Y-52600000D01*
X106443355Y-52615224D01*
X106415224Y-52643355D01*
X106400000Y-52680109D01*
X106130080Y-52680109D01*
X106100835Y-52626551D01*
X106105819Y-52556859D01*
X106115270Y-52537072D01*
X106151744Y-52475398D01*
X106180622Y-52376000D01*
X106199366Y-52311485D01*
X106200860Y-52311919D01*
X106228762Y-52256467D01*
X106288925Y-52220939D01*
X106358744Y-52223577D01*
X106407023Y-52253469D01*
X106500000Y-52346446D01*
X106746446Y-52100000D01*
X106500000Y-51853554D01*
X106412181Y-51941373D01*
X106350858Y-51974858D01*
X106281166Y-51969874D01*
X106225233Y-51928002D01*
X106200816Y-51862538D01*
X106200500Y-51853692D01*
X106200500Y-51849313D01*
X106200499Y-51849298D01*
X106197598Y-51812432D01*
X106197597Y-51812426D01*
X106151745Y-51654606D01*
X106151745Y-51654605D01*
X106151744Y-51654604D01*
X106151744Y-51654602D01*
X106141282Y-51636912D01*
X106134279Y-51609313D01*
X106124330Y-51582638D01*
X106125798Y-51575888D01*
X106124099Y-51569191D01*
X106133130Y-51542184D01*
X106139182Y-51514365D01*
X106145058Y-51506515D01*
X106146258Y-51502928D01*
X106160333Y-51486111D01*
X106235541Y-51410903D01*
X106296864Y-51377418D01*
X106366556Y-51382402D01*
X106410903Y-51410903D01*
X106429289Y-51429289D01*
X106415224Y-51443355D01*
X106400000Y-51480109D01*
X106400000Y-51519891D01*
X106415224Y-51556645D01*
X106443355Y-51584776D01*
X106480109Y-51600000D01*
X106519891Y-51600000D01*
X106556645Y-51584776D01*
X106584776Y-51556645D01*
X106600000Y-51519891D01*
X106600000Y-51480109D01*
X106584776Y-51443355D01*
X106570709Y-51429288D01*
X106589094Y-51410904D01*
X106650417Y-51377419D01*
X106720109Y-51382403D01*
X106764457Y-51410904D01*
X106949999Y-51596446D01*
X106950000Y-51596445D01*
X106950000Y-50550000D01*
X106292899Y-50550000D01*
X106225860Y-50530315D01*
X106180105Y-50477511D01*
X106173823Y-50460595D01*
X106151746Y-50384606D01*
X106151744Y-50384603D01*
X106151744Y-50384602D01*
X106068081Y-50243135D01*
X106068079Y-50243133D01*
X106068076Y-50243129D01*
X105951870Y-50126923D01*
X105951862Y-50126917D01*
X105810396Y-50043255D01*
X105810393Y-50043254D01*
X105652573Y-49997402D01*
X105652567Y-49997401D01*
X105615701Y-49994500D01*
X105615694Y-49994500D01*
X105599500Y-49994500D01*
X105532461Y-49974815D01*
X105486706Y-49922011D01*
X105475500Y-49870500D01*
X105475500Y-49522388D01*
X105495185Y-49455349D01*
X105515908Y-49430800D01*
X105524913Y-49422580D01*
X105544653Y-49410648D01*
X105614323Y-49340977D01*
X105616408Y-49339075D01*
X105645363Y-49324938D01*
X105673642Y-49309497D01*
X105676563Y-49309705D01*
X105679195Y-49308421D01*
X105711195Y-49312182D01*
G37*
%TD.AperFunction*%
%TA.AperFunction,Conductor*%
G36*
X117443039Y-36019685D02*
G01*
X117488794Y-36072489D01*
X117500000Y-36124000D01*
X117500000Y-37239270D01*
X117480315Y-37306309D01*
X117427511Y-37352064D01*
X117358353Y-37362008D01*
X117294797Y-37332983D01*
X117288319Y-37326951D01*
X117168657Y-37207289D01*
X117168656Y-37207288D01*
X117046025Y-37131649D01*
X117019336Y-37115187D01*
X117019331Y-37115185D01*
X117017862Y-37114698D01*
X116852797Y-37060001D01*
X116852795Y-37060000D01*
X116750010Y-37049500D01*
X116049998Y-37049500D01*
X116049980Y-37049501D01*
X115947203Y-37060000D01*
X115947200Y-37060001D01*
X115780668Y-37115185D01*
X115780663Y-37115187D01*
X115631342Y-37207289D01*
X115507289Y-37331342D01*
X115415187Y-37480663D01*
X115415186Y-37480666D01*
X115360001Y-37647203D01*
X115360001Y-37647204D01*
X115360000Y-37647204D01*
X115349500Y-37749983D01*
X115349500Y-39250001D01*
X115349501Y-39250018D01*
X115360000Y-39352796D01*
X115360001Y-39352799D01*
X115415185Y-39519331D01*
X115415186Y-39519334D01*
X115507288Y-39668656D01*
X115631344Y-39792712D01*
X115780666Y-39884814D01*
X115947203Y-39939999D01*
X116049991Y-39950500D01*
X116750008Y-39950499D01*
X116750016Y-39950498D01*
X116750019Y-39950498D01*
X116806302Y-39944748D01*
X116852797Y-39939999D01*
X117019334Y-39884814D01*
X117168656Y-39792712D01*
X117288319Y-39673049D01*
X117349642Y-39639564D01*
X117419334Y-39644548D01*
X117475267Y-39686420D01*
X117499684Y-39751884D01*
X117500000Y-39760730D01*
X117500000Y-43938965D01*
X117480315Y-44006004D01*
X117427511Y-44051759D01*
X117358353Y-44061703D01*
X117294797Y-44032678D01*
X117266642Y-43997419D01*
X117265083Y-43994503D01*
X117182952Y-43871585D01*
X117154349Y-43842982D01*
X117078416Y-43767049D01*
X115336819Y-42025451D01*
X115303334Y-41964128D01*
X115300500Y-41937770D01*
X115300500Y-40970408D01*
X115300500Y-40970406D01*
X115294315Y-40902343D01*
X115245512Y-40745730D01*
X115245511Y-40745727D01*
X115160651Y-40605351D01*
X115160648Y-40605347D01*
X115044652Y-40489351D01*
X115044648Y-40489348D01*
X114904272Y-40404488D01*
X114904263Y-40404485D01*
X114747664Y-40355687D01*
X114747662Y-40355686D01*
X114747657Y-40355685D01*
X114679594Y-40349500D01*
X114220406Y-40349500D01*
X114152343Y-40355685D01*
X114152339Y-40355686D01*
X114152335Y-40355687D01*
X113995736Y-40404485D01*
X113995727Y-40404488D01*
X113855351Y-40489348D01*
X113787681Y-40557018D01*
X113726357Y-40590502D01*
X113656666Y-40585517D01*
X113612319Y-40557018D01*
X113544653Y-40489352D01*
X113544650Y-40489350D01*
X113544648Y-40489348D01*
X113404272Y-40404488D01*
X113404263Y-40404485D01*
X113247664Y-40355687D01*
X113247662Y-40355686D01*
X113247657Y-40355685D01*
X113179594Y-40349500D01*
X112720406Y-40349500D01*
X112652343Y-40355685D01*
X112652339Y-40355686D01*
X112652335Y-40355687D01*
X112495736Y-40404485D01*
X112495727Y-40404488D01*
X112355351Y-40489348D01*
X112355347Y-40489351D01*
X112239351Y-40605347D01*
X112239348Y-40605351D01*
X112154488Y-40745727D01*
X112154485Y-40745736D01*
X112105687Y-40902335D01*
X112105685Y-40902345D01*
X112099500Y-40970408D01*
X112099500Y-41937770D01*
X112079815Y-42004809D01*
X112063181Y-42025451D01*
X112017051Y-42071580D01*
X112017048Y-42071584D01*
X111934919Y-42194498D01*
X111934912Y-42194511D01*
X111878343Y-42331082D01*
X111878340Y-42331092D01*
X111849500Y-42476079D01*
X111849500Y-44158561D01*
X111829815Y-44225600D01*
X111824767Y-44232872D01*
X111806204Y-44257668D01*
X111806202Y-44257671D01*
X111755908Y-44392517D01*
X111749501Y-44452116D01*
X111749501Y-44452123D01*
X111749500Y-44452135D01*
X111749500Y-45547870D01*
X111749501Y-45547876D01*
X111755908Y-45607483D01*
X111806202Y-45742328D01*
X111806206Y-45742335D01*
X111892452Y-45857544D01*
X111892455Y-45857547D01*
X112007664Y-45943793D01*
X112007671Y-45943797D01*
X112142517Y-45994091D01*
X112142516Y-45994091D01*
X112149444Y-45994835D01*
X112202127Y-46000500D01*
X112997872Y-46000499D01*
X113057483Y-45994091D01*
X113192331Y-45943796D01*
X113307546Y-45857546D01*
X113393796Y-45742331D01*
X113444091Y-45607483D01*
X113450500Y-45547873D01*
X113450499Y-44452128D01*
X113444091Y-44392517D01*
X113393796Y-44257669D01*
X113375233Y-44232872D01*
X113367494Y-44212123D01*
X113355523Y-44193496D01*
X113352371Y-44171579D01*
X113350816Y-44167408D01*
X113350500Y-44158561D01*
X113350500Y-44097953D01*
X113370185Y-44030914D01*
X113410351Y-43991836D01*
X113544648Y-43910651D01*
X113544647Y-43910651D01*
X113544653Y-43910648D01*
X113612319Y-43842982D01*
X113673642Y-43809497D01*
X113743334Y-43814481D01*
X113787681Y-43842982D01*
X113855347Y-43910648D01*
X113855351Y-43910651D01*
X113995727Y-43995511D01*
X113995736Y-43995514D01*
X114027751Y-44005490D01*
X114152343Y-44044315D01*
X114220406Y-44050500D01*
X114220409Y-44050500D01*
X114679591Y-44050500D01*
X114679594Y-44050500D01*
X114747657Y-44044315D01*
X114904270Y-43995512D01*
X114995563Y-43940323D01*
X115063116Y-43922488D01*
X115129589Y-43944006D01*
X115147392Y-43958760D01*
X115713181Y-44524548D01*
X115746666Y-44585871D01*
X115749500Y-44612229D01*
X115749500Y-45547870D01*
X115749501Y-45547876D01*
X115755908Y-45607483D01*
X115806202Y-45742328D01*
X115806206Y-45742335D01*
X115892452Y-45857544D01*
X115892455Y-45857547D01*
X116007664Y-45943793D01*
X116007671Y-45943797D01*
X116142517Y-45994091D01*
X116142516Y-45994091D01*
X116149444Y-45994835D01*
X116202127Y-46000500D01*
X116997872Y-46000499D01*
X117057483Y-45994091D01*
X117192331Y-45943796D01*
X117301691Y-45861928D01*
X117367152Y-45837512D01*
X117435425Y-45852363D01*
X117484831Y-45901768D01*
X117500000Y-45961196D01*
X117500000Y-49989427D01*
X117480315Y-50056466D01*
X117427511Y-50102221D01*
X117358353Y-50112165D01*
X117301689Y-50088694D01*
X117192088Y-50006646D01*
X117192086Y-50006645D01*
X117057379Y-49956403D01*
X117057372Y-49956401D01*
X116997844Y-49950000D01*
X116850000Y-49950000D01*
X116850000Y-51956000D01*
X116830315Y-52023039D01*
X116777511Y-52068794D01*
X116756672Y-52073327D01*
X116750000Y-52080000D01*
X116750000Y-52376000D01*
X116730315Y-52443039D01*
X116677511Y-52488794D01*
X116626000Y-52500000D01*
X116500000Y-52500000D01*
X116500000Y-52626000D01*
X116480315Y-52693039D01*
X116427511Y-52738794D01*
X116376000Y-52750000D01*
X115125000Y-52750000D01*
X115125000Y-54974999D01*
X115148308Y-54974999D01*
X115148322Y-54974998D01*
X115247607Y-54964855D01*
X115408481Y-54911547D01*
X115408492Y-54911542D01*
X115558879Y-54818782D01*
X115560318Y-54821116D01*
X115562586Y-54820201D01*
X115573989Y-54810321D01*
X115594329Y-54807396D01*
X115613388Y-54799708D01*
X115628211Y-54802524D01*
X115643147Y-54800377D01*
X115661840Y-54808914D01*
X115682029Y-54812750D01*
X115692976Y-54823133D01*
X115706703Y-54829402D01*
X115717813Y-54846691D01*
X115732723Y-54860832D01*
X115736923Y-54876426D01*
X115744477Y-54888180D01*
X115749500Y-54923115D01*
X115749500Y-55137770D01*
X115729815Y-55204809D01*
X115713181Y-55225451D01*
X115225451Y-55713181D01*
X115164128Y-55746666D01*
X115137770Y-55749500D01*
X114810874Y-55749500D01*
X114763422Y-55740061D01*
X114734201Y-55727957D01*
X114734189Y-55727954D01*
X114579082Y-55697101D01*
X114579079Y-55697101D01*
X114420921Y-55697101D01*
X114420918Y-55697101D01*
X114265810Y-55727954D01*
X114265798Y-55727957D01*
X114246952Y-55735764D01*
X114177483Y-55743233D01*
X114115004Y-55711958D01*
X114079352Y-55651869D01*
X114075500Y-55621203D01*
X114075500Y-54969640D01*
X114095185Y-54902601D01*
X114147989Y-54856846D01*
X114217147Y-54846902D01*
X114264598Y-54864102D01*
X114341511Y-54911544D01*
X114341518Y-54911547D01*
X114502393Y-54964855D01*
X114601683Y-54974999D01*
X114625000Y-54974998D01*
X114625000Y-51525000D01*
X115125000Y-51525000D01*
X115125000Y-52250000D01*
X116250000Y-52250000D01*
X116250000Y-51544000D01*
X116269685Y-51476961D01*
X116322489Y-51431206D01*
X116343327Y-51426672D01*
X116350000Y-51420000D01*
X116350000Y-51200000D01*
X115750000Y-51200000D01*
X115750000Y-51497844D01*
X115757231Y-51565087D01*
X115755665Y-51565255D01*
X115752399Y-51626067D01*
X115711526Y-51682734D01*
X115646504Y-51708308D01*
X115577979Y-51694669D01*
X115559209Y-51680875D01*
X115558395Y-51681905D01*
X115552728Y-51677424D01*
X115408492Y-51588457D01*
X115408481Y-51588452D01*
X115247606Y-51535144D01*
X115148322Y-51525000D01*
X115125000Y-51525000D01*
X114625000Y-51525000D01*
X114625000Y-51524999D01*
X114601693Y-51525000D01*
X114601674Y-51525001D01*
X114502392Y-51535144D01*
X114341518Y-51588452D01*
X114341507Y-51588457D01*
X114197271Y-51677424D01*
X114197265Y-51677428D01*
X114188031Y-51686663D01*
X114126707Y-51720146D01*
X114057015Y-51715159D01*
X114012672Y-51686660D01*
X114003044Y-51677032D01*
X114003040Y-51677029D01*
X113858705Y-51588001D01*
X113858699Y-51587998D01*
X113858697Y-51587997D01*
X113848977Y-51584776D01*
X113697709Y-51534651D01*
X113598352Y-51524500D01*
X113598345Y-51524500D01*
X113574500Y-51524500D01*
X113507461Y-51504815D01*
X113461706Y-51452011D01*
X113450500Y-51400500D01*
X113450499Y-50402155D01*
X115750000Y-50402155D01*
X115750000Y-50700000D01*
X116350000Y-50700000D01*
X116350000Y-49950000D01*
X116202155Y-49950000D01*
X116142627Y-49956401D01*
X116142620Y-49956403D01*
X116007913Y-50006645D01*
X116007906Y-50006649D01*
X115892812Y-50092809D01*
X115892809Y-50092812D01*
X115806649Y-50207906D01*
X115806645Y-50207913D01*
X115756403Y-50342620D01*
X115756401Y-50342627D01*
X115750000Y-50402155D01*
X113450499Y-50402155D01*
X113450499Y-50402129D01*
X113450498Y-50402123D01*
X113450497Y-50402116D01*
X113444091Y-50342517D01*
X113442525Y-50338319D01*
X113393797Y-50207671D01*
X113393793Y-50207664D01*
X113307547Y-50092455D01*
X113307544Y-50092452D01*
X113192335Y-50006206D01*
X113192328Y-50006202D01*
X113057482Y-49955908D01*
X113057483Y-49955908D01*
X112997883Y-49949501D01*
X112997881Y-49949500D01*
X112997873Y-49949500D01*
X112997864Y-49949500D01*
X112202129Y-49949500D01*
X112202123Y-49949501D01*
X112142516Y-49955908D01*
X112007671Y-50006202D01*
X112007664Y-50006206D01*
X111892455Y-50092452D01*
X111892452Y-50092455D01*
X111806206Y-50207664D01*
X111806202Y-50207671D01*
X111755908Y-50342517D01*
X111749767Y-50399642D01*
X111749501Y-50402123D01*
X111749500Y-50402135D01*
X111749500Y-50687770D01*
X111729815Y-50754809D01*
X111713181Y-50775451D01*
X111360199Y-51128432D01*
X111298876Y-51161917D01*
X111229184Y-51156933D01*
X111173251Y-51115061D01*
X111148834Y-51049597D01*
X111148900Y-51031022D01*
X111150499Y-51010701D01*
X111150500Y-51010694D01*
X111150500Y-50579306D01*
X111147598Y-50542431D01*
X111142611Y-50525267D01*
X111106836Y-50402128D01*
X111101744Y-50384602D01*
X111018081Y-50243135D01*
X111018079Y-50243133D01*
X111018076Y-50243129D01*
X110901870Y-50126923D01*
X110901862Y-50126917D01*
X110760396Y-50043255D01*
X110760393Y-50043254D01*
X110602573Y-49997402D01*
X110602567Y-49997401D01*
X110565701Y-49994500D01*
X110565694Y-49994500D01*
X109857230Y-49994500D01*
X109790191Y-49974815D01*
X109769549Y-49958181D01*
X107336819Y-47525451D01*
X107303334Y-47464128D01*
X107300500Y-47437770D01*
X107300500Y-46470408D01*
X107300500Y-46470406D01*
X107294315Y-46402343D01*
X107245512Y-46245730D01*
X107245511Y-46245727D01*
X107160651Y-46105351D01*
X107160648Y-46105347D01*
X107044652Y-45989351D01*
X107044648Y-45989348D01*
X106904272Y-45904488D01*
X106904263Y-45904485D01*
X106747664Y-45855687D01*
X106747662Y-45855686D01*
X106747657Y-45855685D01*
X106679594Y-45849500D01*
X106220406Y-45849500D01*
X106152343Y-45855685D01*
X106152339Y-45855686D01*
X106152335Y-45855687D01*
X105995736Y-45904485D01*
X105995727Y-45904488D01*
X105855351Y-45989348D01*
X105787681Y-46057018D01*
X105726357Y-46090502D01*
X105656666Y-46085517D01*
X105612319Y-46057018D01*
X105544653Y-45989352D01*
X105544650Y-45989350D01*
X105544648Y-45989348D01*
X105404272Y-45904488D01*
X105404263Y-45904485D01*
X105247664Y-45855687D01*
X105247662Y-45855686D01*
X105247657Y-45855685D01*
X105179594Y-45849500D01*
X104720406Y-45849500D01*
X104652343Y-45855685D01*
X104652339Y-45855686D01*
X104652335Y-45855687D01*
X104495736Y-45904485D01*
X104495727Y-45904488D01*
X104355351Y-45989348D01*
X104355347Y-45989351D01*
X104239351Y-46105347D01*
X104239348Y-46105351D01*
X104154488Y-46245727D01*
X104154485Y-46245736D01*
X104105687Y-46402335D01*
X104105685Y-46402345D01*
X104099500Y-46470408D01*
X104099500Y-47472648D01*
X104079815Y-47539687D01*
X104078603Y-47541538D01*
X104059913Y-47569508D01*
X104003343Y-47706082D01*
X104003340Y-47706092D01*
X103974500Y-47851079D01*
X103974500Y-49870500D01*
X103954815Y-49937539D01*
X103902011Y-49983294D01*
X103850500Y-49994500D01*
X103834298Y-49994500D01*
X103797432Y-49997401D01*
X103797426Y-49997402D01*
X103639606Y-50043254D01*
X103639603Y-50043255D01*
X103498137Y-50126917D01*
X103498129Y-50126923D01*
X103381923Y-50243129D01*
X103381917Y-50243137D01*
X103298255Y-50384603D01*
X103298254Y-50384606D01*
X103252402Y-50542426D01*
X103252401Y-50542432D01*
X103249500Y-50579298D01*
X103249500Y-51010701D01*
X103252401Y-51047567D01*
X103252402Y-51047573D01*
X103298254Y-51205393D01*
X103298255Y-51205396D01*
X103381917Y-51346862D01*
X103386702Y-51353031D01*
X103384256Y-51354927D01*
X103410857Y-51403642D01*
X103405873Y-51473334D01*
X103390474Y-51502241D01*
X103384553Y-51510500D01*
X103381919Y-51513135D01*
X103378399Y-51519086D01*
X103375224Y-51523516D01*
X103364933Y-51531556D01*
X103343339Y-51554373D01*
X103335327Y-51559726D01*
X103335325Y-51559729D01*
X101211681Y-53683373D01*
X101150358Y-53716858D01*
X101080666Y-53711874D01*
X101024733Y-53670002D01*
X101000316Y-53604538D01*
X101000000Y-53595692D01*
X101000000Y-43249983D01*
X101949500Y-43249983D01*
X101949500Y-44750001D01*
X101949501Y-44750018D01*
X101960000Y-44852796D01*
X101960001Y-44852799D01*
X102015185Y-45019331D01*
X102015186Y-45019334D01*
X102107288Y-45168656D01*
X102231344Y-45292712D01*
X102380666Y-45384814D01*
X102547203Y-45439999D01*
X102649991Y-45450500D01*
X103350008Y-45450499D01*
X103350016Y-45450498D01*
X103350019Y-45450498D01*
X103406302Y-45444748D01*
X103452797Y-45439999D01*
X103619334Y-45384814D01*
X103768656Y-45292712D01*
X103892712Y-45168656D01*
X103984814Y-45019334D01*
X104039999Y-44852797D01*
X104050500Y-44750009D01*
X104050499Y-43249992D01*
X104050498Y-43249983D01*
X107349500Y-43249983D01*
X107349500Y-44750001D01*
X107349501Y-44750018D01*
X107360000Y-44852796D01*
X107360001Y-44852799D01*
X107415185Y-45019331D01*
X107415186Y-45019334D01*
X107507288Y-45168656D01*
X107631344Y-45292712D01*
X107780666Y-45384814D01*
X107947203Y-45439999D01*
X108049991Y-45450500D01*
X108750008Y-45450499D01*
X108750016Y-45450498D01*
X108750019Y-45450498D01*
X108806302Y-45444748D01*
X108852797Y-45439999D01*
X109019334Y-45384814D01*
X109168656Y-45292712D01*
X109292712Y-45168656D01*
X109384814Y-45019334D01*
X109439999Y-44852797D01*
X109450500Y-44750009D01*
X109450499Y-43249992D01*
X109439999Y-43147203D01*
X109384814Y-42980666D01*
X109292712Y-42831344D01*
X109168656Y-42707288D01*
X109019334Y-42615186D01*
X108852797Y-42560001D01*
X108852795Y-42560000D01*
X108750010Y-42549500D01*
X108049998Y-42549500D01*
X108049980Y-42549501D01*
X107947203Y-42560000D01*
X107947200Y-42560001D01*
X107780668Y-42615185D01*
X107780663Y-42615187D01*
X107631342Y-42707289D01*
X107507289Y-42831342D01*
X107415187Y-42980663D01*
X107415186Y-42980666D01*
X107360001Y-43147203D01*
X107360001Y-43147204D01*
X107360000Y-43147204D01*
X107349500Y-43249983D01*
X104050498Y-43249983D01*
X104039999Y-43147203D01*
X103984814Y-42980666D01*
X103892712Y-42831344D01*
X103768656Y-42707288D01*
X103619334Y-42615186D01*
X103452797Y-42560001D01*
X103452795Y-42560000D01*
X103350010Y-42549500D01*
X102649998Y-42549500D01*
X102649980Y-42549501D01*
X102547203Y-42560000D01*
X102547200Y-42560001D01*
X102380668Y-42615185D01*
X102380663Y-42615187D01*
X102231342Y-42707289D01*
X102107289Y-42831342D01*
X102015187Y-42980663D01*
X102015186Y-42980666D01*
X101960001Y-43147203D01*
X101960001Y-43147204D01*
X101960000Y-43147204D01*
X101949500Y-43249983D01*
X101000000Y-43249983D01*
X101000000Y-38472844D01*
X101575000Y-38472844D01*
X101581401Y-38532372D01*
X101581403Y-38532379D01*
X101631645Y-38667086D01*
X101631649Y-38667093D01*
X101717809Y-38782187D01*
X101717812Y-38782190D01*
X101832906Y-38868350D01*
X101832913Y-38868354D01*
X101967620Y-38918596D01*
X101967627Y-38918598D01*
X102027155Y-38924999D01*
X102027172Y-38925000D01*
X102250000Y-38925000D01*
X102750000Y-38925000D01*
X102972828Y-38925000D01*
X102972844Y-38924999D01*
X103032372Y-38918598D01*
X103032379Y-38918596D01*
X103167086Y-38868354D01*
X103167093Y-38868350D01*
X103282187Y-38782190D01*
X103282190Y-38782187D01*
X103368350Y-38667093D01*
X103368354Y-38667086D01*
X103418596Y-38532379D01*
X103418598Y-38532372D01*
X103424999Y-38472844D01*
X104075000Y-38472844D01*
X104081401Y-38532372D01*
X104081403Y-38532379D01*
X104131645Y-38667086D01*
X104131649Y-38667093D01*
X104217809Y-38782187D01*
X104217812Y-38782190D01*
X104332906Y-38868350D01*
X104332913Y-38868354D01*
X104467620Y-38918596D01*
X104467627Y-38918598D01*
X104527155Y-38924999D01*
X104527172Y-38925000D01*
X104750000Y-38925000D01*
X105250000Y-38925000D01*
X105472828Y-38925000D01*
X105472844Y-38924999D01*
X105532372Y-38918598D01*
X105532379Y-38918596D01*
X105667086Y-38868354D01*
X105667093Y-38868350D01*
X105782187Y-38782190D01*
X105782190Y-38782187D01*
X105868350Y-38667093D01*
X105868354Y-38667086D01*
X105918596Y-38532379D01*
X105918598Y-38532372D01*
X105924999Y-38472844D01*
X106575000Y-38472844D01*
X106581401Y-38532372D01*
X106581403Y-38532379D01*
X106631645Y-38667086D01*
X106631649Y-38667093D01*
X106717809Y-38782187D01*
X106717812Y-38782190D01*
X106832906Y-38868350D01*
X106832913Y-38868354D01*
X106967620Y-38918596D01*
X106967627Y-38918598D01*
X107027155Y-38924999D01*
X107027172Y-38925000D01*
X107250000Y-38925000D01*
X107750000Y-38925000D01*
X107972828Y-38925000D01*
X107972844Y-38924999D01*
X108032372Y-38918598D01*
X108032379Y-38918596D01*
X108167086Y-38868354D01*
X108167093Y-38868350D01*
X108282187Y-38782190D01*
X108282190Y-38782187D01*
X108368350Y-38667093D01*
X108368354Y-38667086D01*
X108418596Y-38532379D01*
X108418598Y-38532372D01*
X108424999Y-38472844D01*
X108425000Y-38472827D01*
X108425000Y-38250000D01*
X107750000Y-38250000D01*
X107750000Y-38925000D01*
X107250000Y-38925000D01*
X107250000Y-38250000D01*
X106575000Y-38250000D01*
X106575000Y-38472844D01*
X105924999Y-38472844D01*
X105925000Y-38472827D01*
X105925000Y-38250000D01*
X105250000Y-38250000D01*
X105250000Y-38925000D01*
X104750000Y-38925000D01*
X104750000Y-38250000D01*
X104075000Y-38250000D01*
X104075000Y-38472844D01*
X103424999Y-38472844D01*
X103425000Y-38472827D01*
X103425000Y-38250000D01*
X102750000Y-38250000D01*
X102750000Y-38925000D01*
X102250000Y-38925000D01*
X102250000Y-38250000D01*
X101575000Y-38250000D01*
X101575000Y-38472844D01*
X101000000Y-38472844D01*
X101000000Y-37950272D01*
X102250000Y-37950272D01*
X102250000Y-38049728D01*
X102288060Y-38141614D01*
X102358386Y-38211940D01*
X102450272Y-38250000D01*
X102549728Y-38250000D01*
X102641614Y-38211940D01*
X102711940Y-38141614D01*
X102750000Y-38049728D01*
X102750000Y-37950272D01*
X104750000Y-37950272D01*
X104750000Y-38049728D01*
X104788060Y-38141614D01*
X104858386Y-38211940D01*
X104950272Y-38250000D01*
X105049728Y-38250000D01*
X105141614Y-38211940D01*
X105211940Y-38141614D01*
X105250000Y-38049728D01*
X105250000Y-37950272D01*
X107250000Y-37950272D01*
X107250000Y-38049728D01*
X107288060Y-38141614D01*
X107358386Y-38211940D01*
X107450272Y-38250000D01*
X107549728Y-38250000D01*
X107641614Y-38211940D01*
X107711940Y-38141614D01*
X107750000Y-38049728D01*
X107750000Y-37950272D01*
X107711940Y-37858386D01*
X107641614Y-37788060D01*
X107549728Y-37750000D01*
X107750000Y-37750000D01*
X108425000Y-37750000D01*
X108425000Y-37749983D01*
X109949500Y-37749983D01*
X109949500Y-39250001D01*
X109949501Y-39250018D01*
X109960000Y-39352796D01*
X109960001Y-39352799D01*
X110015185Y-39519331D01*
X110015186Y-39519334D01*
X110107288Y-39668656D01*
X110231344Y-39792712D01*
X110380666Y-39884814D01*
X110547203Y-39939999D01*
X110649991Y-39950500D01*
X111350008Y-39950499D01*
X111350016Y-39950498D01*
X111350019Y-39950498D01*
X111406302Y-39944748D01*
X111452797Y-39939999D01*
X111619334Y-39884814D01*
X111768656Y-39792712D01*
X111892712Y-39668656D01*
X111984814Y-39519334D01*
X112039999Y-39352797D01*
X112050500Y-39250009D01*
X112050499Y-37749992D01*
X112039999Y-37647203D01*
X111984814Y-37480666D01*
X111892712Y-37331344D01*
X111768656Y-37207288D01*
X111646025Y-37131649D01*
X111619336Y-37115187D01*
X111619331Y-37115185D01*
X111617862Y-37114698D01*
X111452797Y-37060001D01*
X111452795Y-37060000D01*
X111350010Y-37049500D01*
X110649998Y-37049500D01*
X110649980Y-37049501D01*
X110547203Y-37060000D01*
X110547200Y-37060001D01*
X110380668Y-37115185D01*
X110380663Y-37115187D01*
X110231342Y-37207289D01*
X110107289Y-37331342D01*
X110015187Y-37480663D01*
X110015186Y-37480666D01*
X109960001Y-37647203D01*
X109960001Y-37647204D01*
X109960000Y-37647204D01*
X109949500Y-37749983D01*
X108425000Y-37749983D01*
X108425000Y-37527172D01*
X108424999Y-37527155D01*
X108418598Y-37467627D01*
X108418596Y-37467620D01*
X108368354Y-37332913D01*
X108368350Y-37332906D01*
X108282190Y-37217812D01*
X108282187Y-37217809D01*
X108167093Y-37131649D01*
X108167086Y-37131645D01*
X108032379Y-37081403D01*
X108032372Y-37081401D01*
X107972844Y-37075000D01*
X107750000Y-37075000D01*
X107750000Y-37750000D01*
X107549728Y-37750000D01*
X107450272Y-37750000D01*
X107358386Y-37788060D01*
X107288060Y-37858386D01*
X107250000Y-37950272D01*
X105250000Y-37950272D01*
X105211940Y-37858386D01*
X105141614Y-37788060D01*
X105049728Y-37750000D01*
X105250000Y-37750000D01*
X105925000Y-37750000D01*
X105925000Y-37527172D01*
X105924999Y-37527155D01*
X106575000Y-37527155D01*
X106575000Y-37750000D01*
X107250000Y-37750000D01*
X107250000Y-37075000D01*
X107027155Y-37075000D01*
X106967627Y-37081401D01*
X106967620Y-37081403D01*
X106832913Y-37131645D01*
X106832906Y-37131649D01*
X106717812Y-37217809D01*
X106717809Y-37217812D01*
X106631649Y-37332906D01*
X106631645Y-37332913D01*
X106581403Y-37467620D01*
X106581401Y-37467627D01*
X106575000Y-37527155D01*
X105924999Y-37527155D01*
X105918598Y-37467627D01*
X105918596Y-37467620D01*
X105868354Y-37332913D01*
X105868350Y-37332906D01*
X105782190Y-37217812D01*
X105782187Y-37217809D01*
X105667093Y-37131649D01*
X105667086Y-37131645D01*
X105532379Y-37081403D01*
X105532372Y-37081401D01*
X105472844Y-37075000D01*
X105250000Y-37075000D01*
X105250000Y-37750000D01*
X105049728Y-37750000D01*
X104950272Y-37750000D01*
X104858386Y-37788060D01*
X104788060Y-37858386D01*
X104750000Y-37950272D01*
X102750000Y-37950272D01*
X102711940Y-37858386D01*
X102641614Y-37788060D01*
X102549728Y-37750000D01*
X102750000Y-37750000D01*
X103425000Y-37750000D01*
X103425000Y-37527172D01*
X103424999Y-37527155D01*
X104075000Y-37527155D01*
X104075000Y-37750000D01*
X104750000Y-37750000D01*
X104750000Y-37075000D01*
X104527155Y-37075000D01*
X104467627Y-37081401D01*
X104467620Y-37081403D01*
X104332913Y-37131645D01*
X104332906Y-37131649D01*
X104217812Y-37217809D01*
X104217809Y-37217812D01*
X104131649Y-37332906D01*
X104131645Y-37332913D01*
X104081403Y-37467620D01*
X104081401Y-37467627D01*
X104075000Y-37527155D01*
X103424999Y-37527155D01*
X103418598Y-37467627D01*
X103418596Y-37467620D01*
X103368354Y-37332913D01*
X103368350Y-37332906D01*
X103282190Y-37217812D01*
X103282187Y-37217809D01*
X103167093Y-37131649D01*
X103167086Y-37131645D01*
X103032379Y-37081403D01*
X103032372Y-37081401D01*
X102972844Y-37075000D01*
X102750000Y-37075000D01*
X102750000Y-37750000D01*
X102549728Y-37750000D01*
X102450272Y-37750000D01*
X102358386Y-37788060D01*
X102288060Y-37858386D01*
X102250000Y-37950272D01*
X101000000Y-37950272D01*
X101000000Y-37527155D01*
X101575000Y-37527155D01*
X101575000Y-37750000D01*
X102250000Y-37750000D01*
X102250000Y-37075000D01*
X102027155Y-37075000D01*
X101967627Y-37081401D01*
X101967620Y-37081403D01*
X101832913Y-37131645D01*
X101832906Y-37131649D01*
X101717812Y-37217809D01*
X101717809Y-37217812D01*
X101631649Y-37332906D01*
X101631645Y-37332913D01*
X101581403Y-37467620D01*
X101581401Y-37467627D01*
X101575000Y-37527155D01*
X101000000Y-37527155D01*
X101000000Y-36124000D01*
X101019685Y-36056961D01*
X101072489Y-36011206D01*
X101124000Y-36000000D01*
X117376000Y-36000000D01*
X117443039Y-36019685D01*
G37*
%TD.AperFunction*%
%TD*%
M02*
