%TF.GenerationSoftware,KiCad,Pcbnew,9.0.7*%
%TF.CreationDate,2026-03-01T17:54:10+01:00*%
%TF.ProjectId,ams1117,616d7331-3131-4372-9e6b-696361645f70,rev?*%
%TF.SameCoordinates,Original*%
%TF.FileFunction,Copper,L2,Bot*%
%TF.FilePolarity,Positive*%
%FSLAX46Y46*%
G04 Gerber Fmt 4.6, Leading zero omitted, Abs format (unit mm)*
G04 Created by KiCad (PCBNEW 9.0.7) date 2026-03-01 17:54:10*
%MOMM*%
%LPD*%
G01*
G04 APERTURE LIST*
%TA.AperFunction,ComponentPad*%
%ADD10R,0.850000X0.850000*%
%TD*%
%TA.AperFunction,ComponentPad*%
%ADD11C,0.500000*%
%TD*%
%TA.AperFunction,SMDPad,CuDef*%
%ADD12R,1.900000X2.900000*%
%TD*%
%TA.AperFunction,ViaPad*%
%ADD13C,0.604799*%
%TD*%
%TA.AperFunction,ViaPad*%
%ADD14C,0.800000*%
%TD*%
%TA.AperFunction,Conductor*%
%ADD15C,0.500000*%
%TD*%
G04 APERTURE END LIST*
D10*
%TO.P,J8,1,Pin_1*%
%TO.N,GND*%
X107500000Y-38000000D03*
%TD*%
%TO.P,J7,1,Pin_1*%
%TO.N,GND*%
X105000000Y-38000000D03*
%TD*%
%TO.P,J6,1,Pin_1*%
%TO.N,GND*%
X102500000Y-38000000D03*
%TD*%
D11*
%TO.P,U4,9,GND*%
%TO.N,GND*%
X107900000Y-53900000D03*
X107900000Y-52700000D03*
X107900000Y-51500000D03*
D12*
X107200000Y-52700000D03*
D11*
X106500000Y-53900000D03*
X106500000Y-52700000D03*
X106500000Y-51500000D03*
%TD*%
D13*
%TO.N,GND*%
X107500000Y-40000000D03*
D14*
X107200000Y-52700000D03*
X114875000Y-55125000D03*
D13*
X109000000Y-64000000D03*
X117000000Y-56500000D03*
D14*
X109400000Y-56000000D03*
D13*
X116500000Y-63000000D03*
%TO.N,VCC*%
X111335000Y-53335000D03*
X114500000Y-56500000D03*
%TD*%
D15*
%TO.N,VCC*%
X111335000Y-53335000D02*
X111335000Y-55335000D01*
X112500000Y-56500000D02*
X114500000Y-56500000D01*
X112000000Y-56000000D02*
X112500000Y-56500000D01*
X111335000Y-55335000D02*
X112000000Y-56000000D01*
%TD*%
%TA.AperFunction,Conductor*%
%TO.N,GND*%
G36*
X117443039Y-36019685D02*
G01*
X117488794Y-36072489D01*
X117500000Y-36124000D01*
X117500000Y-70376000D01*
X117480315Y-70443039D01*
X117427511Y-70488794D01*
X117376000Y-70500000D01*
X101124000Y-70500000D01*
X101056961Y-70480315D01*
X101011206Y-70427511D01*
X101000000Y-70376000D01*
X101000000Y-54634723D01*
X106118829Y-54634723D01*
X106142624Y-54643598D01*
X106202155Y-54649999D01*
X106202172Y-54650000D01*
X106950000Y-54650000D01*
X107450000Y-54650000D01*
X108197828Y-54650000D01*
X108197844Y-54649999D01*
X108257372Y-54643598D01*
X108257378Y-54643597D01*
X108281168Y-54634723D01*
X108281168Y-54634722D01*
X107582765Y-53936319D01*
X107526555Y-53880109D01*
X107800000Y-53880109D01*
X107800000Y-53919891D01*
X107815224Y-53956645D01*
X107843355Y-53984776D01*
X107880109Y-54000000D01*
X107919891Y-54000000D01*
X107956645Y-53984776D01*
X107984776Y-53956645D01*
X108000000Y-53919891D01*
X108000000Y-53899999D01*
X108253554Y-53899999D01*
X108253554Y-53900000D01*
X108634722Y-54281168D01*
X108634723Y-54281168D01*
X108643597Y-54257378D01*
X108643598Y-54257372D01*
X108649999Y-54197844D01*
X108650000Y-54197827D01*
X108650000Y-53255916D01*
X110532101Y-53255916D01*
X110532101Y-53414083D01*
X110562954Y-53569189D01*
X110562956Y-53569197D01*
X110575061Y-53598420D01*
X110584500Y-53645873D01*
X110584500Y-55408918D01*
X110584500Y-55408920D01*
X110584499Y-55408920D01*
X110613340Y-55553907D01*
X110613343Y-55553917D01*
X110669913Y-55690490D01*
X110669914Y-55690492D01*
X110694947Y-55727956D01*
X110694948Y-55727958D01*
X110752043Y-55813410D01*
X110752047Y-55813415D01*
X111417048Y-56478416D01*
X112021578Y-57082947D01*
X112021581Y-57082950D01*
X112021584Y-57082952D01*
X112082497Y-57123652D01*
X112144505Y-57165084D01*
X112281087Y-57221658D01*
X112281091Y-57221658D01*
X112281092Y-57221659D01*
X112426079Y-57250500D01*
X112426082Y-57250500D01*
X112426083Y-57250500D01*
X112573918Y-57250500D01*
X114189126Y-57250500D01*
X114236578Y-57259939D01*
X114265798Y-57272042D01*
X114265803Y-57272044D01*
X114420916Y-57302898D01*
X114420919Y-57302899D01*
X114420921Y-57302899D01*
X114579081Y-57302899D01*
X114579082Y-57302898D01*
X114734197Y-57272044D01*
X114880315Y-57211520D01*
X115011818Y-57123652D01*
X115123652Y-57011818D01*
X115211520Y-56880315D01*
X115272044Y-56734197D01*
X115302899Y-56579079D01*
X115302899Y-56420921D01*
X115302899Y-56420918D01*
X115302898Y-56420916D01*
X115272045Y-56265810D01*
X115272044Y-56265803D01*
X115211520Y-56119685D01*
X115182098Y-56075653D01*
X115123652Y-55988181D01*
X115011818Y-55876347D01*
X114880312Y-55788478D01*
X114880310Y-55788477D01*
X114734201Y-55727957D01*
X114734189Y-55727954D01*
X114579082Y-55697101D01*
X114579079Y-55697101D01*
X114420921Y-55697101D01*
X114420918Y-55697101D01*
X114265810Y-55727954D01*
X114265798Y-55727957D01*
X114236578Y-55740061D01*
X114189126Y-55749500D01*
X112862230Y-55749500D01*
X112795191Y-55729815D01*
X112774549Y-55713181D01*
X112121819Y-55060451D01*
X112088334Y-54999128D01*
X112085500Y-54972770D01*
X112085500Y-53645873D01*
X112094939Y-53598420D01*
X112107044Y-53569197D01*
X112137899Y-53414079D01*
X112137899Y-53255921D01*
X112137899Y-53255918D01*
X112137898Y-53255916D01*
X112110687Y-53119119D01*
X112107044Y-53100803D01*
X112046520Y-52954685D01*
X112017098Y-52910653D01*
X111958652Y-52823181D01*
X111846818Y-52711347D01*
X111715312Y-52623478D01*
X111715310Y-52623477D01*
X111569201Y-52562957D01*
X111569189Y-52562954D01*
X111414082Y-52532101D01*
X111414079Y-52532101D01*
X111255921Y-52532101D01*
X111255918Y-52532101D01*
X111100810Y-52562954D01*
X111100798Y-52562957D01*
X110954689Y-52623477D01*
X110954687Y-52623478D01*
X110823181Y-52711347D01*
X110711347Y-52823181D01*
X110623478Y-52954687D01*
X110623477Y-52954689D01*
X110562957Y-53100798D01*
X110562954Y-53100810D01*
X110532101Y-53255916D01*
X108650000Y-53255916D01*
X108650000Y-52950000D01*
X108503553Y-52950000D01*
X108611349Y-53057796D01*
X108644834Y-53119119D01*
X108639850Y-53188811D01*
X108611350Y-53233158D01*
X108544508Y-53300000D01*
X108611349Y-53366841D01*
X108644834Y-53428164D01*
X108639850Y-53497856D01*
X108611349Y-53542203D01*
X108253554Y-53899999D01*
X108000000Y-53899999D01*
X108000000Y-53880109D01*
X107984776Y-53843355D01*
X107956645Y-53815224D01*
X107919891Y-53800000D01*
X107880109Y-53800000D01*
X107843355Y-53815224D01*
X107815224Y-53843355D01*
X107800000Y-53880109D01*
X107526555Y-53880109D01*
X107450000Y-53803553D01*
X107450000Y-54650000D01*
X106950000Y-54650000D01*
X106950000Y-53803554D01*
X106949999Y-53803553D01*
X106676777Y-54076777D01*
X106118829Y-54634723D01*
X101000000Y-54634723D01*
X101000000Y-54197844D01*
X105750000Y-54197844D01*
X105756401Y-54257372D01*
X105756403Y-54257382D01*
X105765275Y-54281168D01*
X105765276Y-54281169D01*
X106146446Y-53900000D01*
X106146446Y-53899999D01*
X106126556Y-53880109D01*
X106400000Y-53880109D01*
X106400000Y-53919891D01*
X106415224Y-53956645D01*
X106443355Y-53984776D01*
X106480109Y-54000000D01*
X106519891Y-54000000D01*
X106556645Y-53984776D01*
X106584776Y-53956645D01*
X106600000Y-53919891D01*
X106600000Y-53880109D01*
X106584776Y-53843355D01*
X106556645Y-53815224D01*
X106519891Y-53800000D01*
X106480109Y-53800000D01*
X106443355Y-53815224D01*
X106415224Y-53843355D01*
X106400000Y-53880109D01*
X106126556Y-53880109D01*
X105788650Y-53542203D01*
X105755165Y-53480880D01*
X105760149Y-53411188D01*
X105765469Y-53398973D01*
X105815060Y-53300000D01*
X106253554Y-53300000D01*
X106500000Y-53546446D01*
X106746446Y-53300000D01*
X107653554Y-53300000D01*
X107900000Y-53546446D01*
X108146446Y-53300000D01*
X107900000Y-53053554D01*
X107653554Y-53300000D01*
X106746446Y-53300000D01*
X106500000Y-53053554D01*
X106253554Y-53300000D01*
X105815060Y-53300000D01*
X105828556Y-53273064D01*
X105788650Y-53233158D01*
X105755165Y-53171835D01*
X105760149Y-53102143D01*
X105788650Y-53057795D01*
X105896446Y-52950000D01*
X105750000Y-52950000D01*
X105750000Y-54197844D01*
X101000000Y-54197844D01*
X101000000Y-52680109D01*
X106400000Y-52680109D01*
X106400000Y-52719891D01*
X106415224Y-52756645D01*
X106443355Y-52784776D01*
X106480109Y-52800000D01*
X106519891Y-52800000D01*
X106556645Y-52784776D01*
X106584776Y-52756645D01*
X106600000Y-52719891D01*
X106600000Y-52680109D01*
X107800000Y-52680109D01*
X107800000Y-52719891D01*
X107815224Y-52756645D01*
X107843355Y-52784776D01*
X107880109Y-52800000D01*
X107919891Y-52800000D01*
X107956645Y-52784776D01*
X107984776Y-52756645D01*
X108000000Y-52719891D01*
X108000000Y-52680109D01*
X107984776Y-52643355D01*
X107956645Y-52615224D01*
X107919891Y-52600000D01*
X107880109Y-52600000D01*
X107843355Y-52615224D01*
X107815224Y-52643355D01*
X107800000Y-52680109D01*
X106600000Y-52680109D01*
X106584776Y-52643355D01*
X106556645Y-52615224D01*
X106519891Y-52600000D01*
X106480109Y-52600000D01*
X106443355Y-52615224D01*
X106415224Y-52643355D01*
X106400000Y-52680109D01*
X101000000Y-52680109D01*
X101000000Y-51202155D01*
X105750000Y-51202155D01*
X105750000Y-52450000D01*
X105896446Y-52450000D01*
X105896446Y-52449999D01*
X105788650Y-52342203D01*
X105755165Y-52280880D01*
X105760149Y-52211188D01*
X105765469Y-52198973D01*
X105815060Y-52100000D01*
X106253554Y-52100000D01*
X106500000Y-52346446D01*
X106746446Y-52100000D01*
X107653554Y-52100000D01*
X107900000Y-52346446D01*
X108146446Y-52100000D01*
X107900000Y-51853554D01*
X107653554Y-52100000D01*
X106746446Y-52100000D01*
X106500000Y-51853554D01*
X106253554Y-52100000D01*
X105815060Y-52100000D01*
X105828556Y-52073064D01*
X105788650Y-52033158D01*
X105755165Y-51971835D01*
X105760149Y-51902143D01*
X105788650Y-51857796D01*
X106146446Y-51500000D01*
X106146446Y-51499999D01*
X106126556Y-51480109D01*
X106400000Y-51480109D01*
X106400000Y-51519891D01*
X106415224Y-51556645D01*
X106443355Y-51584776D01*
X106480109Y-51600000D01*
X106519891Y-51600000D01*
X106556645Y-51584776D01*
X106584776Y-51556645D01*
X106600000Y-51519891D01*
X106600000Y-51480109D01*
X106584776Y-51443355D01*
X106556645Y-51415224D01*
X106519891Y-51400000D01*
X106480109Y-51400000D01*
X106443355Y-51415224D01*
X106415224Y-51443355D01*
X106400000Y-51480109D01*
X106126556Y-51480109D01*
X105765276Y-51118829D01*
X105756401Y-51142626D01*
X105750000Y-51202155D01*
X101000000Y-51202155D01*
X101000000Y-50765276D01*
X106118829Y-50765276D01*
X106676777Y-51323223D01*
X106949999Y-51596446D01*
X107450000Y-51596446D01*
X107566337Y-51480109D01*
X107800000Y-51480109D01*
X107800000Y-51519891D01*
X107815224Y-51556645D01*
X107843355Y-51584776D01*
X107880109Y-51600000D01*
X107919891Y-51600000D01*
X107956645Y-51584776D01*
X107984776Y-51556645D01*
X108000000Y-51519891D01*
X108000000Y-51499999D01*
X108253554Y-51499999D01*
X108253554Y-51500001D01*
X108611349Y-51857796D01*
X108644834Y-51919119D01*
X108639850Y-51988811D01*
X108611350Y-52033158D01*
X108544508Y-52100000D01*
X108611349Y-52166841D01*
X108644834Y-52228164D01*
X108639850Y-52297856D01*
X108611350Y-52342203D01*
X108503554Y-52449999D01*
X108503554Y-52450000D01*
X108650000Y-52450000D01*
X108650000Y-51202172D01*
X108649999Y-51202155D01*
X108643598Y-51142624D01*
X108634723Y-51118829D01*
X108253554Y-51499999D01*
X108000000Y-51499999D01*
X108000000Y-51480109D01*
X107984776Y-51443355D01*
X107956645Y-51415224D01*
X107919891Y-51400000D01*
X107880109Y-51400000D01*
X107843355Y-51415224D01*
X107815224Y-51443355D01*
X107800000Y-51480109D01*
X107566337Y-51480109D01*
X107723223Y-51323223D01*
X108281169Y-50765276D01*
X108281168Y-50765275D01*
X108257382Y-50756403D01*
X108257372Y-50756401D01*
X108197844Y-50750000D01*
X107450000Y-50750000D01*
X107450000Y-51596446D01*
X106949999Y-51596446D01*
X106950000Y-51596445D01*
X106950000Y-50750000D01*
X106202155Y-50750000D01*
X106142626Y-50756401D01*
X106118829Y-50765276D01*
X101000000Y-50765276D01*
X101000000Y-38472844D01*
X101575000Y-38472844D01*
X101581401Y-38532372D01*
X101581403Y-38532379D01*
X101631645Y-38667086D01*
X101631649Y-38667093D01*
X101717809Y-38782187D01*
X101717812Y-38782190D01*
X101832906Y-38868350D01*
X101832913Y-38868354D01*
X101967620Y-38918596D01*
X101967627Y-38918598D01*
X102027155Y-38924999D01*
X102027172Y-38925000D01*
X102250000Y-38925000D01*
X102750000Y-38925000D01*
X102972828Y-38925000D01*
X102972844Y-38924999D01*
X103032372Y-38918598D01*
X103032379Y-38918596D01*
X103167086Y-38868354D01*
X103167093Y-38868350D01*
X103282187Y-38782190D01*
X103282190Y-38782187D01*
X103368350Y-38667093D01*
X103368354Y-38667086D01*
X103418596Y-38532379D01*
X103418598Y-38532372D01*
X103424999Y-38472844D01*
X104075000Y-38472844D01*
X104081401Y-38532372D01*
X104081403Y-38532379D01*
X104131645Y-38667086D01*
X104131649Y-38667093D01*
X104217809Y-38782187D01*
X104217812Y-38782190D01*
X104332906Y-38868350D01*
X104332913Y-38868354D01*
X104467620Y-38918596D01*
X104467627Y-38918598D01*
X104527155Y-38924999D01*
X104527172Y-38925000D01*
X104750000Y-38925000D01*
X105250000Y-38925000D01*
X105472828Y-38925000D01*
X105472844Y-38924999D01*
X105532372Y-38918598D01*
X105532379Y-38918596D01*
X105667086Y-38868354D01*
X105667093Y-38868350D01*
X105782187Y-38782190D01*
X105782190Y-38782187D01*
X105868350Y-38667093D01*
X105868354Y-38667086D01*
X105918596Y-38532379D01*
X105918598Y-38532372D01*
X105924999Y-38472844D01*
X106575000Y-38472844D01*
X106581401Y-38532372D01*
X106581403Y-38532379D01*
X106631645Y-38667086D01*
X106631649Y-38667093D01*
X106717809Y-38782187D01*
X106717812Y-38782190D01*
X106832906Y-38868350D01*
X106832913Y-38868354D01*
X106967620Y-38918596D01*
X106967627Y-38918598D01*
X107027155Y-38924999D01*
X107027172Y-38925000D01*
X107250000Y-38925000D01*
X107750000Y-38925000D01*
X107972828Y-38925000D01*
X107972844Y-38924999D01*
X108032372Y-38918598D01*
X108032379Y-38918596D01*
X108167086Y-38868354D01*
X108167093Y-38868350D01*
X108282187Y-38782190D01*
X108282190Y-38782187D01*
X108368350Y-38667093D01*
X108368354Y-38667086D01*
X108418596Y-38532379D01*
X108418598Y-38532372D01*
X108424999Y-38472844D01*
X108425000Y-38472827D01*
X108425000Y-38250000D01*
X107750000Y-38250000D01*
X107750000Y-38925000D01*
X107250000Y-38925000D01*
X107250000Y-38250000D01*
X106575000Y-38250000D01*
X106575000Y-38472844D01*
X105924999Y-38472844D01*
X105925000Y-38472827D01*
X105925000Y-38250000D01*
X105250000Y-38250000D01*
X105250000Y-38925000D01*
X104750000Y-38925000D01*
X104750000Y-38250000D01*
X104075000Y-38250000D01*
X104075000Y-38472844D01*
X103424999Y-38472844D01*
X103425000Y-38472827D01*
X103425000Y-38250000D01*
X102750000Y-38250000D01*
X102750000Y-38925000D01*
X102250000Y-38925000D01*
X102250000Y-38250000D01*
X101575000Y-38250000D01*
X101575000Y-38472844D01*
X101000000Y-38472844D01*
X101000000Y-37950272D01*
X102250000Y-37950272D01*
X102250000Y-38049728D01*
X102288060Y-38141614D01*
X102358386Y-38211940D01*
X102450272Y-38250000D01*
X102549728Y-38250000D01*
X102641614Y-38211940D01*
X102711940Y-38141614D01*
X102750000Y-38049728D01*
X102750000Y-37950272D01*
X104750000Y-37950272D01*
X104750000Y-38049728D01*
X104788060Y-38141614D01*
X104858386Y-38211940D01*
X104950272Y-38250000D01*
X105049728Y-38250000D01*
X105141614Y-38211940D01*
X105211940Y-38141614D01*
X105250000Y-38049728D01*
X105250000Y-37950272D01*
X107250000Y-37950272D01*
X107250000Y-38049728D01*
X107288060Y-38141614D01*
X107358386Y-38211940D01*
X107450272Y-38250000D01*
X107549728Y-38250000D01*
X107641614Y-38211940D01*
X107711940Y-38141614D01*
X107750000Y-38049728D01*
X107750000Y-37950272D01*
X107711940Y-37858386D01*
X107641614Y-37788060D01*
X107549728Y-37750000D01*
X107750000Y-37750000D01*
X108425000Y-37750000D01*
X108425000Y-37527172D01*
X108424999Y-37527155D01*
X108418598Y-37467627D01*
X108418596Y-37467620D01*
X108368354Y-37332913D01*
X108368350Y-37332906D01*
X108282190Y-37217812D01*
X108282187Y-37217809D01*
X108167093Y-37131649D01*
X108167086Y-37131645D01*
X108032379Y-37081403D01*
X108032372Y-37081401D01*
X107972844Y-37075000D01*
X107750000Y-37075000D01*
X107750000Y-37750000D01*
X107549728Y-37750000D01*
X107450272Y-37750000D01*
X107358386Y-37788060D01*
X107288060Y-37858386D01*
X107250000Y-37950272D01*
X105250000Y-37950272D01*
X105211940Y-37858386D01*
X105141614Y-37788060D01*
X105049728Y-37750000D01*
X105250000Y-37750000D01*
X105925000Y-37750000D01*
X105925000Y-37527172D01*
X105924999Y-37527155D01*
X106575000Y-37527155D01*
X106575000Y-37750000D01*
X107250000Y-37750000D01*
X107250000Y-37075000D01*
X107027155Y-37075000D01*
X106967627Y-37081401D01*
X106967620Y-37081403D01*
X106832913Y-37131645D01*
X106832906Y-37131649D01*
X106717812Y-37217809D01*
X106717809Y-37217812D01*
X106631649Y-37332906D01*
X106631645Y-37332913D01*
X106581403Y-37467620D01*
X106581401Y-37467627D01*
X106575000Y-37527155D01*
X105924999Y-37527155D01*
X105918598Y-37467627D01*
X105918596Y-37467620D01*
X105868354Y-37332913D01*
X105868350Y-37332906D01*
X105782190Y-37217812D01*
X105782187Y-37217809D01*
X105667093Y-37131649D01*
X105667086Y-37131645D01*
X105532379Y-37081403D01*
X105532372Y-37081401D01*
X105472844Y-37075000D01*
X105250000Y-37075000D01*
X105250000Y-37750000D01*
X105049728Y-37750000D01*
X104950272Y-37750000D01*
X104858386Y-37788060D01*
X104788060Y-37858386D01*
X104750000Y-37950272D01*
X102750000Y-37950272D01*
X102711940Y-37858386D01*
X102641614Y-37788060D01*
X102549728Y-37750000D01*
X102750000Y-37750000D01*
X103425000Y-37750000D01*
X103425000Y-37527172D01*
X103424999Y-37527155D01*
X104075000Y-37527155D01*
X104075000Y-37750000D01*
X104750000Y-37750000D01*
X104750000Y-37075000D01*
X104527155Y-37075000D01*
X104467627Y-37081401D01*
X104467620Y-37081403D01*
X104332913Y-37131645D01*
X104332906Y-37131649D01*
X104217812Y-37217809D01*
X104217809Y-37217812D01*
X104131649Y-37332906D01*
X104131645Y-37332913D01*
X104081403Y-37467620D01*
X104081401Y-37467627D01*
X104075000Y-37527155D01*
X103424999Y-37527155D01*
X103418598Y-37467627D01*
X103418596Y-37467620D01*
X103368354Y-37332913D01*
X103368350Y-37332906D01*
X103282190Y-37217812D01*
X103282187Y-37217809D01*
X103167093Y-37131649D01*
X103167086Y-37131645D01*
X103032379Y-37081403D01*
X103032372Y-37081401D01*
X102972844Y-37075000D01*
X102750000Y-37075000D01*
X102750000Y-37750000D01*
X102549728Y-37750000D01*
X102450272Y-37750000D01*
X102358386Y-37788060D01*
X102288060Y-37858386D01*
X102250000Y-37950272D01*
X101000000Y-37950272D01*
X101000000Y-37527155D01*
X101575000Y-37527155D01*
X101575000Y-37750000D01*
X102250000Y-37750000D01*
X102250000Y-37075000D01*
X102027155Y-37075000D01*
X101967627Y-37081401D01*
X101967620Y-37081403D01*
X101832913Y-37131645D01*
X101832906Y-37131649D01*
X101717812Y-37217809D01*
X101717809Y-37217812D01*
X101631649Y-37332906D01*
X101631645Y-37332913D01*
X101581403Y-37467620D01*
X101581401Y-37467627D01*
X101575000Y-37527155D01*
X101000000Y-37527155D01*
X101000000Y-36124000D01*
X101019685Y-36056961D01*
X101072489Y-36011206D01*
X101124000Y-36000000D01*
X117376000Y-36000000D01*
X117443039Y-36019685D01*
G37*
%TD.AperFunction*%
%TD*%
M02*
