%TF.GenerationSoftware,KiCad,Pcbnew,9.0.7*%
%TF.CreationDate,2026-03-01T17:54:10+01:00*%
%TF.ProjectId,ams1117,616d7331-3131-4372-9e6b-696361645f70,rev?*%
%TF.SameCoordinates,Original*%
%TF.FileFunction,Legend,Top*%
%TF.FilePolarity,Positive*%
%FSLAX46Y46*%
G04 Gerber Fmt 4.6, Leading zero omitted, Abs format (unit mm)*
G04 Created by KiCad (PCBNEW 9.0.7) date 2026-03-01 17:54:10*
%MOMM*%
%LPD*%
G01*
G04 APERTURE LIST*
G04 Aperture macros list*
%AMRoundRect*
0 Rectangle with rounded corners*
0 $1 Rounding radius*
0 $2 $3 $4 $5 $6 $7 $8 $9 X,Y pos of 4 corners*
0 Add a 4 corners polygon primitive as box body*
4,1,4,$2,$3,$4,$5,$6,$7,$8,$9,$2,$3,0*
0 Add four circle primitives for the rounded corners*
1,1,$1+$1,$2,$3*
1,1,$1+$1,$4,$5*
1,1,$1+$1,$6,$7*
1,1,$1+$1,$8,$9*
0 Add four rect primitives between the rounded corners*
20,1,$1+$1,$2,$3,$4,$5,0*
20,1,$1+$1,$4,$5,$6,$7,0*
20,1,$1+$1,$6,$7,$8,$9,0*
20,1,$1+$1,$8,$9,$2,$3,0*%
%AMFreePoly0*
4,1,9,3.862500,-0.866500,0.737500,-0.866500,0.737500,-0.450000,-0.737500,-0.450000,-0.737500,0.450000,0.737500,0.450000,0.737500,0.866500,3.862500,0.866500,3.862500,-0.866500,3.862500,-0.866500,$1*%
G04 Aperture macros list end*
%ADD10C,0.150000*%
%ADD11C,0.120000*%
%ADD12R,0.850000X0.850000*%
%ADD13RoundRect,0.150000X0.825000X0.150000X-0.825000X0.150000X-0.825000X-0.150000X0.825000X-0.150000X0*%
%ADD14R,2.410000X3.300000*%
%ADD15RoundRect,0.175000X-0.175000X-1.175000X0.175000X-1.175000X0.175000X1.175000X-0.175000X1.175000X0*%
%ADD16RoundRect,0.250000X-0.300000X-0.700000X0.300000X-0.700000X0.300000X0.700000X-0.300000X0.700000X0*%
%ADD17RoundRect,0.225000X-0.225000X0.425000X-0.225000X-0.425000X0.225000X-0.425000X0.225000X0.425000X0*%
%ADD18FreePoly0,270.000000*%
%ADD19RoundRect,0.225000X-0.225000X-0.250000X0.225000X-0.250000X0.225000X0.250000X-0.225000X0.250000X0*%
%ADD20R,0.700000X1.000000*%
%ADD21RoundRect,0.150000X0.475000X-0.150000X0.475000X0.150000X-0.475000X0.150000X-0.475000X-0.150000X0*%
%ADD22RoundRect,0.225000X0.625000X-0.225000X0.625000X0.225000X-0.625000X0.225000X-0.625000X-0.225000X0*%
%ADD23RoundRect,0.175000X0.175000X1.175000X-0.175000X1.175000X-0.175000X-1.175000X0.175000X-1.175000X0*%
%ADD24RoundRect,0.250000X0.300000X0.700000X-0.300000X0.700000X-0.300000X-0.700000X0.300000X-0.700000X0*%
%ADD25RoundRect,0.225000X0.250000X-0.225000X0.250000X0.225000X-0.250000X0.225000X-0.250000X-0.225000X0*%
G04 APERTURE END LIST*
D10*
X107166666Y-35844819D02*
X107166666Y-36559104D01*
X107166666Y-36559104D02*
X107119047Y-36701961D01*
X107119047Y-36701961D02*
X107023809Y-36797200D01*
X107023809Y-36797200D02*
X106880952Y-36844819D01*
X106880952Y-36844819D02*
X106785714Y-36844819D01*
X107785714Y-36273390D02*
X107690476Y-36225771D01*
X107690476Y-36225771D02*
X107642857Y-36178152D01*
X107642857Y-36178152D02*
X107595238Y-36082914D01*
X107595238Y-36082914D02*
X107595238Y-36035295D01*
X107595238Y-36035295D02*
X107642857Y-35940057D01*
X107642857Y-35940057D02*
X107690476Y-35892438D01*
X107690476Y-35892438D02*
X107785714Y-35844819D01*
X107785714Y-35844819D02*
X107976190Y-35844819D01*
X107976190Y-35844819D02*
X108071428Y-35892438D01*
X108071428Y-35892438D02*
X108119047Y-35940057D01*
X108119047Y-35940057D02*
X108166666Y-36035295D01*
X108166666Y-36035295D02*
X108166666Y-36082914D01*
X108166666Y-36082914D02*
X108119047Y-36178152D01*
X108119047Y-36178152D02*
X108071428Y-36225771D01*
X108071428Y-36225771D02*
X107976190Y-36273390D01*
X107976190Y-36273390D02*
X107785714Y-36273390D01*
X107785714Y-36273390D02*
X107690476Y-36321009D01*
X107690476Y-36321009D02*
X107642857Y-36368628D01*
X107642857Y-36368628D02*
X107595238Y-36463866D01*
X107595238Y-36463866D02*
X107595238Y-36654342D01*
X107595238Y-36654342D02*
X107642857Y-36749580D01*
X107642857Y-36749580D02*
X107690476Y-36797200D01*
X107690476Y-36797200D02*
X107785714Y-36844819D01*
X107785714Y-36844819D02*
X107976190Y-36844819D01*
X107976190Y-36844819D02*
X108071428Y-36797200D01*
X108071428Y-36797200D02*
X108119047Y-36749580D01*
X108119047Y-36749580D02*
X108166666Y-36654342D01*
X108166666Y-36654342D02*
X108166666Y-36463866D01*
X108166666Y-36463866D02*
X108119047Y-36368628D01*
X108119047Y-36368628D02*
X108071428Y-36321009D01*
X108071428Y-36321009D02*
X107976190Y-36273390D01*
X104666666Y-35844819D02*
X104666666Y-36559104D01*
X104666666Y-36559104D02*
X104619047Y-36701961D01*
X104619047Y-36701961D02*
X104523809Y-36797200D01*
X104523809Y-36797200D02*
X104380952Y-36844819D01*
X104380952Y-36844819D02*
X104285714Y-36844819D01*
X105047619Y-35844819D02*
X105714285Y-35844819D01*
X105714285Y-35844819D02*
X105285714Y-36844819D01*
X102166666Y-35844819D02*
X102166666Y-36559104D01*
X102166666Y-36559104D02*
X102119047Y-36701961D01*
X102119047Y-36701961D02*
X102023809Y-36797200D01*
X102023809Y-36797200D02*
X101880952Y-36844819D01*
X101880952Y-36844819D02*
X101785714Y-36844819D01*
X103071428Y-35844819D02*
X102880952Y-35844819D01*
X102880952Y-35844819D02*
X102785714Y-35892438D01*
X102785714Y-35892438D02*
X102738095Y-35940057D01*
X102738095Y-35940057D02*
X102642857Y-36082914D01*
X102642857Y-36082914D02*
X102595238Y-36273390D01*
X102595238Y-36273390D02*
X102595238Y-36654342D01*
X102595238Y-36654342D02*
X102642857Y-36749580D01*
X102642857Y-36749580D02*
X102690476Y-36797200D01*
X102690476Y-36797200D02*
X102785714Y-36844819D01*
X102785714Y-36844819D02*
X102976190Y-36844819D01*
X102976190Y-36844819D02*
X103071428Y-36797200D01*
X103071428Y-36797200D02*
X103119047Y-36749580D01*
X103119047Y-36749580D02*
X103166666Y-36654342D01*
X103166666Y-36654342D02*
X103166666Y-36416247D01*
X103166666Y-36416247D02*
X103119047Y-36321009D01*
X103119047Y-36321009D02*
X103071428Y-36273390D01*
X103071428Y-36273390D02*
X102976190Y-36225771D01*
X102976190Y-36225771D02*
X102785714Y-36225771D01*
X102785714Y-36225771D02*
X102690476Y-36273390D01*
X102690476Y-36273390D02*
X102642857Y-36321009D01*
X102642857Y-36321009D02*
X102595238Y-36416247D01*
X106438095Y-52154819D02*
X106438095Y-52964342D01*
X106438095Y-52964342D02*
X106485714Y-53059580D01*
X106485714Y-53059580D02*
X106533333Y-53107200D01*
X106533333Y-53107200D02*
X106628571Y-53154819D01*
X106628571Y-53154819D02*
X106819047Y-53154819D01*
X106819047Y-53154819D02*
X106914285Y-53107200D01*
X106914285Y-53107200D02*
X106961904Y-53059580D01*
X106961904Y-53059580D02*
X107009523Y-52964342D01*
X107009523Y-52964342D02*
X107009523Y-52154819D01*
X107914285Y-52488152D02*
X107914285Y-53154819D01*
X107676190Y-52107200D02*
X107438095Y-52821485D01*
X107438095Y-52821485D02*
X108057142Y-52821485D01*
X104916666Y-61254819D02*
X104916666Y-61969104D01*
X104916666Y-61969104D02*
X104869047Y-62111961D01*
X104869047Y-62111961D02*
X104773809Y-62207200D01*
X104773809Y-62207200D02*
X104630952Y-62254819D01*
X104630952Y-62254819D02*
X104535714Y-62254819D01*
X105869047Y-61254819D02*
X105392857Y-61254819D01*
X105392857Y-61254819D02*
X105345238Y-61731009D01*
X105345238Y-61731009D02*
X105392857Y-61683390D01*
X105392857Y-61683390D02*
X105488095Y-61635771D01*
X105488095Y-61635771D02*
X105726190Y-61635771D01*
X105726190Y-61635771D02*
X105821428Y-61683390D01*
X105821428Y-61683390D02*
X105869047Y-61731009D01*
X105869047Y-61731009D02*
X105916666Y-61826247D01*
X105916666Y-61826247D02*
X105916666Y-62064342D01*
X105916666Y-62064342D02*
X105869047Y-62159580D01*
X105869047Y-62159580D02*
X105821428Y-62207200D01*
X105821428Y-62207200D02*
X105726190Y-62254819D01*
X105726190Y-62254819D02*
X105488095Y-62254819D01*
X105488095Y-62254819D02*
X105392857Y-62207200D01*
X105392857Y-62207200D02*
X105345238Y-62159580D01*
X117454819Y-60711904D02*
X118264342Y-60711904D01*
X118264342Y-60711904D02*
X118359580Y-60664285D01*
X118359580Y-60664285D02*
X118407200Y-60616666D01*
X118407200Y-60616666D02*
X118454819Y-60521428D01*
X118454819Y-60521428D02*
X118454819Y-60330952D01*
X118454819Y-60330952D02*
X118407200Y-60235714D01*
X118407200Y-60235714D02*
X118359580Y-60188095D01*
X118359580Y-60188095D02*
X118264342Y-60140476D01*
X118264342Y-60140476D02*
X117454819Y-60140476D01*
X118454819Y-59140476D02*
X118454819Y-59711904D01*
X118454819Y-59426190D02*
X117454819Y-59426190D01*
X117454819Y-59426190D02*
X117597676Y-59521428D01*
X117597676Y-59521428D02*
X117692914Y-59616666D01*
X117692914Y-59616666D02*
X117740533Y-59711904D01*
X111354819Y-48713094D02*
X110354819Y-48713094D01*
X110354819Y-48713094D02*
X110354819Y-48474999D01*
X110354819Y-48474999D02*
X110402438Y-48332142D01*
X110402438Y-48332142D02*
X110497676Y-48236904D01*
X110497676Y-48236904D02*
X110592914Y-48189285D01*
X110592914Y-48189285D02*
X110783390Y-48141666D01*
X110783390Y-48141666D02*
X110926247Y-48141666D01*
X110926247Y-48141666D02*
X111116723Y-48189285D01*
X111116723Y-48189285D02*
X111211961Y-48236904D01*
X111211961Y-48236904D02*
X111307200Y-48332142D01*
X111307200Y-48332142D02*
X111354819Y-48474999D01*
X111354819Y-48474999D02*
X111354819Y-48713094D01*
X111354819Y-47189285D02*
X111354819Y-47760713D01*
X111354819Y-47474999D02*
X110354819Y-47474999D01*
X110354819Y-47474999D02*
X110497676Y-47570237D01*
X110497676Y-47570237D02*
X110592914Y-47665475D01*
X110592914Y-47665475D02*
X110640533Y-47760713D01*
X101504819Y-59283333D02*
X102219104Y-59283333D01*
X102219104Y-59283333D02*
X102361961Y-59330952D01*
X102361961Y-59330952D02*
X102457200Y-59426190D01*
X102457200Y-59426190D02*
X102504819Y-59569047D01*
X102504819Y-59569047D02*
X102504819Y-59664285D01*
X101504819Y-58902380D02*
X101504819Y-58283333D01*
X101504819Y-58283333D02*
X101885771Y-58616666D01*
X101885771Y-58616666D02*
X101885771Y-58473809D01*
X101885771Y-58473809D02*
X101933390Y-58378571D01*
X101933390Y-58378571D02*
X101981009Y-58330952D01*
X101981009Y-58330952D02*
X102076247Y-58283333D01*
X102076247Y-58283333D02*
X102314342Y-58283333D01*
X102314342Y-58283333D02*
X102409580Y-58330952D01*
X102409580Y-58330952D02*
X102457200Y-58378571D01*
X102457200Y-58378571D02*
X102504819Y-58473809D01*
X102504819Y-58473809D02*
X102504819Y-58759523D01*
X102504819Y-58759523D02*
X102457200Y-58854761D01*
X102457200Y-58854761D02*
X102409580Y-58902380D01*
X105366666Y-49704819D02*
X105366666Y-50419104D01*
X105366666Y-50419104D02*
X105319047Y-50561961D01*
X105319047Y-50561961D02*
X105223809Y-50657200D01*
X105223809Y-50657200D02*
X105080952Y-50704819D01*
X105080952Y-50704819D02*
X104985714Y-50704819D01*
X106271428Y-50038152D02*
X106271428Y-50704819D01*
X106033333Y-49657200D02*
X105795238Y-50371485D01*
X105795238Y-50371485D02*
X106414285Y-50371485D01*
X113366666Y-44204819D02*
X113366666Y-44919104D01*
X113366666Y-44919104D02*
X113319047Y-45061961D01*
X113319047Y-45061961D02*
X113223809Y-45157200D01*
X113223809Y-45157200D02*
X113080952Y-45204819D01*
X113080952Y-45204819D02*
X112985714Y-45204819D01*
X114366666Y-45204819D02*
X113795238Y-45204819D01*
X114080952Y-45204819D02*
X114080952Y-44204819D01*
X114080952Y-44204819D02*
X113985714Y-44347676D01*
X113985714Y-44347676D02*
X113890476Y-44442914D01*
X113890476Y-44442914D02*
X113795238Y-44490533D01*
X113666666Y-61404819D02*
X113666666Y-62119104D01*
X113666666Y-62119104D02*
X113619047Y-62261961D01*
X113619047Y-62261961D02*
X113523809Y-62357200D01*
X113523809Y-62357200D02*
X113380952Y-62404819D01*
X113380952Y-62404819D02*
X113285714Y-62404819D01*
X114095238Y-61500057D02*
X114142857Y-61452438D01*
X114142857Y-61452438D02*
X114238095Y-61404819D01*
X114238095Y-61404819D02*
X114476190Y-61404819D01*
X114476190Y-61404819D02*
X114571428Y-61452438D01*
X114571428Y-61452438D02*
X114619047Y-61500057D01*
X114619047Y-61500057D02*
X114666666Y-61595295D01*
X114666666Y-61595295D02*
X114666666Y-61690533D01*
X114666666Y-61690533D02*
X114619047Y-61833390D01*
X114619047Y-61833390D02*
X114047619Y-62404819D01*
X114047619Y-62404819D02*
X114666666Y-62404819D01*
D11*
%TO.C,J8*%
X106755000Y-37265000D02*
X107500000Y-37265000D01*
X106755000Y-38000000D02*
X106755000Y-37265000D01*
X106755000Y-38735000D02*
X106755000Y-38610000D01*
X106755000Y-38735000D02*
X106814435Y-38735000D01*
X106755000Y-38735000D02*
X108245000Y-38735000D01*
X108185565Y-38735000D02*
X108245000Y-38735000D01*
X108245000Y-38735000D02*
X108245000Y-38610000D01*
%TO.C,J7*%
X104255000Y-37265000D02*
X105000000Y-37265000D01*
X104255000Y-38000000D02*
X104255000Y-37265000D01*
X104255000Y-38735000D02*
X104255000Y-38610000D01*
X104255000Y-38735000D02*
X104314435Y-38735000D01*
X104255000Y-38735000D02*
X105745000Y-38735000D01*
X105685565Y-38735000D02*
X105745000Y-38735000D01*
X105745000Y-38735000D02*
X105745000Y-38610000D01*
%TO.C,J6*%
X101755000Y-37265000D02*
X102500000Y-37265000D01*
X101755000Y-38000000D02*
X101755000Y-37265000D01*
X101755000Y-38735000D02*
X101755000Y-38610000D01*
X101755000Y-38735000D02*
X101814435Y-38735000D01*
X101755000Y-38735000D02*
X103245000Y-38735000D01*
X103185565Y-38735000D02*
X103245000Y-38735000D01*
X103245000Y-38735000D02*
X103245000Y-38610000D01*
%TO.C,U4*%
X105650000Y-50140000D02*
X103800000Y-50140000D01*
X105650000Y-55260000D02*
X103800000Y-55260000D01*
X108750000Y-50140000D02*
X110600000Y-50140000D01*
X108750000Y-55260000D02*
X110600000Y-55260000D01*
%TO.C,J5*%
X102140000Y-63890000D02*
X103890000Y-63890000D01*
X102140000Y-66840000D02*
X102140000Y-63890000D01*
X102140000Y-69260000D02*
X102140000Y-70110000D01*
X102140000Y-70110000D02*
X108360000Y-70110000D01*
X103890000Y-63890000D02*
X103890000Y-63000000D01*
X108360000Y-63890000D02*
X106610000Y-63890000D01*
X108360000Y-66840000D02*
X108360000Y-63890000D01*
X108360000Y-70110000D02*
X108360000Y-69260000D01*
%TO.C,U1*%
X112140000Y-61310000D02*
X112140000Y-58590000D01*
X113120000Y-61310000D02*
X112140000Y-61310000D01*
X115880000Y-61310000D02*
X116860000Y-61310000D01*
X116860000Y-58730000D02*
X116860000Y-61310000D01*
X117040000Y-58420000D02*
X116710000Y-58180000D01*
X117040000Y-57940000D01*
X117040000Y-58420000D01*
G36*
X117040000Y-58420000D02*
G01*
X116710000Y-58180000D01*
X117040000Y-57940000D01*
X117040000Y-58420000D01*
G37*
%TO.C,C3*%
X113959420Y-53490000D02*
X114240580Y-53490000D01*
X113959420Y-54510000D02*
X114240580Y-54510000D01*
%TO.C,D1*%
X111990000Y-45675000D02*
X111990000Y-50975000D01*
X117200000Y-45675000D02*
X117200000Y-50275000D01*
X111990000Y-51755000D02*
X111710000Y-51475000D01*
X111990000Y-51475000D01*
X111990000Y-51755000D01*
G36*
X111990000Y-51755000D02*
G01*
X111710000Y-51475000D01*
X111990000Y-51475000D01*
X111990000Y-51755000D01*
G37*
%TO.C,J3*%
X104140000Y-56440000D02*
X104140000Y-57890000D01*
X104140000Y-60010000D02*
X103250000Y-60010000D01*
X104140000Y-61460000D02*
X104140000Y-60010000D01*
X105890000Y-56440000D02*
X104140000Y-56440000D01*
X105890000Y-61460000D02*
X104140000Y-61460000D01*
X108110000Y-61460000D02*
X108660000Y-61460000D01*
X108660000Y-56440000D02*
X108110000Y-56440000D01*
X108660000Y-61460000D02*
X108660000Y-56440000D01*
%TO.C,J4*%
X102590000Y-41940000D02*
X102590000Y-42790000D01*
X102590000Y-45210000D02*
X102590000Y-48160000D01*
X102590000Y-48160000D02*
X104340000Y-48160000D01*
X107060000Y-48160000D02*
X107060000Y-49050000D01*
X108810000Y-41940000D02*
X102590000Y-41940000D01*
X108810000Y-42790000D02*
X108810000Y-41940000D01*
X108810000Y-45210000D02*
X108810000Y-48160000D01*
X108810000Y-48160000D02*
X107060000Y-48160000D01*
%TO.C,J1*%
X110590000Y-36440000D02*
X110590000Y-37290000D01*
X110590000Y-39710000D02*
X110590000Y-42660000D01*
X110590000Y-42660000D02*
X112340000Y-42660000D01*
X115060000Y-42660000D02*
X115060000Y-43550000D01*
X116810000Y-36440000D02*
X110590000Y-36440000D01*
X116810000Y-37290000D02*
X116810000Y-36440000D01*
X116810000Y-39710000D02*
X116810000Y-42660000D01*
X116810000Y-42660000D02*
X115060000Y-42660000D01*
%TO.C,J2*%
X110890000Y-64040000D02*
X112640000Y-64040000D01*
X110890000Y-66990000D02*
X110890000Y-64040000D01*
X110890000Y-69410000D02*
X110890000Y-70260000D01*
X110890000Y-70260000D02*
X117110000Y-70260000D01*
X112640000Y-64040000D02*
X112640000Y-63150000D01*
X117110000Y-64040000D02*
X115360000Y-64040000D01*
X117110000Y-66990000D02*
X117110000Y-64040000D01*
X117110000Y-70260000D02*
X117110000Y-69410000D01*
%TO.C,C18*%
X115990000Y-53415580D02*
X115990000Y-53134420D01*
X117010000Y-53415580D02*
X117010000Y-53134420D01*
%TO.C,C17*%
X113959420Y-51990000D02*
X114240580Y-51990000D01*
X113959420Y-53010000D02*
X114240580Y-53010000D01*
%TD*%
%LPC*%
D12*
%TO.C,J8*%
X107500000Y-38000000D03*
%TD*%
%TO.C,J7*%
X105000000Y-38000000D03*
%TD*%
%TO.C,J6*%
X102500000Y-38000000D03*
%TD*%
D13*
%TO.C,U4*%
X109675000Y-54605000D03*
X109675000Y-53335000D03*
X109675000Y-52065000D03*
X109675000Y-50795000D03*
X104725000Y-50795000D03*
X104725000Y-52065000D03*
X104725000Y-53335000D03*
X104725000Y-54605000D03*
D14*
X107200000Y-52700000D03*
%TD*%
D15*
%TO.C,J5*%
X104500000Y-64350000D03*
X106000000Y-64350000D03*
D16*
X102550000Y-68050000D03*
X107950000Y-68050000D03*
%TD*%
D17*
%TO.C,U1*%
X116000000Y-58000000D03*
D18*
X114500000Y-58087500D03*
D17*
X113000000Y-58000000D03*
%TD*%
D19*
%TO.C,C3*%
X113325000Y-54000000D03*
X114875000Y-54000000D03*
%TD*%
D20*
%TO.C,D1*%
X112600000Y-50950000D03*
X116600000Y-50950000D03*
X116600000Y-45000000D03*
X112600000Y-45000000D03*
%TD*%
D21*
%TO.C,J3*%
X103875000Y-59450000D03*
X103875000Y-58450000D03*
D22*
X107000000Y-60900000D03*
X107000000Y-57000000D03*
%TD*%
D23*
%TO.C,J4*%
X106450000Y-47700000D03*
X104950000Y-47700000D03*
D24*
X108400000Y-44000000D03*
X103000000Y-44000000D03*
%TD*%
D23*
%TO.C,J1*%
X114450000Y-42200000D03*
X112950000Y-42200000D03*
D24*
X116400000Y-38500000D03*
X111000000Y-38500000D03*
%TD*%
D15*
%TO.C,J2*%
X113250000Y-64500000D03*
X114750000Y-64500000D03*
D16*
X111300000Y-68200000D03*
X116700000Y-68200000D03*
%TD*%
D25*
%TO.C,C18*%
X116500000Y-54050000D03*
X116500000Y-52500000D03*
%TD*%
D19*
%TO.C,C17*%
X113325000Y-52500000D03*
X114875000Y-52500000D03*
%TD*%
%LPD*%
M02*
