M48
; DRILL file {KiCad 9.0.2} date 2025-07-27T18:34:46+0200
; FORMAT={-:-/ absolute / inch / decimal}
; #@! TF.CreationDate,2025-07-27T18:34:46+02:00
; #@! TF.GenerationSoftware,Kicad,Pcbnew,9.0.2
; #@! TF.FileFunction,Plated,1,2,PTH
FMAT,2
INCH
; #@! TA.AperFunction,Plated,PTH,ComponentDrill
T1C0.0130
; #@! TA.AperFunction,Plated,PTH,ViaDrill
T2C0.0157
; #@! TA.AperFunction,Plated,PTH,ComponentDrill
T3C0.0276
%
G90
G05
T1
X3.5965Y-2.1142
X3.5965Y-2.1654
X3.5965Y-2.2165
X3.6476Y-2.1142
X3.6476Y-2.1654
X3.6476Y-2.2165
T2
X3.2943Y-2.4409
X3.3974Y-1.7655
X3.4711Y-1.5984
X3.4859Y-1.889
X3.563Y-2.0335
X3.563Y-1.5838
X3.8379Y-2.0369
T3
X3.3858Y-2.126
X3.3858Y-2.2441
X3.4646Y-1.7323
X3.5039Y-1.9685
X3.6614Y-2.4803
X3.7402Y-1.9685
X3.7402Y-2.3622
X3.7795Y-2.4803
M30
