%TF.GenerationSoftware,KiCad,Pcbnew,9.0.2*%
%TF.CreationDate,2025-07-27T21:18:58+02:00*%
%TF.ProjectId,ldo,6c646f2e-6b69-4636-9164-5f7063625858,rev?*%
%TF.SameCoordinates,Original*%
%TF.FileFunction,Copper,L2,Bot*%
%TF.FilePolarity,Positive*%
%FSLAX46Y46*%
G04 Gerber Fmt 4.6, Leading zero omitted, Abs format (unit mm)*
G04 Created by KiCad (PCBNEW 9.0.2) date 2025-07-27 21:18:58*
%MOMM*%
%LPD*%
G01*
G04 APERTURE LIST*
%TA.AperFunction,ComponentPad*%
%ADD10R,1.500000X1.500000*%
%TD*%
%TA.AperFunction,ComponentPad*%
%ADD11C,0.500000*%
%TD*%
%TA.AperFunction,SMDPad,CuDef*%
%ADD12R,1.900000X2.900000*%
%TD*%
%TA.AperFunction,ViaPad*%
%ADD13C,0.800000*%
%TD*%
G04 APERTURE END LIST*
D10*
%TO.P,ctrl1,1,1*%
%TO.N,Net-(R12-Pad1)*%
X105500000Y-59500000D03*
%TD*%
D11*
%TO.P,U4,9,GND*%
%TO.N,GND*%
X109600000Y-54000000D03*
X109600000Y-55200000D03*
X109600000Y-56400000D03*
D12*
X110300000Y-55200000D03*
D11*
X111000000Y-54000000D03*
X111000000Y-55200000D03*
X111000000Y-56400000D03*
%TD*%
D10*
%TO.P,tr2,1,1*%
%TO.N,Net-(D1-Pad3)*%
X115000000Y-42500000D03*
%TD*%
%TO.P,v3,1,1*%
%TO.N,VCC*%
X115406250Y-47950000D03*
%TD*%
%TO.P,tr1,1,1*%
%TO.N,Net-(D1-Pad4)*%
X115000000Y-39000000D03*
%TD*%
%TO.P,o2,1,1*%
%TO.N,Net-(U4-OUTB)*%
X112000000Y-59500000D03*
%TD*%
%TO.P,i2,1,1*%
%TO.N,Net-(U4-INB)*%
X115500000Y-53500000D03*
%TD*%
%TO.P,i1,1,1*%
%TO.N,Net-(U4-INA)*%
X115500000Y-56000000D03*
%TD*%
%TO.P,g2,1,1*%
%TO.N,GND*%
X105000000Y-48000000D03*
%TD*%
%TO.P,g1,1,1*%
%TO.N,GND*%
X105000000Y-45500000D03*
%TD*%
%TO.P,ctrl2,1,1*%
%TO.N,Net-(R14-Pad1)*%
X116000000Y-60000000D03*
%TD*%
%TO.P,o1,1,1*%
%TO.N,Net-(U4-OUTA)*%
X109500000Y-59500000D03*
%TD*%
D13*
%TO.N,GND*%
X106000000Y-53000000D03*
X105500000Y-42500000D03*
X117000000Y-58000000D03*
X104000000Y-57500000D03*
X113406250Y-45950000D03*
X106906250Y-46450000D03*
%TD*%
%TA.AperFunction,Conductor*%
%TO.N,GND*%
G36*
X113700224Y-38019685D02*
G01*
X113745979Y-38072489D01*
X113756475Y-38137254D01*
X113755909Y-38142516D01*
X113755909Y-38142517D01*
X113749500Y-38202127D01*
X113749500Y-38202128D01*
X113749500Y-38202132D01*
X113749500Y-39797870D01*
X113749501Y-39797876D01*
X113755908Y-39857483D01*
X113806202Y-39992328D01*
X113806206Y-39992335D01*
X113892452Y-40107544D01*
X113892455Y-40107547D01*
X114007664Y-40193793D01*
X114007671Y-40193797D01*
X114142517Y-40244091D01*
X114142516Y-40244091D01*
X114149444Y-40244835D01*
X114202127Y-40250500D01*
X115797872Y-40250499D01*
X115857483Y-40244091D01*
X115992331Y-40193796D01*
X116107546Y-40107546D01*
X116193796Y-39992331D01*
X116244091Y-39857483D01*
X116250500Y-39797873D01*
X116250499Y-38202128D01*
X116244091Y-38142517D01*
X116244090Y-38142515D01*
X116243525Y-38137254D01*
X116255932Y-38068494D01*
X116303543Y-38017358D01*
X116366815Y-38000000D01*
X117376000Y-38000000D01*
X117443039Y-38019685D01*
X117488794Y-38072489D01*
X117500000Y-38124000D01*
X117500000Y-61376000D01*
X117480315Y-61443039D01*
X117427511Y-61488794D01*
X117376000Y-61500000D01*
X102124000Y-61500000D01*
X102056961Y-61480315D01*
X102011206Y-61427511D01*
X102000000Y-61376000D01*
X102000000Y-58702135D01*
X104249500Y-58702135D01*
X104249500Y-60297870D01*
X104249501Y-60297876D01*
X104255908Y-60357483D01*
X104306202Y-60492328D01*
X104306206Y-60492335D01*
X104392452Y-60607544D01*
X104392455Y-60607547D01*
X104507664Y-60693793D01*
X104507671Y-60693797D01*
X104642517Y-60744091D01*
X104642516Y-60744091D01*
X104649444Y-60744835D01*
X104702127Y-60750500D01*
X106297872Y-60750499D01*
X106357483Y-60744091D01*
X106492331Y-60693796D01*
X106607546Y-60607546D01*
X106693796Y-60492331D01*
X106744091Y-60357483D01*
X106750500Y-60297873D01*
X106750499Y-58702135D01*
X108249500Y-58702135D01*
X108249500Y-60297870D01*
X108249501Y-60297876D01*
X108255908Y-60357483D01*
X108306202Y-60492328D01*
X108306206Y-60492335D01*
X108392452Y-60607544D01*
X108392455Y-60607547D01*
X108507664Y-60693793D01*
X108507671Y-60693797D01*
X108642517Y-60744091D01*
X108642516Y-60744091D01*
X108649444Y-60744835D01*
X108702127Y-60750500D01*
X110297872Y-60750499D01*
X110357483Y-60744091D01*
X110492331Y-60693796D01*
X110607546Y-60607546D01*
X110650734Y-60549854D01*
X110706667Y-60507984D01*
X110776359Y-60503000D01*
X110837682Y-60536485D01*
X110849263Y-60549850D01*
X110892454Y-60607546D01*
X110938643Y-60642123D01*
X111007664Y-60693793D01*
X111007671Y-60693797D01*
X111142517Y-60744091D01*
X111142516Y-60744091D01*
X111149444Y-60744835D01*
X111202127Y-60750500D01*
X112797872Y-60750499D01*
X112857483Y-60744091D01*
X112992331Y-60693796D01*
X113107546Y-60607546D01*
X113193796Y-60492331D01*
X113244091Y-60357483D01*
X113250500Y-60297873D01*
X113250499Y-59202135D01*
X114749500Y-59202135D01*
X114749500Y-60797870D01*
X114749501Y-60797876D01*
X114755908Y-60857483D01*
X114806202Y-60992328D01*
X114806206Y-60992335D01*
X114892452Y-61107544D01*
X114892455Y-61107547D01*
X115007664Y-61193793D01*
X115007671Y-61193797D01*
X115142517Y-61244091D01*
X115142516Y-61244091D01*
X115149444Y-61244835D01*
X115202127Y-61250500D01*
X116797872Y-61250499D01*
X116857483Y-61244091D01*
X116992331Y-61193796D01*
X117107546Y-61107546D01*
X117193796Y-60992331D01*
X117244091Y-60857483D01*
X117250500Y-60797873D01*
X117250499Y-59202128D01*
X117244091Y-59142517D01*
X117193796Y-59007669D01*
X117193795Y-59007668D01*
X117193793Y-59007664D01*
X117107547Y-58892455D01*
X117107544Y-58892452D01*
X116992335Y-58806206D01*
X116992328Y-58806202D01*
X116857482Y-58755908D01*
X116857483Y-58755908D01*
X116797883Y-58749501D01*
X116797881Y-58749500D01*
X116797873Y-58749500D01*
X116797864Y-58749500D01*
X115202129Y-58749500D01*
X115202123Y-58749501D01*
X115142516Y-58755908D01*
X115007671Y-58806202D01*
X115007664Y-58806206D01*
X114892455Y-58892452D01*
X114892452Y-58892455D01*
X114806206Y-59007664D01*
X114806202Y-59007671D01*
X114755908Y-59142517D01*
X114749501Y-59202116D01*
X114749501Y-59202123D01*
X114749500Y-59202135D01*
X113250499Y-59202135D01*
X113250499Y-58702128D01*
X113244091Y-58642517D01*
X113193796Y-58507669D01*
X113193795Y-58507668D01*
X113193793Y-58507664D01*
X113107547Y-58392455D01*
X113107544Y-58392452D01*
X112992335Y-58306206D01*
X112992328Y-58306202D01*
X112857482Y-58255908D01*
X112857483Y-58255908D01*
X112797883Y-58249501D01*
X112797881Y-58249500D01*
X112797873Y-58249500D01*
X112797864Y-58249500D01*
X111202129Y-58249500D01*
X111202123Y-58249501D01*
X111142516Y-58255908D01*
X111007671Y-58306202D01*
X111007664Y-58306206D01*
X110892455Y-58392452D01*
X110849266Y-58450145D01*
X110793332Y-58492015D01*
X110723640Y-58496999D01*
X110662317Y-58463513D01*
X110650734Y-58450145D01*
X110629376Y-58421615D01*
X110607546Y-58392454D01*
X110607544Y-58392453D01*
X110607544Y-58392452D01*
X110492335Y-58306206D01*
X110492328Y-58306202D01*
X110357482Y-58255908D01*
X110357483Y-58255908D01*
X110297883Y-58249501D01*
X110297881Y-58249500D01*
X110297873Y-58249500D01*
X110297864Y-58249500D01*
X108702129Y-58249500D01*
X108702123Y-58249501D01*
X108642516Y-58255908D01*
X108507671Y-58306202D01*
X108507664Y-58306206D01*
X108392455Y-58392452D01*
X108392452Y-58392455D01*
X108306206Y-58507664D01*
X108306202Y-58507671D01*
X108255908Y-58642517D01*
X108249501Y-58702116D01*
X108249501Y-58702123D01*
X108249500Y-58702135D01*
X106750499Y-58702135D01*
X106750499Y-58702128D01*
X106744091Y-58642517D01*
X106693796Y-58507669D01*
X106693795Y-58507668D01*
X106693793Y-58507664D01*
X106607547Y-58392455D01*
X106607544Y-58392452D01*
X106492335Y-58306206D01*
X106492328Y-58306202D01*
X106357482Y-58255908D01*
X106357483Y-58255908D01*
X106297883Y-58249501D01*
X106297881Y-58249500D01*
X106297873Y-58249500D01*
X106297864Y-58249500D01*
X104702129Y-58249500D01*
X104702123Y-58249501D01*
X104642516Y-58255908D01*
X104507671Y-58306202D01*
X104507664Y-58306206D01*
X104392455Y-58392452D01*
X104392452Y-58392455D01*
X104306206Y-58507664D01*
X104306202Y-58507671D01*
X104255908Y-58642517D01*
X104249501Y-58702116D01*
X104249501Y-58702123D01*
X104249500Y-58702135D01*
X102000000Y-58702135D01*
X102000000Y-57134723D01*
X109218829Y-57134723D01*
X109242624Y-57143598D01*
X109302155Y-57149999D01*
X109302172Y-57150000D01*
X110050000Y-57150000D01*
X110550000Y-57150000D01*
X111297828Y-57150000D01*
X111297844Y-57149999D01*
X111357372Y-57143598D01*
X111357378Y-57143597D01*
X111381168Y-57134723D01*
X111381168Y-57134722D01*
X110682765Y-56436319D01*
X110626555Y-56380109D01*
X110900000Y-56380109D01*
X110900000Y-56419891D01*
X110915224Y-56456645D01*
X110943355Y-56484776D01*
X110980109Y-56500000D01*
X111019891Y-56500000D01*
X111056645Y-56484776D01*
X111084776Y-56456645D01*
X111100000Y-56419891D01*
X111100000Y-56399999D01*
X111353554Y-56399999D01*
X111353554Y-56400000D01*
X111734722Y-56781168D01*
X111734723Y-56781168D01*
X111743597Y-56757378D01*
X111743598Y-56757372D01*
X111749999Y-56697844D01*
X111750000Y-56697827D01*
X111750000Y-55450000D01*
X111603553Y-55450000D01*
X111711349Y-55557796D01*
X111744834Y-55619119D01*
X111739850Y-55688811D01*
X111711350Y-55733158D01*
X111644508Y-55800000D01*
X111711349Y-55866841D01*
X111744834Y-55928164D01*
X111739850Y-55997856D01*
X111711349Y-56042203D01*
X111353554Y-56399999D01*
X111100000Y-56399999D01*
X111100000Y-56380109D01*
X111084776Y-56343355D01*
X111056645Y-56315224D01*
X111019891Y-56300000D01*
X110980109Y-56300000D01*
X110943355Y-56315224D01*
X110915224Y-56343355D01*
X110900000Y-56380109D01*
X110626555Y-56380109D01*
X110550000Y-56303553D01*
X110550000Y-57150000D01*
X110050000Y-57150000D01*
X110050000Y-56303554D01*
X110049999Y-56303553D01*
X109776777Y-56576777D01*
X109218829Y-57134723D01*
X102000000Y-57134723D01*
X102000000Y-56697844D01*
X108850000Y-56697844D01*
X108856401Y-56757372D01*
X108856403Y-56757382D01*
X108865275Y-56781168D01*
X108865276Y-56781169D01*
X109246446Y-56400000D01*
X109246446Y-56399999D01*
X109226556Y-56380109D01*
X109500000Y-56380109D01*
X109500000Y-56419891D01*
X109515224Y-56456645D01*
X109543355Y-56484776D01*
X109580109Y-56500000D01*
X109619891Y-56500000D01*
X109656645Y-56484776D01*
X109684776Y-56456645D01*
X109700000Y-56419891D01*
X109700000Y-56380109D01*
X109684776Y-56343355D01*
X109656645Y-56315224D01*
X109619891Y-56300000D01*
X109580109Y-56300000D01*
X109543355Y-56315224D01*
X109515224Y-56343355D01*
X109500000Y-56380109D01*
X109226556Y-56380109D01*
X108888650Y-56042203D01*
X108855165Y-55980880D01*
X108860149Y-55911188D01*
X108865469Y-55898973D01*
X108915060Y-55800000D01*
X109353554Y-55800000D01*
X109600000Y-56046446D01*
X109846446Y-55800000D01*
X110753554Y-55800000D01*
X111000000Y-56046446D01*
X111246446Y-55800000D01*
X111000000Y-55553554D01*
X110753554Y-55800000D01*
X109846446Y-55800000D01*
X109600000Y-55553554D01*
X109353554Y-55800000D01*
X108915060Y-55800000D01*
X108928556Y-55773064D01*
X108888650Y-55733158D01*
X108855165Y-55671835D01*
X108860149Y-55602143D01*
X108888650Y-55557795D01*
X108996446Y-55450000D01*
X108850000Y-55450000D01*
X108850000Y-56697844D01*
X102000000Y-56697844D01*
X102000000Y-55180109D01*
X109500000Y-55180109D01*
X109500000Y-55219891D01*
X109515224Y-55256645D01*
X109543355Y-55284776D01*
X109580109Y-55300000D01*
X109619891Y-55300000D01*
X109656645Y-55284776D01*
X109684776Y-55256645D01*
X109700000Y-55219891D01*
X109700000Y-55180109D01*
X110900000Y-55180109D01*
X110900000Y-55219891D01*
X110915224Y-55256645D01*
X110943355Y-55284776D01*
X110980109Y-55300000D01*
X111019891Y-55300000D01*
X111056645Y-55284776D01*
X111084776Y-55256645D01*
X111100000Y-55219891D01*
X111100000Y-55180109D01*
X111084776Y-55143355D01*
X111056645Y-55115224D01*
X111019891Y-55100000D01*
X110980109Y-55100000D01*
X110943355Y-55115224D01*
X110915224Y-55143355D01*
X110900000Y-55180109D01*
X109700000Y-55180109D01*
X109684776Y-55143355D01*
X109656645Y-55115224D01*
X109619891Y-55100000D01*
X109580109Y-55100000D01*
X109543355Y-55115224D01*
X109515224Y-55143355D01*
X109500000Y-55180109D01*
X102000000Y-55180109D01*
X102000000Y-53702155D01*
X108850000Y-53702155D01*
X108850000Y-54950000D01*
X108996446Y-54950000D01*
X108996446Y-54949999D01*
X108888650Y-54842203D01*
X108855165Y-54780880D01*
X108860149Y-54711188D01*
X108865469Y-54698973D01*
X108915060Y-54600000D01*
X109353554Y-54600000D01*
X109600000Y-54846446D01*
X109846446Y-54600000D01*
X110753554Y-54600000D01*
X111000000Y-54846446D01*
X111246446Y-54600000D01*
X111000000Y-54353554D01*
X110753554Y-54600000D01*
X109846446Y-54600000D01*
X109600000Y-54353554D01*
X109353554Y-54600000D01*
X108915060Y-54600000D01*
X108928556Y-54573064D01*
X108888650Y-54533158D01*
X108855165Y-54471835D01*
X108860149Y-54402143D01*
X108888650Y-54357796D01*
X109246446Y-54000000D01*
X109246446Y-53999999D01*
X109226556Y-53980109D01*
X109500000Y-53980109D01*
X109500000Y-54019891D01*
X109515224Y-54056645D01*
X109543355Y-54084776D01*
X109580109Y-54100000D01*
X109619891Y-54100000D01*
X109656645Y-54084776D01*
X109684776Y-54056645D01*
X109700000Y-54019891D01*
X109700000Y-53980109D01*
X109684776Y-53943355D01*
X109656645Y-53915224D01*
X109619891Y-53900000D01*
X109580109Y-53900000D01*
X109543355Y-53915224D01*
X109515224Y-53943355D01*
X109500000Y-53980109D01*
X109226556Y-53980109D01*
X108865276Y-53618829D01*
X108856401Y-53642626D01*
X108850000Y-53702155D01*
X102000000Y-53702155D01*
X102000000Y-53265276D01*
X109218829Y-53265276D01*
X109776777Y-53823223D01*
X110049999Y-54096446D01*
X110550000Y-54096446D01*
X110666337Y-53980109D01*
X110900000Y-53980109D01*
X110900000Y-54019891D01*
X110915224Y-54056645D01*
X110943355Y-54084776D01*
X110980109Y-54100000D01*
X111019891Y-54100000D01*
X111056645Y-54084776D01*
X111084776Y-54056645D01*
X111100000Y-54019891D01*
X111100000Y-53999999D01*
X111353554Y-53999999D01*
X111353554Y-54000001D01*
X111711349Y-54357796D01*
X111744834Y-54419119D01*
X111739850Y-54488811D01*
X111711350Y-54533158D01*
X111644508Y-54600000D01*
X111711349Y-54666841D01*
X111744834Y-54728164D01*
X111739850Y-54797856D01*
X111711350Y-54842203D01*
X111603554Y-54949999D01*
X111603554Y-54950000D01*
X111750000Y-54950000D01*
X111750000Y-53702172D01*
X111749999Y-53702155D01*
X111743598Y-53642624D01*
X111734723Y-53618829D01*
X111353554Y-53999999D01*
X111100000Y-53999999D01*
X111100000Y-53980109D01*
X111084776Y-53943355D01*
X111056645Y-53915224D01*
X111019891Y-53900000D01*
X110980109Y-53900000D01*
X110943355Y-53915224D01*
X110915224Y-53943355D01*
X110900000Y-53980109D01*
X110666337Y-53980109D01*
X110823223Y-53823223D01*
X111381169Y-53265276D01*
X111381168Y-53265275D01*
X111357382Y-53256403D01*
X111357372Y-53256401D01*
X111297844Y-53250000D01*
X110550000Y-53250000D01*
X110550000Y-54096446D01*
X110049999Y-54096446D01*
X110050000Y-54096445D01*
X110050000Y-53250000D01*
X109302155Y-53250000D01*
X109242626Y-53256401D01*
X109218829Y-53265276D01*
X102000000Y-53265276D01*
X102000000Y-52702135D01*
X114249500Y-52702135D01*
X114249500Y-54297870D01*
X114249501Y-54297876D01*
X114255908Y-54357483D01*
X114306202Y-54492328D01*
X114306206Y-54492335D01*
X114392452Y-54607544D01*
X114392453Y-54607544D01*
X114392454Y-54607546D01*
X114421615Y-54629376D01*
X114450145Y-54650734D01*
X114492015Y-54706668D01*
X114496999Y-54776360D01*
X114463513Y-54837683D01*
X114450145Y-54849266D01*
X114392452Y-54892455D01*
X114306206Y-55007664D01*
X114306202Y-55007671D01*
X114255908Y-55142517D01*
X114251867Y-55180109D01*
X114249501Y-55202123D01*
X114249500Y-55202135D01*
X114249500Y-56797870D01*
X114249501Y-56797876D01*
X114255908Y-56857483D01*
X114306202Y-56992328D01*
X114306206Y-56992335D01*
X114392452Y-57107544D01*
X114392455Y-57107547D01*
X114507664Y-57193793D01*
X114507671Y-57193797D01*
X114642517Y-57244091D01*
X114642516Y-57244091D01*
X114649444Y-57244835D01*
X114702127Y-57250500D01*
X116297872Y-57250499D01*
X116357483Y-57244091D01*
X116492331Y-57193796D01*
X116607546Y-57107546D01*
X116693796Y-56992331D01*
X116744091Y-56857483D01*
X116750500Y-56797873D01*
X116750499Y-55202128D01*
X116744091Y-55142517D01*
X116733911Y-55115224D01*
X116693797Y-55007671D01*
X116693793Y-55007664D01*
X116607547Y-54892456D01*
X116607548Y-54892456D01*
X116607546Y-54892454D01*
X116549854Y-54849265D01*
X116507984Y-54793333D01*
X116503000Y-54723641D01*
X116536485Y-54662318D01*
X116549854Y-54650734D01*
X116607546Y-54607546D01*
X116693796Y-54492331D01*
X116744091Y-54357483D01*
X116750500Y-54297873D01*
X116750499Y-52702128D01*
X116744091Y-52642517D01*
X116693796Y-52507669D01*
X116693795Y-52507668D01*
X116693793Y-52507664D01*
X116607547Y-52392455D01*
X116607544Y-52392452D01*
X116492335Y-52306206D01*
X116492328Y-52306202D01*
X116357482Y-52255908D01*
X116357483Y-52255908D01*
X116297883Y-52249501D01*
X116297881Y-52249500D01*
X116297873Y-52249500D01*
X116297864Y-52249500D01*
X114702129Y-52249500D01*
X114702123Y-52249501D01*
X114642516Y-52255908D01*
X114507671Y-52306202D01*
X114507664Y-52306206D01*
X114392455Y-52392452D01*
X114392452Y-52392455D01*
X114306206Y-52507664D01*
X114306202Y-52507671D01*
X114255908Y-52642517D01*
X114249501Y-52702116D01*
X114249501Y-52702123D01*
X114249500Y-52702135D01*
X102000000Y-52702135D01*
X102000000Y-48797844D01*
X103750000Y-48797844D01*
X103756401Y-48857372D01*
X103756403Y-48857379D01*
X103806645Y-48992086D01*
X103806649Y-48992093D01*
X103892809Y-49107187D01*
X103892812Y-49107190D01*
X104007906Y-49193350D01*
X104007913Y-49193354D01*
X104142620Y-49243596D01*
X104142627Y-49243598D01*
X104202155Y-49249999D01*
X104202172Y-49250000D01*
X104750000Y-49250000D01*
X105250000Y-49250000D01*
X105797828Y-49250000D01*
X105797844Y-49249999D01*
X105857372Y-49243598D01*
X105857379Y-49243596D01*
X105992086Y-49193354D01*
X105992093Y-49193350D01*
X106107187Y-49107190D01*
X106107190Y-49107187D01*
X106193350Y-48992093D01*
X106193354Y-48992086D01*
X106243596Y-48857379D01*
X106243598Y-48857372D01*
X106249999Y-48797844D01*
X106250000Y-48797827D01*
X106250000Y-48250000D01*
X105250000Y-48250000D01*
X105250000Y-49250000D01*
X104750000Y-49250000D01*
X104750000Y-48250000D01*
X103750000Y-48250000D01*
X103750000Y-48797844D01*
X102000000Y-48797844D01*
X102000000Y-47953922D01*
X104650000Y-47953922D01*
X104650000Y-48046078D01*
X104673852Y-48135095D01*
X104719930Y-48214905D01*
X104785095Y-48280070D01*
X104864905Y-48326148D01*
X104953922Y-48350000D01*
X105046078Y-48350000D01*
X105135095Y-48326148D01*
X105214905Y-48280070D01*
X105280070Y-48214905D01*
X105326148Y-48135095D01*
X105350000Y-48046078D01*
X105350000Y-47953922D01*
X105326148Y-47864905D01*
X105280070Y-47785095D01*
X105244975Y-47750000D01*
X105250000Y-47750000D01*
X106250000Y-47750000D01*
X106250000Y-47202172D01*
X106249999Y-47202158D01*
X106245688Y-47162063D01*
X106245688Y-47162062D01*
X106244620Y-47152135D01*
X114155750Y-47152135D01*
X114155750Y-48747870D01*
X114155751Y-48747876D01*
X114162158Y-48807483D01*
X114212452Y-48942328D01*
X114212456Y-48942335D01*
X114298702Y-49057544D01*
X114298705Y-49057547D01*
X114413914Y-49143793D01*
X114413921Y-49143797D01*
X114548767Y-49194091D01*
X114548766Y-49194091D01*
X114555694Y-49194835D01*
X114608377Y-49200500D01*
X116204122Y-49200499D01*
X116263733Y-49194091D01*
X116398581Y-49143796D01*
X116513796Y-49057546D01*
X116600046Y-48942331D01*
X116650341Y-48807483D01*
X116656750Y-48747873D01*
X116656749Y-47152128D01*
X116650341Y-47092517D01*
X116600046Y-46957669D01*
X116600045Y-46957668D01*
X116600043Y-46957664D01*
X116513797Y-46842455D01*
X116513794Y-46842452D01*
X116398585Y-46756206D01*
X116398578Y-46756202D01*
X116263732Y-46705908D01*
X116263733Y-46705908D01*
X116204133Y-46699501D01*
X116204131Y-46699500D01*
X116204123Y-46699500D01*
X116204114Y-46699500D01*
X114608379Y-46699500D01*
X114608373Y-46699501D01*
X114548766Y-46705908D01*
X114413921Y-46756202D01*
X114413914Y-46756206D01*
X114298705Y-46842452D01*
X114298702Y-46842455D01*
X114212456Y-46957664D01*
X114212452Y-46957671D01*
X114162158Y-47092517D01*
X114156772Y-47142620D01*
X114155751Y-47152123D01*
X114155750Y-47152135D01*
X106244620Y-47152135D01*
X106243598Y-47142627D01*
X106243596Y-47142620D01*
X106193354Y-47007913D01*
X106193350Y-47007906D01*
X106107190Y-46892813D01*
X106049021Y-46849267D01*
X106007150Y-46793333D01*
X106002166Y-46723641D01*
X106035651Y-46662318D01*
X106049021Y-46650733D01*
X106107190Y-46607186D01*
X106193350Y-46492093D01*
X106193354Y-46492086D01*
X106243596Y-46357379D01*
X106243598Y-46357372D01*
X106249999Y-46297844D01*
X106250000Y-46297827D01*
X106250000Y-45750000D01*
X105250000Y-45750000D01*
X105250000Y-47750000D01*
X105244975Y-47750000D01*
X105214905Y-47719930D01*
X105135095Y-47673852D01*
X105046078Y-47650000D01*
X104953922Y-47650000D01*
X104864905Y-47673852D01*
X104785095Y-47719930D01*
X104719930Y-47785095D01*
X104673852Y-47864905D01*
X104650000Y-47953922D01*
X102000000Y-47953922D01*
X102000000Y-46297844D01*
X103750000Y-46297844D01*
X103756401Y-46357372D01*
X103756403Y-46357379D01*
X103806645Y-46492086D01*
X103806649Y-46492093D01*
X103892809Y-46607187D01*
X103950979Y-46650734D01*
X103992849Y-46706668D01*
X103997833Y-46776360D01*
X103964347Y-46837683D01*
X103950979Y-46849266D01*
X103892809Y-46892812D01*
X103806649Y-47007906D01*
X103806645Y-47007913D01*
X103756403Y-47142620D01*
X103756401Y-47142627D01*
X103750000Y-47202155D01*
X103750000Y-47750000D01*
X104750000Y-47750000D01*
X104750000Y-45750000D01*
X103750000Y-45750000D01*
X103750000Y-46297844D01*
X102000000Y-46297844D01*
X102000000Y-45453922D01*
X104650000Y-45453922D01*
X104650000Y-45546078D01*
X104673852Y-45635095D01*
X104719930Y-45714905D01*
X104785095Y-45780070D01*
X104864905Y-45826148D01*
X104953922Y-45850000D01*
X105046078Y-45850000D01*
X105135095Y-45826148D01*
X105214905Y-45780070D01*
X105280070Y-45714905D01*
X105326148Y-45635095D01*
X105350000Y-45546078D01*
X105350000Y-45453922D01*
X105326148Y-45364905D01*
X105280070Y-45285095D01*
X105244975Y-45250000D01*
X105250000Y-45250000D01*
X106250000Y-45250000D01*
X106250000Y-44702172D01*
X106249999Y-44702155D01*
X106243598Y-44642627D01*
X106243596Y-44642620D01*
X106193354Y-44507913D01*
X106193350Y-44507906D01*
X106107190Y-44392812D01*
X106107187Y-44392809D01*
X105992093Y-44306649D01*
X105992086Y-44306645D01*
X105857379Y-44256403D01*
X105857372Y-44256401D01*
X105797844Y-44250000D01*
X105250000Y-44250000D01*
X105250000Y-45250000D01*
X105244975Y-45250000D01*
X105214905Y-45219930D01*
X105135095Y-45173852D01*
X105046078Y-45150000D01*
X104953922Y-45150000D01*
X104864905Y-45173852D01*
X104785095Y-45219930D01*
X104719930Y-45285095D01*
X104673852Y-45364905D01*
X104650000Y-45453922D01*
X102000000Y-45453922D01*
X102000000Y-44702155D01*
X103750000Y-44702155D01*
X103750000Y-45250000D01*
X104750000Y-45250000D01*
X104750000Y-44250000D01*
X104202155Y-44250000D01*
X104142627Y-44256401D01*
X104142620Y-44256403D01*
X104007913Y-44306645D01*
X104007906Y-44306649D01*
X103892812Y-44392809D01*
X103892809Y-44392812D01*
X103806649Y-44507906D01*
X103806645Y-44507913D01*
X103756403Y-44642620D01*
X103756401Y-44642627D01*
X103750000Y-44702155D01*
X102000000Y-44702155D01*
X102000000Y-41702135D01*
X113749500Y-41702135D01*
X113749500Y-43297870D01*
X113749501Y-43297876D01*
X113755908Y-43357483D01*
X113806202Y-43492328D01*
X113806206Y-43492335D01*
X113892452Y-43607544D01*
X113892455Y-43607547D01*
X114007664Y-43693793D01*
X114007671Y-43693797D01*
X114142517Y-43744091D01*
X114142516Y-43744091D01*
X114149444Y-43744835D01*
X114202127Y-43750500D01*
X115797872Y-43750499D01*
X115857483Y-43744091D01*
X115992331Y-43693796D01*
X116107546Y-43607546D01*
X116193796Y-43492331D01*
X116244091Y-43357483D01*
X116250500Y-43297873D01*
X116250499Y-41702128D01*
X116244091Y-41642517D01*
X116193796Y-41507669D01*
X116193795Y-41507668D01*
X116193793Y-41507664D01*
X116107547Y-41392455D01*
X116107544Y-41392452D01*
X115992335Y-41306206D01*
X115992328Y-41306202D01*
X115857482Y-41255908D01*
X115857483Y-41255908D01*
X115797883Y-41249501D01*
X115797881Y-41249500D01*
X115797873Y-41249500D01*
X115797864Y-41249500D01*
X114202129Y-41249500D01*
X114202123Y-41249501D01*
X114142516Y-41255908D01*
X114007671Y-41306202D01*
X114007664Y-41306206D01*
X113892455Y-41392452D01*
X113892452Y-41392455D01*
X113806206Y-41507664D01*
X113806202Y-41507671D01*
X113755908Y-41642517D01*
X113749501Y-41702116D01*
X113749501Y-41702123D01*
X113749500Y-41702135D01*
X102000000Y-41702135D01*
X102000000Y-38124000D01*
X102019685Y-38056961D01*
X102072489Y-38011206D01*
X102124000Y-38000000D01*
X113633185Y-38000000D01*
X113700224Y-38019685D01*
G37*
%TD.AperFunction*%
%TD*%
M02*
