%TF.GenerationSoftware,KiCad,Pcbnew,9.0.2*%
%TF.CreationDate,2025-07-27T21:18:58+02:00*%
%TF.ProjectId,ldo,6c646f2e-6b69-4636-9164-5f7063625858,rev?*%
%TF.SameCoordinates,Original*%
%TF.FileFunction,Copper,L1,Top*%
%TF.FilePolarity,Positive*%
%FSLAX46Y46*%
G04 Gerber Fmt 4.6, Leading zero omitted, Abs format (unit mm)*
G04 Created by KiCad (PCBNEW 9.0.2) date 2025-07-27 21:18:58*
%MOMM*%
%LPD*%
G01*
G04 APERTURE LIST*
G04 Aperture macros list*
%AMRoundRect*
0 Rectangle with rounded corners*
0 $1 Rounding radius*
0 $2 $3 $4 $5 $6 $7 $8 $9 X,Y pos of 4 corners*
0 Add a 4 corners polygon primitive as box body*
4,1,4,$2,$3,$4,$5,$6,$7,$8,$9,$2,$3,0*
0 Add four circle primitives for the rounded corners*
1,1,$1+$1,$2,$3*
1,1,$1+$1,$4,$5*
1,1,$1+$1,$6,$7*
1,1,$1+$1,$8,$9*
0 Add four rect primitives between the rounded corners*
20,1,$1+$1,$2,$3,$4,$5,0*
20,1,$1+$1,$4,$5,$6,$7,0*
20,1,$1+$1,$6,$7,$8,$9,0*
20,1,$1+$1,$8,$9,$2,$3,0*%
%AMFreePoly0*
4,1,9,3.862500,-0.866500,0.737500,-0.866500,0.737500,-0.450000,-0.737500,-0.450000,-0.737500,0.450000,0.737500,0.450000,0.737500,0.866500,3.862500,0.866500,3.862500,-0.866500,3.862500,-0.866500,$1*%
G04 Aperture macros list end*
%TA.AperFunction,SMDPad,CuDef*%
%ADD10RoundRect,0.135000X-0.135000X-0.185000X0.135000X-0.185000X0.135000X0.185000X-0.135000X0.185000X0*%
%TD*%
%TA.AperFunction,ComponentPad*%
%ADD11R,1.500000X1.500000*%
%TD*%
%TA.AperFunction,SMDPad,CuDef*%
%ADD12RoundRect,0.150000X-0.825000X-0.150000X0.825000X-0.150000X0.825000X0.150000X-0.825000X0.150000X0*%
%TD*%
%TA.AperFunction,ComponentPad*%
%ADD13C,0.500000*%
%TD*%
%TA.AperFunction,SMDPad,CuDef*%
%ADD14R,2.410000X3.300000*%
%TD*%
%TA.AperFunction,SMDPad,CuDef*%
%ADD15RoundRect,0.225000X-0.425000X-0.225000X0.425000X-0.225000X0.425000X0.225000X-0.425000X0.225000X0*%
%TD*%
%TA.AperFunction,SMDPad,CuDef*%
%ADD16FreePoly0,0.000000*%
%TD*%
%TA.AperFunction,SMDPad,CuDef*%
%ADD17RoundRect,0.135000X0.135000X0.185000X-0.135000X0.185000X-0.135000X-0.185000X0.135000X-0.185000X0*%
%TD*%
%TA.AperFunction,SMDPad,CuDef*%
%ADD18RoundRect,0.135000X0.185000X-0.135000X0.185000X0.135000X-0.185000X0.135000X-0.185000X-0.135000X0*%
%TD*%
%TA.AperFunction,SMDPad,CuDef*%
%ADD19RoundRect,0.225000X0.250000X-0.225000X0.250000X0.225000X-0.250000X0.225000X-0.250000X-0.225000X0*%
%TD*%
%TA.AperFunction,SMDPad,CuDef*%
%ADD20RoundRect,0.225000X-0.250000X0.225000X-0.250000X-0.225000X0.250000X-0.225000X0.250000X0.225000X0*%
%TD*%
%TA.AperFunction,SMDPad,CuDef*%
%ADD21R,1.000000X0.700000*%
%TD*%
%TA.AperFunction,ViaPad*%
%ADD22C,0.800000*%
%TD*%
%TA.AperFunction,Conductor*%
%ADD23C,0.500000*%
%TD*%
%TA.AperFunction,Conductor*%
%ADD24C,0.250000*%
%TD*%
G04 APERTURE END LIST*
D10*
%TO.P,R13,2*%
%TO.N,Net-(R12-Pad1)*%
X106000000Y-57500000D03*
%TO.P,R13,1*%
%TO.N,GND*%
X104980000Y-57500000D03*
%TD*%
D11*
%TO.P,ctrl1,1,1*%
%TO.N,Net-(R12-Pad1)*%
X105500000Y-59500000D03*
%TD*%
D12*
%TO.P,U4,1,GND*%
%TO.N,GND*%
X107825000Y-53295000D03*
%TO.P,U4,2,VCC*%
%TO.N,VCC*%
X107825000Y-54565000D03*
%TO.P,U4,3,VM*%
%TO.N,Net-(D1-+)*%
X107825000Y-55835000D03*
%TO.P,U4,4,OUTA*%
%TO.N,Net-(U4-OUTA)*%
X107825000Y-57105000D03*
%TO.P,U4,5,OUTB*%
%TO.N,Net-(U4-OUTB)*%
X112775000Y-57105000D03*
%TO.P,U4,6,INA*%
%TO.N,Net-(U4-INA)*%
X112775000Y-55835000D03*
%TO.P,U4,7,INB*%
%TO.N,Net-(U4-INB)*%
X112775000Y-54565000D03*
%TO.P,U4,8,NC*%
%TO.N,unconnected-(U4-NC-Pad8)*%
X112775000Y-53295000D03*
D13*
%TO.P,U4,9,GND*%
%TO.N,GND*%
X109600000Y-54000000D03*
X109600000Y-55200000D03*
X109600000Y-56400000D03*
D14*
X110300000Y-55200000D03*
D13*
X111000000Y-54000000D03*
X111000000Y-55200000D03*
X111000000Y-56400000D03*
%TD*%
D11*
%TO.P,tr2,1,1*%
%TO.N,Net-(D1-Pad3)*%
X115000000Y-42500000D03*
%TD*%
%TO.P,v3,1,1*%
%TO.N,VCC*%
X115406250Y-47950000D03*
%TD*%
D15*
%TO.P,U1,1,GND*%
%TO.N,GND*%
X108456250Y-46950000D03*
D16*
%TO.P,U1,2,VO*%
%TO.N,VCC*%
X108543750Y-48450000D03*
D15*
%TO.P,U1,3,VI*%
%TO.N,Net-(D1-+)*%
X108456250Y-49950000D03*
%TD*%
D11*
%TO.P,tr1,1,1*%
%TO.N,Net-(D1-Pad4)*%
X115000000Y-39000000D03*
%TD*%
D17*
%TO.P,R15,1*%
%TO.N,GND*%
X116020000Y-58000000D03*
%TO.P,R15,2*%
%TO.N,Net-(R14-Pad1)*%
X115000000Y-58000000D03*
%TD*%
D18*
%TO.P,R14,1*%
%TO.N,Net-(R14-Pad1)*%
X114000000Y-59520000D03*
%TO.P,R14,2*%
%TO.N,Net-(U4-OUTB)*%
X114000000Y-58500000D03*
%TD*%
%TO.P,R12,1*%
%TO.N,Net-(R12-Pad1)*%
X107500000Y-59520000D03*
%TO.P,R12,2*%
%TO.N,Net-(U4-OUTA)*%
X107500000Y-58500000D03*
%TD*%
D11*
%TO.P,o2,1,1*%
%TO.N,Net-(U4-OUTB)*%
X112000000Y-59500000D03*
%TD*%
%TO.P,i2,1,1*%
%TO.N,Net-(U4-INB)*%
X115500000Y-53500000D03*
%TD*%
%TO.P,i1,1,1*%
%TO.N,Net-(U4-INA)*%
X115500000Y-56000000D03*
%TD*%
%TO.P,g2,1,1*%
%TO.N,GND*%
X105000000Y-48000000D03*
%TD*%
%TO.P,g1,1,1*%
%TO.N,GND*%
X105000000Y-45500000D03*
%TD*%
%TO.P,ctrl2,1,1*%
%TO.N,Net-(R14-Pad1)*%
X116000000Y-60000000D03*
%TD*%
D19*
%TO.P,C18,1*%
%TO.N,VCC*%
X113406250Y-48500000D03*
%TO.P,C18,2*%
%TO.N,GND*%
X113406250Y-46950000D03*
%TD*%
D20*
%TO.P,C17,1*%
%TO.N,Net-(D1-+)*%
X105500000Y-39000000D03*
%TO.P,C17,2*%
%TO.N,GND*%
X105500000Y-40550000D03*
%TD*%
%TO.P,C3,1*%
%TO.N,Net-(D1-+)*%
X104000000Y-39000000D03*
%TO.P,C3,2*%
%TO.N,GND*%
X104000000Y-40550000D03*
%TD*%
D21*
%TO.P,D1,1,+*%
%TO.N,Net-(D1-+)*%
X107050000Y-39000000D03*
%TO.P,D1,2,-*%
%TO.N,GND*%
X107050000Y-43000000D03*
%TO.P,D1,3*%
%TO.N,Net-(D1-Pad3)*%
X113000000Y-43000000D03*
%TO.P,D1,4*%
%TO.N,Net-(D1-Pad4)*%
X113000000Y-39000000D03*
%TD*%
D11*
%TO.P,o1,1,1*%
%TO.N,Net-(U4-OUTA)*%
X109500000Y-59500000D03*
%TD*%
D22*
%TO.N,GND*%
X106000000Y-53000000D03*
X105500000Y-42500000D03*
X117000000Y-58000000D03*
X104000000Y-57500000D03*
X113406250Y-45950000D03*
X106906250Y-46450000D03*
%TD*%
D23*
%TO.N,GND*%
X105000000Y-45500000D02*
X105000000Y-48000000D01*
X105950000Y-46450000D02*
X105000000Y-45500000D01*
X106906250Y-46450000D02*
X105950000Y-46450000D01*
%TO.N,Net-(D1-+)*%
X103550000Y-49950000D02*
X102500000Y-51000000D01*
X102500000Y-39500000D02*
X102500000Y-51000000D01*
X108456250Y-49950000D02*
X103550000Y-49950000D01*
X103665000Y-55835000D02*
X102500000Y-54670000D01*
D24*
X102500000Y-54670000D02*
X102500000Y-54500000D01*
D23*
X103665000Y-55835000D02*
X107825000Y-55835000D01*
X102500000Y-51000000D02*
X102500000Y-54500000D01*
X103000000Y-39000000D02*
X102500000Y-39500000D01*
X104000000Y-39000000D02*
X103000000Y-39000000D01*
D24*
%TO.N,GND*%
X106295000Y-53295000D02*
X106000000Y-53000000D01*
D23*
X107825000Y-53295000D02*
X106295000Y-53295000D01*
X106025000Y-41975000D02*
X107050000Y-43000000D01*
X105500000Y-42500000D02*
X106025000Y-41975000D01*
X105500000Y-41450000D02*
X106025000Y-41975000D01*
X105500000Y-40550000D02*
X105500000Y-41450000D01*
D24*
X104000000Y-40550000D02*
X105500000Y-40550000D01*
D23*
%TO.N,Net-(D1-+)*%
X105500000Y-39000000D02*
X104000000Y-39000000D01*
X107050000Y-39000000D02*
X105500000Y-39000000D01*
%TO.N,VCC*%
X110406250Y-51500000D02*
X113406250Y-48500000D01*
X106000000Y-51500000D02*
X110406250Y-51500000D01*
X105000000Y-52500000D02*
X106000000Y-51500000D01*
X105000000Y-53500000D02*
X105000000Y-52500000D01*
X106065000Y-54565000D02*
X105000000Y-53500000D01*
X107825000Y-54565000D02*
X106065000Y-54565000D01*
X108593750Y-48500000D02*
X113406250Y-48500000D01*
D24*
X108543750Y-48450000D02*
X108593750Y-48500000D01*
%TO.N,Net-(D1-Pad3)*%
X114500000Y-43000000D02*
X115000000Y-42500000D01*
D23*
X113000000Y-43000000D02*
X114500000Y-43000000D01*
D24*
%TO.N,GND*%
X107325000Y-43275000D02*
X107050000Y-43000000D01*
D23*
%TO.N,Net-(D1-Pad4)*%
X113000000Y-39000000D02*
X115000000Y-39000000D01*
D24*
%TO.N,GND*%
X116020000Y-58000000D02*
X117000000Y-58000000D01*
%TO.N,Net-(R14-Pad1)*%
X116000000Y-59000000D02*
X115000000Y-58000000D01*
X116000000Y-60000000D02*
X116000000Y-59000000D01*
X115520000Y-59520000D02*
X116000000Y-60000000D01*
X114000000Y-59520000D02*
X115520000Y-59520000D01*
D23*
%TO.N,Net-(U4-OUTB)*%
X112775000Y-57275000D02*
X114000000Y-58500000D01*
D24*
X112775000Y-57105000D02*
X112775000Y-57275000D01*
D23*
X112775000Y-57105000D02*
X112000000Y-57880000D01*
X112000000Y-57880000D02*
X112000000Y-59500000D01*
D24*
%TO.N,Net-(R12-Pad1)*%
X105500000Y-58000000D02*
X106000000Y-57500000D01*
X105500000Y-59500000D02*
X105500000Y-58000000D01*
X105520000Y-59520000D02*
X105500000Y-59500000D01*
X107500000Y-59520000D02*
X105520000Y-59520000D01*
D23*
%TO.N,Net-(U4-OUTA)*%
X108175000Y-58175000D02*
X107825000Y-58175000D01*
X109500000Y-59500000D02*
X108175000Y-58175000D01*
X107825000Y-58175000D02*
X107500000Y-58500000D01*
X107825000Y-57105000D02*
X107825000Y-58175000D01*
D24*
%TO.N,Net-(D1-+)*%
X107825000Y-55835000D02*
X107825000Y-56065000D01*
%TO.N,GND*%
X104980000Y-57500000D02*
X104000000Y-57500000D01*
%TO.N,Net-(R12-Pad1)*%
X106000000Y-59000000D02*
X105500000Y-59500000D01*
%TO.N,Net-(U4-INA)*%
X115335000Y-55835000D02*
X115500000Y-56000000D01*
X112775000Y-55835000D02*
X115335000Y-55835000D01*
%TO.N,Net-(U4-INB)*%
X114435000Y-54565000D02*
X115500000Y-53500000D01*
X112775000Y-54565000D02*
X114435000Y-54565000D01*
D23*
%TO.N,GND*%
X107406250Y-46950000D02*
X106906250Y-46450000D01*
X108456250Y-46950000D02*
X107406250Y-46950000D01*
X113406250Y-46950000D02*
X113406250Y-45950000D01*
D24*
%TO.N,VCC*%
X114856250Y-48500000D02*
X115406250Y-47950000D01*
D23*
X113406250Y-48500000D02*
X114856250Y-48500000D01*
D24*
%TO.N,Net-(U4-OUTB)*%
X113220200Y-57335000D02*
X112775000Y-57335000D01*
%TO.N,VCC*%
X108543750Y-48450000D02*
X108544250Y-48450000D01*
%TO.N,Net-(D1-+)*%
X107408200Y-56065000D02*
X107825000Y-56065000D01*
%TO.N,Net-(U4-OUTA)*%
X107825000Y-57335000D02*
X107323700Y-57335000D01*
%TO.N,GND*%
X108456250Y-46482400D02*
X108456250Y-46950000D01*
X111000000Y-56700000D02*
X110300000Y-56700000D01*
%TD*%
M02*
