M48
; DRILL file {KiCad 9.0.2} date 2025-07-27T20:23:48+0200
; FORMAT={-:-/ absolute / inch / decimal}
; #@! TF.CreationDate,2025-07-27T20:23:48+02:00
; #@! TF.GenerationSoftware,Kicad,Pcbnew,9.0.2
; #@! TF.FileFunction,Plated,1,2,PTH
FMAT,2
INCH
; #@! TA.AperFunction,Plated,PTH,ComponentDrill
T1C0.0079
; #@! TA.AperFunction,Plated,PTH,ViaDrill
T2C0.0157
; #@! TA.AperFunction,Plated,PTH,ComponentDrill
T3C0.0276
%
G90
G05
T1
X3.5472Y-2.3819
X3.5472Y-2.4291
X3.5472Y-2.4764
X3.6024Y-2.3819
X3.6024Y-2.4291
X3.6024Y-2.4764
T2
X3.2728Y-1.7209
X3.2797Y-2.1407
X3.3427Y-2.0559
X3.3661Y-2.1457
X3.4449Y-1.6142
X3.6057Y-2.2838
X3.7008Y-1.7022
X3.7339Y-2.5767
X3.7859Y-2.5256
X3.7942Y-1.5969
X3.8386Y-2.5394
T3
X3.3268Y-2.2244
X3.3268Y-2.3622
X3.3268Y-2.4803
X3.3661Y-1.7323
X3.4843Y-1.6535
X3.5236Y-2.2441
X3.7992Y-2.0079
X3.7992Y-2.126
X3.7992Y-2.2441
X3.8386Y-1.811
X3.8583Y-2.3425
M30
