%TF.GenerationSoftware,KiCad,Pcbnew,9.0.2*%
%TF.CreationDate,2025-07-27T20:23:47+02:00*%
%TF.ProjectId,ldo,6c646f2e-6b69-4636-9164-5f7063625858,rev?*%
%TF.SameCoordinates,Original*%
%TF.FileFunction,Soldermask,Top*%
%TF.FilePolarity,Negative*%
%FSLAX46Y46*%
G04 Gerber Fmt 4.6, Leading zero omitted, Abs format (unit mm)*
G04 Created by KiCad (PCBNEW 9.0.2) date 2025-07-27 20:23:47*
%MOMM*%
%LPD*%
G01*
G04 APERTURE LIST*
G04 Aperture macros list*
%AMRoundRect*
0 Rectangle with rounded corners*
0 $1 Rounding radius*
0 $2 $3 $4 $5 $6 $7 $8 $9 X,Y pos of 4 corners*
0 Add a 4 corners polygon primitive as box body*
4,1,4,$2,$3,$4,$5,$6,$7,$8,$9,$2,$3,0*
0 Add four circle primitives for the rounded corners*
1,1,$1+$1,$2,$3*
1,1,$1+$1,$4,$5*
1,1,$1+$1,$6,$7*
1,1,$1+$1,$8,$9*
0 Add four rect primitives between the rounded corners*
20,1,$1+$1,$2,$3,$4,$5,0*
20,1,$1+$1,$4,$5,$6,$7,0*
20,1,$1+$1,$6,$7,$8,$9,0*
20,1,$1+$1,$8,$9,$2,$3,0*%
%AMFreePoly0*
4,1,9,3.862500,-0.866500,0.737500,-0.866500,0.737500,-0.450000,-0.737500,-0.450000,-0.737500,0.450000,0.737500,0.450000,0.737500,0.866500,3.862500,0.866500,3.862500,-0.866500,3.862500,-0.866500,$1*%
G04 Aperture macros list end*
%ADD10RoundRect,0.225000X0.250000X-0.225000X0.250000X0.225000X-0.250000X0.225000X-0.250000X-0.225000X0*%
%ADD11RoundRect,0.150000X0.825000X0.150000X-0.825000X0.150000X-0.825000X-0.150000X0.825000X-0.150000X0*%
%ADD12R,2.410000X3.300000*%
%ADD13R,1.500000X1.500000*%
%ADD14RoundRect,0.135000X-0.135000X-0.185000X0.135000X-0.185000X0.135000X0.185000X-0.135000X0.185000X0*%
%ADD15RoundRect,0.135000X-0.185000X0.135000X-0.185000X-0.135000X0.185000X-0.135000X0.185000X0.135000X0*%
%ADD16RoundRect,0.135000X0.185000X-0.135000X0.185000X0.135000X-0.185000X0.135000X-0.185000X-0.135000X0*%
%ADD17RoundRect,0.135000X0.135000X0.185000X-0.135000X0.185000X-0.135000X-0.185000X0.135000X-0.185000X0*%
%ADD18RoundRect,0.225000X-0.250000X0.225000X-0.250000X-0.225000X0.250000X-0.225000X0.250000X0.225000X0*%
%ADD19RoundRect,0.225000X-0.425000X-0.225000X0.425000X-0.225000X0.425000X0.225000X-0.425000X0.225000X0*%
%ADD20FreePoly0,0.000000*%
%ADD21R,1.000000X0.700000*%
%ADD22RoundRect,0.159000X-0.189000X0.159000X-0.189000X-0.159000X0.189000X-0.159000X0.189000X0.159000X0*%
G04 APERTURE END LIST*
D10*
%TO.C,C3*%
X83000000Y-47000000D03*
X83000000Y-45450000D03*
%TD*%
D11*
%TO.C,U4*%
X93275000Y-63605000D03*
X93275000Y-62335000D03*
X93275000Y-61065000D03*
X93275000Y-59795000D03*
X88325000Y-59795000D03*
X88325000Y-61065000D03*
X88325000Y-62335000D03*
X88325000Y-63605000D03*
D12*
X90800000Y-61700000D03*
%TD*%
D13*
%TO.C,ctrl2*%
X89500000Y-57000000D03*
%TD*%
%TO.C,o1*%
X96500000Y-57000000D03*
%TD*%
%TO.C,i1*%
X84500000Y-60000000D03*
%TD*%
%TO.C,ctrl1*%
X98000000Y-59500000D03*
%TD*%
%TO.C,o2*%
X84500000Y-56500000D03*
%TD*%
%TO.C,i2*%
X84500000Y-63000000D03*
%TD*%
D14*
%TO.C,R15*%
X86500000Y-56000000D03*
X87520000Y-56000000D03*
%TD*%
D15*
%TO.C,R14*%
X87500000Y-57000000D03*
X87500000Y-58020000D03*
%TD*%
D16*
%TO.C,R13*%
X97500000Y-62520000D03*
X97500000Y-61500000D03*
%TD*%
D17*
%TO.C,R12*%
X96010000Y-59500000D03*
X94990000Y-59500000D03*
%TD*%
D10*
%TO.C,C18*%
X94500000Y-46050000D03*
X94500000Y-44500000D03*
%TD*%
D18*
%TO.C,C17*%
X83500000Y-50000000D03*
X83500000Y-51550000D03*
%TD*%
D13*
%TO.C,g2*%
X85500000Y-44000000D03*
%TD*%
%TO.C,g1*%
X88500000Y-42000000D03*
%TD*%
%TO.C,v3*%
X97500000Y-46000000D03*
%TD*%
%TO.C,tr2*%
X96500000Y-54000000D03*
%TD*%
D19*
%TO.C,U1*%
X89050000Y-44500000D03*
D20*
X89137500Y-46000000D03*
D19*
X89050000Y-47500000D03*
%TD*%
D21*
%TO.C,D1*%
X87000000Y-50500000D03*
X87000000Y-54500000D03*
X92950000Y-54500000D03*
X92950000Y-50500000D03*
%TD*%
D22*
%TO.C,C1*%
X85000000Y-50000000D03*
X85000000Y-51000000D03*
%TD*%
D13*
%TO.C,tr1*%
X96500000Y-51000000D03*
%TD*%
M02*
