%TF.GenerationSoftware,KiCad,Pcbnew,9.0.7*%
%TF.CreationDate,2026-02-24T23:46:09+01:00*%
%TF.ProjectId,ldo,6c646f2e-6b69-4636-9164-5f7063625858,rev?*%
%TF.SameCoordinates,Original*%
%TF.FileFunction,Legend,Top*%
%TF.FilePolarity,Positive*%
%FSLAX46Y46*%
G04 Gerber Fmt 4.6, Leading zero omitted, Abs format (unit mm)*
G04 Created by KiCad (PCBNEW 9.0.7) date 2026-02-24 23:46:09*
%MOMM*%
%LPD*%
G01*
G04 APERTURE LIST*
G04 Aperture macros list*
%AMRoundRect*
0 Rectangle with rounded corners*
0 $1 Rounding radius*
0 $2 $3 $4 $5 $6 $7 $8 $9 X,Y pos of 4 corners*
0 Add a 4 corners polygon primitive as box body*
4,1,4,$2,$3,$4,$5,$6,$7,$8,$9,$2,$3,0*
0 Add four circle primitives for the rounded corners*
1,1,$1+$1,$2,$3*
1,1,$1+$1,$4,$5*
1,1,$1+$1,$6,$7*
1,1,$1+$1,$8,$9*
0 Add four rect primitives between the rounded corners*
20,1,$1+$1,$2,$3,$4,$5,0*
20,1,$1+$1,$4,$5,$6,$7,0*
20,1,$1+$1,$6,$7,$8,$9,0*
20,1,$1+$1,$8,$9,$2,$3,0*%
%AMFreePoly0*
4,1,9,3.862500,-0.866500,0.737500,-0.866500,0.737500,-0.450000,-0.737500,-0.450000,-0.737500,0.450000,0.737500,0.450000,0.737500,0.866500,3.862500,0.866500,3.862500,-0.866500,3.862500,-0.866500,$1*%
G04 Aperture macros list end*
%ADD10C,0.150000*%
%ADD11C,0.120000*%
%ADD12C,2.100000*%
%ADD13RoundRect,0.150000X0.825000X0.150000X-0.825000X0.150000X-0.825000X-0.150000X0.825000X-0.150000X0*%
%ADD14R,2.410000X3.300000*%
%ADD15RoundRect,0.225000X-0.225000X0.425000X-0.225000X-0.425000X0.225000X-0.425000X0.225000X0.425000X0*%
%ADD16FreePoly0,270.000000*%
%ADD17RoundRect,0.225000X-0.225000X-0.250000X0.225000X-0.250000X0.225000X0.250000X-0.225000X0.250000X0*%
%ADD18R,0.700000X1.000000*%
%ADD19RoundRect,0.150000X-0.150000X-0.475000X0.150000X-0.475000X0.150000X0.475000X-0.150000X0.475000X0*%
%ADD20RoundRect,0.225000X-0.225000X-0.625000X0.225000X-0.625000X0.225000X0.625000X-0.225000X0.625000X0*%
%ADD21RoundRect,0.150000X0.150000X0.475000X-0.150000X0.475000X-0.150000X-0.475000X0.150000X-0.475000X0*%
%ADD22RoundRect,0.225000X0.225000X0.625000X-0.225000X0.625000X-0.225000X-0.625000X0.225000X-0.625000X0*%
%ADD23RoundRect,0.225000X0.250000X-0.225000X0.250000X0.225000X-0.250000X0.225000X-0.250000X-0.225000X0*%
G04 APERTURE END LIST*
D10*
X105738095Y-54904819D02*
X106309523Y-54904819D01*
X106023809Y-55904819D02*
X106023809Y-54904819D01*
X106642857Y-55904819D02*
X106642857Y-54904819D01*
X106642857Y-54904819D02*
X107023809Y-54904819D01*
X107023809Y-54904819D02*
X107119047Y-54952438D01*
X107119047Y-54952438D02*
X107166666Y-55000057D01*
X107166666Y-55000057D02*
X107214285Y-55095295D01*
X107214285Y-55095295D02*
X107214285Y-55238152D01*
X107214285Y-55238152D02*
X107166666Y-55333390D01*
X107166666Y-55333390D02*
X107119047Y-55381009D01*
X107119047Y-55381009D02*
X107023809Y-55428628D01*
X107023809Y-55428628D02*
X106642857Y-55428628D01*
X107595238Y-55000057D02*
X107642857Y-54952438D01*
X107642857Y-54952438D02*
X107738095Y-54904819D01*
X107738095Y-54904819D02*
X107976190Y-54904819D01*
X107976190Y-54904819D02*
X108071428Y-54952438D01*
X108071428Y-54952438D02*
X108119047Y-55000057D01*
X108119047Y-55000057D02*
X108166666Y-55095295D01*
X108166666Y-55095295D02*
X108166666Y-55190533D01*
X108166666Y-55190533D02*
X108119047Y-55333390D01*
X108119047Y-55333390D02*
X107547619Y-55904819D01*
X107547619Y-55904819D02*
X108166666Y-55904819D01*
X103238095Y-36904819D02*
X103809523Y-36904819D01*
X103523809Y-37904819D02*
X103523809Y-36904819D01*
X104142857Y-37904819D02*
X104142857Y-36904819D01*
X104142857Y-36904819D02*
X104523809Y-36904819D01*
X104523809Y-36904819D02*
X104619047Y-36952438D01*
X104619047Y-36952438D02*
X104666666Y-37000057D01*
X104666666Y-37000057D02*
X104714285Y-37095295D01*
X104714285Y-37095295D02*
X104714285Y-37238152D01*
X104714285Y-37238152D02*
X104666666Y-37333390D01*
X104666666Y-37333390D02*
X104619047Y-37381009D01*
X104619047Y-37381009D02*
X104523809Y-37428628D01*
X104523809Y-37428628D02*
X104142857Y-37428628D01*
X105666666Y-37904819D02*
X105095238Y-37904819D01*
X105380952Y-37904819D02*
X105380952Y-36904819D01*
X105380952Y-36904819D02*
X105285714Y-37047676D01*
X105285714Y-37047676D02*
X105190476Y-37142914D01*
X105190476Y-37142914D02*
X105095238Y-37190533D01*
X106438095Y-52154819D02*
X106438095Y-52964342D01*
X106438095Y-52964342D02*
X106485714Y-53059580D01*
X106485714Y-53059580D02*
X106533333Y-53107200D01*
X106533333Y-53107200D02*
X106628571Y-53154819D01*
X106628571Y-53154819D02*
X106819047Y-53154819D01*
X106819047Y-53154819D02*
X106914285Y-53107200D01*
X106914285Y-53107200D02*
X106961904Y-53059580D01*
X106961904Y-53059580D02*
X107009523Y-52964342D01*
X107009523Y-52964342D02*
X107009523Y-52154819D01*
X107914285Y-52488152D02*
X107914285Y-53154819D01*
X107676190Y-52107200D02*
X107438095Y-52821485D01*
X107438095Y-52821485D02*
X108057142Y-52821485D01*
X117454819Y-59711904D02*
X118264342Y-59711904D01*
X118264342Y-59711904D02*
X118359580Y-59664285D01*
X118359580Y-59664285D02*
X118407200Y-59616666D01*
X118407200Y-59616666D02*
X118454819Y-59521428D01*
X118454819Y-59521428D02*
X118454819Y-59330952D01*
X118454819Y-59330952D02*
X118407200Y-59235714D01*
X118407200Y-59235714D02*
X118359580Y-59188095D01*
X118359580Y-59188095D02*
X118264342Y-59140476D01*
X118264342Y-59140476D02*
X117454819Y-59140476D01*
X118454819Y-58140476D02*
X118454819Y-58711904D01*
X118454819Y-58426190D02*
X117454819Y-58426190D01*
X117454819Y-58426190D02*
X117597676Y-58521428D01*
X117597676Y-58521428D02*
X117692914Y-58616666D01*
X117692914Y-58616666D02*
X117740533Y-58711904D01*
X111354819Y-48713094D02*
X110354819Y-48713094D01*
X110354819Y-48713094D02*
X110354819Y-48474999D01*
X110354819Y-48474999D02*
X110402438Y-48332142D01*
X110402438Y-48332142D02*
X110497676Y-48236904D01*
X110497676Y-48236904D02*
X110592914Y-48189285D01*
X110592914Y-48189285D02*
X110783390Y-48141666D01*
X110783390Y-48141666D02*
X110926247Y-48141666D01*
X110926247Y-48141666D02*
X111116723Y-48189285D01*
X111116723Y-48189285D02*
X111211961Y-48236904D01*
X111211961Y-48236904D02*
X111307200Y-48332142D01*
X111307200Y-48332142D02*
X111354819Y-48474999D01*
X111354819Y-48474999D02*
X111354819Y-48713094D01*
X111354819Y-47189285D02*
X111354819Y-47760713D01*
X111354819Y-47474999D02*
X110354819Y-47474999D01*
X110354819Y-47474999D02*
X110497676Y-47570237D01*
X110497676Y-47570237D02*
X110592914Y-47665475D01*
X110592914Y-47665475D02*
X110640533Y-47760713D01*
X106166666Y-61129819D02*
X106166666Y-61844104D01*
X106166666Y-61844104D02*
X106119047Y-61986961D01*
X106119047Y-61986961D02*
X106023809Y-62082200D01*
X106023809Y-62082200D02*
X105880952Y-62129819D01*
X105880952Y-62129819D02*
X105785714Y-62129819D01*
X107119047Y-61129819D02*
X106642857Y-61129819D01*
X106642857Y-61129819D02*
X106595238Y-61606009D01*
X106595238Y-61606009D02*
X106642857Y-61558390D01*
X106642857Y-61558390D02*
X106738095Y-61510771D01*
X106738095Y-61510771D02*
X106976190Y-61510771D01*
X106976190Y-61510771D02*
X107071428Y-61558390D01*
X107071428Y-61558390D02*
X107119047Y-61606009D01*
X107119047Y-61606009D02*
X107166666Y-61701247D01*
X107166666Y-61701247D02*
X107166666Y-61939342D01*
X107166666Y-61939342D02*
X107119047Y-62034580D01*
X107119047Y-62034580D02*
X107071428Y-62082200D01*
X107071428Y-62082200D02*
X106976190Y-62129819D01*
X106976190Y-62129819D02*
X106738095Y-62129819D01*
X106738095Y-62129819D02*
X106642857Y-62082200D01*
X106642857Y-62082200D02*
X106595238Y-62034580D01*
X106116666Y-49904819D02*
X106116666Y-50619104D01*
X106116666Y-50619104D02*
X106069047Y-50761961D01*
X106069047Y-50761961D02*
X105973809Y-50857200D01*
X105973809Y-50857200D02*
X105830952Y-50904819D01*
X105830952Y-50904819D02*
X105735714Y-50904819D01*
X107021428Y-50238152D02*
X107021428Y-50904819D01*
X106783333Y-49857200D02*
X106545238Y-50571485D01*
X106545238Y-50571485D02*
X107164285Y-50571485D01*
X114216666Y-44404819D02*
X114216666Y-45119104D01*
X114216666Y-45119104D02*
X114169047Y-45261961D01*
X114169047Y-45261961D02*
X114073809Y-45357200D01*
X114073809Y-45357200D02*
X113930952Y-45404819D01*
X113930952Y-45404819D02*
X113835714Y-45404819D01*
X115216666Y-45404819D02*
X114645238Y-45404819D01*
X114930952Y-45404819D02*
X114930952Y-44404819D01*
X114930952Y-44404819D02*
X114835714Y-44547676D01*
X114835714Y-44547676D02*
X114740476Y-44642914D01*
X114740476Y-44642914D02*
X114645238Y-44690533D01*
X113666666Y-61129819D02*
X113666666Y-61844104D01*
X113666666Y-61844104D02*
X113619047Y-61986961D01*
X113619047Y-61986961D02*
X113523809Y-62082200D01*
X113523809Y-62082200D02*
X113380952Y-62129819D01*
X113380952Y-62129819D02*
X113285714Y-62129819D01*
X114095238Y-61225057D02*
X114142857Y-61177438D01*
X114142857Y-61177438D02*
X114238095Y-61129819D01*
X114238095Y-61129819D02*
X114476190Y-61129819D01*
X114476190Y-61129819D02*
X114571428Y-61177438D01*
X114571428Y-61177438D02*
X114619047Y-61225057D01*
X114619047Y-61225057D02*
X114666666Y-61320295D01*
X114666666Y-61320295D02*
X114666666Y-61415533D01*
X114666666Y-61415533D02*
X114619047Y-61558390D01*
X114619047Y-61558390D02*
X114047619Y-62129819D01*
X114047619Y-62129819D02*
X114666666Y-62129819D01*
D11*
%TO.C,U4*%
X105650000Y-50140000D02*
X103800000Y-50140000D01*
X105650000Y-55260000D02*
X103800000Y-55260000D01*
X108750000Y-50140000D02*
X110600000Y-50140000D01*
X108750000Y-55260000D02*
X110600000Y-55260000D01*
%TO.C,U1*%
X112140000Y-60310000D02*
X112140000Y-57590000D01*
X113120000Y-60310000D02*
X112140000Y-60310000D01*
X115880000Y-60310000D02*
X116860000Y-60310000D01*
X116860000Y-57730000D02*
X116860000Y-60310000D01*
X117040000Y-57420000D02*
X116710000Y-57180000D01*
X117040000Y-56940000D01*
X117040000Y-57420000D01*
G36*
X117040000Y-57420000D02*
G01*
X116710000Y-57180000D01*
X117040000Y-56940000D01*
X117040000Y-57420000D01*
G37*
%TO.C,C3*%
X113959420Y-53490000D02*
X114240580Y-53490000D01*
X113959420Y-54510000D02*
X114240580Y-54510000D01*
%TO.C,D1*%
X111990000Y-45675000D02*
X111990000Y-50975000D01*
X117200000Y-45675000D02*
X117200000Y-50275000D01*
X111990000Y-51755000D02*
X111710000Y-51475000D01*
X111990000Y-51475000D01*
X111990000Y-51755000D01*
G36*
X111990000Y-51755000D02*
G01*
X111710000Y-51475000D01*
X111990000Y-51475000D01*
X111990000Y-51755000D01*
G37*
%TO.C,J5*%
X102490000Y-63765000D02*
X103940000Y-63765000D01*
X102490000Y-65515000D02*
X102490000Y-63765000D01*
X102490000Y-67735000D02*
X102490000Y-68285000D01*
X102490000Y-68285000D02*
X110510000Y-68285000D01*
X103940000Y-63765000D02*
X103940000Y-62875000D01*
X110510000Y-63765000D02*
X109060000Y-63765000D01*
X110510000Y-65515000D02*
X110510000Y-63765000D01*
X110510000Y-68285000D02*
X110510000Y-67735000D01*
%TO.C,J4*%
X103940000Y-43840000D02*
X103940000Y-44390000D01*
X103940000Y-46610000D02*
X103940000Y-48360000D01*
X103940000Y-48360000D02*
X105390000Y-48360000D01*
X107510000Y-48360000D02*
X107510000Y-49250000D01*
X108960000Y-43840000D02*
X103940000Y-43840000D01*
X108960000Y-44390000D02*
X108960000Y-43840000D01*
X108960000Y-46610000D02*
X108960000Y-48360000D01*
X108960000Y-48360000D02*
X107510000Y-48360000D01*
%TO.C,J1*%
X112040000Y-38340000D02*
X112040000Y-38890000D01*
X112040000Y-41110000D02*
X112040000Y-42860000D01*
X112040000Y-42860000D02*
X113490000Y-42860000D01*
X115610000Y-42860000D02*
X115610000Y-43750000D01*
X117060000Y-38340000D02*
X112040000Y-38340000D01*
X117060000Y-38890000D02*
X117060000Y-38340000D01*
X117060000Y-41110000D02*
X117060000Y-42860000D01*
X117060000Y-42860000D02*
X115610000Y-42860000D01*
%TO.C,J2*%
X111490000Y-63765000D02*
X112940000Y-63765000D01*
X111490000Y-65515000D02*
X111490000Y-63765000D01*
X111490000Y-67735000D02*
X111490000Y-68285000D01*
X111490000Y-68285000D02*
X116510000Y-68285000D01*
X112940000Y-63765000D02*
X112940000Y-62875000D01*
X116510000Y-63765000D02*
X115060000Y-63765000D01*
X116510000Y-65515000D02*
X116510000Y-63765000D01*
X116510000Y-68285000D02*
X116510000Y-67735000D01*
%TO.C,C18*%
X115990000Y-53415580D02*
X115990000Y-53134420D01*
X117010000Y-53415580D02*
X117010000Y-53134420D01*
%TO.C,C17*%
X113959420Y-51990000D02*
X114240580Y-51990000D01*
X113959420Y-53010000D02*
X114240580Y-53010000D01*
%TD*%
%LPC*%
D12*
%TO.C,TP2*%
X107000000Y-58500000D03*
%TD*%
%TO.C,TP1*%
X104500000Y-40500000D03*
%TD*%
D13*
%TO.C,U4*%
X109675000Y-54605000D03*
X109675000Y-53335000D03*
X109675000Y-52065000D03*
X109675000Y-50795000D03*
X104725000Y-50795000D03*
X104725000Y-52065000D03*
X104725000Y-53335000D03*
X104725000Y-54605000D03*
D14*
X107200000Y-52700000D03*
%TD*%
D15*
%TO.C,U1*%
X116000000Y-57000000D03*
D16*
X114500000Y-57087500D03*
D15*
X113000000Y-57000000D03*
%TD*%
D17*
%TO.C,C3*%
X113325000Y-54000000D03*
X114875000Y-54000000D03*
%TD*%
D18*
%TO.C,D1*%
X112600000Y-50950000D03*
X116600000Y-50950000D03*
X116600000Y-45000000D03*
X112600000Y-45000000D03*
%TD*%
D19*
%TO.C,J5*%
X104500000Y-63500000D03*
X105500000Y-63500000D03*
X106500000Y-63500000D03*
X107500000Y-63500000D03*
X108500000Y-63500000D03*
D20*
X103050000Y-66625000D03*
X109950000Y-66625000D03*
%TD*%
D21*
%TO.C,J4*%
X106950000Y-48625000D03*
X105950000Y-48625000D03*
D22*
X108400000Y-45500000D03*
X104500000Y-45500000D03*
%TD*%
D21*
%TO.C,J1*%
X115050000Y-43125000D03*
X114050000Y-43125000D03*
D22*
X116500000Y-40000000D03*
X112600000Y-40000000D03*
%TD*%
D19*
%TO.C,J2*%
X113500000Y-63500000D03*
X114500000Y-63500000D03*
D20*
X112050000Y-66625000D03*
X115950000Y-66625000D03*
%TD*%
D23*
%TO.C,C18*%
X116500000Y-54050000D03*
X116500000Y-52500000D03*
%TD*%
D17*
%TO.C,C17*%
X113325000Y-52500000D03*
X114875000Y-52500000D03*
%TD*%
%LPD*%
M02*
