%TF.GenerationSoftware,KiCad,Pcbnew,9.0.2*%
%TF.CreationDate,2025-07-27T20:23:47+02:00*%
%TF.ProjectId,ldo,6c646f2e-6b69-4636-9164-5f7063625858,rev?*%
%TF.SameCoordinates,Original*%
%TF.FileFunction,Legend,Top*%
%TF.FilePolarity,Positive*%
%FSLAX46Y46*%
G04 Gerber Fmt 4.6, Leading zero omitted, Abs format (unit mm)*
G04 Created by KiCad (PCBNEW 9.0.2) date 2025-07-27 20:23:47*
%MOMM*%
%LPD*%
G01*
G04 APERTURE LIST*
G04 Aperture macros list*
%AMRoundRect*
0 Rectangle with rounded corners*
0 $1 Rounding radius*
0 $2 $3 $4 $5 $6 $7 $8 $9 X,Y pos of 4 corners*
0 Add a 4 corners polygon primitive as box body*
4,1,4,$2,$3,$4,$5,$6,$7,$8,$9,$2,$3,0*
0 Add four circle primitives for the rounded corners*
1,1,$1+$1,$2,$3*
1,1,$1+$1,$4,$5*
1,1,$1+$1,$6,$7*
1,1,$1+$1,$8,$9*
0 Add four rect primitives between the rounded corners*
20,1,$1+$1,$2,$3,$4,$5,0*
20,1,$1+$1,$4,$5,$6,$7,0*
20,1,$1+$1,$6,$7,$8,$9,0*
20,1,$1+$1,$8,$9,$2,$3,0*%
%AMFreePoly0*
4,1,9,3.862500,-0.866500,0.737500,-0.866500,0.737500,-0.450000,-0.737500,-0.450000,-0.737500,0.450000,0.737500,0.450000,0.737500,0.866500,3.862500,0.866500,3.862500,-0.866500,3.862500,-0.866500,$1*%
G04 Aperture macros list end*
%ADD10C,0.150000*%
%ADD11C,0.120000*%
%ADD12RoundRect,0.225000X0.250000X-0.225000X0.250000X0.225000X-0.250000X0.225000X-0.250000X-0.225000X0*%
%ADD13RoundRect,0.150000X0.825000X0.150000X-0.825000X0.150000X-0.825000X-0.150000X0.825000X-0.150000X0*%
%ADD14R,2.410000X3.300000*%
%ADD15R,1.500000X1.500000*%
%ADD16RoundRect,0.135000X-0.135000X-0.185000X0.135000X-0.185000X0.135000X0.185000X-0.135000X0.185000X0*%
%ADD17RoundRect,0.135000X-0.185000X0.135000X-0.185000X-0.135000X0.185000X-0.135000X0.185000X0.135000X0*%
%ADD18RoundRect,0.135000X0.185000X-0.135000X0.185000X0.135000X-0.185000X0.135000X-0.185000X-0.135000X0*%
%ADD19RoundRect,0.135000X0.135000X0.185000X-0.135000X0.185000X-0.135000X-0.185000X0.135000X-0.185000X0*%
%ADD20RoundRect,0.225000X-0.250000X0.225000X-0.250000X-0.225000X0.250000X-0.225000X0.250000X0.225000X0*%
%ADD21RoundRect,0.225000X-0.425000X-0.225000X0.425000X-0.225000X0.425000X0.225000X-0.425000X0.225000X0*%
%ADD22FreePoly0,0.000000*%
%ADD23R,1.000000X0.700000*%
%ADD24RoundRect,0.159000X-0.189000X0.159000X-0.189000X-0.159000X0.189000X-0.159000X0.189000X0.159000X0*%
G04 APERTURE END LIST*
D10*
X81929580Y-46391666D02*
X81977200Y-46439285D01*
X81977200Y-46439285D02*
X82024819Y-46582142D01*
X82024819Y-46582142D02*
X82024819Y-46677380D01*
X82024819Y-46677380D02*
X81977200Y-46820237D01*
X81977200Y-46820237D02*
X81881961Y-46915475D01*
X81881961Y-46915475D02*
X81786723Y-46963094D01*
X81786723Y-46963094D02*
X81596247Y-47010713D01*
X81596247Y-47010713D02*
X81453390Y-47010713D01*
X81453390Y-47010713D02*
X81262914Y-46963094D01*
X81262914Y-46963094D02*
X81167676Y-46915475D01*
X81167676Y-46915475D02*
X81072438Y-46820237D01*
X81072438Y-46820237D02*
X81024819Y-46677380D01*
X81024819Y-46677380D02*
X81024819Y-46582142D01*
X81024819Y-46582142D02*
X81072438Y-46439285D01*
X81072438Y-46439285D02*
X81120057Y-46391666D01*
X81024819Y-46058332D02*
X81024819Y-45439285D01*
X81024819Y-45439285D02*
X81405771Y-45772618D01*
X81405771Y-45772618D02*
X81405771Y-45629761D01*
X81405771Y-45629761D02*
X81453390Y-45534523D01*
X81453390Y-45534523D02*
X81501009Y-45486904D01*
X81501009Y-45486904D02*
X81596247Y-45439285D01*
X81596247Y-45439285D02*
X81834342Y-45439285D01*
X81834342Y-45439285D02*
X81929580Y-45486904D01*
X81929580Y-45486904D02*
X81977200Y-45534523D01*
X81977200Y-45534523D02*
X82024819Y-45629761D01*
X82024819Y-45629761D02*
X82024819Y-45915475D01*
X82024819Y-45915475D02*
X81977200Y-46010713D01*
X81977200Y-46010713D02*
X81929580Y-46058332D01*
X90238095Y-65454819D02*
X90238095Y-66264342D01*
X90238095Y-66264342D02*
X90285714Y-66359580D01*
X90285714Y-66359580D02*
X90333333Y-66407200D01*
X90333333Y-66407200D02*
X90428571Y-66454819D01*
X90428571Y-66454819D02*
X90619047Y-66454819D01*
X90619047Y-66454819D02*
X90714285Y-66407200D01*
X90714285Y-66407200D02*
X90761904Y-66359580D01*
X90761904Y-66359580D02*
X90809523Y-66264342D01*
X90809523Y-66264342D02*
X90809523Y-65454819D01*
X91714285Y-65788152D02*
X91714285Y-66454819D01*
X91476190Y-65407200D02*
X91238095Y-66121485D01*
X91238095Y-66121485D02*
X91857142Y-66121485D01*
X88404761Y-55759200D02*
X88309523Y-55806819D01*
X88309523Y-55806819D02*
X88119047Y-55806819D01*
X88119047Y-55806819D02*
X88023809Y-55759200D01*
X88023809Y-55759200D02*
X87976190Y-55711580D01*
X87976190Y-55711580D02*
X87928571Y-55616342D01*
X87928571Y-55616342D02*
X87928571Y-55330628D01*
X87928571Y-55330628D02*
X87976190Y-55235390D01*
X87976190Y-55235390D02*
X88023809Y-55187771D01*
X88023809Y-55187771D02*
X88119047Y-55140152D01*
X88119047Y-55140152D02*
X88309523Y-55140152D01*
X88309523Y-55140152D02*
X88404761Y-55187771D01*
X88690476Y-55140152D02*
X89071428Y-55140152D01*
X88833333Y-54806819D02*
X88833333Y-55663961D01*
X88833333Y-55663961D02*
X88880952Y-55759200D01*
X88880952Y-55759200D02*
X88976190Y-55806819D01*
X88976190Y-55806819D02*
X89071428Y-55806819D01*
X89404762Y-55806819D02*
X89404762Y-55140152D01*
X89404762Y-55330628D02*
X89452381Y-55235390D01*
X89452381Y-55235390D02*
X89500000Y-55187771D01*
X89500000Y-55187771D02*
X89595238Y-55140152D01*
X89595238Y-55140152D02*
X89690476Y-55140152D01*
X90166667Y-55806819D02*
X90071429Y-55759200D01*
X90071429Y-55759200D02*
X90023810Y-55663961D01*
X90023810Y-55663961D02*
X90023810Y-54806819D01*
X90500001Y-54902057D02*
X90547620Y-54854438D01*
X90547620Y-54854438D02*
X90642858Y-54806819D01*
X90642858Y-54806819D02*
X90880953Y-54806819D01*
X90880953Y-54806819D02*
X90976191Y-54854438D01*
X90976191Y-54854438D02*
X91023810Y-54902057D01*
X91023810Y-54902057D02*
X91071429Y-54997295D01*
X91071429Y-54997295D02*
X91071429Y-55092533D01*
X91071429Y-55092533D02*
X91023810Y-55235390D01*
X91023810Y-55235390D02*
X90452382Y-55806819D01*
X90452382Y-55806819D02*
X91071429Y-55806819D01*
X95952381Y-55806819D02*
X95857143Y-55759200D01*
X95857143Y-55759200D02*
X95809524Y-55711580D01*
X95809524Y-55711580D02*
X95761905Y-55616342D01*
X95761905Y-55616342D02*
X95761905Y-55330628D01*
X95761905Y-55330628D02*
X95809524Y-55235390D01*
X95809524Y-55235390D02*
X95857143Y-55187771D01*
X95857143Y-55187771D02*
X95952381Y-55140152D01*
X95952381Y-55140152D02*
X96095238Y-55140152D01*
X96095238Y-55140152D02*
X96190476Y-55187771D01*
X96190476Y-55187771D02*
X96238095Y-55235390D01*
X96238095Y-55235390D02*
X96285714Y-55330628D01*
X96285714Y-55330628D02*
X96285714Y-55616342D01*
X96285714Y-55616342D02*
X96238095Y-55711580D01*
X96238095Y-55711580D02*
X96190476Y-55759200D01*
X96190476Y-55759200D02*
X96095238Y-55806819D01*
X96095238Y-55806819D02*
X95952381Y-55806819D01*
X97238095Y-55806819D02*
X96666667Y-55806819D01*
X96952381Y-55806819D02*
X96952381Y-54806819D01*
X96952381Y-54806819D02*
X96857143Y-54949676D01*
X96857143Y-54949676D02*
X96761905Y-55044914D01*
X96761905Y-55044914D02*
X96666667Y-55092533D01*
X84023810Y-58806819D02*
X84023810Y-58140152D01*
X84023810Y-57806819D02*
X83976191Y-57854438D01*
X83976191Y-57854438D02*
X84023810Y-57902057D01*
X84023810Y-57902057D02*
X84071429Y-57854438D01*
X84071429Y-57854438D02*
X84023810Y-57806819D01*
X84023810Y-57806819D02*
X84023810Y-57902057D01*
X85023809Y-58806819D02*
X84452381Y-58806819D01*
X84738095Y-58806819D02*
X84738095Y-57806819D01*
X84738095Y-57806819D02*
X84642857Y-57949676D01*
X84642857Y-57949676D02*
X84547619Y-58044914D01*
X84547619Y-58044914D02*
X84452381Y-58092533D01*
X96904761Y-58259200D02*
X96809523Y-58306819D01*
X96809523Y-58306819D02*
X96619047Y-58306819D01*
X96619047Y-58306819D02*
X96523809Y-58259200D01*
X96523809Y-58259200D02*
X96476190Y-58211580D01*
X96476190Y-58211580D02*
X96428571Y-58116342D01*
X96428571Y-58116342D02*
X96428571Y-57830628D01*
X96428571Y-57830628D02*
X96476190Y-57735390D01*
X96476190Y-57735390D02*
X96523809Y-57687771D01*
X96523809Y-57687771D02*
X96619047Y-57640152D01*
X96619047Y-57640152D02*
X96809523Y-57640152D01*
X96809523Y-57640152D02*
X96904761Y-57687771D01*
X97190476Y-57640152D02*
X97571428Y-57640152D01*
X97333333Y-57306819D02*
X97333333Y-58163961D01*
X97333333Y-58163961D02*
X97380952Y-58259200D01*
X97380952Y-58259200D02*
X97476190Y-58306819D01*
X97476190Y-58306819D02*
X97571428Y-58306819D01*
X97904762Y-58306819D02*
X97904762Y-57640152D01*
X97904762Y-57830628D02*
X97952381Y-57735390D01*
X97952381Y-57735390D02*
X98000000Y-57687771D01*
X98000000Y-57687771D02*
X98095238Y-57640152D01*
X98095238Y-57640152D02*
X98190476Y-57640152D01*
X98666667Y-58306819D02*
X98571429Y-58259200D01*
X98571429Y-58259200D02*
X98523810Y-58163961D01*
X98523810Y-58163961D02*
X98523810Y-57306819D01*
X99571429Y-58306819D02*
X99000001Y-58306819D01*
X99285715Y-58306819D02*
X99285715Y-57306819D01*
X99285715Y-57306819D02*
X99190477Y-57449676D01*
X99190477Y-57449676D02*
X99095239Y-57544914D01*
X99095239Y-57544914D02*
X99000001Y-57592533D01*
X83952381Y-55306819D02*
X83857143Y-55259200D01*
X83857143Y-55259200D02*
X83809524Y-55211580D01*
X83809524Y-55211580D02*
X83761905Y-55116342D01*
X83761905Y-55116342D02*
X83761905Y-54830628D01*
X83761905Y-54830628D02*
X83809524Y-54735390D01*
X83809524Y-54735390D02*
X83857143Y-54687771D01*
X83857143Y-54687771D02*
X83952381Y-54640152D01*
X83952381Y-54640152D02*
X84095238Y-54640152D01*
X84095238Y-54640152D02*
X84190476Y-54687771D01*
X84190476Y-54687771D02*
X84238095Y-54735390D01*
X84238095Y-54735390D02*
X84285714Y-54830628D01*
X84285714Y-54830628D02*
X84285714Y-55116342D01*
X84285714Y-55116342D02*
X84238095Y-55211580D01*
X84238095Y-55211580D02*
X84190476Y-55259200D01*
X84190476Y-55259200D02*
X84095238Y-55306819D01*
X84095238Y-55306819D02*
X83952381Y-55306819D01*
X84666667Y-54402057D02*
X84714286Y-54354438D01*
X84714286Y-54354438D02*
X84809524Y-54306819D01*
X84809524Y-54306819D02*
X85047619Y-54306819D01*
X85047619Y-54306819D02*
X85142857Y-54354438D01*
X85142857Y-54354438D02*
X85190476Y-54402057D01*
X85190476Y-54402057D02*
X85238095Y-54497295D01*
X85238095Y-54497295D02*
X85238095Y-54592533D01*
X85238095Y-54592533D02*
X85190476Y-54735390D01*
X85190476Y-54735390D02*
X84619048Y-55306819D01*
X84619048Y-55306819D02*
X85238095Y-55306819D01*
X84023810Y-61806819D02*
X84023810Y-61140152D01*
X84023810Y-60806819D02*
X83976191Y-60854438D01*
X83976191Y-60854438D02*
X84023810Y-60902057D01*
X84023810Y-60902057D02*
X84071429Y-60854438D01*
X84071429Y-60854438D02*
X84023810Y-60806819D01*
X84023810Y-60806819D02*
X84023810Y-60902057D01*
X84452381Y-60902057D02*
X84500000Y-60854438D01*
X84500000Y-60854438D02*
X84595238Y-60806819D01*
X84595238Y-60806819D02*
X84833333Y-60806819D01*
X84833333Y-60806819D02*
X84928571Y-60854438D01*
X84928571Y-60854438D02*
X84976190Y-60902057D01*
X84976190Y-60902057D02*
X85023809Y-60997295D01*
X85023809Y-60997295D02*
X85023809Y-61092533D01*
X85023809Y-61092533D02*
X84976190Y-61235390D01*
X84976190Y-61235390D02*
X84404762Y-61806819D01*
X84404762Y-61806819D02*
X85023809Y-61806819D01*
X86367142Y-55284819D02*
X86033809Y-54808628D01*
X85795714Y-55284819D02*
X85795714Y-54284819D01*
X85795714Y-54284819D02*
X86176666Y-54284819D01*
X86176666Y-54284819D02*
X86271904Y-54332438D01*
X86271904Y-54332438D02*
X86319523Y-54380057D01*
X86319523Y-54380057D02*
X86367142Y-54475295D01*
X86367142Y-54475295D02*
X86367142Y-54618152D01*
X86367142Y-54618152D02*
X86319523Y-54713390D01*
X86319523Y-54713390D02*
X86271904Y-54761009D01*
X86271904Y-54761009D02*
X86176666Y-54808628D01*
X86176666Y-54808628D02*
X85795714Y-54808628D01*
X87319523Y-55284819D02*
X86748095Y-55284819D01*
X87033809Y-55284819D02*
X87033809Y-54284819D01*
X87033809Y-54284819D02*
X86938571Y-54427676D01*
X86938571Y-54427676D02*
X86843333Y-54522914D01*
X86843333Y-54522914D02*
X86748095Y-54570533D01*
X88224285Y-54284819D02*
X87748095Y-54284819D01*
X87748095Y-54284819D02*
X87700476Y-54761009D01*
X87700476Y-54761009D02*
X87748095Y-54713390D01*
X87748095Y-54713390D02*
X87843333Y-54665771D01*
X87843333Y-54665771D02*
X88081428Y-54665771D01*
X88081428Y-54665771D02*
X88176666Y-54713390D01*
X88176666Y-54713390D02*
X88224285Y-54761009D01*
X88224285Y-54761009D02*
X88271904Y-54856247D01*
X88271904Y-54856247D02*
X88271904Y-55094342D01*
X88271904Y-55094342D02*
X88224285Y-55189580D01*
X88224285Y-55189580D02*
X88176666Y-55237200D01*
X88176666Y-55237200D02*
X88081428Y-55284819D01*
X88081428Y-55284819D02*
X87843333Y-55284819D01*
X87843333Y-55284819D02*
X87748095Y-55237200D01*
X87748095Y-55237200D02*
X87700476Y-55189580D01*
X89124819Y-58152857D02*
X88648628Y-58486190D01*
X89124819Y-58724285D02*
X88124819Y-58724285D01*
X88124819Y-58724285D02*
X88124819Y-58343333D01*
X88124819Y-58343333D02*
X88172438Y-58248095D01*
X88172438Y-58248095D02*
X88220057Y-58200476D01*
X88220057Y-58200476D02*
X88315295Y-58152857D01*
X88315295Y-58152857D02*
X88458152Y-58152857D01*
X88458152Y-58152857D02*
X88553390Y-58200476D01*
X88553390Y-58200476D02*
X88601009Y-58248095D01*
X88601009Y-58248095D02*
X88648628Y-58343333D01*
X88648628Y-58343333D02*
X88648628Y-58724285D01*
X89124819Y-57200476D02*
X89124819Y-57771904D01*
X89124819Y-57486190D02*
X88124819Y-57486190D01*
X88124819Y-57486190D02*
X88267676Y-57581428D01*
X88267676Y-57581428D02*
X88362914Y-57676666D01*
X88362914Y-57676666D02*
X88410533Y-57771904D01*
X88458152Y-56343333D02*
X89124819Y-56343333D01*
X88077200Y-56581428D02*
X88791485Y-56819523D01*
X88791485Y-56819523D02*
X88791485Y-56200476D01*
X96784819Y-62652857D02*
X96308628Y-62986190D01*
X96784819Y-63224285D02*
X95784819Y-63224285D01*
X95784819Y-63224285D02*
X95784819Y-62843333D01*
X95784819Y-62843333D02*
X95832438Y-62748095D01*
X95832438Y-62748095D02*
X95880057Y-62700476D01*
X95880057Y-62700476D02*
X95975295Y-62652857D01*
X95975295Y-62652857D02*
X96118152Y-62652857D01*
X96118152Y-62652857D02*
X96213390Y-62700476D01*
X96213390Y-62700476D02*
X96261009Y-62748095D01*
X96261009Y-62748095D02*
X96308628Y-62843333D01*
X96308628Y-62843333D02*
X96308628Y-63224285D01*
X96784819Y-61700476D02*
X96784819Y-62271904D01*
X96784819Y-61986190D02*
X95784819Y-61986190D01*
X95784819Y-61986190D02*
X95927676Y-62081428D01*
X95927676Y-62081428D02*
X96022914Y-62176666D01*
X96022914Y-62176666D02*
X96070533Y-62271904D01*
X95784819Y-61367142D02*
X95784819Y-60748095D01*
X95784819Y-60748095D02*
X96165771Y-61081428D01*
X96165771Y-61081428D02*
X96165771Y-60938571D01*
X96165771Y-60938571D02*
X96213390Y-60843333D01*
X96213390Y-60843333D02*
X96261009Y-60795714D01*
X96261009Y-60795714D02*
X96356247Y-60748095D01*
X96356247Y-60748095D02*
X96594342Y-60748095D01*
X96594342Y-60748095D02*
X96689580Y-60795714D01*
X96689580Y-60795714D02*
X96737200Y-60843333D01*
X96737200Y-60843333D02*
X96784819Y-60938571D01*
X96784819Y-60938571D02*
X96784819Y-61224285D01*
X96784819Y-61224285D02*
X96737200Y-61319523D01*
X96737200Y-61319523D02*
X96689580Y-61367142D01*
X94857142Y-61124819D02*
X94523809Y-60648628D01*
X94285714Y-61124819D02*
X94285714Y-60124819D01*
X94285714Y-60124819D02*
X94666666Y-60124819D01*
X94666666Y-60124819D02*
X94761904Y-60172438D01*
X94761904Y-60172438D02*
X94809523Y-60220057D01*
X94809523Y-60220057D02*
X94857142Y-60315295D01*
X94857142Y-60315295D02*
X94857142Y-60458152D01*
X94857142Y-60458152D02*
X94809523Y-60553390D01*
X94809523Y-60553390D02*
X94761904Y-60601009D01*
X94761904Y-60601009D02*
X94666666Y-60648628D01*
X94666666Y-60648628D02*
X94285714Y-60648628D01*
X95809523Y-61124819D02*
X95238095Y-61124819D01*
X95523809Y-61124819D02*
X95523809Y-60124819D01*
X95523809Y-60124819D02*
X95428571Y-60267676D01*
X95428571Y-60267676D02*
X95333333Y-60362914D01*
X95333333Y-60362914D02*
X95238095Y-60410533D01*
X96190476Y-60220057D02*
X96238095Y-60172438D01*
X96238095Y-60172438D02*
X96333333Y-60124819D01*
X96333333Y-60124819D02*
X96571428Y-60124819D01*
X96571428Y-60124819D02*
X96666666Y-60172438D01*
X96666666Y-60172438D02*
X96714285Y-60220057D01*
X96714285Y-60220057D02*
X96761904Y-60315295D01*
X96761904Y-60315295D02*
X96761904Y-60410533D01*
X96761904Y-60410533D02*
X96714285Y-60553390D01*
X96714285Y-60553390D02*
X96142857Y-61124819D01*
X96142857Y-61124819D02*
X96761904Y-61124819D01*
X93429580Y-45917857D02*
X93477200Y-45965476D01*
X93477200Y-45965476D02*
X93524819Y-46108333D01*
X93524819Y-46108333D02*
X93524819Y-46203571D01*
X93524819Y-46203571D02*
X93477200Y-46346428D01*
X93477200Y-46346428D02*
X93381961Y-46441666D01*
X93381961Y-46441666D02*
X93286723Y-46489285D01*
X93286723Y-46489285D02*
X93096247Y-46536904D01*
X93096247Y-46536904D02*
X92953390Y-46536904D01*
X92953390Y-46536904D02*
X92762914Y-46489285D01*
X92762914Y-46489285D02*
X92667676Y-46441666D01*
X92667676Y-46441666D02*
X92572438Y-46346428D01*
X92572438Y-46346428D02*
X92524819Y-46203571D01*
X92524819Y-46203571D02*
X92524819Y-46108333D01*
X92524819Y-46108333D02*
X92572438Y-45965476D01*
X92572438Y-45965476D02*
X92620057Y-45917857D01*
X93524819Y-44965476D02*
X93524819Y-45536904D01*
X93524819Y-45251190D02*
X92524819Y-45251190D01*
X92524819Y-45251190D02*
X92667676Y-45346428D01*
X92667676Y-45346428D02*
X92762914Y-45441666D01*
X92762914Y-45441666D02*
X92810533Y-45536904D01*
X92953390Y-44394047D02*
X92905771Y-44489285D01*
X92905771Y-44489285D02*
X92858152Y-44536904D01*
X92858152Y-44536904D02*
X92762914Y-44584523D01*
X92762914Y-44584523D02*
X92715295Y-44584523D01*
X92715295Y-44584523D02*
X92620057Y-44536904D01*
X92620057Y-44536904D02*
X92572438Y-44489285D01*
X92572438Y-44489285D02*
X92524819Y-44394047D01*
X92524819Y-44394047D02*
X92524819Y-44203571D01*
X92524819Y-44203571D02*
X92572438Y-44108333D01*
X92572438Y-44108333D02*
X92620057Y-44060714D01*
X92620057Y-44060714D02*
X92715295Y-44013095D01*
X92715295Y-44013095D02*
X92762914Y-44013095D01*
X92762914Y-44013095D02*
X92858152Y-44060714D01*
X92858152Y-44060714D02*
X92905771Y-44108333D01*
X92905771Y-44108333D02*
X92953390Y-44203571D01*
X92953390Y-44203571D02*
X92953390Y-44394047D01*
X92953390Y-44394047D02*
X93001009Y-44489285D01*
X93001009Y-44489285D02*
X93048628Y-44536904D01*
X93048628Y-44536904D02*
X93143866Y-44584523D01*
X93143866Y-44584523D02*
X93334342Y-44584523D01*
X93334342Y-44584523D02*
X93429580Y-44536904D01*
X93429580Y-44536904D02*
X93477200Y-44489285D01*
X93477200Y-44489285D02*
X93524819Y-44394047D01*
X93524819Y-44394047D02*
X93524819Y-44203571D01*
X93524819Y-44203571D02*
X93477200Y-44108333D01*
X93477200Y-44108333D02*
X93429580Y-44060714D01*
X93429580Y-44060714D02*
X93334342Y-44013095D01*
X93334342Y-44013095D02*
X93143866Y-44013095D01*
X93143866Y-44013095D02*
X93048628Y-44060714D01*
X93048628Y-44060714D02*
X93001009Y-44108333D01*
X93001009Y-44108333D02*
X92953390Y-44203571D01*
X85289580Y-51417857D02*
X85337200Y-51465476D01*
X85337200Y-51465476D02*
X85384819Y-51608333D01*
X85384819Y-51608333D02*
X85384819Y-51703571D01*
X85384819Y-51703571D02*
X85337200Y-51846428D01*
X85337200Y-51846428D02*
X85241961Y-51941666D01*
X85241961Y-51941666D02*
X85146723Y-51989285D01*
X85146723Y-51989285D02*
X84956247Y-52036904D01*
X84956247Y-52036904D02*
X84813390Y-52036904D01*
X84813390Y-52036904D02*
X84622914Y-51989285D01*
X84622914Y-51989285D02*
X84527676Y-51941666D01*
X84527676Y-51941666D02*
X84432438Y-51846428D01*
X84432438Y-51846428D02*
X84384819Y-51703571D01*
X84384819Y-51703571D02*
X84384819Y-51608333D01*
X84384819Y-51608333D02*
X84432438Y-51465476D01*
X84432438Y-51465476D02*
X84480057Y-51417857D01*
X85384819Y-50465476D02*
X85384819Y-51036904D01*
X85384819Y-50751190D02*
X84384819Y-50751190D01*
X84384819Y-50751190D02*
X84527676Y-50846428D01*
X84527676Y-50846428D02*
X84622914Y-50941666D01*
X84622914Y-50941666D02*
X84670533Y-51036904D01*
X84384819Y-50132142D02*
X84384819Y-49465476D01*
X84384819Y-49465476D02*
X85384819Y-49894047D01*
X85238095Y-42140152D02*
X85238095Y-42949676D01*
X85238095Y-42949676D02*
X85190476Y-43044914D01*
X85190476Y-43044914D02*
X85142857Y-43092533D01*
X85142857Y-43092533D02*
X85047619Y-43140152D01*
X85047619Y-43140152D02*
X84904762Y-43140152D01*
X84904762Y-43140152D02*
X84809524Y-43092533D01*
X85238095Y-42759200D02*
X85142857Y-42806819D01*
X85142857Y-42806819D02*
X84952381Y-42806819D01*
X84952381Y-42806819D02*
X84857143Y-42759200D01*
X84857143Y-42759200D02*
X84809524Y-42711580D01*
X84809524Y-42711580D02*
X84761905Y-42616342D01*
X84761905Y-42616342D02*
X84761905Y-42330628D01*
X84761905Y-42330628D02*
X84809524Y-42235390D01*
X84809524Y-42235390D02*
X84857143Y-42187771D01*
X84857143Y-42187771D02*
X84952381Y-42140152D01*
X84952381Y-42140152D02*
X85142857Y-42140152D01*
X85142857Y-42140152D02*
X85238095Y-42187771D01*
X85666667Y-41902057D02*
X85714286Y-41854438D01*
X85714286Y-41854438D02*
X85809524Y-41806819D01*
X85809524Y-41806819D02*
X86047619Y-41806819D01*
X86047619Y-41806819D02*
X86142857Y-41854438D01*
X86142857Y-41854438D02*
X86190476Y-41902057D01*
X86190476Y-41902057D02*
X86238095Y-41997295D01*
X86238095Y-41997295D02*
X86238095Y-42092533D01*
X86238095Y-42092533D02*
X86190476Y-42235390D01*
X86190476Y-42235390D02*
X85619048Y-42806819D01*
X85619048Y-42806819D02*
X86238095Y-42806819D01*
X88238095Y-40140152D02*
X88238095Y-40949676D01*
X88238095Y-40949676D02*
X88190476Y-41044914D01*
X88190476Y-41044914D02*
X88142857Y-41092533D01*
X88142857Y-41092533D02*
X88047619Y-41140152D01*
X88047619Y-41140152D02*
X87904762Y-41140152D01*
X87904762Y-41140152D02*
X87809524Y-41092533D01*
X88238095Y-40759200D02*
X88142857Y-40806819D01*
X88142857Y-40806819D02*
X87952381Y-40806819D01*
X87952381Y-40806819D02*
X87857143Y-40759200D01*
X87857143Y-40759200D02*
X87809524Y-40711580D01*
X87809524Y-40711580D02*
X87761905Y-40616342D01*
X87761905Y-40616342D02*
X87761905Y-40330628D01*
X87761905Y-40330628D02*
X87809524Y-40235390D01*
X87809524Y-40235390D02*
X87857143Y-40187771D01*
X87857143Y-40187771D02*
X87952381Y-40140152D01*
X87952381Y-40140152D02*
X88142857Y-40140152D01*
X88142857Y-40140152D02*
X88238095Y-40187771D01*
X89238095Y-40806819D02*
X88666667Y-40806819D01*
X88952381Y-40806819D02*
X88952381Y-39806819D01*
X88952381Y-39806819D02*
X88857143Y-39949676D01*
X88857143Y-39949676D02*
X88761905Y-40044914D01*
X88761905Y-40044914D02*
X88666667Y-40092533D01*
X96785714Y-44140152D02*
X97023809Y-44806819D01*
X97023809Y-44806819D02*
X97261904Y-44140152D01*
X97547619Y-43806819D02*
X98166666Y-43806819D01*
X98166666Y-43806819D02*
X97833333Y-44187771D01*
X97833333Y-44187771D02*
X97976190Y-44187771D01*
X97976190Y-44187771D02*
X98071428Y-44235390D01*
X98071428Y-44235390D02*
X98119047Y-44283009D01*
X98119047Y-44283009D02*
X98166666Y-44378247D01*
X98166666Y-44378247D02*
X98166666Y-44616342D01*
X98166666Y-44616342D02*
X98119047Y-44711580D01*
X98119047Y-44711580D02*
X98071428Y-44759200D01*
X98071428Y-44759200D02*
X97976190Y-44806819D01*
X97976190Y-44806819D02*
X97690476Y-44806819D01*
X97690476Y-44806819D02*
X97595238Y-44759200D01*
X97595238Y-44759200D02*
X97547619Y-44711580D01*
X95523809Y-52140152D02*
X95904761Y-52140152D01*
X95666666Y-51806819D02*
X95666666Y-52663961D01*
X95666666Y-52663961D02*
X95714285Y-52759200D01*
X95714285Y-52759200D02*
X95809523Y-52806819D01*
X95809523Y-52806819D02*
X95904761Y-52806819D01*
X96238095Y-52806819D02*
X96238095Y-52140152D01*
X96238095Y-52330628D02*
X96285714Y-52235390D01*
X96285714Y-52235390D02*
X96333333Y-52187771D01*
X96333333Y-52187771D02*
X96428571Y-52140152D01*
X96428571Y-52140152D02*
X96523809Y-52140152D01*
X96809524Y-51902057D02*
X96857143Y-51854438D01*
X96857143Y-51854438D02*
X96952381Y-51806819D01*
X96952381Y-51806819D02*
X97190476Y-51806819D01*
X97190476Y-51806819D02*
X97285714Y-51854438D01*
X97285714Y-51854438D02*
X97333333Y-51902057D01*
X97333333Y-51902057D02*
X97380952Y-51997295D01*
X97380952Y-51997295D02*
X97380952Y-52092533D01*
X97380952Y-52092533D02*
X97333333Y-52235390D01*
X97333333Y-52235390D02*
X96761905Y-52806819D01*
X96761905Y-52806819D02*
X97380952Y-52806819D01*
X90238095Y-41954819D02*
X90238095Y-42764342D01*
X90238095Y-42764342D02*
X90285714Y-42859580D01*
X90285714Y-42859580D02*
X90333333Y-42907200D01*
X90333333Y-42907200D02*
X90428571Y-42954819D01*
X90428571Y-42954819D02*
X90619047Y-42954819D01*
X90619047Y-42954819D02*
X90714285Y-42907200D01*
X90714285Y-42907200D02*
X90761904Y-42859580D01*
X90761904Y-42859580D02*
X90809523Y-42764342D01*
X90809523Y-42764342D02*
X90809523Y-41954819D01*
X91809523Y-42954819D02*
X91238095Y-42954819D01*
X91523809Y-42954819D02*
X91523809Y-41954819D01*
X91523809Y-41954819D02*
X91428571Y-42097676D01*
X91428571Y-42097676D02*
X91333333Y-42192914D01*
X91333333Y-42192914D02*
X91238095Y-42240533D01*
X89236905Y-49254819D02*
X89236905Y-48254819D01*
X89236905Y-48254819D02*
X89475000Y-48254819D01*
X89475000Y-48254819D02*
X89617857Y-48302438D01*
X89617857Y-48302438D02*
X89713095Y-48397676D01*
X89713095Y-48397676D02*
X89760714Y-48492914D01*
X89760714Y-48492914D02*
X89808333Y-48683390D01*
X89808333Y-48683390D02*
X89808333Y-48826247D01*
X89808333Y-48826247D02*
X89760714Y-49016723D01*
X89760714Y-49016723D02*
X89713095Y-49111961D01*
X89713095Y-49111961D02*
X89617857Y-49207200D01*
X89617857Y-49207200D02*
X89475000Y-49254819D01*
X89475000Y-49254819D02*
X89236905Y-49254819D01*
X90760714Y-49254819D02*
X90189286Y-49254819D01*
X90475000Y-49254819D02*
X90475000Y-48254819D01*
X90475000Y-48254819D02*
X90379762Y-48397676D01*
X90379762Y-48397676D02*
X90284524Y-48492914D01*
X90284524Y-48492914D02*
X90189286Y-48540533D01*
X95523809Y-49140152D02*
X95904761Y-49140152D01*
X95666666Y-48806819D02*
X95666666Y-49663961D01*
X95666666Y-49663961D02*
X95714285Y-49759200D01*
X95714285Y-49759200D02*
X95809523Y-49806819D01*
X95809523Y-49806819D02*
X95904761Y-49806819D01*
X96238095Y-49806819D02*
X96238095Y-49140152D01*
X96238095Y-49330628D02*
X96285714Y-49235390D01*
X96285714Y-49235390D02*
X96333333Y-49187771D01*
X96333333Y-49187771D02*
X96428571Y-49140152D01*
X96428571Y-49140152D02*
X96523809Y-49140152D01*
X97380952Y-49806819D02*
X96809524Y-49806819D01*
X97095238Y-49806819D02*
X97095238Y-48806819D01*
X97095238Y-48806819D02*
X97000000Y-48949676D01*
X97000000Y-48949676D02*
X96904762Y-49044914D01*
X96904762Y-49044914D02*
X96809524Y-49092533D01*
D11*
%TO.C,C3*%
X82490000Y-46365580D02*
X82490000Y-46084420D01*
X83510000Y-46365580D02*
X83510000Y-46084420D01*
%TO.C,U4*%
X92350000Y-64260000D02*
X94200000Y-64260000D01*
X92350000Y-59140000D02*
X94200000Y-59140000D01*
X89250000Y-64260000D02*
X87400000Y-64260000D01*
X89250000Y-59140000D02*
X87400000Y-59140000D01*
%TO.C,ctrl2*%
X88550000Y-56050000D02*
X90450000Y-56050000D01*
X88550000Y-57950000D02*
X88550000Y-56050000D01*
X90450000Y-56050000D02*
X90450000Y-57950000D01*
X90450000Y-57950000D02*
X88550000Y-57950000D01*
%TO.C,o1*%
X95550000Y-56050000D02*
X97450000Y-56050000D01*
X95550000Y-57950000D02*
X95550000Y-56050000D01*
X97450000Y-56050000D02*
X97450000Y-57950000D01*
X97450000Y-57950000D02*
X95550000Y-57950000D01*
%TO.C,i1*%
X83550000Y-59050000D02*
X85450000Y-59050000D01*
X83550000Y-60950000D02*
X83550000Y-59050000D01*
X85450000Y-59050000D02*
X85450000Y-60950000D01*
X85450000Y-60950000D02*
X83550000Y-60950000D01*
%TO.C,ctrl1*%
X97050000Y-58550000D02*
X98950000Y-58550000D01*
X97050000Y-60450000D02*
X97050000Y-58550000D01*
X98950000Y-58550000D02*
X98950000Y-60450000D01*
X98950000Y-60450000D02*
X97050000Y-60450000D01*
%TO.C,o2*%
X83550000Y-55550000D02*
X85450000Y-55550000D01*
X83550000Y-57450000D02*
X83550000Y-55550000D01*
X85450000Y-55550000D02*
X85450000Y-57450000D01*
X85450000Y-57450000D02*
X83550000Y-57450000D01*
%TO.C,i2*%
X83550000Y-62050000D02*
X85450000Y-62050000D01*
X83550000Y-63950000D02*
X83550000Y-62050000D01*
X85450000Y-62050000D02*
X85450000Y-63950000D01*
X85450000Y-63950000D02*
X83550000Y-63950000D01*
%TO.C,R15*%
X86856359Y-55620000D02*
X87163641Y-55620000D01*
X86856359Y-56380000D02*
X87163641Y-56380000D01*
%TO.C,R14*%
X87880000Y-57356359D02*
X87880000Y-57663641D01*
X87120000Y-57356359D02*
X87120000Y-57663641D01*
%TO.C,R13*%
X97120000Y-62163641D02*
X97120000Y-61856359D01*
X97880000Y-62163641D02*
X97880000Y-61856359D01*
%TO.C,R12*%
X95653641Y-59880000D02*
X95346359Y-59880000D01*
X95653641Y-59120000D02*
X95346359Y-59120000D01*
%TO.C,C18*%
X93990000Y-45415580D02*
X93990000Y-45134420D01*
X95010000Y-45415580D02*
X95010000Y-45134420D01*
%TO.C,C17*%
X84010000Y-50634420D02*
X84010000Y-50915580D01*
X82990000Y-50634420D02*
X82990000Y-50915580D01*
%TO.C,g2*%
X84550000Y-43050000D02*
X86450000Y-43050000D01*
X84550000Y-44950000D02*
X84550000Y-43050000D01*
X86450000Y-43050000D02*
X86450000Y-44950000D01*
X86450000Y-44950000D02*
X84550000Y-44950000D01*
%TO.C,g1*%
X87550000Y-41050000D02*
X89450000Y-41050000D01*
X87550000Y-42950000D02*
X87550000Y-41050000D01*
X89450000Y-41050000D02*
X89450000Y-42950000D01*
X89450000Y-42950000D02*
X87550000Y-42950000D01*
%TO.C,v3*%
X96550000Y-45050000D02*
X98450000Y-45050000D01*
X96550000Y-46950000D02*
X96550000Y-45050000D01*
X98450000Y-45050000D02*
X98450000Y-46950000D01*
X98450000Y-46950000D02*
X96550000Y-46950000D01*
%TO.C,tr2*%
X95550000Y-53050000D02*
X97450000Y-53050000D01*
X95550000Y-54950000D02*
X95550000Y-53050000D01*
X97450000Y-53050000D02*
X97450000Y-54950000D01*
X97450000Y-54950000D02*
X95550000Y-54950000D01*
%TO.C,U1*%
X89780000Y-43640000D02*
X92360000Y-43640000D01*
X92360000Y-44620000D02*
X92360000Y-43640000D01*
X92360000Y-47380000D02*
X92360000Y-48360000D01*
X92360000Y-48360000D02*
X89640000Y-48360000D01*
X89230000Y-43790000D02*
X88990000Y-43460000D01*
X89470000Y-43460000D01*
X89230000Y-43790000D01*
G36*
X89230000Y-43790000D02*
G01*
X88990000Y-43460000D01*
X89470000Y-43460000D01*
X89230000Y-43790000D01*
G37*
%TO.C,D1*%
X92275000Y-49890000D02*
X86975000Y-49890000D01*
X92275000Y-55100000D02*
X87675000Y-55100000D01*
X86475000Y-49890000D02*
X86195000Y-49890000D01*
X86475000Y-49610000D01*
X86475000Y-49890000D01*
G36*
X86475000Y-49890000D02*
G01*
X86195000Y-49890000D01*
X86475000Y-49610000D01*
X86475000Y-49890000D01*
G37*
%TO.C,tr1*%
X95550000Y-50050000D02*
X97450000Y-50050000D01*
X95550000Y-51950000D02*
X95550000Y-50050000D01*
X97450000Y-50050000D02*
X97450000Y-51950000D01*
X97450000Y-51950000D02*
X95550000Y-51950000D01*
%TD*%
%LPC*%
D12*
%TO.C,C3*%
X83000000Y-47000000D03*
X83000000Y-45450000D03*
%TD*%
D13*
%TO.C,U4*%
X93275000Y-63605000D03*
X93275000Y-62335000D03*
X93275000Y-61065000D03*
X93275000Y-59795000D03*
X88325000Y-59795000D03*
X88325000Y-61065000D03*
X88325000Y-62335000D03*
X88325000Y-63605000D03*
D14*
X90800000Y-61700000D03*
%TD*%
D15*
%TO.C,ctrl2*%
X89500000Y-57000000D03*
%TD*%
%TO.C,o1*%
X96500000Y-57000000D03*
%TD*%
%TO.C,i1*%
X84500000Y-60000000D03*
%TD*%
%TO.C,ctrl1*%
X98000000Y-59500000D03*
%TD*%
%TO.C,o2*%
X84500000Y-56500000D03*
%TD*%
%TO.C,i2*%
X84500000Y-63000000D03*
%TD*%
D16*
%TO.C,R15*%
X86500000Y-56000000D03*
X87520000Y-56000000D03*
%TD*%
D17*
%TO.C,R14*%
X87500000Y-57000000D03*
X87500000Y-58020000D03*
%TD*%
D18*
%TO.C,R13*%
X97500000Y-62520000D03*
X97500000Y-61500000D03*
%TD*%
D19*
%TO.C,R12*%
X96010000Y-59500000D03*
X94990000Y-59500000D03*
%TD*%
D12*
%TO.C,C18*%
X94500000Y-46050000D03*
X94500000Y-44500000D03*
%TD*%
D20*
%TO.C,C17*%
X83500000Y-50000000D03*
X83500000Y-51550000D03*
%TD*%
D15*
%TO.C,g2*%
X85500000Y-44000000D03*
%TD*%
%TO.C,g1*%
X88500000Y-42000000D03*
%TD*%
%TO.C,v3*%
X97500000Y-46000000D03*
%TD*%
%TO.C,tr2*%
X96500000Y-54000000D03*
%TD*%
D21*
%TO.C,U1*%
X89050000Y-44500000D03*
D22*
X89137500Y-46000000D03*
D21*
X89050000Y-47500000D03*
%TD*%
D23*
%TO.C,D1*%
X87000000Y-50500000D03*
X87000000Y-54500000D03*
X92950000Y-54500000D03*
X92950000Y-50500000D03*
%TD*%
D24*
%TO.C,C1*%
X85000000Y-50000000D03*
X85000000Y-51000000D03*
%TD*%
D15*
%TO.C,tr1*%
X96500000Y-51000000D03*
%TD*%
%LPD*%
M02*
