%TF.GenerationSoftware,KiCad,Pcbnew,9.0.7*%
%TF.CreationDate,2026-02-24T23:46:09+01:00*%
%TF.ProjectId,ldo,6c646f2e-6b69-4636-9164-5f7063625858,rev?*%
%TF.SameCoordinates,Original*%
%TF.FileFunction,Copper,L2,Bot*%
%TF.FilePolarity,Positive*%
%FSLAX46Y46*%
G04 Gerber Fmt 4.6, Leading zero omitted, Abs format (unit mm)*
G04 Created by KiCad (PCBNEW 9.0.7) date 2026-02-24 23:46:09*
%MOMM*%
%LPD*%
G01*
G04 APERTURE LIST*
%TA.AperFunction,ComponentPad*%
%ADD10C,0.500000*%
%TD*%
%TA.AperFunction,SMDPad,CuDef*%
%ADD11R,1.900000X2.900000*%
%TD*%
%TA.AperFunction,ViaPad*%
%ADD12C,0.800000*%
%TD*%
G04 APERTURE END LIST*
D10*
%TO.P,U4,9,GND*%
%TO.N,GND*%
X107900000Y-53900000D03*
X107900000Y-52700000D03*
X107900000Y-51500000D03*
D11*
X107200000Y-52700000D03*
D10*
X106500000Y-53900000D03*
X106500000Y-52700000D03*
X106500000Y-51500000D03*
%TD*%
D12*
%TO.N,GND*%
X107200000Y-52700000D03*
X114875000Y-55125000D03*
X106500000Y-62000000D03*
X116000000Y-63000000D03*
X116500000Y-56000000D03*
X109400000Y-56000000D03*
%TD*%
%TA.AperFunction,Conductor*%
%TO.N,GND*%
G36*
X117443039Y-38019685D02*
G01*
X117488794Y-38072489D01*
X117500000Y-38124000D01*
X117500000Y-68376000D01*
X117480315Y-68443039D01*
X117427511Y-68488794D01*
X117376000Y-68500000D01*
X102124000Y-68500000D01*
X102056961Y-68480315D01*
X102011206Y-68427511D01*
X102000000Y-68376000D01*
X102000000Y-59134723D01*
X106718829Y-59134723D01*
X106742624Y-59143598D01*
X106802155Y-59149999D01*
X106802172Y-59150000D01*
X107550000Y-59150000D01*
X108050000Y-59150000D01*
X108797828Y-59150000D01*
X108797844Y-59149999D01*
X108857372Y-59143598D01*
X108857378Y-59143597D01*
X108881168Y-59134723D01*
X108881168Y-59134722D01*
X108182765Y-58436319D01*
X108126555Y-58380109D01*
X108400000Y-58380109D01*
X108400000Y-58419891D01*
X108415224Y-58456645D01*
X108443355Y-58484776D01*
X108480109Y-58500000D01*
X108519891Y-58500000D01*
X108556645Y-58484776D01*
X108584776Y-58456645D01*
X108600000Y-58419891D01*
X108600000Y-58399999D01*
X108853554Y-58399999D01*
X108853554Y-58400000D01*
X109234722Y-58781168D01*
X109234723Y-58781168D01*
X109243597Y-58757378D01*
X109243598Y-58757372D01*
X109249999Y-58697844D01*
X109250000Y-58697827D01*
X109250000Y-57450000D01*
X109103553Y-57450000D01*
X109211349Y-57557796D01*
X109244834Y-57619119D01*
X109239850Y-57688811D01*
X109211350Y-57733158D01*
X109144508Y-57800000D01*
X109211349Y-57866841D01*
X109244834Y-57928164D01*
X109239850Y-57997856D01*
X109211349Y-58042203D01*
X108853554Y-58399999D01*
X108600000Y-58399999D01*
X108600000Y-58380109D01*
X108584776Y-58343355D01*
X108556645Y-58315224D01*
X108519891Y-58300000D01*
X108480109Y-58300000D01*
X108443355Y-58315224D01*
X108415224Y-58343355D01*
X108400000Y-58380109D01*
X108126555Y-58380109D01*
X108050000Y-58303553D01*
X108050000Y-59150000D01*
X107550000Y-59150000D01*
X107550000Y-58303554D01*
X107549999Y-58303553D01*
X107276777Y-58576777D01*
X106718829Y-59134723D01*
X102000000Y-59134723D01*
X102000000Y-58697844D01*
X106350000Y-58697844D01*
X106356401Y-58757372D01*
X106356403Y-58757382D01*
X106365275Y-58781168D01*
X106365276Y-58781169D01*
X106746446Y-58400000D01*
X106746446Y-58399999D01*
X106726556Y-58380109D01*
X107000000Y-58380109D01*
X107000000Y-58419891D01*
X107015224Y-58456645D01*
X107043355Y-58484776D01*
X107080109Y-58500000D01*
X107119891Y-58500000D01*
X107156645Y-58484776D01*
X107184776Y-58456645D01*
X107200000Y-58419891D01*
X107200000Y-58380109D01*
X107184776Y-58343355D01*
X107156645Y-58315224D01*
X107119891Y-58300000D01*
X107080109Y-58300000D01*
X107043355Y-58315224D01*
X107015224Y-58343355D01*
X107000000Y-58380109D01*
X106726556Y-58380109D01*
X106388650Y-58042203D01*
X106355165Y-57980880D01*
X106360149Y-57911188D01*
X106365469Y-57898973D01*
X106415060Y-57800000D01*
X106853554Y-57800000D01*
X107100000Y-58046446D01*
X107346446Y-57800000D01*
X108253554Y-57800000D01*
X108500000Y-58046446D01*
X108746446Y-57800000D01*
X108500000Y-57553554D01*
X108253554Y-57800000D01*
X107346446Y-57800000D01*
X107100000Y-57553554D01*
X106853554Y-57800000D01*
X106415060Y-57800000D01*
X106428556Y-57773064D01*
X106388650Y-57733158D01*
X106355165Y-57671835D01*
X106360149Y-57602143D01*
X106388650Y-57557795D01*
X106496446Y-57450000D01*
X106350000Y-57450000D01*
X106350000Y-58697844D01*
X102000000Y-58697844D01*
X102000000Y-57180109D01*
X107000000Y-57180109D01*
X107000000Y-57219891D01*
X107015224Y-57256645D01*
X107043355Y-57284776D01*
X107080109Y-57300000D01*
X107119891Y-57300000D01*
X107156645Y-57284776D01*
X107184776Y-57256645D01*
X107200000Y-57219891D01*
X107200000Y-57180109D01*
X108400000Y-57180109D01*
X108400000Y-57219891D01*
X108415224Y-57256645D01*
X108443355Y-57284776D01*
X108480109Y-57300000D01*
X108519891Y-57300000D01*
X108556645Y-57284776D01*
X108584776Y-57256645D01*
X108600000Y-57219891D01*
X108600000Y-57180109D01*
X108584776Y-57143355D01*
X108556645Y-57115224D01*
X108519891Y-57100000D01*
X108480109Y-57100000D01*
X108443355Y-57115224D01*
X108415224Y-57143355D01*
X108400000Y-57180109D01*
X107200000Y-57180109D01*
X107184776Y-57143355D01*
X107156645Y-57115224D01*
X107119891Y-57100000D01*
X107080109Y-57100000D01*
X107043355Y-57115224D01*
X107015224Y-57143355D01*
X107000000Y-57180109D01*
X102000000Y-57180109D01*
X102000000Y-55702155D01*
X106350000Y-55702155D01*
X106350000Y-56950000D01*
X106496446Y-56950000D01*
X106496446Y-56949999D01*
X106388650Y-56842203D01*
X106355165Y-56780880D01*
X106360149Y-56711188D01*
X106365469Y-56698973D01*
X106415060Y-56600000D01*
X106853554Y-56600000D01*
X107100000Y-56846446D01*
X107346446Y-56600000D01*
X108253554Y-56600000D01*
X108500000Y-56846446D01*
X108746446Y-56600000D01*
X108500000Y-56353554D01*
X108253554Y-56600000D01*
X107346446Y-56600000D01*
X107100000Y-56353554D01*
X106853554Y-56600000D01*
X106415060Y-56600000D01*
X106428556Y-56573064D01*
X106388650Y-56533158D01*
X106355165Y-56471835D01*
X106360149Y-56402143D01*
X106388650Y-56357796D01*
X106746446Y-56000000D01*
X106746446Y-55999999D01*
X106726556Y-55980109D01*
X107000000Y-55980109D01*
X107000000Y-56019891D01*
X107015224Y-56056645D01*
X107043355Y-56084776D01*
X107080109Y-56100000D01*
X107119891Y-56100000D01*
X107156645Y-56084776D01*
X107184776Y-56056645D01*
X107200000Y-56019891D01*
X107200000Y-55980109D01*
X107184776Y-55943355D01*
X107156645Y-55915224D01*
X107119891Y-55900000D01*
X107080109Y-55900000D01*
X107043355Y-55915224D01*
X107015224Y-55943355D01*
X107000000Y-55980109D01*
X106726556Y-55980109D01*
X106365276Y-55618829D01*
X106356401Y-55642626D01*
X106350000Y-55702155D01*
X102000000Y-55702155D01*
X102000000Y-55265276D01*
X106718829Y-55265276D01*
X107276777Y-55823223D01*
X107549999Y-56096446D01*
X108050000Y-56096446D01*
X108166337Y-55980109D01*
X108400000Y-55980109D01*
X108400000Y-56019891D01*
X108415224Y-56056645D01*
X108443355Y-56084776D01*
X108480109Y-56100000D01*
X108519891Y-56100000D01*
X108556645Y-56084776D01*
X108584776Y-56056645D01*
X108600000Y-56019891D01*
X108600000Y-55999999D01*
X108853554Y-55999999D01*
X108853554Y-56000001D01*
X109211349Y-56357796D01*
X109244834Y-56419119D01*
X109239850Y-56488811D01*
X109211350Y-56533158D01*
X109144508Y-56600000D01*
X109211349Y-56666841D01*
X109244834Y-56728164D01*
X109239850Y-56797856D01*
X109211350Y-56842203D01*
X109103554Y-56949999D01*
X109103554Y-56950000D01*
X109250000Y-56950000D01*
X109250000Y-55702172D01*
X109249999Y-55702155D01*
X109243598Y-55642624D01*
X109234723Y-55618829D01*
X108853554Y-55999999D01*
X108600000Y-55999999D01*
X108600000Y-55980109D01*
X108584776Y-55943355D01*
X108556645Y-55915224D01*
X108519891Y-55900000D01*
X108480109Y-55900000D01*
X108443355Y-55915224D01*
X108415224Y-55943355D01*
X108400000Y-55980109D01*
X108166337Y-55980109D01*
X108323223Y-55823223D01*
X108881169Y-55265276D01*
X108881168Y-55265275D01*
X108857382Y-55256403D01*
X108857372Y-55256401D01*
X108797844Y-55250000D01*
X108050000Y-55250000D01*
X108050000Y-56096446D01*
X107549999Y-56096446D01*
X107550000Y-56096445D01*
X107550000Y-55250000D01*
X106802155Y-55250000D01*
X106742626Y-55256401D01*
X106718829Y-55265276D01*
X102000000Y-55265276D01*
X102000000Y-38124000D01*
X102019685Y-38056961D01*
X102072489Y-38011206D01*
X102124000Y-38000000D01*
X117376000Y-38000000D01*
X117443039Y-38019685D01*
G37*
%TD.AperFunction*%
%TD*%
M02*
