%TF.GenerationSoftware,KiCad,Pcbnew,9.0.2*%
%TF.CreationDate,2025-07-27T21:18:58+02:00*%
%TF.ProjectId,ldo,6c646f2e-6b69-4636-9164-5f7063625858,rev?*%
%TF.SameCoordinates,Original*%
%TF.FileFunction,Legend,Top*%
%TF.FilePolarity,Positive*%
%FSLAX46Y46*%
G04 Gerber Fmt 4.6, Leading zero omitted, Abs format (unit mm)*
G04 Created by KiCad (PCBNEW 9.0.2) date 2025-07-27 21:18:58*
%MOMM*%
%LPD*%
G01*
G04 APERTURE LIST*
G04 Aperture macros list*
%AMRoundRect*
0 Rectangle with rounded corners*
0 $1 Rounding radius*
0 $2 $3 $4 $5 $6 $7 $8 $9 X,Y pos of 4 corners*
0 Add a 4 corners polygon primitive as box body*
4,1,4,$2,$3,$4,$5,$6,$7,$8,$9,$2,$3,0*
0 Add four circle primitives for the rounded corners*
1,1,$1+$1,$2,$3*
1,1,$1+$1,$4,$5*
1,1,$1+$1,$6,$7*
1,1,$1+$1,$8,$9*
0 Add four rect primitives between the rounded corners*
20,1,$1+$1,$2,$3,$4,$5,0*
20,1,$1+$1,$4,$5,$6,$7,0*
20,1,$1+$1,$6,$7,$8,$9,0*
20,1,$1+$1,$8,$9,$2,$3,0*%
%AMFreePoly0*
4,1,9,3.862500,-0.866500,0.737500,-0.866500,0.737500,-0.450000,-0.737500,-0.450000,-0.737500,0.450000,0.737500,0.450000,0.737500,0.866500,3.862500,0.866500,3.862500,-0.866500,3.862500,-0.866500,$1*%
G04 Aperture macros list end*
%ADD10C,0.150000*%
%ADD11C,0.120000*%
%ADD12RoundRect,0.135000X-0.135000X-0.185000X0.135000X-0.185000X0.135000X0.185000X-0.135000X0.185000X0*%
%ADD13R,1.500000X1.500000*%
%ADD14RoundRect,0.150000X-0.825000X-0.150000X0.825000X-0.150000X0.825000X0.150000X-0.825000X0.150000X0*%
%ADD15R,2.410000X3.300000*%
%ADD16RoundRect,0.225000X-0.425000X-0.225000X0.425000X-0.225000X0.425000X0.225000X-0.425000X0.225000X0*%
%ADD17FreePoly0,0.000000*%
%ADD18RoundRect,0.135000X0.135000X0.185000X-0.135000X0.185000X-0.135000X-0.185000X0.135000X-0.185000X0*%
%ADD19RoundRect,0.135000X0.185000X-0.135000X0.185000X0.135000X-0.185000X0.135000X-0.185000X-0.135000X0*%
%ADD20RoundRect,0.225000X0.250000X-0.225000X0.250000X0.225000X-0.250000X0.225000X-0.250000X-0.225000X0*%
%ADD21RoundRect,0.225000X-0.250000X0.225000X-0.250000X-0.225000X0.250000X-0.225000X0.250000X0.225000X0*%
%ADD22R,1.000000X0.700000*%
G04 APERTURE END LIST*
D10*
X104847142Y-56784819D02*
X104513809Y-56308628D01*
X104275714Y-56784819D02*
X104275714Y-55784819D01*
X104275714Y-55784819D02*
X104656666Y-55784819D01*
X104656666Y-55784819D02*
X104751904Y-55832438D01*
X104751904Y-55832438D02*
X104799523Y-55880057D01*
X104799523Y-55880057D02*
X104847142Y-55975295D01*
X104847142Y-55975295D02*
X104847142Y-56118152D01*
X104847142Y-56118152D02*
X104799523Y-56213390D01*
X104799523Y-56213390D02*
X104751904Y-56261009D01*
X104751904Y-56261009D02*
X104656666Y-56308628D01*
X104656666Y-56308628D02*
X104275714Y-56308628D01*
X105799523Y-56784819D02*
X105228095Y-56784819D01*
X105513809Y-56784819D02*
X105513809Y-55784819D01*
X105513809Y-55784819D02*
X105418571Y-55927676D01*
X105418571Y-55927676D02*
X105323333Y-56022914D01*
X105323333Y-56022914D02*
X105228095Y-56070533D01*
X106132857Y-55784819D02*
X106751904Y-55784819D01*
X106751904Y-55784819D02*
X106418571Y-56165771D01*
X106418571Y-56165771D02*
X106561428Y-56165771D01*
X106561428Y-56165771D02*
X106656666Y-56213390D01*
X106656666Y-56213390D02*
X106704285Y-56261009D01*
X106704285Y-56261009D02*
X106751904Y-56356247D01*
X106751904Y-56356247D02*
X106751904Y-56594342D01*
X106751904Y-56594342D02*
X106704285Y-56689580D01*
X106704285Y-56689580D02*
X106656666Y-56737200D01*
X106656666Y-56737200D02*
X106561428Y-56784819D01*
X106561428Y-56784819D02*
X106275714Y-56784819D01*
X106275714Y-56784819D02*
X106180476Y-56737200D01*
X106180476Y-56737200D02*
X106132857Y-56689580D01*
X104404761Y-58259200D02*
X104309523Y-58306819D01*
X104309523Y-58306819D02*
X104119047Y-58306819D01*
X104119047Y-58306819D02*
X104023809Y-58259200D01*
X104023809Y-58259200D02*
X103976190Y-58211580D01*
X103976190Y-58211580D02*
X103928571Y-58116342D01*
X103928571Y-58116342D02*
X103928571Y-57830628D01*
X103928571Y-57830628D02*
X103976190Y-57735390D01*
X103976190Y-57735390D02*
X104023809Y-57687771D01*
X104023809Y-57687771D02*
X104119047Y-57640152D01*
X104119047Y-57640152D02*
X104309523Y-57640152D01*
X104309523Y-57640152D02*
X104404761Y-57687771D01*
X104690476Y-57640152D02*
X105071428Y-57640152D01*
X104833333Y-57306819D02*
X104833333Y-58163961D01*
X104833333Y-58163961D02*
X104880952Y-58259200D01*
X104880952Y-58259200D02*
X104976190Y-58306819D01*
X104976190Y-58306819D02*
X105071428Y-58306819D01*
X105404762Y-58306819D02*
X105404762Y-57640152D01*
X105404762Y-57830628D02*
X105452381Y-57735390D01*
X105452381Y-57735390D02*
X105500000Y-57687771D01*
X105500000Y-57687771D02*
X105595238Y-57640152D01*
X105595238Y-57640152D02*
X105690476Y-57640152D01*
X106166667Y-58306819D02*
X106071429Y-58259200D01*
X106071429Y-58259200D02*
X106023810Y-58163961D01*
X106023810Y-58163961D02*
X106023810Y-57306819D01*
X107071429Y-58306819D02*
X106500001Y-58306819D01*
X106785715Y-58306819D02*
X106785715Y-57306819D01*
X106785715Y-57306819D02*
X106690477Y-57449676D01*
X106690477Y-57449676D02*
X106595239Y-57544914D01*
X106595239Y-57544914D02*
X106500001Y-57592533D01*
X108838095Y-41854819D02*
X108838095Y-42664342D01*
X108838095Y-42664342D02*
X108885714Y-42759580D01*
X108885714Y-42759580D02*
X108933333Y-42807200D01*
X108933333Y-42807200D02*
X109028571Y-42854819D01*
X109028571Y-42854819D02*
X109219047Y-42854819D01*
X109219047Y-42854819D02*
X109314285Y-42807200D01*
X109314285Y-42807200D02*
X109361904Y-42759580D01*
X109361904Y-42759580D02*
X109409523Y-42664342D01*
X109409523Y-42664342D02*
X109409523Y-41854819D01*
X110314285Y-42188152D02*
X110314285Y-42854819D01*
X110076190Y-41807200D02*
X109838095Y-42521485D01*
X109838095Y-42521485D02*
X110457142Y-42521485D01*
X114023809Y-40640152D02*
X114404761Y-40640152D01*
X114166666Y-40306819D02*
X114166666Y-41163961D01*
X114166666Y-41163961D02*
X114214285Y-41259200D01*
X114214285Y-41259200D02*
X114309523Y-41306819D01*
X114309523Y-41306819D02*
X114404761Y-41306819D01*
X114738095Y-41306819D02*
X114738095Y-40640152D01*
X114738095Y-40830628D02*
X114785714Y-40735390D01*
X114785714Y-40735390D02*
X114833333Y-40687771D01*
X114833333Y-40687771D02*
X114928571Y-40640152D01*
X114928571Y-40640152D02*
X115023809Y-40640152D01*
X115309524Y-40402057D02*
X115357143Y-40354438D01*
X115357143Y-40354438D02*
X115452381Y-40306819D01*
X115452381Y-40306819D02*
X115690476Y-40306819D01*
X115690476Y-40306819D02*
X115785714Y-40354438D01*
X115785714Y-40354438D02*
X115833333Y-40402057D01*
X115833333Y-40402057D02*
X115880952Y-40497295D01*
X115880952Y-40497295D02*
X115880952Y-40592533D01*
X115880952Y-40592533D02*
X115833333Y-40735390D01*
X115833333Y-40735390D02*
X115261905Y-41306819D01*
X115261905Y-41306819D02*
X115880952Y-41306819D01*
X114691964Y-46090152D02*
X114930059Y-46756819D01*
X114930059Y-46756819D02*
X115168154Y-46090152D01*
X115453869Y-45756819D02*
X116072916Y-45756819D01*
X116072916Y-45756819D02*
X115739583Y-46137771D01*
X115739583Y-46137771D02*
X115882440Y-46137771D01*
X115882440Y-46137771D02*
X115977678Y-46185390D01*
X115977678Y-46185390D02*
X116025297Y-46233009D01*
X116025297Y-46233009D02*
X116072916Y-46328247D01*
X116072916Y-46328247D02*
X116072916Y-46566342D01*
X116072916Y-46566342D02*
X116025297Y-46661580D01*
X116025297Y-46661580D02*
X115977678Y-46709200D01*
X115977678Y-46709200D02*
X115882440Y-46756819D01*
X115882440Y-46756819D02*
X115596726Y-46756819D01*
X115596726Y-46756819D02*
X115501488Y-46709200D01*
X115501488Y-46709200D02*
X115453869Y-46661580D01*
X109644345Y-44404819D02*
X109644345Y-45214342D01*
X109644345Y-45214342D02*
X109691964Y-45309580D01*
X109691964Y-45309580D02*
X109739583Y-45357200D01*
X109739583Y-45357200D02*
X109834821Y-45404819D01*
X109834821Y-45404819D02*
X110025297Y-45404819D01*
X110025297Y-45404819D02*
X110120535Y-45357200D01*
X110120535Y-45357200D02*
X110168154Y-45309580D01*
X110168154Y-45309580D02*
X110215773Y-45214342D01*
X110215773Y-45214342D02*
X110215773Y-44404819D01*
X111215773Y-45404819D02*
X110644345Y-45404819D01*
X110930059Y-45404819D02*
X110930059Y-44404819D01*
X110930059Y-44404819D02*
X110834821Y-44547676D01*
X110834821Y-44547676D02*
X110739583Y-44642914D01*
X110739583Y-44642914D02*
X110644345Y-44690533D01*
X114023809Y-37140152D02*
X114404761Y-37140152D01*
X114166666Y-36806819D02*
X114166666Y-37663961D01*
X114166666Y-37663961D02*
X114214285Y-37759200D01*
X114214285Y-37759200D02*
X114309523Y-37806819D01*
X114309523Y-37806819D02*
X114404761Y-37806819D01*
X114738095Y-37806819D02*
X114738095Y-37140152D01*
X114738095Y-37330628D02*
X114785714Y-37235390D01*
X114785714Y-37235390D02*
X114833333Y-37187771D01*
X114833333Y-37187771D02*
X114928571Y-37140152D01*
X114928571Y-37140152D02*
X115023809Y-37140152D01*
X115880952Y-37806819D02*
X115309524Y-37806819D01*
X115595238Y-37806819D02*
X115595238Y-36806819D01*
X115595238Y-36806819D02*
X115500000Y-36949676D01*
X115500000Y-36949676D02*
X115404762Y-37044914D01*
X115404762Y-37044914D02*
X115309524Y-37092533D01*
X114867142Y-59624819D02*
X114533809Y-59148628D01*
X114295714Y-59624819D02*
X114295714Y-58624819D01*
X114295714Y-58624819D02*
X114676666Y-58624819D01*
X114676666Y-58624819D02*
X114771904Y-58672438D01*
X114771904Y-58672438D02*
X114819523Y-58720057D01*
X114819523Y-58720057D02*
X114867142Y-58815295D01*
X114867142Y-58815295D02*
X114867142Y-58958152D01*
X114867142Y-58958152D02*
X114819523Y-59053390D01*
X114819523Y-59053390D02*
X114771904Y-59101009D01*
X114771904Y-59101009D02*
X114676666Y-59148628D01*
X114676666Y-59148628D02*
X114295714Y-59148628D01*
X115819523Y-59624819D02*
X115248095Y-59624819D01*
X115533809Y-59624819D02*
X115533809Y-58624819D01*
X115533809Y-58624819D02*
X115438571Y-58767676D01*
X115438571Y-58767676D02*
X115343333Y-58862914D01*
X115343333Y-58862914D02*
X115248095Y-58910533D01*
X116724285Y-58624819D02*
X116248095Y-58624819D01*
X116248095Y-58624819D02*
X116200476Y-59101009D01*
X116200476Y-59101009D02*
X116248095Y-59053390D01*
X116248095Y-59053390D02*
X116343333Y-59005771D01*
X116343333Y-59005771D02*
X116581428Y-59005771D01*
X116581428Y-59005771D02*
X116676666Y-59053390D01*
X116676666Y-59053390D02*
X116724285Y-59101009D01*
X116724285Y-59101009D02*
X116771904Y-59196247D01*
X116771904Y-59196247D02*
X116771904Y-59434342D01*
X116771904Y-59434342D02*
X116724285Y-59529580D01*
X116724285Y-59529580D02*
X116676666Y-59577200D01*
X116676666Y-59577200D02*
X116581428Y-59624819D01*
X116581428Y-59624819D02*
X116343333Y-59624819D01*
X116343333Y-59624819D02*
X116248095Y-59577200D01*
X116248095Y-59577200D02*
X116200476Y-59529580D01*
X113284819Y-59652857D02*
X112808628Y-59986190D01*
X113284819Y-60224285D02*
X112284819Y-60224285D01*
X112284819Y-60224285D02*
X112284819Y-59843333D01*
X112284819Y-59843333D02*
X112332438Y-59748095D01*
X112332438Y-59748095D02*
X112380057Y-59700476D01*
X112380057Y-59700476D02*
X112475295Y-59652857D01*
X112475295Y-59652857D02*
X112618152Y-59652857D01*
X112618152Y-59652857D02*
X112713390Y-59700476D01*
X112713390Y-59700476D02*
X112761009Y-59748095D01*
X112761009Y-59748095D02*
X112808628Y-59843333D01*
X112808628Y-59843333D02*
X112808628Y-60224285D01*
X113284819Y-58700476D02*
X113284819Y-59271904D01*
X113284819Y-58986190D02*
X112284819Y-58986190D01*
X112284819Y-58986190D02*
X112427676Y-59081428D01*
X112427676Y-59081428D02*
X112522914Y-59176666D01*
X112522914Y-59176666D02*
X112570533Y-59271904D01*
X112618152Y-57843333D02*
X113284819Y-57843333D01*
X112237200Y-58081428D02*
X112951485Y-58319523D01*
X112951485Y-58319523D02*
X112951485Y-57700476D01*
X106784819Y-59652857D02*
X106308628Y-59986190D01*
X106784819Y-60224285D02*
X105784819Y-60224285D01*
X105784819Y-60224285D02*
X105784819Y-59843333D01*
X105784819Y-59843333D02*
X105832438Y-59748095D01*
X105832438Y-59748095D02*
X105880057Y-59700476D01*
X105880057Y-59700476D02*
X105975295Y-59652857D01*
X105975295Y-59652857D02*
X106118152Y-59652857D01*
X106118152Y-59652857D02*
X106213390Y-59700476D01*
X106213390Y-59700476D02*
X106261009Y-59748095D01*
X106261009Y-59748095D02*
X106308628Y-59843333D01*
X106308628Y-59843333D02*
X106308628Y-60224285D01*
X106784819Y-58700476D02*
X106784819Y-59271904D01*
X106784819Y-58986190D02*
X105784819Y-58986190D01*
X105784819Y-58986190D02*
X105927676Y-59081428D01*
X105927676Y-59081428D02*
X106022914Y-59176666D01*
X106022914Y-59176666D02*
X106070533Y-59271904D01*
X105880057Y-58319523D02*
X105832438Y-58271904D01*
X105832438Y-58271904D02*
X105784819Y-58176666D01*
X105784819Y-58176666D02*
X105784819Y-57938571D01*
X105784819Y-57938571D02*
X105832438Y-57843333D01*
X105832438Y-57843333D02*
X105880057Y-57795714D01*
X105880057Y-57795714D02*
X105975295Y-57748095D01*
X105975295Y-57748095D02*
X106070533Y-57748095D01*
X106070533Y-57748095D02*
X106213390Y-57795714D01*
X106213390Y-57795714D02*
X106784819Y-58367142D01*
X106784819Y-58367142D02*
X106784819Y-57748095D01*
X111452381Y-58306819D02*
X111357143Y-58259200D01*
X111357143Y-58259200D02*
X111309524Y-58211580D01*
X111309524Y-58211580D02*
X111261905Y-58116342D01*
X111261905Y-58116342D02*
X111261905Y-57830628D01*
X111261905Y-57830628D02*
X111309524Y-57735390D01*
X111309524Y-57735390D02*
X111357143Y-57687771D01*
X111357143Y-57687771D02*
X111452381Y-57640152D01*
X111452381Y-57640152D02*
X111595238Y-57640152D01*
X111595238Y-57640152D02*
X111690476Y-57687771D01*
X111690476Y-57687771D02*
X111738095Y-57735390D01*
X111738095Y-57735390D02*
X111785714Y-57830628D01*
X111785714Y-57830628D02*
X111785714Y-58116342D01*
X111785714Y-58116342D02*
X111738095Y-58211580D01*
X111738095Y-58211580D02*
X111690476Y-58259200D01*
X111690476Y-58259200D02*
X111595238Y-58306819D01*
X111595238Y-58306819D02*
X111452381Y-58306819D01*
X112166667Y-57402057D02*
X112214286Y-57354438D01*
X112214286Y-57354438D02*
X112309524Y-57306819D01*
X112309524Y-57306819D02*
X112547619Y-57306819D01*
X112547619Y-57306819D02*
X112642857Y-57354438D01*
X112642857Y-57354438D02*
X112690476Y-57402057D01*
X112690476Y-57402057D02*
X112738095Y-57497295D01*
X112738095Y-57497295D02*
X112738095Y-57592533D01*
X112738095Y-57592533D02*
X112690476Y-57735390D01*
X112690476Y-57735390D02*
X112119048Y-58306819D01*
X112119048Y-58306819D02*
X112738095Y-58306819D01*
X115023810Y-52306819D02*
X115023810Y-51640152D01*
X115023810Y-51306819D02*
X114976191Y-51354438D01*
X114976191Y-51354438D02*
X115023810Y-51402057D01*
X115023810Y-51402057D02*
X115071429Y-51354438D01*
X115071429Y-51354438D02*
X115023810Y-51306819D01*
X115023810Y-51306819D02*
X115023810Y-51402057D01*
X115452381Y-51402057D02*
X115500000Y-51354438D01*
X115500000Y-51354438D02*
X115595238Y-51306819D01*
X115595238Y-51306819D02*
X115833333Y-51306819D01*
X115833333Y-51306819D02*
X115928571Y-51354438D01*
X115928571Y-51354438D02*
X115976190Y-51402057D01*
X115976190Y-51402057D02*
X116023809Y-51497295D01*
X116023809Y-51497295D02*
X116023809Y-51592533D01*
X116023809Y-51592533D02*
X115976190Y-51735390D01*
X115976190Y-51735390D02*
X115404762Y-52306819D01*
X115404762Y-52306819D02*
X116023809Y-52306819D01*
X115023810Y-54806819D02*
X115023810Y-54140152D01*
X115023810Y-53806819D02*
X114976191Y-53854438D01*
X114976191Y-53854438D02*
X115023810Y-53902057D01*
X115023810Y-53902057D02*
X115071429Y-53854438D01*
X115071429Y-53854438D02*
X115023810Y-53806819D01*
X115023810Y-53806819D02*
X115023810Y-53902057D01*
X116023809Y-54806819D02*
X115452381Y-54806819D01*
X115738095Y-54806819D02*
X115738095Y-53806819D01*
X115738095Y-53806819D02*
X115642857Y-53949676D01*
X115642857Y-53949676D02*
X115547619Y-54044914D01*
X115547619Y-54044914D02*
X115452381Y-54092533D01*
X104738095Y-46140152D02*
X104738095Y-46949676D01*
X104738095Y-46949676D02*
X104690476Y-47044914D01*
X104690476Y-47044914D02*
X104642857Y-47092533D01*
X104642857Y-47092533D02*
X104547619Y-47140152D01*
X104547619Y-47140152D02*
X104404762Y-47140152D01*
X104404762Y-47140152D02*
X104309524Y-47092533D01*
X104738095Y-46759200D02*
X104642857Y-46806819D01*
X104642857Y-46806819D02*
X104452381Y-46806819D01*
X104452381Y-46806819D02*
X104357143Y-46759200D01*
X104357143Y-46759200D02*
X104309524Y-46711580D01*
X104309524Y-46711580D02*
X104261905Y-46616342D01*
X104261905Y-46616342D02*
X104261905Y-46330628D01*
X104261905Y-46330628D02*
X104309524Y-46235390D01*
X104309524Y-46235390D02*
X104357143Y-46187771D01*
X104357143Y-46187771D02*
X104452381Y-46140152D01*
X104452381Y-46140152D02*
X104642857Y-46140152D01*
X104642857Y-46140152D02*
X104738095Y-46187771D01*
X105166667Y-45902057D02*
X105214286Y-45854438D01*
X105214286Y-45854438D02*
X105309524Y-45806819D01*
X105309524Y-45806819D02*
X105547619Y-45806819D01*
X105547619Y-45806819D02*
X105642857Y-45854438D01*
X105642857Y-45854438D02*
X105690476Y-45902057D01*
X105690476Y-45902057D02*
X105738095Y-45997295D01*
X105738095Y-45997295D02*
X105738095Y-46092533D01*
X105738095Y-46092533D02*
X105690476Y-46235390D01*
X105690476Y-46235390D02*
X105119048Y-46806819D01*
X105119048Y-46806819D02*
X105738095Y-46806819D01*
X104738095Y-43640152D02*
X104738095Y-44449676D01*
X104738095Y-44449676D02*
X104690476Y-44544914D01*
X104690476Y-44544914D02*
X104642857Y-44592533D01*
X104642857Y-44592533D02*
X104547619Y-44640152D01*
X104547619Y-44640152D02*
X104404762Y-44640152D01*
X104404762Y-44640152D02*
X104309524Y-44592533D01*
X104738095Y-44259200D02*
X104642857Y-44306819D01*
X104642857Y-44306819D02*
X104452381Y-44306819D01*
X104452381Y-44306819D02*
X104357143Y-44259200D01*
X104357143Y-44259200D02*
X104309524Y-44211580D01*
X104309524Y-44211580D02*
X104261905Y-44116342D01*
X104261905Y-44116342D02*
X104261905Y-43830628D01*
X104261905Y-43830628D02*
X104309524Y-43735390D01*
X104309524Y-43735390D02*
X104357143Y-43687771D01*
X104357143Y-43687771D02*
X104452381Y-43640152D01*
X104452381Y-43640152D02*
X104642857Y-43640152D01*
X104642857Y-43640152D02*
X104738095Y-43687771D01*
X105738095Y-44306819D02*
X105166667Y-44306819D01*
X105452381Y-44306819D02*
X105452381Y-43306819D01*
X105452381Y-43306819D02*
X105357143Y-43449676D01*
X105357143Y-43449676D02*
X105261905Y-43544914D01*
X105261905Y-43544914D02*
X105166667Y-43592533D01*
X114904761Y-58759200D02*
X114809523Y-58806819D01*
X114809523Y-58806819D02*
X114619047Y-58806819D01*
X114619047Y-58806819D02*
X114523809Y-58759200D01*
X114523809Y-58759200D02*
X114476190Y-58711580D01*
X114476190Y-58711580D02*
X114428571Y-58616342D01*
X114428571Y-58616342D02*
X114428571Y-58330628D01*
X114428571Y-58330628D02*
X114476190Y-58235390D01*
X114476190Y-58235390D02*
X114523809Y-58187771D01*
X114523809Y-58187771D02*
X114619047Y-58140152D01*
X114619047Y-58140152D02*
X114809523Y-58140152D01*
X114809523Y-58140152D02*
X114904761Y-58187771D01*
X115190476Y-58140152D02*
X115571428Y-58140152D01*
X115333333Y-57806819D02*
X115333333Y-58663961D01*
X115333333Y-58663961D02*
X115380952Y-58759200D01*
X115380952Y-58759200D02*
X115476190Y-58806819D01*
X115476190Y-58806819D02*
X115571428Y-58806819D01*
X115904762Y-58806819D02*
X115904762Y-58140152D01*
X115904762Y-58330628D02*
X115952381Y-58235390D01*
X115952381Y-58235390D02*
X116000000Y-58187771D01*
X116000000Y-58187771D02*
X116095238Y-58140152D01*
X116095238Y-58140152D02*
X116190476Y-58140152D01*
X116666667Y-58806819D02*
X116571429Y-58759200D01*
X116571429Y-58759200D02*
X116523810Y-58663961D01*
X116523810Y-58663961D02*
X116523810Y-57806819D01*
X117000001Y-57902057D02*
X117047620Y-57854438D01*
X117047620Y-57854438D02*
X117142858Y-57806819D01*
X117142858Y-57806819D02*
X117380953Y-57806819D01*
X117380953Y-57806819D02*
X117476191Y-57854438D01*
X117476191Y-57854438D02*
X117523810Y-57902057D01*
X117523810Y-57902057D02*
X117571429Y-57997295D01*
X117571429Y-57997295D02*
X117571429Y-58092533D01*
X117571429Y-58092533D02*
X117523810Y-58235390D01*
X117523810Y-58235390D02*
X116952382Y-58806819D01*
X116952382Y-58806819D02*
X117571429Y-58806819D01*
X112335830Y-48367857D02*
X112383450Y-48415476D01*
X112383450Y-48415476D02*
X112431069Y-48558333D01*
X112431069Y-48558333D02*
X112431069Y-48653571D01*
X112431069Y-48653571D02*
X112383450Y-48796428D01*
X112383450Y-48796428D02*
X112288211Y-48891666D01*
X112288211Y-48891666D02*
X112192973Y-48939285D01*
X112192973Y-48939285D02*
X112002497Y-48986904D01*
X112002497Y-48986904D02*
X111859640Y-48986904D01*
X111859640Y-48986904D02*
X111669164Y-48939285D01*
X111669164Y-48939285D02*
X111573926Y-48891666D01*
X111573926Y-48891666D02*
X111478688Y-48796428D01*
X111478688Y-48796428D02*
X111431069Y-48653571D01*
X111431069Y-48653571D02*
X111431069Y-48558333D01*
X111431069Y-48558333D02*
X111478688Y-48415476D01*
X111478688Y-48415476D02*
X111526307Y-48367857D01*
X112431069Y-47415476D02*
X112431069Y-47986904D01*
X112431069Y-47701190D02*
X111431069Y-47701190D01*
X111431069Y-47701190D02*
X111573926Y-47796428D01*
X111573926Y-47796428D02*
X111669164Y-47891666D01*
X111669164Y-47891666D02*
X111716783Y-47986904D01*
X111859640Y-46844047D02*
X111812021Y-46939285D01*
X111812021Y-46939285D02*
X111764402Y-46986904D01*
X111764402Y-46986904D02*
X111669164Y-47034523D01*
X111669164Y-47034523D02*
X111621545Y-47034523D01*
X111621545Y-47034523D02*
X111526307Y-46986904D01*
X111526307Y-46986904D02*
X111478688Y-46939285D01*
X111478688Y-46939285D02*
X111431069Y-46844047D01*
X111431069Y-46844047D02*
X111431069Y-46653571D01*
X111431069Y-46653571D02*
X111478688Y-46558333D01*
X111478688Y-46558333D02*
X111526307Y-46510714D01*
X111526307Y-46510714D02*
X111621545Y-46463095D01*
X111621545Y-46463095D02*
X111669164Y-46463095D01*
X111669164Y-46463095D02*
X111764402Y-46510714D01*
X111764402Y-46510714D02*
X111812021Y-46558333D01*
X111812021Y-46558333D02*
X111859640Y-46653571D01*
X111859640Y-46653571D02*
X111859640Y-46844047D01*
X111859640Y-46844047D02*
X111907259Y-46939285D01*
X111907259Y-46939285D02*
X111954878Y-46986904D01*
X111954878Y-46986904D02*
X112050116Y-47034523D01*
X112050116Y-47034523D02*
X112240592Y-47034523D01*
X112240592Y-47034523D02*
X112335830Y-46986904D01*
X112335830Y-46986904D02*
X112383450Y-46939285D01*
X112383450Y-46939285D02*
X112431069Y-46844047D01*
X112431069Y-46844047D02*
X112431069Y-46653571D01*
X112431069Y-46653571D02*
X112383450Y-46558333D01*
X112383450Y-46558333D02*
X112335830Y-46510714D01*
X112335830Y-46510714D02*
X112240592Y-46463095D01*
X112240592Y-46463095D02*
X112050116Y-46463095D01*
X112050116Y-46463095D02*
X111954878Y-46510714D01*
X111954878Y-46510714D02*
X111907259Y-46558333D01*
X111907259Y-46558333D02*
X111859640Y-46653571D01*
X107289580Y-40417857D02*
X107337200Y-40465476D01*
X107337200Y-40465476D02*
X107384819Y-40608333D01*
X107384819Y-40608333D02*
X107384819Y-40703571D01*
X107384819Y-40703571D02*
X107337200Y-40846428D01*
X107337200Y-40846428D02*
X107241961Y-40941666D01*
X107241961Y-40941666D02*
X107146723Y-40989285D01*
X107146723Y-40989285D02*
X106956247Y-41036904D01*
X106956247Y-41036904D02*
X106813390Y-41036904D01*
X106813390Y-41036904D02*
X106622914Y-40989285D01*
X106622914Y-40989285D02*
X106527676Y-40941666D01*
X106527676Y-40941666D02*
X106432438Y-40846428D01*
X106432438Y-40846428D02*
X106384819Y-40703571D01*
X106384819Y-40703571D02*
X106384819Y-40608333D01*
X106384819Y-40608333D02*
X106432438Y-40465476D01*
X106432438Y-40465476D02*
X106480057Y-40417857D01*
X107384819Y-39465476D02*
X107384819Y-40036904D01*
X107384819Y-39751190D02*
X106384819Y-39751190D01*
X106384819Y-39751190D02*
X106527676Y-39846428D01*
X106527676Y-39846428D02*
X106622914Y-39941666D01*
X106622914Y-39941666D02*
X106670533Y-40036904D01*
X106384819Y-39132142D02*
X106384819Y-38465476D01*
X106384819Y-38465476D02*
X107384819Y-38894047D01*
X105789580Y-39941666D02*
X105837200Y-39989285D01*
X105837200Y-39989285D02*
X105884819Y-40132142D01*
X105884819Y-40132142D02*
X105884819Y-40227380D01*
X105884819Y-40227380D02*
X105837200Y-40370237D01*
X105837200Y-40370237D02*
X105741961Y-40465475D01*
X105741961Y-40465475D02*
X105646723Y-40513094D01*
X105646723Y-40513094D02*
X105456247Y-40560713D01*
X105456247Y-40560713D02*
X105313390Y-40560713D01*
X105313390Y-40560713D02*
X105122914Y-40513094D01*
X105122914Y-40513094D02*
X105027676Y-40465475D01*
X105027676Y-40465475D02*
X104932438Y-40370237D01*
X104932438Y-40370237D02*
X104884819Y-40227380D01*
X104884819Y-40227380D02*
X104884819Y-40132142D01*
X104884819Y-40132142D02*
X104932438Y-39989285D01*
X104932438Y-39989285D02*
X104980057Y-39941666D01*
X104884819Y-39608332D02*
X104884819Y-38989285D01*
X104884819Y-38989285D02*
X105265771Y-39322618D01*
X105265771Y-39322618D02*
X105265771Y-39179761D01*
X105265771Y-39179761D02*
X105313390Y-39084523D01*
X105313390Y-39084523D02*
X105361009Y-39036904D01*
X105361009Y-39036904D02*
X105456247Y-38989285D01*
X105456247Y-38989285D02*
X105694342Y-38989285D01*
X105694342Y-38989285D02*
X105789580Y-39036904D01*
X105789580Y-39036904D02*
X105837200Y-39084523D01*
X105837200Y-39084523D02*
X105884819Y-39179761D01*
X105884819Y-39179761D02*
X105884819Y-39465475D01*
X105884819Y-39465475D02*
X105837200Y-39560713D01*
X105837200Y-39560713D02*
X105789580Y-39608332D01*
X109286905Y-37754819D02*
X109286905Y-36754819D01*
X109286905Y-36754819D02*
X109525000Y-36754819D01*
X109525000Y-36754819D02*
X109667857Y-36802438D01*
X109667857Y-36802438D02*
X109763095Y-36897676D01*
X109763095Y-36897676D02*
X109810714Y-36992914D01*
X109810714Y-36992914D02*
X109858333Y-37183390D01*
X109858333Y-37183390D02*
X109858333Y-37326247D01*
X109858333Y-37326247D02*
X109810714Y-37516723D01*
X109810714Y-37516723D02*
X109763095Y-37611961D01*
X109763095Y-37611961D02*
X109667857Y-37707200D01*
X109667857Y-37707200D02*
X109525000Y-37754819D01*
X109525000Y-37754819D02*
X109286905Y-37754819D01*
X110810714Y-37754819D02*
X110239286Y-37754819D01*
X110525000Y-37754819D02*
X110525000Y-36754819D01*
X110525000Y-36754819D02*
X110429762Y-36897676D01*
X110429762Y-36897676D02*
X110334524Y-36992914D01*
X110334524Y-36992914D02*
X110239286Y-37040533D01*
X108952381Y-58306819D02*
X108857143Y-58259200D01*
X108857143Y-58259200D02*
X108809524Y-58211580D01*
X108809524Y-58211580D02*
X108761905Y-58116342D01*
X108761905Y-58116342D02*
X108761905Y-57830628D01*
X108761905Y-57830628D02*
X108809524Y-57735390D01*
X108809524Y-57735390D02*
X108857143Y-57687771D01*
X108857143Y-57687771D02*
X108952381Y-57640152D01*
X108952381Y-57640152D02*
X109095238Y-57640152D01*
X109095238Y-57640152D02*
X109190476Y-57687771D01*
X109190476Y-57687771D02*
X109238095Y-57735390D01*
X109238095Y-57735390D02*
X109285714Y-57830628D01*
X109285714Y-57830628D02*
X109285714Y-58116342D01*
X109285714Y-58116342D02*
X109238095Y-58211580D01*
X109238095Y-58211580D02*
X109190476Y-58259200D01*
X109190476Y-58259200D02*
X109095238Y-58306819D01*
X109095238Y-58306819D02*
X108952381Y-58306819D01*
X110238095Y-58306819D02*
X109666667Y-58306819D01*
X109952381Y-58306819D02*
X109952381Y-57306819D01*
X109952381Y-57306819D02*
X109857143Y-57449676D01*
X109857143Y-57449676D02*
X109761905Y-57544914D01*
X109761905Y-57544914D02*
X109666667Y-57592533D01*
D11*
%TO.C,R13*%
X105336359Y-57880000D02*
X105643641Y-57880000D01*
X105336359Y-57120000D02*
X105643641Y-57120000D01*
%TO.C,ctrl1*%
X106450000Y-60450000D02*
X104550000Y-60450000D01*
X106450000Y-58550000D02*
X106450000Y-60450000D01*
X104550000Y-60450000D02*
X104550000Y-58550000D01*
X104550000Y-58550000D02*
X106450000Y-58550000D01*
%TO.C,U4*%
X108750000Y-52640000D02*
X106900000Y-52640000D01*
X108750000Y-57760000D02*
X106900000Y-57760000D01*
X111850000Y-52640000D02*
X113700000Y-52640000D01*
X111850000Y-57760000D02*
X113700000Y-57760000D01*
%TO.C,tr2*%
X115950000Y-43450000D02*
X114050000Y-43450000D01*
X115950000Y-41550000D02*
X115950000Y-43450000D01*
X114050000Y-43450000D02*
X114050000Y-41550000D01*
X114050000Y-41550000D02*
X115950000Y-41550000D01*
%TO.C,v3*%
X114456250Y-47000000D02*
X116356250Y-47000000D01*
X114456250Y-48900000D02*
X114456250Y-47000000D01*
X116356250Y-47000000D02*
X116356250Y-48900000D01*
X116356250Y-48900000D02*
X114456250Y-48900000D01*
%TO.C,U1*%
X109186250Y-46090000D02*
X111766250Y-46090000D01*
X111766250Y-47070000D02*
X111766250Y-46090000D01*
X111766250Y-49830000D02*
X111766250Y-50810000D01*
X111766250Y-50810000D02*
X109046250Y-50810000D01*
X108636250Y-46240000D02*
X108396250Y-45910000D01*
X108876250Y-45910000D01*
X108636250Y-46240000D01*
G36*
X108636250Y-46240000D02*
G01*
X108396250Y-45910000D01*
X108876250Y-45910000D01*
X108636250Y-46240000D01*
G37*
%TO.C,tr1*%
X114050000Y-38050000D02*
X115950000Y-38050000D01*
X114050000Y-39950000D02*
X114050000Y-38050000D01*
X115950000Y-38050000D02*
X115950000Y-39950000D01*
X115950000Y-39950000D02*
X114050000Y-39950000D01*
%TO.C,R15*%
X115663641Y-58380000D02*
X115356359Y-58380000D01*
X115663641Y-57620000D02*
X115356359Y-57620000D01*
%TO.C,R14*%
X113620000Y-59163641D02*
X113620000Y-58856359D01*
X114380000Y-59163641D02*
X114380000Y-58856359D01*
%TO.C,R12*%
X107120000Y-59163641D02*
X107120000Y-58856359D01*
X107880000Y-59163641D02*
X107880000Y-58856359D01*
%TO.C,o2*%
X111050000Y-58550000D02*
X112950000Y-58550000D01*
X111050000Y-60450000D02*
X111050000Y-58550000D01*
X112950000Y-58550000D02*
X112950000Y-60450000D01*
X112950000Y-60450000D02*
X111050000Y-60450000D01*
%TO.C,i2*%
X114550000Y-52550000D02*
X116450000Y-52550000D01*
X114550000Y-54450000D02*
X114550000Y-52550000D01*
X116450000Y-52550000D02*
X116450000Y-54450000D01*
X116450000Y-54450000D02*
X114550000Y-54450000D01*
%TO.C,i1*%
X114550000Y-55050000D02*
X116450000Y-55050000D01*
X114550000Y-56950000D02*
X114550000Y-55050000D01*
X116450000Y-55050000D02*
X116450000Y-56950000D01*
X116450000Y-56950000D02*
X114550000Y-56950000D01*
%TO.C,g2*%
X104050000Y-47050000D02*
X105950000Y-47050000D01*
X104050000Y-48950000D02*
X104050000Y-47050000D01*
X105950000Y-47050000D02*
X105950000Y-48950000D01*
X105950000Y-48950000D02*
X104050000Y-48950000D01*
%TO.C,g1*%
X104050000Y-44550000D02*
X105950000Y-44550000D01*
X104050000Y-46450000D02*
X104050000Y-44550000D01*
X105950000Y-44550000D02*
X105950000Y-46450000D01*
X105950000Y-46450000D02*
X104050000Y-46450000D01*
%TO.C,ctrl2*%
X115050000Y-59050000D02*
X116950000Y-59050000D01*
X115050000Y-60950000D02*
X115050000Y-59050000D01*
X116950000Y-59050000D02*
X116950000Y-60950000D01*
X116950000Y-60950000D02*
X115050000Y-60950000D01*
%TO.C,C18*%
X112896250Y-47865580D02*
X112896250Y-47584420D01*
X113916250Y-47865580D02*
X113916250Y-47584420D01*
%TO.C,C17*%
X106010000Y-39634420D02*
X106010000Y-39915580D01*
X104990000Y-39634420D02*
X104990000Y-39915580D01*
%TO.C,C3*%
X104510000Y-39634420D02*
X104510000Y-39915580D01*
X103490000Y-39634420D02*
X103490000Y-39915580D01*
%TO.C,D1*%
X112325000Y-38390000D02*
X107025000Y-38390000D01*
X112325000Y-43600000D02*
X107725000Y-43600000D01*
X106525000Y-38390000D02*
X106245000Y-38390000D01*
X106525000Y-38110000D01*
X106525000Y-38390000D01*
G36*
X106525000Y-38390000D02*
G01*
X106245000Y-38390000D01*
X106525000Y-38110000D01*
X106525000Y-38390000D01*
G37*
%TO.C,o1*%
X108550000Y-58550000D02*
X110450000Y-58550000D01*
X108550000Y-60450000D02*
X108550000Y-58550000D01*
X110450000Y-58550000D02*
X110450000Y-60450000D01*
X110450000Y-60450000D02*
X108550000Y-60450000D01*
%TD*%
%LPC*%
D12*
%TO.C,R13*%
X106000000Y-57500000D03*
X104980000Y-57500000D03*
%TD*%
D13*
%TO.C,ctrl1*%
X105500000Y-59500000D03*
%TD*%
D14*
%TO.C,U4*%
X107825000Y-53295000D03*
X107825000Y-54565000D03*
X107825000Y-55835000D03*
X107825000Y-57105000D03*
X112775000Y-57105000D03*
X112775000Y-55835000D03*
X112775000Y-54565000D03*
X112775000Y-53295000D03*
D15*
X110300000Y-55200000D03*
%TD*%
D13*
%TO.C,tr2*%
X115000000Y-42500000D03*
%TD*%
%TO.C,v3*%
X115406250Y-47950000D03*
%TD*%
D16*
%TO.C,U1*%
X108456250Y-46950000D03*
D17*
X108543750Y-48450000D03*
D16*
X108456250Y-49950000D03*
%TD*%
D13*
%TO.C,tr1*%
X115000000Y-39000000D03*
%TD*%
D18*
%TO.C,R15*%
X116020000Y-58000000D03*
X115000000Y-58000000D03*
%TD*%
D19*
%TO.C,R14*%
X114000000Y-59520000D03*
X114000000Y-58500000D03*
%TD*%
%TO.C,R12*%
X107500000Y-59520000D03*
X107500000Y-58500000D03*
%TD*%
D13*
%TO.C,o2*%
X112000000Y-59500000D03*
%TD*%
%TO.C,i2*%
X115500000Y-53500000D03*
%TD*%
%TO.C,i1*%
X115500000Y-56000000D03*
%TD*%
%TO.C,g2*%
X105000000Y-48000000D03*
%TD*%
%TO.C,g1*%
X105000000Y-45500000D03*
%TD*%
%TO.C,ctrl2*%
X116000000Y-60000000D03*
%TD*%
D20*
%TO.C,C18*%
X113406250Y-48500000D03*
X113406250Y-46950000D03*
%TD*%
D21*
%TO.C,C17*%
X105500000Y-39000000D03*
X105500000Y-40550000D03*
%TD*%
%TO.C,C3*%
X104000000Y-39000000D03*
X104000000Y-40550000D03*
%TD*%
D22*
%TO.C,D1*%
X107050000Y-39000000D03*
X107050000Y-43000000D03*
X113000000Y-43000000D03*
X113000000Y-39000000D03*
%TD*%
D13*
%TO.C,o1*%
X109500000Y-59500000D03*
%TD*%
%LPD*%
M02*
