M48
; DRILL file {KiCad 9.0.2} date 2025-07-27T21:18:58+0200
; FORMAT={-:-/ absolute / inch / decimal}
; #@! TF.CreationDate,2025-07-27T21:18:58+02:00
; #@! TF.GenerationSoftware,Kicad,Pcbnew,9.0.2
; #@! TF.FileFunction,Plated,1,2,PTH
FMAT,2
INCH
; #@! TA.AperFunction,Plated,PTH,ComponentDrill
T1C0.0079
; #@! TA.AperFunction,Plated,PTH,ViaDrill
T2C0.0157
; #@! TA.AperFunction,Plated,PTH,ComponentDrill
T3C0.0276
%
G90
G05
T1
X4.315Y-2.126
X4.315Y-2.1732
X4.315Y-2.2205
X4.3701Y-2.126
X4.3701Y-2.1732
X4.3701Y-2.2205
T2
X4.0945Y-2.2638
X4.1535Y-1.6732
X4.1732Y-2.0866
X4.2089Y-1.8287
X4.4648Y-1.8091
X4.6063Y-2.2835
T3
X4.1339Y-1.7913
X4.1339Y-1.8898
X4.1535Y-2.3425
X4.311Y-2.3425
X4.4094Y-2.3425
X4.5276Y-1.5354
X4.5276Y-1.6732
X4.5436Y-1.8878
X4.5472Y-2.1063
X4.5472Y-2.2047
X4.5669Y-2.3622
M30
